<?xml version="1.0" encoding="utf-8"?>
<!DOCTYPE svg PUBLIC "-//W3C//DTD SVG 1.0//EN" "http://www.w3.org/TR/2001/REC-SVG-20010904/DTD/svg10.dtd">
<svg version="1.0" xmlns="http://www.w3.org/2000/svg" xmlns:xlink="http://www.w3.org/1999/xlink" x="0" y="0" width="190" height="349"
     xml:space="preserve">
<g id="armor_diagram_biped" transform="translate(-5.070937,-22.715706)"><g transform="translate(10.949996,31.587)"><g transform="matrix(1,0,0,-1,-402.56599,713.9773)"><g
           id="g56045"
           transform="translate(417.2097,579.1059)"><path
             d="m 0,0 -0.316,-3.614 c 0.055,0.645 0.322,1.218 0.718,1.665 C 0.093,-1.36 -0.06,-0.694 0,0"
             style="fill:#c8c7c7;fill-opacity:1;fill-rule:nonzero;stroke:none"
             id="path56047"
              /></g><g
           id="g56049"
           transform="translate(415.6674,574.0627)"><path
             d="m 0,0 1.206,-1.473 c 0.23,0.276 0.56,0.464 0.939,0.499 l 0.036,0.003 C 1.528,-0.397 1.144,0.481 1.227,1.429 L 1.19,1.029 C 1.149,0.57 0.686,0.201 0,0"
             style="fill:#c8c7c7;fill-opacity:1;fill-rule:nonzero;stroke:none"
             id="path56051"
              /></g><g
           id="g56053"
           transform="translate(425.9916,584.0378)"><path
             d="m 0,0 -2.563,7.825 -12.893,1.128 -4.212,-11.033 2.75,-0.24 -0.677,-7.745 c -0.04,-0.431 0.09,-0.877 0.401,-1.236 l 4.477,-5.168 c 0.619,-0.713 1.713,-0.808 2.446,-0.213 0.139,0.112 0.247,0.245 0.34,0.384 0.238,-0.089 0.497,-0.135 0.77,-0.112 l 3.457,0.284 c 0.955,0.078 1.658,0.893 1.572,1.818 -0.036,0.384 -0.207,0.722 -0.457,0.986 0.439,0.273 0.72,0.78 0.672,1.338 -0.036,0.447 -0.275,0.82 -0.613,1.051 0.529,0.466 0.89,1.135 0.958,1.903 10e-4,0.021 10e-4,0.041 0.002,0.062 1.655,0.375 2.933,1.669 3.075,3.311 l 0.331,3.772 c 0.056,0.639 -0.068,1.258 -0.332,1.813 L 0,0 Z"
             style="fill:#c8c7c7;fill-opacity:1;fill-rule:nonzero;stroke:none"
             id="path56055"
              /></g><g
           id="g56061"
           transform="translate(535.6025,555.1219)"><path
             d="m 0,0 4.419,0 2.194,-10.967 -0.46,-12.064 1.723,-1.318 12.034,-27.746 0.029,-3.838 -3.553,-4.387 3.006,-12.612 -4.387,-2.194 2.195,-3.839 10.418,-4.386 1.097,-2.741 2.193,-1.098 -0.002,-3.838 -1.095,0 -45.515,0 0,4.387 1.646,1.645 0.55,2.741 3.289,1.645 0,7.129 -2.136,0.549 -1.703,7.676 -6.581,1.097 -4.386,7.13 0.549,30.708 0.7,1.095 -1.797,6.582 0.548,2.193 -0.548,3.838 -2.194,1.646 -2.742,2.194 -0.548,0.547 0.548,1.097 1.645,0.548 -0.548,2.194 -0.964,3.289 -10.004,37.838 30.708,0 L 0,0 Z"
             style="fill:#c8c7c7;fill-opacity:1;fill-rule:nonzero;stroke:none"
             id="path56063"
              /></g><g
           id="g56065"
           transform="translate(440.0378,555.1219)"><path
             d="m 0,0 -4.418,0 -2.194,-10.967 0.458,-12.064 -1.722,-1.318 -12.035,-27.746 -0.029,-3.838 3.553,-4.387 -3.005,-12.612 4.388,-2.194 -2.196,-3.839 -10.418,-4.386 -1.098,-2.741 -2.192,-1.098 0.001,-3.838 1.096,0 45.514,0 0,4.387 -1.645,1.645 -0.549,2.741 -3.29,1.645 0,7.129 2.136,0.549 1.703,7.676 6.58,1.097 4.387,7.13 -0.548,30.708 -0.701,1.095 1.796,6.582 -0.547,2.193 0.547,3.838 2.195,1.646 2.742,2.194 0.548,0.547 -0.548,1.097 -1.646,0.548 0.548,2.194 0.965,3.289 L 40.38,36.74 9.672,36.74 0,0 Z"
             style="fill:#c8c7c7;fill-opacity:1;fill-rule:nonzero;stroke:none"
             id="path56067"
              /></g><g
           id="g56069"
           transform="translate(470.5469,681.7927)"><path
             d="m 0,0 -6.032,0 -25.225,-1.644 -1.097,-1.645 1.646,-35.644 1.645,-1.646 c 0,0 7.677,-1.096 11.515,-1.645 1.097,-16.45 6.58,-27.417 6.58,-27.417 l -13.21,-2.539 -0.499,-0.752 -1.097,-15.903 1.097,-1.096 27.419,0 0,19.193 L 0,-42.224 0,0 Z"
             style="fill:#c8c7c7;fill-opacity:1;fill-rule:nonzero;stroke:none"
             id="path56071"
              /></g><g
           id="g56073"
           transform="translate(505.0933,681.7927)"><path
             d="m 0,0 6.033,0 25.224,-1.644 1.097,-1.645 -1.645,-35.644 -1.645,-1.646 c 0,0 -7.678,-1.096 -11.515,-1.645 -1.098,-16.45 -6.582,-27.417 -6.582,-27.417 l 13.211,-2.539 0.498,-0.752 1.097,-15.903 -1.097,-1.096 -27.417,0 0,19.193 L 0,-42.224 0,0 Z"
             style="fill:#c8c7c7;fill-opacity:1;fill-rule:nonzero;stroke:none"
             id="path56075"
              /></g><g
           id="g56077"
           transform="translate(558.7031,579.1059)"><path
             d="M 0,0 0.317,-3.614 C 0.261,-2.969 -0.005,-2.396 -0.402,-1.949 -0.092,-1.36 0.061,-0.694 0,0"
             style="fill:#c8c7c7;fill-opacity:1;fill-rule:nonzero;stroke:none"
             id="path56079"
              /></g><g
           id="g56081"
           transform="translate(560.2473,574.0627)"><path
             d="m 0,0 -1.208,-1.473 c -0.228,0.276 -0.56,0.464 -0.937,0.499 l -0.038,0.003 c 0.654,0.574 1.038,1.452 0.955,2.4 l 0.037,-0.4 C -1.15,0.57 -0.687,0.201 0,0"
             style="fill:#c8c7c7;fill-opacity:1;fill-rule:nonzero;stroke:none"
             id="path56083"
              /></g><g
           id="g56085"
           transform="translate(550.4184,583.9661)"><path
             d="m 0,0 c -0.264,-0.555 -0.387,-1.174 -0.332,-1.814 l 0.331,-3.772 c 0.143,-1.642 1.42,-2.934 3.075,-3.31 0.001,-0.021 0.001,-0.042 0.002,-0.062 0.068,-0.768 0.428,-1.436 0.958,-1.904 -0.338,-0.23 -0.577,-0.603 -0.614,-1.051 -0.047,-0.558 0.233,-1.065 0.673,-1.336 -0.25,-0.265 -0.421,-0.603 -0.456,-0.987 -0.086,-0.926 0.616,-1.74 1.572,-1.818 l 3.456,-0.284 c 0.273,-0.023 0.533,0.023 0.772,0.112 0.092,-0.139 0.2,-0.273 0.338,-0.385 0.733,-0.594 1.827,-0.499 2.445,0.214 l 4.477,5.167 c 0.312,0.36 0.442,0.806 0.401,1.237 l -0.677,7.744 2.75,0.241 L 14.958,9.024 2.067,7.896 -0.497,0.071 0,0 Z"
             style="fill:#c8c7c7;fill-opacity:1;fill-rule:nonzero;stroke:none"
             id="path56087"
              /></g><g
           id="g56093"
           transform="translate(470.5469,681.7927)"><path
             d="m 0,0 0,-42.224 2.742,-28.514 0,-18.644 1.645,-14.807 2.193,-2.193 21.387,0 2.193,2.193 1.645,14.807 0,18.644 2.742,28.514 L 34.547,0 0,0 Z"
             style="fill:#c8c7c7;fill-opacity:1;fill-rule:nonzero;stroke:none"
             id="path56095"
              /></g><g
           id="g56097"
           transform="translate(487.8211,663.1489)"><path
             d="m 0,0 c -8.841,0 -16.007,4.107 -16.007,18.644 l -4.557,0 0,12.064 1.667,1.645 5.407,0.454 c 1.547,3.974 3.724,7.219 6.302,9.353 l 0.435,3.902 1.75,1.645 10.004,0 1.751,-1.645 0.435,-3.902 c 2.576,-2.134 4.755,-5.379 6.302,-9.353 l 5.406,-0.454 1.668,-1.645 0,-12.064 -4.558,0 C 16.005,4.107 8.838,0 0,0"
             style="fill:#c8c7c7;fill-opacity:1;fill-rule:nonzero;stroke:none"
             id="path56099"
              /></g><g
           id="g56101"
           transform="translate(533.9366,456.1723)"><path
             d="m 0,0 -29.063,1.645 -2.742,0 0,7.74 -1.666,1.646 -2.688,0.454 c -1.547,3.972 -2.079,5.636 -4.657,7.771 l -0.436,3.902 -1.75,1.645 -5.55,0 -1.752,-1.645 -0.433,-3.902 c -2.578,-2.135 -4.197,-3.799 -5.745,-7.771 l -1.611,-0.454 -1.669,-1.646 0,-7.74 -2.741,0 L -91.577,0 l -2.193,-2.742 1.644,-35.095 1.646,-1.645 c 0,0 19.203,-1.097 23.042,-1.645 1.095,-16.451 5.483,-18.033 5.483,-18.033 l 32.343,0 c 0,0 4.936,1.582 6.033,18.033 3.839,0.548 22.482,1.645 22.482,1.645 L 0.548,-37.837 2.194,-2.742 0,0 Z"
             style="fill:#c8c7c7;fill-opacity:1;fill-rule:nonzero;stroke:none"
             id="path56103"
              /></g></g>
<g transform="matrix(1,0,0,-1,-402.46898,713.93721)"><g
       id="armorDiagramRA"><g
         id="armorDiagramShadowRA"
         transform="translate(567.965,625.694)"><path
           d="M 0,0 -1.092,-0.096 -1.14,0.45 0.452,1.141 0.354,2.232 l -1.686,0.404 -0.047,0.546 1.092,0.096 0.95,1.735 -2.056,23.489 1.094,0.096 8.166,7.319 -0.525,6.009 -7.793,0.97 6.481,7.723 -2.212,6.412 -9.285,-0.812 2.724,12.898 -4.658,2.895 -9.997,-5.277 -0.457,11.519 -6.247,2.205 -9.069,-9.6 -3.654,-8.576 0.882,-3.777 6.985,-4.343 0.573,-6.554 -2.341,0.685 -0.987,-21.365 3.908,1.464 0.288,-3.278 1.686,-0.402 1.911,-21.852 1.236,-1.543 1.092,0.095 0.048,-0.546 -1.591,-0.689 0.096,-1.093 1.688,-0.403 0.047,-0.546 -1.093,-0.096 -0.95,-1.734 2.534,-28.952 1.782,-1.496 19.666,1.72 L 6.521,-24.2 1.782,-1.495 0,0 Z"
           style="fill:#c8c7c7;fill-opacity:1;fill-rule:nonzero;stroke:none"
           id="path56091"
            /></g><g
         id="armorDiagramFillRA"
         transform="translate(565.2268,628.0904)"><path
           d="M 0,0 -1.093,-0.096 -1.14,0.45 0.452,1.141 0.354,2.232 l -1.686,0.404 -0.047,0.546 1.092,0.096 0.949,1.734 -2.055,23.49 1.094,0.095 8.166,7.32 -0.525,6.009 -7.793,0.97 6.481,7.723 -2.212,6.412 -9.285,-0.812 2.724,12.898 -4.658,2.895 -9.997,-5.277 -0.457,11.519 -6.247,2.205 -9.069,-9.6 -3.654,-8.577 0.882,-3.776 6.985,-4.343 0.573,-6.554 -2.342,0.685 -0.986,-21.364 3.908,1.463 0.288,-3.278 1.686,-0.402 1.911,-21.852 1.236,-1.543 1.092,0.095 0.048,-0.546 -1.591,-0.689 0.096,-1.093 1.687,-0.403 0.048,-0.546 -1.093,-0.096 -0.95,-1.734 2.534,-28.952 1.782,-1.496 19.666,1.72 L 6.521,-24.2 1.782,-1.495 0,0 Z"
           style="fill:#ffffff;fill-opacity:1;fill-rule:nonzero;stroke:none"
           id="path56849"
            /></g><g
         id="armorDiagramOutlineRA"
         transform="translate(565.2268,628.0904)"><path
           d="M 0,0 -1.093,-0.096 -1.14,0.45 0.452,1.141 0.354,2.232 l -1.686,0.404 -0.047,0.546 1.092,0.096 0.949,1.734 -2.055,23.49 1.094,0.095 8.166,7.32 -0.525,6.009 -7.793,0.97 6.481,7.723 -2.212,6.412 -9.285,-0.812 2.724,12.898 -4.658,2.895 -9.997,-5.277 -0.457,11.519 -6.247,2.205 -9.069,-9.6 -3.654,-8.577 0.882,-3.776 6.985,-4.343 0.573,-6.554 -2.342,0.685 -0.986,-21.364 3.908,1.463 0.288,-3.278 1.686,-0.402 1.911,-21.852 1.236,-1.543 1.092,0.095 0.048,-0.546 -1.591,-0.689 0.096,-1.093 1.687,-0.403 0.048,-0.546 -1.093,-0.096 -0.95,-1.734 2.534,-28.952 1.782,-1.496 19.666,1.72 L 6.521,-24.2 1.782,-1.495 0,0 Z"
           style="fill:none;stroke:#231f20;stroke-width:1.449;stroke-linecap:butt;stroke-linejoin:miter;stroke-miterlimit:4;stroke-dasharray:none;stroke-opacity:1"
           id="path56853"
            /></g></g><g
       id="armorDiagramLA"><g
         id="armorDiagramLAShadow"
         transform="translate(407.9487,625.694)"><path
           d="M 0,0 1.093,-0.096 1.141,0.45 -0.451,1.141 -0.355,2.232 1.331,2.636 1.38,3.182 0.288,3.278 -0.663,5.013 1.393,28.502 0.3,28.598 l -8.167,7.319 0.526,6.009 7.792,0.97 -6.481,7.723 2.213,6.412 9.286,-0.812 -2.725,12.898 4.657,2.895 9.997,-5.277 0.458,11.519 6.247,2.205 9.069,-9.6 3.652,-8.576 -0.88,-3.777 -6.985,-4.343 -0.574,-6.554 2.342,0.685 0.987,-21.365 -3.909,1.464 L 27.518,25.115 25.832,24.713 23.921,2.861 22.683,1.318 21.592,1.413 21.544,0.867 23.135,0.178 23.04,-0.915 l -1.688,-0.403 -0.048,-0.546 1.093,-0.096 0.949,-1.734 -2.534,-28.952 -1.781,-1.496 -19.665,1.72 -5.887,8.222 4.739,22.705 L 0,0 Z"
           style="fill:#c8c7c7;fill-opacity:1;fill-rule:nonzero;stroke:none"
           id="path56059"
            /></g><g
         id="armorDiagramLAFill"
         transform="translate(405.2104,628.0904)"><path
           d="m 0,0 1.093,-0.096 0.048,0.546 -1.592,0.691 0.096,1.091 1.686,0.404 0.049,0.546 -1.092,0.096 -0.95,1.734 2.055,23.49 -1.093,0.095 -8.167,7.32 0.526,6.009 7.792,0.97 -6.481,7.723 2.213,6.412 9.286,-0.812 -2.725,12.898 4.657,2.895 9.997,-5.277 0.458,11.519 6.247,2.205 9.069,-9.6 3.652,-8.577 -0.88,-3.776 -6.984,-4.343 -0.575,-6.554 2.342,0.685 L 31.714,26.93 27.805,28.393 27.518,25.115 25.832,24.713 23.921,2.861 22.683,1.318 21.592,1.413 21.544,0.867 23.135,0.178 23.04,-0.915 l -1.687,-0.403 -0.049,-0.546 1.093,-0.096 0.949,-1.734 -2.534,-28.952 -1.781,-1.496 -19.665,1.72 -5.887,8.222 4.739,22.705 L 0,0 Z"
           style="fill:#ffffff;fill-opacity:1;fill-rule:nonzero;stroke:none"
           id="path56721"
            /></g><g
         id="armorDiagramLAOutline"
         transform="translate(405.2104,628.0904)"><path
           d="m 0,0 1.093,-0.096 0.048,0.546 -1.592,0.691 0.096,1.091 1.686,0.404 0.049,0.546 -1.092,0.096 -0.95,1.734 2.055,23.49 -1.093,0.095 -8.167,7.32 0.526,6.009 7.792,0.97 -6.481,7.723 2.213,6.412 9.286,-0.812 -2.725,12.898 4.657,2.895 9.997,-5.277 0.458,11.519 6.247,2.205 9.069,-9.6 3.652,-8.577 -0.88,-3.776 -6.984,-4.343 -0.575,-6.554 2.342,0.685 L 31.714,26.93 27.805,28.393 27.518,25.115 25.832,24.713 23.921,2.861 22.683,1.318 21.592,1.413 21.544,0.867 23.135,0.178 23.04,-0.915 l -1.687,-0.403 -0.049,-0.546 1.093,-0.096 0.949,-1.734 -2.534,-28.952 -1.781,-1.496 -19.665,1.72 -5.887,8.222 4.739,22.705 L 0,0 Z"
           style="fill:none;stroke:#231f20;stroke-width:1.449;stroke-linecap:butt;stroke-linejoin:miter;stroke-miterlimit:4;stroke-dasharray:none;stroke-opacity:1"
           id="path56725"
            /></g></g><g
       id="shieldRA"
       transform="matrix(1,0,0,-1,-7.7750681,771.107212)"
       visibility="hidden"><polygon
         fill="#c8c7c7"
         points="577.257,144.223 576.126,144.322 576.076,143.757 577.725,143.042 577.623,141.912      575.878,141.494 575.828,140.929 576.96,140.829 577.942,139.034 575.814,114.715 572.857,92.817 563.771,82.063 552.909,74.356      548.784,75.981 548.784,88.543 547.869,94.934 545.445,94.224 544.425,116.343 548.471,114.828 548.769,118.222 550.514,118.638      552.492,141.261 553.771,142.858 554.902,142.76 554.952,143.325 553.306,144.039 553.404,145.169 555.151,145.586      555.2,146.153 554.068,146.251 553.086,148.047 555.708,178.021 557.554,179.57 577.913,177.789 584.008,169.277      579.102,145.771    "
         id="polygon747" /><path
         fill="#c8c7c7"
         d="M587.766,144.193c-0.129,0-0.258-0.034-0.37-0.101l-7.497-4.248l0.369-0.657l0.747-0.09l-0.747,0.09     l-0.369,0.657c-0.207-0.117-0.342-0.333-0.369-0.567l-5.643-47.961l-10.71-12.501l-8.82-5.607     c-0.233-0.153-0.369-0.423-0.342-0.702l1.161-12.753c0.036-0.387,0.351-0.684,0.738-0.684l3.95-0.045l0.315-30.726     c0-0.207,0.09-0.405,0.243-0.54c0.137-0.13,0.311-0.201,0.495-0.201c0.021,0,0.042,0.001,0.063,0.003l24.759,1.665     c0.379,0.027,0.685,0.342,0.693,0.72l2.079,51.354v0.027v62.118c0,0.261-0.144,0.513-0.369,0.648     C588.025,144.16,587.895,144.193,587.766,144.193"
         id="path749" /><polygon
         fill="#FFFFFF"
         stroke="#231f20"
         stroke-width="1.449"
         stroke-linejoin="round"
         points="578.271,137.189 585.761,141.441      585.761,79.329 583.688,27.976 558.932,26.307 558.611,57.767 553.923,57.819 552.758,70.575 561.671,76.244 572.602,89    "
         id="polygon751" /><polygon
         fill="#FFFFFF"
         stroke="#231f20"
         stroke-width="1.449"
         stroke-linejoin="round"
         points="574.161,141.735 573.03,141.834      572.98,141.269 574.629,140.554 574.527,139.424 572.782,139.006 572.732,138.441 573.864,138.341 574.847,136.546      572.719,112.227 569.762,90.329 560.676,79.575 549.813,71.868 545.688,73.493 545.688,86.056 544.773,92.446 542.35,91.736      541.329,113.855 545.375,112.34 545.673,115.734 547.418,116.15 549.396,138.773 550.676,140.37 551.807,140.272      551.856,140.837 550.21,141.551 550.309,142.682 552.056,143.099 552.104,143.665 550.973,143.764 549.99,145.559      552.612,175.533 554.458,177.082 574.817,175.301 580.912,166.789 576.006,143.283    "
         id="polygon753" /><text
         transform="translate(571.885,34.2841)"
         style="font-variant:normal;font-weight:normal;font-stretch:normal;font-size:7.72730017px;font-family:Eurostile;writing-mode:lr-tb;fill:#110f0d;fill-opacity:1;fill-rule:nonzero;stroke:none"
         text-anchor="middle"
         id="text755">DC</text>
<text
         transform="translate(579.349,90.901)"
         style="font-variant:normal;font-weight:normal;font-stretch:normal;font-size:7.72730017px;font-family:Eurostile;writing-mode:lr-tb;fill:#110f0d;fill-opacity:1;fill-rule:nonzero;stroke:none"
         text-anchor="middle"
         id="text757">DA</text>
<g
         id="shieldDCRA"
         fill="none"
         transform="translate(555.519,30.2841)"><rect
           x="5"
           y="5.3272"
           width="23.3"
           height="6.15152"
           id="rightShieldDARow00" /><rect
           x="5"
           y="10.6544"
           width="23.3"
           height="6.15152"
           id="rightShieldDARow01" /><rect
           x="5"
           y="15.9816"
           width="23.3"
           height="6.15152"
           id="rightShieldDARow02" /><rect
           x="5"
           y="21.3088"
           width="23.3"
           height="6.15152"
           id="rightShieldDARow03" /><rect
           x="5"
           y="26.636"
           width="23.3"
           height="6.15152"
           id="rightShieldDARow04" /><rect
           x="0"
           y="31.9632"
           width="21.2"
           height="6.15152"
           id="rightShieldDARow05" /><rect
           x="3.55"
           y="37.2904"
           width="19.8"
           height="6.15152"
           id="rightShieldDARow06" /><rect
           x="9.67"
           y="42.6176"
           width="15.7"
           height="6.15152"
           id="rightShieldDARow07" /></g><g
         id="shieldDARA"
         fill="none"
         transform="matrix(0.063749,0.997966,-0.997966,0.063749,581.528,91.6269)"><rect
           x="0"
           y="0"
           width="44"
           height="6.15152"
           id="rightShieldDCRow00" /></g></g><g
       id="shieldLA"
       transform="matrix(1,0,0,-1,-4.609516,771.107212)"
       visibility="hidden"><polygon
         fill="#c8c7c7"
         points="411.482,144.223 412.613,144.322 412.662,143.757 411.013,143.042 411.115,141.912     412.861,141.494 412.91,140.929 411.779,140.829 410.796,139.034 412.923,114.715 415.88,92.817 424.966,82.063 435.828,74.356     439.953,75.981 439.953,88.543 440.869,94.934 443.293,94.224 444.314,116.343 440.268,114.828 439.97,118.222 438.224,118.638     436.246,141.261 434.966,142.858 433.836,142.76 433.785,143.325 435.434,144.039 435.334,145.169 433.587,145.586     433.537,146.153 434.67,146.251 435.652,148.047 433.029,178.021 431.186,179.57 410.824,177.789 404.73,169.277 409.636,145.771"
         id="polygon771" /><path
         fill="#c8c7c7"
         d="M398.851,144.193c-0.129,0-0.258-0.034-0.374-0.101c-0.233-0.135-0.377-0.387-0.377-0.648V81.327v-0.027    l2.078-51.354c0.019-0.378,0.315-0.693,0.702-0.72l24.75-1.665c0.021-0.002,0.041-0.003,0.063-0.003    c0.186,0,0.366,0.071,0.495,0.201c0.153,0.135,0.243,0.333,0.243,0.54l0.315,30.726l3.95,0.045c0.388,0,0.702,0.297,0.739,0.684    l1.17,12.753c0.025,0.279-0.108,0.549-0.352,0.702l-8.812,5.607l-10.709,12.501l-5.644,47.961    c-0.027,0.234-0.171,0.45-0.378,0.567l-7.487,4.248C399.107,144.16,398.979,144.193,398.851,144.193"
         id="path773" /><polygon
         fill="#FFFFFF"
         stroke="#231f20"
         stroke-width="1.449"
         stroke-linejoin="round"
         points="404.344,137.189 396.853,141.441     396.853,79.329 398.927,27.976 423.683,26.307 424.003,57.767 428.69,57.819 429.855,70.575 420.942,76.244 410.013,89   "
         id="polygon775" /><polygon
         fill="#FFFFFF"
         stroke="#231f20"
         stroke-width="1.449"
         stroke-linejoin="round"
         points="408.387,141.735 409.518,141.834     409.566,141.269 407.917,140.554 408.02,139.424 409.766,139.006 409.814,138.441 408.684,138.341 407.7,136.546 409.827,112.227     412.784,90.329 421.87,79.575 432.732,71.868 436.857,73.493 436.857,86.056 437.773,92.446 440.197,91.736 441.219,113.855     437.172,112.34 436.874,115.734 435.128,116.15 433.15,138.773 431.87,140.37 430.74,140.272 430.689,140.837 432.338,141.551     432.238,142.682 430.491,143.099 430.441,143.665 431.574,143.764 432.557,145.559 429.934,175.533 428.09,177.082     407.729,175.301 401.635,166.789 406.54,143.283"
         id="polygon777" /><text
         transform="translate(411.434,34.2841)"
         style="font-variant:normal;font-weight:normal;font-stretch:normal;font-size:7.72730017px;font-family:Eurostile;writing-mode:lr-tb;fill:#110f0d;fill-opacity:1;fill-rule:nonzero;stroke:none"
         text-anchor="middle"
         id="text779">DC</text>
<text
         transform="translate(403.302,90.901)"
         style="font-variant:normal;font-weight:normal;font-stretch:normal;font-size:7.72730017px;font-family:Eurostile;writing-mode:lr-tb;fill:#110f0d;fill-opacity:1;fill-rule:nonzero;stroke:none"
         text-anchor="middle"
         id="text781">DA</text>
<g
         id="shieldDCLA"
         fill="none"
         transform="matrix(-1,0,0,1,427.8,30.2841)"><rect
           x="5"
           y="5.3272"
           width="23.3"
           height="6.15152"
           id="leftShieldDARow00" /><rect
           x="5"
           y="10.6544"
           width="23.3"
           height="6.15152"
           id="leftShieldDARow01" /><rect
           x="5"
           y="15.9816"
           width="23.3"
           height="6.15152"
           id="leftShieldDARow02" /><rect
           x="5"
           y="21.3088"
           width="23.3"
           height="6.15152"
           id="leftShieldDARow03" /><rect
           x="5"
           y="26.636"
           width="23.3"
           height="6.15152"
           id="leftShieldDARow04" /><rect
           x="0"
           y="31.9632"
           width="21.2"
           height="6.15152"
           id="leftShieldDARow05" /><rect
           x="3.55"
           y="37.2904"
           width="19.8"
           height="6.15152"
           id="leftShieldDARow06" /><rect
           x="9.67"
           y="42.6176"
           width="15.7"
           height="6.15152"
           id="leftShieldDARow07" /></g><g
         id="shieldDALA"
         fill="none"
         transform="matrix(-0.063749,0.997966,0.997966,0.063749,401.123,91.6269)"><rect
           x="0"
           y="0"
           width="44"
           height="6.15152"
           id="leftShieldDCRow00" /></g></g></g>
           <g transform="matrix(1,0,0,-1,-402.56599,713.9773)">
<g
           id="g56615"
           transform="translate(531.0068,459.1861)"><path
             d="m 0,0 -29.063,1.645 -2.742,0 0,7.74 -1.666,1.646 -2.688,0.454 c -1.547,3.972 -2.079,5.637 -4.657,7.771 l -0.436,3.902 -1.75,1.645 -5.55,0 -1.752,-1.645 -0.433,-3.902 c -2.578,-2.134 -4.197,-3.799 -5.745,-7.771 l -1.611,-0.454 -1.669,-1.646 0,-7.74 -2.741,0 L -91.577,0 l -2.193,-2.742 1.644,-35.095 1.646,-1.646 c 0,0 19.203,-1.096 23.042,-1.644 1.095,-16.451 5.483,-18.033 5.483,-18.033 l 32.343,0 c 0,0 4.936,1.582 6.033,18.033 3.839,0.548 22.482,1.644 22.482,1.644 L 0.548,-37.837 2.194,-2.742 0,0 Z"
             style="fill:#ffffff;fill-opacity:1;fill-rule:nonzero;stroke:none"
             id="path56617"
              /></g><g
           id="g56619"
           transform="translate(531.0068,459.1861)"><path
             d="m 0,0 -29.063,1.645 -2.742,0 0,7.74 -1.666,1.646 -2.688,0.454 c -1.547,3.972 -2.079,5.637 -4.657,7.771 l -0.436,3.902 -1.75,1.645 -5.55,0 -1.752,-1.645 -0.433,-3.902 c -2.578,-2.134 -4.197,-3.799 -5.745,-7.771 l -1.611,-0.454 -1.669,-1.646 0,-7.74 -2.741,0 L -91.577,0 l -2.193,-2.742 1.644,-35.095 1.646,-1.646 c 0,0 19.203,-1.096 23.042,-1.644 1.095,-16.451 5.483,-18.033 5.483,-18.033 l 32.343,0 c 0,0 4.936,1.582 6.033,18.033 3.839,0.548 22.482,1.644 22.482,1.644 L 0.548,-37.837 2.194,-2.742 0,0 Z"
             style="fill:none;stroke:#231f20;stroke-width:1.449;stroke-linecap:butt;stroke-linejoin:miter;stroke-miterlimit:4;stroke-dasharray:none;stroke-opacity:1"
             id="path56621"
              /></g><g
           id="g56623"
           transform="translate(499.2026,460.8311)"><path
             d="m 0,0 0,-27.418 c 7.676,-4.936 8.226,-15.354 8.226,-15.354"
             style="fill:none;stroke:#231f20;stroke-width:1.449;stroke-linecap:butt;stroke-linejoin:miter;stroke-miterlimit:4;stroke-dasharray:none;stroke-opacity:1"
             id="path56625"
              /></g><g
           id="g56627"
           transform="translate(471.2449,460.8311)"><path
             d="m 0,0 0,-27.418 c -7.676,-4.936 -7.676,-15.354 -7.676,-15.354"
             style="fill:none;stroke:#231f20;stroke-width:1.449;stroke-linecap:butt;stroke-linejoin:miter;stroke-miterlimit:4;stroke-dasharray:none;stroke-opacity:1"
             id="path56629"
              /></g><g
           id="g56631"
           transform="translate(414.4714,581.5023)"><path
             d="m 0,0 -0.316,-3.614 c 0.055,0.645 0.322,1.218 0.718,1.664 C 0.093,-1.36 -0.06,-0.694 0,0 Z"
             style="fill:none;stroke:#231f20;stroke-width:1.449;stroke-linecap:butt;stroke-linejoin:miter;stroke-miterlimit:4;stroke-dasharray:none;stroke-opacity:1"
             id="path56633"
              /></g><g
           id="g56635"
           transform="translate(412.9291,576.459)"><path
             d="m 0,0 1.206,-1.473 c 0.23,0.276 0.56,0.464 0.939,0.499 l 0.036,0.003 C 1.528,-0.397 1.144,0.481 1.227,1.429 L 1.19,1.029 C 1.149,0.57 0.686,0.201 0,0 Z"
             style="fill:none;stroke:#231f20;stroke-width:1.449;stroke-linecap:butt;stroke-linejoin:miter;stroke-miterlimit:4;stroke-dasharray:none;stroke-opacity:1"
             id="path56637"
              /></g><g
           id="g56639"
           transform="translate(423.2532,586.4341)"><path
             d="m 0,0 -2.563,7.825 -12.893,1.128 -4.212,-11.033 2.75,-0.24 -0.677,-7.745 c -0.04,-0.431 0.09,-0.877 0.401,-1.236 l 4.477,-5.168 c 0.619,-0.713 1.713,-0.808 2.446,-0.213 0.139,0.112 0.247,0.245 0.34,0.384 0.238,-0.089 0.497,-0.135 0.77,-0.112 l 3.457,0.284 c 0.955,0.078 1.658,0.893 1.572,1.818 -0.036,0.384 -0.207,0.722 -0.457,0.986 0.439,0.273 0.72,0.78 0.672,1.338 -0.036,0.447 -0.275,0.82 -0.613,1.051 0.529,0.467 0.89,1.136 0.958,1.903 10e-4,0.021 10e-4,0.041 0.002,0.062 1.655,0.375 2.933,1.669 3.075,3.311 l 0.331,3.772 c 0.056,0.64 -0.068,1.258 -0.332,1.813 L 0,0 Z"
             style="fill:#ffffff;fill-opacity:1;fill-rule:nonzero;stroke:none"
             id="path56641"
              /></g><g
           id="g56643"
           transform="translate(423.2532,586.4341)"><path
             d="m 0,0 -2.563,7.825 -12.893,1.128 -4.212,-11.033 2.75,-0.24 -0.677,-7.745 c -0.04,-0.431 0.09,-0.877 0.401,-1.236 l 4.477,-5.168 c 0.619,-0.713 1.713,-0.808 2.446,-0.213 0.139,0.112 0.247,0.245 0.34,0.384 0.238,-0.089 0.497,-0.135 0.77,-0.112 l 3.457,0.284 c 0.955,0.078 1.658,0.893 1.572,1.818 -0.036,0.384 -0.207,0.722 -0.457,0.986 0.439,0.273 0.72,0.78 0.672,1.338 -0.036,0.447 -0.275,0.82 -0.613,1.051 0.529,0.467 0.89,1.136 0.958,1.903 10e-4,0.021 10e-4,0.041 0.002,0.062 1.655,0.375 2.933,1.669 3.075,3.311 l 0.331,3.772 c 0.056,0.64 -0.068,1.258 -0.332,1.813 L 0,0 Z"
             style="fill:none;stroke:#231f20;stroke-width:1.449;stroke-linecap:butt;stroke-linejoin:miter;stroke-miterlimit:4;stroke-dasharray:none;stroke-opacity:1"
             id="path56645"
              /></g><g
           id="g56647"
           transform="translate(417.238,573.6608)"><path
             d="M 0,0 C 0.953,0.078 1.796,-0.608 1.883,-1.534 1.969,-2.46 1.265,-3.274 0.311,-3.353 l -3.457,-0.284 c -0.955,-0.079 -1.798,0.609 -1.884,1.534 -0.086,0.926 0.618,1.74 1.572,1.819 L 0,0 Z"
             style="fill:#ffffff;fill-opacity:1;fill-rule:nonzero;stroke:none"
             id="path56649"
              /></g><g
           id="g56651"
           transform="translate(417.238,573.6608)"><path
             d="M 0,0 C 0.953,0.078 1.796,-0.608 1.883,-1.534 1.969,-2.46 1.265,-3.274 0.311,-3.353 l -3.457,-0.284 c -0.955,-0.079 -1.798,0.609 -1.884,1.534 -0.086,0.926 0.618,1.74 1.572,1.819 L 0,0 Z"
             style="fill:none;stroke:#231f20;stroke-width:1.449;stroke-linecap:butt;stroke-linejoin:miter;stroke-miterlimit:4;stroke-dasharray:none;stroke-opacity:1"
             id="path56653"
              /></g><g
           id="g56655"
           transform="translate(413.1904,572.1205)"><path
             d="m 0,0 c 0.617,-0.713 0.525,-1.773 -0.208,-2.368 -0.733,-0.595 -1.827,-0.5 -2.446,0.213 l -4.477,5.168 c -0.618,0.713 -0.525,1.774 0.208,2.369 0.733,0.595 1.828,0.499 2.446,-0.213 L 0,0 Z"
             style="fill:#ffffff;fill-opacity:1;fill-rule:nonzero;stroke:none"
             id="path56657"
              /></g><g
           id="g56659"
           transform="translate(413.1904,572.1205)"><path
             d="m 0,0 c 0.617,-0.713 0.525,-1.773 -0.208,-2.368 -0.733,-0.595 -1.827,-0.5 -2.446,0.213 l -4.477,5.168 c -0.618,0.713 -0.525,1.774 0.208,2.369 0.733,0.595 1.828,0.499 2.446,-0.213 L 0,0 Z"
             style="fill:none;stroke:#231f20;stroke-width:1.449;stroke-linecap:butt;stroke-linejoin:miter;stroke-miterlimit:4;stroke-dasharray:none;stroke-opacity:1"
             id="path56661"
              /></g><g
           id="g56663"
           transform="translate(412.5745,575.7567)"><path
             d="m 0,0 c -0.081,-0.925 -1.695,-1.54 -3.604,-1.373 -1.91,0.167 -3.393,1.052 -3.312,1.978 l 0.878,10.054 c 0.081,0.925 1.695,1.539 3.607,1.373 1.91,-0.168 3.391,-1.053 3.31,-1.979 L 0,0 Z"
             style="fill:#ffffff;fill-opacity:1;fill-rule:nonzero;stroke:none"
             id="path56665"
              /></g><g
           id="g56667"
           transform="translate(412.5745,575.7567)"><path
             d="m 0,0 c -0.081,-0.925 -1.695,-1.54 -3.604,-1.373 -1.91,0.167 -3.393,1.052 -3.312,1.978 l 0.878,10.054 c 0.081,0.925 1.695,1.539 3.607,1.373 1.91,-0.168 3.391,-1.053 3.31,-1.979 L 0,0 Z"
             style="fill:none;stroke:#231f20;stroke-width:1.449;stroke-linecap:butt;stroke-linejoin:miter;stroke-miterlimit:4;stroke-dasharray:none;stroke-opacity:1"
             id="path56669"
              /></g><g
           id="g56671"
           transform="translate(417.838,575.7379)"><path
             d="m 0,0 c 0.763,0.07 1.433,-0.506 1.499,-1.288 0.066,-0.78 -0.5,-1.471 -1.263,-1.54 l -2.765,-0.253 c -0.762,-0.07 -1.434,0.506 -1.499,1.286 -0.065,0.782 0.501,1.471 1.265,1.542 L 0,0 Z"
             style="fill:#ffffff;fill-opacity:1;fill-rule:nonzero;stroke:none"
             id="path56673"
              /></g><g
           id="g56675"
           transform="translate(417.838,575.7379)"><path
             d="m 0,0 c 0.763,0.07 1.433,-0.506 1.499,-1.288 0.066,-0.78 -0.5,-1.471 -1.263,-1.54 l -2.765,-0.253 c -0.762,-0.07 -1.434,0.506 -1.499,1.286 -0.065,0.782 0.501,1.471 1.265,1.542 L 0,0 Z"
             style="fill:none;stroke:#231f20;stroke-width:1.449;stroke-linecap:butt;stroke-linejoin:miter;stroke-miterlimit:4;stroke-dasharray:none;stroke-opacity:1"
             id="path56677"
              /></g><g
           id="g56679"
           transform="translate(414.5978,574.4225)"><path
             d="m 0,0 c 0.492,-0.6 0.412,-1.495 -0.175,-2 -0.589,-0.505 -1.462,-0.427 -1.954,0.171 l -3.557,4.342 c -0.491,0.6 -0.413,1.495 0.175,2.001 0.587,0.505 1.463,0.428 1.954,-0.171 L 0,0 Z"
             style="fill:#ffffff;fill-opacity:1;fill-rule:nonzero;stroke:none"
             id="path56681"
              /></g><g
           id="g56683"
           transform="translate(414.5978,574.4225)"><path
             d="m 0,0 c 0.492,-0.6 0.412,-1.495 -0.175,-2 -0.589,-0.505 -1.462,-0.427 -1.954,0.171 l -3.557,4.342 c -0.491,0.6 -0.413,1.495 0.175,2.001 0.587,0.505 1.463,0.428 1.954,-0.171 L 0,0 Z"
             style="fill:none;stroke:#231f20;stroke-width:1.449;stroke-linecap:butt;stroke-linejoin:miter;stroke-miterlimit:4;stroke-dasharray:none;stroke-opacity:1"
             id="path56685"
              /></g><g
           id="g56687"
           transform="translate(414.1195,577.4877)"><path
             d="m 0,0 c -0.067,-0.78 -1.36,-1.306 -2.884,-1.172 -1.527,0.134 -2.709,0.874 -2.641,1.655 l 0.743,8.486 c 0.067,0.781 1.36,1.307 2.886,1.173 1.525,-0.133 2.707,-0.875 2.64,-1.656 L 0,0 Z"
             style="fill:#ffffff;fill-opacity:1;fill-rule:nonzero;stroke:none"
             id="path56689"
              /></g><g
           id="g56691"
           transform="translate(414.1195,577.4877)"><path
             d="m 0,0 c -0.067,-0.78 -1.36,-1.306 -2.884,-1.172 -1.527,0.134 -2.709,0.874 -2.641,1.655 l 0.743,8.486 c 0.067,0.781 1.36,1.307 2.886,1.173 1.525,-0.133 2.707,-0.875 2.64,-1.656 L 0,0 Z"
             style="fill:none;stroke:#231f20;stroke-width:1.449;stroke-linecap:butt;stroke-linejoin:miter;stroke-miterlimit:4;stroke-dasharray:none;stroke-opacity:1"
             id="path56693"
              /></g><g
           id="g56695"
           transform="translate(419.6811,577.4042)"><path
             d="m 0,0 c -0.138,-1.563 -1.485,-2.72 -3.011,-2.588 -1.525,0.135 -2.652,1.51 -2.515,3.072 0.136,1.562 1.484,2.72 3.011,2.587 C -0.99,2.938 0.136,1.562 0,0"
             style="fill:#ffffff;fill-opacity:1;fill-rule:nonzero;stroke:none"
             id="path56697"
              /></g><g
           id="g56699"
           transform="translate(419.6811,577.4042)"><path
             d="m 0,0 c -0.138,-1.563 -1.485,-2.72 -3.011,-2.588 -1.525,0.135 -2.652,1.51 -2.515,3.072 0.136,1.562 1.484,2.72 3.011,2.587 C -0.99,2.938 0.136,1.562 0,0 Z"
             style="fill:none;stroke:#231f20;stroke-width:1.449;stroke-linecap:butt;stroke-linejoin:miter;stroke-miterlimit:4;stroke-dasharray:none;stroke-opacity:1"
             id="path56701"
              /></g><g
           id="g56703"
           transform="translate(422.759,580.7769)"><path
             d="m 0,0 c -0.183,-2.082 -2.185,-3.61 -4.473,-3.409 -2.29,0.2 -3.997,2.052 -3.815,4.134 l 0.331,3.771 c 0.181,2.083 2.184,3.61 4.473,3.41 C -1.195,7.705 0.511,5.854 0.33,3.772 L 0,0 Z"
             style="fill:#ffffff;fill-opacity:1;fill-rule:nonzero;stroke:none"
             id="path56705"
              /></g><g
           id="g56707"
           transform="translate(422.759,580.7769)"><path
             d="m 0,0 c -0.183,-2.082 -2.185,-3.61 -4.473,-3.409 -2.29,0.2 -3.997,2.052 -3.815,4.134 l 0.331,3.771 c 0.181,2.083 2.184,3.61 4.473,3.41 C -1.195,7.705 0.511,5.854 0.33,3.772 L 0,0 Z"
             style="fill:none;stroke:#231f20;stroke-width:1.449;stroke-linecap:butt;stroke-linejoin:miter;stroke-miterlimit:4;stroke-dasharray:none;stroke-opacity:1"
             id="path56709"
              /></g><g
           id="g56711"
           transform="translate(403.5851,584.3542)"><path
             d="M 0,0 3.224,-0.282 19.668,2.08 17.105,9.904 4.212,11.033 0,0 Z"
             style="fill:#ffffff;fill-opacity:1;fill-rule:nonzero;stroke:none"
             id="path56713"
              /></g><g
           id="g56715"
           transform="translate(403.5851,584.3542)"><path
             d="M 0,0 3.224,-0.282 19.668,2.08 17.105,9.904 4.212,11.033 0,0 Z"
             style="fill:none;stroke:#231f20;stroke-width:1.449;stroke-linecap:butt;stroke-linejoin:miter;stroke-miterlimit:4;stroke-dasharray:none;stroke-opacity:1"
             id="path56717"
              /></g><g
           id="g56727"
           transform="translate(532.8641,557.5182)"><path
             d="m 0,0 4.419,0 2.194,-10.968 -0.46,-12.063 1.723,-1.318 12.034,-27.746 0.029,-3.838 -3.553,-4.387 3.006,-12.612 -4.387,-2.193 2.195,-3.84 10.418,-4.386 1.097,-2.741 2.193,-1.098 -0.002,-3.838 -1.095,0 -45.515,0 0,4.387 1.646,1.645 0.55,2.741 3.289,1.645 0,7.129 -2.136,0.549 -1.703,7.676 -6.581,1.097 -4.386,7.129 0.549,30.708 0.7,1.096 -1.797,6.582 0.548,2.193 -0.548,3.838 -2.194,1.645 -2.742,2.194 -0.548,0.548 0.548,1.097 1.645,0.548 -0.548,2.194 -0.964,3.289 -10.004,37.838 30.708,0 L 0,0 Z"
             style="fill:#ffffff;fill-opacity:1;fill-rule:nonzero;stroke:none"
             id="path56729"
              /></g><g
           id="g56731"
           transform="translate(532.8641,557.5182)"><path
             d="m 0,0 4.419,0 2.194,-10.968 -0.46,-12.063 1.723,-1.318 12.034,-27.746 0.029,-3.838 -3.553,-4.387 3.006,-12.612 -4.387,-2.193 2.195,-3.84 10.418,-4.386 1.097,-2.741 2.193,-1.098 -0.002,-3.838 -1.095,0 -45.515,0 0,4.387 1.646,1.645 0.55,2.741 3.289,1.645 0,7.129 -2.136,0.549 -1.703,7.676 -6.581,1.097 -4.386,7.129 0.549,30.708 0.7,1.096 -1.797,6.582 0.548,2.193 -0.548,3.838 -2.194,1.645 -2.742,2.194 -0.548,0.548 0.548,1.097 1.645,0.548 -0.548,2.194 -0.964,3.289 -10.004,37.838 30.708,0 L 0,0 Z"
             style="fill:none;stroke:#231f20;stroke-width:1.449;stroke-linecap:butt;stroke-linejoin:miter;stroke-miterlimit:4;stroke-dasharray:none;stroke-opacity:1"
             id="path56733"
              /></g><g
           id="g56735"
           transform="translate(437.2995,557.5182)"><path
             d="m 0,0 -4.418,0 -2.194,-10.968 0.458,-12.063 -1.722,-1.318 -12.035,-27.746 -0.029,-3.838 3.553,-4.387 -3.005,-12.612 4.388,-2.193 -2.196,-3.84 -10.418,-4.386 -1.098,-2.741 -2.192,-1.098 0.001,-3.838 1.096,0 45.514,0 0,4.387 -1.645,1.645 -0.549,2.741 -3.29,1.645 0,7.129 2.136,0.549 1.703,7.676 6.58,1.097 4.387,7.129 -0.548,30.708 -0.701,1.096 1.797,6.582 -0.548,2.193 0.548,3.838 2.194,1.645 2.742,2.194 0.548,0.548 -0.548,1.097 -1.646,0.548 0.548,2.194 0.965,3.289 L 40.38,36.74 9.672,36.74 0,0 Z"
             style="fill:#ffffff;fill-opacity:1;fill-rule:nonzero;stroke:none"
             id="path56737"
              /></g><g
           id="g56739"
           transform="translate(437.2995,557.5182)"><path
             d="m 0,0 -4.418,0 -2.194,-10.968 0.458,-12.063 -1.722,-1.318 -12.035,-27.746 -0.029,-3.838 3.553,-4.387 -3.005,-12.612 4.388,-2.193 -2.196,-3.84 -10.418,-4.386 -1.098,-2.741 -2.192,-1.098 0.001,-3.838 1.096,0 45.514,0 0,4.387 -1.645,1.645 -0.549,2.741 -3.29,1.645 0,7.129 2.136,0.549 1.703,7.676 6.58,1.097 4.387,7.129 -0.548,30.708 -0.701,1.096 1.797,6.582 -0.548,2.193 0.548,3.838 2.194,1.645 2.742,2.194 0.548,0.548 -0.548,1.097 -1.646,0.548 0.548,2.194 0.965,3.289 L 40.38,36.74 9.672,36.74 0,0 Z"
             style="fill:none;stroke:#231f20;stroke-width:1.449;stroke-linecap:butt;stroke-linejoin:miter;stroke-miterlimit:4;stroke-dasharray:none;stroke-opacity:1"
             id="path56741"
              /></g><g
           id="g56743"
           transform="translate(467.8086,684.189)"><path
             d="m 0,0 -6.032,0 -25.225,-1.644 -1.097,-1.645 1.646,-35.644 1.645,-1.646 c 0,0 7.677,-1.096 11.515,-1.645 1.097,-16.45 6.58,-27.417 6.58,-27.417 l -13.21,-2.539 -0.499,-0.752 -1.097,-15.903 1.097,-1.096 27.419,0 0,19.193 L 0,-42.224 0,0 Z"
             style="fill:#ffffff;fill-opacity:1;fill-rule:nonzero;stroke:none"
             id="path56745"
              /></g><g
           id="g56747"
           transform="translate(467.8086,684.189)"><path
             d="m 0,0 -6.032,0 -25.225,-1.644 -1.097,-1.645 1.646,-35.644 1.645,-1.646 c 0,0 7.677,-1.096 11.515,-1.645 1.097,-16.45 6.58,-27.417 6.58,-27.417 l -13.21,-2.539 -0.499,-0.752 -1.097,-15.903 1.097,-1.096 27.419,0 0,19.193 L 0,-42.224 0,0 Z"
             style="fill:none;stroke:#231f20;stroke-width:1.449;stroke-linecap:butt;stroke-linejoin:miter;stroke-miterlimit:4;stroke-dasharray:none;stroke-opacity:1"
             id="path56749"
              /></g><g
           id="g56751"
           transform="translate(502.355,684.189)"><path
             d="m 0,0 6.033,0 25.224,-1.644 1.097,-1.645 -1.645,-35.644 -1.645,-1.646 c 0,0 -7.678,-1.096 -11.515,-1.645 -1.098,-16.45 -6.582,-27.417 -6.582,-27.417 l 13.211,-2.539 0.498,-0.752 1.097,-15.903 -1.097,-1.096 -27.417,0 0,19.193 L 0,-42.224 0,0 Z"
             style="fill:#ffffff;fill-opacity:1;fill-rule:nonzero;stroke:none"
             id="path56753"
              /></g><g
           id="g56755"
           transform="translate(502.355,684.189)"><path
             d="m 0,0 6.033,0 25.224,-1.644 1.097,-1.645 -1.645,-35.644 -1.645,-1.646 c 0,0 -7.678,-1.096 -11.515,-1.645 -1.098,-16.45 -6.582,-27.417 -6.582,-27.417 l 13.211,-2.539 0.498,-0.752 1.097,-15.903 -1.097,-1.096 -27.417,0 0,19.193 L 0,-42.224 0,0 Z"
             style="fill:none;stroke:#231f20;stroke-width:1.449;stroke-linecap:butt;stroke-linejoin:miter;stroke-miterlimit:4;stroke-dasharray:none;stroke-opacity:1"
             id="path56757"
              /></g><g
           id="g56759"
           transform="translate(555.9648,581.5023)"><path
             d="M 0,0 0.317,-3.614 C 0.26,-2.969 -0.005,-2.396 -0.402,-1.95 -0.092,-1.36 0.061,-0.694 0,0 Z"
             style="fill:none;stroke:#231f20;stroke-width:1.449;stroke-linecap:butt;stroke-linejoin:miter;stroke-miterlimit:4;stroke-dasharray:none;stroke-opacity:1"
             id="path56761"
              /></g><g
           id="g56763"
           transform="translate(557.5089,576.459)"><path
             d="m 0,0 -1.208,-1.473 c -0.228,0.276 -0.56,0.464 -0.937,0.499 l -0.038,0.003 c 0.654,0.574 1.038,1.452 0.955,2.4 l 0.037,-0.4 C -1.15,0.57 -0.687,0.201 0,0 Z"
             style="fill:none;stroke:#231f20;stroke-width:1.449;stroke-linecap:butt;stroke-linejoin:miter;stroke-miterlimit:4;stroke-dasharray:none;stroke-opacity:1"
             id="path56765"
              /></g><g
           id="g56767"
           transform="translate(547.6801,586.3624)"><path
             d="m 0,0 c -0.265,-0.555 -0.387,-1.174 -0.332,-1.814 l 0.331,-3.772 c 0.142,-1.642 1.42,-2.934 3.075,-3.31 0.001,-0.021 0.001,-0.042 0.001,-0.062 0.069,-0.768 0.429,-1.436 0.959,-1.904 -0.337,-0.23 -0.577,-0.603 -0.614,-1.05 -0.047,-0.559 0.233,-1.066 0.673,-1.337 -0.251,-0.265 -0.421,-0.603 -0.456,-0.987 -0.086,-0.926 0.616,-1.739 1.571,-1.818 l 3.457,-0.284 c 0.273,-0.023 0.532,0.023 0.771,0.112 0.093,-0.139 0.2,-0.273 0.339,-0.385 0.733,-0.594 1.827,-0.499 2.445,0.214 l 4.477,5.167 c 0.312,0.36 0.442,0.807 0.402,1.237 l -0.678,7.744 2.75,0.241 L 14.958,9.024 2.067,7.896 -0.497,0.071 0,0 Z"
             style="fill:#ffffff;fill-opacity:1;fill-rule:nonzero;stroke:none"
             id="path56769"
              /></g><g
           id="g56771"
           transform="translate(547.6801,586.3624)"><path
             d="m 0,0 c -0.265,-0.555 -0.387,-1.174 -0.332,-1.814 l 0.331,-3.772 c 0.142,-1.642 1.42,-2.934 3.075,-3.31 0.001,-0.021 0.001,-0.042 0.001,-0.062 0.069,-0.768 0.429,-1.436 0.959,-1.904 -0.337,-0.23 -0.577,-0.603 -0.614,-1.05 -0.047,-0.559 0.233,-1.066 0.673,-1.337 -0.251,-0.265 -0.421,-0.603 -0.456,-0.987 -0.086,-0.926 0.616,-1.739 1.571,-1.818 l 3.457,-0.284 c 0.273,-0.023 0.532,0.023 0.771,0.112 0.093,-0.139 0.2,-0.273 0.339,-0.385 0.733,-0.594 1.827,-0.499 2.445,0.214 l 4.477,5.167 c 0.312,0.36 0.442,0.807 0.402,1.237 l -0.678,7.744 2.75,0.241 L 14.958,9.024 2.067,7.896 -0.497,0.071 0,0 Z"
             style="fill:none;stroke:#231f20;stroke-width:1.449;stroke-linecap:butt;stroke-linejoin:miter;stroke-miterlimit:4;stroke-dasharray:none;stroke-opacity:1"
             id="path56773"
              /></g><g
           id="g56775"
           transform="translate(553.2001,573.6608)"><path
             d="m 0,0 c -0.953,0.078 -1.798,-0.608 -1.884,-1.534 -0.085,-0.926 0.617,-1.74 1.573,-1.819 l 3.456,-0.284 c 0.955,-0.079 1.799,0.609 1.884,1.534 0.086,0.926 -0.619,1.74 -1.571,1.819 L 0,0 Z"
             style="fill:#ffffff;fill-opacity:1;fill-rule:nonzero;stroke:none"
             id="path56777"
              /></g><g
           id="g56779"
           transform="translate(553.2001,573.6608)"><path
             d="m 0,0 c -0.953,0.078 -1.798,-0.608 -1.884,-1.534 -0.085,-0.926 0.617,-1.74 1.573,-1.819 l 3.456,-0.284 c 0.955,-0.079 1.799,0.609 1.884,1.534 0.086,0.926 -0.619,1.74 -1.571,1.819 L 0,0 Z"
             style="fill:none;stroke:#231f20;stroke-width:1.449;stroke-linecap:butt;stroke-linejoin:miter;stroke-miterlimit:4;stroke-dasharray:none;stroke-opacity:1"
             id="path56781"
              /></g><g
           id="g56783"
           transform="translate(557.2468,572.1205)"><path
             d="m 0,0 c -0.617,-0.713 -0.525,-1.773 0.209,-2.368 0.733,-0.595 1.826,-0.5 2.444,0.213 L 7.13,3.013 C 7.749,3.726 7.657,4.787 6.924,5.382 6.19,5.977 5.095,5.881 4.477,5.169 L 0,0 Z"
             style="fill:#ffffff;fill-opacity:1;fill-rule:nonzero;stroke:none"
             id="path56785"
              /></g><g
           id="g56787"
           transform="translate(557.2468,572.1205)"><path
             d="m 0,0 c -0.617,-0.713 -0.525,-1.773 0.209,-2.368 0.733,-0.595 1.826,-0.5 2.444,0.213 L 7.13,3.013 C 7.749,3.726 7.657,4.787 6.924,5.382 6.19,5.977 5.095,5.881 4.477,5.169 L 0,0 Z"
             style="fill:none;stroke:#231f20;stroke-width:1.449;stroke-linecap:butt;stroke-linejoin:miter;stroke-miterlimit:4;stroke-dasharray:none;stroke-opacity:1"
             id="path56789"
              /></g><g
           id="g56791"
           transform="translate(557.8618,575.7567)"><path
             d="m 0,0 c 0.082,-0.925 1.696,-1.54 3.606,-1.373 1.91,0.167 3.393,1.052 3.311,1.978 L 6.038,10.659 c -0.081,0.925 -1.694,1.539 -3.606,1.373 -1.91,-0.168 -3.391,-1.053 -3.31,-1.979 L 0,0 Z"
             style="fill:#ffffff;fill-opacity:1;fill-rule:nonzero;stroke:none"
             id="path56793"
              /></g><g
           id="g56795"
           transform="translate(557.8618,575.7567)"><path
             d="m 0,0 c 0.082,-0.925 1.696,-1.54 3.606,-1.373 1.91,0.167 3.393,1.052 3.311,1.978 L 6.038,10.659 c -0.081,0.925 -1.694,1.539 -3.606,1.373 -1.91,-0.168 -3.391,-1.053 -3.31,-1.979 L 0,0 Z"
             style="fill:none;stroke:#231f20;stroke-width:1.449;stroke-linecap:butt;stroke-linejoin:miter;stroke-miterlimit:4;stroke-dasharray:none;stroke-opacity:1"
             id="path56797"
              /></g><g
           id="g56799"
           transform="translate(552.6002,575.7379)"><path
             d="m 0,0 c -0.764,0.07 -1.435,-0.506 -1.5,-1.288 -0.066,-0.78 0.499,-1.471 1.263,-1.54 l 2.765,-0.253 c 0.761,-0.07 1.434,0.506 1.499,1.286 0.065,0.782 -0.501,1.471 -1.264,1.542 L 0,0 Z"
             style="fill:#ffffff;fill-opacity:1;fill-rule:nonzero;stroke:none"
             id="path56801"
              /></g><g
           id="g56803"
           transform="translate(552.6002,575.7379)"><path
             d="m 0,0 c -0.764,0.07 -1.435,-0.506 -1.5,-1.288 -0.066,-0.78 0.499,-1.471 1.263,-1.54 l 2.765,-0.253 c 0.761,-0.07 1.434,0.506 1.499,1.286 0.065,0.782 -0.501,1.471 -1.264,1.542 L 0,0 Z"
             style="fill:none;stroke:#231f20;stroke-width:1.449;stroke-linecap:butt;stroke-linejoin:miter;stroke-miterlimit:4;stroke-dasharray:none;stroke-opacity:1"
             id="path56805"
              /></g><g
           id="g56807"
           transform="translate(555.8403,574.4225)"><path
             d="m 0,0 c -0.492,-0.6 -0.413,-1.495 0.175,-2 0.587,-0.505 1.461,-0.427 1.953,0.171 L 5.685,2.513 C 6.176,3.113 6.098,4.008 5.51,4.514 4.923,5.019 4.048,4.942 3.556,4.343 L 0,0 Z"
             style="fill:#ffffff;fill-opacity:1;fill-rule:nonzero;stroke:none"
             id="path56809"
              /></g><g
           id="g56811"
           transform="translate(555.8403,574.4225)"><path
             d="m 0,0 c -0.492,-0.6 -0.413,-1.495 0.175,-2 0.587,-0.505 1.461,-0.427 1.953,0.171 L 5.685,2.513 C 6.176,3.113 6.098,4.008 5.51,4.514 4.923,5.019 4.048,4.942 3.556,4.343 L 0,0 Z"
             style="fill:none;stroke:#231f20;stroke-width:1.449;stroke-linecap:butt;stroke-linejoin:miter;stroke-miterlimit:4;stroke-dasharray:none;stroke-opacity:1"
             id="path56813"
              /></g><g
           id="g56815"
           transform="translate(556.3176,577.4877)"><path
             d="m 0,0 c 0.068,-0.78 1.361,-1.306 2.885,-1.172 1.526,0.134 2.708,0.874 2.641,1.655 L 4.782,8.969 C 4.714,9.75 3.421,10.276 1.896,10.142 0.371,10.009 -0.811,9.267 -0.743,8.486 L 0,0 Z"
             style="fill:#ffffff;fill-opacity:1;fill-rule:nonzero;stroke:none"
             id="path56817"
              /></g><g
           id="g56819"
           transform="translate(556.3176,577.4877)"><path
             d="m 0,0 c 0.068,-0.78 1.361,-1.306 2.885,-1.172 1.526,0.134 2.708,0.874 2.641,1.655 L 4.782,8.969 C 4.714,9.75 3.421,10.276 1.896,10.142 0.371,10.009 -0.811,9.267 -0.743,8.486 L 0,0 Z"
             style="fill:none;stroke:#231f20;stroke-width:1.449;stroke-linecap:butt;stroke-linejoin:miter;stroke-miterlimit:4;stroke-dasharray:none;stroke-opacity:1"
             id="path56821"
              /></g><g
           id="g56823"
           transform="translate(550.756,577.4042)"><path
             d="m 0,0 c 0.138,-1.563 1.485,-2.72 3.012,-2.588 1.525,0.135 2.651,1.51 2.514,3.072 C 5.389,2.046 4.042,3.204 2.516,3.071 0.989,2.938 -0.137,1.562 0,0"
             style="fill:#ffffff;fill-opacity:1;fill-rule:nonzero;stroke:none"
             id="path56825"
              /></g><g
           id="g56827"
           transform="translate(550.756,577.4042)"><path
             d="m 0,0 c 0.138,-1.563 1.485,-2.72 3.012,-2.588 1.525,0.135 2.651,1.51 2.514,3.072 C 5.389,2.046 4.042,3.204 2.516,3.071 0.989,2.938 -0.137,1.562 0,0 Z"
             style="fill:none;stroke:#231f20;stroke-width:1.449;stroke-linecap:butt;stroke-linejoin:miter;stroke-miterlimit:4;stroke-dasharray:none;stroke-opacity:1"
             id="path56829"
              /></g><g
           id="g56831"
           transform="translate(547.6791,580.7769)"><path
             d="m 0,0 c 0.182,-2.082 2.184,-3.61 4.474,-3.409 2.287,0.2 3.995,2.052 3.812,4.134 L 7.956,4.496 C 7.775,6.579 5.772,8.106 3.483,7.906 1.194,7.705 -0.513,5.854 -0.331,3.772 L 0,0 Z"
             style="fill:#ffffff;fill-opacity:1;fill-rule:nonzero;stroke:none"
             id="path56833"
              /></g><g
           id="g56835"
           transform="translate(547.6791,580.7769)"><path
             d="m 0,0 c 0.182,-2.082 2.184,-3.61 4.474,-3.409 2.287,0.2 3.995,2.052 3.812,4.134 L 7.956,4.496 C 7.775,6.579 5.772,8.106 3.483,7.906 1.194,7.705 -0.513,5.854 -0.331,3.772 L 0,0 Z"
             style="fill:none;stroke:#231f20;stroke-width:1.449;stroke-linecap:butt;stroke-linejoin:miter;stroke-miterlimit:4;stroke-dasharray:none;stroke-opacity:1"
             id="path56837"
              /></g><g
           id="g56839"
           transform="translate(566.8511,584.3542)"><path
             d="M 0,0 -3.222,-0.282 -19.667,2.08 -17.104,9.904 -4.212,11.033 0,0 Z"
             style="fill:#ffffff;fill-opacity:1;fill-rule:nonzero;stroke:none"
             id="path56841"
              /></g><g
           id="g56843"
           transform="translate(566.8511,584.3542)"><path
             d="M 0,0 -3.222,-0.282 -19.667,2.08 -17.104,9.904 -4.212,11.033 0,0 Z"
             style="fill:none;stroke:#231f20;stroke-width:1.449;stroke-linecap:butt;stroke-linejoin:miter;stroke-miterlimit:4;stroke-dasharray:none;stroke-opacity:1"
             id="path56845"
              /></g><g
           id="g56855"
           transform="translate(467.8086,684.189)"><path
             d="m 0,0 0,-42.224 2.742,-28.514 0,-18.644 1.645,-14.807 2.193,-2.193 21.387,0 2.193,2.193 1.645,14.807 0,18.644 2.742,28.514 L 34.547,0 0,0 Z"
             style="fill:#ffffff;fill-opacity:1;fill-rule:nonzero;stroke:none"
             id="path56857"
              /></g><g
           id="g56859"
           transform="translate(467.8086,684.189)"><path
             d="m 0,0 0,-42.224 2.742,-28.514 0,-18.644 1.645,-14.807 2.193,-2.193 21.387,0 2.193,2.193 1.645,14.807 0,18.644 2.742,28.514 L 34.547,0 0,0 Z"
             style="fill:none;stroke:#231f20;stroke-width:1.449;stroke-linecap:butt;stroke-linejoin:miter;stroke-miterlimit:4;stroke-dasharray:none;stroke-opacity:1"
             id="path56861"
              /></g><g
           id="g56863"
           transform="translate(485.0827,665.5453)"><path
             d="m 0,0 c -8.841,0 -16.007,4.107 -16.007,18.644 l -4.557,0 0,12.064 1.667,1.645 5.407,0.454 c 1.547,3.974 3.724,7.219 6.302,9.353 l 0.435,3.902 1.75,1.645 10.004,0 1.751,-1.645 0.435,-3.902 c 2.576,-2.134 4.755,-5.379 6.302,-9.353 l 5.406,-0.454 1.668,-1.645 0,-12.064 -4.558,0 C 16.005,4.107 8.838,0 0,0"
             style="fill:#ffffff;fill-opacity:1;fill-rule:nonzero;stroke:none"
             id="path56865"
              /></g><g
           id="g56867"
           transform="translate(485.0827,665.5453)"><path
             d="m 0,0 c -8.841,0 -16.007,4.107 -16.007,18.644 l -4.557,0 0,12.064 1.667,1.645 5.407,0.454 c 1.547,3.974 3.724,7.219 6.302,9.353 l 0.435,3.902 1.75,1.645 10.004,0 1.751,-1.645 0.435,-3.902 c 2.576,-2.134 4.755,-5.379 6.302,-9.353 l 5.406,-0.454 1.668,-1.645 0,-12.064 -4.558,0 C 16.005,4.107 8.838,0 0,0 Z"
             style="fill:none;stroke:#231f20;stroke-width:1.449;stroke-linecap:butt;stroke-linejoin:miter;stroke-miterlimit:4;stroke-dasharray:none;stroke-opacity:1"
             id="path56869"
              /></g><g
           id="g56871"
           transform="translate(496.9802,676.7037)"><path
             d="m 0,0 c 1.308,3.017 2.084,6.679 2.084,10.815 0,3.179 -0.464,6.192 -1.27,8.906 -0.913,0.325 -1.853,0.611 -2.816,0.863 C -0.755,14.735 -0.018,7.648 0,0"
             style="fill:#c8c7c7;fill-opacity:1;fill-rule:nonzero;stroke:none"
             id="path56873"
              /></g><g
           id="g56875"
           transform="translate(496.9802,676.7037)"><path
             d="m 0,0 c 1.308,3.017 2.084,6.679 2.084,10.815 0,3.179 -0.464,6.192 -1.27,8.906 -0.913,0.325 -1.853,0.611 -2.816,0.863 C -0.755,14.735 -0.018,7.648 0,0 Z"
             style="fill:none;stroke:#c8c7c7;stroke-width:0.96600002;stroke-linecap:butt;stroke-linejoin:miter;stroke-miterlimit:4;stroke-dasharray:none;stroke-opacity:1"
             id="path56877"
              /></g><g
           id="g56879"
           transform="translate(473.1844,676.6962)"><path
             d="M 0,0 C 0.016,7.651 0.755,14.741 2.002,20.592 1.039,20.34 0.097,20.054 -0.815,19.729 -1.622,17.014 -2.085,14.002 -2.085,10.823 -2.085,6.684 -1.308,3.018 0,0"
             style="fill:#c8c7c7;fill-opacity:1;fill-rule:nonzero;stroke:none"
             id="path56881"
              /></g><g
           id="g56883"
           transform="translate(473.1844,676.6962)"><path
             d="M 0,0 C 0.016,7.651 0.755,14.741 2.002,20.592 1.039,20.34 0.097,20.054 -0.815,19.729 -1.622,17.014 -2.085,14.002 -2.085,10.823 -2.085,6.684 -1.308,3.018 0,0 Z"
             style="fill:none;stroke:#c8c7c7;stroke-width:0.96600002;stroke-linecap:butt;stroke-linejoin:miter;stroke-miterlimit:4;stroke-dasharray:none;stroke-opacity:1"
             id="path56885"
              /></g><g
           id="g56887"
           transform="translate(492.3082,700.118)"><path
             d="m 0,0 c -0.935,2.898 -2.101,3.585 -3.419,5.134 -1.22,0.523 -2.5,0.809 -3.805,0.809 -1.303,0 -2.583,-0.286 -3.801,-0.809 -1.319,-1.549 -2.486,-2.236 -3.422,-5.134 2.306,0.362 4.725,0.558 7.223,0.558 2.5,0 4.919,-0.196 7.224,-0.558"
             style="fill:#c8c7c7;fill-opacity:1;fill-rule:nonzero;stroke:none"
             id="path56889"
              /></g><g
           id="g56891"
           transform="translate(492.3082,700.118)"><path
             d="m 0,0 c -0.935,2.898 -2.101,3.585 -3.419,5.134 -1.22,0.523 -2.5,0.809 -3.805,0.809 -1.303,0 -2.583,-0.286 -3.801,-0.809 -1.319,-1.549 -2.486,-2.236 -3.422,-5.134 2.306,0.362 4.725,0.558 7.223,0.558 2.5,0 4.919,-0.196 7.224,-0.558 z"
             style="fill:none;stroke:#c8c7c7;stroke-width:0.96600002;stroke-linecap:butt;stroke-linejoin:miter;stroke-miterlimit:4;stroke-dasharray:none;stroke-opacity:1"
             id="path56893"
              /></g><g
           id="g56895"
           transform="translate(475.485,675.9222)"><path
             d="m 0,0 c 1.785,-3.034 4.089,-5.676 6.739,-6.538 l 0.664,2.867 4.802,0 0.604,-2.705 c 2.467,0.946 4.711,3.515 6.391,6.372 0.009,0.523 0.012,1.049 0.012,1.577 0,7.713 -0.778,14.803 -2.078,20.409 -2.389,0.527 -4.917,0.813 -7.535,0.813 -2.617,0 -5.143,-0.286 -7.532,-0.813 C 0.766,16.376 -0.012,9.286 -0.012,1.573 -0.012,1.046 -0.008,0.523 0,0"
             style="fill:#c8c7c7;fill-opacity:1;fill-rule:nonzero;stroke:none"
             id="path56897"
              /></g><g
           id="g56899"
           transform="translate(475.485,675.9222)"><path
             d="m 0,0 c 1.785,-3.034 4.089,-5.676 6.739,-6.538 l 0.664,2.867 4.802,0 0.604,-2.705 c 2.467,0.946 4.711,3.515 6.391,6.372 0.009,0.523 0.012,1.049 0.012,1.577 0,7.713 -0.778,14.803 -2.078,20.409 -2.389,0.527 -4.917,0.813 -7.535,0.813 -2.617,0 -5.143,-0.286 -7.532,-0.813 C 0.766,16.376 -0.012,9.286 -0.012,1.573 -0.012,1.046 -0.008,0.523 0,0 Z"
             style="fill:none;stroke:#c8c7c7;stroke-width:0.96600002;stroke-linecap:butt;stroke-linejoin:miter;stroke-miterlimit:4;stroke-dasharray:none;stroke-opacity:1"
             id="path56901"
              /></g><text
       transform="matrix(0.99810198,0,0,-1,471.2441,718.7283)"
       style="font-variant:normal;font-weight:bold;font-stretch:normal;font-size:5.7954998px;font-family:Eurostile;writing-mode:lr-tb;fill:#231f20;fill-opacity:1;fill-rule:nonzero;stroke:none"
       id="text60301"><tspan
         x="0 4.3466249 7.6210823 10.924518"
         y="0"
         id="tspan60303">Head</tspan><tspan
         x="5.7201586 9.5741663 12.848623 16.210014 18.331167 21.605623"
         y="156.06702"
         id="tspan60305">Center</tspan><tspan
         x="7.3950582 10.205875 13.509311 16.070921 19.183105"
         y="163.02162"
         id="tspan60307">Torso</tspan></text>
<text
       transform="matrix(0.99808472,0,0,-1,511.4877,713.2522)"
       style="font-variant:normal;font-weight:bold;font-stretch:normal;font-size:5.7954998px;font-family:Eurostile;writing-mode:lr-tb;fill:#231f20;fill-opacity:1;fill-rule:nonzero;stroke:none"
       id="text60311"><tspan
         x="0 4.0626454 5.3086782 8.6294994 11.99089 14.112042 16.11149 18.922308 22.225742 24.787354 27.899536"
         y="0"
         id="tspan60313">Right Torso</tspan><tspan
         x="-80.963135 -77.729248 -74.454788 -72.704544 -70.583397 -68.583946 -65.773132 -62.469696 -59.908085 -56.795898"
         y="0"
         id="tspan60317">Left Torso</tspan><tspan
         x="46.549458 50.612103 51.858135 55.178955 58.540344"
         y="201.24294"
         id="tspan60321">Right</tspan><tspan
         x="48.69379 51.927681 55.202137"
         y="208.19754"
         id="tspan60323">Leg</tspan><tspan
         x="-112.06179 -108.8279 -105.55344 -103.8032"
         y="201.24294"
         id="tspan60327">Left</tspan><tspan
         x="-111.7894 -108.55551 -105.28105"
         y="208.19754"
         id="tspan60329">Leg</tspan><tspan
         x="-35.288799 -31.434792 -28.160334 -24.798944 -22.677792 -19.403334"
         y="209.45517"
         id="tspan60333">Center</tspan><tspan
         x="-33.613899 -30.803083 -27.499647 -24.938036 -21.825853"
         y="216.40977"
         id="tspan60335">Torso</tspan><tspan
         x="28.212494 31.023312 34.326748 36.888359 40.000542 43.303974 45.303425 49.36607 52.640526 55.943962"
         y="299.33759"
         id="tspan60339">Torso Rear</tspan><tspan
         x="36.297218 40.359863 41.605896 44.926716 48.288105 -101.15466 -97.920769 -94.646309 -92.896072"
         y="290.22705"
         id="tspan60343">RightLeft</tspan><tspan
         x="-111.11133 -108.30051 -104.99707 -102.43546 -99.32328 -96.019844 -94.020393 -89.957748 -86.683296 -83.37986"
         y="299.33759"
         id="tspan60345">Torso Rear</tspan></text></g><g transform="translate(0,157.20049)">
<text style="font-variant:normal;font-weight:bold;font-stretch:normal;font-size:5.7954998px;font-family:Eurostile;writing-mode:lr-tb;fill:#231f20;fill-opacity:1;fill-rule:nonzero;stroke:none"
       id="text60347"><tspan
         x="0 3.2338891 6.5083466 8.2585878 10.379741 12.379188 16.349106 18.910717"
         y="0"
         id="tspan60349">Left Arm</tspan><tspan
         x="143.52556 147.5882 148.83423 152.15506 155.51645 157.6376 159.63705 163.60696 166.16858"
         y="0"
         id="tspan60353">Right Arm</tspan></text></g></g>
<g
     id="armorPips" transform="translate(-391.12064,-19.334069)"><g
       id="armorPipsHD"
       fill="none"
       transform="translate(475.8385,68.1505)"><rect
         x="6.15152"
         y="0"
         width="6.2"
         height="6.15152"
         id="armorHDRow00" /><rect
         x="0"
         y="5.3272"
         width="18.5"
         height="6.15152"
         id="armorHDRow01" /><rect
         x="0"
         y="10.6544"
         width="18.5"
         height="6.15152"
         id="armorHDRow02" /><rect
         x="0"
         y="16.9"
         width="18.5"
         height="6.15152"
         id="armorHDRow03" /></g><g
       id="armorPipsHD_SH"
       fill="none"
       transform="translate(472.7384,68.1505)"><rect
         x="6.15152"
         y="0"
         width="12.4"
         height="6.15152"
         id="armorHDSHRow00" /><rect
         x="0"
         y="5.3272"
         width="24.7"
         height="6.15152"
         id="armorHDSHRow01" /><rect
         x="0"
         y="10.6544"
         width="24.7"
         height="6.15152"
         id="armorHDSHRow02" /><rect
         x="0"
         y="15.9816"
         width="24.7"
         height="6.15152"
         id="armorHDSHRow03" /></g><g
       id="armorPipsCT"
       fill="none"
       transform="translate(468.57,100.5541)"><rect
         x="0"
         y="0"
         width="33.04"
         height="6.15152"
         id="armorCTRow00" /><rect
         x="0"
         y="5.3272"
         width="33.04"
         height="6.15152"
         id="armorCTRow01" /><rect
         x="0"
         y="10.6544"
         width="33.04"
         height="6.15152"
         id="armorCTRow02" /><rect
         x="0"
         y="15.9816"
         width="33.04"
         height="6.15152"
         id="armorCTRow03" /><rect
         x="0.5"
         y="21.3088"
         width="32.04"
         height="6.15152"
         id="armorCTRow04" /><rect
         x="1.01"
         y="26.636"
         width="30.98"
         height="6.15152"
         id="armorCTRow05" /><rect
         x="1.51"
         y="31.9632"
         width="29.98"
         height="6.15152"
         id="armorCTRow06" /><rect
         x="2.02"
         y="37.2904"
         width="28.98"
         height="6.15152"
         id="armorCTRow07" /><rect
         x="2.53"
         y="42.6176"
         width="27.94"
         height="6.15152"
         id="armorCTRow08" /><rect
         x="2.78"
         y="47.9449"
         width="27.48"
         height="6.15152"
         id="armorCTRow09" /><rect
         x="2.78"
         y="53.2722"
         width="27.48"
         height="6.15152"
         id="armorCTRow10" /><rect
         x="2.78"
         y="58.5994"
         width="27.48"
         height="6.15152"
         id="armorCTRow11" /><rect
         x="2.78"
         y="63.9266"
         width="27.48"
         height="6.15152"
         id="armorCTRow12" /><rect
         x="3.35"
         y="69.2538"
         width="26.34"
         height="6.15152"
         id="armorCTRow13" /><rect
         x="4.05"
         y="74.5810"
         width="24.94"
         height="6.15152"
         id="armorCTRow14" /><rect
         x="6.14"
         y="79.9082"
         width="20.76"
         height="6.15152"
         id="armorCTRow15" /></g><g
       id="armorPipsRT"
       fill="none"
       transform="translate(500.33,83.94)"><rect
         x="2.8"
         y="0"
         width="30.5"
         height="6.15152"
         id="armorRTRow00" /><rect
         x="2.8"
         y="5.3272"
         width="30.33"
         height="6.15152"
         id="armorRTRow01" /><rect
         x="2.8"
         y="10.6544"
         width="30.14"
         height="6.15152"
         id="armorRTRow02" /><rect
         x="2.8"
         y="15.9816"
         width="29.82"
         height="6.15152"
         id="armorRTRow03" /><rect
         x="2.8"
         y="21.3088"
         width="29.57"
         height="6.15152"
         id="armorRTRow04" /><rect
         x="2.8"
         y="26.636"
         width="29.32"
         height="6.15152"
         id="armorRTRow05" /><rect
         x="2.8"
         y="31.9632"
         width="20.9"
         height="6.15152"
         id="armorRTRow06" /><rect
         x="2.8"
         y="37.2904"
         width="15.7"
         height="6.15152"
         id="armorRTRow07" /><rect
         x="2.4"
         y="42.6176"
         width="15.08"
         height="6.15152"
         id="armorRTRow08" /><rect
         x="1.98"
         y="47.9449"
         width="14.43"
         height="6.15152"
         id="armorRTRow09" /><rect
         x="1.54"
         y="53.2722"
         width="13.36"
         height="6.15152"
         id="armorRTRow10" /><rect
         x="1.09"
         y="58.5994"
         width="11.78"
         height="6.15152"
         id="armorRTRow11" /><rect
         x="0.46"
         y="63.9266"
         width="11.46"
         height="6.15152"
         id="armorRTRow12" /><rect
         x="0"
         y="69.2538"
         width="24.08"
         height="6.15152"
         id="armorRTRow13" /><rect
         x="0"
         y="74.5810"
         width="26.46"
         height="6.15152"
         id="armorRTRow14" /><rect
         x="0"
         y="79.9082"
         width="26.67"
         height="6.15152"
         id="armorRTRow15" /></g><g
       id="armorPipsLT"
       fill="none"
       transform="matrix(-1, 0, 0, 1, 469.85,84.3877)"><rect
         x="2.8"
         y="0"
         width="30.5"
         height="6.15152"
         id="armorLTRow00" /><rect
         x="2.8"
         y="5.3272"
         width="30.33"
         height="6.15152"
         id="armorLTRow01" /><rect
         x="2.8"
         y="10.6544"
         width="30.14"
         height="6.15152"
         id="armorLTRow02" /><rect
         x="2.8"
         y="15.9816"
         width="29.82"
         height="6.15152"
         id="armorLTRow03" /><rect
         x="2.8"
         y="21.3088"
         width="29.57"
         height="6.15152"
         id="armorLTRow04" /><rect
         x="2.8"
         y="26.636"
         width="29.32"
         height="6.15152"
         id="armorLTRow05" /><rect
         x="2.8"
         y="31.9632"
         width="20.9"
         height="6.15152"
         id="armorLTRow06" /><rect
         x="2.8"
         y="37.2904"
         width="15.7"
         height="6.15152"
         id="armorLTRow07" /><rect
         x="2.4"
         y="42.6176"
         width="15.08"
         height="6.15152"
         id="armorLTRow08" /><rect
         x="1.98"
         y="47.9449"
         width="14.43"
         height="6.15152"
         id="armorLTRow09" /><rect
         x="1.54"
         y="53.2722"
         width="13.36"
         height="6.15152"
         id="armorLTRow10" /><rect
         x="1.09"
         y="58.5994"
         width="11.78"
         height="6.15152"
         id="armorLTRow11" /><rect
         x="0.46"
         y="63.9266"
         width="11.46"
         height="6.15152"
         id="armorLTRow12" /><rect
         x="0"
         y="69.2538"
         width="24.08"
         height="6.15152"
         id="armorLTRow13" /><rect
         x="0"
         y="74.5810"
         width="26.46"
         height="6.15152"
         id="armorLTRow14" /><rect
         x="0"
         y="79.9082"
         width="26.67"
         height="6.15152"
         id="armorLTRow15" /></g><g
       id="armorPipsRA"
       fill="none"
       transform="matrix(0.9962,-0.08715,0.08715,0.99619,539.45,82.5344)"><rect
         x="0"
         y="0"
         width="18.5"
         height="6.15152"
         id="armorRARow00" /><rect
         x="0"
         y="5.3272"
         width="18.5"
         height="6.15152"
         id="armorRARow01" /><rect
         x="0"
         y="10.6544"
         width="18.5"
         height="6.15152"
         id="armorRARow02" /><rect
         x="0"
         y="15.9816"
         width="18.5"
         height="6.15152"
         id="armorRARow03" /><rect
         x="0"
         y="21.3088"
         width="18.5"
         height="6.15152"
         id="armorRARow04" /><rect
         x="0"
         y="26.636"
         width="18.5"
         height="6.15152"
         id="armorRARow05" /><rect
         x="0"
         y="31.9632"
         width="18.5"
         height="6.15152"
         id="armorRARow06" /><rect
         x="0"
         y="37.2904"
         width="18.5"
         height="6.15152"
         id="armorRARow07" /><rect
         x="0"
         y="42.6176"
         width="18.5"
         height="6.15152"
         id="armorRARow08" /><rect
         x="0"
         y="47.9449"
         width="18.5"
         height="6.15152"
         id="armorRARow09" /><rect
         x="6.15"
         y="53.2722"
         width="6.5"
         height="6.15152"
         id="armorRARow10" /><rect
         x="0"
         y="58.5994"
         width="18.5"
         height="6.15152"
         id="armorRARow11" /><rect
         x="0"
         y="63.9266"
         width="18.5"
         height="6.15152"
         id="armorRARow12" /><rect
         x="0"
         y="69.2538"
         width="18.5"
         height="6.15152"
         id="armorRARow13" /><rect
         x="0"
         y="74.5810"
         width="18.5"
         height="6.15152"
         id="armorRARow14" /><rect
         x="0"
         y="79.9082"
         width="18.5"
         height="6.15152"
         id="armorRARow15" /></g><g
       id="armorPipsLA"
       fill="none"
       transform="matrix(-0.9962,-0.08715,-0.08715,0.99619,430.83558,82.5344)"><rect
         x="0"
         y="0"
         width="18.5"
         height="6.15152"
         id="armorLARow00" /><rect
         x="0"
         y="5.3272"
         width="18.5"
         height="6.15152"
         id="armorLARow01" /><rect
         x="0"
         y="10.6544"
         width="18.5"
         height="6.15152"
         id="armorLARow02" /><rect
         x="0"
         y="15.9816"
         width="18.5"
         height="6.15152"
         id="armorLARow03" /><rect
         x="0"
         y="21.3088"
         width="18.5"
         height="6.15152"
         id="armorLARow04" /><rect
         x="0"
         y="26.636"
         width="18.5"
         height="6.15152"
         id="armorLARow05" /><rect
         x="0"
         y="31.9632"
         width="18.5"
         height="6.15152"
         id="armorLARow06" /><rect
         x="0"
         y="37.2904"
         width="18.5"
         height="6.15152"
         id="armorLARow07" /><rect
         x="0"
         y="42.6176"
         width="18.5"
         height="6.15152"
         id="armorLARow08" /><rect
         x="0"
         y="47.9449"
         width="18.5"
         height="6.15152"
         id="armorLARow09" /><rect
         x="6.15"
         y="53.2722"
         width="6.5"
         height="6.15152"
         id="armorLARow10" /><rect
         x="0"
         y="58.5994"
         width="18.5"
         height="6.15152"
         id="armorLARow11" /><rect
         x="0"
         y="63.9266"
         width="18.5"
         height="6.15152"
         id="armorLARow12" /><rect
         x="0"
         y="69.2538"
         width="18.5"
         height="6.15152"
         id="armorLARow13" /><rect
         x="0"
         y="74.5810"
         width="18.5"
         height="6.15152"
         id="armorLARow14" /><rect
         x="0"
         y="79.9082"
         width="18.5"
         height="6.15152"
         id="armorLARow15" /></g><g
       id="armorPipsRL"
       fill="none"
       transform="matrix(0.9751,-0.2215,0.2215,0.9751,487.66592,183.7983)"><rect
         x="15.3788"
         y="0"
         width="18.5"
         height="6.15152"
         id="armorRLRow00" /><rect
         x="15.3788"
         y="5.3272"
         width="18.5"
         height="6.15152"
         id="armorRLRow01" /><rect
         x="15.3788"
         y="10.6544"
         width="18.5"
         height="6.15152"
         id="armorRLRow02" /><rect
         x="15.3788"
         y="15.9816"
         width="18.5"
         height="6.15152"
         id="armorRLRow03" /><rect
         x="15.3788"
         y="21.3088"
         width="18.5"
         height="6.15152"
         id="armorRLRow04" /><rect
         x="15.3788"
         y="26.636"
         width="18.5"
         height="6.15152"
         id="armorRLRow05" /><rect
         x="15.3788"
         y="31.9632"
         width="18.5"
         height="6.15152"
         id="armorRLRow06" /><rect
         x="15.3788"
         y="37.2904"
         width="18.5"
         height="6.15152"
         id="armorRLRow07" /><rect
         x="15.3788"
         y="42.6176"
         width="25"
         height="6.15152"
         id="armorRLRow08" /><rect
         x="15.3788"
         y="47.9449"
         width="22"
         height="6.15152"
         id="armorRLRow09" /><rect
         x="12.30304"
         y="53.2722"
         width="18.5"
         height="6.15152"
         id="armorRLRow10" /><rect
         x="9.22728"
         y="58.5994"
         width="31"
         height="6.15152"
         id="armorRLRow11" /><rect
         x="6.15152"
         y="63.9266"
         width="37"
         height="6.15152"
         id="armorRLRow12" /><rect
         x="6.15152"
         y="69.2538"
         width="37"
         height="6.15152"
         id="armorRLRow13" /><rect
         x="6.15152"
         y="74.5810"
         width="37"
         height="6.15152"
         id="armorRLRow14" /><rect
         x="6.15152"
         y="79.9082"
         width="41.5"
         height="6.15152"
         id="armorRLRow15" /><rect
         x="15.3788"
         y="85.2355"
         width="25"
         height="6.15152"
         id="armorRLRow16" /><rect
         x="15.3788"
         y="90.5627"
         width="18.5"
         height="6.15152"
         id="armorRLRow17" /><rect
         x="15.3788"
         y="95.8899"
         width="18.5"
         height="6.15152"
         id="armorRLRow18" /><rect
         x="15.3788"
         y="101.2171"
         width="18.5"
         height="6.15152"
         id="armorRLRow19" /><rect
         x="15.3788"
         y="106.5443"
         width="18.5"
         height="6.15152"
         id="armorRLRow20" /></g><g
       id="armorPipsLL"
       fill="none"
       transform="matrix(-0.9751,-0.2215,-0.2215,0.9751,482.61792,183.7983)"><rect
         x="15.3788"
         y="0"
         width="18.5"
         height="6.15152"
         id="armorLLRow00" /><rect
         x="15.3788"
         y="5.3272"
         width="18.5"
         height="6.15152"
         id="armorLLRow01" /><rect
         x="15.3788"
         y="10.6544"
         width="18.5"
         height="6.15152"
         id="armorLLRow02" /><rect
         x="15.3788"
         y="15.9816"
         width="18.5"
         height="6.15152"
         id="armorLLRow03" /><rect
         x="15.3788"
         y="21.3088"
         width="18.5"
         height="6.15152"
         id="armorLLRow04" /><rect
         x="15.3788"
         y="26.636"
         width="18.5"
         height="6.15152"
         id="armorLLRow05" /><rect
         x="15.3788"
         y="31.9632"
         width="18.5"
         height="6.15152"
         id="armorLLRow06" /><rect
         x="15.3788"
         y="37.2904"
         width="18.5"
         height="6.15152"
         id="armorLLRow07" /><rect
         x="15.3788"
         y="42.6176"
         width="25"
         height="6.15152"
         id="armorLLRow08" /><rect
         x="15.3788"
         y="47.9449"
         width="22"
         height="6.15152"
         id="armorLLRow09" /><rect
         x="12.30304"
         y="53.2722"
         width="18.5"
         height="6.15152"
         id="armorLLRow10" /><rect
         x="9.22728"
         y="58.5994"
         width="31"
         height="6.15152"
         id="armorLLRow11" /><rect
         x="6.15152"
         y="63.9266"
         width="37"
         height="6.15152"
         id="armorLLRow12" /><rect
         x="6.15152"
         y="69.2538"
         width="37"
         height="6.15152"
         id="armorLLRow13" /><rect
         x="6.15152"
         y="74.5810"
         width="37"
         height="6.15152"
         id="armorLLRow14" /><rect
         x="6.15152"
         y="79.9082"
         width="41.5"
         height="6.15152"
         id="armorLLRow15" /><rect
         x="15.3788"
         y="85.2355"
         width="25"
         height="6.15152"
         id="armorLLRow16" /><rect
         x="15.3788"
         y="90.5627"
         width="18.5"
         height="6.15152"
         id="armorLLRow17" /><rect
         x="15.3788"
         y="95.8899"
         width="18.5"
         height="6.15152"
         id="armorLLRow18" /><rect
         x="15.3788"
         y="101.2171"
         width="18.5"
         height="6.15152"
         id="armorLLRow19" /><rect
         x="15.3788"
         y="106.5443"
         width="18.5"
         height="6.15152"
         id="armorLLRow20" /></g><g
       id="armorPipsCTR"
       fill="none"
       transform="translate(464.61,297.1276)"><rect
         x="7.56"
         y="0"
         width="25.84"
         height="6.15152"
         id="armorCTRRow00" /><rect
         x="7.56"
         y="5.3272"
         width="25.84"
         height="6.15152"
         id="armorCTRRow01" /><rect
         x="7.56"
         y="10.6544"
         width="25.84"
         height="6.15152"
         id="armorCTRRow02" /><rect
         x="7.56"
         y="15.9816"
         width="25.84"
         height="6.15152"
         id="armorCTRRow03" /><rect
         x="7.56"
         y="21.3088"
         width="25.84"
         height="6.15152"
         id="armorCTRRow04" /><rect
         x="7.56"
         y="26.636"
         width="25.84"
         height="6.15152"
         id="armorCTRRow05" /><rect
         x="7.56"
         y="31.9632"
         width="25.84"
         height="6.15152"
         id="armorCTRRow06" /><rect
         x="4.65"
         y="37.2905"
         width="31.66"
         height="6.15152"
         id="armorCTRRow07" /><rect
         x="1.23"
         y="42.6177"
         width="38.5"
         height="6.15152"
         id="armorCTRRow08" /><rect
         x="0"
         y="47.9449"
         width="40.96"
         height="6.15152"
         id="armorCTRRow09" /><rect
         x="1.11"
         y="53.2722"
         width="38.74"
         height="6.15152"
         id="armorCTRRow10" /><rect
         x="3.13"
         y="58.5994"
         width="34.7"
         height="6.15152"
         id="armorCTRRow11" /></g><g
       id="armorPipsRTR"
       fill="none"
       transform="translate(500.153,306.73)"><rect
         x="0"
         y="0"
         width="30.65"
         height="6.15152"
         id="armorRTRRow00" /><rect
         x="0"
         y="5.3272"
         width="32.04"
         height="6.15152"
         id="armorRTRRow01" /><rect
         x="0"
         y="10.6544"
         width="31.66"
         height="6.15152"
         id="armorRTRRow02" /><rect
         x="0"
         y="15.9816"
         width="31.41"
         height="6.15152"
         id="armorRTRRow03" /><rect
         x="3.07"
         y="21.3088"
         width="28.08"
         height="6.15152"
         id="armorRTRRow04" /><rect
         x="6.46"
         y="26.636"
         width="24.44"
         height="6.15152"
         id="armorRTRRow05" /><rect
         x="7.86"
         y="31.9632"
         width="21.78"
         height="6.15152"
         id="armorRTRRow06" /></g><g
       id="armorPipsLTR"
       fill="none"
       transform="matrix(-1,0,0,1,470.027,307.2372)"><rect
         x="0"
         y="0"
         width="30.65"
         height="6.15152"
         id="armorLTRRow00" /><rect
         x="0"
         y="5.3272"
         width="32.04"
         height="6.15152"
         id="armorLTRRow01" /><rect
         x="0"
         y="10.6544"
         width="31.66"
         height="6.15152"
         id="armorLTRRow02" /><rect
         x="0"
         y="15.9816"
         width="31.41"
         height="6.15152"
         id="armorLTRRow03" /><rect
         x="3.07"
         y="21.3088"
         width="28.08"
         height="6.15152"
         id="armorLTRRow04" /><rect
         x="6.46"
         y="26.636"
         width="24.44"
         height="6.15152"
         id="armorLTRRow05" /><rect
         x="7.86"
         y="31.9632"
         width="21.78"
         height="6.15152"
         id="armorLTRRow06" /></g></g><g transform="translate(-391.12064,-19.334069)"
       id="armorValues"
       style="font-size:5.7954998px"><text
         id="armorType"
         style="font-weight:bold;font-size:8.4434px"
         text-anchor="middle"
         x="485.215"
         y="235">Standard</text>
<text
         id="armorType2"
         style="font-weight:bold;font-size:8.4434px"
         text-anchor="middle"
         x="485.215"
         y="243" />
<text
         id="patchworkHD"
         x="499.63"
         y="46.27" />
<text
         id="patchworkCT"
         text-anchor="middle"
         x="485.215"
         y="223.2" />
<text
         id="patchworkCT2"
         text-anchor="middle"
         x="485.215"
         y="229.9" />
<text
         id="patchworkRT"
         text-anchor="end"
         x="529.48"
         y="66.46" />
<text
         id="patchworkRT2"
         text-anchor="end"
         x="529.48"
         y="73.16" />
<text
         id="patchworkLT"
         text-anchor="start"
         x="440.95"
         y="66.46" />
<text
         id="patchworkLT2"
         text-anchor="start"
         x="440.95"
         y="73.16" />
<text
         id="patchworkRA"
         text-anchor="start"
         x="545.09"
         y="221.22" />
<text
         id="patchworkRA2"
         text-anchor="start"
         x="545.09"
         y="227.92" />
<text
         id="patchworkLA"
         text-anchor="end"
         x="424.4"
         y="221.22" />
<text
         id="patchworkLA2"
         text-anchor="end"
         x="424.4"
         y="227.92" />
<text
         id="patchworkRL"
         text-anchor="start"
         x="558.34"
         y="273.6" />
<text
         id="patchworkRL2"
         text-anchor="start"
         x="558.34"
         y="280.3" />
<text
         id="patchworkLL"
         text-anchor="end"
         x="410.79"
         y="273.6" />
<text
         id="patchworkLL2"
         text-anchor="end"
         x="410.79"
         y="280.3" />
    <text font-weight="bold"
         id="textArmor_HD"
         x="487.48"
         y="46.27">( 0 )</text>
    <text font-weight="bold"
         text-anchor="middle"
         id="textArmor_CT"
         x="485.215"
         y="216.5">( 0 )</text>
    <text font-weight="bold"
         text-anchor="middle"
         id="textArmor_CTR"
         x="485.215"
         y="275.11">( 0 )</text>
    <text font-weight="bold"
         text-anchor="middle"
         id="textArmor_RT"
         x="514.42"
         y="59.76">( 0 )</text>
    <text font-weight="bold"
         text-anchor="middle"
         id="textArmor_RTR"
         x="554.735"
         y="360.17">( 0 )</text>
    <text font-weight="bold"
         text-anchor="middle"
         id="textArmor_LT"
         x="449.24"
         y="59.76">( 0 )</text>
    <text font-weight="bold"
         text-anchor="middle"
         id="textArmor_LTR"
         x="415.575"
         y="360.17">( 0 )</text>
    <text font-weight="bold"
         text-anchor="middle"
         id="textArmor_RA"
         x="558.76"
         y="214.52">( 0 )</text>
    <text font-weight="bold"
         text-anchor="middle"
         id="textArmor_LA"
         x="412.94"
         y="214.52">( 0 )</text>
    <text font-weight="bold"
         text-anchor="middle"
         id="textArmor_RL"
         x="564.925"
         y="266.9">( 0 )</text>
    <text font-weight="bold"
         text-anchor="middle"
         id="textArmor_LL"
         x="405"
         y="266.9">( 0 )</text>
</g></g>
</svg>
