<?xml version="1.0" encoding="utf-8"?>
<!DOCTYPE svg PUBLIC "-//W3C//DTD SVG 1.0//EN" "http://www.w3.org/TR/2001/REC-SVG-20010904/DTD/svg10.dtd">
<svg version="1.0" xmlns="http://www.w3.org/2000/svg" xmlns:xlink="http://www.w3.org/1999/xlink" x="0" y="0" width="168" height="296"
     xml:space="preserve">
<g id="armor_diagram_vee_turret" transform="matrix(1,0,0,-1,-402.67674,716.15846)">
<g
       id="g22"
       transform="translate(557.6664,472.0991)"><path
         d="m 0,0 c 0,0 1.835,-18.813 -16.517,-22.942 l 0,2.294 -39.456,0 0,-2.753 -22.939,0 0,2.753 -39,0 0,-2.294 C -131.677,-22.942 -133.969,0 -133.969,0 l -2.754,99.56 11.93,110.572 5.505,4.588 8.26,-8.259 87.171,0 7.34,8.259 4.588,-4.13 L 1.835,99.1 0,0 Z"
         style="fill:#c7c8ca;fill-opacity:1;fill-rule:nonzero;stroke:none"
         id="path24"
          /></g>
          <g id="tracks" visibility="hidden"><g transform="matrix(1.0036484,0,0,0.91895928,402.335,223.12)">
    <path style="fill:#c8c7c7;stroke:none;stroke-width:1"
        d="M30,253 h-16.8
        v1.176 h1.792 v1.448 h-1.792
        v2.184 h1.792 v2.072 h-1.792
        v3.744 h1.792 v3.04 h-1.792
        v6.055 h1.792 v4.543 h-1.792
        v6.055 h1.792 v4.543 h-1.792
        v6.055 h1.792 v4.543 h-1.792
        v6.055 h1.792 v4.543 h-1.792
        v6.055 h1.792 v4.543 h-1.792
        v6.055 h1.792 v4.543 h-1.792
        v6.055 h1.792 v4.543 h-1.792
        v6.055 h1.792 v4.543 h-1.792
        v6.055 h1.792 v4.543 h-1.792
        v6.055 h1.792 v4.543 h-1.792
        v6.055 h1.792 v4.543 h-1.792
        v6.055 h1.792 v4.543 h-1.792
        v6.055 h1.792 v4.543 h-1.792
        v6.055 h1.792 v4.543 h-1.792
        v6.055 h1.792 v4.543 h-1.792
        v6.055 h1.792 v4.543 h-1.792
        v6.055 h1.792 v4.543 h-1.792
        v6.055 h1.792 v4.543 h-1.792
        v6.055 h1.792 v4.543 h-1.792
        v6.055 h1.792 v3.04 h-1.792
        v3.744 h1.792 v2.072 h-1.792
        v2.184 h1.792 v1.448 h-1.792
        v1.176 h16.8 Z"/>
    <path style="fill:#c8c7c7;stroke:#231f20;stroke-width:1"
        d="M27,256 l-16.8,0
        v1.176 h1.792 v1.448 h-1.792
        v2.184 h1.792 v2.072 h-1.792
        v3.744 h1.792 v3.04 h-1.792
        v6.055 h1.792 v4.543 h-1.792
        v6.055 h1.792 v4.543 h-1.792
        v6.055 h1.792 v4.543 h-1.792
        v6.055 h1.792 v4.543 h-1.792
        v6.055 h1.792 v4.543 h-1.792
        v6.055 h1.792 v4.543 h-1.792
        v6.055 h1.792 v4.543 h-1.792
        v6.055 h1.792 v4.543 h-1.792
        v6.055 h1.792 v4.543 h-1.792
        v6.055 h1.792 v4.543 h-1.792
        v6.055 h1.792 v4.543 h-1.792
        v6.055 h1.792 v4.543 h-1.792
        v6.055 h1.792 v4.543 h-1.792
        v6.055 h1.792 v4.543 h-1.792
        v6.055 h1.792 v4.543 h-1.792
        v6.055 h1.792 v4.543 h-1.792
        v6.055 h1.792 v4.543 h-1.792
        v6.055 h1.792 v4.543 h-1.792
        v6.055 h1.792 v4.543 h-1.792
        v6.055 h1.792 v3.04 h-1.792
        v3.744 h1.792 v2.072 h-1.792
        v2.184 h1.792 v1.448 h-1.792
        v1.176 h16.8 Z"/>
</g><g transform="matrix(-1.0036484,0,0,0.91895928,569.32007,223.12)">
    <path style="fill:#c8c7c7;stroke:none;stroke-width:1"
        d="M24,253 l-16.8,0
        v1.176 h1.792 v1.448 h-1.792
        v2.184 h1.792 v2.072 h-1.792
        v3.744 h1.792 v3.04 h-1.792
        v6.055 h1.792 v4.543 h-1.792
        v6.055 h1.792 v4.543 h-1.792
        v6.055 h1.792 v4.543 h-1.792
        v6.055 h1.792 v4.543 h-1.792
        v6.055 h1.792 v4.543 h-1.792
        v6.055 h1.792 v4.543 h-1.792
        v6.055 h1.792 v4.543 h-1.792
        v6.055 h1.792 v4.543 h-1.792
        v6.055 h1.792 v4.543 h-1.792
        v6.055 h1.792 v4.543 h-1.792
        v6.055 h1.792 v4.543 h-1.792
        v6.055 h1.792 v4.543 h-1.792
        v6.055 h1.792 v4.543 h-1.792
        v6.055 h1.792 v4.543 h-1.792
        v6.055 h1.792 v4.543 h-1.792
        v6.055 h1.792 v4.543 h-1.792
        v6.055 h1.792 v4.543 h-1.792
        v6.055 h1.792 v4.543 h-1.792
        v6.055 h1.792 v4.543 h-1.792
        v6.055 h1.792 v3.04 h-1.792
        v3.744 h1.792 v2.072 h-1.792
        v2.184 h1.792 v1.448 h-1.792
        v1.176 h16.8 Z"/>
    <path style="fill:#c8c7c7;stroke:#231f20;stroke-width:1"
        d="M27,256 l-16.8,0
        v1.176 h1.792 v1.448 h-1.792
        v2.184 h1.792 v2.072 h-1.792
        v3.744 h1.792 v3.04 h-1.792
        v6.055 h1.792 v4.543 h-1.792
        v6.055 h1.792 v4.543 h-1.792
        v6.055 h1.792 v4.543 h-1.792
        v6.055 h1.792 v4.543 h-1.792
        v6.055 h1.792 v4.543 h-1.792
        v6.055 h1.792 v4.543 h-1.792
        v6.055 h1.792 v4.543 h-1.792
        v6.055 h1.792 v4.543 h-1.792
        v6.055 h1.792 v4.543 h-1.792
        v6.055 h1.792 v4.543 h-1.792
        v6.055 h1.792 v4.543 h-1.792
        v6.055 h1.792 v4.543 h-1.792
        v6.055 h1.792 v4.543 h-1.792
        v6.055 h1.792 v4.543 h-1.792
        v6.055 h1.792 v4.543 h-1.792
        v6.055 h1.792 v4.543 h-1.792
        v6.055 h1.792 v4.543 h-1.792
        v6.055 h1.792 v4.543 h-1.792
        v6.055 h1.792 v4.543 h-1.792
        v6.055 h1.792 v3.04 h-1.792
        v3.744 h1.792 v2.072 h-1.792
        v2.184 h1.792 v1.448 h-1.792
        v1.176 h16.8 Z"/>
</g></g>

          <g id="wheels" visibility="hidden"><g transform="matrix(0.99906329,0,0,1.3057043,402.42601,134.31767)">
    <path style="fill:#c8c7c7;stroke:none;stroke-width:1"
        d="M30,253 l-16.8,0
        v1.176 h1.792 v1.448 h-1.792
        v2.184 h1.792 v2.072 h-1.792
        v6.055 h1.792 v3.04 h-1.792
        v3.744 h1.792 v2.072 h-1.792
        v2.184 h1.792 v1.448 h-1.792
        v1.176 h16.8,0 Z"/>
    <path style="fill:#c8c7c7;stroke:none;stroke-width:1"
        d="M30,283 l-16.8,0
        v1.176 h1.792 v1.448 h-1.792
        v2.184 h1.792 v2.072 h-1.792
        v6.055 h1.792 v3.04 h-1.792
        v3.744 h1.792 v2.072 h-1.792
        v2.184 h1.792 v1.448 h-1.792
        v1.176 h16.8,0 Z"/>
    <path style="fill:#c8c7c7;stroke:none;stroke-width:1"
        d="M30,379 l-16.8,0
        v1.176 h1.792 v1.448 h-1.792
        v2.184 h1.792 v2.072 h-1.792
        v6.055 h1.792 v3.04 h-1.792
        v3.744 h1.792 v2.072 h-1.792
        v2.184 h1.792 v1.448 h-1.792
        v1.176 h16.8,0 Z"/>
    <path style="fill:#c8c7c7;stroke:#231f20;stroke-width:1"
        d="M27,256 l-16.8,0
        v1.176 h1.792 v1.448 h-1.792
        v2.184 h1.792 v2.072 h-1.792
        v6.055 h1.792 v3.04 h-1.792
        v3.744 h1.792 v2.072 h-1.792
        v2.184 h1.792 v1.448 h-1.792
        v1.176 h16.8,0 Z"/>
    <path style="fill:#c8c7c7;stroke:#231f20;stroke-width:1"
        d="M27,289 l-16.8,0
        v1.176 h1.792 v1.448 h-1.792
        v2.184 h1.792 v2.072 h-1.792
        v6.055 h1.792 v3.04 h-1.792
        v3.744 h1.792 v2.072 h-1.792
        v2.184 h1.792 v1.448 h-1.792
        v1.176 h16.8,0 Z"/>
    <path style="fill:#c8c7c7;stroke:#231f20;stroke-width:1"
        d="M27,382 l-16.8,0
        v1.176 h1.792 v1.448 h-1.792
        v2.184 h1.792 v2.072 h-1.792
        v6.055 h1.792 v3.04 h-1.792
        v3.744 h1.792 v2.072 h-1.792
        v2.184 h1.792 v1.448 h-1.792
        v1.176 h16.8,0 Z"/>
</g><g transform="matrix(-0.99641847,0,0,1.3084593,569.29428,133.67627)">
    <path style="fill:#c8c7c7;stroke:none;stroke-width:1"
        d="M24,253 l-16.8,0
        v1.176 h1.792 v1.448 h-1.792
        v2.184 h1.792 v2.072 h-1.792
        v6.055 h1.792 v3.04 h-1.792
        v3.744 h1.792 v2.072 h-1.792
        v2.184 h1.792 v1.448 h-1.792
        v1.176 h16.8,0 Z"/>
    <path style="fill:#c8c7c7;stroke:none;stroke-width:1"
        d="M24,283 l-16.8,0
        v1.176 h1.792 v1.448 h-1.792
        v2.184 h1.792 v2.072 h-1.792
        v6.055 h1.792 v3.04 h-1.792
        v3.744 h1.792 v2.072 h-1.792
        v2.184 h1.792 v1.448 h-1.792
        v1.176 h16.8,0 Z"/>
    <path style="fill:#c8c7c7;stroke:none;stroke-width:1"
        d="M24,379 l-16.8,0
        v1.176 h1.792 v1.448 h-1.792
        v2.184 h1.792 v2.072 h-1.792
        v6.055 h1.792 v3.04 h-1.792
        v3.744 h1.792 v2.072 h-1.792
        v2.184 h1.792 v1.448 h-1.792
        v1.176 h16.8,0 Z"/>
    <path style="fill:#c8c7c7;stroke:#231f20;stroke-width:1"
        d="M27,256 l-16.8,0
        v1.176 h1.792 v1.448 h-1.792
        v2.184 h1.792 v2.072 h-1.792
        v6.055 h1.792 v3.04 h-1.792
        v3.744 h1.792 v2.072 h-1.792
        v2.184 h1.792 v1.448 h-1.792
        v1.176 h16.8,0 Z"/>
    <path style="fill:#c8c7c7;stroke:#231f20;stroke-width:1"
        d="M27,289 l-16.8,0
        v1.176 h1.792 v1.448 h-1.792
        v2.184 h1.792 v2.072 h-1.792
        v6.055 h1.792 v3.04 h-1.792
        v3.744 h1.792 v2.072 h-1.792
        v2.184 h1.792 v1.448 h-1.792
        v1.176 h16.8,0 Z"/>
    <path style="fill:#c8c7c7;stroke:#231f20;stroke-width:1"
        d="M27,382 l-16.8,0
        v1.176 h1.792 v1.448 h-1.792
        v2.184 h1.792 v2.072 h-1.792
        v6.055 h1.792 v3.04 h-1.792
        v3.744 h1.792 v2.072 h-1.792
        v2.184 h1.792 v1.448 h-1.792
        v1.176 h16.8,0 Z"/>
</g></g>

<g
       id="g114"
       transform="translate(553.4614,475.4717)"><path
         d="m 0,0 c 0,0 1.835,-18.813 -16.517,-22.942 l 0,2.294 -39.456,0 0,-2.753 -22.939,0 0,2.753 -39,0 0,-2.294 C -131.677,-22.942 -133.969,0 -133.969,0 l -2.754,99.56 11.93,110.572 5.505,4.588 8.26,-8.259 87.171,0 7.34,8.259 4.588,-4.13 L 1.835,99.1 0,0 Z"
         style="fill:#ffffff;fill-opacity:1;fill-rule:nonzero;stroke:none"
         id="path116"
          /></g><g
       id="g118"
       transform="translate(553.4614,475.4717)"><path
         d="m 0,0 c 0,0 1.835,-18.813 -16.517,-22.942 l 0,2.294 -39.456,0 0,-2.753 -22.939,0 0,2.753 -39,0 0,-2.294 C -131.677,-22.942 -133.969,0 -133.969,0 l -2.754,99.56 11.93,110.572 5.505,4.588 8.26,-8.259 87.171,0 7.34,8.259 4.588,-4.13 L 1.835,99.1 0,0 Z"
         style="fill:none;stroke:#000000;stroke-width:1.449;stroke-linecap:butt;stroke-linejoin:miter;stroke-miterlimit:4;stroke-dasharray:none;stroke-opacity:1"
         id="path120"
          /></g><path
       d="m 441.055,480.976 90.843,0 0,11.011 -90.843,0 0,-11.011 z"
       style="fill:#c7c8ca;fill-opacity:1;fill-rule:nonzero;stroke:none"
       id="path122"
        /><g
       id="g124"
       transform="translate(441.0553,480.9763)"><path
         d="m 0,0 90.843,0 0,11.011 L 0,11.011 0,0 Z"
         style="fill:none;stroke:#000000;stroke-width:0.96600002;stroke-linecap:butt;stroke-linejoin:miter;stroke-miterlimit:4;stroke-dasharray:none;stroke-opacity:1"
         id="path126"
          /></g><g
       id="g128"
       transform="translate(462.1604,602.5604)"><path
         d="m 0,0 -16.058,0 -15.6,-73.868 16.975,0"
         style="fill:#c7c8ca;fill-opacity:1;fill-rule:nonzero;stroke:#000000;stroke-width:0.96600002;stroke-linecap:butt;stroke-linejoin:miter;stroke-miterlimit:4;stroke-dasharray:none;stroke-opacity:1"
         id="path130"
          /></g><g
       id="g132"
       transform="translate(509.8747,602.5604)"><path
         d="m 0,0 15.599,0 16.976,-72.95 -18.352,0"
         style="fill:#c7c8ca;fill-opacity:1;fill-rule:nonzero;stroke:none"
         id="path134"
          /></g><g
       id="g136"
       transform="translate(506.429,617.6999)"><path
         d="M 0,0 35.099,67.903"
         style="fill:none;stroke:#000000;stroke-width:0.96600002;stroke-linecap:butt;stroke-linejoin:miter;stroke-miterlimit:4;stroke-dasharray:none;stroke-opacity:1"
         id="path138"
          /></g><g
       id="g140"
       transform="translate(429.1204,685.6036)"><path
         d="M 0,0 36.477,-67.903"
         style="fill:none;stroke:#000000;stroke-width:0.96600002;stroke-linecap:butt;stroke-linejoin:miter;stroke-miterlimit:4;stroke-dasharray:none;stroke-opacity:1"
         id="path142"
          /></g><g
       id="g144"
       transform="translate(532.0237,491.9884)"><path
         d="M 0,0 20.535,-23.576"
         style="fill:none;stroke:#000000;stroke-width:0.96600002;stroke-linecap:butt;stroke-linejoin:miter;stroke-miterlimit:4;stroke-dasharray:none;stroke-opacity:1"
         id="path146"
          /></g><g
       id="g148"
       transform="translate(441.0509,491.528)"><path
         d="M 0,0 -19.995,-22.082"
         style="fill:none;stroke:#000000;stroke-width:0.96600002;stroke-linecap:butt;stroke-linejoin:miter;stroke-miterlimit:4;stroke-dasharray:none;stroke-opacity:1"
         id="path150"
          /></g><g
       id="g152"
       transform="translate(509.87,602.5604)"><path
         d="m 0,0 15.599,0 16.976,-72.95 -18.352,0"
         style="fill:none;stroke:#000000;stroke-width:0.96600002;stroke-linecap:butt;stroke-linejoin:miter;stroke-miterlimit:4;stroke-dasharray:none;stroke-opacity:1"
         id="path154"
          /></g><g
       id="g156"
       transform="translate(465.373,617.6999)"><path
         d="m 0,0 -3.901,-20.416 4.358,0 2.065,2.982 37.163,0 1.606,-2.982 3.899,0 L 40.832,0 0,0 Z"
         style="fill:#c7c8ca;fill-opacity:1;fill-rule:nonzero;stroke:none"
         id="path158"
          /></g><g
       id="g160"
       transform="translate(506.4337,617.4712)"><path
         d="m 0,0 25.464,-125.483 -90.843,0 24.318,125.712 40.946,0 L 0,0 Z m 3.899,-20.188 -3.669,0 -1.605,2.983 -37.163,0 -2.066,-2.983 -4.358,0"
         style="fill:none;stroke:#000000;stroke-width:0.96600002;stroke-linecap:butt;stroke-linejoin:miter;stroke-miterlimit:4;stroke-dasharray:none;stroke-opacity:1"
         id="path162"
          /></g><text
   transform="matrix(0,0.99808837,1,0,408.8122,522.5764)"
   style="font-size:7.74px;font-variant:normal;font-weight:600;font-stretch:normal;line-height:1.25;font-family:Eurostile;writing-mode:lr-tb;fill:#000000;fill-opacity:1;fill-rule:nonzero;stroke:none"
   id="text2750"><tspan
     x="0 4.343318 8.7253466 11.388629 14.648053 17.342304 22.575964 24.410841 28.970938 33.352966 36.047218 41.559593 45.175152 52.297886 56.77282 60.388378"
     y="0">Left Side Armor</tspan>
     <tspan id="textArmor_LS"
        x="63.08263"
        y="0">( )</tspan></text>

<text
   transform="matrix(0,-0.99808837,-1,0,564.8796,609.1452)"
   style="font-size:7.74px;font-variant:normal;font-weight:600;font-stretch:normal;line-height:1.25;font-family:Eurostile;writing-mode:lr-tb;fill:#000000;fill-opacity:1;fill-rule:nonzero;stroke:none"
   id="text2754"><tspan
     x="0 5.5975385 7.432416 12.000255 16.599062 19.858486 22.544994 27.778654 29.613533 34.17363 38.555656 41.249908 46.762283 50.377846 57.500576 61.97551 65.591072"
     y="0">Right Side Armor</tspan><tspan
     id="textArmor_RS"
     x="68.285324"
     y = "0">( )</tspan></text>

<text
   transform="matrix(0.99808837,0,0,-1,483.01071,709.1456)"
   style="font-size:7.74px;font-variant:normal;font-weight:600;font-stretch:normal;line-height:1.25;font-family:Eurostile;writing-mode:lr-tb;fill:#000000;fill-opacity:1;fill-rule:nonzero;stroke:none"
   text-anchor="middle"
   id="text2758"><tspan
     x="0"
     y="0"
     id="tspan2760">Front Armor</tspan><tspan
     x="0"
     y="9.2750359"
     id="textArmor_FR">( )</tspan><tspan
     x="0"
     y="277.91043">Rear Armor</tspan><tspan
     x="0"
     y="287.18546"
     id="textArmor_RR">( )</tspan></text>

<text
   transform="matrix(0.99808101,0,0,-1,463.5734,590.6416)"
   style="font-size:6.77px;font-variant:normal;font-weight:600;font-stretch:normal;line-height:1.25;font-family:Eurostile;writing-mode:lr-tb;fill:#000000;fill-opacity:1;fill-rule:nonzero;stroke:none"
   id="text2768"><tspan
     x="0 3.9765728 7.9937921 11.184534 14.375277 18.236685 21.115805 23.500393 28.303444 31.494186 37.753731 41.69643"
     y="0">Turret Armor</tspan><tspan
     x="0"
     y="8.1157312"
     id="textArmor_TU">( )</tspan></text>

<text
   transform="matrix(0.99808837,0,0,-1,401.9674,710.5148)"
   style="font-size:7.74px;font-variant:normal;font-weight:600;font-stretch:normal;line-height:1.25;font-family:Eurostile;writing-mode:lr-tb;fill:#000000;fill-opacity:1;fill-rule:nonzero;stroke:none"
   id="armorType">Standard</text><g
   id="g1114"
   transform="translate(522.44,498.5309)"><path
     d="m 0,0 -1.369,-2.739 -68.45,0 -1.368,2.739 10.951,64.343 1.37,1.368 9.582,0 0,6.846 12.321,5.476 0,1.37 1.369,0 1.369,4.106 1.369,1.369 -1.369,1.369 1.369,4.107 5.476,0 1.369,-4.107 -1.369,-1.369 1.369,-1.369 1.37,-4.106 1.368,0 0.001,-6.846 1.368,0 0,-6.846 9.583,0 1.37,-1.368 L 0,0 Z"
     style="fill:none;stroke:#000000;stroke-width:0.96600002;stroke-linecap:butt;stroke-linejoin:miter;stroke-miterlimit:4;stroke-dasharray:none;stroke-opacity:1"
     id="path1116"
      /></g><g
   id="g1118"
   transform="translate(489.5836,571.088)"><path
     d="m 0,0 -4.107,0 0,6.844 L 0,6.844 0,0 Z"
     style="fill:none;stroke:#000000;stroke-width:0.96600002;stroke-linecap:butt;stroke-linejoin:miter;stroke-miterlimit:4;stroke-dasharray:none;stroke-opacity:1"
     id="path1120"
      /></g><g
   id="g1122"
   transform="translate(499.1673,571.088)"><path
     d="m 0,0 -4.107,0 0,6.844 L 0,6.844 0,0 Z"
     style="fill:none;stroke:#000000;stroke-width:0.96600002;stroke-linecap:butt;stroke-linejoin:miter;stroke-miterlimit:4;stroke-dasharray:none;stroke-opacity:1"
     id="path1124"
      /></g><g
   id="g1126"
   transform="translate(494.3754,571.088)"><path
     d="m 0,0 -4.107,0 0,6.844 L 0,6.844 0,0 Z"
     style="fill:none;stroke:#000000;stroke-width:0.96600002;stroke-linecap:butt;stroke-linejoin:miter;stroke-miterlimit:4;stroke-dasharray:none;stroke-opacity:1"
     id="path1128"
      /></g><g
   id="g1130"
   transform="translate(489.5841,583.4092)"><path
     d="M 0,0 5.476,0"
     style="fill:none;stroke:#000000;stroke-width:0.96600002;stroke-linecap:butt;stroke-linejoin:miter;stroke-miterlimit:4;stroke-dasharray:none;stroke-opacity:1"
     id="path1132"
      /></g><g
   id="g1134"
   transform="translate(473.157,571.0877)"><path
     d="M 0,0 12.32,0"
     style="fill:none;stroke:#000000;stroke-width:0.96600002;stroke-linecap:butt;stroke-linejoin:miter;stroke-miterlimit:4;stroke-dasharray:none;stroke-opacity:1"
     id="path1136"
      /></g><g
   id="g1138"
   transform="translate(499.1683,564.2426)"><path
     d="m 0,0 -2.226,0 0,5.476 L 0,5.476 0,0 Z"
     style="fill:none;stroke:#000000;stroke-width:0.96600002;stroke-linecap:butt;stroke-linejoin:miter;stroke-miterlimit:4;stroke-dasharray:none;stroke-opacity:1"
     id="path1140"
      /></g><g
   id="g1142"
   transform="translate(483.5949,564.2426)"><path
     d="m 0,0 -2.226,0 0,5.476 L 0,5.476 0,0 Z"
     style="fill:none;stroke:#000000;stroke-width:0.96600002;stroke-linecap:butt;stroke-linejoin:miter;stroke-miterlimit:4;stroke-dasharray:none;stroke-opacity:1"
     id="path1144"
      /></g><g
   id="g1146"
   transform="translate(496.9428,564.2426)"><path
     d="m 0,0 -2.225,0 0,5.476 L 0,5.476 0,0 Z"
     style="fill:none;stroke:#000000;stroke-width:0.96600002;stroke-linecap:butt;stroke-linejoin:miter;stroke-miterlimit:4;stroke-dasharray:none;stroke-opacity:1"
     id="path1148"
      /></g><g
   id="g1150"
   transform="translate(494.7193,564.2426)"><path
     d="m 0,0 -2.225,0 0,5.476 L 0,5.476 0,0 Z"
     style="fill:none;stroke:#000000;stroke-width:0.96600002;stroke-linecap:butt;stroke-linejoin:miter;stroke-miterlimit:4;stroke-dasharray:none;stroke-opacity:1"
     id="path1152"
      /></g><g
   id="g1154"
   transform="translate(492.4938,564.2426)"><path
     d="m 0,0 -2.226,0 0,5.476 L 0,5.476 0,0 Z"
     style="fill:none;stroke:#000000;stroke-width:0.96600002;stroke-linecap:butt;stroke-linejoin:miter;stroke-miterlimit:4;stroke-dasharray:none;stroke-opacity:1"
     id="path1156"
      /></g><g
   id="g1158"
   transform="translate(490.2694,564.2426)"><path
     d="m 0,0 -2.226,0 0,5.476 L 0,5.476 0,0 Z"
     style="fill:none;stroke:#000000;stroke-width:0.96600002;stroke-linecap:butt;stroke-linejoin:miter;stroke-miterlimit:4;stroke-dasharray:none;stroke-opacity:1"
     id="path1160"
      /></g><g
   id="g1162"
   transform="translate(488.0439,564.2426)"><path
     d="m 0,0 -2.225,0 0,5.476 L 0,5.476 0,0 Z"
     style="fill:none;stroke:#000000;stroke-width:0.96600002;stroke-linecap:butt;stroke-linejoin:miter;stroke-miterlimit:4;stroke-dasharray:none;stroke-opacity:1"
     id="path1164"
      /></g><g
   id="g1166"
   transform="translate(485.8204,564.2426)"><path
     d="m 0,0 -2.225,0 0,5.476 L 0,5.476 0,0 Z"
     style="fill:none;stroke:#000000;stroke-width:0.96600002;stroke-linecap:butt;stroke-linejoin:miter;stroke-miterlimit:4;stroke-dasharray:none;stroke-opacity:1"
     id="path1168"
      /></g><g
   id="g1170"
   transform="translate(478.6331,564.2426)"><path
     d="m 0,0 -2.225,0 0,5.476 L 0,5.476 0,0 Z"
     style="fill:none;stroke:#000000;stroke-width:0.96600002;stroke-linecap:butt;stroke-linejoin:miter;stroke-miterlimit:4;stroke-dasharray:none;stroke-opacity:1"
     id="path1172"
      /></g><g
   id="g1174"
   transform="translate(462.2037,544.0776)"><path
     d="m 0,0 49.285,0 -2.738,17.427 -43.809,0 L 0,0 Z"
     style="fill:#c7c8ca;fill-opacity:1;fill-rule:nonzero;stroke:none"
     id="path1176"
      /></g><g
   id="g1178"
   transform="translate(462.2037,544.0776)"><path
     d="m 0,0 49.285,0 -2.738,17.427 -43.809,0 L 0,0 Z"
     style="fill:none;stroke:#000000;stroke-width:0.96600002;stroke-linecap:butt;stroke-linejoin:miter;stroke-miterlimit:4;stroke-dasharray:none;stroke-opacity:1"
     id="path1180"
      /></g></g>
  <g fill="none" id="armorPips">
    <g id="armorPipsFR" transform="translate(83.035,35.78)">
      <rect x="-49.1" width="98.2" y="0" height="6.8" id="armorFRRow00"/>
      <rect x="-45.475" width="90.95" y="6.8" height="6.8" id="armorFRRow01"/>
      <rect x="-41.85" width="83.7" y="13.6" height="6.8" id="armorFRRow02"/>
      <rect x="-38.225" width="76.45" y="20.4" height="6.8" id="armorFRRow03"/>
      <rect x="-34.6" width="69.2" y="27.2" height="6.8" id="armorFRRow04"/>
      <rect x="-30.975" width="61.95" y="34.0" height="6.8" id="armorFRRow05"/>
      <rect x="-27.35" width="54.7" y="40.8" height="6.8" id="armorFRRow06"/>
      <rect x="-23.75" width="47.45" y="47.6" height="6.8" id="armorFRRow07"/>
      <rect x="-20.1" width="40.2" y="54.4" height="6.8" id="armorFRRow08"/>
    </g>
    <g id="armorPipsRS" transform="translate(105.55,44.834)">
      <rect x="26.66" width="6.8" y="0" height="6.8" id="armorRSRow00"/>
      <rect x="23.33" width="11.025" y="6.8" height="6.8" id="armorRSRow01"/>
      <rect x="20" width="15.25" y="13.6" height="6.8" id="armorRSRow02"/>
      <rect x="16.66" width="19.476" y="20.4" height="6.8" id="armorRSRow03"/>
      <rect x="13.33" width="23.7" y="27.2" height="6.8" id="armorRSRow04"/>
      <rect x="10" width="27.93" y="34.0" height="6.8" id="armorRSRow05"/>
      <rect x="6.665" width="32.15" y="40.8" height="6.8" id="armorRSRow06"/>
      <rect x="3.33" width="36.375" y="47.6" height="6.8" id="armorRSRow07"/>
      <rect x="0" width="40.6" y="54.4" height="6.8" id="armorRSRow08"/>
      <rect x="5.078" width="32.647" y="61.2" height="6.8" id="armorRSRow09"/>
      <rect x="19.17" width="23.3" y="68" height="6.8" id="armorRSRow10"/>
      <rect x="20.734" width="22.61" y="74.8" height="6.8" id="armorRSRow11"/>
      <rect x="22.298" width="21.92" y="81.6" height="6.8" id="armorRSRow12"/>
      <rect x="23.862" width="21.23" y="88.4" height="6.8" id="armorRSRow13"/>
      <rect x="25.426" width="19.62" y="95.2" height="6.8" id="armorRSRow14"/>
      <rect x="26.99" width="18" y="102" height="6.8" id="armorRSRow15"/>
      <rect x="28.554" width="16.39" y="108.8" height="6.8" id="armorRSRow16"/>
      <rect x="30.118" width="14.77" y="115.6" height="6.8" id="armorRSRow17"/>
      <rect x="31.682" width="13.16" y="122.4" height="6.8" id="armorRSRow18"/>
      <rect x="33.246" width="11.54" y="129.2" height="6.8" id="armorRSRow19"/>
      <rect x="34.81" width="9.93" y="136" height="6.8" id="armorRSRow20"/>
      <rect x="18.18" width="26.56" y="142.8" height="6.8" id="armorRSRow21"/>
      <rect x="19.51" width="25.12" y="149.6" height="6.8" id="armorRSRow22"/>
      <rect x="20.84" width="23.68" y="156.4" height="6.8" id="armorRSRow23"/>
      <rect x="22.17" width="22.23" y="163.2" height="6.8" id="armorRSRow24"/>
      <rect x="23.5" width="20.79" y="170" height="6.8" id="armorRSRow25"/>
      <rect x="28.3" width="16" y="176.8" height="6.8" id="armorRSRow26"/>
      <rect x="34.06" width="10.23" y="183.6" height="6.8" id="armorRSRow27"/>
    </g>
    <g id="armorPipsLS" transform="matrix(-1,0,0,1,60.807,44.834)">
      <rect x="26.66" width="6.8" y="0" height="6.8" id="armorLSRow00"/>
      <rect x="23.33" width="11.025" y="6.8" height="6.8" id="armorLSRow01"/>
      <rect x="20" width="15.25" y="13.6" height="6.8" id="armorLSRow02"/>
      <rect x="16.66" width="19.476" y="20.4" height="6.8" id="armorLSRow03"/>
      <rect x="13.33" width="23.7" y="27.2" height="6.8" id="armorLSRow04"/>
      <rect x="10" width="27.93" y="34.0" height="6.8" id="armorLSRow05"/>
      <rect x="6.665" width="32.15" y="40.8" height="6.8" id="armorLSRow06"/>
      <rect x="3.33" width="36.375" y="47.6" height="6.8" id="armorLSRow07"/>
      <rect x="0" width="40.6" y="54.4" height="6.8" id="armorLSRow08"/>
      <rect x="5.078" width="32.647" y="61.2" height="6.8" id="armorLSRow09"/>
      <rect x="19.17" width="23.3" y="68" height="6.8" id="armorLSRow10"/>
      <rect x="20.734" width="22.61" y="74.8" height="6.8" id="armorLSRow11"/>
      <rect x="22.298" width="21.92" y="81.6" height="6.8" id="armorLSRow12"/>
      <rect x="23.862" width="21.23" y="88.4" height="6.8" id="armorLSRow13"/>
      <rect x="25.426" width="19.62" y="95.2" height="6.8" id="armorLSRow14"/>
      <rect x="26.99" width="18" y="102" height="6.8" id="armorLSRow15"/>
      <rect x="28.554" width="16.39" y="108.8" height="6.8" id="armorLSRow16"/>
      <rect x="30.118" width="14.77" y="115.6" height="6.8" id="armorLSRow17"/>
      <rect x="31.682" width="13.16" y="122.4" height="6.8" id="armorLSRow18"/>
      <rect x="33.246" width="11.54" y="129.2" height="6.8" id="armorLSRow19"/>
      <rect x="34.81" width="9.93" y="136" height="6.8" id="armorLSRow20"/>
      <rect x="18.18" width="26.56" y="142.8" height="6.8" id="armorLSRow21"/>
      <rect x="19.51" width="25.12" y="149.6" height="6.8" id="armorLSRow22"/>
      <rect x="20.84" width="23.68" y="156.4" height="6.8" id="armorLSRow23"/>
      <rect x="22.17" width="22.23" y="163.2" height="6.8" id="armorLSRow24"/>
      <rect x="23.5" width="20.79" y="170" height="6.8" id="armorLSRow25"/>
      <rect x="28.3" width="16" y="176.8" height="6.8" id="armorLSRow26"/>
      <rect x="34.06" width="10.23" y="183.6" height="6.8" id="armorLSRow27"/>
    </g>
    <g id="armorPipsRR" transform="translate(83.035,237.28)">
      <rect x="-54.8" width="110.738" y="0" height="6.8" id="armorRRRow00"/>
      <rect x="-60.224" width="122" y="6.8" height="6.8" id="armorRRRow01"/>
      <rect x="-60.224" width="122" y="13.6" height="6.8" id="armorRRRow02"/>
    </g>
    <g id="armorPipsTU" transform="translate(84.06,174.08)">
      <rect x="-27.37" width="54.74" y="0" height="6.44" id="armorTURow00"/>
      <rect x="-28.55" width="57.1" y="6.44" height="6.44" id="armorTURow01"/>
      <rect x="-29.73" width="59.46" y="12.88" height="6.44" id="armorTURow02"/>
      <rect x="-30.91" width="61.82" y="19.32" height="6.44" id="armorTURow03"/>
      <rect x="-32.08" width="64.16" y="25.76" height="6.44" id="armorTURow04"/>
      <rect x="-33.26" width="66.52" y="32.2" height="6.44" id="armorTURow05"/>
      <rect x="-34.44" width="68.88" y="38.64" height="6.44" id="armorTURow06"/>
    </g>
  </g>
  <g fill="none" id="structurePips">
    <g id="structurePipsFR" transform="translate(83.035,100.28)">
      <rect x="-20.31" width="40.82" y="0" height="6.8" id="structurePipsFR00"/>
      <rect x="-20.31" width="40.82" y="6.8" height="6.8" id="structurePipsFR01"/>
    </g>
    <g id="structurePipsRS" transform="translate(108.55,115.18)">
      <rect x="0" width="13.64" y="0" height="6.8" id="structurePipsRS00"/>
      <rect x="1.54" width="13.64" y="6.8" height="6.8" id="structurePipsRS01"/>
      <rect x="3.08" width="13.64" y="13.6" height="6.8" id="structurePipsRS02"/>
      <rect x="4.62" width="13.64" y="20.4" height="6.8" id="structurePipsRS03"/>
      <rect x="6.16" width="13.64" y="27.2" height="6.8" id="structurePipsRS04"/>
      <rect x="7.7" width="13.64" y="34.0" height="6.8" id="structurePipsRS05"/>
      <rect x="9.24" width="13.64" y="40.8" height="6.8" id="structurePipsRS06"/>
      <rect x="10.78" width="13.64" y="47.6" height="6.8" id="structurePipsRS07"/>
      <rect x="12.32" width="13.64" y="54.4" height="6.8" id="structurePipsRS08"/>
      <rect x="13.86" width="13.64" y="61.2" height="6.8" id="structurePipsRS08"/>
    </g>
    <g id="structurePipsLS" transform="matrix(-1,0,0,1,57.81,115.18)">
      <rect x="0" width="13.64" y="0" height="6.8" id="structurePipsLS00"/>
      <rect x="1.54" width="13.64" y="6.8" height="6.8" id="structurePipsLS01"/>
      <rect x="3.08" width="13.64" y="13.6" height="6.8" id="structurePipsLS02"/>
      <rect x="4.62" width="13.64" y="20.4" height="6.8" id="structurePipsLS03"/>
      <rect x="6.16" width="13.64" y="27.2" height="6.8" id="structurePipsLS04"/>
      <rect x="7.7" width="13.64" y="34.0" height="6.8" id="structurePipsLS05"/>
      <rect x="9.24" width="13.64" y="40.8" height="6.8" id="structurePipsLS06"/>
      <rect x="10.78" width="13.64" y="47.6" height="6.8" id="structurePipsLS07"/>
      <rect x="12.32" width="13.64" y="54.4" height="6.8" id="structurePipsLS08"/>
      <rect x="13.86" width="13.64" y="61.2" height="6.8" id="structurePipsLS08"/>
    </g>
    <g id="structurePipsRR" transform="translate(83.035,225.78)">
      <rect x="-43.51" width="88.79" y="0" height="6.8" id="structurePipsRR00"/>
    </g>
    <g id="structurePipsTU" transform="translate(84.06,156)">
      <rect x="-21.25" width="42.5" y="0" height="6.8" id="structurePipsTU00"/>
      <rect x="-21.75" width="43.5" y="6.8" height="6.8" id="structurePipsTU01"/>
    </g>
  </g>
</svg>
