<?xml version="1.0" encoding="utf-8"?>
<!DOCTYPE svg PUBLIC "-//W3C//DTD SVG 1.0//EN" "http://www.w3.org/TR/2001/REC-SVG-20010904/DTD/svg10.dtd">
<svg version="1.0" xmlns="http://www.w3.org/2000/svg" xmlns:xlink="http://www.w3.org/1999/xlink" x="0" y="0" width="180" height="340"
     xml:space="preserve">
<g id="armor_diagram_quad" transform="matrix(0.99999752,0,0,-1,-399.38017,738.24098)">
<g
           id="g3585"
           transform="translate(571.724,490.2083)"><path
             d="M 0,0 1.37,0 C 1.369,4.189 -3.023,8.483 -9.514,10.805 l 1.423,1.806 -1.156,13.224 -0.939,26.445 -1.617,2.779 -0.171,1.944 c 2.373,1.761 2.803,4.18 3.723,7.123 l 1.143,0.1 2.584,1.894 1.075,3.429 -0.145,1.656 -1.655,3.192 -2.872,1.416 -1.144,-0.1 c -1.417,2.738 -2.261,5.046 -4.902,6.369 l -0.171,1.945 1.111,3.017 -2.406,27.519 -2.164,15.727 -1.369,4.107 -1.369,2.739 -1.369,1.368 -2.738,1.369 -4.107,0 -20.534,0 0.917,-28.173 2.281,-26.073 1.616,-2.775 0.507,-5.797 -2.6,-1.687 1.393,-15.931 2.854,-1.21 0.509,-5.793 -1.111,-3.017 3.667,-26.206 1.156,-13.226 1.682,-1.499 C -40.831,6.13 -43.807,3.038 -43.808,0 l 1.368,0 0,-1.395 -1.368,-1.395 0,-2.79 45.177,0 0,2.79 L 0,-1.395 0,0 Z"
             style="fill:#c8c7c7;fill-opacity:1;fill-rule:nonzero;stroke:none"
             id="path3587"
              /></g><g
           id="g3589"
           transform="translate(534.8488,501.0573)"><path
             d="M 0,0 1.281,0 C 1.28,3.747 -2.136,7.578 -7.339,9.952 l 2.215,2.369 0,5.476 1.281,28.748 -1.28,2.738 0,5.476 2.561,1.369 0,15.059 -2.561,1.37 0,4.107 1.28,2.738 0,23.272 -1.281,24.642 -25.613,0 -1.28,-24.642 0,-21.903 1.28,-2.737 0,-5.478 -2.561,-1.369 0,-15.058 2.561,-1.37 10e-4,-5.476 -1.28,-2.738 1.28,-28.748 -10e-4,-5.477 1.856,-1.983 C -34.593,8.009 -38.419,3.962 -38.42,0 l 1.28,0 0,-1.369 -1.28,-1.369 0,-2.738 39.7,0 0,2.738 L 0,-1.369 0,0 Z"
             style="fill:#c8c7c7;fill-opacity:1;fill-rule:nonzero;stroke:none"
             id="path3591"
              /></g><g
           id="g3593"
           transform="translate(481.4587,501.0573)"><path
             d="M 0,0 1.28,0 C 1.279,3.962 -2.547,8.009 -8.26,10.337 l 1.857,1.983 -0.001,5.477 1.28,28.748 -1.28,2.738 0.001,5.476 2.56,1.37 0,15.058 -2.56,1.369 0,5.478 1.28,2.737 0,21.903 -1.28,24.642 -25.614,0 -1.281,-24.642 0,-23.272 1.28,-2.738 0,-4.107 -2.561,-1.37 0,-15.059 2.561,-1.369 0,-5.476 -1.28,-2.738 1.281,-28.748 0,-5.476 2.215,-2.369 C -35.005,7.578 -38.42,3.747 -38.421,0 l 1.281,0 0,-1.369 -1.28,-1.369 0,-2.738 39.7,0 0,2.738 L 0,-1.369 0,0 Z"
             style="fill:#c8c7c7;fill-opacity:1;fill-rule:nonzero;stroke:none"
             id="path3595"
              /></g><g
           id="g3597"
           transform="translate(452.5786,710.4356)"><path
             d="m 0,0 -7.954,-7.158 c -1.617,1.281 -3.465,2.286 -5.48,2.919 l 0,2.762 -1.107,1.421 -1.107,0.712 -1.104,0 -1.106,-0.712 -1.107,-1.421 0,-1.999 c -1.18,-0.029 -2.333,-0.169 -3.443,-0.424 l -6.609,7.876 -2.412,0.21 -9.174,-7.7 -0.212,-2.411 6.558,-7.815 c -0.694,-1.594 -1.153,-3.312 -1.335,-5.115 l -2.064,0 -1.421,-1.105 -0.712,-1.108 0,-1.103 0.712,-1.107 1.421,-1.105 2.418,0 c 0.438,-1.921 1.2,-3.716 2.222,-5.33 l -8.055,-7.25 0,-2.053 24.642,-36.964 0,-4.791 1.411,-1.369 28.749,0 0,82.14 L 0,0 Z"
             style="fill:#c8c7c7;fill-opacity:1;fill-rule:nonzero;stroke:none"
             id="path3599"
              /></g><g
           id="g3601"
           transform="translate(466.3098,710.4356)"><path
             d="m 0,0 0,-82.14 4.107,-34.147 1.164,-1.369 36.005,0 1.164,1.369 4.106,34.147 0,82.14 L 0,0 Z"
             style="fill:#c8c7c7;fill-opacity:1;fill-rule:nonzero;stroke:none"
             id="path3603"
              /></g><g
           id="g3605"
           transform="translate(452.1598,575.4974)"><path
             d="m 0,0 2.281,26.073 0.917,26.189 -30.002,2.626 -3.646,-25.952 -2.407,-27.52 1.11,-3.017 -0.17,-1.944 c -2.641,-1.323 -3.485,-3.631 -4.902,-6.369 l -1.144,0.099 -2.873,-1.416 -1.654,-3.191 -0.145,-1.657 1.076,-3.428 2.583,-1.895 1.142,-0.099 c 0.921,-2.943 1.351,-5.363 3.723,-7.124 l -0.171,-1.944 -1.617,-2.778 -0.939,-26.445 -1.156,-13.225 1.425,-1.806 c -6.492,-2.322 -10.884,-6.615 -10.885,-10.804 l 1.37,0 0,-1.395 -1.369,-1.395 0,-2.79 45.176,0 0,2.79 -1.367,1.395 0,1.395 1.367,0 c 0,3.038 -2.977,6.13 -7.396,8.486 l 1.682,1.498 1.156,13.226 3.668,26.206 -1.112,3.018 0.509,5.792 2.854,1.21 1.393,15.932 -2.599,1.688 0.506,5.795 L 0,0 Z"
             style="fill:#c8c7c7;fill-opacity:1;fill-rule:nonzero;stroke:none"
             id="path3607"
              /></g><g
           id="g3609"
           transform="translate(559.5615,680.7225)"><path
             d="m 0,0 c 1.022,1.614 1.784,3.41 2.222,5.33 l 2.418,0 1.42,1.105 0.713,1.108 0,1.103 -0.713,1.108 -1.42,1.105 -2.065,0 c -0.181,1.801 -0.64,3.52 -1.335,5.114 l 6.559,7.815 -0.213,2.411 -9.173,7.7 -2.413,-0.21 -6.608,-7.876 c -1.11,0.254 -2.264,0.395 -3.444,0.424 l 0,1.998 -1.106,1.422 -1.107,0.711 -1.103,0 -1.108,-0.711 -1.106,-1.422 0,-2.761 c -2.015,-0.633 -3.862,-1.637 -5.479,-2.919 l -7.954,7.158 -13.648,0 0,-82.14 28.749,0 1.327,1.369 0,4.791 24.643,36.964 0,2.053 L 0,0 Z"
             style="fill:#c8c7c7;fill-opacity:1;fill-rule:nonzero;stroke:none"
             id="path3611"
              /></g><g
       id="g4101"
       transform="translate(458.0967,461.3546)"><path
         d="m 0,0 -23.273,-24.641 0,-1.232 13.416,-19.715 0,-3.696 21.494,0 L 11.637,0 0,0 Z"
         style="fill:#ffffff;fill-opacity:1;fill-rule:nonzero;stroke:none"
         id="path4103"
          /></g><g
       id="g4105"
       transform="translate(458.0967,461.3546)"><path
         d="m 0,0 -23.273,-24.641 0,-1.232 13.416,-19.715 0,-3.696 21.494,0 L 11.637,0 0,0 Z"
         style="fill:none;stroke:#231f20;stroke-width:1.449;stroke-linecap:butt;stroke-linejoin:miter;stroke-miterlimit:4;stroke-dasharray:none;stroke-opacity:1"
         id="path4107"
          /></g><g
       id="g4109"
       transform="translate(512.8574,461.3556)"><path
         d="m 0,0 -11.637,0 0,-49.285 21.494,0 0,3.696 13.417,19.715 0,1.232 L 0,0 Z"
         style="fill:#ffffff;fill-opacity:1;fill-rule:nonzero;stroke:none"
         id="path4111"
          /></g><g
       id="g4113"
       transform="translate(512.8574,461.3556)"><path
         d="m 0,0 -11.637,0 0,-49.285 21.494,0 0,3.696 13.417,19.715 0,1.232 L 0,0 Z"
         style="fill:none;stroke:#231f20;stroke-width:1.449;stroke-linecap:butt;stroke-linejoin:miter;stroke-miterlimit:4;stroke-dasharray:none;stroke-opacity:1"
         id="path4115"
          /></g><g
       id="g4117"
       transform="translate(469.7339,464.0925)"><path
         d="m 0,0 0,-54.759 31.487,0 0,54.76 L 0,0 Z"
         style="fill:#ffffff;fill-opacity:1;fill-rule:nonzero;stroke:none"
         id="path4119"
          /></g><g
       id="g4121"
       transform="translate(469.7339,464.0925)"><path
         d="m 0,0 0,-54.759 31.487,0 0,54.76 L 0,0 Z"
         style="fill:none;stroke:#231f20;stroke-width:1.449;stroke-linecap:butt;stroke-linejoin:miter;stroke-miterlimit:4;stroke-dasharray:none;stroke-opacity:1"
         id="path4123"
          /></g><g
           id="g4133"
           transform="translate(530.7427,503.7952)"><path
             d="M 0,0 1.281,0 C 1.28,3.747 -2.136,7.578 -7.339,9.952 l 2.215,2.369 0,5.476 1.281,28.748 -1.28,2.738 0,5.476 2.561,1.369 0,15.059 -2.561,1.37 0,4.107 1.28,2.738 0,23.272 -1.281,24.642 -25.613,0 -1.281,-24.642 0,-21.903 1.281,-2.737 0,-5.478 -2.561,-1.369 0,-15.058 2.561,-1.37 10e-4,-5.476 -1.281,-2.738 1.281,-28.748 -10e-4,-5.477 1.856,-1.983 C -34.593,8.009 -38.419,3.962 -38.42,0 l 1.28,0 0,-1.369 -1.28,-1.368 0,-2.739 39.7,0 0,2.739 L 0,-1.369 0,0 Z"
             style="fill:#ffffff;fill-opacity:1;fill-rule:nonzero;stroke:none"
             id="path4135"
              /></g><g
           id="g4137"
           transform="translate(530.7427,503.7952)"><path
             d="M 0,0 1.281,0 C 1.28,3.747 -2.136,7.578 -7.339,9.952 l 2.215,2.369 0,5.476 1.281,28.748 -1.28,2.738 0,5.476 2.561,1.369 0,15.059 -2.561,1.37 0,4.107 1.28,2.738 0,23.272 -1.281,24.642 -25.613,0 -1.281,-24.642 0,-21.903 1.281,-2.737 0,-5.478 -2.561,-1.369 0,-15.058 2.561,-1.37 10e-4,-5.476 -1.281,-2.738 1.281,-28.748 -10e-4,-5.477 1.856,-1.983 C -34.593,8.009 -38.419,3.962 -38.42,0 l 1.28,0 0,-1.369 -1.28,-1.368 0,-2.739 39.7,0 0,2.739 L 0,-1.369 0,0 Z"
             style="fill:none;stroke:#231f20;stroke-width:1.449;stroke-linecap:butt;stroke-linejoin:miter;stroke-miterlimit:2.41400003;stroke-dasharray:none;stroke-opacity:1"
             id="path4139"
              /></g><g
           id="g4141"
           transform="translate(477.3526,503.7952)"><path
             d="M 0,0 1.28,0 C 1.279,3.962 -2.547,8.009 -8.259,10.337 l 1.856,1.983 -0.001,5.477 1.28,28.748 -1.28,2.738 0.001,5.476 2.56,1.37 0,15.058 -2.56,1.369 0,5.478 1.28,2.737 0,21.903 -1.28,24.642 -25.614,0 -1.281,-24.642 0,-23.272 1.281,-2.738 0,-4.107 -2.562,-1.37 0,-15.059 2.562,-1.369 0,-5.476 -1.281,-2.738 1.281,-28.748 0,-5.476 2.215,-2.369 C -35.005,7.578 -38.42,3.747 -38.421,0 l 1.281,0 0,-1.369 -1.28,-1.368 0,-2.739 39.7,0 0,2.739 L 0,-1.369 0,0 Z"
             style="fill:#ffffff;fill-opacity:1;fill-rule:nonzero;stroke:none"
             id="path4143"
              /></g><g
           id="g4145"
           transform="translate(477.3526,503.7952)"><path
             d="M 0,0 1.28,0 C 1.279,3.962 -2.547,8.009 -8.259,10.337 l 1.856,1.983 -0.001,5.477 1.28,28.748 -1.28,2.738 0.001,5.476 2.56,1.37 0,15.058 -2.56,1.369 0,5.478 1.28,2.737 0,21.903 -1.28,24.642 -25.614,0 -1.281,-24.642 0,-23.272 1.281,-2.738 0,-4.107 -2.562,-1.37 0,-15.059 2.562,-1.369 0,-5.476 -1.281,-2.738 1.281,-28.748 0,-5.476 2.215,-2.369 C -35.005,7.578 -38.42,3.747 -38.421,0 l 1.281,0 0,-1.369 -1.28,-1.368 0,-2.739 39.7,0 0,2.739 L 0,-1.369 0,0 Z"
             style="fill:none;stroke:#231f20;stroke-width:1.449;stroke-linecap:butt;stroke-linejoin:miter;stroke-miterlimit:2.41400003;stroke-dasharray:none;stroke-opacity:1"
             id="path4147"
              /></g><g
           id="g4149"
           transform="translate(462.2037,713.1733)"><path
             d="m 0,0 0,-82.14 4.107,-34.147 1.164,-1.369 36.005,0 1.164,1.369 4.107,34.147 0,82.14 L 0,0 Z"
             style="fill:#ffffff;fill-opacity:1;fill-rule:nonzero;stroke:none"
             id="path4151"
              /></g><g
           id="g4153"
           transform="translate(462.2037,713.1733)"><path
             d="m 0,0 0,-82.14 4.107,-34.147 1.164,-1.369 36.005,0 1.164,1.369 4.107,34.147 0,82.14 L 0,0 Z"
             style="fill:none;stroke:#231f20;stroke-width:1.449;stroke-linecap:butt;stroke-linejoin:miter;stroke-miterlimit:4;stroke-dasharray:none;stroke-opacity:1"
             id="path4155"
              /></g><g
           id="g4157"
           transform="translate(401.9684,492.608)"><path
             d="m 0,0 -1.37,0 c 0.001,4.189 4.393,8.483 10.885,10.805 l -1.425,1.806 1.157,13.224 0.938,26.445 1.617,2.779 0.171,1.944 c -2.372,1.761 -2.802,4.179 -3.722,7.123 l -1.143,0.1 -2.583,1.894 -1.076,3.429 0.145,1.656 1.655,3.192 2.872,1.416 1.144,-0.1 c 1.418,2.738 2.261,5.046 4.902,6.369 l 0.171,1.945 -1.111,3.017 2.406,27.519 2.164,15.727 1.369,4.107 1.369,2.739 1.369,1.369 2.738,1.368 4.107,0 20.534,0 -0.917,-28.173 -2.282,-26.073 -1.615,-2.775 -0.507,-5.797 2.6,-1.687 -1.393,-15.931 -2.854,-1.21 -0.51,-5.793 1.112,-3.017 L 39.25,23.211 38.094,9.985 36.412,8.486 C 40.831,6.13 43.808,3.038 43.808,0 l -1.368,0 0,-1.395 1.368,-1.395 0,-2.79 -45.177,0 0,2.79 L 0,-1.395 0,0 Z"
             style="fill:#ffffff;fill-opacity:1;fill-rule:nonzero;stroke:none"
             id="path4159"
              /></g><g
           id="g4161"
           transform="translate(401.9684,492.608)"><path
             d="m 0,0 -1.37,0 c 0.001,4.189 4.393,8.483 10.885,10.805 l -1.425,1.806 1.157,13.224 0.938,26.445 1.617,2.779 0.171,1.944 c -2.372,1.761 -2.802,4.179 -3.722,7.123 l -1.143,0.1 -2.583,1.894 -1.076,3.429 0.145,1.656 1.655,3.192 2.872,1.416 1.144,-0.1 c 1.418,2.738 2.261,5.046 4.902,6.369 l 0.171,1.945 -1.111,3.017 2.406,27.519 2.164,15.727 1.369,4.107 1.369,2.739 1.369,1.369 2.738,1.368 4.107,0 20.534,0 -0.917,-28.173 -2.282,-26.073 -1.615,-2.775 -0.507,-5.797 2.6,-1.687 -1.393,-15.931 -2.854,-1.21 -0.51,-5.793 1.112,-3.017 L 39.25,23.211 38.094,9.985 36.412,8.486 C 40.831,6.13 43.808,3.038 43.808,0 l -1.368,0 0,-1.395 1.368,-1.395 0,-2.79 -45.177,0 0,2.79 L 0,-1.395 0,0 Z"
             style="fill:none;stroke:#231f20;stroke-width:1.449;stroke-linecap:butt;stroke-linejoin:miter;stroke-miterlimit:2.41400003;stroke-dasharray:none;stroke-opacity:1"
             id="path4163"
              /></g><path
           d="m 503.219,687.983 -35.483,0 0,7.886 35.483,0 0,-7.886 z"
           style="fill:#c8c7c7;fill-opacity:1;fill-rule:nonzero;stroke:none"
           id="path4165"
            /><g
           id="g4167"
           transform="translate(505.1914,695.8696)"><path
             d="m 0,0 -1.972,-0.001 0,-7.886 1.972,0 -1.972,-23.655 -35.485,0 -1.97,23.655 1.97,0 0,7.886 -1.97,0 -1.971,1.971 1.971,5.915 5.914,0 1.97,3.943 23.656,0 1.973,-3.943 5.912,0 L 1.97,1.97 0,0 Z"
             style="fill:none;stroke:#231f20;stroke-width:1.449;stroke-linecap:butt;stroke-linejoin:miter;stroke-miterlimit:4;stroke-dasharray:none;stroke-opacity:1"
             id="path4169"
              /></g><g
           id="g4171"
           transform="translate(448.4726,713.1733)"><path
             d="m 0,0 -7.954,-7.158 c -1.617,1.281 -3.465,2.286 -5.48,2.919 l 0,2.762 -1.107,1.421 -1.107,0.712 -1.104,0 -1.106,-0.712 -1.107,-1.421 0,-1.999 c -1.18,-0.029 -2.333,-0.169 -3.443,-0.424 l -6.609,7.876 -2.412,0.21 -9.174,-7.7 -0.212,-2.411 6.558,-7.815 c -0.694,-1.594 -1.153,-3.312 -1.335,-5.114 l -2.064,0 -1.421,-1.106 -0.712,-1.107 0,-1.104 0.712,-1.107 1.421,-1.105 2.418,0 c 0.438,-1.92 1.2,-3.716 2.222,-5.33 l -8.055,-7.25 0,-2.053 24.642,-36.964 0,-4.791 1.411,-1.369 28.749,0 0,82.14 L 0,0 Z"
             style="fill:#ffffff;fill-opacity:1;fill-rule:nonzero;stroke:none"
             id="path4173"
              /></g><g
           id="g4175"
           transform="translate(448.4726,713.1733)"><path
             d="m 0,0 -7.954,-7.158 c -1.617,1.281 -3.465,2.286 -5.48,2.919 l 0,2.762 -1.107,1.421 -1.107,0.712 -1.104,0 -1.106,-0.712 -1.107,-1.421 0,-1.999 c -1.18,-0.029 -2.333,-0.169 -3.443,-0.424 l -6.609,7.876 -2.412,0.21 -9.174,-7.7 -0.212,-2.411 6.558,-7.815 c -0.694,-1.594 -1.153,-3.312 -1.335,-5.114 l -2.064,0 -1.421,-1.106 -0.712,-1.107 0,-1.104 0.712,-1.107 1.421,-1.105 2.418,0 c 0.438,-1.92 1.2,-3.716 2.222,-5.33 l -8.055,-7.25 0,-2.053 24.642,-36.964 0,-4.791 1.411,-1.369 28.749,0 0,82.14 L 0,0 Z"
             style="fill:none;stroke:#231f20;stroke-width:1.449;stroke-linecap:butt;stroke-linejoin:miter;stroke-miterlimit:4;stroke-dasharray:none;stroke-opacity:1"
             id="path4177"
              /></g><g
           id="g4179"
           transform="translate(568.9857,492.608)"><path
             d="M 0,0 1.37,0 C 1.369,4.189 -3.023,8.483 -9.515,10.805 l 1.424,1.806 -1.156,13.224 -0.939,26.445 -1.616,2.779 -0.171,1.944 c 2.372,1.761 2.802,4.179 3.722,7.123 l 1.143,0.1 2.583,1.894 1.076,3.429 -0.145,1.656 -1.655,3.192 -2.872,1.416 -1.144,-0.1 c -1.418,2.738 -2.261,5.046 -4.902,6.369 l -0.171,1.945 1.111,3.017 -2.407,27.519 -2.163,15.727 -1.369,4.107 -1.369,2.739 -1.369,1.369 -2.738,1.368 -4.107,0 -20.534,0 0.917,-28.173 2.282,-26.073 1.615,-2.775 0.507,-5.797 -2.6,-1.687 1.393,-15.931 2.854,-1.21 0.509,-5.793 -1.111,-3.017 3.667,-26.206 1.156,-13.226 1.682,-1.499 C -40.832,6.13 -43.808,3.038 -43.808,0 l 1.368,0 0,-1.395 -1.368,-1.395 0,-2.79 45.177,0 0,2.79 L 0,-1.395 0,0 Z"
             style="fill:#ffffff;fill-opacity:1;fill-rule:nonzero;stroke:none"
             id="path4181"
              /></g><g
           id="g4183"
           transform="translate(568.9857,492.608)"><path
             d="M 0,0 1.37,0 C 1.369,4.189 -3.023,8.483 -9.515,10.805 l 1.424,1.806 -1.156,13.224 -0.939,26.445 -1.616,2.779 -0.171,1.944 c 2.372,1.761 2.802,4.179 3.722,7.123 l 1.143,0.1 2.583,1.894 1.076,3.429 -0.145,1.656 -1.655,3.192 -2.872,1.416 -1.144,-0.1 c -1.418,2.738 -2.261,5.046 -4.902,6.369 l -0.171,1.945 1.111,3.017 -2.407,27.519 -2.163,15.727 -1.369,4.107 -1.369,2.739 -1.369,1.369 -2.738,1.368 -4.107,0 -20.534,0 0.917,-28.173 2.282,-26.073 1.615,-2.775 0.507,-5.797 -2.6,-1.687 1.393,-15.931 2.854,-1.21 0.509,-5.793 -1.111,-3.017 3.667,-26.206 1.156,-13.226 1.682,-1.499 C -40.832,6.13 -43.808,3.038 -43.808,0 l 1.368,0 0,-1.395 -1.368,-1.395 0,-2.79 45.177,0 0,2.79 L 0,-1.395 0,0 Z"
             style="fill:none;stroke:#231f20;stroke-width:1.449;stroke-linecap:butt;stroke-linejoin:miter;stroke-miterlimit:2.41400003;stroke-dasharray:none;stroke-opacity:1"
             id="path4185"
              /></g><g
           id="g4187"
           transform="translate(555.4555,683.4604)"><path
             d="m 0,0 c 1.022,1.614 1.784,3.41 2.222,5.33 l 2.418,0 1.42,1.105 0.713,1.108 0,1.103 -0.713,1.108 -1.42,1.105 -2.065,0 c -0.181,1.801 -0.64,3.52 -1.335,5.114 l 6.559,7.815 -0.213,2.411 -9.174,7.7 -2.412,-0.21 -6.608,-7.876 c -1.11,0.254 -2.264,0.395 -3.444,0.424 l 0,1.998 -1.106,1.422 -1.107,0.711 -1.104,0 -1.107,-0.711 -1.106,-1.422 0,-2.761 c -2.015,-0.633 -3.862,-1.637 -5.479,-2.919 l -7.954,7.158 -13.648,0 0,-82.14 28.749,0 1.327,1.369 0,4.791 24.643,36.964 0,2.053 L 0,0 Z"
             style="fill:#ffffff;fill-opacity:1;fill-rule:nonzero;stroke:none"
             id="path4189"
              /></g><g
           id="g4191"
           transform="translate(555.4555,683.4604)"><path
             d="m 0,0 c 1.022,1.614 1.784,3.41 2.222,5.33 l 2.418,0 1.42,1.105 0.713,1.108 0,1.103 -0.713,1.108 -1.42,1.105 -2.065,0 c -0.181,1.801 -0.64,3.52 -1.335,5.114 l 6.559,7.815 -0.213,2.411 -9.174,7.7 -2.412,-0.21 -6.608,-7.876 c -1.11,0.254 -2.264,0.395 -3.444,0.424 l 0,1.998 -1.106,1.422 -1.107,0.711 -1.104,0 -1.107,-0.711 -1.106,-1.422 0,-2.761 c -2.015,-0.633 -3.862,-1.637 -5.479,-2.919 l -7.954,7.158 -13.648,0 0,-82.14 28.749,0 1.327,1.369 0,4.791 24.643,36.964 0,2.053 L 0,0 Z"
             style="fill:none;stroke:#231f20;stroke-width:1.449;stroke-linecap:butt;stroke-linejoin:miter;stroke-miterlimit:4;stroke-dasharray:none;stroke-opacity:1"
             id="path4193"
              /></g><text
       transform="matrix(0.99809211,0,0,-1,449.5845,399.7506)"
       style="font-variant:normal;font-weight:bold;font-stretch:normal;font-size:6.76140022px;font-family:Eurostile;writing-mode:lr-tb;fill:#231f20;fill-opacity:1;fill-rule:nonzero;stroke:none"
       id="text5653"><tspan
         x="0 4.4963312 8.3165216 12.238134 14.712807 18.532997 21.521536 23.854219 27.133499 30.987495 33.976036 37.606907 41.460903 43.793587 48.533329 52.353519 56.20752"
         y="0"
         id="tspan5655">Center Torso Rear</tspan><tspan
         x="86.174042 89.453323 93.30732 96.29586 99.926727 103.78073 106.11341 110.85315 114.67335 118.52734"
         y="-19.337605"
         id="tspan5657">Torso Rear</tspan><tspan
         x="95.694092 100.43384 101.88754 105.76182 109.68343 -34.814449 -31.041588 -27.221395 -25.179453"
         y="-28.44521"
         id="tspan5661">RightLeft</tspan><tspan
         x="-46.98497 -43.705688 -39.851692 -36.863152 -33.232281 -29.378283 -27.045601 -22.305859 -18.485668 -14.63167"
         y="-19.8988"
         id="tspan5663">Torso Rear</tspan><tspan
         x="55.49757 60.237312 61.691013 65.565292 69.486908"
         y="-87.60746"
         id="tspan5667">Right</tspan><tspan
         x="49.128334 53.868073 57.688263 61.542263 64.5308 66.863487 70.636345 74.456535"
         y="-79.493782"
         id="tspan5669">Rear Leg</tspan><tspan
         x="101.10998 105.84972 107.30342 111.1777 115.09931"
         y="-76.653992"
         id="tspan5673">Right</tspan><tspan
         x="93.96994 97.681946 100.67049 104.52448 108.4461 110.92077 113.25345 117.02631 120.8465"
         y="-68.540314"
         id="tspan5675">Front Leg</tspan></text>
<text
       transform="matrix(0.9981069,0,0,-1,476.1065,576.3519)"
       style="font-variant:normal;font-weight:bold;font-stretch:normal;font-size:6.76140022px;font-family:Eurostile;writing-mode:lr-tb;fill:#231f20;fill-opacity:1;fill-rule:nonzero;stroke:none"
       id="text5679"><tspan
         x="0 4.4963312 8.3165216 12.238134 14.712807 18.532997"
         y="0"
         id="tspan5681">Center</tspan><tspan
         x="1.9540446 5.2333236 9.0873213 12.07586 15.706732"
         y="8.1136799"
         id="tspan5683">Torso</tspan></text>
<text
       transform="matrix(0.99809211,0,0,-1,402.0848,645.4875)"
       style="font-variant:normal;font-weight:bold;font-stretch:normal;font-size:6.76140022px;font-family:Eurostile;writing-mode:lr-tb;fill:#231f20;fill-opacity:1;fill-rule:nonzero;stroke:none"
       id="text5687"><tspan
         x="0 3.7728612 7.5930524 9.6349955"
         y="0"
         id="tspan5689">Left</tspan><tspan
         x="-2.7451284 0.5341506 4.3881488 7.3766875 11.007559"
         y="8.1136799"
         id="tspan5691">Torso</tspan><tspan
         x="153.619 158.35875 159.81245 163.68674 167.60834"
         y="3.0026649e-15"
         id="tspan5695">Right</tspan><tspan
         x="153.05106 156.33032 160.18433 163.17287 166.80374"
         y="8.1136799"
         id="tspan5697">Torso</tspan></text>
<text
       transform="matrix(0.9981069,0,0,-1,469.3897,718.4289)"
       style="font-variant:normal;font-weight:bold;font-stretch:normal;font-size:6.76140022px;font-family:Eurostile;writing-mode:lr-tb;fill:#231f20;fill-opacity:1;fill-rule:nonzero;stroke:none"
       id="text5701"><tspan
         x="0 5.0710502 8.8912411 12.745239"
         y="0"
         id="tspan5703">Head</tspan></text>
<text
       transform="matrix(0.99809211,0,0,-1,454.6881,487.3663)"
       style="font-variant:normal;font-weight:bold;font-stretch:normal;font-size:6.76140022px;font-family:Eurostile;writing-mode:lr-tb;fill:#231f20;fill-opacity:1;fill-rule:nonzero;stroke:none"
       id="text5705"><tspan
         x="0 3.7728612 7.5930524 9.6349955"
         y="0"
         id="tspan5707">Left</tspan><tspan
         x="-8.5464096 -3.8066683 0.0135228 3.8675208 6.8560596 9.1887426 12.961604 16.781796"
         y="8.1136799"
         id="tspan5709">Rear Leg</tspan><tspan
         x="-45.051208 -41.278347 -37.458157 -35.416214"
         y="10.953468"
         id="tspan5713">Left</tspan><tspan
         x="-54.368416 -50.65641 -47.66787 -43.813873 -39.892262 -37.417587 -35.084904 -31.312044 -27.491852"
         y="19.067148"
         id="tspan5715">Front Leg</tspan></text><g transform="matrix(1,0,0,-1,0,765)"><g
     id="armorPips"><g
       id="armorPipsHD"
       fill="none"
       transform="translate(474.4,74.44)"><rect
         x="0"
         y="5.3272"
         width="24.8"
         height="6.15152"
         id="armorHDRow00" /><rect
         x="0"
         y="10.6544"
         width="24.8"
         height="6.15152"
         id="armorHDRow01" /><rect
         x="6.1"
         y="15.9816"
         width="12.6"
         height="6.15152"
         id="armorHDRow02" /></g><g
       id="armorPipsHD_SH"
       fill="none"
       transform="translate(474.45,68.1505)"><rect
         x="0"
         y="-0.8244"
         width="24.8"
         height="6.15152"
         id="rect1225" /><rect
         x="0"
         y="5.3272"
         width="24.8"
         height="6.15152"
         id="rect1227" /><rect
         x="0"
         y="10.6544"
         width="24.8"
         height="6.15152"
         id="rect1229" /><rect
         x="6.1"
         y="15.9816"
         width="12.6"
         height="6.15152"
         id="armorHDRow03" /></g><g
       id="armorPipsCT"
       fill="none"
       transform="translate(463.13,102.5541)"><rect
         x="0"
         y="0"
         width="44.9"
         height="6.15152"
         id="armorCTRow00" /><rect
         x="0"
         y="5.3272"
         width="44.9"
         height="6.15152"
         id="armorCTRow01" /><rect
         x="0"
         y="10.6544"
         width="44.9"
         height="6.15152"
         id="armorCTRow02" /><rect
         x="0"
         y="15.9816"
         width="44.9"
         height="6.15152"
         id="armorCTRow03" /><rect
         x="0"
         y="21.3088"
         width="44.9"
         height="6.15152"
         id="armorCTRow04" /><rect
         x="0"
         y="26.636"
         width="44.9"
         height="6.15152"
         id="armorCTRow05" /><rect
         x="0.58"
         y="31.9632"
         width="43.74"
         height="6.15152"
         id="armorCTRow06" /><rect
         x="1.27"
         y="37.2904"
         width="42.36"
         height="6.15152"
         id="armorCTRow07" /><rect
         x="1.86"
         y="42.6176"
         width="41.18"
         height="6.15152"
         id="armorCTRow08" /><rect
         x="2.45"
         y="47.9449"
         width="40"
         height="6.15152"
         id="armorCTRow09" /><rect
         x="3.24"
         y="53.2722"
         width="38.42"
         height="6.15152"
         id="armorCTRow10" /><rect
         x="3.73"
         y="58.5994"
         width="37.44"
         height="6.15152"
         id="armorCTRow11" /></g><g
       id="armorPipsRT"
       fill="none"
       transform="translate(509.91,61.54)"><rect
         x="0"
         y="0"
         width="46.2"
         height="6.15152"
         id="armorRTRow00" /><rect
         x="0"
         y="5.3272"
         width="46.2"
         height="6.15152"
         id="armorRTRow01" /><rect
         x="0"
         y="10.6544"
         width="46.2"
         height="6.15152"
         id="armorRTRow02" /><rect
         x="0"
         y="15.9816"
         width="44.62"
         height="6.15152"
         id="armorRTRow03" /><rect
         x="0"
         y="21.3088"
         width="44.62"
         height="6.15152"
         id="armorRTRow04" /><rect
         x="0"
         y="26.636"
         width="49.94"
         height="6.15152"
         id="armorRTRow05" /><rect
         x="0"
         y="31.9632"
         width="46.2"
         height="6.15152"
         id="armorRTRow06" /><rect
         x="0"
         y="37.2904"
         width="42.65"
         height="6.15152"
         id="armorRTRow07" /><rect
         x="0"
         y="42.6176"
         width="39.3"
         height="6.15152"
         id="armorRTRow08" /><rect
         x="0"
         y="47.9449"
         width="35.37"
         height="6.15152"
         id="armorRTRow09" /><rect
         x="0"
         y="53.2722"
         width="32.31"
         height="6.15152"
         id="armorRTRow10" /><rect
         x="0"
         y="58.5994"
         width="28.08"
         height="6.15152"
         id="armorRTRow11" /><rect
         x="0"
         y="63.9266"
         width="28.08"
         height="6.15152"
         id="armorRTRow12" /></g><g
       id="armorPipsLT"
       fill="none"
       transform="matrix(-1, 0, 0, 1,460.8,61.54)"><rect
         x="0"
         y="0"
         width="46.2"
         height="6.15152"
         id="rect1260" /><rect
         x="0"
         y="5.3272"
         width="46.2"
         height="6.15152"
         id="rect1262" /><rect
         x="0"
         y="10.6544"
         width="46.2"
         height="6.15152"
         id="rect1264" /><rect
         x="0"
         y="15.9816"
         width="44.62"
         height="6.15152"
         id="rect1266" /><rect
         x="0"
         y="21.3088"
         width="44.62"
         height="6.15152"
         id="rect1268" /><rect
         x="0"
         y="26.636"
         width="49.94"
         height="6.15152"
         id="rect1270" /><rect
         x="0"
         y="31.9632"
         width="46.2"
         height="6.15152"
         id="rect1272" /><rect
         x="0"
         y="37.2904"
         width="42.65"
         height="6.15152"
         id="rect1274" /><rect
         x="0"
         y="42.6176"
         width="39.3"
         height="6.15152"
         id="rect1276" /><rect
         x="0"
         y="47.9449"
         width="35.37"
         height="6.15152"
         id="rect1278" /><rect
         x="0"
         y="53.2722"
         width="32.31"
         height="6.15152"
         id="rect1280" /><rect
         x="0"
         y="58.5994"
         width="28.08"
         height="6.15152"
         id="rect1282" /><rect
         x="0"
         y="63.9266"
         width="28.08"
         height="6.15152"
         id="rect1284" /></g><g
       id="armorPipsFRL"
       fill="none"
       transform="matrix(0.9962,-0.08715,0.08715,0.99619,521.659,140.49)"><rect
         x="0"
         y="0"
         width="25.34"
         height="6.15152"
         id="armorFRLRow00" /><rect
         x="0"
         y="5.3272"
         width="25.34"
         height="6.15152"
         id="armorFRLRow01" /><rect
         x="0"
         y="10.6544"
         width="25.34"
         height="6.15152"
         id="armorFRLRow02" /><rect
         x="0"
         y="15.9816"
         width="25.34"
         height="6.15152"
         id="armorFRLRow03" /><rect
         x="0"
         y="21.3088"
         width="25.34"
         height="6.15152"
         id="armorFRLRow04" /><rect
         x="0"
         y="26.636"
         width="25.34"
         height="6.15152"
         id="armorFRLRow05" /><rect
         x="0"
         y="31.9632"
         width="25.34"
         height="6.15152"
         id="armorFRLRow06" /><rect
         x="0"
         y="37.2904"
         width="25.34"
         height="6.15152"
         id="armorFRLRow07" /><rect
         x="0"
         y="42.6176"
         width="25.34"
         height="6.15152"
         id="armorFRLRow08" /><rect
         x="0"
         y="47.9449"
         width="25.34"
         height="6.15152"
         id="armorFRLRow09" /><rect
         x="0"
         y="53.2722"
         width="25.34"
         height="6.15152"
         id="armorFRLRow10" /><rect
         x="0"
         y="58.5994"
         width="25.34"
         height="6.15152"
         id="armorFRLRow11" /><rect
         x="0"
         y="63.9266"
         width="25.34"
         height="6.15152"
         id="armorFRLRow12" /><rect
         x="0"
         y="69.2538"
         width="25.34"
         height="6.15152"
         id="armorFRLRow13" /><rect
         x="0"
         y="74.5810"
         width="25.34"
         height="6.15152"
         id="armorFRLRow14" /><rect
         x="0"
         y="79.9082"
         width="25.34"
         height="6.15152"
         id="armorFRLRow15" /><rect
         x="0"
         y="85.2326"
         width="25.34"
         height="6.15152"
         id="armorFRLRow16" /><rect
         x="0"
         y="90.5627"
         width="25.34"
         height="6.15152"
         id="armorFRLRow17" /><rect
         x="0"
         y="95.89"
         width="25.34"
         height="6.15152"
         id="armorFRLRow18" /><rect
         x="0"
         y="101.2172"
         width="25.34"
         height="6.15152"
         id="armorFRLRow19" /><rect
         x="0"
         y="106.5444"
         width="25.34"
         height="6.15152"
         id="armorFRLRow20" /><rect
         x="0"
         y="111.8716"
         width="25.34"
         height="6.15152"
         id="armorFRLRow21" /><rect
         x="0"
         y="117.1988"
         width="25.34"
         height="6.15152"
         id="armorFRLRow22" /><rect
         x="1.2"
         y="122.5261"
         width="24.14"
         height="6.15152"
         id="armorFRLRow23" /><rect
         x="1.2"
         y="127.8533"
         width="24.14"
         height="6.15152"
         id="armorFRLRow24" /></g><g
       id="armorPipsFLL"
       fill="none"
       transform="matrix(-0.9962,-0.08715,-0.08715,0.99619,449.051,140.49)"><rect
         x="0"
         y="0"
         width="25.34"
         height="6.15152"
         id="armorFLLRow00" /><rect
         x="0"
         y="5.3272"
         width="25.34"
         height="6.15152"
         id="armorFLLRow01" /><rect
         x="0"
         y="10.6544"
         width="25.34"
         height="6.15152"
         id="armorFLLRow02" /><rect
         x="0"
         y="15.9816"
         width="25.34"
         height="6.15152"
         id="armorFLLRow03" /><rect
         x="0"
         y="21.3088"
         width="25.34"
         height="6.15152"
         id="armorFLLRow04" /><rect
         x="0"
         y="26.636"
         width="25.34"
         height="6.15152"
         id="armorFLLRow05" /><rect
         x="0"
         y="31.9632"
         width="25.34"
         height="6.15152"
         id="armorFLLRow06" /><rect
         x="0"
         y="37.2904"
         width="25.34"
         height="6.15152"
         id="armorFLLRow07" /><rect
         x="0"
         y="42.6176"
         width="25.34"
         height="6.15152"
         id="armorFLLRow08" /><rect
         x="0"
         y="47.9449"
         width="25.34"
         height="6.15152"
         id="armorFLLRow09" /><rect
         x="0"
         y="53.2722"
         width="25.34"
         height="6.15152"
         id="armorFLLRow10" /><rect
         x="0"
         y="58.5994"
         width="25.34"
         height="6.15152"
         id="armorFLLRow11" /><rect
         x="0"
         y="63.9266"
         width="25.34"
         height="6.15152"
         id="armorFLLRow12" /><rect
         x="0"
         y="69.2538"
         width="25.34"
         height="6.15152"
         id="armorFLLRow13" /><rect
         x="0"
         y="74.5810"
         width="25.34"
         height="6.15152"
         id="armorFLLRow14" /><rect
         x="0"
         y="79.9082"
         width="25.34"
         height="6.15152"
         id="armorFLLRow15" /><rect
         x="0"
         y="85.2326"
         width="25.34"
         height="6.15152"
         id="armorFLLRow16" /><rect
         x="0"
         y="90.5627"
         width="25.34"
         height="6.15152"
         id="armorFLLRow17" /><rect
         x="0"
         y="95.89"
         width="25.34"
         height="6.15152"
         id="armorFLLRow18" /><rect
         x="0"
         y="101.2172"
         width="25.34"
         height="6.15152"
         id="armorFLLRow19" /><rect
         x="0"
         y="106.5444"
         width="25.34"
         height="6.15152"
         id="armorFLLRow20" /><rect
         x="0"
         y="111.8716"
         width="25.34"
         height="6.15152"
         id="armorFLLRow21" /><rect
         x="0"
         y="117.1988"
         width="25.34"
         height="6.15152"
         id="armorFLLRow22" /><rect
         x="1.2"
         y="122.5261"
         width="24.14"
         height="6.15152"
         id="armorFLLRow23" /><rect
         x="1.2"
         y="127.8533"
         width="24.14"
         height="6.15152"
         id="armorFLLRow24" /></g><g
       id="armorPipsRRL"
       fill="none"
       transform="translate(501.56,140.49)"><rect
         x="7.52"
         y="0"
         width="10.02"
         height="6.15152"
         id="armorRRLRow00" /><rect
         x="6.68"
         y="5.3272"
         width="11.14"
         height="6.15152"
         id="armorRRLRow01" /><rect
         x="6.13"
         y="10.6544"
         width="11.97"
         height="6.15152"
         id="armorRRLRow02" /><rect
         x="5.29"
         y="15.9816"
         width="13.09"
         height="6.15152"
         id="armorRRLRow03" /><rect
         x="4.45"
         y="21.3088"
         width="13.39"
         height="6.15152"
         id="armorRRLRow04" /><rect
         x="4.45"
         y="26.636"
         width="19.1"
         height="6.15152"
         id="armorRRLRow05" /><rect
         x="0"
         y="31.9632"
         width="19.3"
         height="6.15152"
         id="armorRRLRow06" /><rect
         x="0"
         y="37.2904"
         width="19.86"
         height="6.15152"
         id="armorRRLRow07" /><rect
         x="0"
         y="42.6176"
         width="20.00"
         height="6.15152"
         id="armorRRLRow08" /><rect
         x="0"
         y="47.9449"
         width="20.14"
         height="6.15152"
         id="armorRRLRow09" /><rect
         x="0"
         y="53.2722"
         width="20.33"
         height="6.15152"
         id="armorRRLRow10" /><rect
         x="0"
         y="58.5994"
         width="19.89"
         height="6.15152"
         id="armorRRLRow11" /><rect
         x="0"
         y="63.9266"
         width="20.46"
         height="6.15152"
         id="armorRRLRow12" /><rect
         x="0"
         y="69.2538"
         width="21.07"
         height="6.15152"
         id="armorRRLRow13" /><rect
         x="0"
         y="74.5810"
         width="23.63"
         height="6.15152"
         id="armorRRLRow14" /><rect
         x="0"
         y="79.9082"
         width="23.63"
         height="6.15152"
         id="armorRRLRow15" /><rect
         x="0"
         y="85.2355"
         width="23.63"
         height="6.15152"
         id="armorRRLRow16" /><rect
         x="0"
         y="90.5627"
         width="23.24"
         height="6.15152"
         id="armorRRLRow17" /><rect
         x="0"
         y="95.8899"
         width="23.04"
         height="6.15152"
         id="armorRRLRow18" /><rect
         x="0"
         y="101.2171"
         width="23.04"
         height="6.15152"
         id="armorRRLRow19" /><rect
         x="2"
         y="106.5443"
         width="18.68"
         height="6.15152"
         id="armorRRLRow20" /><rect
         x="0"
         y="111.8716"
         width="23.63"
         height="6.15152"
         id="armorRRLRow21" /><rect
         x="-6.89"
         y="117.1988"
         width="34.85"
         height="6.15152"
         id="armorRRLRow22" /></g><g
       id="armorPipsRLL"
       fill="none"
       transform="matrix(-1,0,0,1,469.15,140.49)"><rect
         x="7.52"
         y="0"
         width="10.02"
         height="6.15152"
         id="armorRLLRow00" /><rect
         x="6.68"
         y="5.3272"
         width="11.14"
         height="6.15152"
         id="armorRLLRow01" /><rect
         x="6.13"
         y="10.6544"
         width="11.97"
         height="6.15152"
         id="armorRLLRow02" /><rect
         x="5.29"
         y="15.9816"
         width="13.09"
         height="6.15152"
         id="armorRLLRow03" /><rect
         x="4.45"
         y="21.3088"
         width="13.39"
         height="6.15152"
         id="armorRLLRow04" /><rect
         x="4.45"
         y="26.636"
         width="19.1"
         height="6.15152"
         id="armorRLLRow05" /><rect
         x="0"
         y="31.9632"
         width="19.3"
         height="6.15152"
         id="armorRLLRow06" /><rect
         x="0"
         y="37.2904"
         width="19.86"
         height="6.15152"
         id="armorRLLRow07" /><rect
         x="0"
         y="42.6176"
         width="20.00"
         height="6.15152"
         id="armorRLLRow08" /><rect
         x="0"
         y="47.9449"
         width="20.14"
         height="6.15152"
         id="armorRLLRow09" /><rect
         x="0"
         y="53.2722"
         width="20.33"
         height="6.15152"
         id="armorRLLRow10" /><rect
         x="0"
         y="58.5994"
         width="19.89"
         height="6.15152"
         id="armorRLLRow11" /><rect
         x="0"
         y="63.9266"
         width="20.46"
         height="6.15152"
         id="armorRLLRow12" /><rect
         x="0"
         y="69.2538"
         width="21.07"
         height="6.15152"
         id="armorRLLRow13" /><rect
         x="0"
         y="74.5810"
         width="23.63"
         height="6.15152"
         id="armorRLLRow14" /><rect
         x="0"
         y="79.9082"
         width="23.63"
         height="6.15152"
         id="armorRLLRow15" /><rect
         x="0"
         y="85.2355"
         width="23.63"
         height="6.15152"
         id="armorRLLRow16" /><rect
         x="0"
         y="90.5627"
         width="23.24"
         height="6.15152"
         id="armorRLLRow17" /><rect
         x="0"
         y="95.8899"
         width="23.04"
         height="6.15152"
         id="armorRLLRow18" /><rect
         x="0"
         y="101.2171"
         width="23.04"
         height="6.15152"
         id="armorRLLRow19" /><rect
         x="2"
         y="106.5443"
         width="18.68"
         height="6.15152"
         id="armorRLLRow20" /><rect
         x="0"
         y="111.8716"
         width="23.63"
         height="6.15152"
         id="armorRLLRow21" /><rect
         x="-6.89"
         y="117.1988"
         width="34.85"
         height="6.15152"
         id="armorRLLRow22" /></g><g
       id="armorPipsCTR"
       fill="none"
       transform="translate(471.04,302.83)"><rect
         x="0"
         y="0"
         width="29.14"
         height="6.15152"
         id="armorCTRRow00" /><rect
         x="0"
         y="5.3272"
         width="29.14"
         height="6.15152"
         id="armorCTRRow01" /><rect
         x="0"
         y="10.6544"
         width="29.14"
         height="6.15152"
         id="armorCTRRow02" /><rect
         x="0"
         y="15.9816"
         width="29.14"
         height="6.15152"
         id="armorCTRRow03" /><rect
         x="0"
         y="21.3088"
         width="29.14"
         height="6.15152"
         id="armorCTRRow04" /><rect
         x="0"
         y="26.636"
         width="29.14"
         height="6.15152"
         id="armorCTRRow05" /><rect
         x="0"
         y="31.9632"
         width="29.14"
         height="6.15152"
         id="armorCTRRow06" /><rect
         x="0"
         y="37.2905"
         width="29.14"
         height="6.15152"
         id="armorCTRRow07" /><rect
         x="0"
         y="42.6177"
         width="29.14"
         height="6.15152"
         id="armorCTRRow08" /></g><g
       id="armorPipsRTR"
       fill="none"
       transform="translate(502.53,306.08)"><rect
         x="0"
         y="0"
         width="11.87"
         height="6.15152"
         id="armorRTRRow00" /><rect
         x="0"
         y="5.3272"
         width="16.71"
         height="6.15152"
         id="armorRTRRow01" /><rect
         x="0"
         y="10.6544"
         width="21.73"
         height="6.15152"
         id="armorRTRRow02" /><rect
         x="0"
         y="15.9816"
         width="26.6"
         height="6.15152"
         id="armorRTRRow03" /><rect
         x="0"
         y="21.3088"
         width="29.66"
         height="6.15152"
         id="armorRTRRow04" /><rect
         x="0"
         y="26.636"
         width="26.18"
         height="6.15152"
         id="armorRTRRow05" /><rect
         x="0"
         y="31.9632"
         width="22.7"
         height="6.15152"
         id="armorRTRRow06" /><rect
         x="0"
         y="37.2905"
         width="19.36"
         height="6.15152"
         id="armorRTRRow07" /></g><g
       id="armorPipsLTR"
       fill="none"
       transform="matrix(-1,0,0,1,468.18,306.08)"><rect
         x="0"
         y="0"
         width="11.87"
         height="6.15152"
         id="rect1406" /><rect
         x="0"
         y="5.3272"
         width="16.71"
         height="6.15152"
         id="rect1408" /><rect
         x="0"
         y="10.6544"
         width="21.73"
         height="6.15152"
         id="rect1410" /><rect
         x="0"
         y="15.9816"
         width="26.6"
         height="6.15152"
         id="rect1412" /><rect
         x="0"
         y="21.3088"
         width="29.66"
         height="6.15152"
         id="rect1414" /><rect
         x="0"
         y="26.636"
         width="26.18"
         height="6.15152"
         id="rect1416" /><rect
         x="0"
         y="31.9632"
         width="22.7"
         height="6.15152"
         id="rect1418" /><rect
         x="0"
         y="37.2905"
         width="19.36"
         height="6.15152"
         id="rect1420" /></g></g><g
       id="armorValues"
       style="font-family:Eurostile;font-size:6.76140022px"><text
         id="armorType"
         style="font-weight:bold;font-size:8.4434px"
         text-anchor="start"
         x="535.81"
         y="33">Standard</text>
<text
         id="armorType2"
         style="font-weight:bold;font-size:8.4434px"
         text-anchor="start"
         x="535.81"
         y="41" />
<text
         id="patchworkHD"
         x="501.57"
         y="46.27" />
<text
         id="patchworkCT"
         text-anchor="middle"
         x="485.215"
         y="211.78" />
<text
         id="patchworkCT2"
         text-anchor="middle"
         x="485.215"
         y="218.38" />
<text
         id="patchworkRT"
         text-anchor="start"
         x="555.31"
         y="142.91" />
<text
         id="patchworkRT2"
         text-anchor="start"
         x="555.31"
         y="149.61" />
<text
         id="patchworkLT"
         text-anchor="end"
         x="416.34"
         y="142.91" />
<text
         id="patchworkLT2"
         text-anchor="end"
         x="416.34"
         y="149.61" />
<text
         id="patchworkFRL"
         text-anchor="middle"
         x="558.65"
         y="312.96" />
<text
         id="patchworkFRL2"
         text-anchor="middle"
         x="558.65"
         y="319.56" />
<text
         id="patchworkFLL"
         text-anchor="middle"
         x="415.37"
         y="312.96" />
<text
         id="patchworkFLL2"
         text-anchor="middle"
         x="415.37"
         y="319.56" />
<text
         id="patchworkRRL"
         text-anchor="start"
         x="507.96"
         y="300.26" />
<text
         id="patchworkRRL2"
         text-anchor="start"
         x="519.66"
         y="306.96" />
<text
         id="patchworkRLL"
         text-anchor="end"
         x="466.19"
         y="300.26" />
<text
         id="patchworkRLL2"
         text-anchor="end"
         x="451.43"
         y="306.96" />
<text
        font-weight="bold"
         id="textArmor_HD"
         x="487.8"
         y="46.27">( 0 )</text>
<text
        font-weight="bold"
         text-anchor="middle"
         id="textArmor_CT"
         x="486.8"
         y="205.08">( 0 )</text>
<text
        font-weight="bold"
         id="textArmor_CTR"
         x="511.58"
         y="365.62">( 0 )</text>
<text
        font-weight="bold"
         text-anchor="middle"
         id="textArmor_RT"
         x="563.5"
         y="136.21">( 0 )</text>
<text
        font-weight="bold"
         text-anchor="middle"
         id="textArmor_RTR"
         x="553.08"
         y="354.61">( 0 )</text>
<text
        font-weight="bold"
         text-anchor="middle"
         id="textArmor_LT"
         x="408"
         y="136.21">( 0 )</text>
<text
        font-weight="bold"
         text-anchor="middle"
         id="textArmor_LTR"
         x="420.51"
         y="354.61">( 0 )</text>
<text
        font-weight="bold"
         text-anchor="middle"
         id="textArmor_FRL"
         x="558.65"
         y="304.26">( 0 )</text>
<text
        font-weight="bold"
         text-anchor="middle"
         id="textArmor_FLL"
         x="415.37"
         y="304.26">( 0 )</text>
<text
        font-weight="bold"
         text-anchor="middle"
         id="textArmor_RRL"
         x="512.98"
         y="293.56">( 0 )</text>
<text
        font-weight="bold"
         text-anchor="middle"
         id="textArmor_RLL"
         x="460.76"
         y="293.56">( 0 )</text>
</g>
</g></g>
</svg>
