<?xml version="1.0" encoding="utf-8"?>
<!DOCTYPE svg PUBLIC "-//W3C//DTD SVG 1.0//EN" "http://www.w3.org/TR/2001/REC-SVG-20010904/DTD/svg10.dtd">
<svg version="1.0" xmlns="http://www.w3.org/2000/svg" xmlns:xlink="http://www.w3.org/1999/xlink" x="0" y="0" width="56.218" height="79.702"
     xml:space="preserve">
<g id="damage_transfer_quadvee.svg" transform="matrix(1,0,0,-1,-215.3853,141.1064)">
<g
   id="g31050"
   transform="translate(232.3699,111.1937)"><path
     d="M 0,0 -1.885,2.51 -4.179,0.365 -2.786,0.242 -3.162,-4.049 -1.769,-4.172 -1.393,0.12 0,0 Z"
     style="fill:#000000;fill-opacity:1;fill-rule:nonzero;stroke:none"
     id="path31052"
      /></g><g
   id="g31054"
   transform="translate(232.3699,111.1937)"><path
     d="M 0,0 -1.885,2.51 -4.179,0.365 -2.786,0.242 -3.162,-4.049 -1.769,-4.172 -1.393,0.12 0,0 Z"
     style="fill:none;stroke:#000000;stroke-width:0.242;stroke-linecap:butt;stroke-linejoin:bevel;stroke-miterlimit:4;stroke-dasharray:none;stroke-opacity:1"
     id="path31056"
      /></g><g
   id="g31058"
   transform="translate(236.4773,111.5588)"><path
     d="m 0,0 -2.292,2.145 -1.887,-2.51 1.393,0.12 0.376,-4.292 1.393,0.122 -0.376,4.292 L 0,0 Z"
     style="fill:#000000;fill-opacity:1;fill-rule:nonzero;stroke:none"
     id="path31060"
      /></g><g
   id="g31062"
   transform="translate(236.4773,111.5588)"><path
     d="m 0,0 -2.292,2.145 -1.887,-2.51 1.393,0.12 0.376,-4.292 1.393,0.122 -0.376,4.292 L 0,0 Z"
     style="fill:none;stroke:#000000;stroke-width:0.242;stroke-linecap:butt;stroke-linejoin:bevel;stroke-miterlimit:4;stroke-dasharray:none;stroke-opacity:1"
     id="path31064"
      /></g><g
   id="g31066"
   transform="translate(254.2045,111.1937)"><path
     d="M 0,0 -1.885,2.51 -4.179,0.365 -2.786,0.242 -3.162,-4.049 -1.769,-4.172 -1.392,0.12 0,0 Z"
     style="fill:#000000;fill-opacity:1;fill-rule:nonzero;stroke:none"
     id="path31068"
      /></g><g
   id="g31070"
   transform="translate(254.2045,111.1937)"><path
     d="M 0,0 -1.885,2.51 -4.179,0.365 -2.786,0.242 -3.162,-4.049 -1.769,-4.172 -1.392,0.12 0,0 Z"
     style="fill:none;stroke:#000000;stroke-width:0.242;stroke-linecap:butt;stroke-linejoin:bevel;stroke-miterlimit:4;stroke-dasharray:none;stroke-opacity:1"
     id="path31072"
      /></g><g
   id="g31074"
   transform="translate(248.524,123.498)"><path
     d="M 0,0 -2.941,-2.922 0,-5.843 l 0,1.948 2.941,0 0,1.948 L 0,-1.947 0,0 Z"
     style="fill:#000000;fill-opacity:1;fill-rule:nonzero;stroke:none"
     id="path31076"
      /></g><g
   id="g31078"
   transform="translate(248.524,123.498)"><path
     d="M 0,0 -2.941,-2.922 0,-5.843 l 0,1.948 2.941,0 0,1.948 L 0,-1.947 0,0 Z"
     style="fill:none;stroke:#000000;stroke-width:0.242;stroke-linecap:butt;stroke-linejoin:bevel;stroke-miterlimit:4;stroke-dasharray:none;stroke-opacity:1"
     id="path31080"
      /></g><g
   id="g31082"
   transform="translate(237.9782,123.498)"><path
     d="M 0,0 2.94,-2.922 0,-5.843 l 0,1.948 -2.941,0 0,1.948 2.941,0 L 0,0 Z"
     style="fill:#000000;fill-opacity:1;fill-rule:nonzero;stroke:none"
     id="path31084"
      /></g><g
   id="g31086"
   transform="translate(237.9782,123.498)"><path
     d="M 0,0 2.94,-2.922 0,-5.843 l 0,1.948 -2.941,0 0,1.948 2.941,0 L 0,0 Z"
     style="fill:none;stroke:#000000;stroke-width:0.242;stroke-linecap:butt;stroke-linejoin:bevel;stroke-miterlimit:4;stroke-dasharray:none;stroke-opacity:1"
     id="path31088"
      /></g><g
   id="g31090"
   transform="translate(258.5458,111.5588)"><path
     d="m 0,0 -2.292,2.145 -1.887,-2.51 1.393,0.12 0.376,-4.292 1.393,0.122 -0.376,4.292 L 0,0 Z"
     style="fill:#000000;fill-opacity:1;fill-rule:nonzero;stroke:none"
     id="path31092"
      /></g><g
   id="g31094"
   transform="translate(258.5458,111.5588)"><path
     d="m 0,0 -2.292,2.145 -1.887,-2.51 1.393,0.12 0.376,-4.292 1.393,0.122 -0.376,4.292 L 0,0 Z"
     style="fill:none;stroke:#000000;stroke-width:0.242;stroke-linecap:butt;stroke-linejoin:bevel;stroke-miterlimit:4;stroke-dasharray:none;stroke-opacity:1"
     id="path31096"
      /></g><g
   id="g30198"
   transform="translate(220.268,100.4875)"><path
     d="m 0,0 -0.363,-3.333 0.475,-0.035 -0.102,-1.387 -0.579,0.043 -0.138,-1.862 0.579,-0.042 -0.104,-1.385 -0.578,0.042 -0.138,-1.861 0.578,-0.043 -0.103,-1.399 -0.578,0.043 -0.138,-1.848 0.578,-0.044 -0.104,-1.397 -0.578,0.041 -0.138,-1.861 0.578,-0.043 -0.102,-1.387 -0.579,0.043 -0.137,-1.861 0.577,-0.042 -0.103,-1.386 -0.578,0.042 -0.138,-1.861 0.578,-0.043 -0.102,-1.385 -0.578,0.043 -0.138,-1.861 0.577,-0.044 -0.103,-1.386 -0.578,0.043 -0.138,-1.862 0.578,-0.042 -0.072,-0.974 -0.578,0.041 -0.091,-1.231 0.578,-0.044 -0.054,-0.73 -0.578,0.04 -0.037,-0.487 5.796,-0.429 L 5.38,-0.751 0,0 Z"
     style="fill:#000000;fill-opacity:1;fill-rule:nonzero;stroke:none"
     id="path30200"
      /></g><g
   id="g30202"
   transform="translate(220.268,100.4875)"><path
     d="m 0,0 -0.363,-3.333 0.475,-0.035 -0.102,-1.387 -0.579,0.043 -0.138,-1.862 0.579,-0.042 -0.104,-1.385 -0.578,0.042 -0.138,-1.861 0.578,-0.043 -0.103,-1.399 -0.578,0.043 -0.138,-1.848 0.578,-0.044 -0.104,-1.397 -0.578,0.041 -0.138,-1.861 0.578,-0.043 -0.102,-1.387 -0.579,0.043 -0.137,-1.861 0.577,-0.042 -0.103,-1.386 -0.578,0.042 -0.138,-1.861 0.578,-0.043 -0.102,-1.385 -0.578,0.043 -0.138,-1.861 0.577,-0.044 -0.103,-1.386 -0.578,0.043 -0.138,-1.862 0.578,-0.042 -0.072,-0.974 -0.578,0.041 -0.091,-1.231 0.578,-0.044 -0.054,-0.73 -0.578,0.04 -0.037,-0.487 5.796,-0.429 L 5.38,-0.751 0,0 Z"
     style="fill:none;stroke:#000000;stroke-width:0.96600002;stroke-linecap:butt;stroke-linejoin:miter;stroke-miterlimit:4;stroke-dasharray:none;stroke-opacity:1"
     id="path30204"
      /></g><g
   id="g30206"><g
     id="g30208"><g
       id="g30214"
       transform="translate(241.3247,67.6784)"><path
         d="M 0,0 0.442,0 C 0.441,1.369 -0.88,2.766 -2.853,3.57 l 0.641,0.685 0,1.893 0.442,24.278 -0.442,0.947 0,1.892 0.884,0.473 0,5.2 -0.884,0.473 0,1.892 0.442,0.945 -0.442,1.728 -8.847,0 -0.442,-2.201 0.441,-0.946 0,-1.418 -0.884,-0.473 0,-5.2 0.884,-0.473 0,-1.892 -0.441,-0.947 0.442,-24.278 0,-1.893 0.765,-0.817 C -12.091,2.618 -13.271,1.294 -13.271,0 l 0.443,0 0,-0.472 -0.443,-0.474 0,-0.944 13.713,0 0,0.944 L 0,-0.472 0,0 Z"
         style="fill:#ffffff;fill-opacity:1;fill-rule:nonzero;stroke:none"
         id="path30216"
          /></g><g
       id="g30218"
       transform="translate(241.3247,67.6784)"><path
         d="M 0,0 0.442,0 C 0.441,1.369 -0.88,2.766 -2.853,3.57 l 0.641,0.685 0,1.893 0.442,24.278 -0.442,0.947 0,1.892 0.884,0.473 0,5.2 -0.884,0.473 0,1.892 0.442,0.945 -0.442,1.728 -8.847,0 -0.442,-2.201 0.441,-0.946 0,-1.418 -0.884,-0.473 0,-5.2 0.884,-0.473 0,-1.892 -0.441,-0.947 0.442,-24.278 0,-1.893 0.765,-0.817 C -12.091,2.618 -13.271,1.294 -13.271,0 l 0.443,0 0,-0.472 -0.443,-0.474 0,-0.944 13.713,0 0,0.944 L 0,-0.472 0,0 Z"
         style="fill:none;stroke:#000000;stroke-width:0.96600002;stroke-linecap:butt;stroke-linejoin:miter;stroke-miterlimit:4;stroke-dasharray:none;stroke-opacity:1"
         id="path30220"
          /></g><g
       id="g30222"
       transform="translate(216.6611,63.8144)"><path
         d="m 0,0 -0.473,0 c 0.001,1.447 1.517,2.93 3.759,3.733 l 1.712,27.805 0.059,0.671 C 4.239,32.818 4.09,33.654 3.772,34.67 l -0.395,0.035 0.35,4.002 0.395,-0.035 1.694,2.2 0.058,0.672 -1.717,1.041 0.656,2.418 0.473,1.419 0.472,0.946 0.473,0.472 0.946,0.474 2.753,0 7.093,0 -0.184,-6.218 -0.557,-0.958 -0.176,-2.001 0.899,-0.584 -0.482,-5.502 -0.985,-0.42 -0.177,-2 0.384,-1.042 L 13.557,8.017 13.158,3.449 12.577,2.931 C 14.104,2.117 15.131,1.05 15.131,0 l -0.472,0 0,-0.481 0.472,-0.483 0,-0.963 -15.603,0 0,0.963 L 0,-0.481 0,0 Z"
         style="fill:#ffffff;fill-opacity:1;fill-rule:nonzero;stroke:none"
         id="path30224"
          /></g><g
       id="g30226"
       transform="translate(216.6611,63.8144)"><path
         d="m 0,0 -0.473,0 c 0.001,1.447 1.517,2.93 3.759,3.733 l 1.712,27.805 0.059,0.671 C 4.239,32.818 4.09,33.654 3.772,34.67 l -0.395,0.035 0.35,4.002 0.395,-0.035 1.694,2.2 0.058,0.672 -1.717,1.041 0.656,2.418 0.473,1.419 0.472,0.946 0.473,0.472 0.946,0.474 2.753,0 7.093,0 -0.184,-6.218 -0.557,-0.958 -0.176,-2.001 0.899,-0.584 -0.482,-5.502 -0.985,-0.42 -0.177,-2 0.384,-1.042 L 13.557,8.017 13.158,3.449 12.577,2.931 C 14.104,2.117 15.131,1.05 15.131,0 l -0.472,0 0,-0.481 0.472,-0.483 0,-0.963 -15.603,0 0,0.963 L 0,-0.481 0,0 Z"
         style="fill:none;stroke:#000000;stroke-width:0.96600002;stroke-linecap:butt;stroke-linejoin:miter;stroke-miterlimit:4;stroke-dasharray:none;stroke-opacity:1"
         id="path30228"
          /></g><g
       id="g30230"
       transform="translate(266.879,100.4875)"><path
         d="m 0,0 0.362,-3.333 -0.474,-0.035 0.102,-1.387 0.579,0.043 0.138,-1.862 -0.579,-0.042 0.103,-1.385 0.578,0.042 0.138,-1.861 -0.578,-0.043 0.104,-1.399 0.579,0.043 0.135,-1.848 -0.576,-0.044 0.103,-1.397 0.578,0.041 0.138,-1.861 -0.579,-0.043 0.103,-1.387 0.579,0.043 0.137,-1.861 -0.576,-0.042 0.103,-1.386 0.576,0.042 0.14,-1.861 -0.579,-0.043 0.103,-1.385 0.579,0.043 0.137,-1.861 -0.578,-0.044 0.102,-1.386 0.579,0.043 0.138,-1.862 -0.579,-0.042 0.073,-0.974 0.578,0.041 0.091,-1.231 -0.577,-0.044 0.054,-0.73 0.579,0.04 0.035,-0.487 -5.795,-0.429 L -5.38,-0.751 0,0 Z"
         style="fill:#000000;fill-opacity:1;fill-rule:nonzero;stroke:none"
         id="path30232"
          /></g><g
       id="g30234"
       transform="translate(266.879,100.4875)"><path
         d="m 0,0 0.362,-3.333 -0.474,-0.035 0.102,-1.387 0.579,0.043 0.138,-1.862 -0.579,-0.042 0.103,-1.385 0.578,0.042 0.138,-1.861 -0.578,-0.043 0.104,-1.399 0.579,0.043 0.135,-1.848 -0.576,-0.044 0.103,-1.397 0.578,0.041 0.138,-1.861 -0.579,-0.043 0.103,-1.387 0.579,0.043 0.137,-1.861 -0.576,-0.042 0.103,-1.386 0.576,0.042 0.14,-1.861 -0.579,-0.043 0.103,-1.385 0.579,0.043 0.137,-1.861 -0.578,-0.044 0.102,-1.386 0.579,0.043 0.138,-1.862 -0.579,-0.042 0.073,-0.974 0.578,0.041 0.091,-1.231 -0.577,-0.044 0.054,-0.73 0.579,0.04 0.035,-0.487 -5.795,-0.429 L -5.38,-0.751 0,0 Z"
         style="fill:none;stroke:#000000;stroke-width:0.96600002;stroke-linecap:butt;stroke-linejoin:miter;stroke-miterlimit:4;stroke-dasharray:none;stroke-opacity:1"
         id="path30236"
          /></g><g
       id="g30238"
       transform="translate(245.3104,67.6784)"><path
         d="m 0,0 -0.442,0 c 0.001,1.369 1.322,2.766 3.295,3.57 l -0.641,0.685 0,1.893 -0.441,24.278 0.441,0.947 0,1.892 -0.885,0.473 0,5.2 0.885,0.473 0,1.892 -0.442,0.945 0.442,1.728 8.847,0 0.443,-2.201 -0.443,-0.946 0,-1.418 0.884,-0.473 0,-5.2 -0.884,-0.473 0,-1.892 0.443,-0.947 -0.443,-24.278 0,-1.893 -0.765,-0.817 C 12.091,2.618 13.27,1.294 13.27,0 l -0.442,0 0,-0.472 0.442,-0.474 0,-0.944 -13.712,0 0,0.944 L 0,-0.472 0,0 Z"
         style="fill:#ffffff;fill-opacity:1;fill-rule:nonzero;stroke:none"
         id="path30240"
          /></g><g
       id="g30242"
       transform="translate(245.3104,67.6784)"><path
         d="m 0,0 -0.442,0 c 0.001,1.369 1.322,2.766 3.295,3.57 l -0.641,0.685 0,1.893 -0.441,24.278 0.441,0.947 0,1.892 -0.885,0.473 0,5.2 0.885,0.473 0,1.892 -0.442,0.945 0.442,1.728 8.847,0 0.443,-2.201 -0.443,-0.946 0,-1.418 0.884,-0.473 0,-5.2 -0.884,-0.473 0,-1.892 0.443,-0.947 -0.443,-24.278 0,-1.893 -0.765,-0.817 C 12.091,2.618 13.27,1.294 13.27,0 l -0.442,0 0,-0.472 0.442,-0.474 0,-0.944 -13.712,0 0,0.944 L 0,-0.472 0,0 Z"
         style="fill:none;stroke:#000000;stroke-width:0.96600002;stroke-linecap:butt;stroke-linejoin:miter;stroke-miterlimit:4;stroke-dasharray:none;stroke-opacity:1"
         id="path30244"
          /></g><g
       id="g30246"
       transform="translate(270.4858,63.8144)"><path
         d="m 0,0 0.473,0 c 0,1.447 -1.518,2.93 -3.76,3.733 L -5,31.538 -5.058,32.209 c 0.819,0.609 0.968,1.445 1.286,2.461 l 0.394,0.035 -0.35,4.002 -0.394,-0.035 -1.694,2.2 -0.058,0.672 1.716,1.041 -0.655,2.418 -0.474,1.419 -0.47,0.946 -0.475,0.472 -0.944,0.474 -2.755,0 -7.092,0 0.183,-6.218 0.558,-0.958 0.175,-2.001 -0.898,-0.584 0.481,-5.502 0.987,-0.42 0.175,-2 -0.384,-1.042 2.189,-21.572 0.399,-4.568 0.581,-0.518 C -14.104,2.117 -15.131,1.05 -15.131,0 l 0.472,0 0,-0.481 -0.472,-0.483 0,-0.963 15.604,0 0,0.963 L 0,-0.481 0,0 Z"
         style="fill:#ffffff;fill-opacity:1;fill-rule:nonzero;stroke:none"
         id="path30248"
          /></g><g
       id="g30250"
       transform="translate(270.4858,63.8144)"><path
         d="m 0,0 0.473,0 c 0,1.447 -1.518,2.93 -3.76,3.733 L -5,31.538 -5.058,32.209 c 0.819,0.609 0.968,1.445 1.286,2.461 l 0.394,0.035 -0.35,4.002 -0.394,-0.035 -1.694,2.2 -0.058,0.672 1.716,1.041 -0.655,2.418 -0.474,1.419 -0.47,0.946 -0.475,0.472 -0.944,0.474 -2.755,0 -7.092,0 0.183,-6.218 0.558,-0.958 0.175,-2.001 -0.898,-0.584 0.481,-5.502 0.987,-0.42 0.175,-2 -0.384,-1.042 2.189,-21.572 0.399,-4.568 0.581,-0.518 C -14.104,2.117 -15.131,1.05 -15.131,0 l 0.472,0 0,-0.481 -0.472,-0.483 0,-0.963 15.604,0 0,0.963 L 0,-0.481 0,0 Z"
         style="fill:none;stroke:#000000;stroke-width:0.96600002;stroke-linecap:butt;stroke-linejoin:miter;stroke-miterlimit:4;stroke-dasharray:none;stroke-opacity:1"
         id="path30252"
          /></g><g
       id="g30254"
       transform="translate(234.9033,133.1749)"><path
         d="m 0,0 -1.882,4.709 -5.1,0.05 -2.82,2.067 -6.412,0 -2.821,-2.067 0,-11.956 2.821,-2.067 6.412,0 1.865,1.368 3.709,-9.537 -2.1,-0.333 -0.173,-0.214 -0.379,-4.528 0.379,-0.312 4.951,0 1.118,0 5.446,0 L 0,0 Z"
         style="fill:#ffffff;fill-opacity:1;fill-rule:nonzero;stroke:none"
         id="path30256"
          /></g><g
       id="g30258"
       transform="translate(234.9033,133.1749)"><path
         d="m 0,0 -1.882,4.709 -5.1,0.05 -2.82,2.067 -6.412,0 -2.821,-2.067 0,-11.956 2.821,-2.067 6.412,0 1.865,1.368 3.709,-9.537 -2.1,-0.333 -0.173,-0.214 -0.379,-4.528 0.379,-0.312 4.951,0 1.118,0 5.446,0 L 0,0 Z"
         style="fill:none;stroke:#000000;stroke-width:0.96600002;stroke-linecap:butt;stroke-linejoin:miter;stroke-miterlimit:4;stroke-dasharray:none;stroke-opacity:1"
         id="path30260"
          /></g><g
       id="g30262"
       transform="translate(252.0856,133.1749)"><path
         d="m 0,0 1.881,4.709 5.102,0.05 2.82,2.067 6.411,0 2.821,-2.067 0,-11.956 -2.821,-2.067 -6.411,0 -1.866,1.368 -3.71,-9.537 2.101,-0.333 0.172,-0.214 0.38,-4.528 -0.38,-0.312 -4.95,0 -1.118,0 -5.446,0 L 0,0 Z"
         style="fill:#ffffff;fill-opacity:1;fill-rule:nonzero;stroke:none"
         id="path30264"
          /></g><g
       id="g30266"
       transform="translate(252.0856,133.1749)"><path
         d="m 0,0 1.881,4.709 5.102,0.05 2.82,2.067 6.411,0 2.821,-2.067 0,-11.956 -2.821,-2.067 -6.411,0 -1.866,1.368 -3.71,-9.537 2.101,-0.333 0.172,-0.214 0.38,-4.528 -0.38,-0.312 -4.95,0 -1.118,0 -5.446,0 L 0,0 Z"
         style="fill:none;stroke:#000000;stroke-width:0.96600002;stroke-linecap:butt;stroke-linejoin:miter;stroke-miterlimit:4;stroke-dasharray:none;stroke-opacity:1"
         id="path30268"
          /></g><g
       id="g30270"
       transform="translate(251.0347,110.355)"><path
         d="m 0,0 -15.13,0 0.913,10.311 -3.796,17.179 5.856,-0.368 9.151,0 L 2.85,27.49 -0.915,10.311 0,0 Z"
         style="fill:#ffffff;fill-opacity:1;fill-rule:nonzero;stroke:none"
         id="path30272"
          /></g><g
       id="g30274"
       transform="translate(251.0347,110.355)"><path
         d="m 0,0 -15.13,0 0.913,10.311 -3.796,17.179 5.856,-0.368 9.151,0 L 2.85,27.49 -0.915,10.311 0,0 Z"
         style="fill:none;stroke:#000000;stroke-width:0.96600002;stroke-linecap:butt;stroke-linejoin:miter;stroke-miterlimit:4;stroke-dasharray:none;stroke-opacity:1"
         id="path30276"
          /></g><g
       id="g30278"
       transform="translate(236.5811,134.1089)"><path
         d="m 0,0 2.794,-1.994 8.332,0 L 13.953,0 9.9,6.514 4.02,6.514 0,0 Z"
         style="fill:#ffffff;fill-opacity:1;fill-rule:nonzero;stroke:none"
         id="path30280"
          /></g><g
       id="g30282"
       transform="translate(236.5811,134.1089)"><path
         d="m 0,0 2.794,-1.994 8.332,0 L 13.953,0 9.9,6.514 4.02,6.514 0,0 Z"
         style="fill:none;stroke:#000000;stroke-width:0.96600002;stroke-linecap:butt;stroke-linejoin:miter;stroke-miterlimit:4;stroke-dasharray:none;stroke-opacity:1"
         id="path30284"
          /></g></g></g><g
   id="g75429"
   transform="translate(232.3699,111.1937)"><path
     d="M 0,0 -1.885,2.51 -4.179,0.365 -2.786,0.242 -3.162,-4.049 -1.769,-4.172 -1.393,0.12 0,0 Z"
     style="fill:#000000;fill-opacity:1;fill-rule:nonzero;stroke:none"
     id="path75431"
      /></g><g
   id="g75433"
   transform="translate(232.3699,111.1937)"><path
     d="M 0,0 -1.885,2.51 -4.179,0.365 -2.786,0.242 -3.162,-4.049 -1.769,-4.172 -1.393,0.12 0,0 Z"
     style="fill:none;stroke:#000000;stroke-width:0.242;stroke-linecap:butt;stroke-linejoin:bevel;stroke-miterlimit:4;stroke-dasharray:none;stroke-opacity:1"
     id="path75435"
      /></g><g
   id="g75437"
   transform="translate(236.4773,111.5588)"><path
     d="m 0,0 -2.292,2.145 -1.887,-2.51 1.393,0.12 0.376,-4.292 1.393,0.122 -0.376,4.292 L 0,0 Z"
     style="fill:#000000;fill-opacity:1;fill-rule:nonzero;stroke:none"
     id="path75439"
      /></g><g
   id="g75441"
   transform="translate(236.4773,111.5588)"><path
     d="m 0,0 -2.292,2.145 -1.887,-2.51 1.393,0.12 0.376,-4.292 1.393,0.122 -0.376,4.292 L 0,0 Z"
     style="fill:none;stroke:#000000;stroke-width:0.242;stroke-linecap:butt;stroke-linejoin:bevel;stroke-miterlimit:4;stroke-dasharray:none;stroke-opacity:1"
     id="path75443"
      /></g><g
   id="g75445"
   transform="translate(254.2045,111.1937)"><path
     d="M 0,0 -1.885,2.51 -4.179,0.365 -2.786,0.242 -3.162,-4.049 -1.769,-4.172 -1.392,0.12 0,0 Z"
     style="fill:#000000;fill-opacity:1;fill-rule:nonzero;stroke:none"
     id="path75447"
      /></g><g
   id="g75449"
   transform="translate(254.2045,111.1937)"><path
     d="M 0,0 -1.885,2.51 -4.179,0.365 -2.786,0.242 -3.162,-4.049 -1.769,-4.172 -1.392,0.12 0,0 Z"
     style="fill:none;stroke:#000000;stroke-width:0.242;stroke-linecap:butt;stroke-linejoin:bevel;stroke-miterlimit:4;stroke-dasharray:none;stroke-opacity:1"
     id="path75451"
      /></g><g
   id="g75453"
   transform="translate(248.524,123.498)"><path
     d="M 0,0 -2.941,-2.922 0,-5.843 l 0,1.948 2.941,0 0,1.948 L 0,-1.947 0,0 Z"
     style="fill:#000000;fill-opacity:1;fill-rule:nonzero;stroke:none"
     id="path75455"
      /></g><g
   id="g75457"
   transform="translate(248.524,123.498)"><path
     d="M 0,0 -2.941,-2.922 0,-5.843 l 0,1.948 2.941,0 0,1.948 L 0,-1.947 0,0 Z"
     style="fill:none;stroke:#000000;stroke-width:0.242;stroke-linecap:butt;stroke-linejoin:bevel;stroke-miterlimit:4;stroke-dasharray:none;stroke-opacity:1"
     id="path75459"
      /></g><g
   id="g75461"
   transform="translate(237.9782,123.498)"><path
     d="M 0,0 2.94,-2.922 0,-5.843 l 0,1.948 -2.941,0 0,1.948 2.941,0 L 0,0 Z"
     style="fill:#000000;fill-opacity:1;fill-rule:nonzero;stroke:none"
     id="path75463"
      /></g><g
   id="g75465"
   transform="translate(237.9782,123.498)"><path
     d="M 0,0 2.94,-2.922 0,-5.843 l 0,1.948 -2.941,0 0,1.948 2.941,0 L 0,0 Z"
     style="fill:none;stroke:#000000;stroke-width:0.242;stroke-linecap:butt;stroke-linejoin:bevel;stroke-miterlimit:4;stroke-dasharray:none;stroke-opacity:1"
     id="path75467"
      /></g><g
   id="g75469"
   transform="translate(258.5458,111.5588)"><path
     d="m 0,0 -2.292,2.145 -1.887,-2.51 1.393,0.12 0.376,-4.292 1.393,0.122 -0.376,4.292 L 0,0 Z"
     style="fill:#000000;fill-opacity:1;fill-rule:nonzero;stroke:none"
     id="path75471"
      /></g><g
   id="g75473"
   transform="translate(258.5458,111.5588)"><path
     d="m 0,0 -2.292,2.145 -1.887,-2.51 1.393,0.12 0.376,-4.292 1.393,0.122 -0.376,4.292 L 0,0 Z"
     style="fill:none;stroke:#000000;stroke-width:0.242;stroke-linecap:butt;stroke-linejoin:bevel;stroke-miterlimit:4;stroke-dasharray:none;stroke-opacity:1"
     id="path75475"
      /></g></g></svg>
