<?xml version="1.0" encoding="utf-8"?>
<!DOCTYPE svg PUBLIC "-//W3C//DTD SVG 1.0//EN" "http://www.w3.org/TR/2001/REC-SVG-20010904/DTD/svg10.dtd">
<svg version="1.0" xmlns="http://www.w3.org/2000/svg" xmlns:xlink="http://www.w3.org/1999/xlink" x="0" y="0" width="38.836" height="53.588"
     xml:space="preserve">
<g id="damage_transfer_tripod" transform="matrix(1,0,0,-1,-240.4346,144.2692)"><g
           id="g5052"
           transform="translate(246.3325,118.8396)"><path
             d="m 0,0 0.252,-0.759 c -0.044,0.136 -0.04,0.274 0,0.401 C 0.138,-0.267 0.049,-0.145 0,0 Z"
             style="fill:none;stroke:#000000;stroke-width:0.72500002;stroke-linecap:round;stroke-linejoin:round;stroke-miterlimit:4;stroke-dasharray:none;stroke-opacity:1"
             id="path5054"
              /></g><g
           id="g5056"
           transform="translate(246.4622,117.6812)"><path
             d="m 0,0 0.373,-0.191 c 0.022,0.076 0.073,0.144 0.148,0.184 l 0.005,0.003 C 0.344,0.056 0.189,0.2 0.123,0.399 L 0.151,0.315 C 0.183,0.217 0.121,0.103 0,0 Z"
             style="fill:none;stroke:#000000;stroke-width:0.72500002;stroke-linecap:round;stroke-linejoin:round;stroke-miterlimit:4;stroke-dasharray:none;stroke-opacity:1"
             id="path5058"
              /></g><g
           id="g5060"
           transform="translate(247.6795,120.6084)"><path
             d="m 0,0 -1.204,1.359 -2.712,-0.899 0.114,-2.605 0.577,0.192 0.541,-1.629 c 0.031,-0.09 0.096,-0.168 0.191,-0.214 l 1.359,-0.653 c 0.188,-0.092 0.419,-0.017 0.515,0.17 0.018,0.033 0.029,0.071 0.035,0.108 0.057,0.002 0.113,0.014 0.166,0.043 l 0.675,0.361 c 0.186,0.1 0.258,0.325 0.159,0.506 -0.04,0.074 -0.105,0.127 -0.178,0.159 0.065,0.094 0.077,0.222 0.018,0.332 -0.045,0.086 -0.128,0.141 -0.215,0.158 0.065,0.141 0.08,0.309 0.027,0.469 -0.002,0.005 -0.004,0.008 -0.005,0.012 0.301,0.222 0.447,0.595 0.332,0.942 l -0.263,0.792 c -0.045,0.135 -0.124,0.25 -0.227,0.338 L 0,0 Z"
             style="fill:#ffffff;fill-opacity:1;fill-rule:nonzero;stroke:none"
             id="path5062"
              /></g><g
           id="g5064"
           transform="translate(247.6795,120.6084)"><path
             d="m 0,0 -1.204,1.359 -2.712,-0.899 0.114,-2.605 0.577,0.192 0.541,-1.629 c 0.031,-0.09 0.096,-0.168 0.191,-0.214 l 1.359,-0.653 c 0.188,-0.092 0.419,-0.017 0.515,0.17 0.018,0.033 0.029,0.071 0.035,0.108 0.057,0.002 0.113,0.014 0.166,0.043 l 0.675,0.361 c 0.186,0.1 0.258,0.325 0.159,0.506 -0.04,0.074 -0.105,0.127 -0.178,0.159 0.065,0.094 0.077,0.222 0.018,0.332 -0.045,0.086 -0.128,0.141 -0.215,0.158 0.065,0.141 0.08,0.309 0.027,0.469 -0.002,0.005 -0.004,0.008 -0.005,0.012 0.301,0.222 0.447,0.595 0.332,0.942 l -0.263,0.792 c -0.045,0.135 -0.124,0.25 -0.227,0.338 L 0,0 Z"
             style="fill:none;stroke:#000000;stroke-width:0.72500002;stroke-linecap:round;stroke-linejoin:round;stroke-miterlimit:4;stroke-dasharray:none;stroke-opacity:1"
             id="path5066"
              /></g><g
           id="g5068"
           transform="translate(247.5791,117.4935)"><path
             d="m 0,0 c 0.186,0.099 0.418,0.034 0.517,-0.146 0.098,-0.181 0.027,-0.406 -0.16,-0.507 l -0.675,-0.36 c -0.186,-0.099 -0.417,-0.033 -0.517,0.146 -0.098,0.181 -0.027,0.405 0.161,0.506 L 0,0 Z"
             style="fill:#ffffff;fill-opacity:1;fill-rule:nonzero;stroke:none"
             id="path5070"
              /></g><g
           id="g5072"
           transform="translate(247.5791,117.4935)"><path
             d="m 0,0 c 0.186,0.099 0.418,0.034 0.517,-0.146 0.098,-0.181 0.027,-0.406 -0.16,-0.507 l -0.675,-0.36 c -0.186,-0.099 -0.417,-0.033 -0.517,0.146 -0.098,0.181 -0.027,0.405 0.161,0.506 L 0,0 Z"
             style="fill:none;stroke:#000000;stroke-width:0.72500002;stroke-linecap:round;stroke-linejoin:round;stroke-miterlimit:4;stroke-dasharray:none;stroke-opacity:1"
             id="path5074"
              /></g><g
           id="g5076"
           transform="translate(246.8952,116.8274)"><path
             d="M 0,0 C 0.187,-0.093 0.262,-0.313 0.165,-0.498 0.07,-0.685 -0.161,-0.76 -0.35,-0.668 l -1.359,0.653 c -0.188,0.089 -0.262,0.314 -0.165,0.499 0.097,0.184 0.325,0.26 0.513,0.171 L 0,0 Z"
             style="fill:#ffffff;fill-opacity:1;fill-rule:nonzero;stroke:none"
             id="path5078"
              /></g><g
           id="g5080"
           transform="translate(246.8952,116.8274)"><path
             d="M 0,0 C 0.187,-0.093 0.262,-0.313 0.165,-0.498 0.07,-0.685 -0.161,-0.76 -0.35,-0.668 l -1.359,0.653 c -0.188,0.089 -0.262,0.314 -0.165,0.499 0.097,0.184 0.325,0.26 0.513,0.171 L 0,0 Z"
             style="fill:none;stroke:#000000;stroke-width:0.72500002;stroke-linecap:round;stroke-linejoin:round;stroke-miterlimit:4;stroke-dasharray:none;stroke-opacity:1"
             id="path5082"
              /></g><g
           id="g5084"
           transform="translate(246.4518,117.5095)"><path
             d="m 0,0 c 0.064,-0.196 -0.209,-0.46 -0.61,-0.592 -0.402,-0.135 -0.78,-0.085 -0.844,0.108 L -2.158,1.63 c -0.064,0.195 0.21,0.461 0.61,0.594 0.403,0.134 0.78,0.084 0.844,-0.11 L 0,0 Z"
             style="fill:#ffffff;fill-opacity:1;fill-rule:nonzero;stroke:none"
             id="path5086"
              /></g><g
           id="g5088"
           transform="translate(246.4518,117.5095)"><path
             d="m 0,0 c 0.064,-0.196 -0.209,-0.46 -0.61,-0.592 -0.402,-0.135 -0.78,-0.085 -0.844,0.108 L -2.158,1.63 c -0.064,0.195 0.21,0.461 0.61,0.594 0.403,0.134 0.78,0.084 0.844,-0.11 L 0,0 Z"
             style="fill:none;stroke:#000000;stroke-width:0.72500002;stroke-linecap:round;stroke-linejoin:round;stroke-miterlimit:4;stroke-dasharray:none;stroke-opacity:1"
             id="path5090"
              /></g><g
           id="g5092"
           transform="translate(247.5192,117.968)"><path
             d="m 0,0 c 0.149,0.081 0.335,0.022 0.416,-0.13 0.082,-0.153 0.028,-0.341 -0.12,-0.423 l -0.538,-0.294 c -0.148,-0.08 -0.335,-0.022 -0.417,0.13 -0.082,0.151 -0.026,0.34 0.122,0.423 L 0,0 Z"
             style="fill:#ffffff;fill-opacity:1;fill-rule:nonzero;stroke:none"
             id="path5094"
              /></g><g
           id="g5096"
           transform="translate(247.5192,117.968)"><path
             d="m 0,0 c 0.149,0.081 0.335,0.022 0.416,-0.13 0.082,-0.153 0.028,-0.341 -0.12,-0.423 l -0.538,-0.294 c -0.148,-0.08 -0.335,-0.022 -0.417,0.13 -0.082,0.151 -0.026,0.34 0.122,0.423 L 0,0 Z"
             style="fill:none;stroke:#000000;stroke-width:0.72500002;stroke-linecap:round;stroke-linejoin:round;stroke-miterlimit:4;stroke-dasharray:none;stroke-opacity:1"
             id="path5098"
              /></g><g
           id="g5100"
           transform="translate(246.9777,117.418)"><path
             d="M 0,0 C 0.153,-0.079 0.215,-0.268 0.141,-0.422 0.065,-0.578 -0.119,-0.637 -0.27,-0.558 L -1.371,0.01 c -0.153,0.078 -0.215,0.267 -0.141,0.419 0.076,0.155 0.26,0.215 0.411,0.137 L 0,0 Z"
             style="fill:#ffffff;fill-opacity:1;fill-rule:nonzero;stroke:none"
             id="path5102"
              /></g><g
           id="g5104"
           transform="translate(246.9777,117.418)"><path
             d="M 0,0 C 0.153,-0.079 0.215,-0.268 0.141,-0.422 0.065,-0.578 -0.119,-0.637 -0.27,-0.558 L -1.371,0.01 c -0.153,0.078 -0.215,0.267 -0.141,0.419 0.076,0.155 0.26,0.215 0.411,0.137 L 0,0 Z"
             style="fill:none;stroke:#000000;stroke-width:0.72500002;stroke-linecap:round;stroke-linejoin:round;stroke-miterlimit:4;stroke-dasharray:none;stroke-opacity:1"
             id="path5106"
              /></g><g
           id="g5108"
           transform="translate(246.6131,117.9963)"><path
             d="m 0,0 c 0.055,-0.164 -0.161,-0.384 -0.482,-0.491 -0.321,-0.106 -0.626,-0.06 -0.68,0.104 l -0.593,1.783 c -0.055,0.165 0.16,0.386 0.483,0.493 0.32,0.105 0.625,0.058 0.679,-0.105 L 0,0 Z"
             style="fill:#ffffff;fill-opacity:1;fill-rule:nonzero;stroke:none"
             id="path5110"
              /></g><g
           id="g5112"
           transform="translate(246.6131,117.9963)"><path
             d="m 0,0 c 0.055,-0.164 -0.161,-0.384 -0.482,-0.491 -0.321,-0.106 -0.626,-0.06 -0.68,0.104 l -0.593,1.783 c -0.055,0.165 0.16,0.386 0.483,0.493 0.32,0.105 0.625,0.058 0.679,-0.105 L 0,0 Z"
             style="fill:none;stroke:#000000;stroke-width:0.72500002;stroke-linecap:round;stroke-linejoin:round;stroke-miterlimit:4;stroke-dasharray:none;stroke-opacity:1"
             id="path5114"
              /></g><g
           id="g5116"
           transform="translate(247.7471,118.466)"><path
             d="m 0,0 c 0.108,-0.328 -0.062,-0.681 -0.384,-0.788 -0.32,-0.107 -0.669,0.075 -0.778,0.403 -0.109,0.328 0.063,0.679 0.383,0.786 C -0.458,0.507 -0.109,0.328 0,0"
             style="fill:#ffffff;fill-opacity:1;fill-rule:nonzero;stroke:none"
             id="path5118"
              /></g><g
           id="g5120"
           transform="translate(247.7471,118.466)"><path
             d="m 0,0 c 0.108,-0.328 -0.062,-0.681 -0.384,-0.788 -0.32,-0.107 -0.669,0.075 -0.778,0.403 -0.109,0.328 0.063,0.679 0.383,0.786 C -0.458,0.507 -0.109,0.328 0,0 Z"
             style="fill:none;stroke:#000000;stroke-width:0.72500002;stroke-linecap:round;stroke-linejoin:round;stroke-miterlimit:4;stroke-dasharray:none;stroke-opacity:1"
             id="path5122"
              /></g><g
           id="g5124"
           transform="translate(248.0748,119.4189)"><path
             d="m 0,0 c 0.146,-0.437 -0.127,-0.924 -0.608,-1.082 -0.481,-0.16 -0.989,0.066 -1.135,0.502 l -0.263,0.793 c -0.145,0.438 0.127,0.923 0.608,1.083 0.48,0.161 0.988,-0.067 1.135,-0.504 L 0,0 Z"
             style="fill:#ffffff;fill-opacity:1;fill-rule:nonzero;stroke:none"
             id="path5126"
              /></g><g
           id="g5128"
           transform="translate(248.0748,119.4189)"><path
             d="m 0,0 c 0.146,-0.437 -0.127,-0.924 -0.608,-1.082 -0.481,-0.16 -0.989,0.066 -1.135,0.502 l -0.263,0.793 c -0.145,0.438 0.127,0.923 0.608,1.083 0.48,0.161 0.988,-0.067 1.135,-0.504 L 0,0 Z"
             style="fill:none;stroke:#000000;stroke-width:0.72500002;stroke-linecap:round;stroke-linejoin:round;stroke-miterlimit:4;stroke-dasharray:none;stroke-opacity:1"
             id="path5130"
              /></g><g
           id="g5132"
           transform="translate(243.8769,118.4633)"><path
             d="M 0,0 0.678,0.224 3.802,2.145 2.599,3.505 -0.114,2.604 0,0 Z"
             style="fill:#ffffff;fill-opacity:1;fill-rule:nonzero;stroke:none"
             id="path5134"
              /></g><g
           id="g5136"
           transform="translate(243.8769,118.4633)"><path
             d="M 0,0 0.678,0.224 3.802,2.145 2.599,3.505 -0.114,2.604 0,0 Z"
             style="fill:none;stroke:#000000;stroke-width:0.72500002;stroke-linecap:round;stroke-linejoin:round;stroke-miterlimit:4;stroke-dasharray:none;stroke-opacity:1"
             id="path5138"
              /></g><g
           id="g5140"
           transform="translate(251.97,140.2558)"><path
             d="m 0,0 -0.301,2.633 c 0,0 -1.087,1.599 -4.503,0.791 -3.416,-0.806 -5.246,-5.115 -5.246,-5.115 l -0.361,-2.112 1.196,-0.313 1.529,0.794 -2.692,-5.027 0.21,-0.382 0.241,-0.021 -0.01,-0.12 -0.372,-0.091 -0.021,-0.239 0.35,-0.153 -0.009,-0.12 -0.243,0.021 -0.392,-0.331 0.157,-7.549 1.867,-2.224 3.535,0.961 0.394,1.057 -0.62,6.417 -0.208,0.384 -0.243,0.02 0.011,0.12 0.372,0.09 0.022,0.242 -0.353,0.151 0.011,0.12 0.241,-0.02 0.273,0.34 2.009,3.094 2.222,-0.054 -0.071,4 -1.57,0 0,1.478 0.927,0.918 L 0,0 Z"
             style="fill:#ffffff;fill-opacity:1;fill-rule:nonzero;stroke:none"
             id="path5142"
              /></g><g
           id="g5144"
           transform="translate(251.97,140.2558)"><path
             d="m 0,0 -0.301,2.633 c 0,0 -1.087,1.599 -4.503,0.791 -3.416,-0.806 -5.246,-5.115 -5.246,-5.115 l -0.361,-2.112 1.196,-0.313 1.529,0.794 -2.692,-5.027 0.21,-0.382 0.241,-0.021 -0.01,-0.12 -0.372,-0.091 -0.021,-0.239 0.35,-0.153 -0.009,-0.12 -0.243,0.021 -0.392,-0.331 0.157,-7.549 1.867,-2.224 3.535,0.961 0.394,1.057 -0.62,6.417 -0.208,0.384 -0.243,0.02 0.011,0.12 0.372,0.09 0.022,0.242 -0.353,0.151 0.011,0.12 0.241,-0.02 0.273,0.34 2.009,3.094 2.222,-0.054 -0.071,4 -1.57,0 0,1.478 0.927,0.918 L 0,0 Z"
             style="fill:none;stroke:#000000;stroke-width:0.72500002;stroke-linecap:round;stroke-linejoin:round;stroke-miterlimit:4;stroke-dasharray:none;stroke-opacity:1"
             id="path5146"
              /></g><g
           id="g5148"
           transform="translate(263.57,92.3747)"><path
             d="m 0,0 -0.233,0.605 -0.794,0.363 -0.294,1.574 0.45,0.122 0.059,1.693 0.555,0.243 0.674,1.573 -0.533,6.778 -0.2,0.243 0.126,3.651 -0.212,0.484 -0.037,0.848 -0.416,1.211 0.81,9.415 -7.345,0 0.81,-9.415 -0.417,-1.211 -0.037,-0.848 -0.211,-0.484 0.126,-3.651 -0.2,-0.243 L -7.853,6.173 -7.177,4.6 -6.624,4.357 -6.564,2.664 -6.115,2.542 -6.408,0.968 -7.203,0.605 -7.435,0 l -0.432,-0.363 -0.182,-0.968 2.488,0 3.687,0 2.487,0 L 0.432,-0.363 0,0 Z"
             style="fill:#ffffff;fill-opacity:1;fill-rule:nonzero;stroke:none"
             id="path5150"
              /></g><g
           id="g5152"
           transform="translate(263.57,92.3747)"><path
             d="m 0,0 -0.233,0.605 -0.794,0.363 -0.294,1.574 0.45,0.122 0.059,1.693 0.555,0.243 0.674,1.573 -0.533,6.778 -0.2,0.243 0.126,3.651 -0.212,0.484 -0.037,0.848 -0.416,1.211 0.81,9.415 -7.345,0 0.81,-9.415 -0.417,-1.211 -0.037,-0.848 -0.211,-0.484 0.126,-3.651 -0.2,-0.243 L -7.853,6.173 -7.177,4.6 -6.624,4.357 -6.564,2.664 -6.115,2.542 -6.408,0.968 -7.203,0.605 -7.435,0 l -0.432,-0.363 -0.182,-0.968 2.488,0 3.687,0 2.487,0 L 0.432,-0.363 0,0 Z"
             style="fill:none;stroke:#000000;stroke-width:0.72500002;stroke-linecap:round;stroke-linejoin:round;stroke-miterlimit:4;stroke-dasharray:none;stroke-opacity:1"
             id="path5154"
              /></g><g
           id="g5156"
           transform="translate(245.1641,113.3361)"><path
             d="m 0,0 -0.975,0 -0.161,-2.423 0.34,-4.861 -0.341,-0.291 -1.838,-6.123 0.108,-0.848 0.913,-0.969 -0.292,-2.782 1.035,-0.485 -0.373,-0.847 -2.17,-0.969 -0.161,-0.605 -0.452,-0.241 0.113,-0.848 0.241,0 10.048,0 -0.13,0.968 -0.411,0.363 -0.202,0.604 -0.775,0.364 -0.211,1.573 0.455,0.123 0.15,1.692 1.421,0.244 0.757,1.572 -1.025,6.779 -0.188,0.242 0.319,3.652 -0.186,0.484 0.008,0.848 0.435,0.361 0.541,0.487 0.104,0.12 -0.153,0.242 8.314,7.485 L 8.252,7.842 0,0 Z"
             style="fill:#ffffff;fill-opacity:1;fill-rule:nonzero;stroke:none"
             id="path5158"
              /></g><g
           id="g5160"
           transform="translate(245.1641,113.3361)"><path
             d="m 0,0 -0.975,0 -0.161,-2.423 0.34,-4.861 -0.341,-0.291 -1.838,-6.123 0.108,-0.848 0.913,-0.969 -0.292,-2.782 1.035,-0.485 -0.373,-0.847 -2.17,-0.969 -0.161,-0.605 -0.452,-0.241 0.113,-0.848 0.241,0 10.048,0 -0.13,0.968 -0.411,0.363 -0.202,0.604 -0.775,0.364 -0.211,1.573 0.455,0.123 0.15,1.692 1.421,0.244 0.757,1.572 -1.025,6.779 -0.188,0.242 0.319,3.652 -0.186,0.484 0.008,0.848 0.435,0.361 0.541,0.487 0.104,0.12 -0.153,0.242 8.314,7.485 L 8.252,7.842 0,0 Z"
             style="fill:none;stroke:#000000;stroke-width:0.72500002;stroke-linecap:round;stroke-linejoin:round;stroke-miterlimit:4;stroke-dasharray:none;stroke-opacity:1"
             id="path5162"
              /></g><g
           id="g5164"
           transform="translate(274.5413,113.3361)"><path
             d="m 0,0 0.974,0 0.161,-2.423 -0.341,-4.861 0.342,-0.291 1.838,-6.123 -0.107,-0.848 -0.914,-0.969 0.292,-2.782 -1.033,-0.485 0.372,-0.847 2.17,-0.969 0.161,-0.605 0.452,-0.241 -0.114,-0.848 -0.241,0 -10.048,0 0.13,0.968 0.412,0.363 0.201,0.604 0.775,0.364 0.211,1.573 -0.456,0.123 -0.149,1.692 -1.42,0.244 -0.757,1.572 1.025,6.779 0.187,0.242 -0.319,3.652 0.187,0.484 -0.009,0.848 -0.435,0.361 -0.541,0.487 -0.105,0.12 0.153,0.242 -8.313,7.485 7.005,1.931 L 0,0 Z"
             style="fill:#ffffff;fill-opacity:1;fill-rule:nonzero;stroke:none"
             id="path5166"
              /></g><g
           id="g5168"
           transform="translate(274.5413,113.3361)"><path
             d="m 0,0 0.974,0 0.161,-2.423 -0.341,-4.861 0.342,-0.291 1.838,-6.123 -0.107,-0.848 -0.914,-0.969 0.292,-2.782 -1.033,-0.485 0.372,-0.847 2.17,-0.969 0.161,-0.605 0.452,-0.241 -0.114,-0.848 -0.241,0 -10.048,0 0.13,0.968 0.412,0.363 0.201,0.604 0.775,0.364 0.211,1.573 -0.456,0.123 -0.149,1.692 -1.42,0.244 -0.757,1.572 1.025,6.779 0.187,0.242 -0.319,3.652 0.187,0.484 -0.009,0.848 -0.435,0.361 -0.541,0.487 -0.105,0.12 0.153,0.242 -8.313,7.485 7.005,1.931 L 0,0 Z"
             style="fill:none;stroke:#000000;stroke-width:0.72500002;stroke-linecap:round;stroke-linejoin:round;stroke-miterlimit:4;stroke-dasharray:none;stroke-opacity:1"
             id="path5170"
              /></g><g
           id="g5172"
           transform="translate(256.0481,142.2944)"><path
             d="M 0,0 -1.33,-2.132 -6.611,-3.56 -6.664,-9.768 c 0,0 -0.123,-2.297 0.567,-3.034 0.689,-0.737 2.28,-1.154 2.28,-1.154 l 0.485,-4.461 -1.553,-1.118 -0.803,-3.271 0.242,-0.241 6.904,-3.413 -0.851,7.648 L 0,-12.517 0,0 Z"
             style="fill:#ffffff;fill-opacity:1;fill-rule:nonzero;stroke:none"
             id="path5174"
              /></g><g
           id="g5176"
           transform="translate(256.0481,142.2944)"><path
             d="M 0,0 -1.33,-2.132 -6.611,-3.56 -6.664,-9.768 c 0,0 -0.123,-2.297 0.567,-3.034 0.689,-0.737 2.28,-1.154 2.28,-1.154 l 0.485,-4.461 -1.553,-1.118 -0.803,-3.271 0.242,-0.241 6.904,-3.413 -0.851,7.648 L 0,-12.517 0,0 Z"
             style="fill:none;stroke:#000000;stroke-width:0.72500002;stroke-linecap:round;stroke-linejoin:round;stroke-miterlimit:4;stroke-dasharray:none;stroke-opacity:1"
             id="path5178"
              /></g><g
           id="g5180"
           transform="translate(273.2451,118.8396)"><path
             d="m 0,0 -0.252,-0.759 c 0.044,0.136 0.04,0.274 0,0.401 C -0.138,-0.267 -0.048,-0.145 0,0 Z"
             style="fill:none;stroke:#000000;stroke-width:0.72500002;stroke-linecap:round;stroke-linejoin:round;stroke-miterlimit:4;stroke-dasharray:none;stroke-opacity:1"
             id="path5182"
              /></g><g
           id="g5184"
           transform="translate(273.1158,117.6812)"><path
             d="m 0,0 -0.374,-0.191 c -0.023,0.076 -0.072,0.144 -0.147,0.184 l -0.006,0.003 c 0.182,0.06 0.338,0.204 0.403,0.403 L -0.152,0.315 C -0.184,0.217 -0.122,0.103 0,0 Z"
             style="fill:none;stroke:#000000;stroke-width:0.72500002;stroke-linecap:round;stroke-linejoin:round;stroke-miterlimit:4;stroke-dasharray:none;stroke-opacity:1"
             id="path5186"
              /></g><g
           id="g5188"
           transform="translate(271.9928,120.55)"><path
             d="m 0,0 c -0.102,-0.089 -0.182,-0.204 -0.226,-0.339 l -0.265,-0.792 c -0.114,-0.346 0.031,-0.719 0.333,-0.942 -0.001,-0.003 -0.003,-0.006 -0.004,-0.011 -0.054,-0.16 -0.039,-0.328 0.027,-0.47 -0.089,-0.017 -0.169,-0.072 -0.217,-0.159 -0.057,-0.109 -0.046,-0.237 0.019,-0.33 -0.073,-0.033 -0.137,-0.085 -0.178,-0.159 -0.099,-0.181 -0.028,-0.406 0.159,-0.507 L 0.324,-4.07 C 0.377,-4.098 0.434,-4.111 0.49,-4.113 0.496,-4.15 0.506,-4.187 0.525,-4.22 0.621,-4.407 0.851,-4.483 1.039,-4.391 l 1.36,0.654 c 0.095,0.046 0.159,0.124 0.19,0.214 L 3.129,-1.895 3.707,-2.087 3.821,0.518 1.11,1.418 -0.095,0.059 0,0 Z"
             style="fill:#ffffff;fill-opacity:1;fill-rule:nonzero;stroke:none"
             id="path5190"
              /></g><g
           id="g5192"
           transform="translate(271.9928,120.55)"><path
             d="m 0,0 c -0.102,-0.089 -0.182,-0.204 -0.226,-0.339 l -0.265,-0.792 c -0.114,-0.346 0.031,-0.719 0.333,-0.942 -0.001,-0.003 -0.003,-0.006 -0.004,-0.011 -0.054,-0.16 -0.039,-0.328 0.027,-0.47 -0.089,-0.017 -0.169,-0.072 -0.217,-0.159 -0.057,-0.109 -0.046,-0.237 0.019,-0.33 -0.073,-0.033 -0.137,-0.085 -0.178,-0.159 -0.099,-0.181 -0.028,-0.406 0.159,-0.507 L 0.324,-4.07 C 0.377,-4.098 0.434,-4.111 0.49,-4.113 0.496,-4.15 0.506,-4.187 0.525,-4.22 0.621,-4.407 0.851,-4.483 1.039,-4.391 l 1.36,0.654 c 0.095,0.046 0.159,0.124 0.19,0.214 L 3.129,-1.895 3.707,-2.087 3.821,0.518 1.11,1.418 -0.095,0.059 0,0 Z"
             style="fill:none;stroke:#000000;stroke-width:0.72500002;stroke-linecap:round;stroke-linejoin:round;stroke-miterlimit:4;stroke-dasharray:none;stroke-opacity:1"
             id="path5194"
              /></g><g
           id="g5196"
           transform="translate(271.998,117.4935)"><path
             d="m 0,0 c -0.186,0.099 -0.418,0.034 -0.516,-0.146 -0.098,-0.181 -0.028,-0.406 0.16,-0.507 l 0.675,-0.36 c 0.185,-0.099 0.416,-0.033 0.516,0.146 0.098,0.181 0.027,0.405 -0.16,0.506 L 0,0 Z"
             style="fill:#ffffff;fill-opacity:1;fill-rule:nonzero;stroke:none"
             id="path5198"
              /></g><g
           id="g5200"
           transform="translate(271.998,117.4935)"><path
             d="m 0,0 c -0.186,0.099 -0.418,0.034 -0.516,-0.146 -0.098,-0.181 -0.028,-0.406 0.16,-0.507 l 0.675,-0.36 c 0.185,-0.099 0.416,-0.033 0.516,0.146 0.098,0.181 0.027,0.405 -0.16,0.506 L 0,0 Z"
             style="fill:none;stroke:#000000;stroke-width:0.72500002;stroke-linecap:round;stroke-linejoin:round;stroke-miterlimit:4;stroke-dasharray:none;stroke-opacity:1"
             id="path5202"
              /></g><g
           id="g5204"
           transform="translate(272.6819,116.8274)"><path
             d="m 0,0 c -0.186,-0.093 -0.261,-0.313 -0.164,-0.498 0.095,-0.187 0.325,-0.262 0.515,-0.17 L 1.71,-0.015 C 1.897,0.074 1.972,0.299 1.875,0.484 1.779,0.668 1.548,0.744 1.361,0.655 L 0,0 Z"
             style="fill:#ffffff;fill-opacity:1;fill-rule:nonzero;stroke:none"
             id="path5206"
              /></g><g
           id="g5208"
           transform="translate(272.6819,116.8274)"><path
             d="m 0,0 c -0.186,-0.093 -0.261,-0.313 -0.164,-0.498 0.095,-0.187 0.325,-0.262 0.515,-0.17 L 1.71,-0.015 C 1.897,0.074 1.972,0.299 1.875,0.484 1.779,0.668 1.548,0.744 1.361,0.655 L 0,0 Z"
             style="fill:none;stroke:#000000;stroke-width:0.72500002;stroke-linecap:round;stroke-linejoin:round;stroke-miterlimit:4;stroke-dasharray:none;stroke-opacity:1"
             id="path5210"
              /></g><g
           id="g5212"
           transform="translate(273.1262,117.5095)"><path
             d="m 0,0 c -0.065,-0.196 0.209,-0.46 0.61,-0.592 0.4,-0.135 0.779,-0.085 0.844,0.108 L 2.157,1.63 C 2.222,1.825 1.948,2.091 1.547,2.224 1.145,2.358 0.767,2.308 0.702,2.114 L 0,0 Z"
             style="fill:#ffffff;fill-opacity:1;fill-rule:nonzero;stroke:none"
             id="path5214"
              /></g><g
           id="g5216"
           transform="translate(273.1262,117.5095)"><path
             d="m 0,0 c -0.065,-0.196 0.209,-0.46 0.61,-0.592 0.4,-0.135 0.779,-0.085 0.844,0.108 L 2.157,1.63 C 2.222,1.825 1.948,2.091 1.547,2.224 1.145,2.358 0.767,2.308 0.702,2.114 L 0,0 Z"
             style="fill:none;stroke:#000000;stroke-width:0.72500002;stroke-linecap:round;stroke-linejoin:round;stroke-miterlimit:4;stroke-dasharray:none;stroke-opacity:1"
             id="path5218"
              /></g><g
           id="g5220"
           transform="translate(272.0579,117.968)"><path
             d="m 0,0 c -0.149,0.081 -0.335,0.022 -0.416,-0.13 -0.082,-0.153 -0.027,-0.341 0.12,-0.423 l 0.538,-0.294 c 0.149,-0.08 0.336,-0.022 0.418,0.13 0.081,0.151 0.027,0.34 -0.122,0.423 L 0,0 Z"
             style="fill:#ffffff;fill-opacity:1;fill-rule:nonzero;stroke:none"
             id="path5222"
              /></g><g
           id="g5224"
           transform="translate(272.0579,117.968)"><path
             d="m 0,0 c -0.149,0.081 -0.335,0.022 -0.416,-0.13 -0.082,-0.153 -0.027,-0.341 0.12,-0.423 l 0.538,-0.294 c 0.149,-0.08 0.336,-0.022 0.418,0.13 0.081,0.151 0.027,0.34 -0.122,0.423 L 0,0 Z"
             style="fill:none;stroke:#000000;stroke-width:0.72500002;stroke-linecap:round;stroke-linejoin:round;stroke-miterlimit:4;stroke-dasharray:none;stroke-opacity:1"
             id="path5226"
              /></g><g
           id="g5228"
           transform="translate(272.5989,117.418)"><path
             d="M 0,0 C -0.153,-0.079 -0.214,-0.268 -0.139,-0.422 -0.064,-0.578 0.12,-0.637 0.27,-0.558 L 1.373,0.01 C 1.524,0.088 1.587,0.277 1.511,0.429 1.437,0.584 1.253,0.644 1.102,0.566 L 0,0 Z"
             style="fill:#ffffff;fill-opacity:1;fill-rule:nonzero;stroke:none"
             id="path5230"
              /></g><g
           id="g5232"
           transform="translate(272.5989,117.418)"><path
             d="M 0,0 C -0.153,-0.079 -0.214,-0.268 -0.139,-0.422 -0.064,-0.578 0.12,-0.637 0.27,-0.558 L 1.373,0.01 C 1.524,0.088 1.587,0.277 1.511,0.429 1.437,0.584 1.253,0.644 1.102,0.566 L 0,0 Z"
             style="fill:none;stroke:#000000;stroke-width:0.72500002;stroke-linecap:round;stroke-linejoin:round;stroke-miterlimit:4;stroke-dasharray:none;stroke-opacity:1"
             id="path5234"
              /></g><g
           id="g5236"
           transform="translate(272.9645,117.9963)"><path
             d="m 0,0 c -0.055,-0.164 0.161,-0.384 0.482,-0.491 0.322,-0.106 0.625,-0.06 0.679,0.104 L 1.755,1.396 C 1.808,1.561 1.593,1.782 1.273,1.889 0.952,1.994 0.647,1.947 0.593,1.784 L 0,0 Z"
             style="fill:#ffffff;fill-opacity:1;fill-rule:nonzero;stroke:none"
             id="path5238"
              /></g><g
           id="g5240"
           transform="translate(272.9645,117.9963)"><path
             d="m 0,0 c -0.055,-0.164 0.161,-0.384 0.482,-0.491 0.322,-0.106 0.625,-0.06 0.679,0.104 L 1.755,1.396 C 1.808,1.561 1.593,1.782 1.273,1.889 0.952,1.994 0.647,1.947 0.593,1.784 L 0,0 Z"
             style="fill:none;stroke:#000000;stroke-width:0.72500002;stroke-linecap:round;stroke-linejoin:round;stroke-miterlimit:4;stroke-dasharray:none;stroke-opacity:1"
             id="path5242"
              /></g><g
           id="g5244"
           transform="translate(271.8305,118.466)"><path
             d="m 0,0 c -0.108,-0.328 0.063,-0.681 0.383,-0.788 0.321,-0.107 0.67,0.075 0.779,0.403 C 1.27,-0.057 1.099,0.294 0.779,0.401 0.459,0.507 0.109,0.328 0,0"
             style="fill:#ffffff;fill-opacity:1;fill-rule:nonzero;stroke:none"
             id="path5246"
              /></g><g
           id="g5248"
           transform="translate(271.8305,118.466)"><path
             d="m 0,0 c -0.108,-0.328 0.063,-0.681 0.383,-0.788 0.321,-0.107 0.67,0.075 0.779,0.403 C 1.27,-0.057 1.099,0.294 0.779,0.401 0.459,0.507 0.109,0.328 0,0 Z"
             style="fill:none;stroke:#000000;stroke-width:0.72500002;stroke-linecap:round;stroke-linejoin:round;stroke-miterlimit:4;stroke-dasharray:none;stroke-opacity:1"
             id="path5250"
              /></g><g
           id="g5252"
           transform="translate(271.5018,119.4189)"><path
             d="m 0,0 c -0.145,-0.437 0.127,-0.924 0.61,-1.082 0.481,-0.16 0.987,0.066 1.134,0.502 L 2.006,0.213 C 2.153,0.651 1.88,1.136 1.399,1.296 0.918,1.457 0.411,1.229 0.265,0.792 L 0,0 Z"
             style="fill:#ffffff;fill-opacity:1;fill-rule:nonzero;stroke:none"
             id="path5254"
              /></g><g
           id="g5256"
           transform="translate(271.5018,119.4189)"><path
             d="m 0,0 c -0.145,-0.437 0.127,-0.924 0.61,-1.082 0.481,-0.16 0.987,0.066 1.134,0.502 L 2.006,0.213 C 2.153,0.651 1.88,1.136 1.399,1.296 0.918,1.457 0.411,1.229 0.265,0.792 L 0,0 Z"
             style="fill:none;stroke:#000000;stroke-width:0.72500002;stroke-linecap:round;stroke-linejoin:round;stroke-miterlimit:4;stroke-dasharray:none;stroke-opacity:1"
             id="path5258"
              /></g><g
           id="g5260"
           transform="translate(275.7002,118.4633)"><path
             d="M 0,0 -0.677,0.224 -3.802,2.145 -2.598,3.505 0.114,2.604 0,0 Z"
             style="fill:#ffffff;fill-opacity:1;fill-rule:nonzero;stroke:none"
             id="path5262"
              /></g><g
           id="g5264"
           transform="translate(275.7002,118.4633)"><path
             d="M 0,0 -0.677,0.224 -3.802,2.145 -2.598,3.505 0.114,2.604 0,0 Z"
             style="fill:none;stroke:#000000;stroke-width:0.72500002;stroke-linecap:round;stroke-linejoin:round;stroke-miterlimit:4;stroke-dasharray:none;stroke-opacity:1"
             id="path5266"
              /></g><g
           id="g5268"
           transform="translate(267.608,140.2558)"><path
             d="m 0,0 0.301,2.633 c 0,0 1.087,1.599 4.503,0.791 3.415,-0.806 5.245,-5.115 5.245,-5.115 l 0.361,-2.112 -1.195,-0.313 -1.53,0.794 2.692,-5.027 -0.21,-0.382 -0.241,-0.021 0.011,-0.12 0.373,-0.091 0.02,-0.239 -0.351,-0.153 0.01,-0.12 0.241,0.021 0.395,-0.331 -0.158,-7.549 -1.867,-2.224 -3.536,0.961 -0.393,1.057 0.62,6.417 0.209,0.384 0.242,0.02 -0.012,0.12 -0.372,0.09 -0.021,0.242 0.351,0.151 -0.01,0.12 -0.241,-0.02 -0.274,0.34 -2.009,3.094 -2.22,-0.054 0.071,4 1.569,0 0,1.478 L 1.647,-0.24 0,0 Z"
             style="fill:#ffffff;fill-opacity:1;fill-rule:nonzero;stroke:none"
             id="path5270"
              /></g><g
           id="g5272"
           transform="translate(267.608,140.2558)"><path
             d="m 0,0 0.301,2.633 c 0,0 1.087,1.599 4.503,0.791 3.415,-0.806 5.245,-5.115 5.245,-5.115 l 0.361,-2.112 -1.195,-0.313 -1.53,0.794 2.692,-5.027 -0.21,-0.382 -0.241,-0.021 0.011,-0.12 0.373,-0.091 0.02,-0.239 -0.351,-0.153 0.01,-0.12 0.241,0.021 0.395,-0.331 -0.158,-7.549 -1.867,-2.224 -3.536,0.961 -0.393,1.057 0.62,6.417 0.209,0.384 0.242,0.02 -0.012,0.12 -0.372,0.09 -0.021,0.242 0.351,0.151 -0.01,0.12 -0.241,-0.02 -0.274,0.34 -2.009,3.094 -2.22,-0.054 0.071,4 1.569,0 0,1.478 L 1.647,-0.24 0,0 Z"
             style="fill:none;stroke:#000000;stroke-width:0.72500002;stroke-linecap:round;stroke-linejoin:round;stroke-miterlimit:4;stroke-dasharray:none;stroke-opacity:1"
             id="path5274"
              /></g><g
           id="g5276"
           transform="translate(263.5295,142.2944)"><path
             d="M 0,0 1.33,-2.132 6.611,-3.56 6.665,-9.768 c 0,0 0.122,-2.297 -0.569,-3.034 -0.688,-0.737 -2.279,-1.154 -2.279,-1.154 l -0.486,-4.461 1.554,-1.118 0.803,-3.271 -0.242,-0.241 -6.905,-3.413 0.852,7.648 L 0,-12.517 0,0 Z"
             style="fill:#ffffff;fill-opacity:1;fill-rule:nonzero;stroke:none"
             id="path5278"
              /></g><g
           id="g5280"
           transform="translate(263.5295,142.2944)"><path
             d="M 0,0 1.33,-2.132 6.611,-3.56 6.665,-9.768 c 0,0 0.122,-2.297 -0.569,-3.034 -0.688,-0.737 -2.279,-1.154 -2.279,-1.154 l -0.486,-4.461 1.554,-1.118 0.803,-3.271 -0.242,-0.241 -6.905,-3.413 0.852,7.648 L 0,-12.517 0,0 Z"
             style="fill:none;stroke:#000000;stroke-width:0.72500002;stroke-linecap:round;stroke-linejoin:round;stroke-miterlimit:4;stroke-dasharray:none;stroke-opacity:1"
             id="path5282"
              /></g><g
           id="g5284"
           transform="translate(255.9764,142.151)"><path
             d="m 0,0 -0.213,-9.888 0.604,-7.4 -0.426,-4.836 0.15,-3.843 0.485,-0.57 6.426,0 0.484,0.57 0.149,3.843 -0.426,4.836 0.605,7.4 L 7.625,0 0,0 Z"
             style="fill:#ffffff;fill-opacity:1;fill-rule:nonzero;stroke:none"
             id="path5286"
              /></g><g
           id="g5288"
           transform="translate(255.9764,142.151)"><path
             d="m 0,0 -0.213,-9.888 0.604,-7.4 -0.426,-4.836 0.15,-3.843 0.485,-0.57 6.426,0 0.484,0.57 0.149,3.843 -0.426,4.836 0.605,7.4 L 7.625,0 0,0 Z"
             style="fill:none;stroke:#000000;stroke-width:0.72500002;stroke-linecap:round;stroke-linejoin:round;stroke-miterlimit:4;stroke-dasharray:none;stroke-opacity:1"
             id="path5290"
              /></g><g
           id="g5292"
           transform="translate(254.8911,139.2766)"><path
             d="m 0,0 c -0.004,-0.064 0.037,-0.221 0.076,-0.312 0.064,-0.135 0.247,-0.365 0.665,-0.4 0.022,-0.004 0.16,-0.01 0.181,-0.006 C 1.277,-1.214 1.835,-1.663 2.483,-2 2.672,-2.175 2.876,-2.331 3.092,-2.46 l 0.102,-0.657 0.404,-0.278 2.317,0 0.405,0.278 0.099,0.657 c 0.15,0.088 0.293,0.189 0.43,0.302 0.785,0.347 1.475,0.863 1.889,1.44 0.021,-0.004 0.159,0.002 0.182,0.006 0.418,0.035 0.601,0.265 0.664,0.4 0.039,0.091 0.08,0.248 0.077,0.312 0.426,0.235 0.765,0.505 0.994,0.796 l -1.051,1.78 c 0,0 -2.552,2.049 -4.848,2.049 -2.295,0 -4.699,-2.049 -4.699,-2.049 L -0.994,0.796 C -0.767,0.505 -0.427,0.235 0,0"
             style="fill:#ffffff;fill-opacity:1;fill-rule:nonzero;stroke:none"
             id="path5294"
              /></g><g
           id="g5296"
           transform="translate(254.8911,139.2766)"><path
             d="m 0,0 c -0.004,-0.064 0.037,-0.221 0.076,-0.312 0.064,-0.135 0.247,-0.365 0.665,-0.4 0.022,-0.004 0.16,-0.01 0.181,-0.006 C 1.277,-1.214 1.835,-1.663 2.483,-2 2.672,-2.175 2.876,-2.331 3.092,-2.46 l 0.102,-0.657 0.404,-0.278 2.317,0 0.405,0.278 0.099,0.657 c 0.15,0.088 0.293,0.189 0.43,0.302 0.785,0.347 1.475,0.863 1.889,1.44 0.021,-0.004 0.159,0.002 0.182,0.006 0.418,0.035 0.601,0.265 0.664,0.4 0.039,0.091 0.08,0.248 0.077,0.312 0.426,0.235 0.765,0.505 0.994,0.796 l -1.051,1.78 c 0,0 -2.552,2.049 -4.848,2.049 -2.295,0 -4.699,-2.049 -4.699,-2.049 L -0.994,0.796 C -0.767,0.505 -0.427,0.235 0,0 Z"
             style="fill:none;stroke:#000000;stroke-width:0.72500002;stroke-linecap:round;stroke-linejoin:round;stroke-miterlimit:4;stroke-dasharray:none;stroke-opacity:1"
             id="path5298"
              /></g><g
           id="g5300"
           transform="translate(259.6418,139.6529)"><path
             d="m 0,0 c -0.631,0 -1.231,-0.128 -1.772,-0.357 0.122,-0.357 0.273,-0.673 0.448,-0.941 0.225,0.066 0.462,0.118 0.709,0.152 0.076,0.008 0.153,0.366 0.231,0.375 0.147,0.011 0.742,0.011 0.885,0 0.078,-0.009 0.156,-0.365 0.23,-0.375 0.213,-0.03 0.416,-0.072 0.615,-0.124 0.165,0.261 0.31,0.568 0.428,0.913 C 1.233,-0.128 0.631,0 0,0"
             style="fill:#c7c8ca;fill-opacity:1;fill-rule:nonzero;stroke:none"
             id="path5302"
              /></g><g
           id="g5304"
           transform="translate(257.5547,140.8313)"><path
             d="m 0,0 c 0.038,-0.426 0.109,-0.829 0.212,-1.199 0.574,0.24 1.208,0.373 1.875,0.373 0.668,0 1.303,-0.133 1.877,-0.373 C 4.067,-0.829 4.138,-0.426 4.176,0 3.557,0.322 2.844,0.506 2.087,0.506 1.33,0.506 0.618,0.322 0,0"
             style="fill:#c7c8ca;fill-opacity:1;fill-rule:nonzero;stroke:none"
             id="path5306"
              /></g><g
           id="g5308"
           transform="translate(257.5306,141.2114)"><path
             d="M 0,0 C 0.634,0.305 1.351,0.476 2.111,0.476 2.872,0.476 3.589,0.305 4.225,0 4.227,0.1 4.23,0.2 4.23,0.303 4.23,0.643 4.209,0.976 4.166,1.293 3.974,1.381 3.771,1.46 3.557,1.52 3.428,1.558 3.296,1.593 3.16,1.615 3.071,1.635 2.978,1.651 2.884,1.662 2.844,1.667 2.805,2.202 2.765,2.204 2.635,2.219 2.503,2.23 2.371,2.234 2.308,2.237 2.031,2.237 1.97,2.234 1.835,2.23 1.704,2.219 1.574,2.204 1.533,2.202 1.495,1.667 1.455,1.662 1.361,1.65 1.267,1.634 1.178,1.615 1.043,1.589 0.91,1.556 0.781,1.52 0.662,1.488 0.546,1.448 0.433,1.406 0.299,1.355 0.173,1.298 0.05,1.236 0.013,0.937 -0.008,0.623 -0.008,0.303 -0.008,0.2 -0.004,0.1 0,0"
             style="fill:#c7c8ca;fill-opacity:1;fill-rule:nonzero;stroke:none"
             id="path5310"
              /></g><g
           id="g5312"
           transform="translate(262.0658,140.6369)"><path
             d="m 0,0 c -0.044,-0.408 -0.12,-0.795 -0.222,-1.151 0.218,-0.113 0.425,-0.239 0.622,-0.38 0.011,0.02 0.021,0.039 0.031,0.06 0.136,0.278 0.252,0.555 0.351,0.834 C 0.551,-0.397 0.286,-0.183 0,0"
             style="fill:#c7c8ca;fill-opacity:1;fill-rule:nonzero;stroke:none"
             id="path5314"
              /></g><g
           id="g5316"
           transform="translate(256.9028,139.1653)"><path
             d="M 0,0 C 0,-0.001 0.001,-0.002 0.001,-0.004 0.173,0.114 0.35,0.225 0.538,0.32 0.437,0.676 0.361,1.065 0.317,1.471 0.063,1.312 -0.169,1.123 -0.38,0.919 -0.276,0.613 -0.15,0.305 0,0"
             style="fill:#c7c8ca;fill-opacity:1;fill-rule:nonzero;stroke:none"
             id="path5318"
              /></g><g
           id="g5320"
           transform="translate(258.8452,137.5936)"><path
             d="m 0,0 1.699,0 0.176,-0.792 -2.049,0 L 0,0 Z"
             style="fill:#c7c8ca;fill-opacity:1;fill-rule:nonzero;stroke:none"
             id="path5322"
              /></g><g
           id="g5324"
           transform="translate(255.541,118.4209)"><path
             d="m 0,0 -1.002,2.654 -2.663,-0.981 1.222,-0.557 -0.832,-1.82 1.222,-0.56 0.831,1.82 L 0,0 Z"
             style="fill:#000000;fill-opacity:1;fill-rule:nonzero;stroke:none"
             id="path5326"
              /></g><g
           id="g5328"
           transform="translate(255.541,118.4209)"><path
             d="m 0,0 -1.002,2.654 -2.663,-0.981 1.222,-0.557 -0.832,-1.82 1.222,-0.56 0.831,1.82 L 0,0 Z"
             style="fill:none;stroke:#000000;stroke-width:0.242;stroke-linecap:butt;stroke-linejoin:bevel;stroke-miterlimit:4;stroke-dasharray:none;stroke-opacity:1"
             id="path5330"
              /></g><g
           id="g5332"
           transform="translate(267.502,120.1443)"><path
             d="m 0,0 -2.689,0.907 -0.927,-2.683 1.205,0.592 0.882,-1.795 1.205,0.592 L -1.207,-0.59 0,0 Z"
             style="fill:#000000;fill-opacity:1;fill-rule:nonzero;stroke:none"
             id="path5334"
              /></g><g
           id="g5336"
           transform="translate(267.502,120.1443)"><path
             d="m 0,0 -2.689,0.907 -0.927,-2.683 1.205,0.592 0.882,-1.795 1.205,0.592 L -1.207,-0.59 0,0 Z"
             style="fill:none;stroke:#000000;stroke-width:0.242;stroke-linecap:butt;stroke-linejoin:bevel;stroke-miterlimit:4;stroke-dasharray:none;stroke-opacity:1"
             id="path5338"
              /></g><g
           id="g5340"
           transform="translate(261.5682,116.8199)"><path
             d="m 0,0 -2.014,2 -2.014,-2 1.342,0 0,-2.001 1.342,0 0,2.001 L 0,0 Z"
             style="fill:#000000;fill-opacity:1;fill-rule:nonzero;stroke:none"
             id="path5342"
              /></g><g
           id="g5344"
           transform="translate(261.5682,116.8199)"><path
             d="m 0,0 -2.014,2 -2.014,-2 1.342,0 0,-2.001 1.342,0 0,2.001 L 0,0 Z"
             style="fill:none;stroke:#000000;stroke-width:0.242;stroke-linecap:butt;stroke-linejoin:bevel;stroke-miterlimit:4;stroke-dasharray:none;stroke-opacity:1"
             id="path5346"
              /></g><g
           id="g5348"
           transform="translate(262.8479,132.7175)"><path
             d="M 0,0 -2.015,-2 0,-4.002 l 0,1.334 2.014,0 0,1.335 L 0,-1.333 0,0 Z"
             style="fill:#000000;fill-opacity:1;fill-rule:nonzero;stroke:none"
             id="path5350"
              /></g><g
           id="g5352"
           transform="translate(262.8479,132.7175)"><path
             d="M 0,0 -2.015,-2 0,-4.002 l 0,1.334 2.014,0 0,1.335 L 0,-1.333 0,0 Z"
             style="fill:none;stroke:#000000;stroke-width:0.242;stroke-linecap:butt;stroke-linejoin:bevel;stroke-miterlimit:4;stroke-dasharray:none;stroke-opacity:1"
             id="path5354"
              /></g><g
           id="g5356"
           transform="translate(256.9816,132.7175)"><path
             d="M 0,0 2.015,-2 0,-4.002 l 0,1.334 -2.014,0 0,1.335 2.014,0 L 0,0 Z"
             style="fill:#000000;fill-opacity:1;fill-rule:nonzero;stroke:none"
             id="path5358"
              /></g><g
           id="g5360"
           transform="translate(256.9816,132.7175)"><path
             d="M 0,0 2.015,-2 0,-4.002 l 0,1.334 -2.014,0 0,1.335 2.014,0 L 0,0 Z"
             style="fill:none;stroke:#000000;stroke-width:0.242;stroke-linecap:butt;stroke-linejoin:bevel;stroke-miterlimit:4;stroke-dasharray:none;stroke-opacity:1"
             id="path5362"
              /></g><g
           id="g5364"
           transform="translate(250.6139,138.4002)"><path
             d="M 0,0 2.014,-2 0,-4.002 l 0,1.336 -2.014,0 0,1.332 2.014,0 L 0,0 Z"
             style="fill:#000000;fill-opacity:1;fill-rule:nonzero;stroke:none"
             id="path5366"
              /></g><g
           id="g5368"
           transform="translate(250.6139,138.4002)"><path
             d="M 0,0 2.014,-2 0,-4.002 l 0,1.336 -2.014,0 0,1.332 2.014,0 L 0,0 Z"
             style="fill:none;stroke:#000000;stroke-width:0.242;stroke-linecap:butt;stroke-linejoin:bevel;stroke-miterlimit:4;stroke-dasharray:none;stroke-opacity:1"
             id="path5370"
              /></g><g
           id="g5372"
           transform="translate(268.7891,138.4002)"><path
             d="M 0,0 -2.015,-2 0,-4.002 l 0,1.336 2.014,0 0,1.332 L 0,-1.334 0,0 Z"
             style="fill:#000000;fill-opacity:1;fill-rule:nonzero;stroke:none"
             id="path5374"
              /></g><g
           id="g5376"
           transform="translate(268.7891,138.4002)"><path
             d="M 0,0 -2.015,-2 0,-4.002 l 0,1.336 2.014,0 0,1.332 L 0,-1.334 0,0 Z"
             style="fill:none;stroke:#000000;stroke-width:0.242;stroke-linecap:butt;stroke-linejoin:bevel;stroke-miterlimit:4;stroke-dasharray:none;stroke-opacity:1"
             id="path5378"
              /></g></g></svg>
