<?xml version="1.0" encoding="utf-8"?>
<!DOCTYPE svg PUBLIC "-//W3C//DTD SVG 1.0//EN" "http://www.w3.org/TR/2001/REC-SVG-20010904/DTD/svg10.dtd">
<svg version="1.0" xmlns="http://www.w3.org/2000/svg" xmlns:xlink="http://www.w3.org/1999/xlink" x="0" y="0" width="142" height="167"
     xml:space="preserve">
<g id="aero_vector_diagram" transform="matrix(1,0,0,-1,-436.0852,537.3389)"><g
       id="g23289"
       transform="translate(448.2939,493.229)"><path
         d="M 0,0 -10.02,17.352 0,34.704 l 20.035,0 L 30.053,17.352 20.035,0 0,0 Z"
         style="fill:none;stroke:#231f20;stroke-width:2;stroke-linecap:butt;stroke-linejoin:bevel;stroke-miterlimit:4;stroke-dasharray:none;stroke-opacity:1"
         id="path23291"
          /></g><text
       transform="matrix(1,0,0,-1,456.3965,520.9727)"
       style="font-variant:normal;font-weight:600;font-stretch:normal;font-size:5.4000001px;font-family:Eurostile;writing-mode:lr-tb;fill:#231f20;fill-opacity:1;fill-rule:nonzero;stroke:none"
       id="text23293"><tspan
         x="0"
         y="0"
         id="tspan23295">A</tspan><tspan
         x="-0.1242"
         y="25.5096"
         id="tspan23297">D</tspan><tspan
         x="11.6532"
         y="5.0976"
         id="tspan23299">B</tspan><tspan
         x="11.6532"
         y="19.126801"
         id="tspan23301">C</tspan><tspan
         x="-11.3076"
         y="5.0976"
         id="tspan23303">F</tspan><tspan
         x="-11.3076"
         y="19.126801"
         id="tspan23305">E</tspan></text>
<g
       id="g23307"
       transform="translate(458.3097,537.1668)"><path
         d="m 0,0 -1.583,-3.752 0.812,0.345 0,-4 1.544,0 0,4 L 1.585,-3.752 0,0 Z"
         style="fill:#231f20;fill-opacity:1;fill-rule:nonzero;stroke:none"
         id="path23309"
          /></g><g
       id="g23311"
       transform="translate(457.5384,490.7142)"><path
         d="M 0,0 0,-4 -0.812,-3.655 0.772,-7.407 2.356,-3.655 1.544,-4 1.544,0 0,0 Z"
         style="fill:#231f20;fill-opacity:1;fill-rule:nonzero;stroke:none"
         id="path23313"
          /></g><g
       id="g23315"
       transform="translate(496.1289,493.229)"><path
         d="M 0,0 -10.02,17.352 0,34.704 l 20.035,0 L 30.053,17.352 20.035,0 0,0 Z"
         style="fill:none;stroke:#231f20;stroke-width:2;stroke-linecap:butt;stroke-linejoin:bevel;stroke-miterlimit:4;stroke-dasharray:none;stroke-opacity:1"
         id="path23317"
          /></g><text
       transform="matrix(1,0,0,-1,504.231,520.9727)"
       style="font-variant:normal;font-weight:600;font-stretch:normal;font-size:5.4000001px;font-family:Eurostile;writing-mode:lr-tb;fill:#231f20;fill-opacity:1;fill-rule:nonzero;stroke:none"
       id="text23319"><tspan
         x="0"
         y="0"
         id="tspan23321">A</tspan><tspan
         x="-0.1242"
         y="25.5096"
         id="tspan23323">D</tspan><tspan
         x="11.6532"
         y="5.0976"
         id="tspan23325">B</tspan><tspan
         x="11.6532"
         y="19.126801"
         id="tspan23327">C</tspan><tspan
         x="-11.3076"
         y="5.0976"
         id="tspan23329">F</tspan><tspan
         x="-11.3076"
         y="19.126801"
         id="tspan23331">E</tspan></text>
<g
       id="g23333"
       transform="translate(525.4269,523.1989)"><path
         d="m 0,0 0,0 0.703,-0.531 -3.464,-1.999 0.386,-0.669 0.386,-0.669 3.464,1.999 0.107,-0.876 2.458,3.248 0,0 L 0,0 Z"
         style="fill:#231f20;fill-opacity:1;fill-rule:nonzero;stroke:none"
         id="path23335"
          /></g><g
       id="g23337"
       transform="translate(485.3889,499.1454)"><path
         d="M 0,0 -0.107,0.876 -2.565,-2.371 1.476,-1.868 0.772,-1.337 4.236,0.66 3.464,1.999 0,0 Z"
         style="fill:#231f20;fill-opacity:1;fill-rule:nonzero;stroke:none"
         id="path23339"
          /></g><g
       id="g23341"
       transform="translate(543.9639,493.229)"><path
         d="M 0,0 -10.02,17.352 0,34.704 l 20.035,0 L 30.053,17.352 20.035,0 0,0 Z"
         style="fill:none;stroke:#231f20;stroke-width:2;stroke-linecap:butt;stroke-linejoin:bevel;stroke-miterlimit:4;stroke-dasharray:none;stroke-opacity:1"
         id="path23343"
          /></g><text
       transform="matrix(1,0,0,-1,552.0664,520.9727)"
       style="font-variant:normal;font-weight:600;font-stretch:normal;font-size:5.4000001px;font-family:Eurostile;writing-mode:lr-tb;fill:#231f20;fill-opacity:1;fill-rule:nonzero;stroke:none"
       id="text23345"><tspan
         x="0"
         y="0"
         id="tspan23347">A</tspan><tspan
         x="-0.1242"
         y="25.5096"
         id="tspan23349">D</tspan><tspan
         x="11.6532"
         y="5.0976"
         id="tspan23351">B</tspan><tspan
         x="11.6532"
         y="19.126801"
         id="tspan23353">C</tspan><tspan
         x="-11.3076"
         y="5.0976"
         id="tspan23355">F</tspan><tspan
         x="-11.3076"
         y="19.126801"
         id="tspan23357">E</tspan></text>
<g
       id="g23359"
       transform="translate(530.6581,523.7009)"><path
         d="m 0,0 2.458,-3.246 10e-4,-10e-4 0.107,0.876 3.464,-1.999 0.772,1.338 -3.464,1.999 0.703,0.531 0,0 L 0,0 Z"
         style="fill:#231f20;fill-opacity:1;fill-rule:nonzero;stroke:none"
         id="path23361"
          /></g><g
       id="g23363"
       transform="translate(570.5001,499.8051)"><path
         d="M 0,0 3.464,-1.999 2.76,-2.53 l 0,0 L 6.801,-3.032 4.344,0.214 4.343,0.215 4.236,-0.661 0.772,1.338 0,0 Z"
         style="fill:#231f20;fill-opacity:1;fill-rule:nonzero;stroke:none"
         id="path23365"
          /></g><g
       id="g23367"
       transform="translate(448.2939,428.0322)"><path
         d="M 0,0 -10.02,17.352 0,34.704 l 20.035,0 L 30.053,17.352 20.035,0 0,0 Z"
         style="fill:none;stroke:#231f20;stroke-width:2;stroke-linecap:butt;stroke-linejoin:bevel;stroke-miterlimit:4;stroke-dasharray:none;stroke-opacity:1"
         id="path23369"
          /></g><text
       transform="matrix(1,0,0,-1,474.8037,454.9619)"
       style="font-variant:normal;font-weight:600;font-stretch:normal;font-size:5.4000001px;font-family:Eurostile;writing-mode:lr-tb;fill:#231f20;fill-opacity:1;fill-rule:nonzero;stroke:none"
       id="text23371"><tspan
         x="0"
         y="0"
         id="tspan23373">X</tspan><tspan
         x="-18.4086"
         y="-0.8154"
         id="tspan23375">A</tspan><tspan
         x="-18.532801"
         y="24.694201"
         id="tspan23377">D</tspan><tspan
         x="-6.7554002"
         y="4.2821999"
         id="tspan23379">B</tspan><tspan
         x="-6.7554002"
         y="18.311399"
         id="tspan23381">C</tspan><tspan
         x="-29.7162"
         y="4.2821999"
         id="tspan23383">F</tspan><tspan
         x="-29.7162"
         y="18.311399"
         id="tspan23385">E</tspan></text>
<g
       id="g23387"
       transform="translate(458.3097,471.9699)"><path
         d="m 0,0 -1.583,-3.752 0.812,0.345 0,-4 1.544,0 0,4 L 1.585,-3.752 0,0 Z"
         style="fill:#231f20;fill-opacity:1;fill-rule:nonzero;stroke:none"
         id="path23389"
          /></g><g
       id="g23391"
       transform="translate(474.9865,434.8799)"><path
         d="m 0,0 -0.156,-0.271 3.464,-1.999 -0.704,-0.531 4.041,-0.502 -2.458,3.246 0,0 L 4.08,-0.931 0.616,1.067 0,0 Z"
         style="fill:#231f20;fill-opacity:1;fill-rule:nonzero;stroke:none"
         id="path23393"
          /></g><g
       id="g23395"
       transform="translate(497.3672,438.6826)"><path
         d="M 0,0 -10.02,17.352 0,34.704 l 20.035,0 L 30.053,17.352 20.035,0 0,0 Z"
         style="fill:none;stroke:#231f20;stroke-width:2;stroke-linecap:butt;stroke-linejoin:bevel;stroke-miterlimit:4;stroke-dasharray:none;stroke-opacity:1"
         id="path23397"
          /></g><text
       transform="matrix(1,0,0,-1,505.4692,466.4268)"
       style="font-variant:normal;font-weight:600;font-stretch:normal;font-size:5.4000001px;font-family:Eurostile;writing-mode:lr-tb;fill:#231f20;fill-opacity:1;fill-rule:nonzero;stroke:none"
       id="text23399"><tspan
         x="0"
         y="0"
         id="tspan23401">A</tspan><tspan
         x="-0.1242"
         y="25.5096"
         id="tspan23403">D</tspan><tspan
         x="11.6532"
         y="5.0976"
         id="tspan23405">B</tspan><tspan
         x="11.6532"
         y="19.126801"
         id="tspan23407">C</tspan><tspan
         x="-11.3076"
         y="5.0976"
         id="tspan23409">F</tspan><tspan
         x="-11.3076"
         y="19.126801"
         id="tspan23411">E</tspan><tspan
         x="18.7596"
         y="23.4846"
         id="tspan23413">X</tspan></text>
<g
       id="g23415"
       transform="translate(506.6091,436.1679)"><path
         d="M 0,0 0,-4 -0.812,-3.655 0.773,-7.407 2.357,-3.655 1.545,-4 1.545,0 0,0 Z"
         style="fill:#231f20;fill-opacity:1;fill-rule:nonzero;stroke:none"
         id="path23417"
          /></g><g
       id="g23419"
       transform="translate(526.6648,468.6507)"><path
         d="m 0,0 0,0 0.704,-0.531 -3.464,-1.999 0.772,-1.337 3.463,1.998 0.108,-0.875 2.457,3.247 0,0 L 0,0 Z"
         style="fill:#231f20;fill-opacity:1;fill-rule:nonzero;stroke:none"
         id="path23421"
          /></g><g
       id="g23423"
       transform="translate(543.9639,428.0322)"><path
         d="M 0,0 -10.02,17.352 0,34.704 l 20.035,0 L 30.053,17.352 20.035,0 0,0 Z"
         style="fill:none;stroke:#231f20;stroke-width:2;stroke-linecap:butt;stroke-linejoin:bevel;stroke-miterlimit:4;stroke-dasharray:none;stroke-opacity:1"
         id="path23425"
          /></g><text
       transform="matrix(1,0,0,-1,552.0664,455.7764)"
       style="font-variant:normal;font-weight:600;font-stretch:normal;font-size:5.4000001px;font-family:Eurostile;writing-mode:lr-tb;fill:#231f20;fill-opacity:1;fill-rule:nonzero;stroke:none"
       id="text23427"><tspan
         x="0"
         y="0"
         id="tspan23429">A</tspan><tspan
         x="-0.1242"
         y="25.5096"
         id="tspan23431">D</tspan><tspan
         x="11.6532"
         y="5.0976"
         id="tspan23433">B</tspan><tspan
         x="11.6532"
         y="19.126801"
         id="tspan23435">C</tspan><tspan
         x="-11.3076"
         y="5.0976"
         id="tspan23437">F</tspan><tspan
         x="-11.3076"
         y="19.126801"
         id="tspan23439">E</tspan><tspan
         x="0.69120002"
         y="34.8246"
         id="tspan23441">X</tspan></text>
<g
       id="g23443"
       transform="translate(533.2239,433.9485)"><path
         d="m 0,0 -0.107,0.875 -2.458,-3.247 4.041,0.503 0,0 L 0.772,-1.338 4.236,0.66 3.464,1.998 0,0 Z"
         style="fill:#231f20;fill-opacity:1;fill-rule:nonzero;stroke:none"
         id="path23445"
          /></g><g
       id="g23447"
       transform="translate(570.6564,434.8799)"><path
         d="m 0,0 -0.156,-0.271 3.464,-1.999 -0.704,-0.531 4.041,-0.502 -2.458,3.246 0,0 L 4.08,-0.931 0.616,1.067 0,0 Z"
         style="fill:#231f20;fill-opacity:1;fill-rule:nonzero;stroke:none"
         id="path23449"
          /></g><g
       id="g23451"
       transform="translate(449.3906,382.6777)"><path
         d="M 0,0 -10.02,17.353 0,34.704 l 20.035,0 L 30.053,17.353 20.035,0 0,0 Z"
         style="fill:none;stroke:#231f20;stroke-width:2;stroke-linecap:butt;stroke-linejoin:bevel;stroke-miterlimit:4;stroke-dasharray:none;stroke-opacity:1"
         id="path23453"
          /></g><text
       transform="matrix(1,0,0,-1,457.4932,410.4209)"
       style="font-variant:normal;font-weight:600;font-stretch:normal;font-size:5.4000001px;font-family:Eurostile;writing-mode:lr-tb;fill:#231f20;fill-opacity:1;fill-rule:nonzero;stroke:none"
       id="text23455"><tspan
         x="0"
         y="0"
         id="tspan23457">A</tspan><tspan
         x="-0.1242"
         y="25.5096"
         id="tspan23459">D</tspan><tspan
         x="11.6532"
         y="5.0976"
         id="tspan23461">B</tspan><tspan
         x="11.6532"
         y="19.126801"
         id="tspan23463">C</tspan><tspan
         x="-11.3076"
         y="5.0976"
         id="tspan23465">F</tspan><tspan
         x="-11.3076"
         y="19.126801"
         id="tspan23467">E</tspan><tspan
         x="0.30239999"
         y="-9.1152"
         id="tspan23469">X</tspan></text>
<g
       id="g23471"
       transform="translate(478.6887,412.6475)"><path
         d="m 0,0 -0.001,0 0.704,-0.531 -3.464,-1.999 0.772,-1.337 3.464,1.998 0.108,-0.875 2.457,3.246 0,0.001 L 0,0 Z"
         style="fill:#231f20;fill-opacity:1;fill-rule:nonzero;stroke:none"
         id="path23473"
          /></g><g
       id="g23475"
       transform="translate(436.0852,413.1502)"><path
         d="m 0,0 2.457,-3.245 0.001,-10e-4 0.108,0.875 3.463,-1.998 0.616,1.066 0.156,0.271 -3.464,1.999 0.705,0.531 0,0 L 0,0 Z"
         style="fill:#231f20;fill-opacity:1;fill-rule:nonzero;stroke:none"
         id="path23477"
          /></g><g
       id="g23479"
       transform="translate(497.2246,371.3389)"><path
         d="M 0,0 -10.02,17.352 0,34.703 l 20.037,0 L 30.055,17.352 20.037,0 0,0 Z"
         style="fill:none;stroke:#231f20;stroke-width:2;stroke-linecap:butt;stroke-linejoin:bevel;stroke-miterlimit:4;stroke-dasharray:none;stroke-opacity:1"
         id="path23481"
          /></g><text
       transform="matrix(1,0,0,-1,505.3276,399.082)"
       style="font-variant:normal;font-weight:600;font-stretch:normal;font-size:5.4000001px;font-family:Eurostile;writing-mode:lr-tb;fill:#231f20;fill-opacity:1;fill-rule:nonzero;stroke:none"
       id="text23483"><tspan
         x="0"
         y="0"
         id="tspan23485">A</tspan><tspan
         x="-0.1242"
         y="25.5096"
         id="tspan23487">D</tspan><tspan
         x="11.6532"
         y="5.0976"
         id="tspan23489">B</tspan><tspan
         x="11.6532"
         y="19.126801"
         id="tspan23491">C</tspan><tspan
         x="-11.3076"
         y="5.0976"
         id="tspan23493">F</tspan><tspan
         x="-11.3076"
         y="19.126801"
         id="tspan23495">E</tspan><tspan
         x="-17.7714"
         y="0.81"
         id="tspan23497">X</tspan></text>
<g
       id="g23499"
       transform="translate(507.2409,415.2762)"><path
         d="m 0,0 -1.584,-3.751 0.812,0.344 0,-3.999 1.545,0 0,3.999 L 1.585,-3.751 0,0 Z"
         style="fill:#231f20;fill-opacity:1;fill-rule:nonzero;stroke:none"
         id="path23501"
          /></g><g
       id="g23503"
       transform="translate(486.4851,377.2548)"><path
         d="m 0,0 -0.108,0.874 -0.001,0 -2.457,-3.246 10e-4,0 4.041,0.503 0,0 L 0.771,-1.338 4.235,0.66 3.463,1.998 0,0 Z"
         style="fill:#231f20;fill-opacity:1;fill-rule:nonzero;stroke:none"
         id="path23505"
          /></g><g
       id="g23507"
       transform="translate(545.0605,382.6777)"><path
         d="M 0,0 -10.019,17.353 0,34.704 l 20.035,0 L 30.053,17.353 20.035,0 0,0 Z"
         style="fill:none;stroke:#231f20;stroke-width:2;stroke-linecap:butt;stroke-linejoin:bevel;stroke-miterlimit:4;stroke-dasharray:none;stroke-opacity:1"
         id="path23509"
          /></g><text
       transform="matrix(1,0,0,-1,553.1631,410.4209)"
       style="font-variant:normal;font-weight:600;font-stretch:normal;font-size:5.4000001px;font-family:Eurostile;writing-mode:lr-tb;fill:#231f20;fill-opacity:1;fill-rule:nonzero;stroke:none"
       id="text23511"><tspan
         x="0"
         y="0"
         id="tspan23513">A</tspan><tspan
         x="-0.1242"
         y="25.5096"
         id="tspan23515">D</tspan><tspan
         x="11.6532"
         y="5.0976"
         id="tspan23517">B</tspan><tspan
         x="11.6532"
         y="19.126801"
         id="tspan23519">C</tspan><tspan
         x="-11.3076"
         y="5.0976"
         id="tspan23521">F</tspan><tspan
         x="-11.3076"
         y="19.126801"
         id="tspan23523">E</tspan><tspan
         x="-18.8298"
         y="23.4846"
         id="tspan23525">X</tspan></text>
<g
       id="g23527"
       transform="translate(554.3037,380.1636)"><path
         d="m 0,0 0,-4 -0.812,0.345 1.585,-3.752 1.583,3.75 0,0.002 L 1.545,-4 1.545,0 0,0 Z"
         style="fill:#231f20;fill-opacity:1;fill-rule:nonzero;stroke:none"
         id="path23529"
          /></g><g
       id="g23531"
       transform="translate(531.7552,413.1502)"><path
         d="m 0,0 2.457,-3.245 0.001,-10e-4 0.108,0.875 3.463,-1.998 0.616,1.066 0.156,0.271 -3.464,1.999 0.704,0.531 L 0,0 Z"
         style="fill:#231f20;fill-opacity:1;fill-rule:nonzero;stroke:none"
         id="path23533"
          /></g></g>
</svg>
