<?xml version="1.0" encoding="utf-8"?>
<!DOCTYPE svg PUBLIC "-//W3C//DTD SVG 1.0//EN" "http://www.w3.org/TR/2001/REC-SVG-20010904/DTD/svg10.dtd">
<svg version="1.0" xmlns="http://www.w3.org/2000/svg" xmlns:xlink="http://www.w3.org/1999/xlink" x="0" y="0" width="308" height="465"
     xml:space="preserve">
<g id="armor_diagram_spacestation" transform="matrix(1,0,0,-1,-260.18207,720.37232)"><path
       d="m 395.941,435.765 h 38.642 v 40.915 h -38.642 z"
       style="fill:#ffffff;fill-opacity:1;fill-rule:nonzero;stroke:none"
       id="path1840"
        /><path
       d="m 434.583,435.765 h -38.642 v 40.915 h 38.642 z"
       style="fill:none;stroke:#c8c7c7;stroke-width:1;stroke-linecap:butt;stroke-linejoin:miter;stroke-miterlimit:4;stroke-dasharray:none;stroke-opacity:1"
       id="path1842"
        /><g
       id="g1844"
       transform="translate(403.89799,434.632)"><path
         d="m 0,0 -6.09,-22.731 h 2.272 L 2.274,0"
         style="fill:#ffffff;fill-opacity:1;fill-rule:nonzero;stroke:none"
         id="path1846"
          /></g><g
       id="g1848"
       transform="translate(403.89799,434.632)"><path
         d="m 0,0 -6.09,-22.731 h 2.272 L 2.274,0 Z"
         style="fill:none;stroke:#c8c7c7;stroke-width:1;stroke-linecap:butt;stroke-linejoin:miter;stroke-miterlimit:4;stroke-dasharray:none;stroke-opacity:1"
         id="path1850"
          /></g><g
       id="g1852"
       transform="translate(423.94701,434.632)"><path
         d="M 0,0 6.091,-22.731 H 8.366 L 2.271,0"
         style="fill:#ffffff;fill-opacity:1;fill-rule:nonzero;stroke:none"
         id="path1854"
          /></g><g
       id="g1856"
       transform="translate(423.94701,434.632)"><path
         d="M 0,0 6.091,-22.731 H 8.366 L 2.271,0 Z"
         style="fill:none;stroke:#c8c7c7;stroke-width:1;stroke-linecap:butt;stroke-linejoin:miter;stroke-miterlimit:4;stroke-dasharray:none;stroke-opacity:1"
         id="path1858"
          /></g><g
       id="g1860"
       transform="translate(420.377,416.44501)"><path
         d="m 0,0 38.074,-15.341 v -10.797 h -7.769 v 2.272 L 7.771,-19.32"
         style="fill:#ffffff;fill-opacity:1;fill-rule:nonzero;stroke:none"
         id="path1862"
          /></g><g
       id="g1864"
       transform="translate(420.377,416.44501)"><path
         d="m 0,0 38.074,-15.34 v -10.798 h -7.769 v 2.272 L 7.771,-19.32 Z"
         style="fill:none;stroke:#c8c7c7;stroke-width:1;stroke-linecap:butt;stroke-linejoin:miter;stroke-miterlimit:4;stroke-dasharray:none;stroke-opacity:1"
         id="path1866"
          /></g><g
       id="g1868"
       transform="translate(410.717,416.44501)"><path
         d="m 0,0 -38.072,-15.341 v -10.797 h 7.768 v 2.272 l 22.533,4.546"
         style="fill:#ffffff;fill-opacity:1;fill-rule:nonzero;stroke:none"
         id="path1870"
          /></g><g
       id="g1872"
       transform="translate(410.717,416.44501)"><path
         d="m 0,0 -38.072,-15.34 v -10.798 h 7.768 v 2.272 l 22.533,4.546 z"
         style="fill:none;stroke:#c8c7c7;stroke-width:1;stroke-linecap:butt;stroke-linejoin:miter;stroke-miterlimit:4;stroke-dasharray:none;stroke-opacity:1"
         id="path1874"
          /></g><path
       d="m 395.941,435.767 h 38.642 v 4.546 h -38.642 z"
       style="fill:#ffffff;fill-opacity:1;fill-rule:nonzero;stroke:none"
       id="path1876"
        /><path
       d="m 434.583,435.767 h -38.642 v 4.546 h 38.642 z"
       style="fill:none;stroke:#c8c7c7;stroke-width:1;stroke-linecap:butt;stroke-linejoin:miter;stroke-miterlimit:4;stroke-dasharray:none;stroke-opacity:1"
       id="path1878"
        /><g
       id="g1880"
       transform="translate(420.946,459.06599)"><path
         d="m 0,0 c 0,-3.139 -2.545,-5.682 -5.684,-5.682 -3.136,0 -5.68,2.543 -5.68,5.682 0,3.137 2.544,5.682 5.68,5.682 C -2.545,5.682 0,3.137 0,0"
         style="fill:#ffffff;fill-opacity:1;fill-rule:nonzero;stroke:none"
         id="path1882"
          /></g><g
       id="g1884"
       transform="translate(420.946,459.06599)"><path
         d="m 0,0 c 0,-3.139 -2.545,-5.682 -5.684,-5.682 -3.136,0 -5.68,2.543 -5.68,5.682 0,3.137 2.544,5.682 5.68,5.682 C -2.545,5.682 0,3.137 0,0 Z"
         style="fill:none;stroke:#c8c7c7;stroke-width:1;stroke-linecap:butt;stroke-linejoin:miter;stroke-miterlimit:4;stroke-dasharray:none;stroke-opacity:1"
         id="path1886"
          /></g><g
       id="g1888"
       transform="translate(377.452,506.94299)"><path
         d="M 0,0 18.22,7.509"
         style="fill:#ffffff;fill-opacity:1;fill-rule:nonzero;stroke:none"
         id="path1890"
          /></g><g
       id="g1892"
       transform="translate(377.452,506.94299)"><path
         d="M 0,0 18.22,7.509"
         style="fill:none;stroke:#c8c7c7;stroke-width:1;stroke-linecap:butt;stroke-linejoin:miter;stroke-miterlimit:4;stroke-dasharray:none;stroke-opacity:1"
         id="path1894"
          /></g><g
       id="g1896"
       transform="translate(453.142,507.34801)"><path
         d="M 0,0 -18.221,7.508"
         style="fill:#ffffff;fill-opacity:1;fill-rule:nonzero;stroke:none"
         id="path1898"
          /></g><g
       id="g1900"
       transform="translate(453.142,507.34801)"><path
         d="M 0,0 -18.221,7.508"
         style="fill:none;stroke:#c8c7c7;stroke-width:1;stroke-linecap:butt;stroke-linejoin:miter;stroke-miterlimit:4;stroke-dasharray:none;stroke-opacity:1"
         id="path1902"
          /></g><g
       id="g1904"
       transform="translate(387.27499,484.748)"><path
         d="M 0,0 C 0,0 24.541,18.726 25.185,18.726"
         style="fill:#ffffff;fill-opacity:1;fill-rule:nonzero;stroke:none"
         id="path1906"
          /></g><g
       id="g1908"
       transform="translate(387.27499,484.748)"><path
         d="M 0,0 C 0,0 24.541,18.726 25.185,18.726"
         style="fill:none;stroke:#c8c7c7;stroke-width:1;stroke-linecap:butt;stroke-linejoin:miter;stroke-miterlimit:4;stroke-dasharray:none;stroke-opacity:1"
         id="path1910"
          /></g><g
       id="g1912"
       transform="translate(443.455,484.748)"><path
         d="M 0,0 C 0,0 -24.536,18.726 -25.184,18.726"
         style="fill:#ffffff;fill-opacity:1;fill-rule:nonzero;stroke:none"
         id="path1914"
          /></g><g
       id="g1916"
       transform="translate(443.455,484.748)"><path
         d="M 0,0 C 0,0 -24.536,18.726 -25.184,18.726"
         style="fill:none;stroke:#c8c7c7;stroke-width:1;stroke-linecap:butt;stroke-linejoin:miter;stroke-miterlimit:4;stroke-dasharray:none;stroke-opacity:1"
         id="path1918"
          /></g><g
       id="g1920"
       transform="translate(370.48599,528.011)"><path
         d="M 0,0 15.499,5.166"
         style="fill:#ffffff;fill-opacity:1;fill-rule:nonzero;stroke:none"
         id="path1922"
          /></g><g
       id="g1924"
       transform="translate(370.48599,528.011)"><path
         d="M 0,0 15.499,5.166"
         style="fill:none;stroke:#c8c7c7;stroke-width:1;stroke-linecap:butt;stroke-linejoin:miter;stroke-miterlimit:4;stroke-dasharray:none;stroke-opacity:1"
         id="path1926"
          /></g><g
       id="g1928"
       transform="translate(460.246,528.011)"><path
         d="M 0,0 -15.499,5.166"
         style="fill:#ffffff;fill-opacity:1;fill-rule:nonzero;stroke:none"
         id="path1930"
          /></g><g
       id="g1932"
       transform="translate(460.246,528.011)"><path
         d="M 0,0 -15.499,5.166"
         style="fill:none;stroke:#c8c7c7;stroke-width:1;stroke-linecap:butt;stroke-linejoin:miter;stroke-miterlimit:4;stroke-dasharray:none;stroke-opacity:1"
         id="path1934"
          /></g><g
       id="g1936"
       transform="translate(374.35899,555.133)"><path
         d="M 0,0 10.336,16.79"
         style="fill:#ffffff;fill-opacity:1;fill-rule:nonzero;stroke:none"
         id="path1938"
          /></g><g
       id="g1940"
       transform="translate(374.35899,555.133)"><path
         d="M 0,0 10.336,16.79"
         style="fill:none;stroke:#c8c7c7;stroke-width:1;stroke-linecap:butt;stroke-linejoin:miter;stroke-miterlimit:4;stroke-dasharray:none;stroke-opacity:1"
         id="path1942"
          /></g><g
       id="g1944"
       transform="translate(456.369,555.133)"><path
         d="M 0,0 -10.33,16.79"
         style="fill:#ffffff;fill-opacity:1;fill-rule:nonzero;stroke:none"
         id="path1946"
          /></g><g
       id="g1948"
       transform="translate(456.369,555.133)"><path
         d="M 0,0 -10.33,16.79"
         style="fill:none;stroke:#c8c7c7;stroke-width:1;stroke-linecap:butt;stroke-linejoin:miter;stroke-miterlimit:4;stroke-dasharray:none;stroke-opacity:1"
         id="path1950"
          /></g><g
       id="g1952"
       transform="translate(447.761,555.782)"><path
         d="m 0,0 c 0,-28.998 -14.552,-52.506 -32.504,-52.506 -17.952,0 -32.505,23.508 -32.505,52.506 0,28.999 14.553,52.506 32.505,52.506 C -14.552,52.506 0,28.999 0,0"
         style="fill:#ffffff;fill-opacity:1;fill-rule:nonzero;stroke:none"
         id="path1954"
          /></g><g
       id="g1956"
       transform="translate(447.761,555.782)"><path
         d="m 0,0 c 0,-28.998 -14.552,-52.506 -32.504,-52.506 -17.952,0 -32.505,23.508 -32.505,52.506 0,28.999 14.553,52.506 32.505,52.506 C -14.552,52.506 0,28.999 0,0 Z"
         style="fill:none;stroke:#c8c7c7;stroke-width:1;stroke-linecap:butt;stroke-linejoin:miter;stroke-miterlimit:4;stroke-dasharray:none;stroke-opacity:1"
         id="path1958"
          /></g><g
       id="g1960"
       transform="translate(414.939,595.272)"><path
         d="m 0,0 c 11.248,0 20.962,-9.215 25.527,-22.563 l 3.584,-1.545 C 24.414,-8.009 13.15,3.331 0,3.331 c -12.862,0 -23.92,-10.85 -28.793,-26.389 l 3.674,1.634 C -20.401,-8.694 -10.923,0 0,0"
         style="fill:#ffffff;fill-opacity:1;fill-rule:nonzero;stroke:none"
         id="path1962"
          /></g><g
       id="g1964"
       transform="translate(414.939,595.272)"><path
         d="m 0,0 c 11.248,0 20.962,-9.215 25.527,-22.563 l 3.584,-1.545 C 24.414,-8.009 13.15,3.331 0,3.331 c -12.862,0 -23.92,-10.85 -28.793,-26.389 l 3.674,1.634 C -20.401,-8.694 -10.923,0 0,0 Z"
         style="fill:none;stroke:#c8c7c7;stroke-width:1;stroke-linecap:butt;stroke-linejoin:miter;stroke-miterlimit:4;stroke-dasharray:none;stroke-opacity:1"
         id="path1966"
          /></g><g
       id="g1968"
       transform="translate(397.808,411.89999)"><path
         d="m 0,0 h -11.365 l 6.09,22.731 H 6.09"
         style="fill:#ffffff;fill-opacity:1;fill-rule:nonzero;stroke:none"
         id="path1970"
          /></g><g
       id="g1972"
       transform="translate(397.808,411.89999)"><path
         d="m 0,0 h -11.365 l 6.09,22.731 H 6.09 Z"
         style="fill:none;stroke:#c8c7c7;stroke-width:1;stroke-linecap:butt;stroke-linejoin:miter;stroke-miterlimit:4;stroke-dasharray:none;stroke-opacity:1"
         id="path1974"
          /></g><g
       id="g1976"
       transform="translate(432.313,411.89999)"><path
         d="M 0,0 H 11.362 L 5.272,22.731 H -6.095"
         style="fill:#ffffff;fill-opacity:1;fill-rule:nonzero;stroke:none"
         id="path1978"
          /></g><g
       id="g1980"
       transform="translate(432.313,411.89999)"><path
         d="M 0,0 H 11.362 L 5.272,22.731 H -6.095 Z"
         style="fill:none;stroke:#c8c7c7;stroke-width:1;stroke-linecap:butt;stroke-linejoin:miter;stroke-miterlimit:4;stroke-dasharray:none;stroke-opacity:1"
         id="path1982"
          /></g><g
       id="g1984"
       transform="translate(401.483,416.94299)"><path
         d="M 0,0 H 27.121"
         style="fill:#ffffff;fill-opacity:1;fill-rule:nonzero;stroke:none"
         id="path1986"
          /></g><g
       id="g1988"
       transform="translate(401.483,416.94299)"><path
         d="M 0,0 H 27.121"
         style="fill:none;stroke:#c8c7c7;stroke-width:1;stroke-linecap:butt;stroke-linejoin:miter;stroke-miterlimit:4;stroke-dasharray:none;stroke-opacity:1"
         id="path1990"
          /></g><g
       id="g1992"
       transform="translate(404.71201,396.925)"><path
         d="M 0,0 H 21.31"
         style="fill:#ffffff;fill-opacity:1;fill-rule:nonzero;stroke:none"
         id="path1994"
          /></g><g
       id="g1996"
       transform="translate(404.71201,396.925)"><path
         d="M 0,0 H 21.31"
         style="fill:none;stroke:#c8c7c7;stroke-width:1;stroke-linecap:butt;stroke-linejoin:miter;stroke-miterlimit:4;stroke-dasharray:none;stroke-opacity:1"
         id="path1998"
          /></g><path
       d="m 413.105,416.943 h 3.875 v 16.145 h -3.875 z"
       style="fill:#ffffff;fill-opacity:1;fill-rule:nonzero;stroke:none"
       id="path2000"
        /><path
       d="m 416.98,416.943 h -3.875 v 16.145 h 3.875 z"
       style="fill:none;stroke:#c8c7c7;stroke-width:1;stroke-linecap:butt;stroke-linejoin:miter;stroke-miterlimit:4;stroke-dasharray:none;stroke-opacity:1"
       id="path2002"
        /><g
       id="g2004"
       transform="translate(409.877,396.925)"><path
         d="M 0,0 -0.645,-5.163"
         style="fill:#ffffff;fill-opacity:1;fill-rule:nonzero;stroke:none"
         id="path2006"
          /></g><g
       id="g2008"
       transform="translate(409.877,396.925)"><path
         d="M 0,0 -0.645,-5.163"
         style="fill:none;stroke:#c8c7c7;stroke-width:1;stroke-linecap:butt;stroke-linejoin:miter;stroke-miterlimit:4;stroke-dasharray:none;stroke-opacity:1"
         id="path2010"
          /></g><g
       id="g2012"
       transform="translate(420.209,396.925)"><path
         d="M 0,0 0.646,-5.163"
         style="fill:#ffffff;fill-opacity:1;fill-rule:nonzero;stroke:none"
         id="path2014"
          /></g><g
       id="g2016"
       transform="translate(420.209,396.925)"><path
         d="M 0,0 0.646,-5.163"
         style="fill:none;stroke:#c8c7c7;stroke-width:1;stroke-linecap:butt;stroke-linejoin:miter;stroke-miterlimit:4;stroke-dasharray:none;stroke-opacity:1"
         id="path2018"
          /></g><g
       id="g2020"
       transform="translate(415.04401,396.925)"><path
         d="M 0,0 V -5.163"
         style="fill:#ffffff;fill-opacity:1;fill-rule:nonzero;stroke:none"
         id="path2022"
          /></g><g
       id="g2024"
       transform="translate(415.04401,396.925)"><path
         d="M 0,0 V -5.163"
         style="fill:none;stroke:#c8c7c7;stroke-width:1;stroke-linecap:butt;stroke-linejoin:miter;stroke-miterlimit:4;stroke-dasharray:none;stroke-opacity:1"
         id="path2026"
          /></g><path
       d="m 396.962,436.316 h 5.812 v 3.229 h -5.812 z"
       style="fill:#ffffff;fill-opacity:1;fill-rule:nonzero;stroke:none"
       id="path2028"
        /><path
       d="m 402.774,436.316 h -5.812 v 3.229 h 5.812 z"
       style="fill:none;stroke:#c8c7c7;stroke-width:1;stroke-linecap:butt;stroke-linejoin:miter;stroke-miterlimit:4;stroke-dasharray:none;stroke-opacity:1"
       id="path2030"
        /><path
       d="m 427.959,436.316 h 5.811 v 3.229 h -5.811 z"
       style="fill:#ffffff;fill-opacity:1;fill-rule:nonzero;stroke:none"
       id="path2032"
        /><path
       d="m 433.77,436.316 h -5.811 v 3.229 h 5.811 z"
       style="fill:none;stroke:#c8c7c7;stroke-width:1;stroke-linecap:butt;stroke-linejoin:miter;stroke-miterlimit:4;stroke-dasharray:none;stroke-opacity:1"
       id="path2034"
        /><path
       d="m 403.419,436.316 h 10.979 v 3.229 h -10.979 z"
       style="fill:#ffffff;fill-opacity:1;fill-rule:nonzero;stroke:none"
       id="path2036"
        /><path
       d="m 414.398,436.316 h -10.979 v 3.229 h 10.979 z"
       style="fill:none;stroke:#c8c7c7;stroke-width:1;stroke-linecap:butt;stroke-linejoin:miter;stroke-miterlimit:4;stroke-dasharray:none;stroke-opacity:1"
       id="path2038"
        /><path
       d="m 415.043,436.316 h 12.269 v 3.229 h -12.269 z"
       style="fill:#ffffff;fill-opacity:1;fill-rule:nonzero;stroke:none"
       id="path2040"
        /><path
       d="m 427.312,436.316 h -12.269 v 3.229 h 12.269 z"
       style="fill:none;stroke:#c8c7c7;stroke-width:1;stroke-linecap:butt;stroke-linejoin:miter;stroke-miterlimit:4;stroke-dasharray:none;stroke-opacity:1"
       id="path2042"
        /><g
       id="g2044"
       transform="translate(397.53,599.79601)"><path
         d="m 0,0 c -17.198,-5.975 -29.478,-21.651 -29.478,-40.056 0,-0.213 0.002,-0.427 0.007,-0.644 l 7.594,-2.026"
         style="fill:none;stroke:#c8c7c7;stroke-width:1;stroke-linecap:butt;stroke-linejoin:round;stroke-miterlimit:4;stroke-dasharray:none;stroke-opacity:1"
         id="path2046"
          /></g><g
       id="g2048"
       transform="translate(433.35201,599.689)"><path
         d="m 0,0 c 17.198,-5.975 29.476,-21.65 29.476,-40.056 0,-0.212 -0.003,-0.427 -0.005,-0.644 l -7.594,-2.026"
         style="fill:none;stroke:#c8c7c7;stroke-width:1;stroke-linecap:butt;stroke-linejoin:round;stroke-miterlimit:4;stroke-dasharray:none;stroke-opacity:1"
         id="path2050"
          /></g><g
       id="g2052"
       transform="translate(443.675,411.89999)"><path
         d="m 0,0 -6.09,22.731 h -1.531 l -0.334,1.136 h -1.138 v 33.764 c 3.718,3.121 7.245,7.596 10.507,13.028 l -1.578,1.965 2.513,-0.366 c 3.561,6.223 6.782,13.545 9.571,21.226 l -2.084,1.642 2.551,-0.34 c 2.443,6.887 4.533,14.022 6.199,20.879 l -1.965,0.819 c 0.18,0.658 0.356,1.313 0.525,1.964 l -7.31,2.427 c 0,0 3.127,4.254 3.127,22.383 l 8.619,2.404 c 0.004,0.241 0.006,0.482 0.006,0.715 0,22.056 -15.862,40.59 -37.34,45.875 -3.891,2.662 -8.173,4.136 -12.666,4.136 -4.521,0 -8.826,-1.492 -12.739,-4.187 -21.376,-5.347 -37.143,-23.837 -37.143,-45.824 0,-0.233 0.003,-0.474 0.007,-0.715 l 8.62,-2.404 c 0,-18.129 3.126,-22.383 3.126,-22.383 l -7.31,-2.427 c 0.169,-0.651 0.345,-1.306 0.524,-1.964 l -1.965,-0.819 c 1.668,-6.857 3.757,-13.992 6.201,-20.879 l 2.55,0.34 -2.084,-1.642 c 2.789,-7.681 6.01,-15.003 9.57,-21.226 l 2.514,0.366 -1.578,-1.965 c 3.227,-5.377 6.717,-9.815 10.391,-12.932 v -33.86 h -1.135 l -0.334,-1.136 h -1.94 L -57.232,0 -95.466,-10.796 V -21.592 H -84.1 v 2.271 l 13.07,1.803 v -4.074 h 7.768 v 2.271 l 22.533,4.545 h 1.891 c -0.603,-1.385 -0.939,-2.913 -0.939,-4.523 0,-0.368 0.019,-0.73 0.052,-1.088 H -17.1 c 0.034,0.358 0.051,0.72 0.051,1.088 0,1.61 -0.336,3.138 -0.936,4.523 h 2.458 l 22.533,-4.545 v -2.271 h 7.769 v 3.998 l 12.502,-1.727 v -2.271 h 11.365 v 10.796 z"
         style="fill:none;stroke:#231f20;stroke-width:2;stroke-linecap:round;stroke-linejoin:round;stroke-miterlimit:4;stroke-dasharray:none;stroke-opacity:1"
         id="path2054"
          /></g><path
       d="m 497.729,636.7 h 4.254 v 4.251 h -4.254 z"
       style="fill:#ffffff;fill-opacity:1;fill-rule:nonzero;stroke:none"
       id="path2056"
        /><g
       id="g16456"
       transform="translate(449.541,502.638)"><path
         d="m 0,0 c 0,-6.627 -4.435,-12 -9.906,-12 h -49.621 c -5.472,0 -9.907,5.373 -9.907,12 v 68.521 c 0,6.627 4.435,12 9.907,12 h 49.621 c 5.471,0 9.906,-5.373 9.906,-12"
         style="fill:#c8c7c7;fill-opacity:1;fill-rule:nonzero;stroke:none"
         id="path16458"/></g><g
       id="g16460"
       transform="translate(449.541,502.638)"><path
         d="m 0,0 c 0,-6.627 -4.435,-12 -9.906,-12 h -49.621 c -5.472,0 -9.907,5.373 -9.907,12 v 68.521 c 0,6.627 4.435,12 9.907,12 h 49.621 c 5.471,0 9.906,-5.373 9.906,-12 z"
         style="fill:none;stroke:#231f20;stroke-width:2;stroke-linecap:butt;stroke-linejoin:miter;stroke-miterlimit:4;stroke-dasharray:none;stroke-opacity:1"
         id="path16462"/></g><text
       transform="matrix(1,0,0,-1,414.95,574.827)"
       style="font-variant:normal;font-size:8px;font-family:Eurostile;;writing-mode:lr-tb;fill:#231f20;fill-opacity:1;fill-rule:nonzero;stroke:none" text-anchor="middle"
       id="text10172"><tspan
         x="0"
         y="0"
         id="tspan10166">Structural</tspan><tspan
         x="0"
         y="9.6"
         id="tspan10168">Integrity:</tspan><tspan
         x="0"
         y="19.2"
         font-weight="bold"
         id="tspan10170">1</tspan></text><path
       d="m 410.394,543.646 h 8.862 v 8.859 h -8.862 z"
       style="fill:#ffffff;fill-opacity:1;fill-rule:nonzero;stroke:none"
       id="path10174"
        /><path
       d="m 419.264,543.646 h -8.862 v 8.859 h 8.862 z"
       style="fill:none;stroke:#231f20;stroke-width:0.5;stroke-linecap:butt;stroke-linejoin:miter;stroke-miterlimit:4;stroke-dasharray:none;stroke-opacity:1"
       id="path10176"
        /><text
       transform="matrix(1,0,0,-1,414.95,511.736)"
       style="font-variant:normal;font-size:8px;font-family:Eurostile;;writing-mode:lr-tb;fill:#231f20;fill-opacity:1;fill-rule:nonzero;stroke:none" text-anchor="middle"
       id="text9996"><tspan
         x="0"
         y="0"
         id="tspan9988">Docking Collars:</tspan><tspan
         x="0"
         y="9.6"
         font-weight="bold"
         id="textDockingCollars">0</tspan><tspan
         x="0"
         y="-23.354"
         id="tspan9990">Sail Integrity:</tspan><tspan
         x="0"
         y="-15.354"
         font-weight="bold"
         id="textSail">0</tspan></text><text
       transform="matrix(1,0,0,-1,414.344,293)"
       style="font-weight:bold;font-size:6px;font-family:Eurostile;;writing-mode:lr-tb;fill:#231f20;fill-opacity:1;fill-rule:nonzero;stroke:none" text-anchor="middle"
       id="text2198"><tspan
         x="0"
         y="0"
         id="tspan2192">Aft Damage Threshold</tspan><tspan
         x="0"
         y="7.1999998"
         id="tspan2194">(Total Armor)</tspan><tspan
         x="0"
         y="14.4"
         id="textArmor_AFT"> ( )</tspan></text><text
       transform="matrix(1,0,0,-1,435.756,716.0724)"
       style="font-weight:bold;font-size:6px;font-family:Eurostile;;writing-mode:lr-tb;fill:#231f20;fill-opacity:1;fill-rule:nonzero;stroke:none" text-anchor="middle"
       id="text2214"><tspan
         x="0"
         y="0"
         id="tspan2208">Nose Damage Threshold</tspan><tspan
         x="0"
         y="7.1999998"
         id="tspan2210">(Total Armor)</tspan><tspan
         x="0"
         y="14.4"
         id="textArmor_NOS"> ( )</tspan></text><text
       transform="matrix(1,0,0,-1,532,325)"
       style="font-weight:bold;font-size:6px;font-family:Eurostile;;writing-mode:lr-tb;fill:#231f20;fill-opacity:1;fill-rule:nonzero;stroke:none" text-anchor="middle"
       id="text2230"><tspan
         x="0"
         y="0"
         id="tspan2224">Aft-Right Damage</tspan><tspan
         x="0"
         y="7.1999998"
         id="tspan2226">Threshold (Total Armor)</tspan><tspan
         x="0"
         y="14.4"
         id="textArmor_ARS"> ( )</tspan></text><text
       transform="matrix(1,0,0,-1,297.4,325)"
       style="font-weight:bold;font-size:6px;font-family:Eurostile;;writing-mode:lr-tb;fill:#231f20;fill-opacity:1;fill-rule:nonzero;stroke:none" text-anchor="middle"
       id="text2246"><tspan
         x="0"
         y="0"
         id="tspan2240">Aft-Left Damage</tspan><tspan
         x="0"
         y="7.1999998"
         id="tspan2242">Threshold (Total Armor)</tspan><tspan
         x="0"
         y="14.4"
         id="textArmor_ALS"> ( )</tspan></text><text
       transform="matrix(1,0,0,-1,530,659.379)"
       style="font-weight:bold;font-size:6px;font-family:Eurostile;;writing-mode:lr-tb;fill:#231f20;fill-opacity:1;fill-rule:nonzero;stroke:none" text-anchor="middle"
       id="text2262"><tspan
         x="0"
         y="0"
         id="tspan2256">Fore-Right Damage</tspan><tspan
         x="0"
         y="7.1999998"
         id="tspan2258">Threshold (Total Armor)</tspan><tspan
         x="0"
         y="14.4"
         id="textArmor_FRS"> ( )</tspan></text><text
       transform="matrix(1,0,0,-1,298.5,659.379)"
       style="font-weight:bold;font-size:6px;font-family:Eurostile;;writing-mode:lr-tb;fill:#231f20;fill-opacity:1;fill-rule:nonzero;stroke:none" text-anchor="middle"
       id="text2278"><tspan
         x="0"
         y="0"
         id="tspan2272">Fore-Left Damage</tspan><tspan
         x="0"
         y="7.1999998"
         id="tspan2274">Threshold (Total Armor)</tspan><tspan
         x="0"
         y="14.4"
         id="textArmor_FLS"> ( )</tspan></text></g>
<g transform="matrix(0.75,0,0,0.75,153.75,-66.227997)" id="armorPips" fill="none">
    <rect x="-100" y="125" width="200" height="100" id="armorPipsNOS"/>
    <rect x="-205" y="195" width="100" height="200" id="armorPipsFLS"/>
    <rect x="105" y="195" width="100" height="200" id="armorPipsFRS"/>
    <rect x="-205" y="405" width="100" height="200" id="armorPipsALS"/>
    <rect x="105" y="405" width="100" height="200" id="armorPipsARS"/>
    <rect x="-100" y="550" width="200" height="100" id="armorPipsAFT"/>
</g>
<g id="structurePips" transform="matrix(0.75,0,0,0.75,154.7,73.9)" fill="none">
    <rect x="-40" y="164" width="80" height="5" id="sailPips"/>
    <rect x="-40" y="196.6" width="80" height="5" id="dcPips"/>
</g></svg>
