<?xml version="1.0" encoding="utf-8"?>
<!DOCTYPE svg PUBLIC "-//W3C//DTD SVG 1.0//EN" "http://www.w3.org/TR/2001/REC-SVG-20010904/DTD/svg10.dtd">
<svg version="1.0" xmlns="http://www.w3.org/2000/svg" xmlns:xlink="http://www.w3.org/1999/xlink" x="0" y="0" width="198" height="361"
     xml:space="preserve">
<g id="armor_diagram_tripod" transform="matrix(0.99999752,0,0,-1,-386.79847,762.7908)"><g
         id="g3480"
         transform="translate(7.6,0)"><g
           id="g3486"
           transform="translate(419.4648,600.0143)"><path
             d="M 0,0 1.145,-3.443 C 0.94,-2.829 0.955,-2.196 1.142,-1.63 0.624,-1.212 0.219,-0.661 0,0"
             style="fill:#c7c8ca;fill-opacity:1;fill-rule:nonzero;stroke:none"
             id="path3488"
              /></g><g
           id="g3490"
           transform="translate(420.0507,594.7729)"><path
             d="m 0,0 1.692,-0.873 c 0.102,0.345 0.33,0.648 0.664,0.831 l 0.032,0.017 C 1.559,0.243 0.859,0.895 0.558,1.799 L 0.684,1.416 C 0.829,0.979 0.55,0.456 0,0"
             style="fill:#c7c8ca;fill-opacity:1;fill-rule:nonzero;stroke:none"
             id="path3492"
              /></g><g
           id="g3494"
           transform="translate(425.5665,608.0281)"><path
             d="m 0,0 -5.458,6.165 -12.283,-4.083 0.513,-11.8 2.621,0.871 2.453,-7.377 c 0.135,-0.411 0.43,-0.77 0.859,-0.977 l 6.161,-2.964 c 0.851,-0.41 1.894,-0.063 2.331,0.775 0.082,0.157 0.127,0.323 0.158,0.487 0.254,0.012 0.511,0.074 0.752,0.203 l 3.06,1.634 c 0.845,0.45 1.168,1.477 0.721,2.292 -0.184,0.339 -0.477,0.581 -0.811,0.724 0.297,0.424 0.351,1 0.087,1.495 -0.212,0.395 -0.58,0.643 -0.981,0.721 0.3,0.639 0.367,1.395 0.123,2.127 -0.007,0.02 -0.015,0.038 -0.022,0.059 1.369,1 2.03,2.695 1.508,4.26 l -1.194,3.592 c -0.202,0.609 -0.561,1.128 -1.023,1.534 L 0,0 Z"
             style="fill:#c7c8ca;fill-opacity:1;fill-rule:nonzero;stroke:none"
             id="path3496"
              /></g><g
           id="g3498"
           transform="translate(425.1165,593.9154)"><path
             d="M 0,0 C 0.844,0.45 1.89,0.155 2.338,-0.662 2.785,-1.476 2.462,-2.504 1.617,-2.954 l -3.06,-1.634 c -0.846,-0.452 -1.893,-0.154 -2.339,0.66 -0.447,0.817 -0.124,1.843 0.721,2.294 L 0,0 Z"
             style="fill:#c7c8ca;fill-opacity:1;fill-rule:nonzero;stroke:none"
             id="path3500"
              /></g><g
           id="g3502"
           transform="translate(422.0139,590.8939)"><path
             d="M 0,0 C 0.849,-0.409 1.185,-1.419 0.749,-2.256 0.313,-3.093 -0.73,-3.441 -1.581,-3.031 l -6.162,2.965 c -0.851,0.41 -1.185,1.42 -0.749,2.258 0.436,0.838 1.479,1.184 2.33,0.776 L 0,0 Z"
             style="fill:#c7c8ca;fill-opacity:1;fill-rule:nonzero;stroke:none"
             id="path3504"
              /></g><g
           id="g3506"
           transform="translate(420.0045,593.9881)"><path
             d="m 0,0 c 0.293,-0.882 -0.946,-2.087 -2.764,-2.691 -1.819,-0.607 -3.532,-0.382 -3.824,0.499 l -3.187,9.578 c -0.293,0.882 0.945,2.088 2.766,2.692 1.821,0.606 3.531,0.38 3.824,-0.502 L 0,0 Z"
             style="fill:#c7c8ca;fill-opacity:1;fill-rule:nonzero;stroke:none"
             id="path3508"
              /></g><g
           id="g3510"
           transform="translate(424.843,596.0606)"><path
             d="m 0,0 c 0.672,0.366 1.518,0.103 1.888,-0.587 0.37,-0.69 0.124,-1.549 -0.549,-1.916 l -2.437,-1.33 c -0.672,-0.367 -1.518,-0.104 -1.887,0.586 -0.37,0.692 -0.124,1.549 0.548,1.918 L 0,0 Z"
             style="fill:#c7c8ca;fill-opacity:1;fill-rule:nonzero;stroke:none"
             id="path3512"
              /></g><g
           id="g3514"
           transform="translate(422.3911,593.5664)"><path
             d="M 0,0 C 0.689,-0.355 0.972,-1.209 0.634,-1.906 0.293,-2.602 -0.54,-2.878 -1.228,-2.524 l -4.989,2.573 c -0.688,0.356 -0.971,1.209 -0.634,1.905 0.338,0.698 1.172,0.974 1.862,0.619 L 0,0 Z"
             style="fill:#c7c8ca;fill-opacity:1;fill-rule:nonzero;stroke:none"
             id="path3516"
              /></g><g
           id="g3518"
           transform="translate(420.7346,596.1888)"><path
             d="m 0,0 c 0.249,-0.742 -0.73,-1.738 -2.182,-2.22 -1.456,-0.484 -2.833,-0.272 -3.08,0.471 L -7.95,6.335 c -0.248,0.744 0.729,1.739 2.183,2.223 1.453,0.483 2.833,0.271 3.081,-0.474 L 0,0 Z"
             style="fill:#c7c8ca;fill-opacity:1;fill-rule:nonzero;stroke:none"
             id="path3520"
              /></g><g
           id="g3522"
           transform="translate(425.8731,598.321)"><path
             d="m 0,0 c 0.494,-1.489 -0.282,-3.086 -1.737,-3.569 -1.453,-0.483 -3.033,0.331 -3.527,1.82 -0.495,1.487 0.282,3.086 1.736,3.569 C -2.075,2.304 -0.496,1.488 0,0"
             style="fill:#c7c8ca;fill-opacity:1;fill-rule:nonzero;stroke:none"
             id="path3524"
              /></g><g
           id="g3526"
           transform="translate(427.3589,602.6397)"><path
             d="m 0,0 c 0.661,-1.984 -0.572,-4.181 -2.753,-4.905 -2.181,-0.726 -4.481,0.296 -5.141,2.279 l -1.194,3.593 c -0.661,1.984 0.572,4.18 2.752,4.905 2.18,0.726 4.481,-0.296 5.142,-2.279 L 0,0 Z"
             style="fill:#c7c8ca;fill-opacity:1;fill-rule:nonzero;stroke:none"
             id="path3528"
              /></g><g
           id="g3530"
           transform="translate(408.3389,598.3105)"><path
             d="M 0,0 3.072,1.02 17.228,9.718 11.77,15.882 -0.513,11.8 0,0 Z"
             style="fill:#c7c8ca;fill-opacity:1;fill-rule:nonzero;stroke:none"
             id="path3532"
              /></g><g
           id="g3534"
           transform="translate(445.0073,697.0416)"><path
             d="m 0,0 -1.364,11.937 c 0,0 -4.929,7.242 -20.403,3.586 -15.475,-3.657 -23.767,-23.184 -23.767,-23.184 l -1.635,-9.569 5.422,-1.413 6.927,3.598 -12.197,-22.773 0.948,-1.734 1.093,-0.097 -0.048,-0.545 -1.687,-0.404 -0.095,-1.092 1.59,-0.69 -0.046,-0.547 -1.092,0.095 -1.784,-1.494 0.715,-34.205 8.456,-10.078 16.023,4.355 1.781,4.787 -2.809,29.077 -0.95,1.735 -1.094,0.095 0.049,0.548 1.687,0.403 0.096,1.092 -1.593,0.69 0.049,0.546 1.093,-0.096 1.236,1.544 9.105,14.015 10.062,-0.238 -0.322,18.114 -7.111,0 0,6.696 4.199,4.168 L 0,0 Z"
             style="fill:#c7c8ca;fill-opacity:1;fill-rule:nonzero;stroke:none"
             id="path3536"
              /></g><g
           id="g3538"
           transform="translate(497.5684,480.1085)"><path
             d="m 0,0 -1.06,2.741 -3.596,1.646 -1.33,7.13 2.032,0.548 0.271,7.677 2.512,1.097 3.057,7.13 -2.415,30.712 -0.905,1.096 0.569,16.545 -0.958,2.194 -0.167,3.838 -1.884,5.484 3.663,42.665 -33.274,0 3.663,-42.665 -1.882,-5.484 -0.168,-3.838 -0.958,-2.194 0.569,-16.545 -0.906,-1.096 -2.415,-30.712 3.058,-7.13 2.512,-1.097 0.271,-7.677 2.032,-0.548 -1.329,-7.13 -3.598,-1.646 -1.06,-2.741 -1.951,-1.645 -0.82,-4.388 11.265,0 16.708,0 11.265,0 L 1.953,-1.645 0,0 Z"
             style="fill:#c7c8ca;fill-opacity:1;fill-rule:nonzero;stroke:none"
             id="path3540"
              /></g><g
           id="g3542"
           transform="translate(414.1707,575.0766)"><path
             d="m 0,0 -4.418,0 -0.728,-10.968 1.543,-22.029 -1.548,-1.317 -8.328,-27.75 0.485,-3.838 4.14,-4.388 -1.321,-12.612 4.681,-2.195 -1.682,-3.839 -9.832,-4.386 -0.733,-2.742 -2.046,-1.098 0.514,-3.839 1.097,0 45.518,0 -0.587,4.387 -1.865,1.646 -0.915,2.741 -3.509,1.645 -0.954,7.13 2.063,0.55 0.677,7.677 6.434,1.096 3.435,7.13 -4.652,30.712 -0.847,1.096 1.445,16.544 -0.841,2.195 0.035,3.838 1.975,1.646 2.45,2.193 0.473,0.548 L 31.465,-7.13 69.133,26.78 37.389,35.534 0,0 Z"
             style="fill:#c7c8ca;fill-opacity:1;fill-rule:nonzero;stroke:none"
             id="path3544"
              /></g><g
           id="g3546"
           transform="translate(547.2703,575.0766)"><path
             d="m 0,0 4.418,0 0.728,-10.968 -1.542,-22.029 1.548,-1.317 8.328,-27.75 -0.485,-3.838 -4.14,-4.388 1.32,-12.612 -4.68,-2.195 1.681,-3.839 9.833,-4.386 0.732,-2.742 2.046,-1.098 -0.513,-3.839 -1.097,0 -45.519,0 0.588,4.387 1.864,1.646 0.915,2.741 3.51,1.645 0.953,7.13 -2.063,0.55 -0.676,7.677 -6.435,1.096 -3.435,7.13 4.653,30.712 0.846,1.096 -1.445,16.544 0.841,2.195 -0.036,3.838 -1.974,1.646 -2.449,2.193 -0.474,0.548 0.694,1.097 -37.667,33.91 31.744,8.754 L 0,0 Z"
             style="fill:#c7c8ca;fill-opacity:1;fill-rule:nonzero;stroke:none"
             id="path3548"
              /></g><g
           id="g3550"
           transform="translate(463.4877,706.2856)"><path
             d="m 0,0 -6.033,-9.66 -23.926,-6.474 -0.244,-28.123 c 0,0 -0.551,-10.415 2.573,-13.749 3.127,-3.335 10.335,-5.226 10.335,-5.226 l 2.199,-20.22 -7.041,-5.06 -3.64,-14.821 1.098,-1.095 L 6.606,-119.884 2.742,-85.235 0,-56.718 0,0 Z"
             style="fill:#c7c8ca;fill-opacity:1;fill-rule:nonzero;stroke:none"
             id="path3552"
              /></g><g
           id="g3554"
           transform="translate(541.4006,600.0143)"><path
             d="m 0,0 -1.145,-3.443 c 0.204,0.614 0.19,1.247 0.002,1.813 C -0.625,-1.212 -0.219,-0.661 0,0"
             style="fill:#c7c8ca;fill-opacity:1;fill-rule:nonzero;stroke:none"
             id="path3556"
              /></g><g
           id="g3558"
           transform="translate(540.8148,594.7729)"><path
             d="m 0,0 -1.692,-0.873 c -0.102,0.345 -0.331,0.648 -0.665,0.831 l -0.032,0.017 c 0.829,0.268 1.53,0.92 1.831,1.824 L -0.685,1.416 C -0.83,0.979 -0.551,0.456 0,0"
             style="fill:#c7c8ca;fill-opacity:1;fill-rule:nonzero;stroke:none"
             id="path3560"
              /></g><g
           id="g3562"
           transform="translate(535.7245,607.7658)"><path
             d="m 0,0 c -0.463,-0.406 -0.822,-0.924 -1.025,-1.534 l -1.194,-3.593 c -0.521,-1.564 0.14,-3.259 1.51,-4.26 -0.008,-0.019 -0.017,-0.038 -0.023,-0.058 -0.244,-0.731 -0.178,-1.487 0.122,-2.128 -0.401,-0.077 -0.768,-0.324 -0.98,-0.72 -0.265,-0.494 -0.209,-1.071 0.086,-1.495 -0.333,-0.144 -0.625,-0.385 -0.81,-0.724 -0.447,-0.815 -0.123,-1.842 0.722,-2.293 l 3.059,-1.633 c 0.241,-0.129 0.497,-0.19 0.752,-0.203 0.03,-0.164 0.077,-0.33 0.158,-0.487 0.437,-0.837 1.48,-1.184 2.331,-0.775 l 6.161,2.965 c 0.428,0.207 0.725,0.565 0.859,0.977 l 2.453,7.376 2.62,-0.87 L 17.315,2.344 5.032,6.427 -0.427,0.262 0,0 Z"
             style="fill:#c7c8ca;fill-opacity:1;fill-rule:nonzero;stroke:none"
             id="path3564"
              /></g><g
           id="g3566"
           transform="translate(535.749,593.9154)"><path
             d="m 0,0 c -0.845,0.45 -1.891,0.155 -2.338,-0.662 -0.447,-0.814 -0.124,-1.842 0.721,-2.292 l 3.06,-1.634 c 0.845,-0.452 1.893,-0.154 2.339,0.66 0.446,0.817 0.123,1.843 -0.722,2.294 L 0,0 Z"
             style="fill:#c7c8ca;fill-opacity:1;fill-rule:nonzero;stroke:none"
             id="path3568"
              /></g><g
           id="g3570"
           transform="translate(538.8517,590.8939)"><path
             d="m 0,0 c -0.849,-0.409 -1.185,-1.419 -0.75,-2.256 0.437,-0.837 1.48,-1.185 2.331,-0.775 l 6.161,2.965 C 8.594,0.344 8.928,1.354 8.491,2.192 8.055,3.03 7.012,3.376 6.161,2.968 L 0,0 Z"
             style="fill:#c7c8ca;fill-opacity:1;fill-rule:nonzero;stroke:none"
             id="path3572"
              /></g><g
           id="g3574"
           transform="translate(540.861,593.9881)"><path
             d="m 0,0 c -0.294,-0.882 0.945,-2.087 2.763,-2.691 1.819,-0.607 3.532,-0.382 3.824,0.499 L 9.774,7.386 C 10.067,8.268 8.829,9.474 7.009,10.078 5.188,10.684 3.478,10.458 3.184,9.576 L 0,0 Z"
             style="fill:#c7c8ca;fill-opacity:1;fill-rule:nonzero;stroke:none"
             id="path3576"
              /></g><g
           id="g3578"
           transform="translate(536.0225,596.0606)"><path
             d="m 0,0 c -0.673,0.366 -1.518,0.103 -1.888,-0.587 -0.371,-0.69 -0.124,-1.549 0.548,-1.916 l 2.438,-1.33 c 0.672,-0.367 1.517,-0.104 1.887,0.586 0.37,0.692 0.124,1.549 -0.55,1.918 L 0,0 Z"
             style="fill:#c7c8ca;fill-opacity:1;fill-rule:nonzero;stroke:none"
             id="path3580"
              /></g><g
           id="g3582"
           transform="translate(538.4734,593.5664)"><path
             d="m 0,0 c -0.689,-0.355 -0.972,-1.209 -0.634,-1.906 0.341,-0.696 1.174,-0.972 1.862,-0.618 l 4.99,2.573 C 6.905,0.405 7.189,1.258 6.851,1.954 6.513,2.652 5.679,2.928 4.99,2.573 L 0,0 Z"
             style="fill:#c7c8ca;fill-opacity:1;fill-rule:nonzero;stroke:none"
             id="path3584"
              /></g><g
           id="g3586"
           transform="translate(540.1299,596.1888)"><path
             d="m 0,0 c -0.249,-0.742 0.73,-1.738 2.183,-2.22 1.455,-0.484 2.832,-0.272 3.08,0.471 L 7.951,6.335 C 8.197,7.079 7.221,8.074 5.768,8.558 4.315,9.041 2.934,8.829 2.686,8.084 L 0,0 Z"
             style="fill:#c7c8ca;fill-opacity:1;fill-rule:nonzero;stroke:none"
             id="path3588"
              /></g><g
           id="g3590"
           transform="translate(534.9924,598.321)"><path
             d="m 0,0 c -0.495,-1.489 0.282,-3.086 1.736,-3.569 1.453,-0.483 3.033,0.331 3.528,1.82 C 5.759,-0.262 4.982,1.337 3.528,1.82 2.075,2.304 0.495,1.488 0,0"
             style="fill:#c7c8ca;fill-opacity:1;fill-rule:nonzero;stroke:none"
             id="path3592"
              /></g><g
           id="g3594"
           transform="translate(533.5057,602.6397)"><path
             d="m 0,0 c -0.661,-1.984 0.572,-4.181 2.753,-4.905 2.18,-0.726 4.482,0.296 5.142,2.279 L 9.089,0.967 C 9.749,2.951 8.516,5.147 6.337,5.872 4.157,6.598 1.855,5.576 1.194,3.593 L 0,0 Z"
             style="fill:#c7c8ca;fill-opacity:1;fill-rule:nonzero;stroke:none"
             id="path3596"
              /></g><g
           id="g3598"
           transform="translate(552.5256,598.3105)"><path
             d="M 0,0 -3.072,1.02 -17.228,9.718 -11.77,15.882 0.513,11.8 0,0 Z"
             style="fill:#c7c8ca;fill-opacity:1;fill-rule:nonzero;stroke:none"
             id="path3600"
              /></g><g
           id="g3602"
           transform="translate(515.8583,697.0416)"><path
             d="m 0,0 1.364,11.937 c 0,0 4.928,7.242 20.402,3.586 15.475,-3.657 23.767,-23.184 23.767,-23.184 l 1.636,-9.569 -5.422,-1.413 -6.927,3.598 12.197,-22.773 -0.949,-1.734 -1.093,-0.097 0.048,-0.545 1.688,-0.404 0.095,-1.092 -1.591,-0.69 0.047,-0.547 1.092,0.095 1.783,-1.494 -0.715,-34.205 -8.456,-10.078 -16.023,4.355 -1.781,4.787 2.81,29.077 0.95,1.735 1.093,0.095 -0.049,0.548 -1.687,0.403 -0.096,1.092 1.593,0.69 -0.049,0.546 -1.092,-0.096 -1.237,1.544 -9.104,14.015 -10.063,-0.238 0.323,18.114 7.11,0 0,6.696 L 7.466,-1.078 0,0 Z"
             style="fill:#c7c8ca;fill-opacity:1;fill-rule:nonzero;stroke:none"
             id="path3604"
              /></g><g
           id="g3606"
           transform="translate(497.3769,706.2856)"><path
             d="m 0,0 6.034,-9.66 23.926,-6.474 0.244,-28.123 c 0,0 0.55,-10.415 -2.575,-13.749 -3.125,-3.335 -10.333,-5.226 -10.333,-5.226 l -2.2,-20.22 7.042,-5.06 3.639,-14.821 -1.097,-1.095 -31.286,-15.456 3.864,34.649 L 0,-56.718 0,0 Z"
             style="fill:#c7c8ca;fill-opacity:1;fill-rule:nonzero;stroke:none"
             id="path3608"
              /></g><g
           id="g3610"
           transform="translate(463.1575,705.6422)"><path
             d="m 0,0 -0.966,-44.811 2.742,-33.524 -1.932,-21.917 0.68,-17.409 2.193,-2.578 29.117,0 2.193,2.578 0.679,17.409 -1.932,21.917 2.742,33.524 L 34.55,0 0,0 Z"
             style="fill:#c7c8ca;fill-opacity:1;fill-rule:nonzero;stroke:none"
             id="path3612"
              /></g><g
           id="g3614"
           transform="translate(458.2444,692.6107)"><path
             d="m 0,0 c -0.021,-0.288 0.162,-1 0.343,-1.413 0.285,-0.619 1.116,-1.655 3.01,-1.817 0.101,-0.007 0.73,-0.044 0.82,-0.022 1.611,-2.244 4.141,-4.28 7.074,-5.809 0.858,-0.797 1.78,-1.502 2.761,-2.092 l 0.458,-2.97 1.835,-1.253 10.492,0 1.836,1.253 0.456,2.97 c 0.676,0.407 1.325,0.866 1.944,1.373 3.559,1.574 6.685,3.912 8.562,6.528 0.09,-0.022 0.718,0.015 0.821,0.022 1.894,0.162 2.724,1.198 3.009,1.817 0.181,0.413 0.364,1.125 0.344,1.413 1.936,1.066 3.474,2.287 4.509,3.603 l -4.762,8.07 c 0,0 -11.566,9.282 -21.965,9.282 -10.399,0 -21.294,-9.282 -21.294,-9.282 L -4.509,3.603 C -3.476,2.287 -1.936,1.066 0,0"
             style="fill:#c7c8ca;fill-opacity:1;fill-rule:nonzero;stroke:none"
             id="path3616"
              /></g><g
           id="g3618"
           transform="translate(479.77,694.3191)"><path
             d="m 0,0 c -2.862,0 -5.58,-0.583 -8.032,-1.622 0.553,-1.616 1.237,-3.053 2.021,-4.263 1.028,0.299 2.104,0.535 3.222,0.686 0.342,0.04 0.693,1.672 1.043,1.704 0.669,0.048 3.367,0.048 4.012,0 0.351,-0.032 0.7,-1.656 1.044,-1.704 0.962,-0.127 1.885,-0.326 2.783,-0.561 0.75,1.183 1.405,2.578 1.938,4.138 C 5.579,-0.583 2.86,0 0,0"
             style="fill:#c7c8ca;fill-opacity:1;fill-rule:nonzero;stroke:none"
             id="path3620"
              /></g><g
           id="g3622"
           transform="translate(470.3082,699.6537)"><path
             d="m 0,0 c 0.171,-1.927 0.499,-3.753 0.958,-5.427 2.607,1.08 5.479,1.685 8.504,1.685 3.023,0 5.897,-0.605 8.502,-1.685 0.46,1.674 0.788,3.5 0.959,5.427 C 16.117,1.46 12.891,2.292 9.462,2.292 6.032,2.292 2.806,1.46 0,0"
             style="fill:#c7c8ca;fill-opacity:1;fill-rule:nonzero;stroke:none"
             id="path3624"
              /></g><g
           id="g3626"
           transform="translate(470.1987,701.3745)"><path
             d="m 0,0 c 2.877,1.38 6.128,2.164 9.571,2.164 3.443,0 6.694,-0.784 9.569,-2.164 0.018,0.452 0.031,0.908 0.031,1.368 0,1.552 -0.102,3.058 -0.292,4.499 -0.872,0.396 -1.79,0.745 -2.759,1.023 -0.581,0.175 -1.187,0.319 -1.8,0.43 -0.406,0.096 -0.827,0.16 -1.249,0.215 -0.183,0.024 -0.358,2.436 -0.541,2.46 -0.589,0.063 -1.186,0.111 -1.791,0.128 -0.279,0.015 -1.537,0.015 -1.815,0 C 8.318,10.106 7.722,10.058 7.133,9.995 6.949,9.971 6.776,7.559 6.591,7.535 6.17,7.471 5.747,7.408 5.341,7.32 4.73,7.201 4.125,7.058 3.543,6.89 3.001,6.739 2.476,6.564 1.966,6.373 1.362,6.144 0.788,5.881 0.232,5.603 0.062,4.243 -0.029,2.826 -0.029,1.368 -0.029,0.908 -0.017,0.452 0,0"
             style="fill:#c7c8ca;fill-opacity:1;fill-rule:nonzero;stroke:none"
             id="path3628"
              /></g><g
           id="g3630"
           transform="translate(490.7489,698.7812)"><path
             d="m 0,0 c -0.202,-1.856 -0.545,-3.607 -1.006,-5.228 0.992,-0.502 1.929,-1.082 2.819,-1.72 0.047,0.091 0.095,0.18 0.141,0.273 0.617,1.257 1.144,2.52 1.59,3.782 C 2.491,-1.803 1.302,-0.83 0,0"
             style="fill:#c7c8ca;fill-opacity:1;fill-rule:nonzero;stroke:none"
             id="path3632"
              /></g><g
           id="g3634"
           transform="translate(467.3573,692.106)"><path
             d="M 0,0 C 0.002,-0.005 0.004,-0.009 0.006,-0.013 0.783,0.52 1.587,1.017 2.438,1.447 1.977,3.068 1.634,4.819 1.433,6.675 0.287,5.945 -0.766,5.099 -1.72,4.163 -1.249,2.776 -0.68,1.384 0,0"
             style="fill:#c7c8ca;fill-opacity:1;fill-rule:nonzero;stroke:none"
             id="path3636"
              /></g><g
           id="g3638"
           transform="translate(476.1608,684.9844)"><path
             d="m 0,0 7.694,0 0.796,-3.583 -9.286,0 L 0,0 Z"
             style="fill:#c7c8ca;fill-opacity:1;fill-rule:nonzero;stroke:none"
             id="path3640"
              /></g></g><g
         id="g3642"
         transform="translate(439.1839,410.9971)"><path
           d="m 0,0 26.003,-1.645 2.741,0 0,-0.797 1.667,-1.646 24.625,0 1.668,1.646 0,0.797 2.742,0 26.53,1.645 2.193,2.742 2.737,35.098 -1.646,1.646 c 0,0 -21.039,2.705 -24.879,3.253 C 63.843,50.827 53.497,54.923 42.987,55.059 32.12,55.199 21.075,51.103 20.518,42.739 16.68,42.191 -3.287,39.486 -3.287,39.486 L -4.932,37.84 -2.194,2.742 0,0 Z"
           style="fill:#c7c8ca;fill-opacity:1;fill-rule:nonzero;stroke:none"
           id="path3644"
            /></g><g
         id="g3646"
         transform="translate(467.928,409.591)"><path
           d="m 0,0 0,16.999 c -7.677,4.935 -8.226,27.146 -8.226,27.146"
           style="fill:#c7c8ca;fill-opacity:1;fill-rule:nonzero;stroke:none"
           id="path3648"
            /></g><g
         transform="translate(7.6,0)"
         id="g807"><g
           id="g4102"
           transform="translate(415.5197,604.0424)"><path
             d="M 0,0 1.145,-3.442 C 0.94,-2.829 0.955,-2.196 1.142,-1.629 0.625,-1.212 0.219,-0.661 0,0 Z"
             style="fill:none;stroke:#000000;stroke-width:1.449;stroke-linecap:butt;stroke-linejoin:miter;stroke-miterlimit:4;stroke-dasharray:none;stroke-opacity:1"
             id="path4104"
              /></g><g
           id="g4106"
           transform="translate(416.1056,598.801)"><path
             d="m 0,0 1.692,-0.873 c 0.101,0.345 0.33,0.648 0.663,0.831 l 0.033,0.017 C 1.559,0.243 0.859,0.895 0.558,1.799 L 0.684,1.416 C 0.829,0.979 0.55,0.456 0,0 Z"
             style="fill:none;stroke:#000000;stroke-width:1.449;stroke-linecap:butt;stroke-linejoin:miter;stroke-miterlimit:4;stroke-dasharray:none;stroke-opacity:1"
             id="path4108"
              /></g><g
           id="g4110"
           transform="translate(421.6214,612.0562)"><path
             d="m 0,0 -5.458,6.165 -12.283,-4.083 0.513,-11.8 2.621,0.871 2.453,-7.377 c 0.135,-0.411 0.43,-0.77 0.859,-0.977 l 6.162,-2.964 c 0.85,-0.41 1.894,-0.062 2.33,0.775 0.082,0.157 0.127,0.323 0.158,0.487 0.254,0.012 0.511,0.074 0.752,0.203 l 3.06,1.634 c 0.845,0.45 1.168,1.477 0.721,2.292 -0.184,0.339 -0.477,0.581 -0.811,0.724 0.297,0.425 0.352,1 0.087,1.495 -0.212,0.395 -0.58,0.643 -0.98,0.721 0.299,0.639 0.366,1.395 0.122,2.127 -0.006,0.02 -0.015,0.038 -0.022,0.059 1.369,1 2.03,2.695 1.508,4.26 l -1.194,3.592 c -0.202,0.61 -0.561,1.128 -1.023,1.534 L 0,0 Z"
             style="fill:#ffffff;fill-opacity:1;fill-rule:nonzero;stroke:none"
             id="path4112"
              /></g><g
           id="g4114"
           transform="translate(421.6214,612.0562)"><path
             d="m 0,0 -5.458,6.165 -12.283,-4.083 0.513,-11.8 2.621,0.871 2.453,-7.377 c 0.135,-0.411 0.43,-0.77 0.859,-0.977 l 6.162,-2.964 c 0.85,-0.41 1.894,-0.062 2.33,0.775 0.082,0.157 0.127,0.323 0.158,0.487 0.254,0.012 0.511,0.074 0.752,0.203 l 3.06,1.634 c 0.845,0.45 1.168,1.477 0.721,2.292 -0.184,0.339 -0.477,0.581 -0.811,0.724 0.297,0.425 0.352,1 0.087,1.495 -0.212,0.395 -0.58,0.643 -0.98,0.721 0.299,0.639 0.366,1.395 0.122,2.127 -0.006,0.02 -0.015,0.038 -0.022,0.059 1.369,1 2.03,2.695 1.508,4.26 l -1.194,3.592 c -0.202,0.61 -0.561,1.128 -1.023,1.534 L 0,0 Z"
             style="fill:none;stroke:#000000;stroke-width:1.449;stroke-linecap:butt;stroke-linejoin:miter;stroke-miterlimit:4;stroke-dasharray:none;stroke-opacity:1"
             id="path4116"
              /></g><g
           id="g4118"
           transform="translate(421.1714,597.9435)"><path
             d="M 0,0 C 0.844,0.45 1.89,0.155 2.338,-0.662 2.785,-1.476 2.462,-2.504 1.617,-2.954 l -3.06,-1.634 c -0.846,-0.452 -1.893,-0.154 -2.339,0.66 -0.447,0.816 -0.124,1.843 0.721,2.294 L 0,0 Z"
             style="fill:#ffffff;fill-opacity:1;fill-rule:nonzero;stroke:none"
             id="path4120"
              /></g><g
           id="g4122"
           transform="translate(421.1714,597.9435)"><path
             d="M 0,0 C 0.844,0.45 1.89,0.155 2.338,-0.662 2.785,-1.476 2.462,-2.504 1.617,-2.954 l -3.06,-1.634 c -0.846,-0.452 -1.893,-0.154 -2.339,0.66 -0.447,0.816 -0.124,1.843 0.721,2.294 L 0,0 Z"
             style="fill:none;stroke:#000000;stroke-width:1.449;stroke-linecap:butt;stroke-linejoin:miter;stroke-miterlimit:4;stroke-dasharray:none;stroke-opacity:1"
             id="path4124"
              /></g><g
           id="g4126"
           transform="translate(418.0687,594.922)"><path
             d="M 0,0 C 0.849,-0.409 1.185,-1.419 0.749,-2.256 0.313,-3.093 -0.73,-3.441 -1.581,-3.031 l -6.162,2.965 c -0.85,0.41 -1.185,1.42 -0.749,2.258 0.436,0.838 1.479,1.184 2.33,0.776 L 0,0 Z"
             style="fill:#ffffff;fill-opacity:1;fill-rule:nonzero;stroke:none"
             id="path4128"
              /></g><g
           id="g4130"
           transform="translate(418.0687,594.922)"><path
             d="M 0,0 C 0.849,-0.409 1.185,-1.419 0.749,-2.256 0.313,-3.093 -0.73,-3.441 -1.581,-3.031 l -6.162,2.965 c -0.85,0.41 -1.185,1.42 -0.749,2.258 0.436,0.838 1.479,1.184 2.33,0.776 L 0,0 Z"
             style="fill:none;stroke:#000000;stroke-width:1.449;stroke-linecap:butt;stroke-linejoin:miter;stroke-miterlimit:4;stroke-dasharray:none;stroke-opacity:1"
             id="path4132"
              /></g><g
           id="g4134"
           transform="translate(416.0593,598.0162)"><path
             d="m 0,0 c 0.293,-0.882 -0.946,-2.087 -2.764,-2.691 -1.819,-0.607 -3.532,-0.382 -3.824,0.5 l -3.187,9.577 c -0.293,0.882 0.945,2.088 2.766,2.692 1.821,0.606 3.531,0.38 3.824,-0.502 L 0,0 Z"
             style="fill:#ffffff;fill-opacity:1;fill-rule:nonzero;stroke:none"
             id="path4136"
              /></g><g
           id="g4138"
           transform="translate(416.0593,598.0162)"><path
             d="m 0,0 c 0.293,-0.882 -0.946,-2.087 -2.764,-2.691 -1.819,-0.607 -3.532,-0.382 -3.824,0.5 l -3.187,9.577 c -0.293,0.882 0.945,2.088 2.766,2.692 1.821,0.606 3.531,0.38 3.824,-0.502 L 0,0 Z"
             style="fill:none;stroke:#000000;stroke-width:1.449;stroke-linecap:butt;stroke-linejoin:miter;stroke-miterlimit:4;stroke-dasharray:none;stroke-opacity:1"
             id="path4140"
              /></g><g
           id="g4142"
           transform="translate(420.8978,600.0887)"><path
             d="m 0,0 c 0.672,0.366 1.518,0.103 1.888,-0.587 0.37,-0.69 0.124,-1.549 -0.549,-1.916 l -2.437,-1.33 c -0.672,-0.367 -1.518,-0.105 -1.887,0.586 -0.37,0.691 -0.124,1.549 0.549,1.918 L 0,0 Z"
             style="fill:#ffffff;fill-opacity:1;fill-rule:nonzero;stroke:none"
             id="path4144"
              /></g><g
           id="g4146"
           transform="translate(420.8978,600.0887)"><path
             d="m 0,0 c 0.672,0.366 1.518,0.103 1.888,-0.587 0.37,-0.69 0.124,-1.549 -0.549,-1.916 l -2.437,-1.33 c -0.672,-0.367 -1.518,-0.105 -1.887,0.586 -0.37,0.691 -0.124,1.549 0.549,1.918 L 0,0 Z"
             style="fill:none;stroke:#000000;stroke-width:1.449;stroke-linecap:butt;stroke-linejoin:miter;stroke-miterlimit:4;stroke-dasharray:none;stroke-opacity:1"
             id="path4148"
              /></g><g
           id="g4150"
           transform="translate(418.446,597.5945)"><path
             d="M 0,0 C 0.689,-0.355 0.972,-1.209 0.634,-1.906 0.293,-2.602 -0.54,-2.879 -1.229,-2.524 l -4.988,2.573 c -0.688,0.356 -0.971,1.209 -0.634,1.905 0.338,0.698 1.172,0.974 1.862,0.619 L 0,0 Z"
             style="fill:#ffffff;fill-opacity:1;fill-rule:nonzero;stroke:none"
             id="path4152"
              /></g><g
           id="g4154"
           transform="translate(418.446,597.5945)"><path
             d="M 0,0 C 0.689,-0.355 0.972,-1.209 0.634,-1.906 0.293,-2.602 -0.54,-2.879 -1.229,-2.524 l -4.988,2.573 c -0.688,0.356 -0.971,1.209 -0.634,1.905 0.338,0.698 1.172,0.974 1.862,0.619 L 0,0 Z"
             style="fill:none;stroke:#000000;stroke-width:1.449;stroke-linecap:butt;stroke-linejoin:miter;stroke-miterlimit:4;stroke-dasharray:none;stroke-opacity:1"
             id="path4156"
              /></g><g
           id="g4158"
           transform="translate(416.7895,600.2172)"><path
             d="m 0,0 c 0.249,-0.743 -0.73,-1.738 -2.182,-2.22 -1.456,-0.484 -2.833,-0.272 -3.08,0.47 L -7.95,6.335 c -0.248,0.744 0.729,1.739 2.183,2.223 1.453,0.483 2.833,0.271 3.081,-0.474 L 0,0 Z"
             style="fill:#ffffff;fill-opacity:1;fill-rule:nonzero;stroke:none"
             id="path4160"
              /></g><g
           id="g4162"
           transform="translate(416.7895,600.2172)"><path
             d="m 0,0 c 0.249,-0.743 -0.73,-1.738 -2.182,-2.22 -1.456,-0.484 -2.833,-0.272 -3.08,0.47 L -7.95,6.335 c -0.248,0.744 0.729,1.739 2.183,2.223 1.453,0.483 2.833,0.271 3.081,-0.474 L 0,0 Z"
             style="fill:none;stroke:#000000;stroke-width:1.449;stroke-linecap:butt;stroke-linejoin:miter;stroke-miterlimit:4;stroke-dasharray:none;stroke-opacity:1"
             id="path4164"
              /></g><g
           id="g4166"
           transform="translate(421.928,602.3491)"><path
             d="m 0,0 c 0.494,-1.489 -0.282,-3.086 -1.737,-3.569 -1.453,-0.483 -3.034,0.331 -3.527,1.82 -0.495,1.487 0.282,3.086 1.736,3.569 C -2.075,2.304 -0.496,1.488 0,0"
             style="fill:#ffffff;fill-opacity:1;fill-rule:nonzero;stroke:none"
             id="path4168"
              /></g><g
           id="g4170"
           transform="translate(421.928,602.3491)"><path
             d="m 0,0 c 0.494,-1.489 -0.282,-3.086 -1.737,-3.569 -1.453,-0.483 -3.034,0.331 -3.527,1.82 -0.495,1.487 0.282,3.086 1.736,3.569 C -2.075,2.304 -0.496,1.488 0,0 Z"
             style="fill:none;stroke:#000000;stroke-width:1.449;stroke-linecap:butt;stroke-linejoin:miter;stroke-miterlimit:4;stroke-dasharray:none;stroke-opacity:1"
             id="path4172"
              /></g><g
           id="g4174"
           transform="translate(423.4138,606.6678)"><path
             d="m 0,0 c 0.661,-1.984 -0.572,-4.181 -2.753,-4.905 -2.18,-0.726 -4.481,0.296 -5.141,2.279 l -1.194,3.593 c -0.661,1.984 0.572,4.18 2.752,4.905 2.18,0.726 4.481,-0.295 5.142,-2.279 L 0,0 Z"
             style="fill:#ffffff;fill-opacity:1;fill-rule:nonzero;stroke:none"
             id="path4176"
              /></g><g
           id="g4178"
           transform="translate(423.4138,606.6678)"><path
             d="m 0,0 c 0.661,-1.984 -0.572,-4.181 -2.753,-4.905 -2.18,-0.726 -4.481,0.296 -5.141,2.279 l -1.194,3.593 c -0.661,1.984 0.572,4.18 2.752,4.905 2.18,0.726 4.481,-0.295 5.142,-2.279 L 0,0 Z"
             style="fill:none;stroke:#000000;stroke-width:1.449;stroke-linecap:butt;stroke-linejoin:miter;stroke-miterlimit:4;stroke-dasharray:none;stroke-opacity:1"
             id="path4180"
              /></g><g
           id="g4182"
           transform="translate(404.3937,602.3386)"><path
             d="M 0,0 3.072,1.02 17.228,9.718 11.77,15.883 -0.513,11.8 0,0 Z"
             style="fill:#ffffff;fill-opacity:1;fill-rule:nonzero;stroke:none"
             id="path4184"
              /></g><g
           id="g4186"
           transform="translate(404.3937,602.3386)"><path
             d="M 0,0 3.072,1.02 17.228,9.718 11.77,15.883 -0.513,11.8 0,0 Z"
             style="fill:none;stroke:#000000;stroke-width:1.449;stroke-linecap:butt;stroke-linejoin:miter;stroke-miterlimit:4;stroke-dasharray:none;stroke-opacity:1"
             id="path4188"
              /></g><g
           id="g4190"
           transform="translate(441.0621,701.0698)"><path
             d="m 0,0 -1.364,11.937 c 0,0 -4.929,7.242 -20.403,3.586 -15.475,-3.657 -23.767,-23.184 -23.767,-23.184 l -1.635,-9.569 5.422,-1.413 6.927,3.598 -12.197,-22.773 0.949,-1.734 1.092,-0.097 -0.048,-0.545 -1.687,-0.404 -0.095,-1.092 1.59,-0.69 -0.046,-0.547 -1.092,0.095 -1.784,-1.494 0.715,-34.205 8.456,-10.078 16.023,4.355 1.781,4.787 -2.809,29.077 -0.95,1.735 -1.094,0.095 0.049,0.548 1.687,0.403 0.096,1.092 -1.593,0.69 0.049,0.546 1.093,-0.096 1.236,1.544 9.105,14.015 10.062,-0.238 -0.322,18.114 -7.111,0 0,6.696 4.2,4.168 L 0,0 Z"
             style="fill:#ffffff;fill-opacity:1;fill-rule:nonzero;stroke:none"
             id="path4192"
              /></g><g
           id="armorOutlineLA"
           transform="translate(441.0621,701.0698)"><path
             d="m 0,0 -1.364,11.937 c 0,0 -4.929,7.242 -20.403,3.586 -15.475,-3.657 -23.767,-23.184 -23.767,-23.184 l -1.635,-9.569 5.422,-1.413 6.927,3.598 -12.197,-22.773 0.949,-1.734 1.092,-0.097 -0.048,-0.545 -1.687,-0.404 -0.095,-1.092 1.59,-0.69 -0.046,-0.547 -1.092,0.095 -1.784,-1.494 0.715,-34.205 8.456,-10.078 16.023,4.355 1.781,4.787 -2.809,29.077 -0.95,1.735 -1.094,0.095 0.049,0.548 1.687,0.403 0.096,1.092 -1.593,0.69 0.049,0.546 1.093,-0.096 1.236,1.544 9.105,14.015 10.062,-0.238 -0.322,18.114 -7.111,0 0,6.696 4.2,4.168 L 0,0 Z"
             style="fill:none;stroke:#000000;stroke-width:1.449;stroke-linecap:butt;stroke-linejoin:miter;stroke-miterlimit:4;stroke-dasharray:none;stroke-opacity:1"
             id="path4196"
              /></g><g
           id="g4198"
           transform="translate(493.6233,484.1367)"><path
             d="m 0,0 -1.06,2.742 -3.596,1.645 -1.33,7.13 2.032,0.548 0.271,7.677 2.512,1.097 3.057,7.13 -2.415,30.712 -0.905,1.096 0.568,16.545 -0.957,2.194 -0.167,3.838 -1.884,5.484 3.663,42.665 -33.274,0 3.663,-42.665 -1.882,-5.484 -0.168,-3.838 -0.958,-2.194 0.569,-16.545 -0.906,-1.096 -2.415,-30.712 3.058,-7.13 2.512,-1.097 0.271,-7.677 2.032,-0.548 -1.329,-7.13 -3.598,-1.645 -1.06,-2.742 -1.951,-1.645 -0.82,-4.388 11.265,0 16.708,0 11.265,0 L 1.953,-1.645 0,0 Z"
             style="fill:#ffffff;fill-opacity:1;fill-rule:nonzero;stroke:none"
             id="path4200"
              /></g><g
           id="armorOutlineCL"
           transform="translate(493.6233,484.1367)"><path
             d="m 0,0 -1.06,2.742 -3.596,1.645 -1.33,7.13 2.032,0.548 0.271,7.677 2.512,1.097 3.057,7.13 -2.415,30.712 -0.905,1.096 0.568,16.545 -0.957,2.194 -0.167,3.838 -1.884,5.484 3.663,42.665 -33.274,0 3.663,-42.665 -1.882,-5.484 -0.168,-3.838 -0.958,-2.194 0.569,-16.545 -0.906,-1.096 -2.415,-30.712 3.058,-7.13 2.512,-1.097 0.271,-7.677 2.032,-0.548 -1.329,-7.13 -3.598,-1.645 -1.06,-2.742 -1.951,-1.645 -0.82,-4.388 11.265,0 16.708,0 11.265,0 L 1.953,-1.645 0,0 Z"
             style="fill:none;stroke:#000000;stroke-width:1.449;stroke-linecap:butt;stroke-linejoin:miter;stroke-miterlimit:4;stroke-dasharray:none;stroke-opacity:1"
             id="path4204"
              /></g><g
           id="g4206"
           transform="translate(410.2256,579.1047)"><path
             d="m 0,0 -4.418,0 -0.728,-10.968 1.543,-22.029 -1.548,-1.318 -8.328,-27.749 0.485,-3.838 4.14,-4.388 -1.321,-12.612 4.681,-2.195 -1.682,-3.839 -9.832,-4.386 -0.733,-2.742 -2.046,-1.098 0.514,-3.839 1.097,0 45.518,0 -0.587,4.387 -1.865,1.646 -0.915,2.741 -3.509,1.645 -0.954,7.13 2.063,0.55 0.677,7.677 6.434,1.096 3.435,7.13 -4.652,30.711 -0.847,1.097 1.445,16.544 -0.841,2.195 0.035,3.838 1.975,1.646 2.45,2.193 0.473,0.548 L 31.465,-7.13 69.133,26.78 37.389,35.534 0,0 Z"
             style="fill:#ffffff;fill-opacity:1;fill-rule:nonzero;stroke:none"
             id="path4208"
              /></g><g
           id="armorOutlineLL"
           transform="translate(410.2256,579.1047)"><path
             d="m 0,0 -4.418,0 -0.728,-10.968 1.543,-22.029 -1.548,-1.318 -8.328,-27.749 0.485,-3.838 4.14,-4.388 -1.321,-12.612 4.681,-2.195 -1.682,-3.839 -9.832,-4.386 -0.733,-2.742 -2.046,-1.098 0.514,-3.839 1.097,0 45.518,0 -0.587,4.387 -1.865,1.646 -0.915,2.741 -3.509,1.645 -0.954,7.13 2.063,0.55 0.677,7.677 6.434,1.096 3.435,7.13 -4.652,30.711 -0.847,1.097 1.445,16.544 -0.841,2.195 0.035,3.838 1.975,1.646 2.45,2.193 0.473,0.548 L 31.465,-7.13 69.133,26.78 37.389,35.534 0,0 Z"
             style="fill:none;stroke:#000000;stroke-width:1.449;stroke-linecap:butt;stroke-linejoin:miter;stroke-miterlimit:4;stroke-dasharray:none;stroke-opacity:1"
             id="path4212"
              /></g><g
           id="g4214"
           transform="translate(543.3251,579.1047)"><path
             d="m 0,0 4.418,0 0.728,-10.968 -1.541,-22.029 1.547,-1.318 8.328,-27.749 -0.485,-3.838 -4.14,-4.388 1.32,-12.612 -4.679,-2.195 1.68,-3.839 9.833,-4.386 0.732,-2.742 2.046,-1.098 -0.513,-3.839 -1.097,0 -45.519,0 0.588,4.387 1.864,1.646 0.915,2.741 3.51,1.645 0.953,7.13 -2.063,0.55 -0.676,7.677 -6.435,1.096 -3.435,7.13 4.653,30.711 0.846,1.097 -1.445,16.544 0.841,2.195 -0.036,3.838 -1.974,1.646 -2.449,2.193 -0.474,0.548 0.694,1.097 -37.667,33.91 31.744,8.754 L 0,0 Z"
             style="fill:#ffffff;fill-opacity:1;fill-rule:nonzero;stroke:none"
             id="path4216"
              /></g><g
           id="armorOutlineRL"
           transform="translate(543.3251,579.1047)"><path
             d="m 0,0 4.418,0 0.728,-10.968 -1.541,-22.029 1.547,-1.318 8.328,-27.749 -0.485,-3.838 -4.14,-4.388 1.32,-12.612 -4.679,-2.195 1.68,-3.839 9.833,-4.386 0.732,-2.742 2.046,-1.098 -0.513,-3.839 -1.097,0 -45.519,0 0.588,4.387 1.864,1.646 0.915,2.741 3.51,1.645 0.953,7.13 -2.063,0.55 -0.676,7.677 -6.435,1.096 -3.435,7.13 4.653,30.711 0.846,1.097 -1.445,16.544 0.841,2.195 -0.036,3.838 -1.974,1.646 -2.449,2.193 -0.474,0.548 0.694,1.097 -37.667,33.91 31.744,8.754 L 0,0 Z"
             style="fill:none;stroke:#000000;stroke-width:1.449;stroke-linecap:butt;stroke-linejoin:miter;stroke-miterlimit:4;stroke-dasharray:none;stroke-opacity:1"
             id="path4220"
              /></g><g
           id="g4222"
           transform="translate(459.5426,710.3137)"><path
             d="m 0,0 -6.033,-9.66 -23.926,-6.474 -0.244,-28.123 c 0,0 -0.551,-10.415 2.573,-13.749 3.127,-3.335 10.335,-5.226 10.335,-5.226 l 2.199,-20.22 -7.041,-5.06 -3.64,-14.821 1.098,-1.095 L 6.606,-119.884 2.742,-85.235 0,-56.718 0,0 Z"
             style="fill:#ffffff;fill-opacity:1;fill-rule:nonzero;stroke:none"
             id="path4224"
              /></g><g
           id="armorOutlineLT"
           transform="translate(459.5426,710.3137)"><path
             d="m 0,0 -6.033,-9.66 -23.926,-6.474 -0.244,-28.123 c 0,0 -0.551,-10.415 2.573,-13.749 3.127,-3.335 10.335,-5.226 10.335,-5.226 l 2.199,-20.22 -7.041,-5.06 -3.64,-14.821 1.098,-1.095 L 6.606,-119.884 2.742,-85.235 0,-56.718 0,0 Z"
             style="fill:none;stroke:#000000;stroke-width:1.449;stroke-linecap:butt;stroke-linejoin:miter;stroke-miterlimit:4;stroke-dasharray:none;stroke-opacity:1"
             id="path4228"
              /></g><g
           id="g4230"
           transform="translate(537.4555,604.0424)"><path
             d="m 0,0 -1.145,-3.442 c 0.204,0.613 0.19,1.246 0.002,1.813 C -0.625,-1.212 -0.219,-0.661 0,0 Z"
             style="fill:none;stroke:#000000;stroke-width:1.449;stroke-linecap:butt;stroke-linejoin:miter;stroke-miterlimit:4;stroke-dasharray:none;stroke-opacity:1"
             id="path4232"
              /></g><g
           id="g4234"
           transform="translate(536.8697,598.801)"><path
             d="m 0,0 -1.692,-0.873 c -0.102,0.345 -0.331,0.648 -0.665,0.831 l -0.032,0.017 c 0.829,0.268 1.53,0.92 1.831,1.824 L -0.685,1.416 C -0.83,0.979 -0.551,0.456 0,0 Z"
             style="fill:none;stroke:#000000;stroke-width:1.449;stroke-linecap:butt;stroke-linejoin:miter;stroke-miterlimit:4;stroke-dasharray:none;stroke-opacity:1"
             id="path4236"
              /></g><g
           id="g4238"
           transform="translate(531.7794,611.7939)"><path
             d="m 0,0 c -0.463,-0.406 -0.822,-0.924 -1.025,-1.534 l -1.194,-3.593 c -0.521,-1.565 0.14,-3.259 1.51,-4.26 -0.008,-0.019 -0.017,-0.038 -0.023,-0.058 -0.244,-0.731 -0.177,-1.487 0.122,-2.127 -0.401,-0.078 -0.768,-0.325 -0.98,-0.721 -0.265,-0.494 -0.209,-1.071 0.086,-1.495 -0.333,-0.144 -0.625,-0.385 -0.81,-0.723 -0.447,-0.816 -0.124,-1.843 0.721,-2.294 l 3.06,-1.633 c 0.241,-0.13 0.497,-0.19 0.752,-0.203 0.03,-0.164 0.077,-0.33 0.158,-0.487 0.437,-0.837 1.48,-1.184 2.331,-0.776 l 6.161,2.966 c 0.428,0.207 0.725,0.565 0.859,0.977 l 2.453,7.376 2.62,-0.87 L 17.315,2.344 5.032,6.427 -0.426,0.262 0,0 Z"
             style="fill:#ffffff;fill-opacity:1;fill-rule:nonzero;stroke:none"
             id="path4240"
              /></g><g
           id="g4242"
           transform="translate(531.7794,611.7939)"><path
             d="m 0,0 c -0.463,-0.406 -0.822,-0.924 -1.025,-1.534 l -1.194,-3.593 c -0.521,-1.565 0.14,-3.259 1.51,-4.26 -0.008,-0.019 -0.017,-0.038 -0.023,-0.058 -0.244,-0.731 -0.177,-1.487 0.122,-2.127 -0.401,-0.078 -0.768,-0.325 -0.98,-0.721 -0.265,-0.494 -0.209,-1.071 0.086,-1.495 -0.333,-0.144 -0.625,-0.385 -0.81,-0.723 -0.447,-0.816 -0.124,-1.843 0.721,-2.294 l 3.06,-1.633 c 0.241,-0.13 0.497,-0.19 0.752,-0.203 0.03,-0.164 0.077,-0.33 0.158,-0.487 0.437,-0.837 1.48,-1.184 2.331,-0.776 l 6.161,2.966 c 0.428,0.207 0.725,0.565 0.859,0.977 l 2.453,7.376 2.62,-0.87 L 17.315,2.344 5.032,6.427 -0.426,0.262 0,0 Z"
             style="fill:none;stroke:#000000;stroke-width:1.449;stroke-linecap:butt;stroke-linejoin:miter;stroke-miterlimit:4;stroke-dasharray:none;stroke-opacity:1"
             id="path4244"
              /></g><g
           id="g4246"
           transform="translate(531.804,597.9435)"><path
             d="m 0,0 c -0.845,0.45 -1.891,0.155 -2.338,-0.662 -0.447,-0.814 -0.124,-1.842 0.721,-2.292 l 3.06,-1.634 c 0.845,-0.452 1.893,-0.154 2.339,0.66 0.446,0.816 0.123,1.843 -0.722,2.294 L 0,0 Z"
             style="fill:#ffffff;fill-opacity:1;fill-rule:nonzero;stroke:none"
             id="path4248"
              /></g><g
           id="g4250"
           transform="translate(531.804,597.9435)"><path
             d="m 0,0 c -0.845,0.45 -1.891,0.155 -2.338,-0.662 -0.447,-0.814 -0.124,-1.842 0.721,-2.292 l 3.06,-1.634 c 0.845,-0.452 1.893,-0.154 2.339,0.66 0.446,0.816 0.123,1.843 -0.722,2.294 L 0,0 Z"
             style="fill:none;stroke:#000000;stroke-width:1.449;stroke-linecap:butt;stroke-linejoin:miter;stroke-miterlimit:4;stroke-dasharray:none;stroke-opacity:1"
             id="path4252"
              /></g><g
           id="g4254"
           transform="translate(534.9066,594.922)"><path
             d="m 0,0 c -0.849,-0.409 -1.185,-1.419 -0.75,-2.256 0.437,-0.837 1.48,-1.185 2.331,-0.775 l 6.161,2.965 C 8.594,0.344 8.928,1.354 8.491,2.192 8.055,3.03 7.012,3.376 6.161,2.968 L 0,0 Z"
             style="fill:#ffffff;fill-opacity:1;fill-rule:nonzero;stroke:none"
             id="path4256"
              /></g><g
           id="g4258"
           transform="translate(534.9066,594.922)"><path
             d="m 0,0 c -0.849,-0.409 -1.185,-1.419 -0.75,-2.256 0.437,-0.837 1.48,-1.185 2.331,-0.775 l 6.161,2.965 C 8.594,0.344 8.928,1.354 8.491,2.192 8.055,3.03 7.012,3.376 6.161,2.968 L 0,0 Z"
             style="fill:none;stroke:#000000;stroke-width:1.449;stroke-linecap:butt;stroke-linejoin:miter;stroke-miterlimit:4;stroke-dasharray:none;stroke-opacity:1"
             id="path4260"
              /></g><g
           id="g4262"
           transform="translate(536.916,598.0162)"><path
             d="m 0,0 c -0.294,-0.882 0.944,-2.087 2.763,-2.691 1.819,-0.607 3.532,-0.382 3.824,0.5 L 9.774,7.386 C 10.067,8.268 8.829,9.474 7.009,10.078 5.188,10.684 3.478,10.458 3.184,9.576 L 0,0 Z"
             style="fill:#ffffff;fill-opacity:1;fill-rule:nonzero;stroke:none"
             id="path4264"
              /></g><g
           id="g4266"
           transform="translate(536.916,598.0162)"><path
             d="m 0,0 c -0.294,-0.882 0.944,-2.087 2.763,-2.691 1.819,-0.607 3.532,-0.382 3.824,0.5 L 9.774,7.386 C 10.067,8.268 8.829,9.474 7.009,10.078 5.188,10.684 3.478,10.458 3.184,9.576 L 0,0 Z"
             style="fill:none;stroke:#000000;stroke-width:1.449;stroke-linecap:butt;stroke-linejoin:miter;stroke-miterlimit:4;stroke-dasharray:none;stroke-opacity:1"
             id="path4268"
              /></g><g
           id="g4270"
           transform="translate(532.0775,600.0887)"><path
             d="m 0,0 c -0.673,0.366 -1.518,0.103 -1.888,-0.587 -0.371,-0.69 -0.124,-1.549 0.548,-1.916 l 2.438,-1.33 c 0.672,-0.367 1.517,-0.105 1.887,0.586 0.37,0.691 0.124,1.549 -0.55,1.918 L 0,0 Z"
             style="fill:#ffffff;fill-opacity:1;fill-rule:nonzero;stroke:none"
             id="path4272"
              /></g><g
           id="g4274"
           transform="translate(532.0775,600.0887)"><path
             d="m 0,0 c -0.673,0.366 -1.518,0.103 -1.888,-0.587 -0.371,-0.69 -0.124,-1.549 0.548,-1.916 l 2.438,-1.33 c 0.672,-0.367 1.517,-0.105 1.887,0.586 0.37,0.691 0.124,1.549 -0.55,1.918 L 0,0 Z"
             style="fill:none;stroke:#000000;stroke-width:1.449;stroke-linecap:butt;stroke-linejoin:miter;stroke-miterlimit:4;stroke-dasharray:none;stroke-opacity:1"
             id="path4276"
              /></g><g
           id="g4278"
           transform="translate(534.5283,597.5945)"><path
             d="m 0,0 c -0.689,-0.355 -0.972,-1.209 -0.634,-1.906 0.341,-0.696 1.174,-0.973 1.862,-0.618 l 4.99,2.573 C 6.905,0.405 7.189,1.258 6.851,1.954 6.513,2.652 5.679,2.928 4.99,2.573 L 0,0 Z"
             style="fill:#ffffff;fill-opacity:1;fill-rule:nonzero;stroke:none"
             id="path4280"
              /></g><g
           id="g4282"
           transform="translate(534.5283,597.5945)"><path
             d="m 0,0 c -0.689,-0.355 -0.972,-1.209 -0.634,-1.906 0.341,-0.696 1.174,-0.973 1.862,-0.618 l 4.99,2.573 C 6.905,0.405 7.189,1.258 6.851,1.954 6.513,2.652 5.679,2.928 4.99,2.573 L 0,0 Z"
             style="fill:none;stroke:#000000;stroke-width:1.449;stroke-linecap:butt;stroke-linejoin:miter;stroke-miterlimit:4;stroke-dasharray:none;stroke-opacity:1"
             id="path4284"
              /></g><g
           id="g4286"
           transform="translate(536.1848,600.2172)"><path
             d="m 0,0 c -0.249,-0.743 0.73,-1.738 2.183,-2.22 1.455,-0.484 2.832,-0.272 3.08,0.47 L 7.95,6.335 C 8.197,7.079 7.221,8.074 5.768,8.558 4.315,9.041 2.934,8.829 2.686,8.084 L 0,0 Z"
             style="fill:#ffffff;fill-opacity:1;fill-rule:nonzero;stroke:none"
             id="path4288"
              /></g><g
           id="g4290"
           transform="translate(536.1848,600.2172)"><path
             d="m 0,0 c -0.249,-0.743 0.73,-1.738 2.183,-2.22 1.455,-0.484 2.832,-0.272 3.08,0.47 L 7.95,6.335 C 8.197,7.079 7.221,8.074 5.768,8.558 4.315,9.041 2.934,8.829 2.686,8.084 L 0,0 Z"
             style="fill:none;stroke:#000000;stroke-width:1.449;stroke-linecap:butt;stroke-linejoin:miter;stroke-miterlimit:4;stroke-dasharray:none;stroke-opacity:1"
             id="path4292"
              /></g><g
           id="g4294"
           transform="translate(531.0474,602.3491)"><path
             d="m 0,0 c -0.495,-1.489 0.282,-3.086 1.736,-3.569 1.453,-0.483 3.033,0.331 3.528,1.82 C 5.759,-0.262 4.982,1.337 3.528,1.82 2.075,2.304 0.495,1.488 0,0"
             style="fill:#ffffff;fill-opacity:1;fill-rule:nonzero;stroke:none"
             id="path4296"
              /></g><g
           id="g4298"
           transform="translate(531.0474,602.3491)"><path
             d="m 0,0 c -0.495,-1.489 0.282,-3.086 1.736,-3.569 1.453,-0.483 3.033,0.331 3.528,1.82 C 5.759,-0.262 4.982,1.337 3.528,1.82 2.075,2.304 0.495,1.488 0,0 Z"
             style="fill:none;stroke:#000000;stroke-width:1.449;stroke-linecap:butt;stroke-linejoin:miter;stroke-miterlimit:4;stroke-dasharray:none;stroke-opacity:1"
             id="path4300"
              /></g><g
           id="g4302"
           transform="translate(529.5605,606.6678)"><path
             d="m 0,0 c -0.661,-1.984 0.572,-4.181 2.753,-4.905 2.18,-0.726 4.482,0.296 5.142,2.279 L 9.089,0.967 C 9.749,2.951 8.516,5.147 6.337,5.872 4.157,6.598 1.855,5.577 1.194,3.593 L 0,0 Z"
             style="fill:#ffffff;fill-opacity:1;fill-rule:nonzero;stroke:none"
             id="path4304"
              /></g><g
           id="g4306"
           transform="translate(529.5605,606.6678)"><path
             d="m 0,0 c -0.661,-1.984 0.572,-4.181 2.753,-4.905 2.18,-0.726 4.482,0.296 5.142,2.279 L 9.089,0.967 C 9.749,2.951 8.516,5.147 6.337,5.872 4.157,6.598 1.855,5.577 1.194,3.593 L 0,0 Z"
             style="fill:none;stroke:#000000;stroke-width:1.449;stroke-linecap:butt;stroke-linejoin:miter;stroke-miterlimit:4;stroke-dasharray:none;stroke-opacity:1"
             id="path4308"
              /></g><g
           id="g4310"
           transform="translate(548.5805,602.3386)"><path
             d="m 0,0 -3.072,1.02 -14.156,8.698 5.459,6.165 L 0.513,11.8 0,0 Z"
             style="fill:#ffffff;fill-opacity:1;fill-rule:nonzero;stroke:none"
             id="path4312"
              /></g><g
           id="g4314"
           transform="translate(548.5805,602.3386)"><path
             d="m 0,0 -3.072,1.02 -14.156,8.698 5.459,6.165 L 0.513,11.8 0,0 Z"
             style="fill:none;stroke:#000000;stroke-width:1.449;stroke-linecap:butt;stroke-linejoin:miter;stroke-miterlimit:4;stroke-dasharray:none;stroke-opacity:1"
             id="path4316"
              /></g><g
           id="g4318"
           transform="translate(511.9131,701.0698)"><path
             d="m 0,0 1.364,11.937 c 0,0 4.928,7.242 20.402,3.586 15.475,-3.657 23.767,-23.184 23.767,-23.184 l 1.636,-9.569 -5.422,-1.413 -6.927,3.598 12.197,-22.773 -0.949,-1.734 -1.093,-0.097 0.048,-0.545 1.687,-0.404 0.096,-1.092 -1.591,-0.69 0.046,-0.547 1.093,0.095 1.783,-1.494 -0.715,-34.205 -8.456,-10.078 -16.023,4.355 -1.781,4.787 2.81,29.077 0.95,1.735 1.093,0.095 -0.049,0.548 -1.687,0.403 -0.096,1.092 1.593,0.69 -0.049,0.546 -1.092,-0.096 -1.237,1.544 -9.104,14.015 -10.063,-0.238 0.323,18.114 7.11,0 0,6.696 L 7.466,-1.078 0,0 Z"
             style="fill:#ffffff;fill-opacity:1;fill-rule:nonzero;stroke:none"
             id="path4320"
              /></g><g
           id="armorOutlineRA"
           transform="translate(511.9131,701.0698)"><path
             d="m 0,0 1.364,11.937 c 0,0 4.928,7.242 20.402,3.586 15.475,-3.657 23.767,-23.184 23.767,-23.184 l 1.636,-9.569 -5.422,-1.413 -6.927,3.598 12.197,-22.773 -0.949,-1.734 -1.093,-0.097 0.048,-0.545 1.687,-0.404 0.096,-1.092 -1.591,-0.69 0.046,-0.547 1.093,0.095 1.783,-1.494 -0.715,-34.205 -8.456,-10.078 -16.023,4.355 -1.781,4.787 2.81,29.077 0.95,1.735 1.093,0.095 -0.049,0.548 -1.687,0.403 -0.096,1.092 1.593,0.69 -0.049,0.546 -1.092,-0.096 -1.237,1.544 -9.104,14.015 -10.063,-0.238 0.323,18.114 7.11,0 0,6.696 L 7.466,-1.078 0,0 Z"
             style="fill:none;stroke:#000000;stroke-width:1.449;stroke-linecap:butt;stroke-linejoin:miter;stroke-miterlimit:4;stroke-dasharray:none;stroke-opacity:1"
             id="path4324"
              /></g><g
           id="g4326"
           transform="translate(493.4318,710.3137)"><path
             d="m 0,0 6.034,-9.66 23.926,-6.474 0.244,-28.123 c 0,0 0.55,-10.415 -2.575,-13.749 -3.125,-3.335 -10.333,-5.226 -10.333,-5.226 l -2.2,-20.22 7.042,-5.06 3.639,-14.821 -1.097,-1.095 -31.286,-15.456 3.864,34.649 L 0,-56.718 0,0 Z"
             style="fill:#ffffff;fill-opacity:1;fill-rule:nonzero;stroke:none"
             id="path4328"
              /></g><g
           id="armorOutlineRT"
           transform="translate(493.4318,710.3137)"><path
             d="m 0,0 6.034,-9.66 23.926,-6.474 0.244,-28.123 c 0,0 0.55,-10.415 -2.575,-13.749 -3.125,-3.335 -10.333,-5.226 -10.333,-5.226 l -2.2,-20.22 7.042,-5.06 3.639,-14.821 -1.097,-1.095 -31.286,-15.456 3.864,34.649 L 0,-56.718 0,0 Z"
             style="fill:none;stroke:#000000;stroke-width:1.449;stroke-linecap:butt;stroke-linejoin:miter;stroke-miterlimit:4;stroke-dasharray:none;stroke-opacity:1"
             id="path4332"
              /></g><g
           id="g4334"
           transform="translate(459.2124,709.6703)"><path
             d="m 0,0 -0.966,-44.811 2.742,-33.524 -1.932,-21.917 0.68,-17.409 2.193,-2.578 29.117,0 2.193,2.578 0.679,17.409 -1.932,21.917 2.742,33.524 L 34.55,0 0,0 Z"
             style="fill:#ffffff;fill-opacity:1;fill-rule:nonzero;stroke:none"
             id="path4336"
              /></g><g
           id="armorOutlineCT"
           transform="translate(459.2124,709.6703)"><path
             d="m 0,0 -0.966,-44.811 2.742,-33.524 -1.932,-21.917 0.68,-17.409 2.193,-2.578 29.117,0 2.193,2.578 0.679,17.409 -1.932,21.917 2.742,33.524 L 34.55,0 0,0 Z"
             style="fill:none;stroke:#000000;stroke-width:1.449;stroke-linecap:butt;stroke-linejoin:miter;stroke-miterlimit:4;stroke-dasharray:none;stroke-opacity:1"
             id="path4340"
              /></g><g
           id="g4342"
           transform="translate(454.2993,696.6388)"><path
             d="m 0,0 c -0.02,-0.288 0.162,-1 0.343,-1.413 0.285,-0.619 1.116,-1.655 3.01,-1.817 0.101,-0.007 0.73,-0.044 0.82,-0.022 1.611,-2.245 4.142,-4.28 7.074,-5.809 0.858,-0.797 1.78,-1.502 2.761,-2.092 l 0.458,-2.97 1.835,-1.253 10.492,0 1.836,1.253 0.456,2.97 c 0.676,0.407 1.325,0.866 1.944,1.373 3.559,1.574 6.685,3.912 8.562,6.528 0.09,-0.022 0.719,0.015 0.821,0.022 1.894,0.162 2.724,1.198 3.009,1.817 0.181,0.413 0.364,1.125 0.344,1.413 1.936,1.066 3.474,2.287 4.509,3.603 l -4.762,8.07 c 0,0 -11.566,9.282 -21.965,9.282 -10.399,0 -21.294,-9.282 -21.294,-9.282 L -4.509,3.603 C -3.476,2.287 -1.936,1.066 0,0"
             style="fill:#ffffff;fill-opacity:1;fill-rule:nonzero;stroke:none"
             id="path4344"
              /></g><g
           id="armorOutlineHD"
           transform="translate(454.2993,696.6388)"><path
             d="m 0,0 c -0.02,-0.288 0.162,-1 0.343,-1.413 0.285,-0.619 1.116,-1.655 3.01,-1.817 0.101,-0.007 0.73,-0.044 0.82,-0.022 1.611,-2.245 4.142,-4.28 7.074,-5.809 0.858,-0.797 1.78,-1.502 2.761,-2.092 l 0.458,-2.97 1.835,-1.253 10.492,0 1.836,1.253 0.456,2.97 c 0.676,0.407 1.325,0.866 1.944,1.373 3.559,1.574 6.685,3.912 8.562,6.528 0.09,-0.022 0.719,0.015 0.821,0.022 1.894,0.162 2.724,1.198 3.009,1.817 0.181,0.413 0.364,1.125 0.344,1.413 1.936,1.066 3.474,2.287 4.509,3.603 l -4.762,8.07 c 0,0 -11.566,9.282 -21.965,9.282 -10.399,0 -21.294,-9.282 -21.294,-9.282 L -4.509,3.603 C -3.476,2.287 -1.936,1.066 0,0 Z"
             style="fill:none;stroke:#000000;stroke-width:1.449;stroke-linecap:butt;stroke-linejoin:miter;stroke-miterlimit:4;stroke-dasharray:none;stroke-opacity:1"
             id="path4348"
              /></g><g
           id="g4350"
           transform="translate(475.8249,698.3472)"><path
             d="m 0,0 c -2.862,0 -5.58,-0.583 -8.032,-1.622 0.553,-1.616 1.237,-3.053 2.021,-4.263 1.028,0.299 2.104,0.535 3.222,0.686 0.342,0.04 0.693,1.672 1.043,1.704 0.669,0.048 3.367,0.048 4.012,0 0.351,-0.032 0.7,-1.656 1.044,-1.704 0.962,-0.127 1.885,-0.326 2.783,-0.561 0.75,1.183 1.405,2.578 1.939,4.138 C 5.579,-0.583 2.86,0 0,0"
             style="fill:#c7c8ca;fill-opacity:1;fill-rule:nonzero;stroke:none"
             id="path4352"
              /></g><g
           id="g4354"
           transform="translate(475.8249,698.3472)"><path
             d="m 0,0 c -2.862,0 -5.58,-0.583 -8.032,-1.622 0.553,-1.616 1.237,-3.053 2.021,-4.263 1.028,0.299 2.104,0.535 3.222,0.686 0.342,0.04 0.693,1.672 1.043,1.704 0.669,0.048 3.367,0.048 4.012,0 0.351,-0.032 0.7,-1.656 1.044,-1.704 0.962,-0.127 1.885,-0.326 2.783,-0.561 0.75,1.183 1.405,2.578 1.939,4.138 C 5.579,-0.583 2.86,0 0,0 Z"
             style="fill:none;stroke:#c7c8ca;stroke-width:0.96600002;stroke-linecap:butt;stroke-linejoin:miter;stroke-miterlimit:4;stroke-dasharray:none;stroke-opacity:1"
             id="path4356"
              /></g><g
           id="g4358"
           transform="translate(466.363,703.6819)"><path
             d="m 0,0 c 0.171,-1.927 0.499,-3.753 0.958,-5.427 2.607,1.08 5.479,1.685 8.504,1.685 3.023,0 5.897,-0.605 8.502,-1.685 0.46,1.674 0.788,3.5 0.959,5.427 C 16.117,1.46 12.891,2.292 9.462,2.292 6.032,2.292 2.806,1.46 0,0"
             style="fill:#c7c8ca;fill-opacity:1;fill-rule:nonzero;stroke:none"
             id="path4360"
              /></g><g
           id="g4362"
           transform="translate(466.363,703.6819)"><path
             d="m 0,0 c 0.171,-1.927 0.499,-3.753 0.958,-5.427 2.607,1.08 5.479,1.685 8.504,1.685 3.023,0 5.897,-0.605 8.502,-1.685 0.46,1.674 0.788,3.5 0.959,5.427 C 16.117,1.46 12.891,2.292 9.462,2.292 6.032,2.292 2.806,1.46 0,0 Z"
             style="fill:none;stroke:#c7c8ca;stroke-width:0.96600002;stroke-linecap:butt;stroke-linejoin:miter;stroke-miterlimit:4;stroke-dasharray:none;stroke-opacity:1"
             id="path4364"
              /></g><g
           id="g4366"
           transform="translate(466.2536,705.4026)"><path
             d="m 0,0 c 2.878,1.38 6.128,2.164 9.571,2.164 3.443,0 6.694,-0.784 9.57,-2.164 0.017,0.452 0.03,0.907 0.03,1.368 0,1.551 -0.102,3.058 -0.292,4.499 -0.872,0.396 -1.79,0.745 -2.759,1.024 -0.581,0.173 -1.187,0.318 -1.8,0.429 -0.406,0.096 -0.827,0.16 -1.249,0.215 -0.183,0.024 -0.358,2.436 -0.541,2.46 -0.589,0.063 -1.186,0.111 -1.791,0.128 -0.279,0.015 -1.537,0.015 -1.815,0 C 8.318,10.106 7.722,10.058 7.133,9.995 6.949,9.971 6.776,7.559 6.591,7.535 6.17,7.471 5.747,7.408 5.341,7.32 4.73,7.201 4.125,7.058 3.543,6.891 3.002,6.739 2.476,6.564 1.966,6.373 1.362,6.144 0.788,5.881 0.232,5.603 0.063,4.243 -0.029,2.826 -0.029,1.368 -0.029,0.907 -0.016,0.452 0,0"
             style="fill:#c7c8ca;fill-opacity:1;fill-rule:nonzero;stroke:none"
             id="path4368"
              /></g><g
           id="g4370"
           transform="translate(466.2536,705.4026)"><path
             d="m 0,0 c 2.878,1.38 6.128,2.164 9.571,2.164 3.443,0 6.694,-0.784 9.57,-2.164 0.017,0.452 0.03,0.907 0.03,1.368 0,1.551 -0.102,3.058 -0.292,4.499 -0.872,0.396 -1.79,0.745 -2.759,1.024 -0.581,0.173 -1.187,0.318 -1.8,0.429 -0.406,0.096 -0.827,0.16 -1.249,0.215 -0.183,0.024 -0.358,2.436 -0.541,2.46 -0.589,0.063 -1.186,0.111 -1.791,0.128 -0.279,0.015 -1.537,0.015 -1.815,0 C 8.318,10.106 7.722,10.058 7.133,9.995 6.949,9.971 6.776,7.559 6.591,7.535 6.17,7.471 5.747,7.408 5.341,7.32 4.73,7.201 4.125,7.058 3.543,6.891 3.002,6.739 2.476,6.564 1.966,6.373 1.362,6.144 0.788,5.881 0.232,5.603 0.063,4.243 -0.029,2.826 -0.029,1.368 -0.029,0.907 -0.016,0.452 0,0 Z"
             style="fill:none;stroke:#c7c8ca;stroke-width:0.96600002;stroke-linecap:butt;stroke-linejoin:miter;stroke-miterlimit:4;stroke-dasharray:none;stroke-opacity:1"
             id="path4372"
              /></g><g
           id="g4374"
           transform="translate(486.8038,702.8093)"><path
             d="m 0,0 c -0.202,-1.856 -0.544,-3.607 -1.006,-5.228 0.992,-0.502 1.929,-1.082 2.819,-1.721 0.047,0.092 0.096,0.181 0.141,0.274 0.617,1.257 1.144,2.52 1.59,3.782 C 2.491,-1.803 1.302,-0.83 0,0"
             style="fill:#c7c8ca;fill-opacity:1;fill-rule:nonzero;stroke:none"
             id="path4376"
              /></g><g
           id="g4378"
           transform="translate(486.8038,702.8093)"><path
             d="m 0,0 c -0.202,-1.856 -0.544,-3.607 -1.006,-5.228 0.992,-0.502 1.929,-1.082 2.819,-1.721 0.047,0.092 0.096,0.181 0.141,0.274 0.617,1.257 1.144,2.52 1.59,3.782 C 2.491,-1.803 1.302,-0.83 0,0 Z"
             style="fill:none;stroke:#c7c8ca;stroke-width:0.96600002;stroke-linecap:butt;stroke-linejoin:miter;stroke-miterlimit:4;stroke-dasharray:none;stroke-opacity:1"
             id="path4380"
              /></g><g
           id="g4382"
           transform="translate(463.4122,696.1341)"><path
             d="M 0,0 C 0.002,-0.005 0.004,-0.009 0.006,-0.013 0.783,0.52 1.587,1.017 2.437,1.447 1.977,3.068 1.634,4.819 1.433,6.675 0.287,5.945 -0.766,5.099 -1.72,4.163 -1.249,2.776 -0.68,1.384 0,0"
             style="fill:#c7c8ca;fill-opacity:1;fill-rule:nonzero;stroke:none"
             id="path4384"
              /></g><g
           id="g4386"
           transform="translate(463.4122,696.1341)"><path
             d="M 0,0 C 0.002,-0.005 0.004,-0.009 0.006,-0.013 0.783,0.52 1.587,1.017 2.437,1.447 1.977,3.068 1.634,4.819 1.433,6.675 0.287,5.945 -0.766,5.099 -1.72,4.163 -1.249,2.776 -0.68,1.384 0,0 Z"
             style="fill:none;stroke:#c7c8ca;stroke-width:0.96600002;stroke-linecap:butt;stroke-linejoin:miter;stroke-miterlimit:4;stroke-dasharray:none;stroke-opacity:1"
             id="path4388"
              /></g><g
           id="g4390"
           transform="translate(472.2156,689.0127)"><path
             d="m 0,0 7.694,0 0.796,-3.583 -9.286,0 L 0,0 Z"
             style="fill:#c7c8ca;fill-opacity:1;fill-rule:nonzero;stroke:none"
             id="path4392"
              /></g><g
           id="g4394"
           transform="translate(472.2156,689.0127)"><path
             d="m 0,0 7.694,0 0.796,-3.583 -9.286,0 L 0,0 Z"
             style="fill:none;stroke:#c7c8ca;stroke-width:0.96600002;stroke-linecap:butt;stroke-linejoin:miter;stroke-miterlimit:4;stroke-dasharray:none;stroke-opacity:1"
             id="path4396"
              /></g></g><g
         id="g4470"
         transform="translate(435.0765,414.8281)"><path
           d="m 0,0 26.003,-1.645 2.741,0 0,-0.797 1.668,-1.646 24.624,0 1.668,1.646 0,0.797 2.742,0 26.53,1.645 2.193,2.742 2.738,35.098 -1.647,1.646 c 0,0 -21.039,2.705 -24.879,3.253 C 63.843,50.827 53.497,54.923 42.987,55.059 32.12,55.199 21.075,51.103 20.518,42.739 16.68,42.191 -3.287,39.486 -3.287,39.486 L -4.932,37.84 -2.194,2.742 0,0 Z"
           style="fill:#ffffff;fill-opacity:1;fill-rule:nonzero;stroke:none"
           id="path4472"
            /></g><g
         id="g4474"
         transform="translate(435.0765,414.8281)"><path
           d="m 0,0 26.003,-1.645 2.741,0 0,-0.797 1.668,-1.646 24.624,0 1.668,1.646 0,0.797 2.742,0 26.53,1.645 2.193,2.742 2.738,35.098 -1.647,1.646 c 0,0 -21.039,2.705 -24.879,3.253 C 63.843,50.827 53.497,54.923 42.987,55.059 32.12,55.199 21.075,51.103 20.518,42.739 16.68,42.191 -3.287,39.486 -3.287,39.486 L -4.932,37.84 -2.194,2.742 0,0 Z"
           style="fill:none;stroke:#000000;stroke-width:1.449;stroke-linecap:butt;stroke-linejoin:miter;stroke-miterlimit:4;stroke-dasharray:none;stroke-opacity:1"
           id="path4476"
            /></g><g
         id="g4478"
         transform="translate(463.8207,413.422)"><path
           d="m 0,0 0,16.999 c -7.677,4.935 -8.226,27.146 -8.226,27.146"
           style="fill:none;stroke:#000000;stroke-width:1.449;stroke-linecap:butt;stroke-linejoin:miter;stroke-miterlimit:4;stroke-dasharray:none;stroke-opacity:1"
           id="path4480"
            /></g><g
         id="g4482"
         transform="translate(491.7809,413.422)"><path
           d="m 0,0 0,16.999 c 7.677,4.935 7.677,27.146 7.677,27.146"
           style="fill:none;stroke:#000000;stroke-width:1.449;stroke-linecap:butt;stroke-linejoin:miter;stroke-miterlimit:4;stroke-dasharray:none;stroke-opacity:1"
           id="path4484"
            /></g><g
       id="shieldRA"
       transform="matrix(1,0,0,-1,-5.149069,788.37352)"><path
         fill="#c8c7c7"
         d="M587.766,144.193c-0.129,0-0.258-0.034-0.37-0.101l-7.497-4.248l0.369-0.657l0.747-0.09l-0.747,0.09     l-0.369,0.657c-0.207-0.117-0.342-0.333-0.369-0.567l-5.643-47.961l-10.71-12.501l-8.82-5.607     c-0.233-0.153-0.369-0.423-0.342-0.702l1.161-12.753c0.036-0.387,0.351-0.684,0.738-0.684l3.95-0.045l0.315-30.726     c0-0.207,0.09-0.405,0.243-0.54c0.137-0.13,0.311-0.201,0.495-0.201c0.021,0,0.042,0.001,0.063,0.003l24.759,1.665     c0.379,0.027,0.685,0.342,0.693,0.72l2.079,51.354v0.027v62.118c0,0.261-0.144,0.513-0.369,0.648     C588.025,144.16,587.895,144.193,587.766,144.193"
         id="path627" /><polygon
         fill="#FFFFFF"
         stroke="#231f20"
         stroke-width="1.449"
         stroke-linejoin="round"
         points="578.271,137.189 585.761,141.441      585.761,79.329 583.688,27.976 558.932,26.307 558.611,57.767 553.923,57.819 552.758,70.575 561.671,76.244 572.602,89    "
         id="polygon629" /><text
         transform="translate(571.885,34.2841)"
         style="font-variant:normal;font-weight:normal;font-stretch:normal;font-size:7.72730017px;font-family:Eurostile;writing-mode:lr-tb;fill:#110f0d;fill-opacity:1;fill-rule:nonzero;stroke:none"
         text-anchor="middle"
         id="text631">DC</text>
<text
         transform="translate(579.349,90.901)"
         style="font-variant:normal;font-weight:normal;font-stretch:normal;font-size:7.72730017px;font-family:Eurostile;writing-mode:lr-tb;fill:#110f0d;fill-opacity:1;fill-rule:nonzero;stroke:none"
         text-anchor="middle"
         id="text633">DA</text>
<g
         id="shieldDCRA"
         fill="none"
         transform="translate(558.145,30.2841)"><rect
           x="5"
           y="5.3272"
           width="23.3"
           height="6.15152"
           id="rightShieldDARow00" /><rect
           x="5"
           y="10.6544"
           width="23.3"
           height="6.15152"
           id="rightShieldDARow01" /><rect
           x="5"
           y="15.9816"
           width="23.3"
           height="6.15152"
           id="rightShieldDARow02" /><rect
           x="5"
           y="21.3088"
           width="23.3"
           height="6.15152"
           id="rightShieldDARow03" /><rect
           x="5"
           y="26.636"
           width="23.3"
           height="6.15152"
           id="rightShieldDARow04" /><rect
           x="0"
           y="31.9632"
           width="21.2"
           height="6.15152"
           id="rightShieldDARow05" /><rect
           x="3.55"
           y="37.2904"
           width="19.8"
           height="6.15152"
           id="rightShieldDARow06" /><rect
           x="9.67"
           y="42.6176"
           width="15.7"
           height="6.15152"
           id="rightShieldDARow07" /></g><g
         id="shieldDARA"
         fill="none"
         transform="matrix(0.063749,0.997966,-0.997966,0.063749,586.248,91.6269)"><rect
           x="0"
           y="0"
           width="44"
           height="6.15152"
           id="rightShieldDCRow00" /></g></g><g
       id="shieldLA"
       transform="matrix(1,0,0,-1,-9.329069,788.37352)"><path
         fill="#c8c7c7"
         d="M398.851,144.193c-0.129,0-0.258-0.034-0.374-0.101c-0.233-0.135-0.377-0.387-0.377-0.648V81.327v-0.027    l2.078-51.354c0.019-0.378,0.315-0.693,0.702-0.72l24.75-1.665c0.021-0.002,0.041-0.003,0.063-0.003    c0.186,0,0.366,0.071,0.495,0.201c0.153,0.135,0.243,0.333,0.243,0.54l0.315,30.726l3.95,0.045c0.388,0,0.702,0.297,0.739,0.684    l1.17,12.753c0.025,0.279-0.108,0.549-0.352,0.702l-8.812,5.607l-10.709,12.501l-5.644,47.961    c-0.027,0.234-0.171,0.45-0.378,0.567l-7.487,4.248C399.107,144.16,398.979,144.193,398.851,144.193"
         id="path647" /><polygon
         fill="#FFFFFF"
         stroke="#231f20"
         stroke-width="1.449"
         stroke-linejoin="round"
         points="404.344,137.189 396.853,141.441     396.853,79.329 398.927,27.976 423.683,26.307 424.003,57.767 428.69,57.819 429.855,70.575 420.942,76.244 410.013,89   "
         id="polygon649" /><text
         transform="translate(411.434,34.2841)"
         style="font-variant:normal;font-weight:normal;font-stretch:normal;font-size:7.72730017px;font-family:Eurostile;writing-mode:lr-tb;fill:#110f0d;fill-opacity:1;fill-rule:nonzero;stroke:none"
         text-anchor="middle"
         id="text651">DC</text>
<text
         transform="translate(403.302,90.901)"
         style="font-variant:normal;font-weight:normal;font-stretch:normal;font-size:7.72730017px;font-family:Eurostile;writing-mode:lr-tb;fill:#110f0d;fill-opacity:1;fill-rule:nonzero;stroke:none"
         text-anchor="middle"
         id="text653">DA</text>
<g
         id="shieldDCLA"
         fill="none"
         transform="matrix(-1,0,0,1,427.8,30.2841)"><rect
           x="5"
           y="5.3272"
           width="23.3"
           height="6.15152"
           id="leftShieldDARow00" /><rect
           x="5"
           y="10.6544"
           width="23.3"
           height="6.15152"
           id="leftShieldDARow01" /><rect
           x="5"
           y="15.9816"
           width="23.3"
           height="6.15152"
           id="leftShieldDARow02" /><rect
           x="5"
           y="21.3088"
           width="23.3"
           height="6.15152"
           id="leftShieldDARow03" /><rect
           x="5"
           y="26.636"
           width="23.3"
           height="6.15152"
           id="leftShieldDARow04" /><rect
           x="0"
           y="31.9632"
           width="21.2"
           height="6.15152"
           id="leftShieldDARow05" /><rect
           x="3.55"
           y="37.2904"
           width="19.8"
           height="6.15152"
           id="leftShieldDARow06" /><rect
           x="9.67"
           y="42.6176"
           width="15.7"
           height="6.15152"
           id="leftShieldDARow07" /></g><g
         id="shieldDALA"
         fill="none"
         transform="matrix(-0.063749,0.997966,0.997966,0.063749,401.123,91.6269)"><rect
           x="0"
           y="0"
           width="44"
           height="6.15152"
           id="leftShieldDCRow00" /></g></g><text
       transform="matrix(0.99811939,0,0,-1,473.1264,721.81)"
       style="font-variant:normal;font-weight:bold;font-stretch:normal;font-size:5.796px;font-family:Eurostile;writing-mode:lr-tb;fill:#000000;fill-opacity:1;fill-rule:nonzero;stroke:none"
       id="text8242"><tspan
         x="0 4.3470001 7.6217399 10.92546"
         y="0"
         id="tspan8244">Head</tspan></text>
<text
       transform="matrix(0.99811939,0,0,-1,475.1264,721.81)"
       style="font-variant:normal;font-weight:bold;font-stretch:normal;font-size:5.796px;font-family:Eurostile;writing-mode:lr-tb;fill:#000000;fill-opacity:1;fill-rule:nonzero;stroke:none"
       id="text1599"><tspan
         x="-25.890732 -22.036392 -18.761652 -15.399972 -13.278636 -10.003896"
         y="161.35484"
         id="tspan8246">Center</tspan><tspan
         x="-24.209892 -21.398832 -18.095112 -15.53328 -12.420828"
         y="168.31004"
         id="tspan8248">Torso</tspan></text>
<text
       transform="matrix(0.99810214,0,0,-1,507.7306,721.8104)"
       style="font-variant:normal;font-weight:bold;font-stretch:normal;font-size:5.796px;font-family:Eurostile;writing-mode:lr-tb;fill:#000000;fill-opacity:1;fill-rule:nonzero;stroke:none"
       id="text8252"><tspan
         x="0 4.0629959 5.3091359 8.6302443 11.991924 14.11326 16.112881 18.923941 22.227659 24.789492 27.901943"
         y="0"
         id="tspan8254">Right Torso</tspan><tspan
         x="-74.275742 -71.041573 -67.76683 -66.016441 -63.895103 -61.895485 -59.084423 -55.780704 -53.218872 -50.106419"
         y="0"
         id="tspan8258">Left Torso</tspan><tspan
         x="61.785358 65.848358 67.094498 70.415604 73.777283"
         y="202.89478"
         id="tspan8262">Right</tspan><tspan
         x="63.924084 67.158249 70.432991"
         y="209.84998"
         id="tspan8264">Leg</tspan></text>
<text
       transform="matrix(0.99810214,0,0,-1,500.1306,721.8104)"
       style="font-variant:normal;font-weight:bold;font-stretch:normal;font-size:5.796px;font-family:Eurostile;writing-mode:lr-tb;fill:#000000;fill-opacity:1;fill-rule:nonzero;stroke:none"
       id="text1608"><tspan
         x="-57.038437 -53.184097 -49.909355 -46.547676 -44.426338 -41.1516 -38.589767 -36.590149 -33.779087 -30.475368 -27.913536 -24.801085 -21.497364 -19.497744 -15.434748 -12.160008 -8.856288"
         y="319.00604"
         id="tspan8274">Center Torso Rear</tspan><tspan
         x="30.37104 33.182098 36.485821 39.047653 42.160103 45.463825 47.463444 51.52644 54.801182 58.1049"
         y="299.3634"
         id="tspan8276">Torso Rear</tspan><tspan
         x="38.456459 42.519455 43.765594 47.086704 50.448383 -92.394035 -89.159866 -85.885124 -84.134735"
         y="290.25208"
         id="tspan8280">RightLeft</tspan><tspan
         x="-102.35156 -99.540504 -96.236786 -93.67495 -90.5625 -87.258781 -85.259163 -81.196167 -77.921425 -74.617706"
         y="299.3634"
         id="tspan8282">Torso Rear</tspan></text>
<text
       transform="matrix(0.99810214,0,0,-1,517.2006,762.3604)"
       style="font-variant:normal;font-weight:bold;font-stretch:normal;font-size:5.796px;font-family:Eurostile;writing-mode:lr-tb;fill:#000000;fill-opacity:1;fill-rule:nonzero;stroke:none"
       id="text1614"><tspan
         x="-120.16267 -116.9285 -113.65376 -111.90337"
         y="202.89478"
         id="tspan8268">Left</tspan><tspan
         x="-119.89026 -116.65609 -113.38136"
         y="209.84998"
         id="tspan8270">Leg</tspan></text>
<text
       transform="matrix(0.99811939,0,0,-1,393.1072,588.6024)"
       style="font-variant:normal;font-weight:bold;font-stretch:normal;font-size:5.796px;font-family:Eurostile;writing-mode:lr-tb;fill:#000000;fill-opacity:1;fill-rule:nonzero;stroke:none"
       id="text8284"><tspan
         x="0 3.2341681 6.5089078 8.2593002 10.380636 12.380256 16.350515 18.912348"
         y="0"
         id="tspan8286">Left Arm</tspan></text>
<text
       transform="matrix(0.99811939,0,0,-1,397.1072,588.6024)"
       style="font-variant:normal;font-weight:bold;font-stretch:normal;font-size:5.796px;font-family:Eurostile;writing-mode:lr-tb;fill:#000000;fill-opacity:1;fill-rule:nonzero;stroke:none"
       id="text1620"><tspan
         x="159.99858 164.06157 165.30771 168.62883 171.99051 174.11185 176.11147 180.08173 182.64355"
         y="0"
         id="tspan8290">Right Arm</tspan></text>
<text
       transform="matrix(0.99811939,0,0,-1,504.8906,498.2148)"
       style="font-variant:normal;font-weight:bold;font-stretch:normal;font-size:5.796px;font-family:Eurostile;writing-mode:lr-tb;fill:#000000;fill-opacity:1;fill-rule:nonzero;stroke:none"
       id="text8326"><tspan
         x="0 3.8543401 7.1290798 10.49076 12.612096 15.886836"
         y="0"
         id="tspan8328">Center</tspan><tspan
         x="4.306428 7.540596 10.815336"
         y="6.9552002"
         id="tspan8330">Leg</tspan></text>

<g transform="matrix(1,0,0,-1,0,765)"><g
     id="armorPips"><g
       id="armorPipsHD"
       fill="none"
       transform="translate(474.192,52.58528)"><rect
         x="0"
         y="0"
         width="18.5"
         height="6.15152"/><rect
         x="0"
         y="6.2"
         width="18.5"
         height="6.15152"
         id="rect1671" /><rect
         x="0"
         y="11.5272"
         width="18.5"
         height="6.15152"
         id="rect1673" /><rect
         x="6.15152"
         y="16.8544"
         width="6.2"
         height="6.15152"
         id="rect1675" /></g><g
       id="armorPipsHD_SH"
       fill="none"
       transform="translate(471.39,52.5856)"><rect
         x="6.15152"
         y="0"
         width="12.4"
         height="6.15152"
         id="rect1678" /><rect
         x="0"
         y="6.2"
         width="24.7"
         height="6.15152"
         id="rect1680" /><rect
         x="0"
         y="11.5272"
         width="24.7"
         height="6.15152"
         id="rect1682" /><rect
         x="0"
         y="16.8544"
         width="24.7"
         height="6.15152"
         id="rect1684" /></g><g
       id="armorPipsCT"
       fill="none"
       transform="translate(466.0124,50.178)"><rect
         x="0.854810"
         y="35.003537"
         width="34.404992"
         height="6.151520"
         id="rect1687" /><rect
         x="0.739970"
         y="40.330754"
         width="34.634672"
         height="6.151520"
         id="rect1689" /><rect
         x="0.625130"
         y="45.657970"
         width="34.864352"
         height="6.151520"
         id="rect1691" /><rect
         x="0.964104"
         y="50.985186"
         width="34.186404"
         height="6.151520"
         id="rect1693" /><rect
         x="1.399828"
         y="56.312403"
         width="33.314956"
         height="6.151520"
         id="rect1695" /><rect
         x="1.835553"
         y="61.639619"
         width="32.443506"
         height="6.151520"
         id="rect1697" /><rect
         x="2.271277"
         y="66.966835"
         width="31.572058"
         height="6.151520"
         id="rect1699" /><rect
         x="2.707002"
         y="72.294052"
         width="30.700608"
         height="6.151520"
         id="rect1701" /><rect
         x="3.142726"
         y="77.621268"
         width="29.82916"
         height="6.151520"
         id="rect1703" /><rect
         x="3.075305"
         y="82.948484"
         width="29.964002"
         height="6.151520"
         id="rect1705" /><rect
         x="2.952056"
         y="88.275700"
         width="30.2105"
         height="6.151520"
         id="rect1707" /><rect
         x="2.482458"
         y="93.602917"
         width="31.149696"
         height="6.151520"
         id="rect1709" /><rect
         x="2.012860"
         y="98.930133"
         width="32.088892"
         height="6.151520"
         id="rect1711" /><rect
         x="1.543262"
         y="104.257349"
         width="33.028088"
         height="6.151520"
         id="rect1713" /><rect
         x="1.655002"
         y="109.584566"
         width="32.804608"
         height="6.151520"
         id="rect1715" /><rect
         x="1.863085"
         y="114.911782"
         width="32.388442"
         height="6.151520"
         id="rect1717" /><rect
         x="3.757671"
         y="120.238998"
         width="28.59927"
         height="6.151520"
         id="rect1719" /></g><g
       id="armorPipsRT"
       fill="none"
       transform="translate(495.8218,48.53478)"><rect
         x="13.236"
         y="18.666885"
         width="7.308738"
         height="6.151520"
         id="rect1722" /><rect
         x="7.105999"
         y="23.994101"
         width="27.023858"
         height="6.151520"
         id="rect1724" /><rect
         x="7.105999"
         y="29.321318"
         width="27.070078"
         height="6.151520"
         id="rect1726" /><rect
         x="7.105999"
         y="34.648534"
         width="27.116298"
         height="6.151520"
         id="rect1728" /><rect
         x="7.105999"
         y="39.975750"
         width="27.162518"
         height="6.151520"
         id="rect1730" /><rect
         x="7.105999"
         y="45.302967"
         width="27.232832"
         height="6.151520"
         id="rect1732" /><rect
         x="7.105999"
         y="50.630183"
         width="27.514154"
         height="6.151520"
         id="rect1734" /><rect
         x="7.105999"
         y="55.957399"
         width="26.519193"
         height="6.151520"
         id="rect1736" /><rect
         x="7.105999"
         y="61.284616"
         width="18.043761"
         height="6.151520"
         id="rect1738" /><rect
         x="6.794240"
         y="66.611832"
         width="14.194423"
         height="6.151520"
         id="rect1740" /><rect
         x="6.282012"
         y="71.939048"
         width="14.127033"
         height="6.151520"
         id="rect1742" /><rect
         x="5.769783"
         y="77.266264"
         width="14.059644"
         height="6.151520"
         id="rect1744" /><rect
         x="5.257555"
         y="82.593481"
         width="13.192255"
         height="6.151520"
         id="rect1746" /><rect
         x="5.525326"
         y="87.920697"
         width="14.814170"
         height="6.151520"
         id="rect1748" /><rect
         x="5.525326"
         y="93.247913"
         width="18.685878"
         height="6.151520"
         id="rect1750" /><rect
         x="6.768097"
         y="98.575130"
         width="21.213556"
         height="6.151520"
         id="rect1752" /><rect
         x="6.964015"
         y="103.902346"
         width="22.325631"
         height="6.151520"
         id="rect1754" /><rect
         x="6.959932"
         y="109.229562"
         width="13.218843"
         height="6.151520"
         id="rect1756" /></g><g
       id="armorPipsLT"
       fill="none"
       transform="matrix(-1,0,0,1,472.212802,48.53478)"><rect
         x="13.236"
         y="18.666885"
         width="7.308738"
         height="6.151520"
         id="rect1759" /><rect
         x="7.105999"
         y="23.994101"
         width="27.023858"
         height="6.151520"
         id="rect1761" /><rect
         x="7.105999"
         y="29.321318"
         width="27.070078"
         height="6.151520"
         id="rect1763" /><rect
         x="7.105999"
         y="34.648534"
         width="27.116298"
         height="6.151520"
         id="rect1765" /><rect
         x="7.105999"
         y="39.975750"
         width="27.162518"
         height="6.151520"
         id="rect1767" /><rect
         x="7.105999"
         y="45.302967"
         width="27.232832"
         height="6.151520"
         id="rect1769" /><rect
         x="7.105999"
         y="50.630183"
         width="27.514154"
         height="6.151520"
         id="rect1771" /><rect
         x="7.105999"
         y="55.957399"
         width="26.519193"
         height="6.151520"
         id="rect1773" /><rect
         x="7.105999"
         y="61.284616"
         width="18.043761"
         height="6.151520"
         id="rect1775" /><rect
         x="6.794240"
         y="66.611832"
         width="14.194423"
         height="6.151520"
         id="rect1777" /><rect
         x="6.282012"
         y="71.939048"
         width="14.127033"
         height="6.151520"
         id="rect1779" /><rect
         x="5.769783"
         y="77.266264"
         width="14.059644"
         height="6.151520"
         id="rect1781" /><rect
         x="5.257555"
         y="82.593481"
         width="13.192255"
         height="6.151520"
         id="rect1783" /><rect
         x="5.525326"
         y="87.920697"
         width="14.814170"
         height="6.151520"
         id="rect1785" /><rect
         x="5.525326"
         y="93.247913"
         width="18.685878"
         height="6.151520"
         id="rect1787" /><rect
         x="6.768097"
         y="98.575130"
         width="21.213556"
         height="6.151520"
         id="rect1789" /><rect
         x="6.964015"
         y="103.902346"
         width="22.325631"
         height="6.151520"
         id="rect1791" /><rect
         x="6.959932"
         y="109.229562"
         width="13.218843"
         height="6.151520"
         id="rect1793" /></g><g
       id="armorPipsRA"
       fill="none"
       transform="translate(519.5131,39.2747)"><rect
         x="3.221828"
         y="11.898108"
         width="23.9"
         height="6.151520"
         id="rect1796" /><rect
         x="1.483286"
         y="17.225325"
         width="32.877979"
         height="6.151520"
         id="rect1798" /><rect
         x="9.774465"
         y="22.552541"
         width="26.855373"
         height="6.151520"
         id="rect1800" /><rect
         x="12.164000"
         y="27.879757"
         width="29.304412"
         height="6.151520"
         id="rect1802" /><rect
         x="12.164000"
         y="33.206974"
         width="32.952984"
         height="6.151520"
         id="rect1804" /><rect
         x="12.2304"
         y="38.534190"
         width="21.180284"
         height="6.151520"
         id="rect1806" /><rect
         x="12.2304"
         y="43.861406"
         width="23.718482"
         height="6.151520"
         id="rect1808" /><rect
         x="15.3804"
         y="49.188622"
         width="23.892019"
         height="6.151520"
         id="rect1810" /><rect
         x="18.054186"
         y="54.515839"
         width="24.071435"
         height="6.151520"
         id="rect1812" /><rect
         x="21.514692"
         y="59.843055"
         width="22.505670"
         height="6.151520"
         id="rect1814" /><rect
         x="27.245870"
         y="65.170271"
         width="16.938290"
         height="6.151520"
         id="rect1816" /><rect
         x="29.245870"
         y="70.497488"
         width="17.755416"
         height="6.151520"
         id="rect1818" /><rect
         x="27.688726"
         y="75.824704"
         width="19.201204"
         height="6.151520"
         id="rect1820" /><rect
         x="27.195428"
         y="81.151920"
         width="19.583145"
         height="6.151520"
         id="rect1822" /><rect
         x="27.480606"
         y="86.479137"
         width="19.186610"
         height="6.151520"
         id="rect1824" /><rect
         x="24.965784"
         y="91.806353"
         width="19.590075"
         height="6.151520"
         id="rect1826" /><rect
         x="26.450962"
         y="97.133569"
         width="19.993540"
         height="6.151520"
         id="rect1828" /><rect
         x="25.895263"
         y="102.460786"
         width="16.960093"
         height="6.151520"
         id="rect1830" /></g><g
       id="armorPipsLA"
       fill="none"
       transform="matrix(-1,0,0,1,448.2715,39.2747)"><rect
         x="3.221828"
         y="11.898108"
         width="23.9"
         height="6.151520"
         id="rect1833" /><rect
         x="1.483286"
         y="17.225325"
         width="32.877979"
         height="6.151520"
         id="rect1835" /><rect
         x="9.774465"
         y="22.552541"
         width="26.855373"
         height="6.151520"
         id="rect1837" /><rect
         x="12.164000"
         y="27.879757"
         width="29.304412"
         height="6.151520"
         id="rect1839" /><rect
         x="12.164000"
         y="33.206974"
         width="32.952984"
         height="6.151520"
         id="rect1841" /><rect
         x="12.2304"
         y="38.534190"
         width="21.180284"
         height="6.151520"
         id="rect1843" /><rect
         x="12.2304"
         y="43.861406"
         width="23.718482"
         height="6.151520"
         id="rect1845" /><rect
         x="15.3804"
         y="49.188622"
         width="23.892019"
         height="6.151520"
         id="rect1847" /><rect
         x="18.054186"
         y="54.515839"
         width="24.071435"
         height="6.151520"
         id="rect1849" /><rect
         x="21.514692"
         y="59.843055"
         width="22.505670"
         height="6.151520"
         id="rect1851" /><rect
         x="27.245870"
         y="65.170271"
         width="16.938290"
         height="6.151520"
         id="rect1853" /><rect
         x="29.245870"
         y="70.497488"
         width="17.755416"
         height="6.151520"
         id="rect1855" /><rect
         x="27.688726"
         y="75.824704"
         width="19.201204"
         height="6.151520"
         id="rect1857" /><rect
         x="27.195428"
         y="81.151920"
         width="19.583145"
         height="6.151520"
         id="rect1859" /><rect
         x="27.480606"
         y="86.479137"
         width="19.186610"
         height="6.151520"
         id="rect1861" /><rect
         x="24.965784"
         y="91.806353"
         width="19.590075"
         height="6.151520"
         id="rect1863" /><rect
         x="26.450962"
         y="97.133569"
         width="19.993540"
         height="6.151520"
         id="rect1865" /><rect
         x="25.895263"
         y="102.460786"
         width="16.960093"
         height="6.151520"
         id="rect1867" /></g><g
       id="armorPipsRL"
       fill="none"
       transform="translate(482.1351,141.8953)"><rect
         x="30.2267"
         y="24.663461"
         width="16.54"
         height="6.151520"
         id="rect1870" /><rect
         x="21.764158"
         y="29.990677"
         width="30.796721"
         height="6.151520"
         id="rect1872" /><rect
         x="27.091595"
         y="35.317894"
         width="30.796721"
         height="6.151520"
         id="rect1874" /><rect
         x="33.20903"
         y="40.645110"
         width="30.796721"
         height="6.151520"
         id="rect1876" /><rect
         x="38.266125"
         y="45.972326"
         width="33.963534"
         height="6.151520"
         id="rect1878" /><rect
         x="42.394873"
         y="51.299543"
         width="30.582505"
         height="6.151520"
         id="rect1880" /><rect
         x="42.387142"
         y="56.626759"
         width="30.217580"
         height="6.151520"
         id="rect1882" /><rect
         x="42.200244"
         y="61.953975"
         width="30.031822"
         height="6.151520"
         id="rect1884" /><rect
         x="42.665538"
         y="67.281192"
         width="29.193872"
         height="6.151520"
         id="rect1886" /><rect
         x="42.593541"
         y="72.608408"
         width="28.7435"
         height="6.151520"
         id="rect1888" /><rect
         x="42.778829"
         y="77.935624"
         width="29.575873"
         height="6.151520"
         id="rect1890" /><rect
         x="43.638376"
         y="83.262840"
         width="30.895124"
         height="6.151520"
         id="rect1892" /><rect
         x="42.831254"
         y="88.590057"
         width="33.311045"
         height="6.151520"
         id="rect1894" /><rect
         x="43.024131"
         y="93.917273"
         width="34.706966"
         height="6.151520"
         id="rect1896" /><rect
         x="42.217009"
         y="99.244489"
         width="38.892887"
         height="6.151520"
         id="rect1898" /><rect
         x="41.452298"
         y="104.571706"
         width="38.367978"
         height="6.151520"
         id="rect1900" /><rect
         x="39.638778"
         y="109.898922"
         width="37.122385"
         height="6.151520"
         id="rect1902" /><rect
         x="47.730330"
         y="115.226138"
         width="29.398392"
         height="6.151520"
         id="rect1904" /><rect
         x="49.977341"
         y="120.553355"
         width="27.052035"
         height="6.151520"
         id="rect1906" /><rect
         x="50.087517"
         y="125.880571"
         width="23.121881"
         height="6.151520"
         id="rect1908" /><rect
         x="49.375479"
         y="131.207787"
         width="24.965909"
         height="6.151520"
         id="rect1910" /><rect
         x="44.948476"
         y="136.535004"
         width="37.926822"
         height="6.151520"
         id="rect1912" /></g><g
       id="armorPipsLL"
       fill="none"
       transform="matrix(-1,0,0,1,486.3495,141.8953)"><rect
         x="30.2267"
         y="24.663461"
         width="16.54"
         height="6.151520"
         id="rect1915" /><rect
         x="21.764158"
         y="29.990677"
         width="30.796721"
         height="6.151520"
         id="rect1917" /><rect
         x="27.091595"
         y="35.317894"
         width="30.796721"
         height="6.151520"
         id="rect1919" /><rect
         x="33.20903"
         y="40.645110"
         width="30.796721"
         height="6.151520"
         id="rect1921" /><rect
         x="38.266125"
         y="45.972326"
         width="33.963534"
         height="6.151520"
         id="rect1923" /><rect
         x="42.394873"
         y="51.299543"
         width="30.582505"
         height="6.151520"
         id="rect1925" /><rect
         x="42.387142"
         y="56.626759"
         width="30.217580"
         height="6.151520"
         id="rect1927" /><rect
         x="42.200244"
         y="61.953975"
         width="30.031822"
         height="6.151520"
         id="rect1929" /><rect
         x="42.665538"
         y="67.281192"
         width="29.193872"
         height="6.151520"
         id="rect1931" /><rect
         x="42.593541"
         y="72.608408"
         width="28.7435"
         height="6.151520"
         id="rect1933" /><rect
         x="42.578829"
         y="77.935624"
         width="29.775873"
         height="6.151520"
         id="rect1935" /><rect
         x="43.638376"
         y="83.262840"
         width="30.895124"
         height="6.151520"
         id="rect1937" /><rect
         x="42.831254"
         y="88.590057"
         width="33.311045"
         height="6.151520"
         id="rect1939" /><rect
         x="43.024131"
         y="93.917273"
         width="34.706966"
         height="6.151520"
         id="rect1941" /><rect
         x="42.217009"
         y="99.244489"
         width="38.892887"
         height="6.151520"
         id="rect1943" /><rect
         x="41.452298"
         y="104.571706"
         width="38.367978"
         height="6.151520"
         id="rect1945" /><rect
         x="39.438778"
         y="109.898922"
         width="37.322385"
         height="6.151520"
         id="rect1947" /><rect
         x="47.730330"
         y="115.226138"
         width="29.398392"
         height="6.151520"
         id="rect1949" /><rect
         x="49.977341"
         y="120.553355"
         width="27.052035"
         height="6.151520"
         id="rect1951" /><rect
         x="50.087517"
         y="125.880571"
         width="23.121881"
         height="6.151520"
         id="rect1953" /><rect
         x="49.375479"
         y="131.207787"
         width="24.965909"
         height="6.151520"
         id="rect1955" /><rect
         x="44.948476"
         y="136.535004"
         width="37.926822"
         height="6.151520"
         id="rect1957" /></g><g
       id="armorPipsCL"
       fill="none"
       transform="translate(464.8324,141.8953)"><rect
         x="6.471371"
         y="35.318885"
         width="25.795251"
         height="6.151520"
         id="rect1960" /><rect
         x="6.928739"
         y="40.646102"
         width="24.880515"
         height="6.151520"
         id="rect1962" /><rect
         x="7.5976"
         y="45.973318"
         width="23.542793"
         height="6.151520"
         id="rect1964" /><rect
         x="7.464124"
         y="51.300534"
         width="23.809745"
         height="6.151520"
         id="rect1966" /><rect
         x="5.183016"
         y="56.627751"
         width="28.371961"
         height="6.151520"
         id="rect1968" /><rect
         x="4.387161"
         y="61.954967"
         width="29.963671"
         height="6.151520"
         id="rect1970" /><rect
         x="4.570369"
         y="67.282183"
         width="29.597255"
         height="6.151520"
         id="rect1972" /><rect
         x="5.332021"
         y="72.609400"
         width="28.073951"
         height="6.151520"
         id="rect1974" /><rect
         x="5.0678829"
         y="77.935624"
         width="28.6022272"
         height="6.151520"
         id="rect1976" /><rect
         x="3.5738375"
         y="83.262840"
         width="31.590318"
         height="6.151520"
         id="rect1978" /><rect
         x="3.2931254"
         y="88.590057"
         width="32.1517422"
         height="6.151520"
         id="rect1980" /><rect
         x="2.9224131"
         y="93.917273"
         width="32.8931668"
         height="6.151520"
         id="rect1982" /><rect
         x="2.4417009"
         y="99.244489"
         width="33.8545912"
         height="6.151520"
         id="rect1984" /><rect
         x="2.2752297"
         y="104.571706"
         width="34.1875336"
         height="6.151520"
         id="rect1986" /><rect
         x="3.9638778"
         y="109.898922"
         width="30.8102374"
         height="6.151520"
         id="rect1988" /><rect
         x="7.095007"
         y="115.227130"
         width="24.547979"
         height="6.151520"
         id="rect1990" /><rect
         x="9.058865"
         y="120.554347"
         width="20.620263"
         height="6.151520"
         id="rect1992" /><rect
         x="9.212512"
         y="125.881563"
         width="20.312969"
         height="6.151520"
         id="rect1994" /><rect
         x="8.219542"
         y="131.208779"
         width="22.298909"
         height="6.151520"
         id="rect1996" /><rect
         x="3.510107"
         y="136.535995"
         width="31.717779"
         height="6.151520"
         id="rect1998" /></g><g
       id="armorPipsCTR"
       fill="none"
       transform="translate(457.025,297.1276)"><rect
         x="7.56"
         y="0"
         width="25.84"
         height="6.15152"
         id="armorCTRRow00" /><rect
         x="2.05"
         y="5.3272"
         width="36.86"
         height="6.15152"
         id="armorCTRRow01" /><rect
         x="0"
         y="10.6544"
         width="40.96"
         height="6.15152"
         id="armorCTRRow02" /><rect
         x="0.87"
         y="15.9816"
         width="39.22"
         height="6.15152"
         id="armorCTRRow03" /><rect
         x="2.04"
         y="21.3088"
         width="36.88"
         height="6.15152"
         id="armorCTRRow04" /><rect
         x="3.82"
         y="26.636"
         width="33.32"
         height="6.15152"
         id="armorCTRRow05" /><rect
         x="7.56"
         y="31.9632"
         width="25.84"
         height="6.15152"
         id="armorCTRRow06" /><rect
         x="7.56"
         y="37.2905"
         width="25.84"
         height="6.15152"
         id="armorCTRRow07" /><rect
         x="7.56"
         y="42.6177"
         width="25.84"
         height="6.15152"
         id="armorCTRRow08" /><rect
         x="7.56"
         y="47.9449"
         width="25.84"
         height="6.15152"
         id="armorCTRRow09" /></g><g
       id="armorPipsRTR"
       fill="none"
       transform="translate(492.5,311.26)"><rect
         x="7.88"
         y="0"
         width="22.77"
         height="6.15152"
         id="armorRTRRow00" /><rect
         x="7.09"
         y="5.3272"
         width="24.94"
         height="6.15152"
         id="armorRTRRow01" /><rect
         x="6.1"
         y="10.6544"
         width="25.56"
         height="6.15152"
         id="armorRTRRow02" /><rect
         x="4.92"
         y="15.9816"
         width="26.49"
         height="6.15152"
         id="armorRTRRow03" /><rect
         x="2.27"
         y="21.3088"
         width="28.08"
         height="6.15152"
         id="armorRTRRow04" /><rect
         x="0"
         y="26.636"
         width="30.36"
         height="6.15152"
         id="armorRTRRow05" /><rect
         x="0"
         y="31.9632"
         width="27.77"
         height="6.15152"
         id="armorRTRRow06" /></g><g
       id="armorPipsLTR"
       fill="none"
       transform="matrix(-1,0,0,1,462.87,311.26)"><rect
         x="7.88"
         y="0"
         width="22.77"
         height="6.15152"
         id="rect2020" /><rect
         x="7.09"
         y="5.3272"
         width="24.94"
         height="6.15152"
         id="rect2022" /><rect
         x="6.1"
         y="10.6544"
         width="25.56"
         height="6.15152"
         id="rect2024" /><rect
         x="4.92"
         y="15.9816"
         width="26.49"
         height="6.15152"
         id="rect2026" /><rect
         x="2.27"
         y="21.3088"
         width="28.08"
         height="6.15152"
         id="rect2028" /><rect
         x="0"
         y="26.636"
         width="30.36"
         height="6.15152"
         id="rect2030" /><rect
         x="0"
         y="31.9632"
         width="27.77"
         height="6.15152"
         id="rect2032" /></g></g><g
       id="armorValues" transform="translate(0,-3.2)"
       style="font-size:5.7954998px"><text
         id="armorType"
         style="font-weight:bold;font-size:8.4434px"
         x="536"
         y="310">Standard</text>
<text
         id="armorType2"
         style="font-weight:bold;font-size:8.4434px"
         x="536"
         y="318" />
<text
        font-weight="bold"
         id="textArmor_HD"
         x="490.57"
         y="46.27">( 0 )</text>
<text
        font-weight="bold"
         text-anchor="middle"
         id="textArmor_CT"
         x="458.58"
         y="221.62">( 0 )</text>
<text
        font-weight="bold"
         id="textArmor_CTR"
         x="496.24"
         y="365.49">( 0 )</text>
<text
        font-weight="bold"
         text-anchor="middle"
         id="textArmor_RT"
         x="513.88"
         y="54.44">( 0 )</text>
<text
        font-weight="bold"
         text-anchor="middle"
         id="textArmor_RTR"
         x="545.87"
         y="354.46">( 0 )</text>
<text
        font-weight="bold"
         text-anchor="middle"
         id="textArmor_LT"
         x="455.2"
         y="54.44">( 0 )</text>
<text
        font-weight="bold"
         text-anchor="middle"
         id="textArmor_LTR"
         x="413.53"
         y="354.46">( 0 )</text>
<text
        font-weight="bold"
         text-anchor="middle"
         id="textArmor_RA"
         x="570.86"
         y="187.34">( 0 )</text>
<text
        font-weight="bold"
         text-anchor="middle"
         id="textArmor_LA"
         x="404.4"
         y="187.34">( 0 )</text>
<text
        font-weight="bold"
         text-anchor="middle"
         id="textArmor_RL"
         x="576.51"
         y="263.15">( 0 )</text>
<text
        font-weight="bold"
         text-anchor="middle"
         id="textArmor_LL"
         x="402.45"
         y="221.6">( 0 )</text>
<text
        font-weight="bold"
         text-anchor="middle"
         id="textArmor_CL"
         x="514.11"
         y="283.86">( 0 )</text></g></g></g>
</svg>
