<?xml version="1.0" encoding="utf-8"?>
<!DOCTYPE svg PUBLIC "-//W3C//DTD SVG 1.0//EN" "http://www.w3.org/TR/2001/REC-SVG-20010904/DTD/svg10.dtd">
<svg version="1.0" xmlns="http://www.w3.org/2000/svg" xmlns:xlink="http://www.w3.org/1999/xlink" x="0" y="0" width="299" height="433"
     xml:space="preserve">
<g id="armor_diagram_smallcraft_aerodyne" transform="matrix(1,0,0,-1,-255.06197,689.86296)"><g
             id="g2582"
             transform="translate(500.6967,428.4641)"><path
               d="m 0,0 c 0,0 -2.1,19.083 -8.614,48.889 l -3.075,61.006 -13.759,2.192 c -14.091,44.759 -34.999,94.901 -67.329,142.584 -32.326,-47.683 -54.453,-97.825 -68.544,-142.584 l -12.539,-2.192 -3.077,-61.009 C -183.449,19.082 -185.549,0 -185.549,0 l -46.386,-36.381 v -38.202 l 46.386,-34.562 4.639,-7.276 52.455,15.157 15.868,-32.552 h 37.689 l 16.11,33.041 54.147,-15.646 4.641,7.276 46.386,34.562 v 38.202 z"
               style="fill:#ccced0;fill-opacity:1;fill-rule:nonzero;stroke:none"
               id="path2584"
                /></g><g
             id="g2586"
             transform="translate(496.1124,432.5712)"><path
               d="m 0,0 c 0,0 -2.1,19.083 -8.614,48.889 l -3.075,61.006 -13.759,2.192 c -14.091,44.759 -34.999,94.9 -67.329,142.584 -32.326,-47.684 -54.453,-97.825 -68.544,-142.584 l -12.539,-2.192 -3.077,-61.009 C -183.449,19.082 -185.549,0 -185.549,0 l -46.386,-36.381 v -38.202 l 46.386,-34.562 4.639,-7.276 52.455,15.157 15.868,-32.553 h 37.689 l 16.11,33.042 54.147,-15.646 4.641,7.276 46.386,34.562 v 38.202 z"
               style="fill:#ffffff;fill-opacity:1;fill-rule:nonzero;stroke:none"
               id="path2588"
                /></g><g
             id="g2590"
             transform="translate(374.2399,637.7971)"><path
               d="M 0,0 4.092,1.986 C 11.432,16.107 19.769,30.27 29.195,44.171 38.619,30.27 46.827,16.107 54.004,1.986 L 58.075,0"
               style="fill:none;stroke:#a7a9ac;stroke-width:0.96600002;stroke-linecap:butt;stroke-linejoin:miter;stroke-miterlimit:4;stroke-dasharray:none;stroke-opacity:1"
               id="path2592"
                /></g><g
             id="g2594"
             transform="translate(428.2441,639.7831)"><path
               d="M 0,0 C -7.178,14.121 -15.386,28.284 -24.81,42.185 -34.235,28.284 -42.571,14.121 -49.912,0"
               style="fill:none;stroke:#a7a9ac;stroke-width:0.96600002;stroke-linecap:butt;stroke-linejoin:miter;stroke-miterlimit:4;stroke-dasharray:none;stroke-opacity:1"
               id="path2596"
                /></g><g
             id="g2598"
             transform="translate(446.5568,515.0733)"><path
               d="M 0,0 -24.104,107.894 V 78.893 L -8.278,0.585 v -183.638"
               style="fill:none;stroke:#a7a9ac;stroke-width:0.96600002;stroke-linecap:butt;stroke-linejoin:round;stroke-miterlimit:4;stroke-dasharray:none;stroke-opacity:1"
               id="path2600"
                /></g><g
             id="g2602"
             transform="translate(359.9947,515.1379)"><path
               d="m 0,0 24.106,107.893 v -29 L 8.278,0.584 v -183.638"
               style="fill:none;stroke:#a7a9ac;stroke-width:0.96600002;stroke-linecap:butt;stroke-linejoin:round;stroke-miterlimit:4;stroke-dasharray:none;stroke-opacity:1"
               id="path2604"
                /></g><g
             id="g2606"
             transform="translate(496.3539,432.8928)"><path
               d="M 0,0 H -58.075"
               style="fill:none;stroke:#a7a9ac;stroke-width:0.96600002;stroke-linecap:butt;stroke-linejoin:miter;stroke-miterlimit:4;stroke-dasharray:none;stroke-opacity:1"
               id="path2608"
                /></g><g
             id="g2610"
             transform="translate(455.8103,515.0733)"><path
               d="M 0,0 H -17.531"
               style="fill:none;stroke:#a7a9ac;stroke-width:0.96600002;stroke-linecap:butt;stroke-linejoin:miter;stroke-miterlimit:4;stroke-dasharray:none;stroke-opacity:1"
               id="path2612"
                /></g><g
             id="g2614"
             transform="translate(438.2786,387.9663)"><path
               d="M 0,0 H 27.921 L 58.075,-20.819"
               style="fill:none;stroke:#a7a9ac;stroke-width:0.96600002;stroke-linecap:butt;stroke-linejoin:miter;stroke-miterlimit:4;stroke-dasharray:none;stroke-opacity:1"
               id="path2616"
                /></g><g
             id="g2618"
             transform="translate(496.3539,432.8928)"><path
               d="M 0,0 V -109.576"
               style="fill:none;stroke:#a7a9ac;stroke-width:0.96600002;stroke-linecap:butt;stroke-linejoin:miter;stroke-miterlimit:4;stroke-dasharray:none;stroke-opacity:1"
               id="path2620"
                /></g><g
             id="g2622"
             transform="translate(310.0758,432.8928)"><path
               d="M 0,0 H 58.076"
               style="fill:none;stroke:#a7a9ac;stroke-width:0.96600002;stroke-linecap:butt;stroke-linejoin:miter;stroke-miterlimit:4;stroke-dasharray:none;stroke-opacity:1"
               id="path2624"
                /></g><g
             id="g2626"
             transform="translate(333.6963,538.0845)"><path
               d="M 0,0 16.923,-23.011 V -150.119"
               style="fill:none;stroke:#a7a9ac;stroke-width:0.96600002;stroke-linecap:butt;stroke-linejoin:miter;stroke-miterlimit:4;stroke-dasharray:none;stroke-opacity:1"
               id="path2628"
                /></g><g
             id="g2630"
             transform="translate(350.6186,515.0733)"><path
               d="M 0,0 H 17.533"
               style="fill:none;stroke:#a7a9ac;stroke-width:0.96600002;stroke-linecap:butt;stroke-linejoin:miter;stroke-miterlimit:4;stroke-dasharray:none;stroke-opacity:1"
               id="path2632"
                /></g><g
             id="g2634"
             transform="translate(368.1521,387.9663)"><path
               d="M 0,0 H -27.921 L -58.076,-20.819"
               style="fill:none;stroke:#a7a9ac;stroke-width:0.96600002;stroke-linecap:butt;stroke-linejoin:miter;stroke-miterlimit:4;stroke-dasharray:none;stroke-opacity:1"
               id="path2636"
                /></g><g
             id="g2638"
             transform="translate(310.0758,432.8928)"><path
               d="M 0,0 V -109.576"
               style="fill:none;stroke:#a7a9ac;stroke-width:0.96600002;stroke-linecap:butt;stroke-linejoin:miter;stroke-miterlimit:4;stroke-dasharray:none;stroke-opacity:1"
               id="path2640"
                /></g><g
             id="g2642"
             transform="translate(370.9526,631.2225)"><path
               d="M 0,0 13.148,0.031"
               style="fill:none;stroke:#a7a9ac;stroke-width:0.96600002;stroke-linecap:butt;stroke-linejoin:miter;stroke-miterlimit:4;stroke-dasharray:none;stroke-opacity:1"
               id="path2644"
                /></g><g
             id="g2646"
             transform="translate(368.1521,346.3275)"><path
               d="M 0,0 H 70.127"
               style="fill:none;stroke:#a7a9ac;stroke-width:0.96600002;stroke-linecap:butt;stroke-linejoin:miter;stroke-miterlimit:4;stroke-dasharray:none;stroke-opacity:1"
               id="path2648"
                /></g><g
             id="g2650"
             transform="translate(411.4945,515.0733)"><path
               d="m 0,0 h -17.531 l 2.189,77.798 h 13.15 z"
               style="fill:none;stroke:#a7a9ac;stroke-width:0.96600002;stroke-linecap:butt;stroke-linejoin:miter;stroke-miterlimit:4;stroke-dasharray:none;stroke-opacity:1"
               id="path2652"
                /></g><g
             id="g2654"
             transform="translate(410.3993,542.4673)"><path
               d="M 0,0 H -15.34"
               style="fill:none;stroke:#a7a9ac;stroke-width:0.96600002;stroke-linecap:butt;stroke-linejoin:miter;stroke-miterlimit:4;stroke-dasharray:none;stroke-opacity:1"
               id="path2656"
                /></g><g
             id="g2658"
             transform="translate(322.7402,538.0845)"><path
               d="m 0,0 h 10.956 l 1.096,6.574"
               style="fill:none;stroke:#a7a9ac;stroke-width:0.96600002;stroke-linecap:butt;stroke-linejoin:round;stroke-miterlimit:4;stroke-dasharray:none;stroke-opacity:1"
               id="path2660"
                /></g><g
             id="g2662"
             transform="translate(472.858,538.0854)"><path
               d="M 0,0 -16.924,-23.012 V -150.118"
               style="fill:none;stroke:#a7a9ac;stroke-width:0.96600002;stroke-linecap:butt;stroke-linejoin:miter;stroke-miterlimit:4;stroke-dasharray:none;stroke-opacity:1"
               id="path2664"
                /></g><g
             id="g2666"
             transform="translate(483.8159,538.0854)"><path
               d="m 0,0 h -10.958 l -1.097,6.573"
               style="fill:none;stroke:#a7a9ac;stroke-width:0.96600002;stroke-linecap:butt;stroke-linejoin:round;stroke-miterlimit:4;stroke-dasharray:none;stroke-opacity:1"
               id="path2668"
                /></g><g
             id="g2670"
             transform="translate(435.5997,631.2216)"><path
               d="M 0,0 -13.145,0.001"
               style="fill:none;stroke:#a7a9ac;stroke-width:0.96600002;stroke-linecap:butt;stroke-linejoin:miter;stroke-miterlimit:4;stroke-dasharray:none;stroke-opacity:1"
               id="path2672"
                /></g><g
             id="g2674"
             transform="translate(422.4524,623.0311)"><path
               d="M 0,0 V 8.191 L -12.053,31.202 H -26.3 L -38.415,8.335 -38.351,0"
               style="fill:none;stroke:#a7a9ac;stroke-width:0.96600002;stroke-linecap:butt;stroke-linejoin:miter;stroke-miterlimit:4;stroke-dasharray:none;stroke-opacity:1"
               id="path2676"
                /></g><g
             id="g2678"
             transform="translate(385.6827,623.524)"><path
               d="m 0,0 v -27.302 l 3.898,-0.01 V 5.354 Z"
               style="fill:#a7a9ac;fill-opacity:1;fill-rule:nonzero;stroke:none"
               id="path2680"
                /></g><g
             id="g2682"
             transform="translate(385.6827,623.524)"><path
               d="m 0,0 v -27.302 l 3.898,-0.01 V 5.354 Z"
               style="fill:none;stroke:#a7a9ac;stroke-width:0.96600002;stroke-linecap:butt;stroke-linejoin:miter;stroke-miterlimit:4;stroke-dasharray:none;stroke-opacity:1"
               id="path2684"
                /></g><g
             id="g2686"
             transform="translate(420.746,623.316)"><path
               d="M 0,0 -3.772,5.438 V -27.148 L 0,-27.158 Z"
               style="fill:#a7a9ac;fill-opacity:1;fill-rule:nonzero;stroke:none"
               id="path2688"
                /></g><g
             id="g2690"
             transform="translate(420.746,623.316)"><path
               d="M 0,0 -3.772,5.438 V -27.148 L 0,-27.158 Z"
               style="fill:none;stroke:#a7a9ac;stroke-width:0.96600002;stroke-linecap:butt;stroke-linejoin:miter;stroke-miterlimit:4;stroke-dasharray:none;stroke-opacity:1"
               id="path2692"
                /></g><g
             id="g2694"
             transform="translate(409.1146,651.2034)"><path
               d="m 0,0 h -12.108 l -5.228,-17.789 H 5.488 Z"
               style="fill:#a7a9ac;fill-opacity:1;fill-rule:nonzero;stroke:none"
               id="path2696"
                /></g><g
             id="g2698"
             transform="translate(409.1146,651.2034)"><path
               d="m 0,0 h -12.108 l -5.228,-17.789 H 5.488 Z"
               style="fill:none;stroke:#a7a9ac;stroke-width:0.96600002;stroke-linecap:butt;stroke-linejoin:miter;stroke-miterlimit:4;stroke-dasharray:none;stroke-opacity:1"
               id="path2700"
                /></g><g
             id="g2702"
             transform="translate(391.8319,629.577)"><path
               d="m 0,0 v -32.274 h 0.298 l 9.547,15.889 z"
               style="fill:#a7a9ac;fill-opacity:1;fill-rule:nonzero;stroke:none"
               id="path2704"
                /></g><g
             id="g2706"
             transform="translate(391.8319,629.577)"><path
               d="m 0,0 v -32.274 h 0.298 l 9.547,15.889 z"
               style="fill:none;stroke:#a7a9ac;stroke-width:0.96600002;stroke-linecap:butt;stroke-linejoin:round;stroke-miterlimit:4;stroke-dasharray:none;stroke-opacity:1"
               id="path2708"
                /></g><g
             id="g2710"
             transform="translate(413.6365,631.223)"><path
               d="m 0,0 h -20.878 l 10.439,-16.437 z"
               style="fill:#a7a9ac;fill-opacity:1;fill-rule:nonzero;stroke:none"
               id="path2712"
                /></g><g
             id="g2714"
             transform="translate(413.6365,631.223)"><path
               d="m 0,0 h -20.878 l 10.439,-16.437 z"
               style="fill:none;stroke:#a7a9ac;stroke-width:0.96600002;stroke-linecap:butt;stroke-linejoin:round;stroke-miterlimit:4;stroke-dasharray:none;stroke-opacity:1"
               id="path2716"
                /></g><g
             id="g2718"
             transform="translate(393.4205,596.2036)"><path
               d="M 0,0 19.576,-0.03 9.778,15.295 Z"
               style="fill:#a7a9ac;fill-opacity:1;fill-rule:nonzero;stroke:none"
               id="path2720"
                /></g><g
             id="g2722"
             transform="translate(393.4205,596.2036)"><path
               d="M 0,0 19.576,-0.03 9.778,15.295 Z"
               style="fill:none;stroke:#a7a9ac;stroke-width:0.96600002;stroke-linecap:butt;stroke-linejoin:round;stroke-miterlimit:4;stroke-dasharray:none;stroke-opacity:1"
               id="path2724"
                /></g><g
             id="g2726"
             transform="translate(414.3214,597.2676)"><path
               d="M 0,0 0.521,-0.001 V 32.762 L -9.395,15.938 Z"
               style="fill:#a7a9ac;fill-opacity:1;fill-rule:nonzero;stroke:none"
               id="path2728"
                /></g><g
             id="g2730"
             transform="translate(414.3214,597.2676)"><path
               d="M 0,0 0.521,-0.001 V 32.762 L -9.395,15.938 Z"
               style="fill:none;stroke:#a7a9ac;stroke-width:0.96600002;stroke-linecap:butt;stroke-linejoin:round;stroke-miterlimit:4;stroke-dasharray:none;stroke-opacity:1"
               id="path2732"
                /></g><g
             id="g2734"
             transform="translate(402.774,332.0841)"><path
               d="M 0,0 V -32.873"
               style="fill:#d1d3d4;fill-opacity:1;fill-rule:nonzero;stroke:#a7a9ac;stroke-width:0.96600002;stroke-linecap:butt;stroke-linejoin:miter;stroke-miterlimit:4;stroke-dasharray:none;stroke-opacity:1"
               id="path2736"
                /></g><g
             id="g2738"
             transform="translate(420.3055,332.0841)"><path
               d="M 0,0 -4.382,-32.873"
               style="fill:#d1d3d4;fill-opacity:1;fill-rule:nonzero;stroke:#a7a9ac;stroke-width:0.96600002;stroke-linecap:butt;stroke-linejoin:miter;stroke-miterlimit:4;stroke-dasharray:none;stroke-opacity:1"
               id="path2740"
                /></g><g
             id="g2742"
             transform="translate(385.2404,332.0841)"><path
               d="M 0,0 4.384,-32.873"
               style="fill:#d1d3d4;fill-opacity:1;fill-rule:nonzero;stroke:#a7a9ac;stroke-width:0.96600002;stroke-linecap:butt;stroke-linejoin:miter;stroke-miterlimit:4;stroke-dasharray:none;stroke-opacity:1"
               id="path2744"
                /></g><g
             id="g2746"
             transform="translate(368.1747,331.9897)"><path
               d="M 0,0 69.663,0.095"
               style="fill:#d1d3d4;fill-opacity:1;fill-rule:nonzero;stroke:#a7a9ac;stroke-width:0.96600002;stroke-linecap:butt;stroke-linejoin:miter;stroke-miterlimit:4;stroke-dasharray:none;stroke-opacity:1"
               id="path2748"
                /></g><g
             id="g2750"
             transform="translate(400.5818,334.2741)"><path
               d="M 0,0 H -14.245 V 9.863 H 0 Z"
               style="fill:none;stroke:#a7a9ac;stroke-width:0.96600002;stroke-linecap:butt;stroke-linejoin:miter;stroke-miterlimit:4;stroke-dasharray:none;stroke-opacity:1"
               id="path2752"
                /></g><g
             id="g2754"
             transform="translate(419.2094,334.2741)"><path
               d="M 0,0 H -14.245 V 9.863 H 0 Z"
               style="fill:none;stroke:#a7a9ac;stroke-width:0.96600002;stroke-linecap:butt;stroke-linejoin:miter;stroke-miterlimit:4;stroke-dasharray:none;stroke-opacity:1"
               id="path2756"
                /></g><g
             id="g2758"
             transform="translate(380.8599,334.2741)"><path
               d="M 0,0 H -9.863 V 9.863 H 0 Z"
               style="fill:none;stroke:#a7a9ac;stroke-width:0.96600002;stroke-linecap:butt;stroke-linejoin:miter;stroke-miterlimit:4;stroke-dasharray:none;stroke-opacity:1"
               id="path2760"
                /></g><g
             id="g2762"
             transform="translate(434.5509,334.2741)"><path
               d="M 0,0 H -9.862 V 9.863 H 0 Z"
               style="fill:none;stroke:#a7a9ac;stroke-width:0.96600002;stroke-linecap:butt;stroke-linejoin:miter;stroke-miterlimit:4;stroke-dasharray:none;stroke-opacity:1"
               id="path2764"
                /></g><g
             id="g2766"
             transform="translate(310.7314,324.4134)"><path
               d="M 0,0 57.42,21.914"
               style="fill:none;stroke:#a7a9ac;stroke-width:0.96600002;stroke-linecap:butt;stroke-linejoin:miter;stroke-miterlimit:4;stroke-dasharray:none;stroke-opacity:1"
               id="path2768"
                /></g><g
             id="g2770"
             transform="translate(495.9124,324.4134)"><path
               d="M 0,0 -57.418,21.914"
               style="fill:none;stroke:#a7a9ac;stroke-width:0.96600002;stroke-linecap:butt;stroke-linejoin:miter;stroke-miterlimit:4;stroke-dasharray:none;stroke-opacity:1"
               id="path2772"
                /></g><g
             id="g2774"
             transform="translate(533.1678,351.6362)"><path
               d="M 0,0 V 51.498"
               style="fill:#d1d3d4;fill-opacity:1;fill-rule:nonzero;stroke:#a7a9ac;stroke-width:0.96600002;stroke-linecap:butt;stroke-linejoin:miter;stroke-miterlimit:4;stroke-dasharray:none;stroke-opacity:1"
               id="path2776"
                /></g><g
             id="g2778"
             transform="translate(496.0596,334.448)"><path
               d="M 0,0 37.108,27.649 V 58.21 L 0,87.316"
               style="fill:none;stroke:#a7a9ac;stroke-width:0.96600002;stroke-linecap:butt;stroke-linejoin:miter;stroke-miterlimit:4;stroke-dasharray:none;stroke-opacity:1"
               id="path2780"
                /></g><g
             id="g2782"
             transform="translate(272.5271,351.6362)"><path
               d="M 0,0 V 51.498"
               style="fill:#d1d3d4;fill-opacity:1;fill-rule:nonzero;stroke:#a7a9ac;stroke-width:0.96600002;stroke-linecap:butt;stroke-linejoin:miter;stroke-miterlimit:4;stroke-dasharray:none;stroke-opacity:1"
               id="path2784"
                /></g><g
             id="g2786"
             transform="translate(309.6354,334.448)"><path
               d="M 0,0 -37.108,27.649 V 58.21 L 0,87.316"
               style="fill:none;stroke:#a7a9ac;stroke-width:0.96600002;stroke-linecap:butt;stroke-linejoin:miter;stroke-miterlimit:4;stroke-dasharray:none;stroke-opacity:1"
               id="path2788"
                /></g><g
             id="g2790"
             transform="translate(339.2201,449.3288)"><path
               d="m 0,0 c 0,-6.051 -4.905,-10.957 -10.956,-10.957 -6.051,0 -10.958,4.906 -10.958,10.957 0,6.051 4.907,10.957 10.958,10.957 C -4.905,10.957 0,6.051 0,0 Z"
               style="fill:none;stroke:#a7a9ac;stroke-width:0.96600002;stroke-linecap:butt;stroke-linejoin:miter;stroke-miterlimit:4;stroke-dasharray:none;stroke-opacity:1"
               id="path2792"
                /></g><g
             id="g2794"
             transform="translate(332.6455,432.8933)"><path
               d="M 0,0 V 18.627 L 17.533,42.734"
               style="fill:none;stroke:#a7a9ac;stroke-width:0.96600002;stroke-linecap:butt;stroke-linejoin:miter;stroke-miterlimit:4;stroke-dasharray:none;stroke-opacity:1"
               id="path2796"
                /></g><g
             id="g2798"
             transform="translate(481.6689,437.2767)"><path
               d="M 0,0 H -21.917 V 21.915 H 0 Z"
               style="fill:none;stroke:#a7a9ac;stroke-width:0.96600002;stroke-linecap:butt;stroke-linejoin:miter;stroke-miterlimit:4;stroke-dasharray:none;stroke-opacity:1"
               id="path2800"
                /></g><path
             d="m 470.711,448.234 h -10.96 v 10.957 h 10.96 z"
             style="fill:#a7a9ac;fill-opacity:1;fill-rule:nonzero;stroke:none"
             id="path2802"
              /><g
             id="g2804"
             transform="translate(470.7107,448.2339)"><path
               d="M 0,0 H -10.96 V 10.957 H 0 Z"
               style="fill:none;stroke:#a7a9ac;stroke-width:0.96600002;stroke-linecap:butt;stroke-linejoin:miter;stroke-miterlimit:4;stroke-dasharray:none;stroke-opacity:1"
               id="path2806"
                /></g><path
             d="m 481.669,437.277 h -10.958 v 10.957 h 10.958 z"
             style="fill:#a7a9ac;fill-opacity:1;fill-rule:nonzero;stroke:none"
             id="path2808"
              /><g
             id="g2810"
             transform="translate(481.6689,437.2767)"><path
               d="M 0,0 H -10.958 V 10.957 H 0 Z"
               style="fill:none;stroke:#a7a9ac;stroke-width:0.96600002;stroke-linecap:butt;stroke-linejoin:miter;stroke-miterlimit:4;stroke-dasharray:none;stroke-opacity:1"
               id="path2812"
                /></g><g
             id="g2814"
             transform="translate(337.0318,334.2744)"><path
               d="M 0,0 V -10.955"
               style="fill:#a7a9ac;fill-opacity:1;fill-rule:nonzero;stroke:#a7a9ac;stroke-width:0.96600002;stroke-linecap:butt;stroke-linejoin:miter;stroke-miterlimit:4;stroke-dasharray:none;stroke-opacity:1"
               id="path2816"
                /></g><g
             id="g2818"
             transform="translate(468.519,334.2744)"><path
               d="M 0,0 V -10.955"
               style="fill:#a7a9ac;fill-opacity:1;fill-rule:nonzero;stroke:#a7a9ac;stroke-width:0.96600002;stroke-linecap:butt;stroke-linejoin:miter;stroke-miterlimit:4;stroke-dasharray:none;stroke-opacity:1"
               id="path2820"
                /></g><g
             id="g2822"
             transform="translate(496.1124,432.5712)"><path
               d="m 0,0 c 0,0 -2.1,19.083 -8.614,48.889 l -3.075,61.006 -13.759,2.192 c -14.091,44.759 -34.999,94.9 -67.329,142.584 -32.326,-47.684 -54.453,-97.825 -68.544,-142.584 l -12.539,-2.192 -3.077,-61.009 C -183.449,19.082 -185.549,0 -185.549,0 l -46.386,-36.381 v -38.202 l 46.386,-34.562 4.639,-7.276 52.455,15.157 15.868,-32.553 h 37.689 l 16.11,33.042 54.147,-15.646 4.641,7.276 46.386,34.562 v 38.202 z"
               style="fill:none;stroke:#000000;stroke-width:1.93200004;stroke-linecap:butt;stroke-linejoin:miter;stroke-miterlimit:4;stroke-dasharray:none;stroke-opacity:1"
               id="path2824"
                /></g><g
             id="g2826"
             transform="translate(482.3548,468.5956)"><path
               d="M 0,0 H -14.368 V 52.585 L -11.4,5.171 h 7.187 l 4.466,47.414 z"
               style="fill:#a7a9ac;fill-opacity:1;fill-rule:nonzero;stroke:none"
               id="path2828"
                /></g><g
             id="g2830"
             transform="translate(482.3548,468.5956)"><path
               d="M 0,0 H -14.368 V 52.585 L -11.4,5.171 h 7.187 l 4.466,47.414 z"
               style="fill:none;stroke:#a7a9ac;stroke-width:0.96600002;stroke-linecap:butt;stroke-linejoin:miter;stroke-miterlimit:4;stroke-dasharray:none;stroke-opacity:1"
               id="path2832"
                /></g><g
             id="g2834"
             transform="translate(324.6975,468.5956)"><path
               d="M 0,0 H 14.366 V 52.585 L 11.399,5.171 H 4.211 l -4.466,47.414 z"
               style="fill:#a7a9ac;fill-opacity:1;fill-rule:nonzero;stroke:none"
               id="path2836"
                /></g><g
             id="g2838"
             transform="translate(324.6975,468.5956)"><path
               d="M 0,0 H 14.366 V 52.585 L 11.399,5.171 H 4.211 l -4.466,47.414 z"
               style="fill:none;stroke:#a7a9ac;stroke-width:0.96600002;stroke-linecap:butt;stroke-linejoin:miter;stroke-miterlimit:4;stroke-dasharray:none;stroke-opacity:1"
               id="path2840"
                /></g><g
             id="g2842"
             transform="translate(440.3,468.2004)"><path
               d="M 0,0 V -134.163"
               style="fill:none;stroke:#000000;stroke-width:1.93200004;stroke-linecap:round;stroke-linejoin:miter;stroke-miterlimit:4;stroke-dasharray:none;stroke-opacity:1"
               id="path2844"
                /></g><g
             id="g2846"
             transform="translate(366.3741,468.2004)"><path
               d="M 0,0 V -134.163"
               style="fill:none;stroke:#000000;stroke-width:1.93200004;stroke-linecap:round;stroke-linejoin:miter;stroke-miterlimit:4;stroke-dasharray:none;stroke-opacity:1"
               id="path2848"
                /></g><g
             id="g2850"
             transform="translate(336.2545,535.2815)"><path
               d="M 0,0 H 134.163"
               style="fill:none;stroke:#000000;stroke-width:1.93200004;stroke-linecap:round;stroke-linejoin:miter;stroke-miterlimit:4;stroke-dasharray:none;stroke-opacity:1"
               id="path2852"
                /></g><g
             id="g9346"
             transform="translate(437.5627,481.1605)"><path
               d="m 0,0 c 0,-6.402 -4.541,-11.591 -10.142,-11.591 h -48.166 c -5.602,0 -10.142,5.189 -10.142,11.591 v 30.21 c 0,6.401 4.54,11.591 10.142,11.591 h 48.166 C -4.541,41.801 0,36.611 0,30.21 Z"
               style="fill:#ccced0;fill-opacity:1;fill-rule:nonzero;stroke:none"
               id="path9348"
                /></g><g
             id="g9350"
             transform="translate(437.5627,481.1605)"><path
               d="m 0,0 c 0,-6.402 -4.541,-11.591 -10.142,-11.591 h -48.166 c -5.602,0 -10.142,5.189 -10.142,11.591 v 30.21 c 0,6.401 4.54,11.591 10.142,11.591 h 48.166 C -4.541,41.801 0,36.611 0,30.21 Z"
               style="fill:none;stroke:#000000;stroke-width:1.93200004;stroke-linecap:butt;stroke-linejoin:miter;stroke-miterlimit:4;stroke-dasharray:none;stroke-opacity:1"
               id="path9352"
                /></g><text
         transform="matrix(1,0,0,-1,402.8881,514.7466)"
         style="font-variant:normal;font-weight:bold;font-stretch:normal;font-size:7.72730017px;font-family:Eurostile;writing-mode:lr-tb;fill:#000000;fill-opacity:1;fill-rule:nonzero;stroke:none" text-anchor="middle"
         id="text7806"><tspan
           x="0"
           y="0"
           id="tspan7802">Structural</tspan><tspan
           x="0"
           y="9.2727604"
           id="tspan7804">Integrity:</tspan><tspan
           x="0"
           y="18.5455208"
           id="textSI"></tspan></text>
<text
         transform="matrix(1,0,0,-1,461.5,683)"
         style="font-variant:normal;font-weight:bold;font-stretch:normal;font-size:7.72730017px;;writing-mode:lr-tb;fill:#000000;fill-opacity:1;fill-rule:nonzero;stroke:none" text-anchor="middle"
         id="text3140"><tspan
           x="0"
           y="0"
           id="tspan3126">Nose</tspan><tspan
           x="0"
           y="9.2727604"
           id="tspan3128">Damage Threshold</tspan><tspan
           x="0"
           y="18.545521"
           id="tspan3128">(Total Armor)</tspan><tspan
           x="0"
           y="27.8183"
           id="textArmor_NOS"> ( )</tspan></text><text
         transform="matrix(1,0,0,-1,524.82,488.49)"
         style="font-variant:normal;font-weight:bold;font-stretch:normal;font-size:7.72730017px;;writing-mode:lr-tb;fill:#000000;fill-opacity:1;fill-rule:nonzero;stroke:none" text-anchor="middle"
         id="text3140"><tspan
           x="0"
           y="0"
           id="tspan3132">Right Wing</tspan><tspan
           x="0"
           y="9.2727604"
           id="tspan3134">Damage</tspan><tspan
           x="0"
           y="18.545521"
           id="tspan3134">Threshold</tspan><tspan
           x="0"
           y="27.8183"
           id="tspan3172">(Total Armor)</tspan><tspan
           x="0"
           y="37.091"
           id="textArmor_RS"> ( )</tspan></text><text
         transform="matrix(1,0,0,-1,404.92,285.7)"
         style="font-variant:normal;font-weight:bold;font-stretch:normal;font-size:7.72730017px;;writing-mode:lr-tb;fill:#000000;fill-opacity:1;fill-rule:nonzero;stroke:none" text-anchor="middle"
         id="text3158"><tspan
           x="0"
           y="0"
           id="tspan3126">Aft</tspan><tspan
           x="0"
           y="9.2727604"
           id="tspan3128">Damage Threshold</tspan><tspan
           x="0"
           y="18.545521"
           id="tspan3128">(Total Armor)</tspan><tspan
           x="0"
           y="27.8183"
           id="textArmor_AFT"> ( )</tspan></text><text
         transform="matrix(1,0,0,-1,283.33,488.49)"
         style="font-variant:normal;font-weight:bold;font-stretch:normal;font-size:7.72730017px;;fill:#000000;fill-opacity:1;fill-rule:nonzero;stroke:none" text-anchor="middle"
         id="text3176"><tspan
           x="0"
           y="0"
           id="tspan3132">Left Wing</tspan><tspan
           x="0"
           y="9.2727604"
           id="tspan3134">Damage</tspan><tspan
           x="0"
           y="18.545521"
           id="tspan3134">Threshold</tspan><tspan
           x="0"
           y="27.8183"
           id="tspan3172">(Total Armor)</tspan><tspan
           x="0"
           y="37.091"
           id="textArmor_LS"> ( )</tspan></text></g>
   <g fill="none" id="armorPips">
    <g id="armorPipsNOS" transform="translate(148.105,28.1)">
      <rect x="-13.7" width="27.4" y="0" height="6.8" id="armorNOSRow00"/>
      <rect x="-16.3" width="32.6" y="6.8" height="6.8" id="armorNOSRow01"/>
      <rect x="-22.9" width="45.8" y="15.6" height="6.8" id="armorNOSRow02"/>
      <rect x="-25" width="50" y="20.4" height="6.8" id="armorNOSRow03"/>
      <rect x="-27.9" width="55.8" y="27.2" height="6.8" id="armorNOSRow04"/>
      <rect x="-32.1" width="64.2" y="34.0" height="6.8" id="armorNOSRow05"/>
      <rect x="-35.6" width="71.2" y="40.8" height="6.8" id="armorNOSRow06"/>
      <rect x="-38.1" width="76.2" y="47.6" height="6.8" id="armorNOSRow07"/>
      <rect x="-41.5" width="83" y="54.4" height="6.8" id="armorNOSRow08"/>
      <rect x="-43.1" width="86.2" y="61.2" height="6.8" id="armorNOSRow09"/>
      <rect x="-47.4" width="94.8" y="68.0" height="6.8" id="armorNOSRow10"/>
      <rect x="-50.4" width="100.8" y="74.8" height="6.8" id="armorNOSRow11"/>
      <rect x="-52.4" width="104.8" y="81.4" height="6.8" id="armorNOSRow12"/>
      <rect x="-55.4" width="110.8" y="88.2" height="6.8" id="armorNOSRow13"/>
      <rect x="-58.9" width="117.8" y="95" height="6.8" id="armorNOSRow14"/>
      <rect x="-61" width="122" y="101.8" height="6.8" id="armorNOSRow15"/>
      <rect x="-65.1" width="130.2" y="108.6" height="6.8" id="armorNOSRow16"/>
    </g>
    <g id="armorPipsRS" transform="translate(187.82,160)">
      <rect x="0" width="40" y="0" height="6.8" id="armorRSRow00"/>
      <rect x="0" width="40" y="6.8" height="6.8" id="armorRSRow01"/>
      <rect x="0" width="40" y="15.6" height="6.8" id="armorRSRow02"/>
      <rect x="0" width="40" y="20.4" height="6.8" id="armorRSRow03"/>
      <rect x="0" width="40" y="27.2" height="6.8" id="armorRSRow04"/>
      <rect x="0" width="40" y="34.0" height="6.8" id="armorRSRow05"/>
      <rect x="0" width="40" y="40.8" height="6.8" id="armorRSRow06"/>
      <rect x="0" width="43.5" y="47.6" height="6.8" id="armorRSRow07"/>
      <rect x="0" width="44" y="54.4" height="6.8" id="armorRSRow08"/>
      <rect x="0" width="44.8" y="61.2" height="6.8" id="armorRSRow09"/>
      <rect x="0" width="46.1" y="68" height="6.8" id="armorRSRow10"/>
      <rect x="0" width="48.5" y="74.8" height="6.8" id="armorRSRow11"/>
      <rect x="0" width="48.6" y="81.6" height="6.8" id="armorRSRow12"/>
      <rect x="0" width="50.1" y="88.4" height="6.8" id="armorRSRow13"/>
      <rect x="0" width="51.2" y="95.2" height="6.8" id="armorRSRow14"/>
      <rect x="0" width="55.8" y="102" height="6.8" id="armorRSRow15"/>
      <rect x="0" width="64" y="108.8" height="6.8" id="armorRSRow16"/>
      <rect x="0" width="74.3" y="115.6" height="6.8" id="armorRSRow17"/>
      <rect x="0" width="82.9" y="122.4" height="6.8" id="armorRSRow18"/>
      <rect x="0" width="91.8" y="129.2" height="6.8" id="armorRSRow19"/>
      <rect x="0" width="98" y="136" height="6.8" id="armorRSRow20"/>
      <rect x="0" width="98" y="142.8" height="6.8" id="armorRSRow21"/>
      <rect x="0" width="98" y="149.6" height="6.8" id="armorRSRow22"/>
      <rect x="0" width="98" y="156.4" height="6.8" id="armorRSRow23"/>
      <rect x="0" width="98" y="163.2" height="6.8" id="armorRSRow24"/>
      <rect x="0" width="91.8" y="170" height="6.8" id="armorRSRow25"/>
      <rect x="0" width="82" y="176.8" height="6.8" id="armorRSRow26"/>
      <rect x="0" width="72.9" y="183.6" height="6.8" id="armorRSRow27"/>
      <rect x="0" width="62.5" y="190.4" height="6.8" id="armorRSRow28"/>
    </g>
    <g id="armorPipsLS" transform="matrix(-1,0,0,1,108.09,161.5)">
      <rect x="0" width="40" y="0" height="6.8" id="armorLSRow00"/>
      <rect x="0" width="40" y="6.8" height="6.8" id="armorLSRow01"/>
      <rect x="0" width="40" y="15.6" height="6.8" id="armorLSRow02"/>
      <rect x="0" width="40" y="20.4" height="6.8" id="armorLSRow03"/>
      <rect x="0" width="40" y="27.2" height="6.8" id="armorLSRow04"/>
      <rect x="0" width="40" y="34.0" height="6.8" id="armorLSRow05"/>
      <rect x="0" width="40" y="40.8" height="6.8" id="armorLSRow06"/>
      <rect x="0" width="43.5" y="47.6" height="6.8" id="armorLSRow07"/>
      <rect x="0" width="44" y="54.4" height="6.8" id="armorLSRow08"/>
      <rect x="0" width="44.8" y="61.2" height="6.8" id="armorLSRow09"/>
      <rect x="0" width="46.1" y="68" height="6.8" id="armorLSRow10"/>
      <rect x="0" width="48.5" y="74.8" height="6.8" id="armorLSRow11"/>
      <rect x="0" width="48.6" y="81.6" height="6.8" id="armorLSRow12"/>
      <rect x="0" width="50.1" y="88.4" height="6.8" id="armorLSRow13"/>
      <rect x="0" width="51.2" y="95.2" height="6.8" id="armorLSRow14"/>
      <rect x="0" width="55.8" y="102" height="6.8" id="armorLSRow15"/>
      <rect x="0" width="64" y="108.8" height="6.8" id="armorLSRow16"/>
      <rect x="0" width="74.3" y="115.6" height="6.8" id="armorLSRow17"/>
      <rect x="0" width="82.9" y="122.4" height="6.8" id="armorLSRow18"/>
      <rect x="0" width="91.8" y="129.2" height="6.8" id="armorLSRow19"/>
      <rect x="0" width="98" y="136" height="6.8" id="armorLSRow20"/>
      <rect x="0" width="98" y="142.8" height="6.8" id="armorLSRow21"/>
      <rect x="0" width="98" y="149.6" height="6.8" id="armorLSRow22"/>
      <rect x="0" width="98" y="156.4" height="6.8" id="armorLSRow23"/>
      <rect x="0" width="98" y="163.2" height="6.8" id="armorLSRow24"/>
      <rect x="0" width="91.8" y="170" height="6.8" id="armorLSRow25"/>
      <rect x="0" width="82" y="176.8" height="6.8" id="armorLSRow26"/>
      <rect x="0" width="72.9" y="183.6" height="6.8" id="armorLSRow27"/>
      <rect x="0" width="62.5" y="190.4" height="6.8" id="armorLSRow28"/>
    </g>
    <g id="armorPipsAFT" transform="translate(148.105,224.08)">
      <rect x="-33" width="66" y="0" height="6.8" id="armorAFTRow00"/>
      <rect x="-33" width="66" y="122.4" height="6.8" id="armorAFTRow01"/>
    </g>
  </g>
  <g fill="none" id="structurePips">
    <g id="siPips" transform="translate(148.105,196)">
      <rect x="-32" width="64" y="0" height="5.6" id="structurePipsFR00"/>
      <rect x="-32" width="64" y="5.6" height="5.6" id="structurePipsFR01"/>
      <rect x="-32" width="64" y="11.2" height="5.6" id="structurePipsFR02"/>
    </g>
  </g>
</svg>
