<?xml version="1.0" encoding="utf-8"?>
<!DOCTYPE svg PUBLIC "-//W3C//DTD SVG 1.0//EN" "http://www.w3.org/TR/2001/REC-SVG-20010904/DTD/svg10.dtd">
<svg version="1.0" xmlns="http://www.w3.org/2000/svg" xmlns:xlink="http://www.w3.org/1999/xlink" x="0" y="0" width="170" height="319"
     xml:space="preserve">
<g id="armor_diagram_superheavy_vee_noturret" transform="translate(-402.802,-33.665)">
<polyline
   style="fill:#c7c8ca"
   id="polyline4675"
   points="550.61,80.237 540.885,73.429 531.158,81.275 447.205,81.275 437.479,73.429 427.753,80.237    418.027,214.696 418.027,311.868 427.753,335.466 438.951,335.466 438.951,333.6 478.986,333.6 478.986,335.466 499.878,335.466    499.878,333.6 539.914,333.6 539.914,335.466 550.61,335.466 560.336,311.868 560.336,214.696 550.61,80.237  " /><rect
   style="fill:#c7c8ca"
   id="rect4677"
   height="91.481003"
   width="0.030999999"
   y="164.345"
   x="485.50299" />

          <g id="tracks" visibility="hidden"><g transform="matrix(1.0036484,0,0,-0.91895928,400.93461,538.2507)">
    <path style="fill:#c8c7c7;stroke:none;stroke-width:1"
        d="M30,253 h-16.8
        v1.176 h1.792 v1.448 h-1.792
        v2.184 h1.792 v2.072 h-1.792
        v3.744 h1.792 v3.04 h-1.792
        v6.055 h1.792 v4.543 h-1.792
        v6.055 h1.792 v4.543 h-1.792
        v6.055 h1.792 v4.543 h-1.792
        v6.055 h1.792 v4.543 h-1.792
        v6.055 h1.792 v4.543 h-1.792
        v6.055 h1.792 v4.543 h-1.792
        v6.055 h1.792 v4.543 h-1.792
        v6.055 h1.792 v4.543 h-1.792
        v6.055 h1.792 v4.543 h-1.792
        v6.055 h1.792 v4.543 h-1.792
        v6.055 h1.792 v4.543 h-1.792
        v6.055 h1.792 v4.543 h-1.792
        v6.055 h1.792 v4.543 h-1.792
        v6.055 h1.792 v4.543 h-1.792
        v6.055 h1.792 v4.543 h-1.792
        v6.055 h1.792 v4.543 h-1.792
        v6.055 h1.792 v4.543 h-1.792
        v6.055 h1.792 v4.543 h-1.792
        v6.055 h1.792 v4.543 h-1.792
        v6.055 h1.792 v3.04 h-1.792
        v3.744 h1.792 v2.072 h-1.792
        v2.184 h1.792 v1.448 h-1.792
        v1.176 h16.8 Z"/>
    <path style="fill:#c8c7c7;stroke:#231f20;stroke-width:1"
        d="M27,256 l-16.8,0
        v1.176 h1.792 v1.448 h-1.792
        v2.184 h1.792 v2.072 h-1.792
        v3.744 h1.792 v3.04 h-1.792
        v6.055 h1.792 v4.543 h-1.792
        v6.055 h1.792 v4.543 h-1.792
        v6.055 h1.792 v4.543 h-1.792
        v6.055 h1.792 v4.543 h-1.792
        v6.055 h1.792 v4.543 h-1.792
        v6.055 h1.792 v4.543 h-1.792
        v6.055 h1.792 v4.543 h-1.792
        v6.055 h1.792 v4.543 h-1.792
        v6.055 h1.792 v4.543 h-1.792
        v6.055 h1.792 v4.543 h-1.792
        v6.055 h1.792 v4.543 h-1.792
        v6.055 h1.792 v4.543 h-1.792
        v6.055 h1.792 v4.543 h-1.792
        v6.055 h1.792 v4.543 h-1.792
        v6.055 h1.792 v4.543 h-1.792
        v6.055 h1.792 v4.543 h-1.792
        v6.055 h1.792 v4.543 h-1.792
        v6.055 h1.792 v4.543 h-1.792
        v6.055 h1.792 v4.543 h-1.792
        v6.055 h1.792 v3.04 h-1.792
        v3.744 h1.792 v2.072 h-1.792
        v2.184 h1.792 v1.448 h-1.792
        v1.176 h16.8 Z"/>
</g><g transform="matrix(-1.0036484,0,0,-0.91895928,571.73433,538.2507)">
    <path style="fill:#c8c7c7;stroke:none;stroke-width:1"
        d="M24,253 l-16.8,0
        v1.176 h1.792 v1.448 h-1.792
        v2.184 h1.792 v2.072 h-1.792
        v3.744 h1.792 v3.04 h-1.792
        v6.055 h1.792 v4.543 h-1.792
        v6.055 h1.792 v4.543 h-1.792
        v6.055 h1.792 v4.543 h-1.792
        v6.055 h1.792 v4.543 h-1.792
        v6.055 h1.792 v4.543 h-1.792
        v6.055 h1.792 v4.543 h-1.792
        v6.055 h1.792 v4.543 h-1.792
        v6.055 h1.792 v4.543 h-1.792
        v6.055 h1.792 v4.543 h-1.792
        v6.055 h1.792 v4.543 h-1.792
        v6.055 h1.792 v4.543 h-1.792
        v6.055 h1.792 v4.543 h-1.792
        v6.055 h1.792 v4.543 h-1.792
        v6.055 h1.792 v4.543 h-1.792
        v6.055 h1.792 v4.543 h-1.792
        v6.055 h1.792 v4.543 h-1.792
        v6.055 h1.792 v4.543 h-1.792
        v6.055 h1.792 v4.543 h-1.792
        v6.055 h1.792 v4.543 h-1.792
        v6.055 h1.792 v3.04 h-1.792
        v3.744 h1.792 v2.072 h-1.792
        v2.184 h1.792 v1.448 h-1.792
        v1.176 h16.8 Z"/>
    <path style="fill:#c8c7c7;stroke:#231f20;stroke-width:1"
        d="M27,256 l-16.8,0
        v1.176 h1.792 v1.448 h-1.792
        v2.184 h1.792 v2.072 h-1.792
        v3.744 h1.792 v3.04 h-1.792
        v6.055 h1.792 v4.543 h-1.792
        v6.055 h1.792 v4.543 h-1.792
        v6.055 h1.792 v4.543 h-1.792
        v6.055 h1.792 v4.543 h-1.792
        v6.055 h1.792 v4.543 h-1.792
        v6.055 h1.792 v4.543 h-1.792
        v6.055 h1.792 v4.543 h-1.792
        v6.055 h1.792 v4.543 h-1.792
        v6.055 h1.792 v4.543 h-1.792
        v6.055 h1.792 v4.543 h-1.792
        v6.055 h1.792 v4.543 h-1.792
        v6.055 h1.792 v4.543 h-1.792
        v6.055 h1.792 v4.543 h-1.792
        v6.055 h1.792 v4.543 h-1.792
        v6.055 h1.792 v4.543 h-1.792
        v6.055 h1.792 v4.543 h-1.792
        v6.055 h1.792 v4.543 h-1.792
        v6.055 h1.792 v4.543 h-1.792
        v6.055 h1.792 v4.543 h-1.792
        v6.055 h1.792 v3.04 h-1.792
        v3.744 h1.792 v2.072 h-1.792
        v2.184 h1.792 v1.448 h-1.792
        v1.176 h16.8 Z"/>
</g></g>

          <g id="wheels" visibility="hidden"><g transform="matrix(0.99906329,0,0,-1.3057043,401.52609,631.12319)">
    <path style="fill:#c8c7c7;stroke:none;stroke-width:1"
        d="M30,248 l-16.8,0
        v1.176 h1.792 v1.448 h-1.792
        v2.184 h1.792 v2.072 h-1.792
        v6.055 h1.792 v3.04 h-1.792
        v3.744 h1.792 v2.072 h-1.792
        v2.184 h1.792 v1.448 h-1.792
        v1.176 h16.8,0 Z"/>
    <path style="fill:#c8c7c7;stroke:none;stroke-width:1"
        d="M30,278 l-16.8,0
        v1.176 h1.792 v1.448 h-1.792
        v2.184 h1.792 v2.072 h-1.792
        v6.055 h1.792 v3.04 h-1.792
        v3.744 h1.792 v2.072 h-1.792
        v2.184 h1.792 v1.448 h-1.792
        v1.176 h16.8,0 Z"/>
    <path style="fill:#c8c7c7;stroke:none;stroke-width:1"
        d="M30,357 l-16.8,0
        v1.176 h1.792 v1.448 h-1.792
        v2.184 h1.792 v2.072 h-1.792
        v6.055 h1.792 v3.04 h-1.792
        v3.744 h1.792 v2.072 h-1.792
        v2.184 h1.792 v1.448 h-1.792
        v1.176 h16.8,0 Z"/>
    <path style="fill:#c8c7c7;stroke:none;stroke-width:1"
        d="M30,387 l-16.8,0
        v1.176 h1.792 v1.448 h-1.792
        v2.184 h1.792 v2.072 h-1.792
        v6.055 h1.792 v3.04 h-1.792
        v3.744 h1.792 v2.072 h-1.792
        v2.184 h1.792 v1.448 h-1.792
        v1.176 h16.8,0 Z"/>
    <path style="fill:#c8c7c7;stroke:#231f20;stroke-width:1"
        d="M27,251 l-16.8,0
        v1.176 h1.792 v1.448 h-1.792
        v2.184 h1.792 v2.072 h-1.792
        v6.055 h1.792 v3.04 h-1.792
        v3.744 h1.792 v2.072 h-1.792
        v2.184 h1.792 v1.448 h-1.792
        v1.176 h16.8,0 Z"/>
    <path style="fill:#c8c7c7;stroke:#231f20;stroke-width:1"
        d="M27,281 l-16.8,0
        v1.176 h1.792 v1.448 h-1.792
        v2.184 h1.792 v2.072 h-1.792
        v6.055 h1.792 v3.04 h-1.792
        v3.744 h1.792 v2.072 h-1.792
        v2.184 h1.792 v1.448 h-1.792
        v1.176 h16.8,0 Z"/>
    <path style="fill:#c8c7c7;stroke:#231f20;stroke-width:1"
        d="M27,360 l-16.8,0
        v1.176 h1.792 v1.448 h-1.792
        v2.184 h1.792 v2.072 h-1.792
        v6.055 h1.792 v3.04 h-1.792
        v3.744 h1.792 v2.072 h-1.792
        v2.184 h1.792 v1.448 h-1.792
        v1.176 h16.8,0 Z"/>
    <path style="fill:#c8c7c7;stroke:#231f20;stroke-width:1"
        d="M27,390 l-16.8,0
        v1.176 h1.792 v1.448 h-1.792
        v2.184 h1.792 v2.072 h-1.792
        v6.055 h1.792 v3.04 h-1.792
        v3.744 h1.792 v2.072 h-1.792
        v2.184 h1.792 v1.448 h-1.792
        v1.176 h16.8,0 Z"/>
</g><g transform="matrix(-0.99906329,0,0,-1.3057043,571.92624,631.12319)">
    <path style="fill:#c8c7c7;stroke:none;stroke-width:1"
        d="M24,248 l-16.8,0
        v1.176 h1.792 v1.448 h-1.792
        v2.184 h1.792 v2.072 h-1.792
        v6.055 h1.792 v3.04 h-1.792
        v3.744 h1.792 v2.072 h-1.792
        v2.184 h1.792 v1.448 h-1.792
        v1.176 h16.8,0 Z"/>
    <path style="fill:#c8c7c7;stroke:none;stroke-width:1"
        d="M24,278 l-16.8,0
        v1.176 h1.792 v1.448 h-1.792
        v2.184 h1.792 v2.072 h-1.792
        v6.055 h1.792 v3.04 h-1.792
        v3.744 h1.792 v2.072 h-1.792
        v2.184 h1.792 v1.448 h-1.792
        v1.176 h16.8,0 Z"/>
    <path style="fill:#c8c7c7;stroke:none;stroke-width:1"
        d="M24,357 l-16.8,0
        v1.176 h1.792 v1.448 h-1.792
        v2.184 h1.792 v2.072 h-1.792
        v6.055 h1.792 v3.04 h-1.792
        v3.744 h1.792 v2.072 h-1.792
        v2.184 h1.792 v1.448 h-1.792
        v1.176 h16.8,0 Z"/>
    <path style="fill:#c8c7c7;stroke:none;stroke-width:1"
        d="M24,387 l-16.8,0
        v1.176 h1.792 v1.448 h-1.792
        v2.184 h1.792 v2.072 h-1.792
        v6.055 h1.792 v3.04 h-1.792
        v3.744 h1.792 v2.072 h-1.792
        v2.184 h1.792 v1.448 h-1.792
        v1.176 h16.8,0 Z"/>
    <path style="fill:#c8c7c7;stroke:#231f20;stroke-width:1"
        d="M27,251 l-16.8,0
        v1.176 h1.792 v1.448 h-1.792
        v2.184 h1.792 v2.072 h-1.792
        v6.055 h1.792 v3.04 h-1.792
        v3.744 h1.792 v2.072 h-1.792
        v2.184 h1.792 v1.448 h-1.792
        v1.176 h16.8,0 Z"/>
    <path style="fill:#c8c7c7;stroke:#231f20;stroke-width:1"
        d="M27,281 l-16.8,0
        v1.176 h1.792 v1.448 h-1.792
        v2.184 h1.792 v2.072 h-1.792
        v6.055 h1.792 v3.04 h-1.792
        v3.744 h1.792 v2.072 h-1.792
        v2.184 h1.792 v1.448 h-1.792
        v1.176 h16.8,0 Z"/>
    <path style="fill:#c8c7c7;stroke:#231f20;stroke-width:1"
        d="M27,360 l-16.8,0
        v1.176 h1.792 v1.448 h-1.792
        v2.184 h1.792 v2.072 h-1.792
        v6.055 h1.792 v3.04 h-1.792
        v3.744 h1.792 v2.072 h-1.792
        v2.184 h1.792 v1.448 h-1.792
        v1.176 h16.8,0 Z"/>
    <path style="fill:#c8c7c7;stroke:#231f20;stroke-width:1"
        d="M27,390 l-16.8,0
        v1.176 h1.792 v1.448 h-1.792
        v2.184 h1.792 v2.072 h-1.792
        v6.055 h1.792 v3.04 h-1.792
        v3.744 h1.792 v2.072 h-1.792
        v2.184 h1.792 v1.448 h-1.792
        v1.176 h16.8,0 Z"/>
</g></g>
   
   <polyline
   style="fill:#ffffff"
   id="polyline4679"
   points="547.693,77.32 537.967,70.511 528.241,78.356 444.288,78.356 434.563,70.511 424.836,77.32    415.11,211.778 415.11,308.951 424.836,332.549 436.033,332.549 436.033,330.683 476.068,330.683 476.068,332.549 496.96,332.549    496.96,330.683 536.995,330.683 536.995,332.549 547.693,332.549 557.419,308.951 557.419,211.778 547.693,77.32  " /><polygon
   style="fill:none;stroke:#231f20;stroke-width:1.45899999"
   id="polygon4681"
   points="528.241,78.356 444.288,78.356 434.563,70.511 424.836,77.32 415.11,211.778 415.11,308.951 424.836,332.548 436.034,332.548 436.034,330.682 476.068,330.682 476.068,332.548 496.961,332.548 496.961,330.682 536.996,330.682 536.996,332.548 547.693,332.548 557.419,308.951 557.419,211.778 547.693,77.32 537.967,70.511 " /><polyline
   style="fill:#c7c8ca"
   id="polyline4683"
   points="454.201,110.795 448.164,136.728 435.521,211.218 447.192,277.889 457.422,310.791    515.15,310.791 525.336,277.889 537.007,211.218 525.336,138.674 518.328,110.795 454.201,110.795  " /><line
   style="fill:none;stroke:#231f20;stroke-width:0.97299999"
   id="line4687"
   y2="211.056"
   x2="557.328"
   y1="211.056"
   x1="415.65201" /><g
   id="g6333"
   transform="matrix(0.150006,0,0,-0.13283434,-103.78733,877.86089)"><path
     d="m 3941.37,4470.53 0,1105.55"
     style="fill:none;stroke:#231f20;stroke-width:7.88224983;stroke-linecap:butt;stroke-linejoin:miter;stroke-miterlimit:4;stroke-opacity:1;stroke-dasharray:none"
     id="path6335"
      /></g><polyline
   style="fill:none;stroke:#231f20;stroke-width:0.97299999"
   id="polyline4689"
   points="557.328,309.774 523.448,284.507 449.25,284.507    415.49,310.098  " /><line
   style="fill:none;stroke:#231f20;stroke-width:0.97299999"
   id="line4691"
   y2="136.67999"
   x2="524.86298"
   y1="136.604"
   x1="448.255" /><line
   style="fill:none;stroke:#231f20;stroke-width:0.97299999;stroke-linecap:round"
   id="line4693"
   y2="110.488"
   x2="453.91101"
   y1="77.485001"
   x1="424.56699" /><line
   style="fill:none;stroke:#231f20;stroke-width:0.97299999;stroke-linecap:round"
   id="line4695"
   y2="77.646004"
   x2="547.76398"
   y1="110.488"
   x1="518.375" /><polygon
   style="fill:none;stroke:#231f20;stroke-width:0.97299999"
   id="polygon4685"
   points="435.521,211.218 447.19,277.889 457.421,310.792 515.15,310.792 525.336,277.889 537.007,211.218 525.336,138.674 518.327,110.795 454.201,110.795 448.164,136.728 " /><path
   style="fill:#ffffff"
   
   id="path4835"
   d="m 454.707,38.343 h 1.763 c 0.42,0 0.699,-0.074 0.837,-0.226 0.137,-0.149 0.205,-0.451 0.205,-0.904 0,-0.461 -0.059,-0.76 -0.177,-0.895 -0.119,-0.133 -0.377,-0.202 -0.78,-0.202 h -1.848 v 2.227 m -1.228,3.22 V 35.08 h 3.189 c 0.791,0 1.339,0.138 1.64,0.414 0.299,0.275 0.45,0.774 0.45,1.496 0,0.656 -0.073,1.102 -0.226,1.344 -0.148,0.24 -0.457,0.406 -0.921,0.499 v 0.043 c 0.716,0.042 1.075,0.463 1.075,1.258 v 1.43 h -1.228 v -1.183 c 0,-0.667 -0.326,-1.002 -0.985,-1.002 h -1.768 v 2.185 h -1.226" /><path
   style="fill:#ffffff"
   
   id="path4837"
   d="m 467.304,35.081 v 6.483 h -1.228 V 38.03 c 0,-0.281 0.007,-0.601 0.024,-0.959 l 0.023,-0.484 0.023,-0.479 h -0.038 l -0.146,0.451 -0.143,0.451 c -0.133,0.404 -0.234,0.703 -0.308,0.898 l -1.422,3.657 h -1.119 l -1.436,-3.628 c -0.078,-0.2 -0.183,-0.499 -0.313,-0.897 l -0.147,-0.451 -0.147,-0.447 h -0.037 l 0.023,0.471 0.023,0.475 c 0.019,0.366 0.029,0.682 0.029,0.945 v 3.533 h -1.229 v -6.483 h 2 l 1.157,3.002 c 0.078,0.208 0.182,0.508 0.313,0.897 l 0.143,0.451 0.146,0.446 h 0.043 l 0.137,-0.446 0.143,-0.447 c 0.116,-0.375 0.219,-0.674 0.304,-0.893 l 1.137,-3.011 h 2.045" /><path
   style="fill:#ffffff"
   
   id="path4839"
   d="m 471.039,36.078 c -0.824,0 -1.306,0.104 -1.445,0.318 -0.138,0.211 -0.209,0.945 -0.209,2.204 0,0.931 0.081,1.491 0.244,1.681 0.161,0.19 0.643,0.285 1.438,0.285 0.761,0 1.219,-0.107 1.37,-0.321 0.151,-0.213 0.228,-0.861 0.228,-1.944 0,-1.085 -0.071,-1.726 -0.216,-1.926 -0.142,-0.197 -0.613,-0.297 -1.41,-0.297 m 0.095,-1.054 c 1.176,0 1.932,0.195 2.271,0.586 0.337,0.389 0.507,1.266 0.507,2.624 0,1.484 -0.168,2.419 -0.509,2.807 -0.339,0.385 -1.162,0.579 -2.468,0.579 -1.175,0 -1.934,-0.19 -2.279,-0.572 -0.344,-0.38 -0.517,-1.22 -0.517,-2.52 0,-1.543 0.168,-2.514 0.507,-2.911 0.336,-0.394 1.166,-0.593 2.488,-0.593" /><path
   style="fill:#ffffff"
   
   id="path4841"
   d="m 475.974,38.343 h 1.763 c 0.42,0 0.699,-0.074 0.837,-0.226 0.138,-0.149 0.206,-0.451 0.206,-0.904 0,-0.461 -0.059,-0.76 -0.178,-0.895 -0.118,-0.133 -0.377,-0.202 -0.779,-0.202 h -1.849 v 2.227 m -1.228,3.22 V 35.08 h 3.189 c 0.792,0 1.34,0.138 1.64,0.414 0.299,0.275 0.451,0.774 0.451,1.496 0,0.656 -0.074,1.102 -0.226,1.344 -0.148,0.24 -0.457,0.406 -0.922,0.499 v 0.043 c 0.716,0.042 1.076,0.463 1.076,1.258 v 1.43 h -1.228 v -1.183 c 0,-0.667 -0.327,-1.002 -0.986,-1.002 h -1.768 v 2.185 h -1.226" /><path
   style="fill:#ffffff"
   
   id="path4843"
   d="m 484.671,40.528 h 1.749 c 0.588,0 0.967,-0.135 1.14,-0.406 0.171,-0.271 0.258,-0.867 0.258,-1.793 0,-0.955 -0.075,-1.563 -0.231,-1.824 -0.154,-0.259 -0.517,-0.389 -1.09,-0.389 h -1.825 v 4.412 m -1.229,1.035 V 35.08 h 3.18 c 0.903,0 1.536,0.197 1.898,0.594 0.36,0.395 0.543,1.088 0.543,2.08 0,1.617 -0.145,2.657 -0.436,3.118 -0.29,0.461 -0.946,0.691 -1.967,0.691 h -3.218" /><rect
   style="fill:#ffffff"
   id="rect4845"
   height="6.4829998"
   width="1.228"
   y="35.081001"
   x="489.966" /><path
   style="fill:#ffffff"
   
   id="path4847"
   d="m 495.984,39.412 -1.118,-3.376 -1.1,3.376 h 2.218 m 0.285,0.907 h -2.792 l -0.402,1.245 h -1.299 l 2.152,-6.483 h 1.844 l 2.185,6.483 h -1.274 l -0.414,-1.245" /><path
   style="fill:#ffffff"
   
   id="path4849"
   d="m 501.072,38.115 h 2.849 l 0.019,1.287 c 0,0.936 -0.175,1.542 -0.528,1.812 -0.351,0.271 -1.138,0.406 -2.357,0.406 -1.119,0 -1.858,-0.18 -2.223,-0.541 -0.363,-0.361 -0.546,-1.098 -0.546,-2.208 0,-1.417 0.071,-2.313 0.219,-2.688 0.18,-0.456 0.452,-0.762 0.819,-0.921 0.365,-0.157 0.988,-0.238 1.868,-0.238 1.148,0 1.891,0.121 2.228,0.368 0.334,0.245 0.502,0.789 0.502,1.632 h -1.241 c -0.021,-0.423 -0.114,-0.687 -0.277,-0.791 -0.161,-0.102 -0.571,-0.154 -1.226,-0.154 -0.711,0 -1.161,0.088 -1.353,0.266 -0.19,0.176 -0.287,0.593 -0.287,1.249 l -0.005,0.65 0.01,0.831 c 0,0.642 0.095,1.052 0.284,1.228 0.189,0.176 0.628,0.264 1.317,0.264 0.669,0 1.095,-0.074 1.277,-0.223 0.181,-0.147 0.272,-0.499 0.272,-1.055 l 0.005,-0.265 h -1.626 v -0.909" /><path
   style="fill:#ffffff"
   
   id="path4851"
   d="m 506.035,38.343 h 1.763 c 0.42,0 0.699,-0.074 0.837,-0.226 0.138,-0.149 0.206,-0.451 0.206,-0.904 0,-0.461 -0.06,-0.76 -0.178,-0.895 -0.118,-0.133 -0.377,-0.202 -0.779,-0.202 h -1.849 v 2.227 m -1.227,3.22 V 35.08 h 3.189 c 0.792,0 1.339,0.138 1.64,0.414 0.299,0.275 0.451,0.774 0.451,1.496 0,0.656 -0.074,1.102 -0.226,1.344 -0.149,0.24 -0.457,0.406 -0.922,0.499 v 0.043 c 0.716,0.042 1.076,0.463 1.076,1.258 v 1.43 h -1.228 v -1.183 c 0,-0.667 -0.327,-1.002 -0.986,-1.002 h -1.768 v 2.185 h -1.226" /><path
   style="fill:#ffffff"
   
   id="path4853"
   d="m 514.709,39.412 -1.119,-3.376 -1.1,3.376 h 2.219 m 0.284,0.907 h -2.792 l -0.402,1.245 H 510.5 l 2.151,-6.483 h 1.845 l 2.185,6.483 h -1.275 l -0.413,-1.245" /><path
   style="fill:#ffffff"
   
   id="path4855"
   d="m 524.816,35.081 v 6.483 h -1.228 V 38.03 c 0,-0.281 0.007,-0.601 0.023,-0.959 l 0.023,-0.484 0.023,-0.479 h -0.038 l -0.146,0.451 -0.142,0.451 c -0.133,0.404 -0.235,0.703 -0.309,0.898 l -1.422,3.657 h -1.118 l -1.437,-3.628 c -0.078,-0.2 -0.183,-0.499 -0.313,-0.897 l -0.147,-0.451 -0.146,-0.447 h -0.038 l 0.023,0.471 0.024,0.475 c 0.019,0.366 0.028,0.682 0.028,0.945 v 3.533 h -1.228 v -6.483 h 2 l 1.156,3.002 c 0.078,0.208 0.183,0.508 0.313,0.897 l 0.143,0.451 0.146,0.446 h 0.043 l 0.138,-0.446 0.142,-0.447 c 0.116,-0.375 0.219,-0.674 0.304,-0.893 l 1.138,-3.011 h 2.045" />

<text
         x="406.173" y="43.498"
         style="font-variant:normal;font-weight:bold;font-stretch:normal;font-size:8.04310036px;font-family:Eurostile;writing-mode:lr-tb;fill:#000000;fill-opacity:1;fill-rule:nonzero;stroke:none"
         id="armorType">Standard</text><g transform="rotate(-90,354.48801,-53.72973)"><text
         style="font-variant:normal;font-weight:bold;font-stretch:normal;font-size:8.04310036px;font-family:Eurostile;writing-mode:lr-tb;fill:#000000;fill-opacity:1;fill-rule:nonzero;stroke:none"
         id="text3896"><tspan
           x="0"
           y="0"
           id="tspan3894">Rear Left Side Armor</tspan><tspan
           x="77.2"
           y="0" id="textArmor_RRLS">( )</tspan><tspan
           x="116.3"
           y="0"
           id="tspan3894">Front Left Side Armor</tspan><tspan
           x="194.8"
           y="0" id="textArmor_FRLS">( )</tspan></text></g><g
         transform="rotate(90,236.98794,329.77008)"><text
         style="font-variant:normal;font-weight:bold;font-stretch:normal;font-size:8.04310036px;font-family:Eurostile;writing-mode:lr-tb;fill:#000000;fill-opacity:1;fill-rule:nonzero;stroke:none"
         id="text3900"><tspan
           x="0"
           y="0"
           id="tspan3898">Front Right Side Armor</tspan><tspan
           x="84.152"
           y="0" id="textArmor_FRRS">( )</tspan><tspan
           x="121.6"
           y="0"
           id="tspan3898">Rear Right Side Armor</tspan><tspan
           x="203.5"
           y="0" id="textArmor_RRRS">( )</tspan></text></g><g
           transform="translate(485.9,59)"><text
         style="font-variant:normal;font-weight:bold;font-stretch:normal;font-size:8.04310036px;font-family:Eurostile;writing-mode:lr-tb;fill:#000000;fill-opacity:1;fill-rule:nonzero;stroke:none"
         text-anchor="middle"
         id="text3910"><tspan
           x="0"
           y="0">Front Armor</tspan><tspan
           x="0"
           y="9.6356335"
           id="textArmor_FR">( )</tspan><tspan
           x="0" y="282.91" >Rear Armor</tspan><tspan
           x="0"
           y="292.55"
           id="textArmor_RR">( )</tspan></text></g></g>
  <g fill="none" id="armorPips">
    <g id="armorPipsFR" transform="translate(84.035,38.68)">
      <rect x="-55.47" width="110.94" y="0" height="6.8" style="mml-gap:-48.67,48.67" id="armorFRRow00"/>
      <rect x="-49.77" width="99.54" y="6.8" height="6.8" id="armorFRRow01"/>
      <rect x="-44.07" width="88.14" y="13.6" height="6.8" id="armorFRRow02"/>
      <rect x="-38.37" width="76.74" y="20.4" height="6.8" id="armorFRRow03"/>
      <rect x="-32.67" width="65.34" y="27.2" height="6.8" id="armorFRRow04"/>
    </g>
    <g id="armorPipsFRRS" transform="translate(105.55,51.634)">
      <rect x="32" width="6.8" y="0" height="6.8" id="armorFRRSRow00"/>
      <rect x="25.78" width="14.23" y="6.8" height="6.8" id="armorFRRSRow01"/>
      <rect x="19.55" width="20.49" y="13.6" height="6.8" id="armorFRRSRow02"/>
      <rect x="13.33" width="27.64" y="20.4" height="6.8" id="armorFRRSRow03"/>
      <rect x="14.33" width="26.6" y="27.2" height="6.8" id="armorFRRSRow04"/>
      <rect x="15.63" width="25.64" y="34.0" height="6.8" id="armorFRRSRow05"/>
      <rect x="17.97" width="24.35" y="40.8" height="6.8" id="armorFRRSRow06"/>
      <rect x="18.83" width="23.37" y="47.6" height="6.8" id="armorFRRSRow07"/>      
      <rect x="19.94" width="22.77" y="54.4" height="6.8" id="armorFRRSRow08"/>
      <rect x="21.05" width="22.17" y="61.2" height="6.8" id="armorFRRSRow09"/>
      <rect x="22.16" width="21.57" y="68" height="6.8" id="armorFRRSRow10"/>
      <rect x="23.27" width="20.97" y="74.8" height="6.8" id="armorFRRSRow11"/>
      <rect x="24.38" width="20.37" y="81.6" height="6.8" id="armorFRRSRow12"/>
      <rect x="25.48" width="19.77" y="88.4" height="6.8" id="armorFRRSRow13"/>
      <rect x="26.59" width="19.17" y="95.2" height="6.8" id="armorFRRSRow14"/>
      <rect x="27.7" width="18.57" y="102" height="6.8" id="armorFRRSRow15"/>
      <rect x="28.81" width="17.97" y="108.8" height="6.8" id="armorFRRSRow16"/>
      <rect x="29.92" width="17.37" y="115.6" height="6.8" id="armorFRRSRow17"/>
    </g>
    <g id="armorPipsFRLS" transform="matrix(-1,0,0,1,61.807,51.634)">
      <rect x="32" width="6.8" y="0" height="6.8" id="armorFRLSRow00"/>
      <rect x="25.78" width="11.73" y="6.8" height="6.8" id="armorFRLSRow01"/>
      <rect x="19.55" width="19.69" y="13.6" height="6.8" id="armorFRLSRow02"/>
      <rect x="13.33" width="27.64" y="20.4" height="6.8" id="armorFRLSRow03"/>
      <rect x="14.33" width="26.6" y="27.2" height="6.8" id="armorFRLSRow04"/>
      <rect x="15.63" width="25.64" y="34.0" height="6.8" id="armorFRLSRow05"/>
      <rect x="17.97" width="24.35" y="40.8" height="6.8" id="armorFRLSRow06"/>
      <rect x="18.83" width="23.37" y="47.6" height="6.8" id="armorFRLSRow07"/>      
      <rect x="19.94" width="22.77" y="54.4" height="6.8" id="armorFRLSRow08"/>
      <rect x="21.05" width="22.17" y="61.2" height="6.8" id="armorFRLSRow09"/>
      <rect x="22.16" width="21.57" y="68" height="6.8" id="armorFRLSRow10"/>
      <rect x="23.27" width="20.97" y="74.8" height="6.8" id="armorFRLSRow11"/>
      <rect x="24.38" width="20.37" y="81.6" height="6.8" id="armorFRLSRow12"/>
      <rect x="25.48" width="19.77" y="88.4" height="6.8" id="armorFRLSRow13"/>
      <rect x="26.59" width="19.17" y="95.2" height="6.8" id="armorFRLSRow14"/>
      <rect x="27.7" width="18.57" y="102" height="6.8" id="armorFRLSRow15"/>
      <rect x="28.81" width="17.97" y="108.8" height="6.8" id="armorFRLSRow16"/>
      <rect x="29.92" width="17.37" y="115.6" height="6.8" id="armorFRLSRow17"/>
    </g>
    <g id="armorPipsRRRS" transform="translate(109.15,177.834)">
      <rect x="26.49" width="18.13" y="0" height="6.8" id="armorRRRSRow00"/>
      <rect x="25.27" width="19.39" y="6.8" height="6.8" id="armorRRRSRow01"/>
      <rect x="24.05" width="20.66" y="13.6" height="6.8" id="armorRRRSRow02"/>
      <rect x="22.83" width="21.92" y="20.4" height="6.8" id="armorRRRSRow03"/>
      <rect x="21.61" width="23.18" y="27.2" height="6.8" id="armorRRRSRow04"/>
      <rect x="20.4" width="24.45" y="34.0" height="6.8" id="armorRRRSRow05"/>
      <rect x="19.18" width="25.71" y="40.8" height="6.8" id="armorRRRSRow06"/>
      <rect x="17.96" width="26.97" y="47.6" height="6.8" id="armorRRRSRow07"/>      
      <rect x="16.74" width="28.23" y="54.4" height="6.8" id="armorRRRSRow08"/>
      <rect x="15.52" width="29.5" y="61.2" height="6.8" id="armorRRRSRow09"/>      
      <rect x="18.54" width="25.59" y="68" height="6.8" id="armorRRRSRow10"/>
      <rect x="27.16" width="17.18" y="74.8" height="6.8" id="armorRRRSRow11"/>
      <rect x="35.78" width="8.77" y="81.6" height="6.8" id="armorRRRSRow12"/>
    </g>
    <g id="armorPipsRRLS" transform="matrix(-1,0,0,1,59.207,177.834)">
      <rect x="26.49" width="18.13" y="0" height="6.8" id="armorRRLSRow00"/>
      <rect x="25.27" width="19.39" y="6.8" height="6.8" id="armorRRLSRow01"/>
      <rect x="24.05" width="20.66" y="13.6" height="6.8" id="armorRRLSRow02"/>
      <rect x="22.83" width="21.92" y="20.4" height="6.8" id="armorRRLSRow03"/>
      <rect x="21.61" width="23.18" y="27.2" height="6.8" id="armorRRLSRow04"/>
      <rect x="20.4" width="24.45" y="34.0" height="6.8" id="armorRRLSRow05"/>
      <rect x="19.18" width="25.71" y="40.8" height="6.8" id="armorRRLSRow06"/>
      <rect x="17.96" width="26.97" y="47.6" height="6.8" id="armorRRLSRow07"/>      
      <rect x="16.74" width="28.23" y="54.4" height="6.8" id="armorRRLSRow08"/>
      <rect x="15.52" width="29.5" y="61.2" height="6.8" id="armorRRLSRow09"/>      
      <rect x="18.54" width="25.59" y="68" height="6.8" id="armorRRLSRow10"/>
      <rect x="27.16" width="17.18" y="74.8" height="6.8" id="armorRRLSRow11"/>
      <rect x="35.78" width="8.77" y="81.6" height="6.8" id="armorRRLSRow12"/>
    </g>
    <g id="armorPipsRR" transform="translate(84.035,255.78)">
      <rect x="-44.47" width="88.94" y="0" height="6.44" style="mml-gap:-45.28,45.28" id="armorRRRow00"/>
      <rect x="-53.76" width="107.52" y="6.44" height="6.44" style="mml-gap:-34.29,34.29" id="armorRRRow01"/>
      <rect x="-61.85" width="123.7" y="12.88" height="6.44" style="mml-gap:-32.3,32.3" id="armorRRRow02"/>
      <rect x="-66.48" width="132.96" y="19.32" height="6.44" id="armorRRRow03"/>
      <rect x="-63.58" width="127.16" y="25.76" height="6.44" id="armorRRRow04"/>
      <rect x="-61.18" width="122.36" y="32.2" height="6.44" id="armorRRRow05"/>
    </g>
  </g>
  <g fill="none" id="structurePips">
    <g id="structurePipsFR" transform="translate(83.385,79.08)">
      <rect x="-31.11" width="62.22" y="0" height="6.8" id="structurePipsFR00"/>
      <rect x="-32.87" width="65.74" y="6.8" height="6.8" id="structurePipsFR01"/>
      <rect x="-34.62" width="69.24" y="13.6" height="6.8" id="structurePipsFR02"/>
    </g>
    <g id="structurePipsFRRS" transform="translate(111.1,106.28)">
      <rect x="-24.52" width="35.52" y="0" height="6.8" id="structurePipsFRRS00"/>
      <rect x="-24.52" width="36.56" y="6.8" height="6.8" id="structurePipsFRRS01"/>
      <rect x="-24.52" width="37.6" y="13.6" height="6.8" id="structurePipsFRRS02"/>
      <rect x="-24.52" width="38.65" y="20.4" height="6.8" id="structurePipsFRRS03"/>
      <rect x="-24.52" width="39.69" y="27.2" height="6.8" id="structurePipsFRRS04"/>
      <rect x="-24.52" width="40.73" y="34.0" height="6.8" id="structurePipsFRRS05"/>
      <rect x="-24.52" width="41.77" y="40.8" height="6.8" id="structurePipsFRRS06"/>
      <rect x="-24.52" width="42.82" y="47.6" height="6.8" id="structurePipsFRRS07"/>
      <rect x="-24.52" width="43.86" y="54.4" height="6.8" id="structurePipsFRRS08"/>
      <rect x="-24.52" width="44.9" y="61.2" height="6.8" id="structurePipsFRRS09"/>
    </g>
    <g id="structurePipsFRLS" transform="matrix(-1,0,0,1,57.26,106.28)">
      <rect x="-24.52" width="35.52" y="0" height="6.8" id="structurePipsFRLS00"/>
      <rect x="-24.52" width="36.56" y="6.8" height="6.8" id="structurePipsFRLS01"/>
      <rect x="-24.52" width="37.6" y="13.6" height="6.8" id="structurePipsFRLS02"/>
      <rect x="-24.52" width="38.65" y="20.4" height="6.8" id="structurePipsFRLS03"/>
      <rect x="-24.52" width="39.69" y="27.2" height="6.8" id="structurePipsFRLS04"/>
      <rect x="-24.52" width="40.73" y="34.0" height="6.8" id="structurePipsFRLS05"/>
      <rect x="-24.52" width="41.77" y="40.8" height="6.8" id="structurePipsFRLS06"/>
      <rect x="-24.52" width="42.82" y="47.6" height="6.8" id="structurePipsFRLS07"/>
      <rect x="-24.52" width="43.86" y="54.4" height="6.8" id="structurePipsFRLS08"/>
      <rect x="-24.52" width="44.9" y="61.2" height="6.8" id="structurePipsFRLS09"/>
    </g>
    <g id="structurePipsRRRS" transform="translate(111.1,179.88)">
      <rect x="-24.52" width="44.9" y="0" height="6.8" id="structurePipsRRRS00"/>
      <rect x="-24.52" width="43.71" y="6.8" height="6.8" id="structurePipsRRRS01"/>
      <rect x="-24.52" width="42.52" y="13.6" height="6.8" id="structurePipsRRRS02"/>
      <rect x="-24.52" width="41.32" y="20.4" height="6.8" id="structurePipsRRRS03"/>
      <rect x="-24.52" width="40.13" y="27.2" height="6.8" id="structurePipsRRRS04"/>
      <rect x="-24.52" width="38.94" y="34.0" height="6.8" id="structurePipsRRRS05"/>
      <rect x="-24.52" width="37.75" y="40.8" height="6.8" id="structurePipsRRRS06"/>
      <rect x="-24.52" width="37.6" y="47.6" height="6.8" id="structurePipsRRRS07"/>
      <rect x="-24.52" width="36.55" y="54.4" height="6.8" id="structurePipsRRRS08"/>
      <rect x="-24.52" width="33.66" y="61.2" height="6.8" id="structurePipsRRRS09"/>
    </g>
    <g id="structurePipsRRLS" transform="matrix(-1,0,0,1,57.26,179.88)">
      <rect x="-24.52" width="44.9" y="0" height="6.8" id="structurePipsRRLS00"/>
      <rect x="-24.52" width="43.71" y="6.8" height="6.8" id="structurePipsRRLS01"/>
      <rect x="-24.52" width="42.52" y="13.6" height="6.8" id="structurePipsRRLS02"/>
      <rect x="-24.52" width="41.32" y="20.4" height="6.8" id="structurePipsRRLS03"/>
      <rect x="-24.52" width="40.13" y="27.2" height="6.8" id="structurePipsRRLS04"/>
      <rect x="-24.52" width="38.94" y="34.0" height="6.8" id="structurePipsRRLS05"/>
      <rect x="-24.52" width="37.75" y="40.8" height="6.8" id="structurePipsRRLS06"/>
      <rect x="-24.52" width="37.6" y="47.6" height="6.8" id="structurePipsRRLS07"/>
      <rect x="-24.52" width="36.55" y="54.4" height="6.8" id="structurePipsRRLS08"/>
      <rect x="-24.52" width="33.66" y="61.2" height="6.8" id="structurePipsRRLS09"/>
    </g>
    <g id="structurePipsRR" transform="translate(83.385,253.38)">
      <rect x="-32.8" width="65.6" y="0" height="6.8" id="structurePipsRR00"/>
      <rect x="-30.73" width="59.46" y="6.8" height="6.8" id="structurePipsRR01"/>
      <rect x="-28.66" width="57.32" y="13.6" height="6.8" id="structurePipsRR02"/>
    </g>
  </g>
</svg>
