<?xml version="1.0" encoding="utf-8"?>
<!DOCTYPE svg PUBLIC "-//W3C//DTD SVG 1.0//EN" "http://www.w3.org/TR/2001/REC-SVG-20010904/DTD/svg10.dtd">
<svg version="1.0" xmlns="http://www.w3.org/2000/svg" xmlns:xlink="http://www.w3.org/1999/xlink" x="0" y="0" width="182" height="345"
     xml:space="preserve">
<g id="armor_diagram_superheavy_vtol_chinturret" transform="translate(-398.4775,-27.05)"><polyline
   fill="#C7C8CA"
   points="452.202,210.75 446.632,210.75 446.632,206.257 450.686,206.257 "
   id="polyline30" />
<polyline
   fill="none"
   stroke="#C7C8CA"
   stroke-width="1.003"
   points="452.202,210.75 446.632,210.75 446.632,206.257   450.686,206.257 "
   id="polyline32" />
<path
   fill="#C7C8CA"
   d="M440.669,197.273v40.43c0,1.656,1.337,3,2.984,3s2.981-1.344,2.981-3v-40.43"
   id="path34" />
<path
   fill="none"
   stroke="#C7C8CA"
   stroke-width="1.504"
   d="M440.669,197.273v40.43c0,1.656,1.337,3,2.984,3s2.981-1.344,2.981-3  v-40.43"
   id="path36" />
<polyline
   fill="#C7C8CA"
   points="531.381,206.257 533.365,206.257 533.365,210.75 530.638,210.75 "
   id="polyline38" />
<polyline
   fill="none"
   stroke="#C7C8CA"
   stroke-width="1.003"
   points="531.381,206.257 533.365,206.257 533.365,210.75   530.638,210.75 "
   id="polyline40" />
<path
   fill="#C7C8CA"
   d="M533.891,197.273l-0.529,40.43c0,1.656,1.335,3,2.982,3c1.648,0,2.985-1.344,2.985-3l0.528-40.43"
   id="path42" />
<path
   fill="none"
   stroke="#C7C8CA"
   stroke-width="1.504"
   d="M533.891,197.273l-0.529,40.43c0,1.656,1.335,3,2.982,3  c1.648,0,2.985-1.344,2.985-3l0.528-40.43"
   id="path44" />
<path
   fill="#C7C8CA"
   d="M446.19,193.109c0,0,7.444,48.016,14.642,60.992l16.83-2.725l2.729,2.725l1.931,92.993  c0,3.702,4.401,6.704,8.473,6.704c4.07,0,8.475-3.002,8.475-6.704l2.04-92.993l2.73-2.725l15.953,2.725  c11.417-31.945,14.18-60.992,14.18-60.992"
   id="path46" />
<path
   fill="none"
   stroke="#C7C8CA"
   stroke-width="1.504"
   d="M446.19,193.109c0,0,7.444,48.016,14.642,60.992l16.83-2.725  l2.729,2.725l1.931,92.993c0,3.702,4.401,6.704,8.473,6.704c4.07,0,8.475-3.002,8.475-6.704l2.04-92.993l2.73-2.725l15.953,2.725  c11.417-31.945,14.18-60.992,14.18-60.992"
   id="path48" />
<path
   fill="#C7C8CA"
   d="M539.858,184.913v-40.431c0-1.657-1.336-3-2.984-3c-1.647,0-2.983,1.343-2.983,3v40.431"
   id="path50" />
<path
   fill="none"
   stroke="#C7C8CA"
   stroke-width="1.504"
   d="M539.858,184.913v-40.431c0-1.657-1.336-3-2.984-3  c-1.647,0-2.983,1.343-2.983,3v40.431"
   id="path52" />
<path
   fill="#C7C8CA"
   d="M446.637,184.913v-40.431c0-1.657-1.336-3-2.983-3c-1.649,0-2.983,1.343-2.983,3v40.431"
   id="path54" />
<path
   fill="none"
   stroke="#C7C8CA"
   stroke-width="1.504"
   d="M446.637,184.913v-40.431c0-1.657-1.336-3-2.983-3  c-1.649,0-2.983,1.343-2.983,3v40.431"
   id="path56" />
<polyline
   fill="#C7C8CA"
   points="479.658,254.416 500.658,254.416 500.066,281.698 481.138,281.698 479.658,254.416 "
   id="polyline58" />
<polyline
   fill="none"
   stroke="#C7C8CA"
   stroke-width="1.003"
   points="479.658,254.416 500.657,254.416 500.065,281.696   481.138,281.696 479.658,254.416 "
   id="polyline60" />
<path
   fill="#C7C8CA"
   d="M445.32,184.546c-3.475-33.193,0-44.922,0-44.922c2.481-5.99,7.197-4.992,7.197-4.992h-0.026  c0-15.106,17.909-75.097,37.804-75.097c19.897,0,38.37,59.991,38.37,75.097h-0.15c0,0,4.715-0.999,7.196,4.992  c0,0,2.979,12.977-0.496,46.169"
   id="path62" />
<path
   fill="none"
   stroke="#C7C8CA"
   stroke-width="1.504"
   d="M445.32,184.546c-3.475-33.193,0-44.922,0-44.922  c2.481-5.99,7.197-4.992,7.197-4.992h-0.026c0-15.106,17.909-75.097,37.804-75.097c19.897,0,38.37,59.991,38.37,75.097h-0.15  c0,0,4.715-0.999,7.196,4.992c0,0,2.979,12.977-0.496,46.169"
   id="path64" />
<polyline
   fill="#C7C8CA"
   points="478.322,197.293 479.427,197.293 481.907,194.796 499.279,194.796 501.484,197.015   503.414,197.293 503.414,252.198 500.657,254.416 481.08,254.416 478.322,252.752 478.322,197.293 "
   id="polyline66" />
<polyline
   fill="none"
   stroke="#C7C8CA"
   stroke-width="1.003"
   points="478.322,197.293 479.425,197.293 481.907,194.796   499.278,194.796 501.484,197.015 503.414,197.293 503.414,252.198 500.657,254.417 481.08,254.417 478.322,252.753 478.322,197.293   "
   id="polyline68" />
<path
   fill="#C7C8CA"
   d="M490.51,194.778v59.646 M478.35,197.273v54.906l2.73,2.245h19.604l2.606-2.621v-54.53"
   id="path70" />
<path
   fill="none"
   stroke="#C7C8CA"
   stroke-width="1.003"
   d="M490.51,194.778v59.646 M478.35,197.273v54.906l2.73,2.245h19.604  l2.606-2.621v-54.53"
   id="path72" />
<path
   fill="#C7C8CA"
   d="M502.916,155.471l25.42-20.839 M452.339,134.632l26.011,20.714"
   id="path74" />
<path
   fill="none"
   stroke="#C7C8CA"
   stroke-width="1.003"
   d="M502.916,155.471l25.42-20.839 M452.339,134.632l26.011,20.714"
   id="path76" />
<line
   fill="none"
   stroke="#C7C8CA"
   stroke-miterlimit="10"
   x1="480.169"
   y1="281.22"
   x2="501.486"
   y2="281.22"
   id="line78" />
<polyline
   fill="#C7C8CA"
   points="480.169,281.22 501.486,281.22 480.169,281.22 "
   id="polyline80" />
<line
   fill="none"
   stroke="#C7C8CA"
   stroke-width="1.003"
   x1="480.169"
   y1="281.22"
   x2="501.486"
   y2="281.22"
   id="line82" />
<polyline
   fill="#C7C8CA"
   points="478.846,184.296 481.824,186.292 498.699,186.292 501.18,184.296 502.918,183.981 502.918,155.345   478.35,155.345 478.35,183.981 "
   id="polyline84" />
<polyline
   fill="none"
   stroke="#C7C8CA"
   stroke-width="1.003"
   points="478.846,184.296 481.824,186.292 498.699,186.292   501.18,184.296 502.918,183.981 502.918,155.345 478.35,155.345 478.35,183.981 "
   id="polyline86" />
<polyline
   fill="#C7C8CA"
   points="478.846,184.296 481.824,186.292 498.699,186.292 501.18,184.296 502.918,183.981 502.918,155.345   478.35,155.345 478.35,183.981 "
   id="polyline88" />
<polyline
   fill="none"
   stroke="#C7C8CA"
   stroke-width="1.003"
   points="478.846,184.296 481.824,186.292 498.699,186.292   501.18,184.296 502.918,183.981 502.918,155.345 478.35,155.345 478.35,183.981 "
   id="polyline90" />
<path
   fill="#C7C8CA"
   d="M446.19,193.109c0,0,7.444,48.016,14.642,60.992l16.83-2.725l2.729,2.725l1.931,92.993  c0,3.702,4.401,6.704,8.473,6.704c4.07,0,8.475-3.002,8.475-6.704l2.04-92.993l2.73-2.725l15.953,2.725  c11.417-31.945,14.18-60.992,14.18-60.992"
   id="path92" />
<path
   fill="none"
   stroke="#C7C8CA"
   stroke-width="1.504"
   d="M446.19,193.109c0,0,7.444,48.016,14.642,60.992l16.83-2.725  l2.729,2.725l1.931,92.993c0,3.702,4.401,6.704,8.473,6.704c4.07,0,8.475-3.002,8.475-6.704l2.04-92.993l2.73-2.725l15.953,2.725  c11.417-31.945,14.18-60.992,14.18-60.992"
   id="path94" />
<polyline
   fill="#C7C8CA"
   points="401.914,184.296 401.914,197.273 479.343,197.273 481.824,194.777 499.195,194.777   501.429,197.273 579.105,197.273 579.105,184.296 501.182,184.296 498.698,186.292 481.824,186.292 478.846,184.296   401.914,184.296 "
   id="polyline96" />
<polyline
   fill="none"
   stroke="#C7C8CA"
   stroke-width="1.003"
   points="401.914,184.296 401.914,197.271 479.343,197.271   481.824,194.777 499.195,194.777 501.429,197.271 579.105,197.271 579.105,184.296 501.18,184.296 498.698,186.292 481.824,186.292   478.846,184.296 401.914,184.296 "
   id="polyline98" />
<rect
   x="401.914"
   y="184.297"
   fill="#C7C8CA"
   width="20.598"
   height="12.976"
   id="rect100" />
<rect
   x="401.914"
   y="184.297"
   fill="none"
   stroke="#C7C8CA"
   stroke-width="1.003"
   width="20.599"
   height="12.976"
   id="rect102" />
<rect
   x="558.508"
   y="184.297"
   fill="#C7C8CA"
   width="20.598"
   height="12.976"
   id="rect104" />
<rect
   x="558.508"
   y="184.297"
   fill="none"
   stroke="#C7C8CA"
   stroke-width="1.003"
   width="20.598"
   height="12.976"
   id="rect106" />
<polyline
   fill="#C7C8CA"
   points="401.914,184.296 401.914,197.273 479.343,197.273 481.824,194.777 499.195,194.777   501.429,197.273 579.105,197.273 579.105,184.296 501.182,184.296 498.698,186.292 481.824,186.292 478.846,184.296   401.914,184.296 "
   id="polyline108" />
<polygon
   fill="none"
   stroke="#C7C8CA"
   stroke-width="1.003"
   points="401.914,184.296 401.914,197.271 479.343,197.271   481.824,194.777 499.195,194.777 501.429,197.271 579.105,197.271 579.105,184.296 501.18,184.296 498.698,186.292 481.824,186.292   478.846,184.296 "
   id="polygon110" />
<rect
   x="401.914"
   y="184.297"
   fill="#C7C8CA"
   width="20.598"
   height="12.976"
   id="rect112" />
<rect
   x="401.914"
   y="184.297"
   fill="none"
   stroke="#C7C8CA"
   stroke-width="1.003"
   width="20.599"
   height="12.976"
   id="rect114" />
<rect
   x="558.508"
   y="184.297"
   fill="#C7C8CA"
   width="20.598"
   height="12.976"
   id="rect116" />
<rect
   x="558.508"
   y="184.297"
   fill="none"
   stroke="#C7C8CA"
   stroke-width="1.003"
   width="20.598"
   height="12.976"
   id="rect118" />
<polyline
   fill="#C7C8CA"
   points="513.075,70.945 506.711,96.469 473.965,96.469 467.6,70.945 478.006,53.154 481.646,53.154   481.646,48.606 489.83,44.968 489.83,44.058 490.741,44.058 491.649,41.329 492.56,40.42 491.649,39.51 492.56,36.782   496.197,36.782 497.107,39.51 496.197,40.42 497.107,41.329 498.017,44.058 498.927,44.058 498.928,48.606 499.836,48.606   499.836,53.154 502.566,53.154 513.075,70.945 "
   id="polyline120" />
<polygon
   fill="none"
   stroke="#C7C8CA"
   stroke-width="1.003"
   points="513.075,70.945 506.711,96.469 473.965,96.469 467.6,70.945   478.006,53.154 481.644,53.154 481.644,48.606 489.83,44.968 489.83,44.058 490.74,44.058 491.649,41.329 492.56,40.42   491.649,39.51 492.56,36.782 496.197,36.782 497.105,39.51 496.197,40.42 497.105,41.329 498.017,44.058 498.927,44.058   498.928,48.606 499.836,48.606 499.836,53.154 502.566,53.154 "
   id="polygon122" />
<rect
   x="489.832"
   y="44.058"
   fill="#C7C8CA"
   width="2.728"
   height="4.547"
   id="rect124" />
<rect
   x="489.832"
   y="44.058"
   fill="none"
   stroke="#C7C8CA"
   stroke-width="1.003"
   width="2.727"
   height="4.547"
   id="rect126" />
<rect
   x="496.197"
   y="44.058"
   fill="#C7C8CA"
   width="2.729"
   height="4.547"
   id="rect128" />
<rect
   x="496.199"
   y="44.058"
   fill="none"
   stroke="#C7C8CA"
   stroke-width="1.003"
   width="2.728"
   height="4.547"
   id="rect130" />
<rect
   x="493.014"
   y="44.058"
   fill="#C7C8CA"
   width="2.728"
   height="4.547"
   id="rect132" />
<rect
   x="493.016"
   y="44.058"
   fill="none"
   stroke="#C7C8CA"
   stroke-width="1.003"
   width="2.728"
   height="4.547"
   id="rect134" />
<line
   fill="none"
   stroke="#C7C8CA"
   stroke-miterlimit="10"
   x1="493.98"
   y1="41.741"
   x2="497.619"
   y2="41.741"
   id="line136" />
<polyline
   fill="#C7C8CA"
   points="493.98,41.741 497.619,41.741 493.98,41.741 "
   id="polyline138" />
<line
   fill="none"
   stroke="#C7C8CA"
   stroke-width="1.003"
   x1="493.98"
   y1="41.741"
   x2="497.619"
   y2="41.741"
   id="line140" />
<line
   fill="none"
   stroke="#C7C8CA"
   stroke-miterlimit="10"
   x1="481.646"
   y1="48.605"
   x2="489.832"
   y2="48.605"
   id="line142" />
<polyline
   fill="#C7C8CA"
   points="481.646,48.605 489.832,48.605 481.646,48.605 "
   id="polyline144" />
<line
   fill="none"
   stroke="#C7C8CA"
   stroke-width="1.003"
   x1="481.646"
   y1="48.605"
   x2="489.832"
   y2="48.605"
   id="line146" />
<rect
   x="497.447"
   y="49.515"
   fill="#C7C8CA"
   width="1.48"
   height="3.638"
   id="rect148" />
<rect
   x="497.447"
   y="49.515"
   fill="none"
   stroke="#C7C8CA"
   stroke-width="1.003"
   width="1.479"
   height="3.638"
   id="rect150" />
<rect
   x="487.101"
   y="49.515"
   fill="#C7C8CA"
   width="1.479"
   height="3.638"
   id="rect152" />
<rect
   x="487.102"
   y="49.515"
   fill="none"
   stroke="#C7C8CA"
   stroke-width="1.003"
   width="1.479"
   height="3.638"
   id="rect154" />
<rect
   x="495.969"
   y="49.515"
   fill="#C7C8CA"
   width="1.479"
   height="3.638"
   id="rect156" />
<rect
   x="495.969"
   y="49.515"
   fill="none"
   stroke="#C7C8CA"
   stroke-width="1.003"
   width="1.479"
   height="3.638"
   id="rect158" />
<rect
   x="494.493"
   y="49.515"
   fill="#C7C8CA"
   width="1.478"
   height="3.638"
   id="rect160" />
<rect
   x="494.492"
   y="49.515"
   fill="none"
   stroke="#C7C8CA"
   stroke-width="1.003"
   width="1.479"
   height="3.638"
   id="rect162" />
<rect
   x="493.014"
   y="49.515"
   fill="#C7C8CA"
   width="1.48"
   height="3.638"
   id="rect164" />
<rect
   x="493.014"
   y="49.515"
   fill="none"
   stroke="#C7C8CA"
   stroke-width="1.003"
   width="1.48"
   height="3.638"
   id="rect166" />
<rect
   x="491.535"
   y="49.515"
   fill="#C7C8CA"
   width="1.481"
   height="3.638"
   id="rect168" />
<rect
   x="491.537"
   y="49.515"
   fill="none"
   stroke="#C7C8CA"
   stroke-width="1.003"
   width="1.479"
   height="3.638"
   id="rect170" />
<rect
   x="490.056"
   y="49.515"
   fill="#C7C8CA"
   width="1.479"
   height="3.638"
   id="rect172" />
<rect
   x="490.056"
   y="49.515"
   fill="none"
   stroke="#C7C8CA"
   stroke-width="1.003"
   width="1.48"
   height="3.638"
   id="rect174" />
<rect
   x="488.58"
   y="49.515"
   fill="#C7C8CA"
   width="1.479"
   height="3.638"
   id="rect176" />
<rect
   x="488.58"
   y="49.515"
   fill="none"
   stroke="#C7C8CA"
   stroke-width="1.003"
   width="1.479"
   height="3.638"
   id="rect178" />
<rect
   x="483.805"
   y="49.515"
   fill="#C7C8CA"
   width="1.478"
   height="3.638"
   id="rect180" />
<rect
   x="483.805"
   y="49.515"
   fill="none"
   stroke="#C7C8CA"
   stroke-width="1.003"
   width="1.478"
   height="3.638"
   id="rect182" />
<polyline
   fill="#C7C8CA"
   points="506.711,96.469 510.608,80.838 470.066,80.838 473.967,96.469 506.711,96.469 "
   id="polyline184" />
<polygon
   fill="none"
   stroke="#C7C8CA"
   stroke-width="1.003"
   points="506.711,96.469 510.607,80.838 470.066,80.838 473.967,96.469   "
   id="polygon186" />
<polyline
   fill="#FFFFFF"
   points="449.268,207.908 443.697,207.908 443.697,203.416 447.751,203.416 "
   id="polyline188" />
<polyline
   fill="none"
   stroke="#231F20"
   stroke-width="1.003"
   points="449.268,207.908 443.697,207.908 443.697,203.416   447.751,203.416 "
   id="polyline190" />
<path
   fill="#FFFFFF"
   d="M437.734,194.431v40.431c0,1.656,1.336,3,2.984,3c1.646,0,2.983-1.344,2.983-3v-40.431"
   id="path192" />
<path
   fill="none"
   stroke="#231F20"
   stroke-width="1.504"
   d="M437.734,194.431v40.431c0,1.656,1.336,3,2.984,3  c1.646,0,2.983-1.344,2.983-3v-40.431"
   id="path194" />
<polyline
   fill="#FFFFFF"
   points="528.446,203.415 530.432,203.415 530.432,207.907 527.703,207.907 "
   id="polyline196" />
<polyline
   fill="none"
   stroke="#231F20"
   stroke-width="1.003"
   points="528.446,203.415 530.432,203.415 530.432,207.907   527.703,207.907 "
   id="polyline198" />
<path
   fill="#FFFFFF"
   d="M530.957,194.431l-0.53,40.431c0,1.656,1.336,3,2.982,3c1.649,0,2.986-1.344,2.986-3l0.527-40.431"
   id="path200" />
<path
   fill="none"
   stroke="#231F20"
   stroke-width="1.504"
   d="M530.957,194.431l-0.53,40.431c0,1.656,1.336,3,2.982,3  c1.649,0,2.986-1.344,2.986-3l0.527-40.431"
   id="path202" />
<path
   fill="#FFFFFF"
   d="M443.257,190.266c0,0,7.445,48.016,14.643,60.992l16.83-2.725l2.729,2.725l1.931,92.993  c0,3.704,4.402,6.705,8.474,6.705c4.069,0,8.475-3.001,8.475-6.705l2.04-92.993l2.729-2.725l15.954,2.725  c11.417-31.945,14.18-60.992,14.18-60.992"
   id="path204" />
<path
   fill="none"
   stroke="#231F20"
   stroke-width="1.504"
   d="M443.257,190.266c0,0,7.445,48.016,14.643,60.992l16.83-2.725  l2.729,2.725l1.931,92.993c0,3.704,4.402,6.705,8.474,6.705c4.069,0,8.475-3.001,8.475-6.705l2.04-92.993l2.729-2.725l15.954,2.725  c11.417-31.945,14.18-60.992,14.18-60.992"
   id="path206" />
<path
   fill="#FFFFFF"
   d="M536.925,182.071v-40.431c0-1.656-1.337-3-2.985-3c-1.646,0-2.982,1.344-2.982,3v40.431"
   id="path208" />
<path
   fill="none"
   stroke="#231F20"
   stroke-width="1.504"
   d="M536.925,182.071v-40.431c0-1.656-1.337-3-2.985-3  c-1.646,0-2.982,1.344-2.982,3v40.431"
   id="path210" />
<path
   fill="#FFFFFF"
   d="M443.702,182.071v-40.431c0-1.656-1.335-3-2.983-3s-2.984,1.344-2.984,3v40.431"
   id="path212" />
<path
   fill="none"
   stroke="#231F20"
   stroke-width="1.504"
   d="M443.702,182.071v-40.431c0-1.656-1.335-3-2.983-3s-2.984,1.344-2.984,3  v40.431"
   id="path214" />
<polyline
   fill="#C7C8CA"
   points="476.726,251.574 497.724,251.574 497.133,278.855 478.203,278.855 476.726,251.574 "
   id="polyline216" />
<path
   fill="#FFFFFF"
   d="M442.386,181.704c-3.474-33.193,0-44.922,0-44.922c2.481-5.991,7.196-4.992,7.196-4.992h-0.024  c0-15.105,17.908-75.097,37.803-75.097c19.897,0,38.37,59.992,38.37,75.097h-0.149c0,0,4.715-0.999,7.196,4.992  c0,0,2.979,12.977-0.497,46.168"
   id="path218" />
<path
   fill="none"
   stroke="#231F20"
   stroke-width="1.504"
   d="M442.386,181.704c-3.474-33.193,0-44.922,0-44.922  c2.481-5.991,7.196-4.992,7.196-4.992h-0.024c0-15.105,17.908-75.097,37.803-75.097c19.897,0,38.37,59.992,38.37,75.097h-0.149  c0,0,4.715-0.999,7.196,4.992c0,0,2.979,12.977-0.497,46.168"
   id="path220" />
<polyline
   fill="#C7C8CA"
   points="475.39,194.45 476.492,194.45 478.973,191.953 496.344,191.953 498.551,194.173 500.481,194.45   500.481,249.355 497.723,251.574 478.146,251.574 475.39,249.911 475.39,194.45 "
   id="polyline222" />
<path
   fill="none"
   stroke="#231F20"
   stroke-width="1.003"
   d="M487.577,191.937v59.646 M475.417,194.431v54.906l2.73,2.245h19.603  l2.606-2.621v-54.531"
   id="path224" />
<path
   fill="none"
   stroke="#231F20"
   stroke-width="1.003"
   d="M499.982,152.629l25.421-20.839 M449.404,131.79l26.012,20.714"
   id="path226" />
<line
   fill="none"
   stroke="#231F20"
   stroke-width="1.003"
   x1="477.235"
   y1="278.378"
   x2="498.552"
   y2="278.378"
   id="line228" />
<polyline
   fill="#C7C8CA"
   points="475.911,181.455 478.89,183.45 495.766,183.45 498.246,181.455 499.983,181.14 499.983,152.503   475.416,152.503 475.416,181.14 "
   id="polyline230" />
<polyline
   fill="none"
   stroke="#231F20"
   stroke-width="1.003"
   points="475.911,181.455 478.89,183.45 495.766,183.45   498.246,181.455 499.983,181.14 499.983,152.503 475.416,152.503 475.416,181.14 "
   id="polyline232" />
<path
   fill="none"
   stroke="#231F20"
   stroke-width="1.504"
   d="M443.257,190.266c0,0,7.445,48.016,14.643,60.992l16.83-2.725  l2.729,2.725l1.931,92.993c0,3.704,4.402,6.705,8.474,6.705c4.069,0,8.475-3.001,8.475-6.705l2.04-92.993l2.729-2.725l15.954,2.725  c11.417-31.945,14.18-60.992,14.18-60.992"
   id="path234" />
<polyline
   fill="#C7C8CA"
   points="398.979,181.455 398.979,194.43 476.408,194.43 478.89,191.935 496.263,191.935 498.494,194.43   576.172,194.43 576.172,181.455 498.247,181.455 495.765,183.449 478.89,183.449 475.911,181.455 398.979,181.455 "
   id="polyline236" />
<polyline
   fill="none"
   stroke="#231F20"
   stroke-width="1.003"
   points="398.979,181.455 398.979,194.43 476.408,194.43   478.89,191.935 496.261,191.935 498.494,194.43 576.172,194.43 576.172,181.455 498.246,181.455 495.765,183.45 478.89,183.45   475.911,181.455 398.979,181.455 "
   id="polyline238" />
<rect
   x="398.979"
   y="181.455"
   fill="#FFFFFF"
   width="20.6"
   height="12.976"
   id="rect240" />
<rect
   x="398.98"
   y="181.454"
   fill="none"
   stroke="#231F20"
   stroke-width="1.003"
   width="20.6"
   height="12.976"
   id="rect242" />
<rect
   x="555.575"
   y="181.455"
   fill="#FFFFFF"
   width="20.598"
   height="12.976"
   id="rect244" />
<rect
   x="555.575"
   y="181.454"
   fill="none"
   stroke="#231F20"
   stroke-width="1.003"
   width="20.598"
   height="12.976"
   id="rect246" />
<polygon
   fill="none"
   stroke="#231F20"
   stroke-width="1.003"
   points="398.979,181.455 398.979,194.43 476.408,194.43 478.89,191.935   496.261,191.935 498.494,194.43 576.172,194.43 576.172,181.455 498.246,181.455 495.765,183.45 478.89,183.45 475.911,181.455 "
   id="polygon248" />
<rect
   x="398.98"
   y="181.454"
   fill="none"
   stroke="#231F20"
   stroke-width="1.003"
   width="20.6"
   height="12.976"
   id="rect250" />
<rect
   x="555.575"
   y="181.454"
   fill="none"
   stroke="#231F20"
   stroke-width="1.003"
   width="20.598"
   height="12.976"
   id="rect252" />
<polyline
   fill="#FFFFFF"
   points="510.142,68.104 503.776,93.627 471.033,93.627 464.665,68.104 475.071,50.313 478.711,50.313   478.711,45.763 486.897,42.126 486.897,41.215 487.808,41.215 488.716,38.486 489.625,37.578 488.716,36.667 489.625,33.939   493.264,33.939 494.173,36.667 493.264,37.578 494.173,38.486 495.083,41.215 495.993,41.215 495.993,45.763 496.902,45.763   496.902,50.313 499.632,50.313 510.142,68.104 "
   id="polyline254" />
<polygon
   fill="none"
   stroke="#231F20"
   stroke-width="1.003"
   points="510.142,68.104 503.776,93.627 471.032,93.627 464.664,68.104   475.071,50.313 478.71,50.313 478.71,45.763 486.896,42.126 486.896,41.215 487.806,41.215 488.716,38.486 489.624,37.578   488.716,36.668 489.624,33.939 493.264,33.939 494.173,36.668 493.264,37.578 494.173,38.486 495.083,41.215 495.992,41.215   495.993,45.763 496.902,45.763 496.902,50.313 499.632,50.313 "
   id="polygon256" />
<rect
   x="486.897"
   y="41.216"
   fill="#FFFFFF"
   width="2.728"
   height="4.547"
   id="rect258" />
<rect
   x="486.897"
   y="41.216"
   fill="none"
   stroke="#231F20"
   stroke-width="1.003"
   width="2.728"
   height="4.547"
   id="rect260" />
<rect
   x="493.265"
   y="41.216"
   fill="#FFFFFF"
   width="2.729"
   height="4.547"
   id="rect262" />
<rect
   x="493.265"
   y="41.216"
   fill="none"
   stroke="#231F20"
   stroke-width="1.003"
   width="2.729"
   height="4.547"
   id="rect264" />
<rect
   x="490.08"
   y="41.216"
   fill="#FFFFFF"
   width="2.728"
   height="4.547"
   id="rect266" />
<rect
   x="490.081"
   y="41.216"
   fill="none"
   stroke="#231F20"
   stroke-width="1.003"
   width="2.728"
   height="4.547"
   id="rect268" />
<line
   fill="none"
   stroke="#FFFFFF"
   stroke-miterlimit="10"
   x1="489.625"
   y1="37.577"
   x2="493.265"
   y2="37.577"
   id="line270" />
<polyline
   fill="#FFFFFF"
   points="489.625,37.577 493.265,37.577 489.625,37.577 "
   id="polyline272" />
<line
   fill="none"
   stroke="#231F20"
   stroke-width="1.003"
   x1="489.625"
   y1="37.577"
   x2="493.265"
   y2="37.577"
   id="line274" />
<line
   fill="none"
   stroke="#FFFFFF"
   stroke-miterlimit="10"
   x1="478.712"
   y1="45.763"
   x2="486.897"
   y2="45.763"
   id="line276" />
<polyline
   fill="#FFFFFF"
   points="478.712,45.763 486.897,45.763 478.712,45.763 "
   id="polyline278" />
<line
   fill="none"
   stroke="#231F20"
   stroke-width="1.003"
   x1="478.712"
   y1="45.763"
   x2="486.897"
   y2="45.763"
   id="line280" />
<rect
   x="494.514"
   y="46.674"
   fill="#FFFFFF"
   width="1.48"
   height="3.638"
   id="rect282" />
<rect
   x="494.514"
   y="46.673"
   fill="none"
   stroke="#231F20"
   stroke-width="1.003"
   width="1.48"
   height="3.638"
   id="rect284" />
<rect
   x="484.168"
   y="46.674"
   fill="#FFFFFF"
   width="1.479"
   height="3.638"
   id="rect286" />
<rect
   x="484.168"
   y="46.673"
   fill="none"
   stroke="#231F20"
   stroke-width="1.003"
   width="1.479"
   height="3.638"
   id="rect288" />
<rect
   x="493.035"
   y="46.674"
   fill="#FFFFFF"
   width="1.479"
   height="3.638"
   id="rect290" />
<rect
   x="493.035"
   y="46.673"
   fill="none"
   stroke="#231F20"
   stroke-width="1.003"
   width="1.479"
   height="3.638"
   id="rect292" />
<rect
   x="491.559"
   y="46.674"
   fill="#FFFFFF"
   width="1.479"
   height="3.638"
   id="rect294" />
<rect
   x="491.559"
   y="46.673"
   fill="none"
   stroke="#231F20"
   stroke-width="1.003"
   width="1.478"
   height="3.638"
   id="rect296" />
<rect
   x="490.08"
   y="46.674"
   fill="#FFFFFF"
   width="1.479"
   height="3.638"
   id="rect298" />
<rect
   x="490.08"
   y="46.673"
   fill="none"
   stroke="#231F20"
   stroke-width="1.003"
   width="1.479"
   height="3.638"
   id="rect300" />
<rect
   x="488.602"
   y="46.674"
   fill="#FFFFFF"
   width="1.48"
   height="3.638"
   id="rect302" />
<rect
   x="488.603"
   y="46.673"
   fill="none"
   stroke="#231F20"
   stroke-width="1.003"
   width="1.48"
   height="3.638"
   id="rect304" />
<rect
   x="487.123"
   y="46.674"
   fill="#FFFFFF"
   width="1.479"
   height="3.638"
   id="rect306" />
<rect
   x="487.123"
   y="46.673"
   fill="none"
   stroke="#231F20"
   stroke-width="1.003"
   width="1.48"
   height="3.638"
   id="rect308" />
<rect
   x="485.646"
   y="46.674"
   fill="#FFFFFF"
   width="1.479"
   height="3.638"
   id="rect310" />
<rect
   x="485.645"
   y="46.673"
   fill="none"
   stroke="#231F20"
   stroke-width="1.003"
   width="1.479"
   height="3.638"
   id="rect312" />
<rect
   x="480.871"
   y="46.674"
   fill="#FFFFFF"
   width="1.478"
   height="3.638"
   id="rect314" />
<rect
   x="480.871"
   y="46.673"
   fill="none"
   stroke="#231F20"
   stroke-width="1.003"
   width="1.478"
   height="3.638"
   id="rect316" />
<polyline
   fill="#C7C8CA"
   points="503.776,93.627 507.675,77.995 467.134,77.995 471.033,93.627 503.776,93.627 "
   id="polyline318" />
<polygon
   fill="none"
   stroke="#231F20"
   stroke-width="1.003"
   points="503.776,93.627 507.673,77.995 467.133,77.995 471.032,93.627   "
   id="polygon320" />
<path
   fill="#FFFFFF"
   d="M409.31,190.282c1.411,0,2.552-1.143,2.552-2.552c0-1.41-1.141-2.554-2.552-2.554  c-1.41,0-2.554,1.144-2.554,2.554C406.756,189.139,407.899,190.282,409.31,190.282"
   id="path322" />
<g
   transform="rotate(90,166.49376,380.75322)"><text
   style="font-size:7.74px;font-variant:normal;font-weight:bold;font-stretch:normal;line-height:1.25;font-family:Eurostile;writing-mode:lr-tb;fill:#000000;fill-opacity:1;fill-rule:nonzero;stroke:none"
   id="text2750"><tspan
     x="0"
     y="0">Right Side Armor</tspan>
     <tspan id="textArmor_RS"
     x="62.585324"
     y="0">( )</tspan></text></g><g
   transform="rotate(-90,353.25,-71.55)"><text
   style="font-size:7.74px;font-variant:normal;font-weight:bold;font-stretch:normal;line-height:1.25;font-family:Eurostile;writing-mode:lr-tb;fill:#000000;fill-opacity:1;fill-rule:nonzero;stroke:none"
   id="text2754"><tspan
     x="0"
     y="0">Left Side Armor</tspan><tspan
     id="textArmor_LS"
     x="57.38263"
     y = "0">( )</tspan></text></g><g
   transform="translate(551.87755,94.209151)"><text
   style="font-size:7.74px;font-variant:normal;font-weight:bold;font-stretch:normal;line-height:1.25;font-family:Eurostile;writing-mode:lr-tb;fill:#000000;fill-opacity:1;fill-rule:nonzero;stroke:none"
   text-anchor="middle"
   id="text2758"><tspan
     x="0"
     y="0"
     id="tspan2760">Front Armor</tspan><tspan
     x="0"
     y="9.275"
     id="textArmor_FR">( )</tspan></text></g><g
   transform="translate(488.778,361.21415)"><text
   style="font-size:7.74px;font-variant:normal;font-weight:bold;font-stretch:normal;line-height:1.25;font-family:Eurostile;writing-mode:lr-tb;fill:#000000;fill-opacity:1;fill-rule:nonzero;stroke:none"
   text-anchor="middle"
   id="text2758"><tspan
     x="0"
     y="0">Rear Armor</tspan><tspan
     x="0"
     y="9.275"
     id="textArmor_RR">( )</tspan></text></g><g
     transform="translate(559.58943,155.86015)"><text text-anchor="middle"
   style="font-size:7.74px;font-variant:normal;font-weight:bold;font-stretch:normal;line-height:1.25;font-family:Eurostile;writing-mode:lr-tb;fill:#000000;fill-opacity:1;fill-rule:nonzero;stroke:none"
   id="text2768"><tspan
     x="0"
     y="0">Rotor</tspan><tspan
     x="0"
     y="8.116">Armor</tspan><tspan
     x="0"
     y="16.232"
     id="textArmor_RO">( )</tspan></text></g><g
     transform="translate(440.68943,60.26015)"><text text-anchor="middle"
   style="font-size:7.74px;font-variant:normal;font-weight:bold;font-stretch:normal;line-height:1.25;font-family:Eurostile;writing-mode:lr-tb;fill:#000000;fill-opacity:1;fill-rule:nonzero;stroke:none"
   id="text2768"><tspan
     x="0"
     y="0">Turret</tspan><tspan
     x="0"
     y="8.116">Armor</tspan><tspan
     x="0"
     y="16.232"
     id="textArmor_TU">( )</tspan></text></g>

   <g transform="translate(400.56059,39.344648)"><text
   style="font-size:7.74px;font-variant:normal;font-weight:bold;font-stretch:normal;line-height:1.25;font-family:Eurostile;writing-mode:lr-tb;fill:#000000;fill-opacity:1;fill-rule:nonzero;stroke:none"
   id="armorType">Standard</text></g>
   
   <g fill="none" id="armorPips">
    <g id="armorPipsFR" transform="translate(487.3355,94.98)">
      <rect x="-27.77" width="55.54" y="0" height="6.8" id="armorFRRow00"/>
      <rect x="-28.95" width="57.9" y="3.4" height="6.8" id="armorFRRow01"/>
      <rect x="-30.11" width="60.22" y="6.8" height="6.8" id="armorFRRow02"/>
      <rect x="-30.93" width="61.86" y="10.2" height="6.8" id="armorFRRow03"/>
      <rect x="-32.29" width="64.58" y="13.6" height="6.8" id="armorFRRow04"/>
      <rect x="-32.98" width="65.96" y="17.4" height="6.8" id="armorFRRow05"/>
      <rect x="-34.14" width="68.28" y="20.4" height="6.8" id="armorFRRow06"/>
      <rect x="-35.45" width="70.9" y="27.2" height="6.8" id="armorFRRow07"/>
      <rect x="-32.16" width="64.32" y="34.0" height="6.8" id="armorFRRow08"/>
      <rect x="-23" width="46" y="40.8" height="6.8" id="armorFRRow09"/>
      <rect x="-14.93" width="29.86" y="47.6" height="6.8" id="armorFRRow010"/>
    </g>
    <g id="armorPipsRS" transform="translate(501.3005,135.434)"
            style="mml-multisection:true"><g id="armorPipsRS_section01">           
      <rect x="21.19" width="8.75" y="0" height="6.8" id="armorRSRow00"/>
      <rect x="12.65" width="18.2" y="6.8" height="6.8" id="armorRSRow01"/>
      <rect x="3.25" width="27.59" y="13.6" height="6.8" id="armorRSRow02"/>
      <rect x="0" width="30.96" y="20.4" height="6.8" id="armorRSRow03"/>
      <rect x="0" width="30.96" y="27.2" height="6.8" id="armorRSRow04"/>
      <rect x="0" width="29.96" y="34.0" height="6.8" id="armorRSRow05"/>
      <rect x="0" width="29.91" y="39.6" height="6.8" id="armorRSRow06"/>
      </g><g id="armorPipsRS_section02">
      <rect x="0" width="26.68" y="61.2" height="6.8" id="armorRSRow09"/>
      <rect x="0" width="25.38" y="68" height="6.8" id="armorRSRow10"/>
      <rect x="0" width="23.74" y="74.8" height="6.8" id="armorRSRow11"/>
      <rect x="0" width="22.12" y="81.6" height="6.8" id="armorRSRow12"/>
      <rect x="0" width="20.88" y="88.4" height="6.8" id="armorRSRow13"/>
      <rect x="0" width="18.68" y="95.2" height="6.8" id="armorRSRow14"/>
      <rect x="0" width="16.5" y="102" height="6.8" id="armorRSRow15"/>
    </g></g>
    <g id="armorPipsLS" transform="matrix(-1,0,0,1,473.6595,135.434)"
            style="mml-multisection:true"><g id="armorPipsLS_section01">
      <rect x="21.19" width="8.75" y="0" height="6.8" id="armorLSRow00"/>
      <rect x="12.65" width="18.2" y="6.8" height="6.8" id="armorLSRow01"/>
      <rect x="3.25" width="27.59" y="13.6" height="6.8" id="armorLSRow02"/>
      <rect x="0" width="30.96" y="20.4" height="6.8" id="armorLSRow03"/>
      <rect x="0" width="30.96" y="27.2" height="6.8" id="armorLSRow04"/>
      <rect x="0" width="29.96" y="34.0" height="6.8" id="armorLSRow05"/>
      <rect x="0" width="29.91" y="39.6" height="6.8" id="armorLSRow06"/>
      </g><g id="armorPipsLS_section02">
      <rect x="0" width="26.68" y="61.2" height="6.8" id="armorLSRow09"/>
      <rect x="0" width="25.38" y="68" height="6.8" id="armorLSRow10"/>
      <rect x="0" width="23.74" y="74.8" height="6.8" id="armorLSRow11"/>
      <rect x="0" width="22.12" y="81.6" height="6.8" id="armorLSRow12"/>
      <rect x="0" width="20.88" y="88.4" height="6.8" id="armorLSRow13"/>
      <rect x="0" width="18.68" y="95.2" height="6.8" id="armorLSRow14"/>
      <rect x="0" width="16.5" y="102" height="6.8" id="armorLSRow15"/>
    </g></g>
    <g id="armorPipsRR" transform="translate(487.8295,280.58)">
      <rect x="-7.3" width="14.6" y="0" height="6.3" id="armorRRRow00"/>
      <rect x="-7.11" width="14.22" y="6.3" height="6.3" id="armorRRRow01"/>
      <rect x="-6.91" width="13.82" y="12.6" height="6.3" id="armorRRRow02"/>
      <rect x="-6.72" width="13.44" y="18.9" height="6.3" id="armorRRRow03"/>
      <rect x="-6.53" width="13.06" y="25.2" height="6.3" id="armorRRRow04"/>
      <rect x="-6.33" width="12.66" y="31.5" height="6.3" id="armorRRRow05"/>
      <rect x="-6.14" width="12.28" y="37.8" height="6.3" id="armorRRRow06"/>
      <rect x="-5.95" width="11.9" y="44.1" height="6.3" id="armorRRRow07"/>
      <rect x="-5.75" width="11.5" y="50.4" height="6.3" id="armorRRRow08"/>
      <rect x="-5.56" width="11.12" y="56.7" height="6.3" id="armorRRRow08"/>
    </g>
    <g id="armorPipsRO" transform="translate(487.3295,184.18)">
      <rect x="-87.3" width="174.6" y="0" height="6.8" style="mml-gap:-71,71" id="armorRORow00"/>
    </g>
    <g id="armorPipsTU" transform="translate(487.3355,51.18)">
      <rect x="-11.63" width="23.26" y="0" height="6.44" id="armorTURow00"/>
      <rect x="-15.35" width="30.7" y="6.44" height="6.44" id="armorTURow01"/>
      <rect x="-19.32" width="38.64" y="12.88" height="6.44" id="armorTURow02"/>
      <rect x="-19.32" width="38.64" y="19.32" height="6.44" id="armorTURow03"/>
    </g>
  </g>
  <g fill="none" id="structurePips">
    <g id="structurePipsFR" transform="translate(487.5305,155.4)">
      <rect x="-11" width="22" y="0" height="6.8" id="structurePipsFR00"/>
      <rect x="-11" width="22" y="6.8" height="6.8" id="structurePipsFR01"/>
      <rect x="-11" width="22" y="13.6" height="6.8" id="structurePipsFR02"/>
    </g>
    <g id="structurePipsRS" transform="translate(488.8295,194.88)">
      <rect x="0" width="9.8" y="0" height="6.8" id="structurePipsRS00"/>
      <rect x="0" width="9.8" y="6.8" height="6.8" id="structurePipsRS01"/>
      <rect x="0" width="9.8" y="13.6" height="6.8" id="structurePipsRS02"/>
      <rect x="0" width="9.8" y="20.4" height="6.8" id="structurePipsRS03"/>
      <rect x="0" width="9.8" y="27.2" height="6.8" id="structurePipsRS04"/>
      <rect x="0" width="9.8" y="34.0" height="6.8" id="structurePipsRS05"/>
      <rect x="0" width="9.8" y="40.8" height="6.8" id="structurePipsRS06"/>
      <rect x="0" width="9.8" y="47.6" height="6.8" id="structurePipsRS07"/>
    </g>
    <g id="structurePipsLS" transform="matrix(-1,0,0,1,486.2995,194.88)">
      <rect x="0" width="9.8" y="0" height="6.8" id="structurePipsLS00"/>
      <rect x="0" width="9.8" y="6.8" height="6.8" id="structurePipsLS01"/>
      <rect x="0" width="9.8" y="13.6" height="6.8" id="structurePipsLS02"/>
      <rect x="0" width="9.8" y="20.4" height="6.8" id="structurePipsLS03"/>
      <rect x="0" width="9.8" y="27.2" height="6.8" id="structurePipsLS04"/>
      <rect x="0" width="9.8" y="34.0" height="6.8" id="structurePipsLS05"/>
      <rect x="0" width="9.8" y="40.8" height="6.8" id="structurePipsLS06"/>
      <rect x="0" width="9.8" y="47.6" height="6.8" id="structurePipsLS07"/>
    </g>
    <g id="structurePipsRR" transform="translate(487.7305,254.18)">
      <rect x="-8.65" width="17.3" y="0" height="6.8" id="structurePipsRR00"/>
      <rect x="-8.65" width="17.3" y="6.8" height="6.8" id="structurePipsRR01"/>
      <rect x="-8.65" width="17.3" y="13.6" height="6.8" id="structurePipsRR02"/>
    </g>
    <g id="structurePipsRO" transform="translate(487.3295,184.8)">
      <rect x="-66.8" width="133.6" y="0" height="5.6" id="structurePipsRO00"/>
    </g>
    <g id="structurePipsTU" transform="translate(487.3355,78.8)">
      <rect x="-17.42" width="34.84" y="0" height="6.8" id="structurePipsTU00"/>
      <rect x="-15.92" width="31.84" y="6.8" height="6.8" id="structurePipsTU01"/>
    </g>
  </g>
</g></svg>
