<?xml version="1.0" encoding="utf-8"?>
<!DOCTYPE svg PUBLIC "-//W3C//DTD SVG 1.0//EN" "http://www.w3.org/TR/2001/REC-SVG-20010904/DTD/svg10.dtd">
<svg version="1.0" xmlns="http://www.w3.org/2000/svg" xmlns:xlink="http://www.w3.org/1999/xlink" x="0" y="0" width="184" height="627"
     xml:space="preserve">
<g id="armor_diagram_sh_naval_noturret" transform="translate(-399.18801,-40.430276)"><path
   fill="#CCCECF"
   d="M471.111,647.098c0,0-7.461,0.54-6.394-8.374h-56.63v-3.806l27.401-44.909h9.136l-5.481-14.462h-34.711  v-9.136l27.404-13.701c0,0-18.271-47.442-21.009-87.022V190.582c0,0-1.827-32.731,4.566-51c0,0,22.379-70.789,75.814-76.12h3.02  c53.436,5.331,75.815,76.12,75.815,76.12c6.392,18.269,4.565,51,4.565,51v275.106c-2.74,39.58-21.01,87.022-21.01,87.022  l27.404,13.701v9.136h-34.709l-5.482,14.462h9.135l27.401,44.909v3.806h-56.632c1.069,8.914-6.392,8.374-6.392,8.374"
   id="path162" />
<path
   fill="#FFFFFF"
   d="M468.277,643.965c0,0-7.463,0.541-6.394-8.374h-56.631v-3.807l27.401-44.908h9.136l-5.482-14.463h-34.711  v-9.136l27.405-13.7c0,0-18.27-47.443-21.009-87.022V187.448c0,0-1.827-32.731,4.565-51c0,0,22.379-70.789,75.815-76.118h3.019  c53.438,5.329,75.816,76.118,75.816,76.118c6.393,18.269,4.564,51,4.564,51v275.106c-2.738,39.579-21.008,87.022-21.008,87.022  l27.402,13.7v9.136H543.46l-5.483,14.463h9.136l27.402,44.908v3.807h-56.633c1.07,8.915-6.392,8.374-6.392,8.374"
   id="path164" />
<path
   fill="none"
   stroke="#434344"
   stroke-width="1.522"
   d="M468.276,643.965c0,0-7.461,0.54-6.394-8.374h-56.63v-3.807  l27.401-44.908h9.136l-5.482-14.463h-34.711v-9.136l27.405-13.7c0,0-18.27-47.443-21.009-87.022V187.448  c0,0-1.828-32.731,4.565-50.999c0,0,22.379-70.791,75.815-76.12h3.019c53.438,5.329,75.816,76.12,75.816,76.12  c6.393,18.268,4.564,50.999,4.564,50.999v275.106c-2.738,39.579-21.008,87.022-21.008,87.022l27.402,13.7v9.136H543.46  l-5.483,14.463h9.136l27.4,44.908v3.807h-56.631c1.07,8.914-6.393,8.374-6.393,8.374H468.276z"
   id="path166" />
<path
   fill="#CCCECF"
   d="M489.352,286.438v228.855h34.967l8.495,11.355V175.521h-43.462v110.917"
   id="path168" />
<path
   fill="#CCCECF"
   d="M489.314,515.292V175.521h-43.462v350.656l8.141-10.885"
   id="path170" />
<path
   fill="none"
   stroke="#434344"
   stroke-width="0.761"
   d="M460.029,632.165h-55.261 M461.4,635.591l-24.207-66.604h-36.079   M518.769,632.165h55.263 M517.399,635.591l24.205-66.604h36.08"
   id="path172" />
<polyline
   fill="#CCCECF"
   points="567.729,141.118 411.371,141.118 444.404,175.521 534.697,175.521 "
   id="polyline186" />
<path
   fill="none"
   stroke="#434344"
   stroke-width="1"
   d="M489.352,286.438v228.882h34.967l8.533,11.408v-351.18h-43.5v110.917z M489.353,515.292V175.521h-43.5v350.656l8.141-10.885  H489.353z M567.729,141.118H411.371l33.032,34.403h90.293L567.729,141.118z M408.5,345.42h163.75"
   id="path188" />
<polyline
   fill="#CCCECF"
   points="428.266,549.692 550.049,549.692 524.319,515.292 453.993,515.292 "
   id="polyline190" />
<polygon
   fill="none"
   stroke="#434344"
   stroke-width="1"
   points="428.266,549.692 550.049,549.692 524.319,515.292 453.993,515.292"
   id="polygon192" /><g id="turret_rear" transform="translate(41.2,0)"><path
   fill="#ffffff"
   stroke="#434344"
   stroke-width="1.454"
   d="M528.163,294.285c0-4.337-3.904-7.847-8.723-7.847h-60.728  c-4.816,0-8.724,3.51-8.724,7.847v100.038c0,4.336,3.907,7.852,8.724,7.852h60.728c4.818,0,8.723-3.516,8.723-7.852V294.285z"
   id="path178" /><rect
   x="474.702"
   y="286.483"
   fill="#CCCECF"
   width="29.719"
   height="68.805"
   id="rect174" /><rect
   x="474.702"
   y="286.482"
   fill="none"
   stroke="#434344"
   stroke-width="0.484"
   width="29.719"
   height="68.805"
   id="rect176" /></g><g id="turret_front" transform="translate(-40.2,0)"><path
   fill="#ffffff"
   stroke="#434344"
   stroke-width="1.454"
   d="M528.163,294.285c0-4.337-3.904-7.847-8.723-7.847h-60.728  c-4.816,0-8.724,3.51-8.724,7.847v100.038c0,4.336,3.907,7.852,8.724,7.852h60.728c4.818,0,8.723-3.516,8.723-7.852V294.285z"
   id="path178" /><rect
   x="474.702"
   y="286.483"
   fill="#CCCECF"
   width="29.719"
   height="68.805"
   id="rect174" /><rect
   x="474.702"
   y="286.482"
   fill="none"
   stroke="#434344"
   stroke-width="0.484"
   width="29.719"
   height="68.805"
   id="rect176" /></g><g
   transform="rotate(90,179.7,398.25)"><text
   style="font-size:7.74px;font-variant:normal;font-weight:bold;font-stretch:normal;line-height:1.25;font-family:Eurostile;writing-mode:lr-tb;fill:#000000;fill-opacity:1;fill-rule:nonzero;stroke:none"
   id="text2750"><tspan
     x="0"
     y="0">Front Right Side Armor</tspan>
     <tspan id="textArmor_FRRS"
     x="82.485324"
     y="0">( )</tspan><tspan
     x="144"
     y="0">Rear Right Side Armor</tspan>
     <tspan id="textArmor_RRRS"
     x="226.485324"
     y="0">( )</tspan></text></g><g
   transform="rotate(-90,426.7,22.4)"><text
   style="font-size:7.74px;font-variant:normal;font-weight:bold;font-stretch:normal;line-height:1.25;font-family:Eurostile;writing-mode:lr-tb;fill:#000000;fill-opacity:1;fill-rule:nonzero;stroke:none"
   id="text2754"><tspan
     x="0"
     y="0">Rear Left Side Armor</tspan><tspan
     id="textArmor_RRLS"
     x="77.28263"
     y = "0">( )</tspan><tspan
     x="144"
     y="0">Front Left Side Armor</tspan><tspan
     id="textArmor_FRLS"
     x="221.28263"
     y = "0">( )</tspan></text></g><g
   transform="translate(488.778,46.409465)"><text
   style="font-size:7.74px;font-variant:normal;font-weight:bold;font-stretch:normal;line-height:1.25;font-family:Eurostile;writing-mode:lr-tb;fill:#000000;fill-opacity:1;fill-rule:nonzero;stroke:none"
   text-anchor="middle"
   id="text2758"><tspan
     x="0"
     y="0"
     id="tspan2760">Front Armor</tspan><tspan
     x="0"
     y="9.275"
     id="textArmor_FR">( )</tspan><tspan
     x="0"
     y="610.185">Rear Armor</tspan><tspan
     x="0"
     y="619.46"
     id="textArmor_RR">( )</tspan></text></g><g
     transform="translate(448.578,390.26)"><text text-anchor="middle"
   style="font-size:7.74px;font-variant:normal;font-weight:bold;font-stretch:normal;line-height:1.25;font-family:Eurostile;writing-mode:lr-tb;fill:#000000;fill-opacity:1;fill-rule:nonzero;stroke:none"
   id="text2768"><tspan
     x="0"
     y="0">Front Turret Armor</tspan><tspan
     x="0"
     y="8.116"
     id="textArmor_FT">( )</tspan></text></g><g
     transform="translate(529.978,390.26)"><text text-anchor="middle"
   style="font-size:7.74px;font-variant:normal;font-weight:bold;font-stretch:normal;line-height:1.25;font-family:Eurostile;writing-mode:lr-tb;fill:#000000;fill-opacity:1;fill-rule:nonzero;stroke:none"
   id="text2768"><tspan
     x="0"
     y="0">Rear Turret Armor</tspan><tspan
     x="0"
     y="8.116"
     id="textArmor_TU">( )</tspan></text></g><g transform="translate(400.56059,48.944396)"><text
   style="font-size:7.74px;font-variant:normal;font-weight:bold;font-stretch:normal;line-height:1.25;font-family:Eurostile;writing-mode:lr-tb;fill:#000000;fill-opacity:1;fill-rule:nonzero;stroke:none"
   id="armorType">Standard</text></g>
   
   <g fill="none" id="armorPips">
    <g id="armorPipsFR" transform="translate(489.63,66.58)">
      <rect x="-20.23" width="40.46" y="0" height="10" id="armorFRRow00"/>
      <rect x="-29.24" width="58.48" y="5" height="10" id="armorFRRow01"/>
      <rect x="-36.89" width="73.78" y="10" height="10" id="armorFRRow02"/>
      <rect x="-41.4" width="82.8" y="15" height="10" id="armorFRRow03"/>
      <rect x="-44.19" width="88.38" y="20" height="10" id="armorFRRow04"/>
      <rect x="-51.03" width="102.06" y="25" height="10" id="armorFRRow05"/>
      <rect x="-54.87" width="109.74" y="30" height="10" id="armorFRRow06"/>
      <rect x="-60.87" width="121.74" y="40" height="10" id="armorFRRow07"/>
      <rect x="-67.22" width="134.44" y="50" height="10" id="armorFRRow08"/>
      <rect x="-71.82" width="143.64" y="60" height="10" id="armorFRRow09"/>
    </g>
    <g id="armorPipsFRRS" transform="translate(533.9,149)">
      <rect x="24.92" width="10" y="0" height="10" id="armorRSRow00"/>
      <rect x="17.93" width="16.64" y="10" height="10" id="armorRSRow01"/>
      <rect x="8.2" width="27.65" y="20" height="10" id="armorRSRow02"/>
      <rect x="0" width="36" y="30" height="10" id="armorRSRow03"/>
      <rect x="0" width="36" y="40" height="10" id="armorRSRow04"/>
      <rect x="0" width="36" y="50" height="10" id="armorRSRow05"/>
      <rect x="0" width="36" y="60" height="10" id="armorRSRow06"/>
      <rect x="0" width="36" y="70" height="10" id="armorRSRow07"/>
      <rect x="0" width="36" y="80" height="10" id="armorRSRow08"/>
      <rect x="0" width="36" y="90" height="10" id="armorRSRow09"/>
      <rect x="0" width="36" y="100" height="10" id="armorRSRow00"/>
      <rect x="0" width="36" y="110" height="10" id="armorRSRow11"/>
      <rect x="0" width="36" y="120" height="10" id="armorRSRow12"/>
    </g><g id="armorPipsRRRS" transform="translate(533.9,149)">
      <rect x="0" width="36" y="260" height="10" id="armorFRRSRow26"/>
      <rect x="0" width="36" y="270" height="10" id="armorFRRSRow27"/>
      <rect x="0" width="36" y="280" height="10" id="armorFRRSRow28"/>
      <rect x="0" width="36" y="290" height="10" id="armorFRRSRow29"/>
      <rect x="0" width="36" y="300" height="10" id="armorFRRSRow30"/>
      <rect x="0" width="36" y="310" height="10" id="armorFRRSRow31"/>
      <rect x="0" width="34" y="320" height="10" id="armorFRRSRow32"/>
      <rect x="0" width="32.4" y="330" height="10" id="armorFRRSRow33"/>
      <rect x="0" width="30.7" y="340" height="10" id="armorFRRSRow34"/>
      <rect x="0" width="28.1" y="350" height="10" id="armorFRRSRow35"/>
      <rect x="0" width="25.4" y="360" height="10" id="armorFRRSRow36"/>
      <rect x="0" width="22.4" y="370" height="10" id="armorFRRSRow37"/>
    </g><g id="armorPipsFRLS" transform="matrix(-1,0,0,1,444.36,149)">
      <rect x="24.92" width="10" y="0" height="10" id="armorFRLSRow00"/>
      <rect x="17.93" width="16.64" y="10" height="10" id="armorFRLSRow01"/>
      <rect x="8.2" width="27.65" y="20" height="10" id="armorFRLSRow02"/>
      <rect x="0" width="36" y="30" height="10" id="armorFRLSRow03"/>
      <rect x="0" width="36" y="40" height="10" id="armorFRLSRow04"/>
      <rect x="0" width="36" y="50" height="10" id="armorFRLSRow05"/>
      <rect x="0" width="36" y="60" height="10" id="armorFRLSRow06"/>
      <rect x="0" width="36" y="70" height="10" id="armorFRLSRow07"/>
      <rect x="0" width="36" y="80" height="10" id="armorFRLSRow08"/>
      <rect x="0" width="36" y="90" height="10" id="armorFRLSRow09"/>
      <rect x="0" width="36" y="100" height="10" id="armorFRLSRow00"/>
      <rect x="0" width="36" y="110" height="10" id="armorFRLSRow11"/>
      <rect x="0" width="36" y="120" height="10" id="armorFRLSRow12"/>
    </g><g id="armorPipsRRLS" transform="matrix(-1,0,0,1,444.36,149)">
      <rect x="0" width="36" y="260" height="10" id="armorRRLSRow26"/>
      <rect x="0" width="36" y="270" height="10" id="armorRRLSRow27"/>
      <rect x="0" width="36" y="280" height="10" id="armorRRLSRow28"/>
      <rect x="0" width="36" y="290" height="10" id="armorRRLSRow29"/>
      <rect x="0" width="36" y="300" height="10" id="armorRRLSRow30"/>
      <rect x="0" width="36" y="310" height="10" id="armorRRLSRow31"/>
      <rect x="0" width="34" y="320" height="10" id="armorRRLSRow32"/>
      <rect x="0" width="32.4" y="330" height="10" id="armorRRLSRow33"/>
      <rect x="0" width="30.7" y="340" height="10" id="armorRRLSRow34"/>
      <rect x="0" width="28.1" y="350" height="10" id="armorRRLSRow35"/>
      <rect x="0" width="25.4" y="360" height="10" id="armorRRLSRow36"/>
      <rect x="0" width="22.4" y="370" height="10" id="armorRRLSRow37"/>
    </g>
    <g id="armorPipsRR" transform="translate(489.63,556.78)">
      <rect x="-72" width="144" y="0" height="10" id="armorRRRow00"/>
      <rect x="-47" width="94" y="10" height="10" id="armorRRRow02"/>
      <rect x="-44" width="88" y="20" height="10" id="armorRRRow04"/>
      <rect x="-40" width="80" y="30" height="10" id="armorRRRow06"/>
      <rect x="-37" width="74" y="40" height="10" id="armorRRRow07"/>
      <rect x="-33" width="66" y="50" height="10" id="armorRRRow08"/>
      <rect x="-29" width="58" y="60" height="10" id="armorRRRow09"/>
      <rect x="-26" width="52" y="70" height="10" id="armorRRRow10"/>
    </g><g id="armorPipsFT" transform="translate(448.73,290.28)">
      <rect x="-37.5" width="75" y="0" height="10" style="mml-gap:-17.5,17.5" id="armorFTRow00"/>
      <rect x="-37.5" width="75" y="10" height="10" style="mml-gap:-17.5,17.5" id="armorFTRow02"/>
      <rect x="-37.5" width="75" y="20" height="10" style="mml-gap:-17.5,17.5" id="armorFTRow04"/>
      <rect x="-37.5" width="75" y="30" height="10" style="mml-gap:-17.5,17.5" id="armorFTRow06"/>
      <rect x="-37.5" width="75" y="40" height="10" style="mml-gap:-17.5,17.5" id="armorFTRow07"/>
      <rect x="-37.5" width="75" y="50" height="10" style="mml-gap:-17.5,17.5" id="armorFTRow08"/>
      <rect x="-37.5" width="75" y="60" height="10" style="mml-gap:-17.5,17.5" id="armorFTRow09"/>
      <rect x="-37.5" width="75" y="70" height="10" id="armorFTRow10"/>
      <rect x="-37.5" width="75" y="80" height="10" id="armorFTRow11"/>
    </g><g id="armorPipsTU" transform="translate(529.83,290.28)">
      <rect x="-37.5" width="75" y="0" height="10" style="mml-gap:-17.5,17.5" id="armorTURow00"/>
      <rect x="-37.5" width="75" y="10" height="10" style="mml-gap:-17.5,17.5" id="armorTURow02"/>
      <rect x="-37.5" width="75" y="20" height="10" style="mml-gap:-17.5,17.5" id="armorTURow04"/>
      <rect x="-37.5" width="75" y="30" height="10" style="mml-gap:-17.5,17.5" id="armorTURow06"/>
      <rect x="-37.5" width="75" y="40" height="10" style="mml-gap:-17.5,17.5" id="armorTURow07"/>
      <rect x="-37.5" width="75" y="50" height="10" style="mml-gap:-17.5,17.5" id="armorTURow08"/>
      <rect x="-37.5" width="75" y="60" height="10" style="mml-gap:-17.5,17.5" id="armorTURow09"/>
      <rect x="-37.5" width="75" y="70" height="10" id="armorTURow10"/>
      <rect x="-37.5" width="75" y="80" height="10" id="armorTURow11"/>
    </g>
</g>
  <g fill="none" id="structurePips">
    <g id="structurePipsFR" transform="translate(489.6,142.50028)">
      <rect x="-68.3" width="136.6" y="0" height="6.8" id="structurePipsFR00"/>
      <rect x="-62.7" width="125.4" y="6.8" height="6.8" id="structurePipsFR01"/>
      <rect x="-53.28" width="106.56" y="13.6" height="6.8" id="structurePipsFR02"/>
      <rect x="-49" width="98" y="20.4" height="6.8" id="structurePipsFR03"/>
    </g>
    <g id="structurePipsFRRS" transform="translate(491.13,177.88)">
      <rect x="0" width="39" y="0" height="6.8" id="structurePipsFRRS00"/>
      <rect x="0" width="39" y="6.8" height="6.8" id="structurePipsFRRS01"/>
      <rect x="0" width="39" y="13.6" height="6.8" id="structurePipsFRRS02"/>
      <rect x="0" width="39" y="20.4" height="6.8" id="structurePipsFRRS03"/>
      <rect x="0" width="39" y="27.2" height="6.8" id="structurePipsFRRS04"/>
      <rect x="0" width="39" y="34.0" height="6.8" id="structurePipsFRRS05"/>
      <rect x="0" width="39" y="40.8" height="6.8" id="structurePipsFRRS06"/>
      <rect x="0" width="39" y="47.6" height="6.8" id="structurePipsFRRS07"/>
      <rect x="0" width="39" y="54.4" height="6.8" id="structurePipsFRRS08"/>
      <rect x="0" width="39" y="61.2" height="6.8" id="structurePipsFRRS09"/>
      <rect x="0" width="39" y="68" height="6.8" id="structurePipsFRRS10"/>
      <rect x="0" width="39" y="74.8" height="6.8" id="structurePipsFRRS11"/>
      <rect x="0" width="39" y="81.6" height="6.8" id="structurePipsFRRS12"/>
      <rect x="0" width="39" y="88.4" height="6.8" id="structurePipsFRRS13"/>
      <rect x="0" width="39" y="95.2" height="6.8" id="structurePipsFRRS14"/>
    </g><g id="structurePipsRRRS" transform="translate(491.13,180.38)">
      <rect x="0" width="39" y="224.4" height="6.8" id="structurePipsRRRS33"/>
      <rect x="0" width="39" y="231.2" height="6.8" id="structurePipsRRRS34"/>
      <rect x="0" width="39" y="238" height="6.8" id="structurePipsRRRS35"/>
      <rect x="0" width="39" y="244.8" height="6.8" id="structurePipsRRRS36"/>
      <rect x="0" width="39" y="251.6" height="6.8" id="structurePipsRRRS37"/>
      <rect x="0" width="39" y="258.4" height="6.8" id="structurePipsRRRS38"/>
      <rect x="0" width="39" y="265.2" height="6.8" id="structurePipsRRRS39"/>
      <rect x="0" width="39" y="272" height="6.8" id="structurePipsRRRS40"/>
      <rect x="0" width="39" y="278.8" height="6.8" id="structurePipsRRRS41"/>
      <rect x="0" width="39" y="285.6" height="6.8" id="structurePipsRRRS42"/>
      <rect x="0" width="39" y="292.4" height="6.8" id="structurePipsRRRS43"/>
      <rect x="0" width="39" y="299.2" height="6.8" id="structurePipsRRRS44"/>
      <rect x="0" width="39" y="306" height="6.8" id="structurePipsRRRS45"/>
      <rect x="0" width="39" y="312.8" height="6.8" id="structurePipsRRRS46"/>
      <rect x="0" width="39" y="319.6" height="6.8" id="structurePipsRRRS47"/>
      <rect x="0" width="39" y="326.4" height="6.8" id="structurePipsRRRS48"/>
    </g>
    <g id="structurePipsFRLS" transform="matrix(-1,0,0,1,486.6,177.88)">
      <rect x="0" width="39" y="0" height="6.8" id="structurePipsFRLS00"/>
      <rect x="0" width="39" y="6.8" height="6.8" id="structurePipsFRLS01"/>
      <rect x="0" width="39" y="13.6" height="6.8" id="structurePipsFRLS02"/>
      <rect x="0" width="39" y="20.4" height="6.8" id="structurePipsFRLS03"/>
      <rect x="0" width="39" y="27.2" height="6.8" id="structurePipsFRLS04"/>
      <rect x="0" width="39" y="34.0" height="6.8" id="structurePipsFRLS05"/>
      <rect x="0" width="39" y="40.8" height="6.8" id="structurePipsFRLS06"/>
      <rect x="0" width="39" y="47.6" height="6.8" id="structurePipsFRLS07"/>
      <rect x="0" width="39" y="54.4" height="6.8" id="structurePipsFRLS08"/>
      <rect x="0" width="39" y="61.2" height="6.8" id="structurePipsFRLS09"/>
      <rect x="0" width="39" y="68" height="6.8" id="structurePipsFRLS10"/>
      <rect x="0" width="39" y="74.8" height="6.8" id="structurePipsFRLS11"/>
      <rect x="0" width="39" y="81.6" height="6.8" id="structurePipsFRLS12"/>
      <rect x="0" width="39" y="88.4" height="6.8" id="structurePipsFRLS13"/>
      <rect x="0" width="39" y="95.2" height="6.8" id="structurePipsFRLS14"/>
    </g><g id="structurePipsRRLS" transform="matrix(-1,0,0,1,486.6,180.38)">
      <rect x="0" width="39" y="224.4" height="6.8" id="structurePipsRRLS33"/>
      <rect x="0" width="39" y="231.2" height="6.8" id="structurePipsRRLS34"/>
      <rect x="0" width="39" y="238" height="6.8" id="structurePipsRRLS35"/>
      <rect x="0" width="39" y="244.8" height="6.8" id="structurePipsRRLS36"/>
      <rect x="0" width="39" y="251.6" height="6.8" id="structurePipsRRLS37"/>
      <rect x="0" width="39" y="258.4" height="6.8" id="structurePipsRRLS38"/>
      <rect x="0" width="39" y="265.2" height="6.8" id="structurePipsRRLS39"/>
      <rect x="0" width="39" y="272" height="6.8" id="structurePipsRRLS40"/>
      <rect x="0" width="39" y="278.8" height="6.8" id="structurePipsRRLS41"/>
      <rect x="0" width="39" y="285.6" height="6.8" id="structurePipsRRLS42"/>
      <rect x="0" width="39" y="292.4" height="6.8" id="structurePipsRRLS43"/>
      <rect x="0" width="39" y="299.2" height="6.8" id="structurePipsRRLS44"/>
      <rect x="0" width="39" y="306" height="6.8" id="structurePipsRRLS45"/>
      <rect x="0" width="39" y="312.8" height="6.8" id="structurePipsRRLS46"/>
      <rect x="0" width="39" y="319.6" height="6.8" id="structurePipsRRLS47"/>
      <rect x="0" width="39" y="326.4" height="6.8" id="structurePipsRRLS48"/>
    </g>
    <g id="structurePipsRR" transform="translate(489.6,517.88)">
      <rect x="-36" width="72" y="0" height="6.8" id="structurePipsRR00"/>
      <rect x="-41.3" width="82.6" y="6.8" height="6.8" id="structurePipsRR01"/>
      <rect x="-46.7" width="93.4" y="13.6" height="6.8" id="structurePipsRR02"/>
      <rect x="-51.6" width="103.2" y="20.4" height="6.8" id="structurePipsRR02"/>
    </g><g id="structurePipsFT" transform="translate(449.4,288.48)">
      <rect x="-14" width="28" y="0" height="6.8" id="structurePipsFT00"/>
      <rect x="-14" width="28" y="6.8" height="6.8" id="structurePipsFT01"/>
      <rect x="-14" width="28" y="13.6" height="6.8" id="structurePipsFT02"/>
      <rect x="-14" width="28" y="20.4" height="6.8" id="structurePipsFT03"/>
      <rect x="-14" width="28" y="27.2" height="6.8" id="structurePipsFT04"/>
      <rect x="-14" width="28" y="34" height="6.8" id="structurePipsFT05"/>
      <rect x="-14" width="28" y="40.8" height="6.8" id="structurePipsFT06"/>
      <rect x="-14" width="28" y="47.6" height="6.8" id="structurePipsFT07"/>
      <rect x="-14" width="28" y="54.4" height="6.8" id="structurePipsFT08"/>
    </g><g id="structurePipsTU" transform="translate(530.8,288.48)">
      <rect x="-14" width="28" y="0" height="6.8" id="structurePipsTU00"/>
      <rect x="-14" width="28" y="6.8" height="6.8" id="structurePipsTU01"/>
      <rect x="-14" width="28" y="13.6" height="6.8" id="structurePipsTU02"/>
      <rect x="-14" width="28" y="20.4" height="6.8" id="structurePipsTU03"/>
      <rect x="-14" width="28" y="27.2" height="6.8" id="structurePipsTU04"/>
      <rect x="-14" width="28" y="34" height="6.8" id="structurePipsTU05"/>
      <rect x="-14" width="28" y="40.8" height="6.8" id="structurePipsTU06"/>
      <rect x="-14" width="28" y="47.6" height="6.8" id="structurePipsTU07"/>
      <rect x="-14" width="28" y="54.4" height="6.8" id="structurePipsTU08"/>
    </g>
  </g>
</g></svg>
