<?xml version="1.0" encoding="utf-8"?>
<!DOCTYPE svg PUBLIC "-//W3C//DTD SVG 1.0//EN" "http://www.w3.org/TR/2001/REC-SVG-20010904/DTD/svg10.dtd">
<svg version="1.0" xmlns="http://www.w3.org/2000/svg" xmlns:xlink="http://www.w3.org/1999/xlink" x="0" y="0" width="314" height="478"
     xml:space="preserve">
<g id="armor_diagram_dropship_aerodyne" transform="matrix(1,0,0,-1,-261.73197,727.06296)"><g
             id="g2394"
             transform="translate(548.3167,403.4123)"><path
               d="m 0,0 -30.77,52.362 v 117.223 c 0,8.643 -4.571,15.648 -10.213,15.648 h -0.85 c -1.297,0 -6.487,64.553 -12.765,81.767 -2.91,7.99 -32.006,11.343 -63.111,11.353 -2.564,10e-4 -15.46,0 -15.46,0 -31.105,-0.01 -60.205,-3.363 -63.117,-11.353 -6.276,-17.214 -11.467,-81.767 -12.765,-81.767 h -0.85 c -5.637,0 -10.21,-7.005 -10.21,-15.648 V 52.362 L -250.879,0 l -16.567,-104.718 49.452,4.557 c 5.204,-3.447 12.924,-5.634 21.548,-5.634 9.892,0 18.584,2.88 23.668,7.238 v -29.832 h 9.469 l 9.157,20.985 v 14.354 h 57.426 v -14.354 l 9.155,-20.985 h 9.469 v 29.832 c 5.084,-4.358 13.774,-7.238 23.665,-7.238 8.624,0 16.346,2.187 21.555,5.634 l 49.445,-4.557 z"
               style="fill:#ccced0;fill-opacity:1;fill-rule:nonzero;stroke:none"
               id="path2396"
                /></g><g
             id="g2398"
             transform="translate(544.2098,406.1016)"><path
               d="m 0,0 -30.771,52.362 v 117.223 c 0,8.642 -4.57,15.648 -10.212,15.648 h -0.85 c -1.297,0 -6.487,64.554 -12.765,81.767 -2.91,7.989 -32.006,11.342 -63.111,11.353 -2.565,10e-4 -15.46,0 -15.46,0 -31.105,-0.011 -60.205,-3.364 -63.117,-11.353 -6.276,-17.213 -11.467,-81.767 -12.765,-81.767 h -0.85 c -5.638,0 -10.21,-7.006 -10.21,-15.648 V 52.362 L -250.879,0 l -16.567,-104.718 49.451,4.557 c 5.205,-3.447 12.925,-5.634 21.549,-5.634 9.892,0 18.584,2.88 23.668,7.238 v -29.832 h 9.469 l 9.157,20.985 v 14.354 h 57.426 v -14.354 l 9.155,-20.985 h 9.469 v 29.832 c 5.084,-4.358 13.774,-7.238 23.665,-7.238 8.624,0 16.345,2.187 21.555,5.634 l 49.444,-4.557 z"
               style="fill:#ffffff;fill-opacity:1;fill-rule:nonzero;stroke:none"
               id="path2400"
                /></g><g
             id="g2402"
             transform="translate(554.9207,333.815)"><path
               d="M 0,0 H -45.134 V 38.958 H -6.165 Z"
               style="fill:#ffffff;fill-opacity:1;fill-rule:nonzero;stroke:none"
               id="path2404"
                /></g><g
             id="g2406"
             transform="translate(554.9207,333.815)"><path
               d="M 0,0 H -45.134 V 38.958 H -6.165 Z"
               style="fill:none;stroke:#a7a9ac;stroke-width:0.96600002;stroke-linecap:butt;stroke-linejoin:miter;stroke-miterlimit:4;stroke-dasharray:none;stroke-opacity:1"
               id="path2408"
                /></g><g
             id="g2410"
             transform="translate(281.8829,332.7104)"><path
               d="M 0,0 H 45.131 V 40.063 H 6.163 Z"
               style="fill:#ffffff;fill-opacity:1;fill-rule:nonzero;stroke:none"
               id="path2412"
                /></g><g
             id="g2414"
             transform="translate(281.8829,332.7104)"><path
               d="M 0,0 H 45.131 V 40.063 H 6.163 Z"
               style="fill:none;stroke:#a7a9ac;stroke-width:0.96600002;stroke-linecap:butt;stroke-linejoin:miter;stroke-miterlimit:4;stroke-dasharray:none;stroke-opacity:1"
               id="path2416"
                /></g><g
             id="g2418"
             transform="translate(384.7659,589.3804)"><path
               d="M 0,0 C 2.109,16.91 16.526,29.998 34.008,29.998 51.492,29.998 65.904,16.91 68.015,0 h 8.634 C 74.498,21.656 56.228,38.569 34.008,38.569 11.787,38.569 -6.482,21.656 -8.634,0 Z"
               style="fill:#a7a9ac;fill-opacity:1;fill-rule:nonzero;stroke:none"
               id="path2420"
                /></g><g
             id="g2422"
             transform="translate(384.7659,589.3804)"><path
               d="M 0,0 C 2.109,16.91 16.526,29.998 34.008,29.998 51.492,29.998 65.904,16.91 68.015,0 h 8.634 C 74.498,21.656 56.228,38.569 34.008,38.569 11.787,38.569 -6.482,21.656 -8.634,0 Z"
               style="fill:none;stroke:#a7a9ac;stroke-width:0.96600002;stroke-linecap:butt;stroke-linejoin:miter;stroke-miterlimit:4;stroke-dasharray:none;stroke-opacity:1"
               id="path2424"
                /></g><g
             id="g2426"
             transform="translate(418.7737,684.4385)"><path
               d="m 0,0 c -33.854,0.577 -67.689,-2.64 -70.845,-11.288 -3.123,-8.577 -5.982,-28.907 -8.224,-47.149 h 0.957 l 31.166,38.958 h 93.501 l 31.166,-38.958 h 1.345 c -2.242,18.242 -5.1,38.572 -8.228,47.149 C 67.688,-2.64 33.852,0.577 0,0 Z"
               style="fill:none;stroke:#a7a9ac;stroke-width:0.96600002;stroke-linecap:butt;stroke-linejoin:miter;stroke-miterlimit:4;stroke-dasharray:none;stroke-opacity:1"
               id="path2428"
                /></g><g
             id="g2430"
             transform="translate(434.3584,580.226)"><path
               d="m 0,0 c -2.689,0 -4.872,2.18 -4.872,4.868 0,2.69 2.183,4.871 4.872,4.871 2.688,0 4.867,-2.181 4.867,-4.871 C 4.867,2.18 2.688,0 0,0 m 0,14.608 c -5.381,0 -9.741,-4.361 -9.741,-9.74 0,-5.377 4.36,-9.739 9.741,-9.739 5.378,0 9.738,4.362 9.738,9.739 0,5.379 -4.36,9.74 -9.738,9.74"
               style="fill:#ffffff;fill-opacity:1;fill-rule:nonzero;stroke:none"
               id="path2432"
                /></g><g
             id="g2434"
             transform="translate(434.3584,580.226)"><path
               d="m 0,0 c -2.689,0 -4.872,2.18 -4.872,4.868 0,2.69 2.183,4.871 4.872,4.871 2.688,0 4.867,-2.181 4.867,-4.871 C 4.867,2.18 2.688,0 0,0 Z m 0,14.608 c -5.381,0 -9.741,-4.361 -9.741,-9.74 0,-5.377 4.36,-9.739 9.741,-9.739 5.378,0 9.738,4.362 9.738,9.739 0,5.379 -4.36,9.74 -9.738,9.74 z"
               style="fill:none;stroke:#a7a9ac;stroke-width:0.96600002;stroke-linecap:butt;stroke-linejoin:miter;stroke-miterlimit:4;stroke-dasharray:none;stroke-opacity:1"
               id="path2436"
                /></g><g
             id="g2438"
             transform="translate(418.7737,439.0019)"><path
               d="m 0,0 c -17.212,0 -31.168,13.954 -31.168,31.167 0,17.212 13.956,31.166 31.168,31.166 17.211,0 31.168,-13.954 31.168,-31.166 C 31.168,13.954 17.211,0 0,0 m 0,174.143 c 15.491,0 28.051,-12.558 28.051,-28.05 0,-15.491 -12.56,-28.049 -28.051,-28.049 -15.491,0 -28.051,12.558 -28.051,28.049 0,15.492 12.56,28.05 28.051,28.05 M 37.009,18.999 c 1.258,3.831 1.947,7.917 1.947,12.168 0,8.77 -2.899,16.864 -7.788,23.375 v 93.11 H 31.126 C 30.315,164.141 16.687,177.261 0,177.261 c -16.69,0 -30.316,-13.12 -31.128,-29.609 h -0.04 v -93.11 c -4.892,-6.511 -7.791,-14.605 -7.791,-23.375 0,-4.251 0.691,-8.336 1.949,-12.167 v -59.175 h 7.789 v -85.708 h 58.439 v 85.708 h 7.791 z"
               style="fill:#ffffff;fill-opacity:1;fill-rule:nonzero;stroke:none"
               id="path2440"
                /></g><g
             id="g2442"
             transform="translate(418.7737,439.0019)"><path
               d="m 0,0 c -17.212,0 -31.168,13.954 -31.168,31.167 0,17.212 13.956,31.166 31.168,31.166 17.211,0 31.168,-13.954 31.168,-31.166 C 31.168,13.954 17.211,0 0,0 Z m 0,174.143 c 15.491,0 28.051,-12.558 28.051,-28.05 0,-15.491 -12.56,-28.049 -28.051,-28.049 -15.491,0 -28.051,12.558 -28.051,28.049 0,15.492 12.56,28.05 28.051,28.05 z M 37.009,18.999 c 1.258,3.831 1.947,7.917 1.947,12.168 0,8.77 -2.899,16.864 -7.788,23.375 v 93.11 H 31.126 C 30.315,164.141 16.687,177.261 0,177.261 c -16.69,0 -30.316,-13.12 -31.128,-29.609 h -0.04 v -93.11 c -4.892,-6.511 -7.791,-14.605 -7.791,-23.375 0,-4.251 0.691,-8.336 1.949,-12.167 v -59.175 h 7.789 v -85.708 h 58.439 v 85.708 h 7.791 z"
               style="fill:none;stroke:#a7a9ac;stroke-width:0.96600002;stroke-linecap:butt;stroke-linejoin:miter;stroke-miterlimit:4;stroke-dasharray:none;stroke-opacity:1"
               id="path2444"
                /></g><g
             id="g2446"
             transform="translate(372.0506,375.0858)"><path
               d="m 0,0 9.593,23.741 h 7.791 L 7.643,-0.364 V -97.396 H 0 l -0.146,-0.365 V -97.396 -0.364 0 Z"
               style="fill:#ffffff;fill-opacity:1;fill-rule:nonzero;stroke:none"
               id="path2448"
                /></g><g
             id="g2450"
             transform="translate(372.0506,375.0858)"><path
               d="m 0,0 9.593,23.741 h 7.791 L 7.643,-0.364 V -97.396 H 0 l -0.146,-0.365 V -97.396 -0.364 0 Z"
               style="fill:none;stroke:#a7a9ac;stroke-width:0.96600002;stroke-linecap:butt;stroke-linejoin:miter;stroke-miterlimit:4;stroke-dasharray:none;stroke-opacity:1"
               id="path2452"
                /></g><g
             id="g2454"
             transform="translate(465.2552,375.0858)"><path
               d="m 0,0 -9.593,23.741 h -7.79 l 9.74,-24.105 V -97.396 H 0 l 0.148,-0.365 v 0.365 97.032 l 0,0.364 z"
               style="fill:#ffffff;fill-opacity:1;fill-rule:nonzero;stroke:none"
               id="path2456"
                /></g><g
             id="g2458"
             transform="translate(465.2552,375.0858)"><path
               d="m 0,0 -9.593,23.741 h -7.79 l 9.74,-24.105 V -97.396 H 0 l 0.148,-0.365 v 0.365 97.032 l 0,0.364 z"
               style="fill:none;stroke:#a7a9ac;stroke-width:0.96600002;stroke-linecap:butt;stroke-linejoin:miter;stroke-miterlimit:4;stroke-dasharray:none;stroke-opacity:1"
               id="path2460"
                /></g><path
             d="M 316.068,327.184 H 296.19 v 4.863 h 19.878 z"
             style="fill:#ffffff;fill-opacity:1;fill-rule:nonzero;stroke:none"
             id="path2462"
              /><g
             id="g2464"
             transform="translate(316.0677,327.1843)"><path
               d="M 0,0 H -19.878 V 4.863 H 0 Z"
               style="fill:none;stroke:#a7a9ac;stroke-width:0.96600002;stroke-linecap:butt;stroke-linejoin:miter;stroke-miterlimit:4;stroke-dasharray:none;stroke-opacity:1"
               id="path2466"
                /></g><path
             d="m 397.685,315.261 h -6.625 v 22.085 h 6.625 z"
             style="fill:#ffffff;fill-opacity:1;fill-rule:nonzero;stroke:none"
             id="path2468"
              /><g
             id="g2470"
             transform="translate(397.685,315.2611)"><path
               d="M 0,0 H -6.625 V 22.085 H 0 Z"
               style="fill:none;stroke:#a7a9ac;stroke-width:0.96600002;stroke-linecap:butt;stroke-linejoin:miter;stroke-miterlimit:4;stroke-dasharray:none;stroke-opacity:1"
               id="path2472"
                /></g><path
             d="m 405.784,315.261 h -6.626 v 22.085 h 6.626 z"
             style="fill:#ffffff;fill-opacity:1;fill-rule:nonzero;stroke:none"
             id="path2474"
              /><g
             id="g2476"
             transform="translate(405.7842,315.2611)"><path
               d="M 0,0 H -6.626 V 22.085 H 0 Z"
               style="fill:none;stroke:#a7a9ac;stroke-width:0.96600002;stroke-linecap:butt;stroke-linejoin:miter;stroke-miterlimit:4;stroke-dasharray:none;stroke-opacity:1"
               id="path2478"
                /></g><path
             d="m 413.88,315.261 h -6.624 v 22.085 h 6.624 z"
             style="fill:#ffffff;fill-opacity:1;fill-rule:nonzero;stroke:none"
             id="path2480"
              /><g
             id="g2482"
             transform="translate(413.8804,315.2611)"><path
               d="M 0,0 H -6.624 V 22.085 H 0 Z"
               style="fill:none;stroke:#a7a9ac;stroke-width:0.96600002;stroke-linecap:butt;stroke-linejoin:miter;stroke-miterlimit:4;stroke-dasharray:none;stroke-opacity:1"
               id="path2484"
                /></g><path
             d="m 421.982,315.261 h -6.628 v 22.085 h 6.628 z"
             style="fill:#ffffff;fill-opacity:1;fill-rule:nonzero;stroke:none"
             id="path2486"
              /><g
             id="g2488"
             transform="translate(421.9815,315.2611)"><path
               d="M 0,0 H -6.628 V 22.085 H 0 Z"
               style="fill:none;stroke:#a7a9ac;stroke-width:0.96600002;stroke-linecap:butt;stroke-linejoin:miter;stroke-miterlimit:4;stroke-dasharray:none;stroke-opacity:1"
               id="path2490"
                /></g><path
             d="m 430.078,315.261 h -6.625 v 22.085 h 6.625 z"
             style="fill:#ffffff;fill-opacity:1;fill-rule:nonzero;stroke:none"
             id="path2492"
              /><g
             id="g2494"
             transform="translate(430.0778,315.2611)"><path
               d="M 0,0 H -6.625 V 22.085 H 0 Z"
               style="fill:none;stroke:#a7a9ac;stroke-width:0.96600002;stroke-linecap:butt;stroke-linejoin:miter;stroke-miterlimit:4;stroke-dasharray:none;stroke-opacity:1"
               id="path2496"
                /></g><path
             d="m 438.179,315.261 h -6.625 v 22.085 h 6.625 z"
             style="fill:#ffffff;fill-opacity:1;fill-rule:nonzero;stroke:none"
             id="path2498"
              /><g
             id="g2500"
             transform="translate(438.1789,315.2611)"><path
               d="M 0,0 H -6.625 V 22.085 H 0 Z"
               style="fill:none;stroke:#a7a9ac;stroke-width:0.96600002;stroke-linecap:butt;stroke-linejoin:miter;stroke-miterlimit:4;stroke-dasharray:none;stroke-opacity:1"
               id="path2502"
                /></g><path
             d="m 446.276,315.261 h -6.624 v 22.085 h 6.624 z"
             style="fill:#ffffff;fill-opacity:1;fill-rule:nonzero;stroke:none"
             id="path2504"
              /><g
             id="g2506"
             transform="translate(446.2761,315.2611)"><path
               d="M 0,0 H -6.624 V 22.085 H 0 Z"
               style="fill:none;stroke:#a7a9ac;stroke-width:0.96600002;stroke-linecap:butt;stroke-linejoin:miter;stroke-miterlimit:4;stroke-dasharray:none;stroke-opacity:1"
               id="path2508"
                /></g><g
             id="g2510"
             transform="translate(345.9296,632.3785)"><path
               d="M 0,0 C -3.307,-22.98 -5.765,-50.099 -6.584,-50.099 H -7.39 c -5.358,0 -9.702,-6.656 -9.702,-14.866 v -111.362 l -29.227,-49.742 -5.307,-33.536"
               style="fill:none;stroke:#a7a9ac;stroke-width:0.96600002;stroke-linecap:round;stroke-linejoin:round;stroke-miterlimit:4;stroke-dasharray:none;stroke-opacity:1"
               id="path2512"
                /></g><g
             id="g2514"
             transform="translate(543.2411,372.773)"><path
               d="M 0,0 -5.304,33.536 -34.535,83.279 V 194.64 c 0,8.21 -4.343,14.867 -9.701,14.867 h -0.806 c -0.821,0 -3.271,27.051 -6.57,50.012"
               style="fill:none;stroke:#a7a9ac;stroke-width:0.96600002;stroke-linecap:round;stroke-linejoin:round;stroke-miterlimit:4;stroke-dasharray:none;stroke-opacity:1"
               id="path2516"
                /></g><path
             d="m 375.644,467.072 h -48.699 v 31.167 h 48.699 z"
             style="fill:#ffffff;fill-opacity:1;fill-rule:nonzero;stroke:none"
             id="path2518"
              /><g
             id="g2520"
             transform="translate(375.644,467.0721)"><path
               d="M 0,0 H -48.699 V 31.167 H 0 Z"
               style="fill:none;stroke:#a7a9ac;stroke-width:0.96600002;stroke-linecap:butt;stroke-linejoin:miter;stroke-miterlimit:4;stroke-dasharray:none;stroke-opacity:1"
               id="path2522"
                /></g><path
             d="M 375.739,539.615 H 327.042 V 508.45 h 48.697 z"
             style="fill:#ffffff;fill-opacity:1;fill-rule:nonzero;stroke:none"
             id="path2524"
              /><g
             id="g2526"
             transform="translate(375.7386,539.6147)"><path
               d="M 0,0 H -48.697 V -31.165 H 0 Z"
               style="fill:none;stroke:#a7a9ac;stroke-width:0.96600002;stroke-linecap:butt;stroke-linejoin:miter;stroke-miterlimit:4;stroke-dasharray:none;stroke-opacity:1"
               id="path2528"
                /></g><path
             d="M 510.265,467.072 H 461.57 v 31.167 h 48.695 z"
             style="fill:#ffffff;fill-opacity:1;fill-rule:nonzero;stroke:none"
             id="path2530"
              /><g
             id="g2532"
             transform="translate(510.2646,467.0721)"><path
               d="M 0,0 H -48.695 V 31.167 H 0 Z"
               style="fill:none;stroke:#a7a9ac;stroke-width:0.96600002;stroke-linecap:butt;stroke-linejoin:miter;stroke-miterlimit:4;stroke-dasharray:none;stroke-opacity:1"
               id="path2534"
                /></g><path
             d="M 510.357,539.615 H 461.662 V 508.45 h 48.695 z"
             style="fill:#ffffff;fill-opacity:1;fill-rule:nonzero;stroke:none"
             id="path2536"
              /><g
             id="g2538"
             transform="translate(510.3574,539.6147)"><path
               d="M 0,0 H -48.695 V -31.165 H 0 Z"
               style="fill:none;stroke:#a7a9ac;stroke-width:0.96600002;stroke-linecap:butt;stroke-linejoin:miter;stroke-miterlimit:4;stroke-dasharray:none;stroke-opacity:1"
               id="path2540"
                /></g><g
             id="g2542"
             transform="translate(372.2978,601.3483)"><path
               d="M 0,0 -33.041,-18.84"
               style="fill:#ffffff;fill-opacity:1;fill-rule:nonzero;stroke:#a7a9ac;stroke-width:0.96600002;stroke-linecap:butt;stroke-linejoin:miter;stroke-miterlimit:4;stroke-dasharray:none;stroke-opacity:1"
               id="path2544"
                /></g><g
             id="g2546"
             transform="translate(464.9552,600.8148)"><path
               d="M 0,0 33.325,-18.307"
               style="fill:#ffffff;fill-opacity:1;fill-rule:nonzero;stroke:#a7a9ac;stroke-width:0.96600002;stroke-linecap:butt;stroke-linejoin:miter;stroke-miterlimit:4;stroke-dasharray:none;stroke-opacity:1"
               id="path2548"
                /></g><g
             id="g2550"
             transform="translate(335.3773,428.9368)"><path
               d="m 0,0 c 0,0.024 0.003,0.046 0.003,0.071 0.039,15.666 6.565,28.341 14.607,28.341 8.041,0 9.27,-12.605 9.313,-28.271 0,-0.024 0.003,-0.046 0.003,-0.071 0,-7.707 -1.248,-14.024 -9.316,-14.024 C 6.54,-13.954 0,-7.706 0,0 m -8.374,-19.478 v -0.002 -103.349 c 5.204,-3.365 12.821,-5.493 21.327,-5.493 9.89,0 18.584,2.877 23.669,7.238 L 37.01,-19.48 v 0.002 C 37.01,9.89 26.851,33.699 14.317,33.699 1.783,33.699 -8.374,9.89 -8.374,-19.478"
               style="fill:#ffffff;fill-opacity:1;fill-rule:nonzero;stroke:none"
               id="path2552"
                /></g><g
             id="g2554"
             transform="translate(335.3773,428.9368)"><path
               d="m 0,0 c 0,0.024 0.003,0.046 0.003,0.071 0.039,15.666 6.565,28.341 14.607,28.341 8.041,0 9.27,-12.605 9.313,-28.271 0,-0.024 0.003,-0.046 0.003,-0.071 0,-7.707 -1.248,-14.024 -9.316,-14.024 C 6.54,-13.954 0,-7.706 0,0 Z m -8.374,-19.478 v -0.002 -103.349 c 5.204,-3.365 12.821,-5.493 21.327,-5.493 9.89,0 18.584,2.877 23.669,7.238 L 37.01,-19.48 v 0.002 C 37.01,9.89 26.851,33.699 14.317,33.699 1.783,33.699 -8.374,9.89 -8.374,-19.478 Z"
               style="fill:none;stroke:#a7a9ac;stroke-width:0.96600002;stroke-linecap:butt;stroke-linejoin:miter;stroke-miterlimit:4;stroke-dasharray:none;stroke-opacity:1"
               id="path2556"
                /></g><g
             id="g2558"
             transform="translate(372.078,328.2657)"><path
               d="m 0,0 c -5.097,-4.32 -13.744,-7.167 -23.583,-7.167 -8.504,0 -16.123,2.128 -21.329,5.492"
               style="fill:none;stroke:#a7a9ac;stroke-width:0.96600002;stroke-linecap:butt;stroke-linejoin:miter;stroke-miterlimit:4;stroke-dasharray:none;stroke-opacity:1"
               id="path2560"
                /></g><g
             id="g2562"
             transform="translate(372.1865,415.754)"><path
               d="m 0,0 c -5.098,-4.319 -13.747,-7.166 -23.582,-7.166 -8.502,0 -16.124,2.128 -21.329,5.493"
               style="fill:none;stroke:#a7a9ac;stroke-width:0.96600002;stroke-linecap:butt;stroke-linejoin:miter;stroke-miterlimit:4;stroke-dasharray:none;stroke-opacity:1"
               id="path2564"
                /></g><g
             id="g2566"
             transform="translate(339.2569,302.0089)"><path
               d="M 0,0 V 19.88"
               style="fill:none;stroke:#a7a9ac;stroke-width:0.96600002;stroke-linecap:butt;stroke-linejoin:miter;stroke-miterlimit:4;stroke-dasharray:none;stroke-opacity:1"
               id="path2568"
                /></g><g
             id="g2570"
             transform="translate(358.0298,302.0089)"><path
               d="M 0,0 V 19.878"
               style="fill:none;stroke:#a7a9ac;stroke-width:0.96600002;stroke-linecap:butt;stroke-linejoin:miter;stroke-miterlimit:4;stroke-dasharray:none;stroke-opacity:1"
               id="path2572"
                /></g><g
             id="g2574"
             transform="translate(330.425,304.216)"><path
               d="M 0,0 V 20.983"
               style="fill:none;stroke:#a7a9ac;stroke-width:0.96600002;stroke-linecap:butt;stroke-linejoin:miter;stroke-miterlimit:4;stroke-dasharray:none;stroke-opacity:1"
               id="path2576"
                /></g><g
             id="g2578"
             transform="translate(367.971,305.3225)"><path
               d="M 0,0 V 19.876"
               style="fill:none;stroke:#a7a9ac;stroke-width:0.96600002;stroke-linecap:butt;stroke-linejoin:miter;stroke-miterlimit:4;stroke-dasharray:none;stroke-opacity:1"
               id="path2580"
                /></g><g
             id="g2582"
             transform="translate(487.7164,414.9829)"><path
               d="m 0,0 c -8.067,0 -9.314,6.317 -9.314,14.024 0,0.024 0.002,0.046 0.002,0.071 0.04,15.666 1.27,28.272 9.312,28.272 8.042,0 14.57,-12.677 14.608,-28.341 0,-0.025 0.002,-0.047 0.002,-0.073 C 14.61,6.247 8.069,0 0,0 M 0.295,47.652 C -12.24,47.652 -22.4,23.843 -22.4,-5.523 v -0.003 l 0.39,-101.605 c 5.083,-4.359 13.776,-7.237 23.668,-7.237 8.503,0 16.123,2.127 21.33,5.494 v 103.348 0.003 c 0,29.366 -10.162,53.175 -22.693,53.175"
               style="fill:#ffffff;fill-opacity:1;fill-rule:nonzero;stroke:none"
               id="path2584"
                /></g><g
             id="g2586"
             transform="translate(487.7164,414.9829)"><path
               d="m 0,0 c -8.067,0 -9.314,6.317 -9.314,14.024 0,0.024 0.002,0.046 0.002,0.071 0.04,15.666 1.27,28.272 9.312,28.272 8.042,0 14.57,-12.677 14.608,-28.341 0,-0.025 0.002,-0.047 0.002,-0.073 C 14.61,6.247 8.069,0 0,0 Z M 0.295,47.652 C -12.24,47.652 -22.4,23.843 -22.4,-5.523 v -0.003 l 0.39,-101.605 c 5.083,-4.359 13.776,-7.237 23.668,-7.237 8.503,0 16.123,2.127 21.33,5.494 v 103.348 0.003 c 0,29.366 -10.162,53.175 -22.693,53.175 z"
               style="fill:none;stroke:#a7a9ac;stroke-width:0.96600002;stroke-linecap:butt;stroke-linejoin:miter;stroke-miterlimit:4;stroke-dasharray:none;stroke-opacity:1"
               id="path2588"
                /></g><g
             id="g2590"
             transform="translate(465.6287,328.2657)"><path
               d="m 0,0 c 5.094,-4.32 13.742,-7.167 23.578,-7.167 8.508,0 16.126,2.128 21.329,5.492"
               style="fill:none;stroke:#a7a9ac;stroke-width:0.96600002;stroke-linecap:butt;stroke-linejoin:miter;stroke-miterlimit:4;stroke-dasharray:none;stroke-opacity:1"
               id="path2592"
                /></g><g
             id="g2594"
             transform="translate(465.5175,415.754)"><path
               d="m 0,0 c 5.099,-4.319 13.745,-7.166 23.583,-7.166 8.501,0 16.125,2.128 21.331,5.493"
               style="fill:none;stroke:#a7a9ac;stroke-width:0.96600002;stroke-linecap:butt;stroke-linejoin:miter;stroke-miterlimit:4;stroke-dasharray:none;stroke-opacity:1"
               id="path2596"
                /></g><g
             id="g2598"
             transform="translate(498.28,302.0089)"><path
               d="M 0,0 V 19.88"
               style="fill:none;stroke:#a7a9ac;stroke-width:0.96600002;stroke-linecap:butt;stroke-linejoin:miter;stroke-miterlimit:4;stroke-dasharray:none;stroke-opacity:1"
               id="path2600"
                /></g><g
             id="g2602"
             transform="translate(479.5071,302.0089)"><path
               d="M 0,0 V 19.878"
               style="fill:none;stroke:#a7a9ac;stroke-width:0.96600002;stroke-linecap:butt;stroke-linejoin:miter;stroke-miterlimit:4;stroke-dasharray:none;stroke-opacity:1"
               id="path2604"
                /></g><g
             id="g2606"
             transform="translate(507.1165,304.216)"><path
               d="M 0,0 V 20.983"
               style="fill:none;stroke:#a7a9ac;stroke-width:0.96600002;stroke-linecap:butt;stroke-linejoin:miter;stroke-miterlimit:4;stroke-dasharray:none;stroke-opacity:1"
               id="path2608"
                /></g><g
             id="g2610"
             transform="translate(469.5678,305.3225)"><path
               d="M 0,0 V 19.876"
               style="fill:none;stroke:#a7a9ac;stroke-width:0.96600002;stroke-linecap:butt;stroke-linejoin:miter;stroke-miterlimit:4;stroke-dasharray:none;stroke-opacity:1"
               id="path2612"
                /></g><g
             id="g2614"
             transform="translate(544.2098,406.1016)"><path
               d="m 0,0 -30.771,52.362 v 117.223 c 0,8.642 -4.57,15.648 -10.212,15.648 h -0.85 c -1.297,0 -6.487,64.554 -12.765,81.767 -2.91,7.989 -32.006,11.342 -63.111,11.353 -2.565,10e-4 -15.46,0 -15.46,0 -31.105,-0.011 -60.205,-3.364 -63.117,-11.353 -6.276,-17.213 -11.467,-81.767 -12.765,-81.767 h -0.85 c -5.638,0 -10.21,-7.006 -10.21,-15.648 V 52.362 L -250.879,0 l -16.567,-104.718 49.451,4.557 c 5.205,-3.447 12.925,-5.634 21.549,-5.634 9.892,0 18.584,2.88 23.668,7.238 v -29.832 h 9.469 l 9.157,20.985 v 14.354 h 57.426 v -14.354 l 9.155,-20.985 h 9.469 v 29.832 c 5.084,-4.358 13.774,-7.238 23.665,-7.238 8.624,0 16.345,2.187 21.555,5.634 l 49.444,-4.557 z"
               style="fill:none;stroke:#000000;stroke-width:1.93200004;stroke-linecap:butt;stroke-linejoin:miter;stroke-miterlimit:4;stroke-dasharray:none;stroke-opacity:1"
               id="path2616"
                /></g><g
             id="g2618"
             transform="translate(418.7737,636.6916)"><path
               d="M 0,0 C 21.039,0 39.019,-14.871 46.287,-35.877 44.54,1.425 24.493,30.849 0,30.849 -24.495,30.849 -44.54,1.424 -46.289,-35.879 -39.019,-14.873 -21.043,0 0,0"
               style="fill:#ffffff;fill-opacity:1;fill-rule:nonzero;stroke:none"
               id="path2620"
                /></g><g
             id="g2622"
             transform="translate(418.7737,636.6916)"><path
               d="M 0,0 C 21.039,0 39.019,-14.871 46.287,-35.877 44.54,1.425 24.493,30.849 0,30.849 -24.495,30.849 -44.54,1.424 -46.289,-35.879 -39.019,-14.873 -21.043,0 0,0 Z"
               style="fill:none;stroke:#a7a9ac;stroke-width:0.96600002;stroke-linecap:butt;stroke-linejoin:miter;stroke-miterlimit:4;stroke-dasharray:none;stroke-opacity:1"
               id="path2624"
                /></g><g
             id="g2626"
             transform="translate(418.7737,636.6916)"><path
               d="M 0,0 -0.002,23.12 -3.234,23.119 -3.391,30.85"
               style="fill:#ffffff;fill-opacity:1;fill-rule:nonzero;stroke:#a7a9ac;stroke-width:0.96600002;stroke-linecap:butt;stroke-linejoin:miter;stroke-miterlimit:4;stroke-dasharray:none;stroke-opacity:1"
               id="path2628"
                /></g><g
             id="g2630"
             transform="translate(422.0081,667.5422)"><path
               d="M 0,0 0.156,-7.73 H -3.236"
               style="fill:#ffffff;fill-opacity:1;fill-rule:nonzero;stroke:#a7a9ac;stroke-width:0.96600002;stroke-linecap:butt;stroke-linejoin:miter;stroke-miterlimit:4;stroke-dasharray:none;stroke-opacity:1"
               id="path2632"
                /></g><g
             id="g2634"
             transform="translate(439.4643,643.6251)"><path
               d="m 0,0 c -6.157,2.562 -13.236,4.038 -20.785,4.038 -7.476,0 -14.488,-1.447 -20.605,-3.961 l -0.835,11.692 V -0.258 -3.692 -7.999 c 5.867,3.524 13.324,5.634 21.44,5.634 8.203,0 15.731,-2.154 21.628,-5.745 v 4.418 3.35 12.111 z"
               style="fill:#a7a9ac;fill-opacity:1;fill-rule:nonzero;stroke:none"
               id="path2636"
                /></g><g
             id="g2638"
             transform="translate(439.4643,643.6251)"><path
               d="m 0,0 c -6.157,2.562 -13.236,4.038 -20.785,4.038 -7.476,0 -14.488,-1.447 -20.605,-3.961 l -0.835,11.692 V -0.258 -3.692 -7.999 c 5.867,3.524 13.324,5.634 21.44,5.634 8.203,0 15.731,-2.154 21.628,-5.745 v 4.418 3.35 12.111 z"
               style="fill:none;stroke:#a7a9ac;stroke-width:0.96600002;stroke-linecap:butt;stroke-linejoin:miter;stroke-miterlimit:4;stroke-dasharray:none;stroke-opacity:1"
               id="path2640"
                /></g><path
             d="m 541.35,328.512 h -19.878 v 5.52 h 19.878 z"
             style="fill:#ffffff;fill-opacity:1;fill-rule:nonzero;stroke:none"
             id="path2642"
              /><g
             id="g2644"
             transform="translate(541.3495,328.5124)"><path
               d="M 0,0 H -19.878 V 5.52 H 0 Z"
               style="fill:none;stroke:#a7a9ac;stroke-width:0.96600002;stroke-linecap:butt;stroke-linejoin:miter;stroke-miterlimit:4;stroke-dasharray:none;stroke-opacity:1"
               id="path2646"
                /></g><g
         id="g2720"
         transform="translate(373.2184,476.4144)"><path
           d="M 0,0 V -164.281"
           style="fill:none;stroke:#000000;stroke-width:1.93200004;stroke-linecap:round;stroke-linejoin:miter;stroke-miterlimit:4;stroke-dasharray:none;stroke-opacity:1"
           id="path2722"
            /></g><g
         id="g2724"
         transform="translate(464.942,476.4144)"><path
           d="M 0,0 V -164.281"
           style="fill:none;stroke:#000000;stroke-width:1.93200004;stroke-linecap:round;stroke-linejoin:miter;stroke-miterlimit:4;stroke-dasharray:none;stroke-opacity:1"
           id="path2726"
            /></g><g
         id="g2728"
         transform="translate(464.942,476.4144)"><path
           d="M 0,0 V -164.281"
           style="fill:none;stroke:#000000;stroke-width:1.93200004;stroke-linecap:round;stroke-linejoin:miter;stroke-miterlimit:4;stroke-dasharray:none;stroke-opacity:1"
           id="path2730"
            /></g><g
         id="g2732"
         transform="translate(358.7147,536.1809)"><path
           d="M 0,0 -27.935,48.385"
           style="fill:none;stroke:#000000;stroke-width:1.93200004;stroke-linecap:round;stroke-linejoin:miter;stroke-miterlimit:4;stroke-dasharray:none;stroke-opacity:1"
           id="path2734"
            /></g><g
         id="g2736"
         transform="translate(477.263,536.1809)"><path
           d="M 0,0 27.935,48.385"
           style="fill:none;stroke:#000000;stroke-width:1.93200004;stroke-linecap:round;stroke-linejoin:miter;stroke-miterlimit:4;stroke-dasharray:none;stroke-opacity:1"
           id="path2738"
            /></g><g
             id="g13932"
             transform="translate(475.4887,493)"><path
               d="m 0,0 c 0,-6.402 -4.284,-11.591 -9.568,-11.591 h -95.05 c -5.285,0 -9.569,5.189 -9.569,11.591 v 34.317 c 0,6.401 4.284,11.591 9.569,11.591 h 95.05 C -4.284,45.908 0,40.718 0,34.317 Z"
               style="fill:#ccced0;fill-opacity:1;fill-rule:nonzero;stroke:none"
               id="path13934"
                /></g><g
             id="g13936"
             transform="translate(475.4887,493)"><path
               d="m 0,0 c 0,-6.402 -4.284,-11.591 -9.568,-11.591 h -95.05 c -5.285,0 -9.569,5.189 -9.569,11.591 v 34.317 c 0,6.401 4.284,11.591 9.569,11.591 h 95.05 C -4.284,45.908 0,40.718 0,34.317 Z"
               style="fill:none;stroke:#000000;stroke-width:1.93200004;stroke-linecap:butt;stroke-linejoin:miter;stroke-miterlimit:4;stroke-dasharray:none;stroke-opacity:1"
               id="path13938"
                /></g><text
         transform="matrix(1,0,0,-1,402.8881,530)"
         style="font-variant:normal;font-weight:bold;font-stretch:normal;font-size:7.72730017px;font-family:Eurostile;writing-mode:lr-tb;fill:#000000;fill-opacity:1;fill-rule:nonzero;stroke:none" text-anchor="middle" textLength="66"
         lengthAdjust="spacingAndGlyphs"><tspan
           x="0"
           y="0">Structural Integrity:</tspan><tspan
           x="70"
           y="0"
           id="textSI"></tspan></text>
<text
         transform="matrix(1,0,0,-1,418.42, 721.4)"
         style="font-variant:normal;font-weight:bold;font-stretch:normal;font-size:7.72730017px;;writing-mode:lr-tb;fill:#000000;fill-opacity:1;fill-rule:nonzero;stroke:none" text-anchor="middle"
         id="text3140"><tspan
           x="0"
           y="0"
           id="tspan3126">Nose</tspan><tspan
           x="0"
           y="9.2727604"
           id="tspan3128">Damage Threshold</tspan><tspan
           x="0"
           y="18.545521"
           id="tspan3128">(Total Armor)</tspan><tspan
           x="0"
           y="27.8183"
           id="textArmor_NOS"> ( )</tspan></text><text
         transform="matrix(1,0,0,-1,546.8,488.49)"
         style="font-variant:normal;font-weight:bold;font-stretch:normal;font-size:7.72730017px;;writing-mode:lr-tb;fill:#000000;fill-opacity:1;fill-rule:nonzero;stroke:none" text-anchor="middle"
         id="text3140"><tspan
           x="0"
           y="0"
           id="tspan3132">Right Wing</tspan><tspan
           x="0"
           y="9.2727604"
           id="tspan3134">Damage</tspan><tspan
           x="0"
           y="18.545521"
           id="tspan3134">Threshold</tspan><tspan
           x="0"
           y="27.8183"
           id="tspan3172">(Total Armor)</tspan><tspan
           x="0"
           y="37.091"
           id="textArmor_RS"> ( )</tspan></text><text
         transform="matrix(1,0,0,-1,418.42,277.9)"
         style="font-variant:normal;font-weight:bold;font-stretch:normal;font-size:7.72730017px;;writing-mode:lr-tb;fill:#000000;fill-opacity:1;fill-rule:nonzero;stroke:none" text-anchor="middle"
         id="text3158"><tspan
           x="0"
           y="0"
           id="tspan3126">Aft</tspan><tspan
           x="0"
           y="9.2727604"
           id="tspan3128">Damage Threshold</tspan><tspan
           x="0"
           y="18.545521"
           id="tspan3128">(Total Armor)</tspan><tspan
           x="0"
           y="27.8183"
           id="textArmor_AFT"> ( )</tspan></text><text
         transform="matrix(1,0,0,-1,290,488.49)"
         style="font-variant:normal;font-weight:bold;font-stretch:normal;font-size:7.72730017px;;fill:#000000;fill-opacity:1;fill-rule:nonzero;stroke:none" text-anchor="middle"
         id="text3176"><tspan
           x="0"
           y="0"
           id="tspan3132">Left Wing</tspan><tspan
           x="0"
           y="9.2727604"
           id="tspan3134">Damage</tspan><tspan
           x="0"
           y="18.545521"
           id="tspan3134">Threshold</tspan><tspan
           x="0"
           y="27.8183"
           id="tspan3172">(Total Armor)</tspan><tspan
           x="0"
           y="37.091"
           id="textArmor_LS"> ( )</tspan></text></g>
   <g fill="none" id="armorPips">
    <g id="armorPipsNOS" transform="translate(156.7,47.5)">
      <rect x="-53.8" width="107.6" y="0" height="6.8" id="armorNOSRow00"/>
      <rect x="-69.3" width="138.6" y="6.8" height="6.8" id="armorNOSRow01"/>
      <rect x="-71.6" width="143.2" y="15.6" height="6.8" id="armorNOSRow02"/>
      <rect x="-73" width="146" y="20.4" height="6.8" id="armorNOSRow03"/>
      <rect x="-73.5" width="147" y="27.2" height="6.8" id="armorNOSRow04"/>
      <rect x="-74.3" width="148.6" y="34.0" height="6.8" id="armorNOSRow05"/>
      <rect x="-76.2" width="152.4" y="40.8" height="6.8" id="armorNOSRow06"/>
      <rect x="-77.3" width="154.6" y="47.6" height="6.8" id="armorNOSRow07"/>
      <rect x="-78.3" width="156.6" y="54.4" height="6.8" id="armorNOSRow08"/>
      <rect x="-78.9" width="157.8" y="61.2" height="6.8" id="armorNOSRow09"/>
      <rect x="-79.5" width="159" y="68.0" height="6.8" id="armorNOSRow10"/>
      <rect x="-80.3" width="160.6" y="74.8" height="6.8" id="armorNOSRow11"/>
      <rect x="-82.4" width="164.8" y="81.4" height="6.8" id="armorNOSRow12"/>
      <rect x="-82.1" width="184.2" y="88.2" height="6.8" id="armorNOSRow13"/>
      <rect x="-78.8" width="157.6" y="95" height="6.8" id="armorNOSRow14"/>
      <rect x="-75.6" width="151.2" y="101.8" height="6.8" id="armorNOSRow15"/>
      <rect x="-72.3" width="144.6" y="108.6" height="6.8" id="armorNOSRow16"/>
      <rect x="-69" width="138" y="115.6" height="6.8" id="armorNOSRow17"/>
      <rect x="-65.8" width="131.6" y="122.4" height="6.8" id="armorNOSRow18"/>
      <rect x="-62.5" width="125" y="129.2" height="6.8" id="armorNOSRow19"/>
    </g>
    <g id="armorPipsRS" transform="translate(205.42,155)">
      <rect x="32.5" width="8.9" y="0" height="6.8" id="armorRSRow00"/>
      <rect x="28.5" width="12.9" y="6.8" height="6.8" id="armorRSRow01"/>
      <rect x="24.5" width="16.9" y="15.6" height="6.8" id="armorRSRow02"/>
      <rect x="20.5" width="20.9" y="20.4" height="6.8" id="armorRSRow03"/>
      <rect x="16.5" width="24.9" y="27.2" height="6.8" id="armorRSRow04"/>
      <rect x="12.5" width="28.9" y="34.0" height="6.8" id="armorRSRow05"/>
      <rect x="10.4" width="31" y="40.8" height="6.8" id="armorRSRow06"/>
      <rect x="10.4" width="31" y="47.6" height="6.8" id="armorRSRow07"/>
      <rect x="10.4" width="31" y="54.4" height="6.8" id="armorRSRow08"/>
      <rect x="10.4" width="31" y="61.2" height="6.8" id="armorRSRow09"/>
      <rect x="10.4" width="31" y="68" height="6.8" id="armorRSRow10"/>
      <rect x="10.4" width="31" y="74.8" height="6.8" id="armorRSRow11"/>
      <rect x="10.4" width="31" y="81.6" height="6.8" id="armorRSRow12"/>
      <rect x="5.4" width="36" y="88.4" height="6.8" id="armorRSRow13"/>
      <rect x="0" width="41.4" y="95.2" height="6.8" id="armorRSRow14"/>
      <rect x="0" width="41.4" y="102" height="6.8" id="armorRSRow15"/>
      <rect x="0" width="41.4" y="108.8" height="6.8" id="armorRSRow16"/>
      <rect x="0" width="45.3" y="115.6" height="6.8" id="armorRSRow17"/>
      <rect x="0" width="49.4" y="122.4" height="6.8" id="armorRSRow18"/>
      <rect x="0" width="53.5" y="129.2" height="6.8" id="armorRSRow19"/>
      <rect x="0" width="57.6" y="136" height="6.8" id="armorRSRow20"/>
      <rect x="0" width="61.6" y="142.8" height="6.8" id="armorRSRow21"/>
      <rect x="0" width="65.7" y="149.6" height="6.8" id="armorRSRow22"/>
      <rect x="0" width="69.8" y="156.4" height="6.8" id="armorRSRow23"/>
      <rect x="0" width="73.9" y="163.2" height="6.8" id="armorRSRow24"/>      
      <rect x="0" width="75.7" y="170" height="6.8" id="armorRSRow25"/>
      <rect x="0" width="76.8" y="176.8" height="6.8" id="armorRSRow26"/>
      <rect x="0" width="77.8" y="183.6" height="6.8" id="armorRSRow27"/>
      <rect x="0" width="78.9" y="190.4" height="6.8" id="armorRSRow28"/>
      <rect x="0" width="79.9" y="197.2" height="6.8" id="armorRSRow29"/>
      <rect x="0" width="81" y="204" height="6.8" id="armorRSRow30"/>
      <rect x="0" width="82.1" y="210.8" height="6.8" id="armorRSRow31"/>
      <rect x="0" width="83.1" y="217.6" height="6.8" id="armorRSRow32"/>
      <rect x="0" width="84.2" y="224.4" height="6.8" id="armorRSRow33"/>
      <rect x="0" width="85.2" y="231.2" height="6.8" id="armorRSRow34"/>
      <rect x="0" width="86.3" y="238" height="6.8" id="armorRSRow35"/>
      <rect x="0" width="87.3" y="244.8" height="6.8" id="armorRSRow36"/>
      <rect x="0" width="88.3" y="251.6" height="6.8" id="armorRSRow37"/>
    </g>
    <g id="armorPipsLS" transform="matrix(-1,0,0,1,107.98,155)">
      <rect x="32.5" width="8.9" y="0" height="6.8" id="armorLSRow00"/>
      <rect x="28.5" width="12.9" y="6.8" height="6.8" id="armorLSRow01"/>
      <rect x="24.5" width="16.9" y="15.6" height="6.8" id="armorLSRow02"/>
      <rect x="20.5" width="20.9" y="20.4" height="6.8" id="armorLSRow03"/>
      <rect x="16.5" width="24.9" y="27.2" height="6.8" id="armorLSRow04"/>
      <rect x="12.5" width="28.9" y="34.0" height="6.8" id="armorLSRow05"/>
      <rect x="10.4" width="31" y="40.8" height="6.8" id="armorLSRow06"/>
      <rect x="10.4" width="31" y="47.6" height="6.8" id="armorLSRow07"/>
      <rect x="10.4" width="31" y="54.4" height="6.8" id="armorLSRow08"/>
      <rect x="10.4" width="31" y="61.2" height="6.8" id="armorLSRow09"/>
      <rect x="10.4" width="31" y="68" height="6.8" id="armorLSRow10"/>
      <rect x="10.4" width="31" y="74.8" height="6.8" id="armorLSRow11"/>
      <rect x="10.4" width="31" y="81.6" height="6.8" id="armorLSRow12"/>
      <rect x="5.4" width="36" y="88.4" height="6.8" id="armorLSRow13"/>
      <rect x="0" width="41.4" y="95.2" height="6.8" id="armorLSRow14"/>
      <rect x="0" width="41.4" y="102" height="6.8" id="armorLSRow15"/>
      <rect x="0" width="41.4" y="108.8" height="6.8" id="armorLSRow16"/>
      <rect x="0" width="45.3" y="115.6" height="6.8" id="armorLSRow17"/>
      <rect x="0" width="49.4" y="122.4" height="6.8" id="armorLSRow18"/>
      <rect x="0" width="53.5" y="129.2" height="6.8" id="armorLSRow19"/>
      <rect x="0" width="57.6" y="136" height="6.8" id="armorLSRow20"/>
      <rect x="0" width="61.6" y="142.8" height="6.8" id="armorLSRow21"/>
      <rect x="0" width="65.7" y="149.6" height="6.8" id="armorLSRow22"/>
      <rect x="0" width="69.8" y="156.4" height="6.8" id="armorLSRow23"/>
      <rect x="0" width="73.9" y="163.2" height="6.8" id="armorLSRow24"/>      
      <rect x="0" width="75.7" y="170" height="6.8" id="armorLSRow25"/>
      <rect x="0" width="76.8" y="176.8" height="6.8" id="armorLSRow26"/>
      <rect x="0" width="77.8" y="183.6" height="6.8" id="armorLSRow27"/>
      <rect x="0" width="78.9" y="190.4" height="6.8" id="armorLSRow28"/>
      <rect x="0" width="79.9" y="197.2" height="6.8" id="armorLSRow29"/>
      <rect x="0" width="81" y="204" height="6.8" id="armorLSRow30"/>
      <rect x="0" width="82.1" y="210.8" height="6.8" id="armorLSRow31"/>
      <rect x="0" width="83.1" y="217.6" height="6.8" id="armorLSRow32"/>
      <rect x="0" width="84.2" y="224.4" height="6.8" id="armorLSRow33"/>
      <rect x="0" width="85.2" y="231.2" height="6.8" id="armorLSRow34"/>
      <rect x="0" width="86.3" y="238" height="6.8" id="armorLSRow35"/>
      <rect x="0" width="87.3" y="244.8" height="6.8" id="armorLSRow36"/>
      <rect x="0" width="88.3" y="251.6" height="6.8" id="armorLSRow37"/>
    </g>
    <g id="armorPipsAFT" transform="translate(156.7,224.08)">
      <rect x="-42" width="84" y="0" height="6.8" id="armorAFTRow00"/>
      <rect x="-42" width="84" y="149.6" height="6.8" id="armorAFTRow01"/>
    </g>
  </g>
  <g fill="none" id="structurePips">
    <g id="siPips" transform="translate(156.7,200)">
      <rect x="-54" width="108" y="0" height="5.6" id="structurePipsFR00"/>
      <rect x="-54" width="108" y="5.6" height="33.6" id="structurePipsFR01"/>
    </g>
  </g>
</svg>
