<?xml version="1.0" encoding="utf-8"?>
<!DOCTYPE svg PUBLIC "-//W3C//DTD SVG 1.0//EN" "http://www.w3.org/TR/2001/REC-SVG-20010904/DTD/svg10.dtd">
<svg version="1.0" xmlns="http://www.w3.org/2000/svg" xmlns:xlink="http://www.w3.org/1999/xlink" x="0" y="0" width="49.25" height="28.972"
     xml:space="preserve">
<g id="cglLogo" transform="matrix(1,0,0,-1,-162.7947,110.0348)"><g
           id="g57733"
           transform="translate(211.0787,105.8868)"><path
             d="m 0,0 c 0,1.757 -1.388,3.182 -3.099,3.182 l -41.12,0 c -1.712,0 -3.099,-1.425 -3.099,-3.182 l 0,-20.677 c 0,-1.757 1.387,-3.181 3.099,-3.181 l 41.12,0 c 1.711,0 3.099,1.424 3.099,3.181 L 0,0 Z"
             style="fill:#231f20;fill-opacity:1;fill-rule:nonzero;stroke:none"
             id="path57735"
             /></g><g
           id="g57737"
           transform="translate(211.0787,105.8868)"><path
             d="m 0,0 c 0,1.757 -1.388,3.182 -3.099,3.182 l -41.12,0 c -1.712,0 -3.099,-1.425 -3.099,-3.182 l 0,-20.677 c 0,-1.757 1.387,-3.181 3.099,-3.181 l 41.12,0 c 1.711,0 3.099,1.424 3.099,3.181 L 0,0 Z"
             style="fill:none;stroke:#231f20;stroke-width:1.93200004;stroke-linecap:butt;stroke-linejoin:miter;stroke-miterlimit:4;stroke-dasharray:none;stroke-opacity:1"
             id="path57739"
             /></g><g
           id="g57741"
           transform="translate(170.1427,90.8586)"><path
             d="m 0,0 c -0.158,-1.733 -0.966,-2.501 -2.402,-2.501 -1.517,0 -2.344,0.787 -2.463,2.501 -0.078,1.024 -0.117,2.048 -0.117,3.091 0,0.455 0,0.908 0.019,1.359 0,0 0.02,3.467 0.098,4.432 0.119,1.713 0.946,2.521 2.463,2.521 1.436,0 2.244,-0.808 2.402,-2.521 0.019,-0.316 0.039,-1.517 0.039,-2.01 l -1.536,0 c 0,0.513 -0.04,1.733 -0.059,2.048 -0.077,0.769 -0.335,1.104 -0.846,1.104 -0.454,0 -0.71,-0.354 -0.789,-1.104 C -3.288,7.955 -3.288,4.45 -3.288,4.45 -3.309,3.88 -3.309,3.289 -3.309,2.699 c 0,-0.927 0.021,-1.871 0.118,-2.758 0.079,-0.748 0.335,-1.103 0.789,-1.103 0.511,0 0.769,0.355 0.846,1.103 0.019,0.315 0.059,1.614 0.059,2.126 l 1.536,0 C 0.039,1.752 0.019,0.297 0,0"
             style="fill:#c3cc20;fill-opacity:1;fill-rule:nonzero;stroke:none"
             id="path57743"
             /></g><g
           id="g57745"
           transform="translate(174.5892,100.6857)"><path
             d="m 0,0 -0.551,0 c -0.454,0 -1.043,-0.316 -1.122,-1.005 -0.08,-0.611 -0.08,-1.792 -0.08,-2.401 l 0,-1.991 1.753,0 L 0,0 Z m -0.04,-12.171 0,5.395 -1.713,0 0,-5.395 -1.674,0 0,8.173 c 0,0 0,1.889 0.079,2.758 0.138,1.554 1.299,2.658 2.797,2.658 l 2.224,0 0,-13.589 -1.713,0 z"
             style="fill:#c3cc20;fill-opacity:1;fill-rule:nonzero;stroke:none"
             id="path57747"
             /></g><g
           id="g57749"
           transform="translate(185.4642,100.6857)"><path
             d="m 0,0 -0.552,0 c -0.453,0 -1.044,-0.316 -1.122,-1.005 -0.08,-0.611 -0.08,-1.792 -0.08,-2.401 l 0,-1.991 1.754,0 L 0,0 Z m -0.041,-12.171 0,5.395 -1.713,0 0,-5.395 -1.673,0 0,8.173 c 0,0 0,1.889 0.079,2.758 0.137,1.554 1.3,2.658 2.796,2.658 l 2.226,0 0,-13.589 -1.715,0 z"
             style="fill:#c3cc20;fill-opacity:1;fill-rule:nonzero;stroke:none"
             id="path57751"
             /></g><g
           id="g57753"
           transform="translate(179.7876,100.6857)"><path
             d="m 0,0 0,-9.964 c 0,-0.689 0.433,-0.985 0.867,-0.985 l 0.433,0 0,-1.36 -0.433,0 c -1.535,0 -2.56,0.67 -2.56,2.207 l 0,10.102 -1.91,0 0,1.418 5.534,0 L 1.931,0 0,0 Z"
             style="fill:#c3cc20;fill-opacity:1;fill-rule:nonzero;stroke:none"
             id="path57755"
             /></g><g
           id="g57757"
           transform="translate(201.0168,88.3581)"><path
             d="m 0,0 c -1.458,0 -2.501,0.807 -2.501,2.54 l 0,2.028 1.555,0 0,-2.106 c 0,-0.788 0.453,-1.104 0.946,-1.104 0.453,0 0.905,0.316 0.905,1.104 l 0,1.712 c 0,2.088 -3.348,3.191 -3.348,5.751 l 0,1.457 c 0,1.733 0.966,2.52 2.483,2.52 1.437,0 2.382,-0.787 2.382,-2.52 l 0,-1.634 -1.536,0 0,1.673 c 0,0.769 -0.354,1.104 -0.846,1.104 -0.454,0 -0.79,-0.335 -0.79,-1.104 l 0,-1.477 c 0,-1.614 3.329,-3.151 3.329,-5.71 l 0,-1.694 C 2.579,0.807 1.536,0 0,0"
             style="fill:#c3cc20;fill-opacity:1;fill-rule:nonzero;stroke:none"
             id="path57759"
             /></g><g
           id="g57761"
           transform="translate(207.4933,100.6857)"><path
             d="m 0,0 0,-9.964 c 0,-0.689 0.434,-0.985 0.866,-0.985 l 0.433,0 0,-1.36 -0.433,0 c -1.534,0 -2.559,0.67 -2.559,2.207 l 0,10.102 -1.91,0 0,1.418 5.533,0 L 1.93,0 0,0 Z"
             style="fill:#c3cc20;fill-opacity:1;fill-rule:nonzero;stroke:none"
             id="path57763"
             /></g><g
           id="g57765"
           transform="translate(184.9803,86.4216)"><path
             d="m 0,0 c 0,0.046 -0.005,0.096 -0.017,0.137 -0.054,0.187 -0.199,0.328 -0.415,0.328 -0.286,0 -0.498,-0.249 -0.498,-0.66 0,-0.344 0.175,-0.623 0.494,-0.623 0.192,0 0.357,0.124 0.416,0.308 C -0.009,-0.456 0,-0.385 0,-0.328 L 0,0 Z m 0.509,-0.917 c 0,-0.424 -0.087,-0.726 -0.297,-0.917 -0.212,-0.187 -0.503,-0.244 -0.78,-0.244 -0.258,0 -0.532,0.052 -0.705,0.163 l 0.111,0.384 c 0.128,-0.074 0.344,-0.154 0.589,-0.154 0.332,0 0.582,0.174 0.582,0.611 l 0,0.173 -0.009,0 c -0.117,-0.177 -0.324,-0.298 -0.589,-0.298 -0.502,0 -0.859,0.415 -0.859,0.987 0,0.664 0.431,1.067 0.917,1.067 0.307,0 0.489,-0.15 0.585,-0.315 l 0.008,0 0.021,0.269 0.444,0 C 0.519,0.672 0.509,0.506 0.509,0.228 l 0,-1.145 z"
             style="fill:#c3cc20;fill-opacity:1;fill-rule:nonzero;stroke:none"
             id="path57767"
             /></g><g
           id="g57769"
           transform="translate(186.9422,86.1979)"><path
             d="m 0,0 c -0.361,0.008 -0.704,-0.071 -0.704,-0.378 0,-0.2 0.127,-0.289 0.289,-0.289 0.203,0 0.353,0.131 0.399,0.277 C -0.004,-0.353 0,-0.311 0,-0.278 L 0,0 Z m 0.499,-0.502 c 0,-0.184 0.007,-0.361 0.028,-0.486 l -0.46,0 -0.034,0.224 -0.011,0 c -0.125,-0.157 -0.336,-0.27 -0.599,-0.27 -0.405,0 -0.634,0.294 -0.634,0.602 0,0.51 0.452,0.768 1.199,0.763 l 0,0.033 c 0,0.134 -0.054,0.353 -0.41,0.353 -0.201,0 -0.407,-0.062 -0.544,-0.149 l -0.1,0.332 c 0.149,0.091 0.41,0.178 0.73,0.178 0.647,0 0.835,-0.411 0.835,-0.85 l 0,-0.73 z"
             style="fill:#c3cc20;fill-opacity:1;fill-rule:nonzero;stroke:none"
             id="path57771"
             /></g><g
           id="g57773"
           transform="translate(187.8139,86.63)"><path
             d="m 0,0 c 0,0.231 -0.004,0.426 -0.016,0.601 l 0.44,0 0.02,-0.3 0.013,0 c 0.098,0.159 0.282,0.345 0.622,0.345 0.267,0 0.472,-0.149 0.56,-0.373 l 0.008,0 c 0.07,0.111 0.153,0.194 0.25,0.253 0.112,0.079 0.24,0.12 0.407,0.12 0.335,0 0.676,-0.227 0.676,-0.875 l 0,-1.192 -0.499,0 0,1.118 C 2.481,0.032 2.365,0.231 2.12,0.231 1.946,0.231 1.818,0.107 1.763,-0.038 1.75,-0.088 1.739,-0.151 1.739,-0.209 l 0,-1.212 -0.498,0 0,1.171 c 0,0.282 -0.112,0.481 -0.349,0.481 -0.19,0 -0.319,-0.149 -0.365,-0.29 C 0.506,-0.108 0.498,-0.167 0.498,-0.224 l 0,-1.197 L 0,-1.421 0,0 Z"
             style="fill:#c3cc20;fill-opacity:1;fill-rule:nonzero;stroke:none"
             id="path57775"
             /></g><g
           id="g57777"
           transform="translate(192.4152,86.4338)"><path
             d="M 0,0 C 0.004,0.186 -0.078,0.495 -0.419,0.495 -0.734,0.495 -0.867,0.208 -0.888,0 L 0,0 Z m -0.888,-0.356 c 0.013,-0.367 0.3,-0.523 0.622,-0.523 0.237,0 0.407,0.033 0.562,0.091 L 0.37,-1.141 c -0.175,-0.07 -0.415,-0.128 -0.706,-0.128 -0.655,0 -1.042,0.406 -1.042,1.024 0,0.56 0.342,1.087 0.988,1.087 0.659,0 0.871,-0.539 0.871,-0.983 0,-0.095 -0.008,-0.17 -0.016,-0.215 l -1.353,0 z"
             style="fill:#c3cc20;fill-opacity:1;fill-rule:nonzero;stroke:none"
             id="path57779"
             /></g><path
           d="m 196.606,88.157 0.514,0 0,-2.947 -0.514,0 0,2.947 z"
           style="fill:#c3cc20;fill-opacity:1;fill-rule:nonzero;stroke:none"
           id="path57781"
           /><g
           id="g57783"
           transform="translate(198.5766,86.1979)"><path
             d="m 0,0 c -0.361,0.008 -0.706,-0.071 -0.706,-0.378 0,-0.2 0.129,-0.289 0.291,-0.289 0.203,0 0.352,0.131 0.399,0.277 C -0.005,-0.353 0,-0.311 0,-0.278 L 0,0 Z m 0.498,-0.502 c 0,-0.184 0.007,-0.361 0.029,-0.486 l -0.461,0 -0.033,0.224 -0.013,0 c -0.124,-0.157 -0.335,-0.27 -0.597,-0.27 -0.407,0 -0.635,0.294 -0.635,0.602 0,0.51 0.453,0.768 1.198,0.763 l 0,0.033 c 0,0.134 -0.052,0.353 -0.408,0.353 -0.201,0 -0.408,-0.062 -0.544,-0.149 L -1.067,0.9 c 0.15,0.091 0.411,0.178 0.731,0.178 0.647,0 0.834,-0.411 0.834,-0.85 l 0,-0.73 z"
             style="fill:#c3cc20;fill-opacity:1;fill-rule:nonzero;stroke:none"
             id="path57785"
             /></g><g
           id="g57787"
           transform="translate(199.9575,86.0433)"><path
             d="m 0,0 c 0,-0.042 0.005,-0.083 0.014,-0.119 0.053,-0.204 0.232,-0.358 0.452,-0.358 0.318,0 0.514,0.258 0.514,0.664 0,0.356 -0.171,0.647 -0.511,0.647 C 0.262,0.834 0.074,0.685 0.017,0.461 0.009,0.424 0,0.379 0,0.328 L 0,0 Z m -0.51,2.113 0.51,0 0,-1.204 0.009,0 c 0.125,0.195 0.345,0.323 0.648,0.323 0.492,0 0.845,-0.409 0.841,-1.023 0,-0.728 -0.46,-1.088 -0.917,-1.088 -0.26,0 -0.493,0.1 -0.639,0.348 l -0.008,0 -0.025,-0.303 -0.435,0 c 0.008,0.138 0.016,0.363 0.016,0.57 l 0,2.377 z"
             style="fill:#c3cc20;fill-opacity:1;fill-rule:nonzero;stroke:none"
             id="path57789"
             /></g><g
           id="g57791"
           transform="translate(201.6837,85.6792)"><path
             d="m 0,0 c 0.117,-0.071 0.337,-0.145 0.519,-0.145 0.225,0 0.323,0.09 0.323,0.223 0,0.137 -0.083,0.209 -0.332,0.296 -0.393,0.135 -0.559,0.352 -0.555,0.588 0,0.356 0.294,0.635 0.764,0.635 0.223,0 0.418,-0.057 0.535,-0.12 L 1.153,1.116 C 1.066,1.166 0.904,1.232 0.726,1.232 0.543,1.232 0.444,1.146 0.444,1.021 0.444,0.892 0.54,0.83 0.797,0.738 1.162,0.606 1.332,0.419 1.337,0.12 1.337,-0.245 1.05,-0.515 0.515,-0.515 0.269,-0.515 0.05,-0.453 -0.1,-0.37 L 0,0 Z"
             style="fill:#c3cc20;fill-opacity:1;fill-rule:nonzero;stroke:none"
             id="path57793"
             /></g><g
           id="g57795"
           transform="translate(197.3899,99.0811)"><path
             d="m 0,0 0,3.007 -1.063,0 -0.611,-1.126 0,-4.63 c 0,0 0,-2.167 -0.098,-3.032 -0.058,-0.669 -0.336,-1.024 -0.767,-1.024 -0.454,0 -0.709,0.355 -0.789,1.024 -0.055,0.484 -0.079,1.371 -0.09,2.061 -0.006,0.495 -0.006,0.864 -0.006,0.864 l -0.002,1.66 c 0,0 -0.938,-1.813 -1.286,-2.045 -0.353,-0.237 -0.314,-0.502 -0.314,-0.502 0,0 -0.037,-1.667 0.007,-2.126 0.117,-1.239 0.63,-2.069 1.633,-2.324 l 0,-0.605 C -3.39,-8.803 -3.396,-8.808 -3.4,-8.812 l 0,-5.364 1.674,1.674 0,0.006 0.015,0.015 0,4.288 c 0.985,0.255 1.517,1.085 1.694,2.324 0.019,0.847 0.019,3.013 0.019,3.013 L 0.002,0 0,0 Z"
             style="fill:#c3cc20;fill-opacity:1;fill-rule:nonzero;stroke:none"
             id="path57797"
             /></g><g
           id="g57799"
           transform="translate(190.2051,96.7843)"><path
             d="m 0,0 -1.673,2.812 0,-11.081 4.233,0 0,1.378 -2.56,0 L 0,0 Z"
             style="fill:#c3cc20;fill-opacity:1;fill-rule:nonzero;stroke:none"
             id="path57801"
             /></g><g
           id="g57803"
           transform="translate(203.6853,87.9449)"><path
             d="m 0,0 -0.228,0 0,0.082 0.555,0 0,-0.082 -0.228,0 0,-0.666 L 0,-0.666 0,0 Z"
             style="fill:#c3cc20;fill-opacity:1;fill-rule:nonzero;stroke:none"
             id="path57805"
             /></g><g
           id="g57807"
           transform="translate(204.7238,87.6072)"><path
             d="m 0,0 c -0.005,0.104 -0.012,0.231 -0.012,0.324 l -0.002,0 C -0.041,0.238 -0.071,0.143 -0.108,0.04 l -0.133,-0.365 -0.072,0 -0.124,0.357 C -0.471,0.14 -0.5,0.235 -0.522,0.324 l -0.002,0 C -0.525,0.23 -0.531,0.105 -0.538,-0.008 l -0.02,-0.321 -0.092,0 0.052,0.749 0.124,0 0.127,-0.361 c 0.031,-0.093 0.055,-0.176 0.076,-0.253 l 0.002,0 c 0.02,0.075 0.047,0.158 0.08,0.253 l 0.133,0.361 0.123,0 0.047,-0.749 -0.096,0 L 0,0 Z"
             style="fill:#c3cc20;fill-opacity:1;fill-rule:nonzero;stroke:none"
             id="path57809"
             /></g><g
           id="g57811"
           transform="translate(197.088,106.7537)"><path
             d="m 0,0 c 0,0 -0.345,-0.214 -0.472,-0.393 -0.048,-0.23 0.257,-0.492 0.038,-0.677 l -2.138,-1.325 -6.145,-0.34 c 0,0 -1.5,-0.014 -0.416,-1.766 l 2.875,-4.639 c 1.086,-1.753 1.765,-0.415 1.765,-0.415 l 3.038,5.353 1.953,1.21 0.188,0.116 c 0.263,0.114 0.361,-0.278 0.589,-0.337 0.215,0.034 0.562,0.25 0.562,0.25 L 0,0 Z"
             style="fill:#c8c7c7;fill-opacity:1;fill-rule:nonzero;stroke:none"
             id="path57813"
             /></g><g
           id="g57815"
           transform="translate(197.088,106.7537)"><path
             d="m 0,0 c 0,0 -0.345,-0.214 -0.472,-0.393 -0.048,-0.23 0.257,-0.492 0.038,-0.677 l -2.138,-1.325 -6.145,-0.34 c 0,0 -1.5,-0.014 -0.416,-1.766 l 2.875,-4.639 c 1.086,-1.753 1.765,-0.415 1.765,-0.415 l 3.038,5.353 1.953,1.21 0.188,0.116 c 0.263,0.114 0.361,-0.278 0.589,-0.337 0.215,0.034 0.562,0.25 0.562,0.25 L 0,0 Z"
             style="fill:none;stroke:#231f20;stroke-width:0.96600002;stroke-linecap:round;stroke-linejoin:round;stroke-miterlimit:4;stroke-dasharray:none;stroke-opacity:1"
             id="path57817"
             /></g><g
           id="g57819"
           transform="translate(191.3955,102.8353)"><path
             d="M 0,0 -0.769,1.24"
             style="fill:none;stroke:#231f20;stroke-width:0.48300001;stroke-linecap:round;stroke-linejoin:round;stroke-miterlimit:4;stroke-dasharray:none;stroke-opacity:1"
             id="path57821"
             /></g><g
           id="g57823"
           transform="translate(190.1947,102.8184)"><path
             d="M 0,0 -0.769,1.241"
             style="fill:none;stroke:#231f20;stroke-width:0.48300001;stroke-linecap:round;stroke-linejoin:round;stroke-miterlimit:4;stroke-dasharray:none;stroke-opacity:1"
             id="path57825"
             /></g><g
           id="g57827"
           transform="translate(193.7989,102.9844)"><path
             d="M 0,0 -0.769,1.24"
             style="fill:none;stroke:#231f20;stroke-width:0.48300001;stroke-linecap:round;stroke-linejoin:round;stroke-miterlimit:4;stroke-dasharray:none;stroke-opacity:1"
             id="path57829"
             /></g><g
           id="g57831"
           transform="translate(192.5981,102.9844)"><path
             d="M 0,0 -0.77,1.24"
             style="fill:none;stroke:#231f20;stroke-width:0.48300001;stroke-linecap:round;stroke-linejoin:round;stroke-miterlimit:4;stroke-dasharray:none;stroke-opacity:1"
             id="path57833"
             /></g><g
           id="g57835"
           transform="translate(188.993,102.6769)"><path
             d="M 0,0 -0.769,1.241"
             style="fill:none;stroke:#231f20;stroke-width:0.48300001;stroke-linecap:round;stroke-linejoin:round;stroke-miterlimit:4;stroke-dasharray:none;stroke-opacity:1"
             id="path57837"
             /></g></g></svg>
