<?xml version="1.0" encoding="utf-8"?>
<!DOCTYPE svg PUBLIC "-//W3C//DTD SVG 1.0//EN" "http://www.w3.org/TR/2001/REC-SVG-20010904/DTD/svg10.dtd">
<svg version="1.0" xmlns="http://www.w3.org/2000/svg" xmlns:xlink="http://www.w3.org/1999/xlink" x="0" y="0" width="57.644" height="77.885"
     xml:space="preserve">
<g id="damage_transfer_quad" transform="matrix(1,0,0,-1,-217.0785,136.2696)"><g
           id="g4619"
           transform="translate(261.0131,64.466)"><path
             d="m 0,0 0.428,0 c 0,1.252 -1.141,2.53 -2.879,3.323 l 0.74,0.791 0,1.828 0.428,9.599 -0.427,0.912 0,1.83 0.855,0.457 0,5.027 -0.855,0.457 0,1.372 0.427,0.913 0,7.771 -0.428,8.227 -8.551,0 -0.428,-8.227 0,-7.313 0.428,-0.913 0,-1.83 -0.856,-0.457 0,-5.027 0.856,-0.457 0,-1.83 -0.427,-0.912 0.427,-9.599 0,-1.828 0.62,-0.663 C -11.55,2.674 -12.827,1.322 -12.828,0 l 0.429,0 0,-0.458 -0.429,-0.456 0,-0.915 13.256,0 0,0.915 L 0,-0.458 0,0 Z"
             style="fill:#ffffff;fill-opacity:1;fill-rule:nonzero;stroke:none"
             id="path4621"
              /></g><g
           id="g4623"
           transform="translate(261.0131,64.466)"><path
             d="m 0,0 0.428,0 c 0,1.252 -1.141,2.53 -2.879,3.323 l 0.74,0.791 0,1.828 0.428,9.599 -0.427,0.912 0,1.83 0.855,0.457 0,5.027 -0.855,0.457 0,1.372 0.427,0.913 0,7.771 -0.428,8.227 -8.551,0 -0.428,-8.227 0,-7.313 0.428,-0.913 0,-1.83 -0.856,-0.457 0,-5.027 0.856,-0.457 0,-1.83 -0.427,-0.912 0.427,-9.599 0,-1.828 0.62,-0.663 C -11.55,2.674 -12.827,1.322 -12.828,0 l 0.429,0 0,-0.458 -0.429,-0.456 0,-0.915 13.256,0 0,0.915 L 0,-0.458 0,0 Z"
             style="fill:none;stroke:#231f20;stroke-width:0.96600002;stroke-linecap:butt;stroke-linejoin:miter;stroke-miterlimit:2.41400003;stroke-dasharray:none;stroke-opacity:1"
             id="path4625"
              /></g><g
           id="g4627"
           transform="translate(243.1876,64.466)"><path
             d="M 0,0 0.428,0 C 0.427,1.322 -0.85,2.674 -2.758,3.451 l 0.619,0.663 0,1.828 0.428,9.599 -0.428,0.912 0,1.83 0.856,0.457 0,5.027 -0.856,0.457 0,1.83 0.429,0.913 0,7.313 -0.429,8.227 -8.551,0 -0.428,-8.227 0,-7.771 0.427,-0.913 0,-1.372 -0.855,-0.457 0,-5.027 0.855,-0.457 0,-1.83 -0.427,-0.912 0.428,-9.599 0,-1.828 0.74,-0.791 C -11.688,2.53 -12.828,1.252 -12.828,0 l 0.428,0 0,-0.458 -0.428,-0.456 0,-0.915 13.256,0 0,0.915 L 0,-0.458 0,0 Z"
             style="fill:#ffffff;fill-opacity:1;fill-rule:nonzero;stroke:none"
             id="path4629"
              /></g><g
           id="g4631"
           transform="translate(243.1876,64.466)"><path
             d="M 0,0 0.428,0 C 0.427,1.322 -0.85,2.674 -2.758,3.451 l 0.619,0.663 0,1.828 0.428,9.599 -0.428,0.912 0,1.83 0.856,0.457 0,5.027 -0.856,0.457 0,1.83 0.429,0.913 0,7.313 -0.429,8.227 -8.551,0 -0.428,-8.227 0,-7.771 0.427,-0.913 0,-1.372 -0.855,-0.457 0,-5.027 0.855,-0.457 0,-1.83 -0.427,-0.912 0.428,-9.599 0,-1.828 0.74,-0.791 C -11.688,2.53 -12.828,1.252 -12.828,0 l 0.428,0 0,-0.458 -0.428,-0.456 0,-0.915 13.256,0 0,0.915 L 0,-0.458 0,0 Z"
             style="fill:none;stroke:#231f20;stroke-width:0.96600002;stroke-linecap:butt;stroke-linejoin:miter;stroke-miterlimit:2.41400003;stroke-dasharray:none;stroke-opacity:1"
             id="path4633"
              /></g><g
           id="g4635"
           transform="translate(233.545,134.3727)"><path
             d="m 0,0 -2.655,-2.391 c -0.541,0.429 -1.157,0.764 -1.831,0.975 l 0,0.923 -0.369,0.474 -0.37,0.238 -0.368,0 -0.37,-0.238 -0.369,-0.474 0,-0.667 C -6.726,-1.17 -7.11,-1.217 -7.481,-1.304 l -2.207,2.632 -0.806,0.07 -3.063,-2.572 -0.07,-0.804 2.189,-2.61 c -0.231,-0.532 -0.385,-1.105 -0.446,-1.708 l -0.689,0 -0.474,-0.367 -0.238,-0.371 0,-0.368 0.238,-0.371 0.474,-0.369 0.807,0 c 0.147,-0.64 0.401,-1.24 0.742,-1.779 l -2.689,-2.42 0,-0.685 8.228,-12.343 0,-1.599 0.471,-0.457 9.599,0 L 4.585,0 0,0 Z"
             style="fill:#ffffff;fill-opacity:1;fill-rule:nonzero;stroke:none"
             id="path4637"
              /></g><g
           id="g4639"
           transform="translate(233.545,134.3727)"><path
             d="m 0,0 -2.655,-2.391 c -0.541,0.429 -1.157,0.764 -1.831,0.975 l 0,0.923 -0.369,0.474 -0.37,0.238 -0.368,0 -0.37,-0.238 -0.369,-0.474 0,-0.667 C -6.726,-1.17 -7.11,-1.217 -7.481,-1.304 l -2.207,2.632 -0.806,0.07 -3.063,-2.572 -0.07,-0.804 2.189,-2.61 c -0.231,-0.532 -0.385,-1.105 -0.446,-1.708 l -0.689,0 -0.474,-0.367 -0.238,-0.371 0,-0.368 0.238,-0.371 0.474,-0.369 0.807,0 c 0.147,-0.64 0.401,-1.24 0.742,-1.779 l -2.689,-2.42 0,-0.685 8.228,-12.343 0,-1.599 0.471,-0.457 9.599,0 L 4.585,0 0,0 Z"
             style="fill:none;stroke:#231f20;stroke-width:0.96600002;stroke-linecap:butt;stroke-linejoin:miter;stroke-miterlimit:4;stroke-dasharray:none;stroke-opacity:1"
             id="path4641"
              /></g><g
           id="g4643"
           transform="translate(238.1298,134.3727)"><path
             d="m 0,0 0,-27.425 1.371,-11.4 0.389,-0.457 12.022,0 0.388,0.457 1.37,11.4 L 15.54,0 0,0 Z"
             style="fill:#ffffff;fill-opacity:1;fill-rule:nonzero;stroke:none"
             id="path4645"
              /></g><g
           id="g4647"
           transform="translate(238.1298,134.3727)"><path
             d="m 0,0 0,-27.425 1.371,-11.4 0.389,-0.457 12.022,0 0.388,0.457 1.37,11.4 L 15.54,0 0,0 Z"
             style="fill:none;stroke:#231f20;stroke-width:0.96600002;stroke-linecap:butt;stroke-linejoin:miter;stroke-miterlimit:4;stroke-dasharray:none;stroke-opacity:1"
             id="path4649"
              /></g><g
           id="g4651"
           transform="translate(273.7821,60.7296)"><path
             d="m 0,0 0.457,0 c 0,1.399 -1.466,2.833 -3.634,3.608 l 0.476,0.603 -0.387,4.416 -0.313,8.828 -0.54,0.929 -0.056,0.648 c 0.791,0.588 0.935,1.395 1.241,2.378 l 0.383,0.034 0.862,0.632 0.359,1.145 -0.049,0.555 -0.551,1.064 -0.96,0.473 -0.381,-0.033 c -0.474,0.914 -0.755,1.684 -1.637,2.126 l -0.057,0.65 0.371,1.006 -0.804,9.189 -1.217,8.663 -10.017,-0.875 0.305,-8.744 0.762,-8.706 0.54,-0.924 0.169,-1.936 -0.868,-0.564 0.465,-5.32 0.953,-0.403 0.17,-1.935 -0.371,-1.007 1.224,-8.749 0.387,-4.418 0.561,-0.499 C -13.633,2.047 -14.627,1.015 -14.627,0 l 0.457,0 0,-0.466 -0.457,-0.464 0,-0.932 15.084,0 0,0.932 L 0,-0.466 0,0 Z"
             style="fill:#ffffff;fill-opacity:1;fill-rule:nonzero;stroke:none"
             id="path4653"
              /></g><g
           id="g4655"
           transform="translate(273.7821,60.7296)"><path
             d="m 0,0 0.457,0 c 0,1.399 -1.466,2.833 -3.634,3.608 l 0.476,0.603 -0.387,4.416 -0.313,8.828 -0.54,0.929 -0.056,0.648 c 0.791,0.588 0.935,1.395 1.241,2.378 l 0.383,0.034 0.862,0.632 0.359,1.145 -0.049,0.555 -0.551,1.064 -0.96,0.473 -0.381,-0.033 c -0.474,0.914 -0.755,1.684 -1.637,2.126 l -0.057,0.65 0.371,1.006 -0.804,9.189 -1.217,8.663 -10.017,-0.875 0.305,-8.744 0.762,-8.706 0.54,-0.924 0.169,-1.936 -0.868,-0.564 0.465,-5.32 0.953,-0.403 0.17,-1.935 -0.371,-1.007 1.224,-8.749 0.387,-4.418 0.561,-0.499 C -13.633,2.047 -14.627,1.015 -14.627,0 l 0.457,0 0,-0.466 -0.457,-0.464 0,-0.932 15.084,0 0,0.932 L 0,-0.466 0,0 Z"
             style="fill:none;stroke:#231f20;stroke-width:0.96600002;stroke-linecap:butt;stroke-linejoin:miter;stroke-miterlimit:2.41400003;stroke-dasharray:none;stroke-opacity:1"
             id="path4657"
              /></g><g
           id="g4659"
           transform="translate(233.4055,89.3183)"><path
             d="m 0,0 0.762,8.707 0.305,8.743 -10.016,0.876 -1.218,-8.664 -0.803,-9.189 0.37,-1.006 -0.057,-0.65 c -0.881,-0.442 -1.163,-1.211 -1.637,-2.126 l -0.382,0.033 -0.959,-0.473 -0.552,-1.063 -0.048,-0.556 0.359,-1.144 0.862,-0.632 0.382,-0.035 c 0.308,-0.982 0.451,-1.789 1.243,-2.378 l -0.057,-0.647 -0.541,-0.929 -0.313,-8.829 -0.386,-4.415 0.476,-0.603 c -2.168,-0.776 -3.634,-2.209 -3.634,-3.609 l 0.457,0 0,-0.466 -0.457,-0.464 0,-0.931 15.084,0 0,0.931 -0.457,0.464 0,0.466 0.457,0 c 0,1.015 -0.994,2.047 -2.47,2.834 l 0.562,0.5 0.386,4.417 1.224,8.749 -0.371,1.007 0.17,1.935 0.953,0.403 0.465,5.32 -0.868,0.564 0.169,1.936 L 0,0 Z"
             style="fill:#ffffff;fill-opacity:1;fill-rule:nonzero;stroke:none"
             id="path4661"
              /></g><g
           id="g4663"
           transform="translate(233.4055,89.3183)"><path
             d="m 0,0 0.762,8.707 0.305,8.743 -10.016,0.876 -1.218,-8.664 -0.803,-9.189 0.37,-1.006 -0.057,-0.65 c -0.881,-0.442 -1.163,-1.211 -1.637,-2.126 l -0.382,0.033 -0.959,-0.473 -0.552,-1.063 -0.048,-0.556 0.359,-1.144 0.862,-0.632 0.382,-0.035 c 0.308,-0.982 0.451,-1.789 1.243,-2.378 l -0.057,-0.647 -0.541,-0.929 -0.313,-8.829 -0.386,-4.415 0.476,-0.603 c -2.168,-0.776 -3.634,-2.209 -3.634,-3.609 l 0.457,0 0,-0.466 -0.457,-0.464 0,-0.931 15.084,0 0,0.931 -0.457,0.464 0,0.466 0.457,0 c 0,1.015 -0.994,2.047 -2.47,2.834 l 0.562,0.5 0.386,4.417 1.224,8.749 -0.371,1.007 0.17,1.935 0.953,0.403 0.465,5.32 -0.868,0.564 0.169,1.936 L 0,0 Z"
             style="fill:none;stroke:#231f20;stroke-width:0.96600002;stroke-linecap:butt;stroke-linejoin:miter;stroke-miterlimit:2.41400003;stroke-dasharray:none;stroke-opacity:1"
             id="path4665"
              /></g><path
           d="m 251.824,125.962 -11.847,0 0,2.633 11.847,0 0,-2.633 z"
           style="fill:#c8c7c7;fill-opacity:1;fill-rule:nonzero;stroke:none"
           id="path4667"
            /><g
           id="g4669"
           transform="translate(252.4826,128.5952)"><path
             d="m 0,0 -0.659,0 0,-2.633 0.659,0 -0.659,-7.897 -11.848,0 -0.657,7.897 0.657,0 0,2.633 -0.657,0 -0.659,0.658 0.659,1.975 1.974,0 0.659,1.317 7.898,0 0.658,-1.317 1.974,0 L 0.658,0.658 0,0 Z"
             style="fill:none;stroke:#231f20;stroke-width:0.96600002;stroke-linecap:butt;stroke-linejoin:miter;stroke-miterlimit:4;stroke-dasharray:none;stroke-opacity:1"
             id="path4671"
              /></g><g
           id="g4673"
           transform="translate(269.2648,124.4523)"><path
             d="m 0,0 c 0.341,0.539 0.595,1.139 0.741,1.779 l 0.807,0 0.476,0.369 0.237,0.37 0,0.368 -0.237,0.371 -0.476,0.368 -0.688,0 C 0.8,4.228 0.645,4.801 0.414,5.333 l 2.19,2.61 -0.071,0.804 -3.063,2.571 -0.805,-0.069 -2.207,-2.632 c -0.371,0.087 -0.756,0.134 -1.15,0.143 l 0,0.668 -0.369,0.474 -0.369,0.237 -0.369,0 -0.37,-0.237 -0.369,-0.474 0,-0.923 C -7.211,8.294 -7.828,7.958 -8.368,7.53 l -2.656,2.391 -4.556,0 0,-27.425 9.598,0 0.444,0.457 0,1.599 8.228,12.342 0,0.684 L 0,0 Z"
             style="fill:#ffffff;fill-opacity:1;fill-rule:nonzero;stroke:none"
             id="path4675"
              /></g><g
           id="g4677"
           transform="translate(269.2648,124.4523)"><path
             d="m 0,0 c 0.341,0.539 0.595,1.139 0.741,1.779 l 0.807,0 0.476,0.369 0.237,0.37 0,0.368 -0.237,0.371 -0.476,0.368 -0.688,0 C 0.8,4.228 0.645,4.801 0.414,5.333 l 2.19,2.61 -0.071,0.804 -3.063,2.571 -0.805,-0.069 -2.207,-2.632 c -0.371,0.087 -0.756,0.134 -1.15,0.143 l 0,0.668 -0.369,0.474 -0.369,0.237 -0.369,0 -0.37,-0.237 -0.369,-0.474 0,-0.923 C -7.211,8.294 -7.828,7.958 -8.368,7.53 l -2.656,2.391 -4.556,0 0,-27.425 9.598,0 0.444,0.457 0,1.599 8.228,12.342 0,0.684 L 0,0 Z"
             style="fill:none;stroke:#231f20;stroke-width:0.96600002;stroke-linecap:butt;stroke-linejoin:miter;stroke-miterlimit:4;stroke-dasharray:none;stroke-opacity:1"
             id="path4679"
              /></g><g
           id="g4681"
           transform="translate(232.8301,108.1696)"><path
             d="M 0,0 -1.885,2.509 -4.179,0.365 -2.786,0.242 -3.161,-4.049 -1.769,-4.172 -1.393,0.12 0,0 Z"
             style="fill:#231f20;fill-opacity:1;fill-rule:nonzero;stroke:none"
             id="path4683"
              /></g><g
           id="g4685"
           transform="translate(232.8301,108.1696)"><path
             d="M 0,0 -1.885,2.509 -4.179,0.365 -2.786,0.242 -3.161,-4.049 -1.769,-4.172 -1.393,0.12 0,0 Z"
             style="fill:none;stroke:#231f20;stroke-width:0.241;stroke-linecap:butt;stroke-linejoin:bevel;stroke-miterlimit:4;stroke-dasharray:none;stroke-opacity:1"
             id="path4687"
              /></g><g
           id="g4689"
           transform="translate(237.9855,108.5346)"><path
             d="m 0,0 -2.292,2.144 -1.887,-2.509 1.393,0.12 0.376,-4.292 1.393,0.123 -0.376,4.291 L 0,0 Z"
             style="fill:#231f20;fill-opacity:1;fill-rule:nonzero;stroke:none"
             id="path4691"
              /></g><g
           id="g4693"
           transform="translate(237.9855,108.5346)"><path
             d="m 0,0 -2.292,2.144 -1.887,-2.509 1.393,0.12 0.376,-4.292 1.393,0.123 -0.376,4.291 L 0,0 Z"
             style="fill:none;stroke:#231f20;stroke-width:0.241;stroke-linecap:butt;stroke-linejoin:bevel;stroke-miterlimit:4;stroke-dasharray:none;stroke-opacity:1"
             id="path4695"
              /></g><g
           id="g4697"
           transform="translate(257.9941,108.1696)"><path
             d="M 0,0 -1.885,2.509 -4.179,0.365 -2.786,0.242 -3.161,-4.049 -1.769,-4.172 -1.392,0.12 0,0 Z"
             style="fill:#231f20;fill-opacity:1;fill-rule:nonzero;stroke:none"
             id="path4699"
              /></g><g
           id="g4701"
           transform="translate(257.9941,108.1696)"><path
             d="M 0,0 -1.885,2.509 -4.179,0.365 -2.786,0.242 -3.161,-4.049 -1.769,-4.172 -1.392,0.12 0,0 Z"
             style="fill:none;stroke:#231f20;stroke-width:0.241;stroke-linecap:butt;stroke-linejoin:bevel;stroke-miterlimit:4;stroke-dasharray:none;stroke-opacity:1"
             id="path4703"
              /></g><g
           id="g4705"
           transform="translate(252.5388,116.4581)"><path
             d="M 0,0 -2.942,-2.922 0,-5.843 l 0,1.948 2.941,0 0,1.948 L 0,-1.947 0,0 Z"
             style="fill:#231f20;fill-opacity:1;fill-rule:nonzero;stroke:none"
             id="path4707"
              /></g><g
           id="g4709"
           transform="translate(252.5388,116.4581)"><path
             d="M 0,0 -2.942,-2.922 0,-5.843 l 0,1.948 2.941,0 0,1.948 L 0,-1.947 0,0 Z"
             style="fill:none;stroke:#231f20;stroke-width:0.241;stroke-linecap:butt;stroke-linejoin:bevel;stroke-miterlimit:4;stroke-dasharray:none;stroke-opacity:1"
             id="path4711"
              /></g><g
           id="g4713"
           transform="translate(239.2636,116.4581)"><path
             d="M 0,0 2.94,-2.922 0,-5.843 l 0,1.948 -2.941,0 0,1.948 2.941,0 L 0,0 Z"
             style="fill:#231f20;fill-opacity:1;fill-rule:nonzero;stroke:none"
             id="path4715"
              /></g><g
           id="g4717"
           transform="translate(239.2636,116.4581)"><path
             d="M 0,0 2.94,-2.922 0,-5.843 l 0,1.948 -2.941,0 0,1.948 2.941,0 L 0,0 Z"
             style="fill:none;stroke:#231f20;stroke-width:0.241;stroke-linecap:butt;stroke-linejoin:bevel;stroke-miterlimit:4;stroke-dasharray:none;stroke-opacity:1"
             id="path4719"
              /></g><g
           id="g4721"
           transform="translate(263.633,108.5346)"><path
             d="m 0,0 -2.292,2.144 -1.887,-2.509 1.393,0.12 0.376,-4.292 1.393,0.123 -0.376,4.291 L 0,0 Z"
             style="fill:#231f20;fill-opacity:1;fill-rule:nonzero;stroke:none"
             id="path4723"
              /></g><g
           id="g4725"
           transform="translate(263.633,108.5346)"><path
             d="m 0,0 -2.292,2.144 -1.887,-2.509 1.393,0.12 0.376,-4.292 1.393,0.123 -0.376,4.291 L 0,0 Z"
             style="fill:none;stroke:#231f20;stroke-width:0.241;stroke-linecap:butt;stroke-linejoin:bevel;stroke-miterlimit:4;stroke-dasharray:none;stroke-opacity:1"
             id="path4727"
              /></g></g></svg>
