<?xml version="1.0" encoding="utf-8"?>
<!DOCTYPE svg PUBLIC "-//W3C//DTD SVG 1.0//EN" "http://www.w3.org/TR/2001/REC-SVG-20010904/DTD/svg10.dtd">
<svg version="1.0" xmlns="http://www.w3.org/2000/svg" xmlns:xlink="http://www.w3.org/1999/xlink" x="0" y="0" width="60.254" height="83.604"
     xml:space="preserve">
<g id="transfer_diagram_biped" transform="matrix(1,0,0,-1,-215.52689,140.6186)">
<g transform="translate(221.2839,94.3262)"><path
             d="m 0,0 -0.106,-1.211 c 0.018,0.215 0.108,0.409 0.241,0.557 C 0.031,-0.457 -0.02,-0.234 0,0 Z"
             style="fill:none;stroke:#231f20;stroke-width:0.96600002;stroke-linecap:butt;stroke-linejoin:miter;stroke-miterlimit:4;stroke-dasharray:none;stroke-opacity:1"
             id="path57137"
             /></g><g
           id="g57139"
           transform="translate(221.2839,94.3262)"><path
             d="m 0,0 0.407,-0.495 c 0.077,0.092 0.188,0.156 0.315,0.168 l 0.013,0.001 C 0.514,-0.133 0.384,0.161 0.413,0.478 L 0.401,0.344 C 0.386,0.189 0.23,0.067 0,0 Z"
             style="fill:none;stroke:#231f20;stroke-width:0.96600002;stroke-linecap:butt;stroke-linejoin:miter;stroke-miterlimit:4;stroke-dasharray:none;stroke-opacity:1"
             id="path57141"
             /></g><g
           id="g57143"
           transform="translate(224.7637,97.6653)"><path
             d="m 0,0 -0.864,2.621 -4.346,0.377 -1.42,-3.693 0.928,-0.082 -0.23,-2.592 c -0.012,-0.146 0.031,-0.296 0.137,-0.414 l 1.509,-1.731 c 0.207,-0.238 0.577,-0.271 0.824,-0.072 0.047,0.038 0.082,0.083 0.114,0.13 0.08,-0.032 0.168,-0.045 0.26,-0.039 l 1.166,0.096 c 0.321,0.027 0.559,0.298 0.53,0.608 -0.012,0.13 -0.07,0.242 -0.155,0.329 0.148,0.093 0.243,0.262 0.227,0.451 -0.012,0.148 -0.093,0.273 -0.207,0.351 0.18,0.156 0.3,0.38 0.323,0.639 l 0,0.018 c 0.559,0.126 0.989,0.559 1.038,1.111 l 0.11,1.261 c 0.019,0.214 -0.022,0.422 -0.11,0.608 L 0,0 Z"
             style="fill:#ffffff;fill-opacity:1;fill-rule:nonzero;stroke:none"
             id="path57145"
             /></g><g
           id="g57147"
           transform="translate(224.7637,97.6653)"><path
             d="m 0,0 -0.864,2.621 -4.346,0.377 -1.42,-3.693 0.928,-0.082 -0.23,-2.592 c -0.012,-0.146 0.031,-0.296 0.137,-0.414 l 1.509,-1.731 c 0.207,-0.238 0.577,-0.271 0.824,-0.072 0.047,0.038 0.082,0.083 0.114,0.13 0.08,-0.032 0.168,-0.045 0.26,-0.039 l 1.166,0.096 c 0.321,0.027 0.559,0.298 0.53,0.608 -0.012,0.13 -0.07,0.242 -0.155,0.329 0.148,0.093 0.243,0.262 0.227,0.451 -0.012,0.148 -0.093,0.273 -0.207,0.351 0.18,0.156 0.3,0.38 0.323,0.639 l 0,0.018 c 0.559,0.126 0.989,0.559 1.038,1.111 l 0.11,1.261 c 0.019,0.214 -0.022,0.422 -0.11,0.608 L 0,0 Z"
             style="fill:none;stroke:#231f20;stroke-width:0.96600002;stroke-linecap:butt;stroke-linejoin:miter;stroke-miterlimit:4;stroke-dasharray:none;stroke-opacity:1"
             id="path57149"
             /></g><g
           id="g57151"
           transform="translate(222.7356,93.3886)"><path
             d="m 0,0 c 0.322,0.026 0.607,-0.203 0.636,-0.514 0.03,-0.311 -0.21,-0.582 -0.531,-0.608 l -1.166,-0.096 c -0.321,-0.026 -0.606,0.204 -0.634,0.513 -0.029,0.312 0.208,0.583 0.53,0.609 L 0,0 Z"
             style="fill:#ffffff;fill-opacity:1;fill-rule:nonzero;stroke:none"
             id="path57153"
             /></g><g
           id="g57155"
           transform="translate(222.7356,93.3886)"><path
             d="m 0,0 c 0.322,0.026 0.607,-0.203 0.636,-0.514 0.03,-0.311 -0.21,-0.582 -0.531,-0.608 l -1.166,-0.096 c -0.321,-0.026 -0.606,0.204 -0.634,0.513 -0.029,0.312 0.208,0.583 0.53,0.609 L 0,0 Z"
             style="fill:none;stroke:#231f20;stroke-width:0.96600002;stroke-linecap:butt;stroke-linejoin:miter;stroke-miterlimit:4;stroke-dasharray:none;stroke-opacity:1"
             id="path57157"
             /></g><g
           id="g57159"
           transform="translate(221.3717,92.8735)"><path
             d="m 0,0 c 0.208,-0.24 0.177,-0.595 -0.07,-0.794 -0.247,-0.199 -0.617,-0.166 -0.824,0.071 l -1.509,1.731 c -0.209,0.239 -0.178,0.594 0.068,0.792 0.249,0.201 0.618,0.169 0.826,-0.07 L 0,0 Z"
             style="fill:#ffffff;fill-opacity:1;fill-rule:nonzero;stroke:none"
             id="path57161"
             /></g><g
           id="g57163"
           transform="translate(221.3717,92.8735)"><path
             d="m 0,0 c 0.208,-0.24 0.177,-0.595 -0.07,-0.794 -0.247,-0.199 -0.617,-0.166 -0.824,0.071 l -1.509,1.731 c -0.209,0.239 -0.178,0.594 0.068,0.792 0.249,0.201 0.618,0.169 0.826,-0.07 L 0,0 Z"
             style="fill:none;stroke:#231f20;stroke-width:0.96600002;stroke-linecap:butt;stroke-linejoin:miter;stroke-miterlimit:4;stroke-dasharray:none;stroke-opacity:1"
             id="path57165"
             /></g><g
           id="g57167"
           transform="translate(221.1641,94.0903)"><path
             d="m 0,0 c -0.027,-0.309 -0.572,-0.515 -1.215,-0.46 -0.644,0.057 -1.144,0.354 -1.118,0.664 l 0.299,3.365 C -2.008,3.88 -1.464,4.086 -0.82,4.03 -0.177,3.974 0.324,3.678 0.297,3.367 L 0,0 Z"
             style="fill:#ffffff;fill-opacity:1;fill-rule:nonzero;stroke:none"
             id="path57169"
             /></g><g
           id="g57171"
           transform="translate(221.1641,94.0903)"><path
             d="m 0,0 c -0.027,-0.309 -0.572,-0.515 -1.215,-0.46 -0.644,0.057 -1.144,0.354 -1.118,0.664 l 0.299,3.365 C -2.008,3.88 -1.464,4.086 -0.82,4.03 -0.177,3.974 0.324,3.678 0.297,3.367 L 0,0 Z"
             style="fill:none;stroke:#231f20;stroke-width:0.96600002;stroke-linecap:butt;stroke-linejoin:miter;stroke-miterlimit:4;stroke-dasharray:none;stroke-opacity:1"
             id="path57173"
             /></g><g
           id="g57175"
           transform="translate(222.9384,94.0857)"><path
             d="M 0,0 C 0.258,0.022 0.483,-0.171 0.505,-0.432 0.527,-0.694 0.337,-0.924 0.079,-0.949 l -0.932,-0.084 c -0.256,-0.024 -0.483,0.169 -0.505,0.431 -0.021,0.262 0.169,0.493 0.426,0.515 L 0,0 Z"
             style="fill:#ffffff;fill-opacity:1;fill-rule:nonzero;stroke:none"
             id="path57177"
             /></g><g
           id="g57179"
           transform="translate(222.9384,94.0857)"><path
             d="M 0,0 C 0.258,0.022 0.483,-0.171 0.505,-0.432 0.527,-0.694 0.337,-0.924 0.079,-0.949 l -0.932,-0.084 c -0.256,-0.024 -0.483,0.169 -0.505,0.431 -0.021,0.262 0.169,0.493 0.426,0.515 L 0,0 Z"
             style="fill:none;stroke:#231f20;stroke-width:0.96600002;stroke-linecap:butt;stroke-linejoin:miter;stroke-miterlimit:4;stroke-dasharray:none;stroke-opacity:1"
             id="path57181"
             /></g><g
           id="g57183"
           transform="translate(221.8461,93.6441)"><path
             d="m 0,0 c 0.166,-0.201 0.138,-0.5 -0.06,-0.669 -0.198,-0.17 -0.493,-0.145 -0.657,0.057 l -1.199,1.453 c -0.167,0.2 -0.14,0.502 0.059,0.67 0.198,0.17 0.492,0.143 0.657,-0.057 L 0,0 Z"
             style="fill:#ffffff;fill-opacity:1;fill-rule:nonzero;stroke:none"
             id="path57185"
             /></g><g
           id="g57187"
           transform="translate(221.8461,93.6441)"><path
             d="m 0,0 c 0.166,-0.201 0.138,-0.5 -0.06,-0.669 -0.198,-0.17 -0.493,-0.145 -0.657,0.057 l -1.199,1.453 c -0.167,0.2 -0.14,0.502 0.059,0.67 0.198,0.17 0.492,0.143 0.657,-0.057 L 0,0 Z"
             style="fill:none;stroke:#231f20;stroke-width:0.96600002;stroke-linecap:butt;stroke-linejoin:miter;stroke-miterlimit:4;stroke-dasharray:none;stroke-opacity:1"
             id="path57189"
             /></g><g
           id="g57191"
           transform="translate(221.6848,94.6704)"><path
             d="m 0,0 c -0.022,-0.261 -0.459,-0.439 -0.973,-0.393 -0.515,0.045 -0.912,0.293 -0.889,0.554 l 0.25,2.843 C -1.59,3.266 -1.153,3.442 -0.638,3.397 -0.126,3.352 0.274,3.102 0.25,2.84 L 0,0 Z"
             style="fill:#ffffff;fill-opacity:1;fill-rule:nonzero;stroke:none"
             id="path57193"
             /></g><g
           id="g57195"
           transform="translate(221.6848,94.6704)"><path
             d="m 0,0 c -0.022,-0.261 -0.459,-0.439 -0.973,-0.393 -0.515,0.045 -0.912,0.293 -0.889,0.554 l 0.25,2.843 C -1.59,3.266 -1.153,3.442 -0.638,3.397 -0.126,3.352 0.274,3.102 0.25,2.84 L 0,0 Z"
             style="fill:none;stroke:#231f20;stroke-width:0.96600002;stroke-linecap:butt;stroke-linejoin:miter;stroke-miterlimit:4;stroke-dasharray:none;stroke-opacity:1"
             id="path57197"
             /></g><g
           id="g57199"
           transform="translate(223.56,94.644)"><path
             d="m 0,0 c -0.046,-0.526 -0.502,-0.913 -1.015,-0.868 -0.515,0.043 -0.895,0.505 -0.848,1.028 0.046,0.524 0.5,0.912 1.015,0.867 C -0.334,0.982 0.045,0.521 0,0"
             style="fill:#ffffff;fill-opacity:1;fill-rule:nonzero;stroke:none"
             id="path57201"
             /></g><g
           id="g57203"
           transform="translate(223.56,94.644)"><path
             d="m 0,0 c -0.046,-0.526 -0.502,-0.913 -1.015,-0.868 -0.515,0.043 -0.895,0.505 -0.848,1.028 0.046,0.524 0.5,0.912 1.015,0.867 C -0.334,0.982 0.045,0.521 0,0 Z"
             style="fill:none;stroke:#231f20;stroke-width:0.96600002;stroke-linecap:butt;stroke-linejoin:miter;stroke-miterlimit:4;stroke-dasharray:none;stroke-opacity:1"
             id="path57205"
             /></g><g
           id="g57207"
           transform="translate(224.5976,95.7731)"><path
             d="m 0,0 c -0.062,-0.699 -0.737,-1.211 -1.508,-1.144 -0.772,0.068 -1.347,0.689 -1.286,1.386 l 0.112,1.263 c 0.06,0.696 0.735,1.208 1.507,1.14 C -0.403,2.579 0.173,1.96 0.11,1.261 L 0,0 Z"
             style="fill:#ffffff;fill-opacity:1;fill-rule:nonzero;stroke:none"
             id="path57209"
             /></g><g
           id="g57211"
           transform="translate(224.5976,95.7731)"><path
             d="m 0,0 c -0.062,-0.699 -0.737,-1.211 -1.508,-1.144 -0.772,0.068 -1.347,0.689 -1.286,1.386 l 0.112,1.263 c 0.06,0.696 0.735,1.208 1.507,1.14 C -0.403,2.579 0.173,1.96 0.11,1.261 L 0,0 Z"
             style="fill:none;stroke:#231f20;stroke-width:0.96600002;stroke-linecap:butt;stroke-linejoin:miter;stroke-miterlimit:4;stroke-dasharray:none;stroke-opacity:1"
             id="path57213"
             /></g><g
           id="g57215"
           transform="translate(218.1334,96.9702)"><path
             d="M 0,0 1.087,-0.094 6.63,0.695 5.767,3.317 1.421,3.694 0,0 Z"
             style="fill:#ffffff;fill-opacity:1;fill-rule:nonzero;stroke:none"
             id="path57217"
             /></g><g
           id="g57219"
           transform="translate(218.1334,96.9702)"><path
             d="M 0,0 1.087,-0.094 6.63,0.695 5.767,3.317 1.421,3.694 0,0 Z"
             style="fill:none;stroke:#231f20;stroke-width:0.96600002;stroke-linecap:butt;stroke-linejoin:miter;stroke-miterlimit:4;stroke-dasharray:none;stroke-opacity:1"
             id="path57221"
             /></g><g
           id="g57223"
           transform="translate(218.6814,111.6163)"><path
             d="m 0,0 0.368,-0.033 0.016,0.185 -0.536,0.23 0.032,0.365 0.569,0.134 0.017,0.185 -0.368,0.031 -0.321,0.58 0.692,7.868 -0.368,0.032 -2.753,2.45 0.178,2.013 2.625,0.325 -2.184,2.586 0.746,2.147 3.13,-0.271 -0.919,4.32 1.571,0.97 3.37,-1.768 0.155,3.857 2.105,0.739 3.057,-3.216 1.232,-2.871 L 12.117,19.593 9.762,18.14 9.569,15.944 10.359,16.173 10.692,9.019 9.374,9.509 9.278,8.41 8.709,8.276 8.064,0.958 7.648,0.442 7.278,0.473 7.264,0.29 7.799,0.06 7.768,-0.305 7.198,-0.44 7.182,-0.624 7.55,-0.657 l 0.32,-0.579 -0.853,-9.696 -0.601,-0.501 -6.63,0.576 -1.984,2.752 1.597,7.604 L 0,0 Z"
             style="fill:#ffffff;fill-opacity:1;fill-rule:nonzero;stroke:none"
             id="path57225"
             /></g><g
           id="g57227"
           transform="translate(218.6814,111.6163)"><path
             d="m 0,0 0.368,-0.033 0.016,0.185 -0.536,0.23 0.032,0.365 0.569,0.134 0.017,0.185 -0.368,0.031 -0.321,0.58 0.692,7.868 -0.368,0.032 -2.753,2.45 0.178,2.013 2.625,0.325 -2.184,2.586 0.746,2.147 3.13,-0.271 -0.919,4.32 1.571,0.97 3.37,-1.768 0.155,3.857 2.105,0.739 3.057,-3.216 1.232,-2.871 L 12.117,19.593 9.762,18.14 9.569,15.944 10.359,16.173 10.692,9.019 9.374,9.509 9.278,8.41 8.709,8.276 8.064,0.958 7.648,0.442 7.278,0.473 7.264,0.29 7.799,0.06 7.768,-0.305 7.198,-0.44 7.182,-0.624 7.55,-0.657 l 0.32,-0.579 -0.853,-9.696 -0.601,-0.501 -6.63,0.576 -1.984,2.752 1.597,7.604 L 0,0 Z"
             style="fill:none;stroke:#231f20;stroke-width:0.96600002;stroke-linecap:butt;stroke-linejoin:miter;stroke-miterlimit:4;stroke-dasharray:none;stroke-opacity:1"
             id="path57229"
             /></g><g
           id="g57231"
           transform="translate(261.7162,87.9836)"><path
             d="m 0,0 1.49,0 0.74,-3.674 -0.155,-4.041 0.581,-0.44 4.057,-9.291 0.01,-1.286 -1.198,-1.469 1.013,-4.223 -1.48,-0.735 0.74,-1.287 3.513,-1.468 0.369,-0.918 0.74,-0.366 0,-1.288 -0.37,0 -15.343,0 0,1.469 0.554,0.55 0.185,0.92 1.11,0.55 0,2.388 -0.721,0.185 -0.574,2.57 -2.218,0.366 -1.478,2.389 0.183,10.284 0.237,0.366 -0.606,2.205 0.186,0.734 -0.186,1.285 -0.739,0.551 -0.924,0.735 -0.186,0.183 0.186,0.367 0.554,0.185 -0.185,0.734 -0.326,1.1 -3.372,12.672 10.353,0 L 0,0 Z"
             style="fill:#ffffff;fill-opacity:1;fill-rule:nonzero;stroke:none"
             id="path57233"
             /></g><g
           id="g57235"
           transform="translate(261.7162,87.9836)"><path
             d="m 0,0 1.49,0 0.74,-3.674 -0.155,-4.041 0.581,-0.44 4.057,-9.291 0.01,-1.286 -1.198,-1.469 1.013,-4.223 -1.48,-0.735 0.74,-1.287 3.513,-1.468 0.369,-0.918 0.74,-0.366 0,-1.288 -0.37,0 -15.343,0 0,1.469 0.554,0.55 0.185,0.92 1.11,0.55 0,2.388 -0.721,0.185 -0.574,2.57 -2.218,0.366 -1.478,2.389 0.183,10.284 0.237,0.366 -0.606,2.205 0.186,0.734 -0.186,1.285 -0.739,0.551 -0.924,0.735 -0.186,0.183 0.186,0.367 0.554,0.185 -0.185,0.734 -0.326,1.1 -3.372,12.672 10.353,0 L 0,0 Z"
             style="fill:none;stroke:#231f20;stroke-width:0.96600002;stroke-linecap:butt;stroke-linejoin:miter;stroke-miterlimit:4;stroke-dasharray:none;stroke-opacity:1"
             id="path57237"
             /></g><g
           id="g57239"
           transform="translate(229.4998,87.9836)"><path
             d="m 0,0 -1.49,0 -0.739,-3.674 0.154,-4.041 -0.58,-0.44 -4.058,-9.291 -0.01,-1.286 1.198,-1.469 -1.012,-4.223 1.478,-0.735 -0.739,-1.287 -3.513,-1.468 -0.368,-0.918 -0.741,-0.366 0,-1.288 0.37,0 15.343,0 0,1.469 -0.554,0.55 -0.185,0.92 -1.109,0.55 0,2.388 0.72,0.185 0.574,2.57 2.217,0.366 1.479,2.389 -0.184,10.284 -0.236,0.366 0.607,2.205 -0.187,0.734 0.187,1.285 0.739,0.551 0.924,0.735 0.185,0.183 -0.185,0.367 -0.554,0.185 0.185,0.734 0.325,1.1 3.373,12.672 -10.354,0 L 0,0 Z"
             style="fill:#ffffff;fill-opacity:1;fill-rule:nonzero;stroke:none"
             id="path57241"
             /></g><g
           id="g57243"
           transform="translate(229.4998,87.9836)"><path
             d="m 0,0 -1.49,0 -0.739,-3.674 0.154,-4.041 -0.58,-0.44 -4.058,-9.291 -0.01,-1.286 1.198,-1.469 -1.012,-4.223 1.478,-0.735 -0.739,-1.287 -3.513,-1.468 -0.368,-0.918 -0.741,-0.366 0,-1.288 0.37,0 15.343,0 0,1.469 -0.554,0.55 -0.185,0.92 -1.109,0.55 0,2.388 0.72,0.185 0.574,2.57 2.217,0.366 1.479,2.389 -0.184,10.284 -0.236,0.366 0.607,2.205 -0.187,0.734 0.187,1.285 0.739,0.551 0.924,0.735 0.185,0.183 -0.185,0.367 -0.554,0.185 0.185,0.734 0.325,1.1 3.373,12.672 -10.354,0 L 0,0 Z"
             style="fill:none;stroke:#231f20;stroke-width:0.96600002;stroke-linecap:butt;stroke-linejoin:miter;stroke-miterlimit:4;stroke-dasharray:none;stroke-opacity:1"
             id="path57245"
             /></g><g
           id="g57247"
           transform="translate(239.7843,130.4025)"><path
             d="m 0,0 -2.033,0 -8.504,-0.551 -0.369,-0.549 0.553,-11.937 0.555,-0.551 c 0,0 2.588,-0.367 3.883,-0.551 0.37,-5.51 2.218,-9.183 2.218,-9.183 l -4.454,-0.849 -0.167,-0.252 -0.37,-5.326 0.37,-0.368 9.242,0 0,6.429 L 0,-14.139 0,0 Z"
             style="fill:#ffffff;fill-opacity:1;fill-rule:nonzero;stroke:none"
             id="path57249"
             /></g><g
           id="g57251"
           transform="translate(239.7843,130.4025)"><path
             d="m 0,0 -2.033,0 -8.504,-0.551 -0.369,-0.549 0.553,-11.937 0.555,-0.551 c 0,0 2.588,-0.367 3.883,-0.551 0.37,-5.51 2.218,-9.183 2.218,-9.183 l -4.454,-0.849 -0.167,-0.252 -0.37,-5.326 0.37,-0.368 9.242,0 0,6.429 L 0,-14.139 0,0 Z"
             style="fill:none;stroke:#231f20;stroke-width:0.96600002;stroke-linecap:butt;stroke-linejoin:miter;stroke-miterlimit:4;stroke-dasharray:none;stroke-opacity:1"
             id="path57253"
             /></g><g
           id="g57255"
           transform="translate(251.4318,130.4025)"><path
             d="m 0,0 2.033,0 8.504,-0.551 0.37,-0.549 -0.554,-11.937 -0.556,-0.551 c 0,0 -2.587,-0.367 -3.882,-0.551 -0.37,-5.51 -2.218,-9.183 -2.218,-9.183 l 4.453,-0.849 0.168,-0.252 0.369,-5.326 -0.369,-0.368 -9.243,0 0,6.429 L 0,-14.139 0,0 Z"
             style="fill:#ffffff;fill-opacity:1;fill-rule:nonzero;stroke:none"
             id="path57257"
             /></g><g
           id="g57259"
           transform="translate(251.4318,130.4025)"><path
             d="m 0,0 2.033,0 8.504,-0.551 0.37,-0.549 -0.554,-11.937 -0.556,-0.551 c 0,0 -2.587,-0.367 -3.882,-0.551 -0.37,-5.51 -2.218,-9.183 -2.218,-9.183 l 4.453,-0.849 0.168,-0.252 0.369,-5.326 -0.369,-0.368 -9.243,0 0,6.429 L 0,-14.139 0,0 Z"
             style="fill:none;stroke:#231f20;stroke-width:0.96600002;stroke-linecap:butt;stroke-linejoin:miter;stroke-miterlimit:4;stroke-dasharray:none;stroke-opacity:1"
             id="path57261"
             /></g><g
           id="g57263"
           transform="translate(269.5049,96.0155)"><path
             d="M 0,0 0.106,-1.211 C 0.088,-0.996 -0.002,-0.802 -0.135,-0.654 -0.031,-0.457 0.02,-0.234 0,0 Z"
             style="fill:none;stroke:#231f20;stroke-width:0.96600002;stroke-linecap:butt;stroke-linejoin:miter;stroke-miterlimit:4;stroke-dasharray:none;stroke-opacity:1"
             id="path57265"
             /></g><g
           id="g57267"
           transform="translate(270.0246,94.3262)"><path
             d="m 0,0 -0.407,-0.495 c -0.076,0.092 -0.188,0.156 -0.316,0.168 l -0.012,0.001 c 0.22,0.193 0.351,0.487 0.322,0.804 L -0.401,0.344 C -0.388,0.189 -0.23,0.067 0,0 Z"
             style="fill:none;stroke:#231f20;stroke-width:0.96600002;stroke-linecap:butt;stroke-linejoin:miter;stroke-miterlimit:4;stroke-dasharray:none;stroke-opacity:1"
             id="path57269"
             /></g><g
           id="g57271"
           transform="translate(266.7118,97.6417)"><path
             d="m 0,0 c -0.09,-0.184 -0.131,-0.393 -0.111,-0.608 l 0.11,-1.261 c 0.049,-0.552 0.479,-0.984 1.037,-1.111 0,-0.006 0,-0.012 10e-4,-0.018 0.024,-0.258 0.144,-0.483 0.322,-0.639 -0.114,-0.078 -0.194,-0.202 -0.207,-0.351 -0.014,-0.188 0.08,-0.358 0.228,-0.45 -0.085,-0.088 -0.143,-0.2 -0.154,-0.33 -0.029,-0.31 0.207,-0.581 0.53,-0.607 l 1.165,-0.096 c 0.093,-0.007 0.18,0.007 0.26,0.038 0.032,-0.047 0.067,-0.092 0.114,-0.13 0.247,-0.199 0.617,-0.166 0.825,0.072 l 1.509,1.731 c 0.104,0.119 0.148,0.269 0.136,0.414 L 5.536,-0.752 6.463,-0.671 5.043,3.022 0.696,2.645 -0.167,0.023 0,0 Z"
             style="fill:#ffffff;fill-opacity:1;fill-rule:nonzero;stroke:none"
             id="path57273"
             /></g><g
           id="g57275"
           transform="translate(266.7118,97.6417)"><path
             d="m 0,0 c -0.09,-0.184 -0.131,-0.393 -0.111,-0.608 l 0.11,-1.261 c 0.049,-0.552 0.479,-0.984 1.037,-1.111 0,-0.006 0,-0.012 10e-4,-0.018 0.024,-0.258 0.144,-0.483 0.322,-0.639 -0.114,-0.078 -0.194,-0.202 -0.207,-0.351 -0.014,-0.188 0.08,-0.358 0.228,-0.45 -0.085,-0.088 -0.143,-0.2 -0.154,-0.33 -0.029,-0.31 0.207,-0.581 0.53,-0.607 l 1.165,-0.096 c 0.093,-0.007 0.18,0.007 0.26,0.038 0.032,-0.047 0.067,-0.092 0.114,-0.13 0.247,-0.199 0.617,-0.166 0.825,0.072 l 1.509,1.731 c 0.104,0.119 0.148,0.269 0.136,0.414 L 5.536,-0.752 6.463,-0.671 5.043,3.022 0.696,2.645 -0.167,0.023 0,0 Z"
             style="fill:none;stroke:#231f20;stroke-width:0.96600002;stroke-linecap:butt;stroke-linejoin:miter;stroke-miterlimit:4;stroke-dasharray:none;stroke-opacity:1"
             id="path57277"
             /></g><g
           id="g57279"
           transform="translate(268.573,93.3886)"><path
             d="m 0,0 c -0.322,0.026 -0.607,-0.203 -0.636,-0.514 -0.029,-0.311 0.209,-0.582 0.532,-0.608 l 1.165,-0.096 c 0.321,-0.026 0.605,0.204 0.634,0.513 0.029,0.312 -0.208,0.583 -0.53,0.609 L 0,0 Z"
             style="fill:#ffffff;fill-opacity:1;fill-rule:nonzero;stroke:none"
             id="path57281"
             /></g><g
           id="g57283"
           transform="translate(268.573,93.3886)"><path
             d="m 0,0 c -0.322,0.026 -0.607,-0.203 -0.636,-0.514 -0.029,-0.311 0.209,-0.582 0.532,-0.608 l 1.165,-0.096 c 0.321,-0.026 0.605,0.204 0.634,0.513 0.029,0.312 -0.208,0.583 -0.53,0.609 L 0,0 Z"
             style="fill:none;stroke:#231f20;stroke-width:0.96600002;stroke-linecap:butt;stroke-linejoin:miter;stroke-miterlimit:4;stroke-dasharray:none;stroke-opacity:1"
             id="path57285"
             /></g><g
           id="g57287"
           transform="translate(269.9369,92.8735)"><path
             d="m 0,0 c -0.208,-0.24 -0.177,-0.595 0.07,-0.794 0.247,-0.199 0.617,-0.166 0.824,0.071 l 1.51,1.731 C 2.613,1.247 2.582,1.602 2.334,1.8 2.086,2.001 1.717,1.969 1.509,1.73 L 0,0 Z"
             style="fill:#ffffff;fill-opacity:1;fill-rule:nonzero;stroke:none"
             id="path57289"
             /></g><g
           id="g57291"
           transform="translate(269.9369,92.8735)"><path
             d="m 0,0 c -0.208,-0.24 -0.177,-0.595 0.07,-0.794 0.247,-0.199 0.617,-0.166 0.824,0.071 l 1.51,1.731 C 2.613,1.247 2.582,1.602 2.334,1.8 2.086,2.001 1.717,1.969 1.509,1.73 L 0,0 Z"
             style="fill:none;stroke:#231f20;stroke-width:0.96600002;stroke-linecap:butt;stroke-linejoin:miter;stroke-miterlimit:4;stroke-dasharray:none;stroke-opacity:1"
             id="path57293"
             /></g><g
           id="g57295"
           transform="translate(270.1444,94.0903)"><path
             d="m 0,0 c 0.027,-0.309 0.572,-0.515 1.216,-0.46 0.643,0.057 1.144,0.354 1.117,0.664 L 2.034,3.569 C 2.008,3.88 1.464,4.086 0.82,4.03 0.177,3.974 -0.324,3.678 -0.297,3.367 L 0,0 Z"
             style="fill:#ffffff;fill-opacity:1;fill-rule:nonzero;stroke:none"
             id="path57297"
             /></g><g
           id="g57299"
           transform="translate(270.1444,94.0903)"><path
             d="m 0,0 c 0.027,-0.309 0.572,-0.515 1.216,-0.46 0.643,0.057 1.144,0.354 1.117,0.664 L 2.034,3.569 C 2.008,3.88 1.464,4.086 0.82,4.03 0.177,3.974 -0.324,3.678 -0.297,3.367 L 0,0 Z"
             style="fill:none;stroke:#231f20;stroke-width:0.96600002;stroke-linecap:butt;stroke-linejoin:miter;stroke-miterlimit:4;stroke-dasharray:none;stroke-opacity:1"
             id="path57301"
             /></g><g
           id="g57303"
           transform="translate(268.3701,94.0857)"><path
             d="m 0,0 c -0.257,0.022 -0.483,-0.171 -0.505,-0.432 -0.021,-0.262 0.168,-0.492 0.426,-0.517 l 0.932,-0.084 c 0.256,-0.024 0.484,0.169 0.504,0.431 0.023,0.262 -0.168,0.493 -0.425,0.515 L 0,0 Z"
             style="fill:#ffffff;fill-opacity:1;fill-rule:nonzero;stroke:none"
             id="path57305"
             /></g><g
           id="g57307"
           transform="translate(268.3701,94.0857)"><path
             d="m 0,0 c -0.257,0.022 -0.483,-0.171 -0.505,-0.432 -0.021,-0.262 0.168,-0.492 0.426,-0.517 l 0.932,-0.084 c 0.256,-0.024 0.484,0.169 0.504,0.431 0.023,0.262 -0.168,0.493 -0.425,0.515 L 0,0 Z"
             style="fill:none;stroke:#231f20;stroke-width:0.96600002;stroke-linecap:butt;stroke-linejoin:miter;stroke-miterlimit:4;stroke-dasharray:none;stroke-opacity:1"
             id="path57309"
             /></g><g
           id="g57311"
           transform="translate(269.4625,93.6441)"><path
             d="m 0,0 c -0.165,-0.201 -0.139,-0.5 0.06,-0.669 0.198,-0.17 0.492,-0.145 0.658,0.057 l 1.198,1.453 c 0.166,0.2 0.14,0.502 -0.059,0.67 C 1.66,1.681 1.365,1.654 1.2,1.454 L 0,0 Z"
             style="fill:#ffffff;fill-opacity:1;fill-rule:nonzero;stroke:none"
             id="path57313"
             /></g><g
           id="g57315"
           transform="translate(269.4625,93.6441)"><path
             d="m 0,0 c -0.165,-0.201 -0.139,-0.5 0.06,-0.669 0.198,-0.17 0.492,-0.145 0.658,0.057 l 1.198,1.453 c 0.166,0.2 0.14,0.502 -0.059,0.67 C 1.66,1.681 1.365,1.654 1.2,1.454 L 0,0 Z"
             style="fill:none;stroke:#231f20;stroke-width:0.96600002;stroke-linecap:butt;stroke-linejoin:miter;stroke-miterlimit:4;stroke-dasharray:none;stroke-opacity:1"
             id="path57317"
             /></g><g
           id="g57319"
           transform="translate(269.6237,94.6704)"><path
             d="M 0,0 C 0.022,-0.261 0.459,-0.439 0.974,-0.393 1.487,-0.348 1.885,-0.1 1.862,0.161 L 1.612,3.004 C 1.589,3.266 1.153,3.442 0.639,3.397 0.126,3.352 -0.274,3.102 -0.251,2.84 L 0,0 Z"
             style="fill:#ffffff;fill-opacity:1;fill-rule:nonzero;stroke:none"
             id="path57321"
             /></g><g
           id="g57323"
           transform="translate(269.6237,94.6704)"><path
             d="M 0,0 C 0.022,-0.261 0.459,-0.439 0.974,-0.393 1.487,-0.348 1.885,-0.1 1.862,0.161 L 1.612,3.004 C 1.589,3.266 1.153,3.442 0.639,3.397 0.126,3.352 -0.274,3.102 -0.251,2.84 L 0,0 Z"
             style="fill:none;stroke:#231f20;stroke-width:0.96600002;stroke-linecap:butt;stroke-linejoin:miter;stroke-miterlimit:4;stroke-dasharray:none;stroke-opacity:1"
             id="path57325"
             /></g><g
           id="g57327"
           transform="translate(267.7494,94.644)"><path
             d="M 0,0 C 0.045,-0.526 0.499,-0.913 1.014,-0.868 1.529,-0.825 1.909,-0.363 1.862,0.16 1.817,0.684 1.362,1.072 0.847,1.027 0.333,0.982 -0.047,0.521 0,0"
             style="fill:#ffffff;fill-opacity:1;fill-rule:nonzero;stroke:none"
             id="path57329"
             /></g><g
           id="g57331"
           transform="translate(267.7494,94.644)"><path
             d="M 0,0 C 0.045,-0.526 0.499,-0.913 1.014,-0.868 1.529,-0.825 1.909,-0.363 1.862,0.16 1.817,0.684 1.362,1.072 0.847,1.027 0.333,0.982 -0.047,0.521 0,0 Z"
             style="fill:none;stroke:#231f20;stroke-width:0.96600002;stroke-linecap:butt;stroke-linejoin:miter;stroke-miterlimit:4;stroke-dasharray:none;stroke-opacity:1"
             id="path57333"
             /></g><g
           id="g57335"
           transform="translate(266.7109,95.7731)"><path
             d="m 0,0 c 0.063,-0.699 0.737,-1.211 1.508,-1.144 0.772,0.068 1.347,0.689 1.286,1.386 L 2.682,1.505 C 2.621,2.201 1.947,2.713 1.174,2.645 0.403,2.579 -0.173,1.96 -0.11,1.261 L 0,0 Z"
             style="fill:#ffffff;fill-opacity:1;fill-rule:nonzero;stroke:none"
             id="path57337"
             /></g><g
           id="g57339"
           transform="translate(266.7109,95.7731)"><path
             d="m 0,0 c 0.063,-0.699 0.737,-1.211 1.508,-1.144 0.772,0.068 1.347,0.689 1.286,1.386 L 2.682,1.505 C 2.621,2.201 1.947,2.713 1.174,2.645 0.403,2.579 -0.173,1.96 -0.11,1.261 L 0,0 Z"
             style="fill:none;stroke:#231f20;stroke-width:0.96600002;stroke-linecap:butt;stroke-linejoin:miter;stroke-miterlimit:4;stroke-dasharray:none;stroke-opacity:1"
             id="path57341"
             /></g><g
           id="g57343"
           transform="translate(273.1751,96.9702)"><path
             d="M 0,0 -1.087,-0.094 -6.63,0.695 -5.767,3.317 -1.421,3.694 0,0 Z"
             style="fill:#ffffff;fill-opacity:1;fill-rule:nonzero;stroke:none"
             id="path57345"
             /></g><g
           id="g57347"
           transform="translate(273.1751,96.9702)"><path
             d="M 0,0 -1.087,-0.094 -6.63,0.695 -5.767,3.317 -1.421,3.694 0,0 Z"
             style="fill:none;stroke:#231f20;stroke-width:0.96600002;stroke-linecap:butt;stroke-linejoin:miter;stroke-miterlimit:4;stroke-dasharray:none;stroke-opacity:1"
             id="path57349"
             /></g><g
           id="g57351"
           transform="translate(272.627,111.6163)"><path
             d="m 0,0 -0.368,-0.033 -0.015,0.185 0.534,0.23 -0.031,0.365 -0.568,0.134 -0.017,0.185 0.367,0.031 0.322,0.58 -0.693,7.868 0.368,0.032 2.753,2.45 -0.176,2.013 -2.627,0.325 2.184,2.586 -0.745,2.147 -3.132,-0.271 0.919,4.32 -1.57,0.97 -3.37,-1.768 -0.155,3.857 -2.105,0.739 -3.058,-3.216 -1.232,-2.871 0.297,-1.265 2.356,-1.453 0.193,-2.196 -0.79,0.229 -0.332,-7.154 1.318,0.49 0.096,-1.099 0.568,-0.134 0.645,-7.318 0.417,-0.516 0.368,0.031 0.015,-0.183 -0.535,-0.23 0.032,-0.365 0.568,-0.135 0.017,-0.184 -0.369,-0.033 -0.319,-0.579 0.853,-9.696 0.601,-0.501 6.629,0.576 1.985,2.752 L 0.601,-0.501 0,0 Z"
             style="fill:#ffffff;fill-opacity:1;fill-rule:nonzero;stroke:none"
             id="path57353"
             /></g><g
           id="g57355"
           transform="translate(272.627,111.6163)"><path
             d="m 0,0 -0.368,-0.033 -0.015,0.185 0.534,0.23 -0.031,0.365 -0.568,0.134 -0.017,0.185 0.367,0.031 0.322,0.58 -0.693,7.868 0.368,0.032 2.753,2.45 -0.176,2.013 -2.627,0.325 2.184,2.586 -0.745,2.147 -3.132,-0.271 0.919,4.32 -1.57,0.97 -3.37,-1.768 -0.155,3.857 -2.105,0.739 -3.058,-3.216 -1.232,-2.871 0.297,-1.265 2.356,-1.453 0.193,-2.196 -0.79,0.229 -0.332,-7.154 1.318,0.49 0.096,-1.099 0.568,-0.134 0.645,-7.318 0.417,-0.516 0.368,0.031 0.015,-0.183 -0.535,-0.23 0.032,-0.365 0.568,-0.135 0.017,-0.184 -0.369,-0.033 -0.319,-0.579 0.853,-9.696 0.601,-0.501 6.629,0.576 1.985,2.752 L 0.601,-0.501 0,0 Z"
             style="fill:none;stroke:#231f20;stroke-width:0.96600002;stroke-linecap:butt;stroke-linejoin:miter;stroke-miterlimit:4;stroke-dasharray:none;stroke-opacity:1"
             id="path57357"
             /></g><g
           id="g57359"
           transform="translate(239.7843,130.4025)"><path
             d="m 0,0 0,-14.139 0.924,-9.549 0,-6.245 0.555,-4.957 0.741,-0.736 7.209,0 0.739,0.736 0.555,4.957 0,6.245 0.925,9.549 L 11.648,0 0,0 Z"
             style="fill:#ffffff;fill-opacity:1;fill-rule:nonzero;stroke:none"
             id="path57361"
             /></g><g
           id="g57363"
           transform="translate(239.7843,130.4025)"><path
             d="m 0,0 0,-14.139 0.924,-9.549 0,-6.245 0.555,-4.957 0.741,-0.736 7.209,0 0.739,0.736 0.555,4.957 0,6.245 0.925,9.549 L 11.648,0 0,0 Z"
             style="fill:none;stroke:#231f20;stroke-width:0.96600002;stroke-linecap:butt;stroke-linejoin:miter;stroke-miterlimit:4;stroke-dasharray:none;stroke-opacity:1"
             id="path57365"
             /></g><g
           id="g57367"
           transform="translate(245.6081,124.159)"><path
             d="m 0,0 c -2.98,0 -5.396,1.375 -5.396,6.244 l -1.536,0 0,4.04 0.562,0.553 1.822,0.15 c 0.521,1.331 1.256,2.418 2.125,3.132 l 0.146,1.308 0.591,0.55 3.372,0 0.591,-0.55 0.146,-1.308 c 0.869,-0.714 1.603,-1.801 2.124,-3.132 l 1.823,-0.15 0.563,-0.553 0,-4.04 -1.536,0 C 5.397,1.375 2.981,0 0,0"
             style="fill:#ffffff;fill-opacity:1;fill-rule:nonzero;stroke:none"
             id="path57369"
             /></g><g
           id="g57371"
           transform="translate(245.6081,124.159)"><path
             d="m 0,0 c -2.98,0 -5.396,1.375 -5.396,6.244 l -1.536,0 0,4.04 0.562,0.553 1.822,0.15 c 0.521,1.331 1.256,2.418 2.125,3.132 l 0.146,1.308 0.591,0.55 3.372,0 0.591,-0.55 0.146,-1.308 c 0.869,-0.714 1.603,-1.801 2.124,-3.132 l 1.823,-0.15 0.563,-0.553 0,-4.04 -1.536,0 C 5.397,1.375 2.981,0 0,0 Z"
             style="fill:none;stroke:#231f20;stroke-width:0.96600002;stroke-linecap:butt;stroke-linejoin:miter;stroke-miterlimit:4;stroke-dasharray:none;stroke-opacity:1"
             id="path57373"
             /></g><g
           id="g57375"
           transform="translate(249.6198,127.8962)"><path
             d="M 0,0 C 0.439,1.01 0.702,2.236 0.702,3.622 0.702,4.687 0.546,5.694 0.273,6.605 -0.034,6.713 -0.351,6.81 -0.675,6.894 -0.256,4.936 -0.008,2.561 0,0"
             style="fill:#c8c7c7;fill-opacity:1;fill-rule:nonzero;stroke:none"
             id="path57377"
             /></g><g
           id="g57379"
           transform="translate(241.5972,127.8943)"><path
             d="M 0,0 C 0.006,2.562 0.255,4.938 0.675,6.896 0.35,6.812 0.032,6.715 -0.274,6.607 -0.546,5.696 -0.704,4.688 -0.704,3.624 -0.704,2.237 -0.441,1.011 0,0"
             style="fill:#c8c7c7;fill-opacity:1;fill-rule:nonzero;stroke:none"
             id="path57381"
             /></g><g
           id="g57383"
           transform="translate(248.0445,135.7376)"><path
             d="M 0,0 C -0.315,0.971 -0.708,1.201 -1.152,1.718 -1.564,1.895 -1.996,1.992 -2.435,1.992 -2.876,1.992 -3.306,1.895 -3.718,1.719 -4.162,1.201 -4.556,0.971 -4.871,0 -4.093,0.121 -3.277,0.186 -2.435,0.186 -1.593,0.186 -0.779,0.121 0,0"
             style="fill:#c8c7c7;fill-opacity:1;fill-rule:nonzero;stroke:none"
             id="path57385"
             /></g><g
           id="g57387"
           transform="translate(242.3727,127.634)"><path
             d="m 0,0 c 0.602,-1.015 1.416,-1.901 2.31,-2.19 l 0.224,0.96 1.581,0 0.204,-0.904 c 0.831,0.316 1.588,1.176 2.155,2.133 10e-4,0.176 0.002,0.351 0.002,0.529 0,2.582 -0.261,4.957 -0.7,6.835 C 4.97,7.539 4.119,7.635 3.236,7.635 2.355,7.635 1.502,7.539 0.697,7.363 0.259,5.485 -0.004,3.11 -0.004,0.528 -0.004,0.35 -0.002,0.176 0,0"
             style="fill:#c8c7c7;fill-opacity:1;fill-rule:nonzero;stroke:none"
             id="path57389"
             /></g><g
           id="g57391"
           transform="translate(239.1995,101.8157)"><path
             d="M 0,0 -3.268,3.244 -6.536,0 l 2.179,0 0,-3.246 2.178,0 0,3.246 L 0,0 Z"
             style="fill:#231f20;fill-opacity:1;fill-rule:nonzero;stroke:none"
             id="path57393"
             /></g><g
           id="g57395"
           transform="translate(239.1995,101.8157)"><path
             d="M 0,0 -3.268,3.244 -6.536,0 l 2.179,0 0,-3.246 2.178,0 0,3.246 L 0,0 Z"
             style="fill:none;stroke:#231f20;stroke-width:0.241;stroke-linecap:butt;stroke-linejoin:bevel;stroke-miterlimit:4;stroke-dasharray:none;stroke-opacity:1"
             id="path57397"
             /></g><g
           id="g57399"
           transform="translate(258.645,101.8157)"><path
             d="M 0,0 -3.269,3.244 -6.536,0 l 2.179,0 0,-3.246 2.178,0 0,3.246 L 0,0 Z"
             style="fill:#231f20;fill-opacity:1;fill-rule:nonzero;stroke:none"
             id="path57401"
             /></g><g
           id="g57403"
           transform="translate(258.645,101.8157)"><path
             d="M 0,0 -3.269,3.244 -6.536,0 l 2.179,0 0,-3.246 2.178,0 0,3.246 L 0,0 Z"
             style="fill:none;stroke:#231f20;stroke-width:0.241;stroke-linecap:butt;stroke-linejoin:bevel;stroke-miterlimit:4;stroke-dasharray:none;stroke-opacity:1"
             id="path57405"
             /></g><g
           id="g57407"
           transform="translate(249.7245,116.3657)"><path
             d="M 0,0 -3.269,-3.246 0,-6.493 l 0,2.166 3.269,0 0,2.163 L 0,-2.164 0,0 Z"
             style="fill:#231f20;fill-opacity:1;fill-rule:nonzero;stroke:none"
             id="path57409"
             /></g><g
           id="g57411"
           transform="translate(249.7245,116.3657)"><path
             d="M 0,0 -3.269,-3.246 0,-6.493 l 0,2.166 3.269,0 0,2.163 L 0,-2.164 0,0 Z"
             style="fill:none;stroke:#231f20;stroke-width:0.241;stroke-linecap:butt;stroke-linejoin:bevel;stroke-miterlimit:4;stroke-dasharray:none;stroke-opacity:1"
             id="path57413"
             /></g><g
           id="g57415"
           transform="translate(241.2011,116.3657)"><path
             d="M 0,0 3.269,-3.246 0,-6.493 l 0,2.166 -3.268,0 0,2.163 3.268,0 L 0,0 Z"
             style="fill:#231f20;fill-opacity:1;fill-rule:nonzero;stroke:none"
             id="path57417"
             /></g><g
           id="g57419"
           transform="translate(241.2011,116.3657)"><path
             d="M 0,0 3.269,-3.246 0,-6.493 l 0,2.166 -3.268,0 0,2.163 3.268,0 L 0,0 Z"
             style="fill:none;stroke:#231f20;stroke-width:0.241;stroke-linecap:butt;stroke-linejoin:bevel;stroke-miterlimit:4;stroke-dasharray:none;stroke-opacity:1"
             id="path57421"
             /></g><g
           id="g57423"
           transform="translate(230.9119,127.3132)"><path
             d="M 0,0 3.268,-3.246 0,-6.493 l 0,2.166 -3.269,0 0,2.163 3.269,0 L 0,0 Z"
             style="fill:#231f20;fill-opacity:1;fill-rule:nonzero;stroke:none"
             id="path57425"
             /></g><g
           id="g57427"
           transform="translate(230.9119,127.3132)"><path
             d="M 0,0 3.268,-3.246 0,-6.493 l 0,2.166 -3.269,0 0,2.163 3.269,0 L 0,0 Z"
             style="fill:none;stroke:#231f20;stroke-width:0.241;stroke-linecap:butt;stroke-linejoin:bevel;stroke-miterlimit:4;stroke-dasharray:none;stroke-opacity:1"
             id="path57429"
             /></g><g
           id="g57431"
           transform="translate(260.3976,127.3132)"><path
             d="M 0,0 -3.27,-3.246 0,-6.493 l 0,2.166 3.268,0 0,2.163 L 0,-2.164 0,0 Z"
             style="fill:#231f20;fill-opacity:1;fill-rule:nonzero;stroke:none"
             id="path57433"
             /></g><g
           id="g57435"
           transform="translate(260.3976,127.3132)"><path
             d="M 0,0 -3.27,-3.246 0,-6.493 l 0,2.166 3.268,0 0,2.163 L 0,-2.164 0,0 Z"
             style="fill:none;stroke:#231f20;stroke-width:0.241;stroke-linecap:butt;stroke-linejoin:bevel;stroke-miterlimit:4;stroke-dasharray:none;stroke-opacity:1"
             id="path57437"
             /></g></g></svg>
