<?xml version="1.0" encoding="utf-8"?>
<!DOCTYPE svg PUBLIC "-//W3C//DTD SVG 1.0//EN" "http://www.w3.org/TR/2001/REC-SVG-20010904/DTD/svg10.dtd">
<svg version="1.0" xmlns="http://www.w3.org/2000/svg" xmlns:xlink="http://www.w3.org/1999/xlink" x="0" y="0" width="151" height="169"
     xml:space="preserve">
<g id="internal_diagram_tripod" transform="matrix(1,0,0,-1,-390.22409,379.2819)"><g
         id="g3654"
         transform="translate(477.6598,215.3208)"><path
           d="m 0,0 -0.714,1.85 -2.428,1.11 -0.899,4.812 1.372,0.371 0.183,5.181 1.697,0.741 2.061,4.812 -1.628,20.727 -0.612,0.74 0.385,11.166 -0.647,1.481 -0.114,2.592 -1.27,3.699 2.472,28.796 -16.828,0 2.471,-28.796 -1.269,-3.699 -0.114,-2.592 -0.645,-1.481 0.382,-11.166 -0.611,-0.74 -1.629,-20.727 2.063,-4.812 1.695,-0.741 0.183,-5.181 1.373,-0.371 -0.898,-4.812 -2.43,-1.11 -0.714,-1.85 -1.316,-1.11 -0.553,-2.962 7.602,0 5.648,0 7.602,0 L 1.318,-1.11 0,0 Z"
           style="fill:#c7c8ca;fill-opacity:1;fill-rule:nonzero;stroke:none"
           id="path3656"
            /></g><g
         id="g3658"
         transform="translate(429.039,273.9119)"><path
           d="M 0,0 -0.573,-3.372 -0.1,-4.281 c 0,0 -1.53,-0.28 -1.734,-0.431 -0.206,-0.151 -0.511,-2.531 -0.308,-2.997 0.204,-0.467 1.227,-1.449 1.227,-1.449 l -0.396,-2.243 -1.218,-1.633 -0.938,-3.668 0.41,-1.284 -2.15,-1.898 -4.648,-15.706 0.306,-4.598 2.567,-4.561 -1.084,-6.371 -0.764,-4.496 -10.602,-4.491 0.92,-2.682 23.455,0 0,1.149 -0.92,1.916 -2.605,1.639 1.686,8.32 0.306,0 0,3.448 3.012,0.767 3.047,6.512 0.684,15.801 -0.919,2.204 -0.119,0.85 0.998,4.11 0.499,2.113 0.516,2.623 c 0,0 0.77,0.264 1.327,0.431 0.555,0.167 0.975,2.513 0.509,2.998 -0.466,0.483 -1.072,1.068 -1.072,1.068 l 0.727,0.589 -0.23,1.224 c 0.55,0.588 1.031,1.315 0.984,1.691 -0.059,0.49 -0.142,1.055 -0.188,1.367 l 0.176,0.275 0.765,0.128 1.232,2.769 3.886,2.018 7.239,6.495 1.279,2.229 0.264,1.688 1.064,0.725 10.357,11.575 -11.879,7.817 -2.482,-2.775 -1.467,-0.246 -1.065,-0.724 -2.217,-2.014 -2.019,-2.254 -1.529,-2.175 -0.664,-1.206 -0.55,-2.011 -0.865,-0.966 -0.689,0.159 -0.865,-0.967 0.4,-0.481 -0.575,-0.643 -0.69,0.159 0.112,-0.803 -0.576,-0.644 -0.401,0.481 -0.864,-0.967 0.112,-0.802 L 9.522,13.582 8.92,14.304 7.767,13.015 7.505,11.327 4.911,8.427 4.734,7.302 c 0,0 -1.452,0.574 -1.718,0.543 C 2.749,7.814 1.003,5.713 0.88,5.156 0.757,4.6 0.996,3.102 0.996,3.102 L -0.741,1.182 0,0 Z"
           style="fill:#c7c8ca;fill-opacity:1;fill-rule:nonzero;stroke:none"
           id="path3660"
            /></g><g
         id="g3662"
         transform="translate(509.1689,273.9119)"><path
           d="M 0,0 0.573,-3.372 0.101,-4.281 c 0,0 1.529,-0.28 1.733,-0.431 C 2.04,-4.863 2.345,-7.243 2.142,-7.709 1.938,-8.176 0.915,-9.158 0.915,-9.158 l 0.396,-2.243 1.218,-1.633 0.938,-3.668 -0.41,-1.284 2.15,-1.898 4.648,-15.706 -0.306,-4.598 -2.566,-4.561 1.083,-6.371 0.764,-4.496 10.602,-4.491 -0.92,-2.682 -23.455,0 0,1.149 0.92,1.916 2.605,1.639 -1.686,8.32 -0.306,0 0,3.448 -3.012,0.767 -3.047,6.512 -0.684,15.801 0.919,2.204 0.12,0.85 -0.999,4.11 -0.499,2.113 -0.515,2.623 c 0,0 -0.771,0.264 -1.328,0.431 -0.555,0.167 -0.975,2.513 -0.509,2.998 0.467,0.483 1.072,1.068 1.072,1.068 l -0.726,0.589 0.229,1.224 c -0.549,0.588 -1.031,1.315 -0.984,1.691 0.059,0.49 0.142,1.055 0.188,1.367 l -0.176,0.275 -0.765,0.128 -1.232,2.769 -3.886,2.018 -7.239,6.495 -1.279,2.229 -0.264,1.688 -1.064,0.725 -10.357,11.575 11.879,7.817 2.482,-2.775 1.467,-0.246 1.065,-0.724 2.217,-2.014 2.019,-2.254 1.529,-2.175 0.664,-1.206 0.55,-2.011 0.866,-0.966 0.688,0.159 0.865,-0.967 -0.4,-0.481 0.576,-0.643 0.689,0.159 -0.112,-0.803 0.576,-0.644 0.401,0.481 0.864,-0.967 -0.112,-0.802 1.153,-1.289 0.601,0.722 1.153,-1.289 0.263,-1.688 2.593,-2.9 0.177,-1.125 c 0,0 1.452,0.574 1.718,0.543 C -2.749,7.814 -1.003,5.713 -0.88,5.156 -0.757,4.6 -0.996,3.102 -0.996,3.102 L 0.741,1.182 0,0 Z"
           style="fill:#c7c8ca;fill-opacity:1;fill-rule:nonzero;stroke:none"
           id="path3664"
            /></g><g
         id="g3666"
         transform="translate(482.2483,328.3079)"><path
           d="m 0,0 -2.564,-16.205 -0.019,-13.349 0,-0.766 -1.69,0 0,-0.766 1.263,0 0,-1.149 -1.263,0 0,-0.766 0.855,0 0,-1.15 -0.855,0 0,-0.766 0.855,0 0,-1.149 -2.991,-4.597 -13.671,0 -2.992,4.597 0,1.149 0.855,0 0,0.766 -0.855,0 0,1.15 0.855,0 0,0.766 -1.281,0 0,1.149 1.281,0 0,0.766 -1.709,0 0,0.766 0,13.349 L -26.49,0 l 0,33.335 2.137,1.852 22.216,0 L 0,33.335 0,0 Z"
           style="fill:#c7c8ca;fill-opacity:1;fill-rule:nonzero;stroke:none"
           id="path3668"
            /></g><g
         id="g3670"
         transform="translate(503.9408,352.6729)"><path
           d="m 0,0 c 0.537,0.045 1.058,-0.007 1.549,-0.133 l -0.056,0.647 0.698,0.83 0.041,3.91 0.697,0.83 8.84,0.773 4.016,-1.956 0.172,-1.968 0.863,-1.078 0.1,-1.145 -0.662,-1.212 0.134,-1.527 1.559,-0.247 -0.477,-7.733 -0.383,-0.034 0.135,-1.526 0.381,0.034 -0.08,-3.468 0.267,-3.053 0.83,-0.696 0.1,-1.146 -0.664,-1.211 0.502,-5.725 -0.698,-0.83 0.067,-0.762 1.146,0.1 0.448,-0.729 0.099,-1.146 -0.314,-0.797 -1.144,-0.1 0.099,-1.145 0.831,-0.697 0.201,-2.289 1.626,-1.011 -1.226,-3.569 -0.697,-0.829 0.101,-1.145 -0.764,-0.066 0.067,-0.763 0.763,0.066 0.802,-9.159 -0.946,-2.39 0.067,-0.763 0.797,-0.315 0.1,-1.146 -0.729,-0.448 0.133,-1.525 -0.018,-8.108 -1.642,-3.219 -7.871,-0.863 -0.796,0.314 2.423,3.294 -2.881,5.478 0.004,2.545 0.979,2.008 -1.346,2.189 -0.969,11.067 0.664,1.212 -0.068,0.764 -1.626,1.01 -0.568,6.488 0.698,0.83 -0.101,1.146 -1.145,-0.101 -0.448,0.729 -0.1,1.145 0.314,0.798 1.145,0.099 -0.067,0.763 -0.83,0.697 -0.968,11.067 0.247,1.559 -0.232,2.672 -0.482,1.111 -0.134,1.526 -1.212,0.664 -0.056,0.648 C 1.841,-8.97 1.338,-9.113 0.802,-9.16 0.04,-9.226 -0.694,-9.101 -1.353,-8.827 l 0,8.496 C -0.932,-0.157 -0.477,-0.043 0,0"
           style="fill:#c7c8ca;fill-opacity:1;fill-rule:nonzero;stroke:none"
           id="path3672"
            /></g><g
         id="g3674"
         transform="translate(434.5152,352.6729)"><path
           d="m 0,0 c -0.536,0.045 -1.057,-0.007 -1.549,-0.133 l 0.056,0.647 -0.697,0.83 -0.042,3.91 -0.696,0.83 -8.84,0.773 -4.017,-1.956 -0.172,-1.968 -0.863,-1.078 -0.1,-1.145 0.663,-1.212 -0.134,-1.527 -1.56,-0.247 0.478,-7.733 0.382,-0.034 -0.134,-1.526 -0.382,0.034 0.081,-3.468 -0.267,-3.053 -0.83,-0.696 -0.1,-1.146 0.664,-1.211 -0.502,-5.725 0.698,-0.83 -0.068,-0.762 -1.145,0.1 -0.448,-0.729 -0.1,-1.146 0.315,-0.797 1.144,-0.1 -0.099,-1.145 -0.831,-0.697 -0.201,-2.289 -1.626,-1.011 1.225,-3.569 0.698,-0.829 -0.101,-1.145 0.763,-0.066 -0.066,-0.763 -0.763,0.066 -0.802,-9.159 0.946,-2.39 -0.068,-0.763 -0.797,-0.315 -0.1,-1.146 0.73,-0.448 -0.134,-1.525 0.019,-8.108 1.641,-3.219 7.872,-0.863 0.796,0.314 -2.424,3.294 2.882,5.478 -0.004,2.545 -0.979,2.008 1.346,2.189 0.968,11.067 -0.664,1.212 0.068,0.764 1.626,1.01 0.568,6.488 -0.697,0.83 0.101,1.146 1.144,-0.101 0.449,0.729 0.1,1.145 -0.314,0.798 -1.146,0.099 0.067,0.763 0.831,0.697 0.967,11.067 -0.247,1.559 0.233,2.672 0.481,1.111 0.135,1.526 1.211,0.664 0.056,0.648 c 0.465,-0.21 0.967,-0.353 1.504,-0.4 0.762,-0.066 1.496,0.059 2.155,0.333 l 0,8.496 C 0.933,-0.157 0.478,-0.043 0,0"
           style="fill:#c7c8ca;fill-opacity:1;fill-rule:nonzero;stroke:none"
           id="path3676"
            /></g><g
         id="g3678"
         transform="translate(448.1694,321.3553)"><path
           d="m 0,0 1.15,-0.766 0,-2.298 -0.767,-0.383 0,-1.149 0.767,-0.766 0,-2.299 0.766,-0.766 0.765,0 0,-1.533 -0.765,0 -0.766,-0.766 -8.046,-1.916 -0.383,-0.765 0,-6.456 -0.383,-0.383 0,-0.766 -0.765,-0.384 0,-0.383 0.765,-0.383 0.383,-0.765 -0.383,-2.299 18.388,0 0,15.974 -2.299,16.204 0,29.824 -2.298,0 -0.766,1.149 -5.363,0 -0.766,-1.149 -1.149,0 0,-0.767 -1.533,0 -0.383,0.767 -1.915,0 -0.767,-0.384 -0.766,0.384 -1.914,0 -3.066,-1.15 -0.383,-3.83 -1.532,-0.383 0,-9.194 1.915,-0.766 0,-1.916 1.85,-0.709 0,-3.064 1.183,-6.755 0.384,-3.064 1.149,0 0.383,-1.15 2.681,0 0.766,1.15 0.766,0 2.682,-1.916 0.766,0 0.384,-1.149 1.149,0 L 0,0 Z"
           style="fill:#c7c8ca;fill-opacity:1;fill-rule:nonzero;stroke:none"
           id="path3680"
            /></g><g
         id="g3682"
         transform="translate(490.1593,321.4761)"><path
           d="m 0,0 -1.149,-0.766 0,-2.298 0.765,-0.383 0,-1.149 -0.765,-0.766 0,-2.299 -0.766,-0.766 -0.766,0 0,-1.533 0.766,0 0.766,-0.766 8.045,-1.916 0.383,-0.765 0,-6.456 0.383,-0.383 0,-0.766 0.765,-0.384 0,-0.383 -0.765,-0.383 -0.383,-0.765 0.383,-2.299 -18.388,0 0,15.974 2.299,16.204 0,29.824 2.298,0 0.766,1.149 5.363,0 0.766,-1.149 1.149,0 0,-0.767 1.533,0 0.383,0.767 1.915,0 0.767,-0.384 0.766,0.384 1.915,0 3.064,-1.15 0.384,-3.83 1.532,-0.383 0,-9.194 -1.916,-0.766 0,-1.916 -1.849,-0.709 0,-3.064 -1.183,-6.755 -0.384,-3.064 -1.149,0 -0.383,-1.15 -2.681,0 -0.766,1.15 -0.766,0 -2.682,-1.916 -0.766,0 -0.384,-1.149 -1.149,0 L 0,0 Z"
           style="fill:#c7c8ca;fill-opacity:1;fill-rule:nonzero;stroke:none"
           id="path3684"
            /></g><g
         id="g3686"
         transform="translate(486.7349,358.4925)"><path
           d="m 0,0 0.08,0.136 c -0.139,0.177 -0.301,0.349 -0.466,0.521 l -2.748,4.654 c 0,0 -7.805,6.266 -14.824,6.266 -7.02,0 -14.372,-6.266 -14.372,-6.266 l -2.745,-4.653 c -0.167,-0.172 -0.328,-0.345 -0.468,-0.522 l 0.08,-0.136 -0.08,-0.135 c 0.14,-0.177 0.301,-0.35 0.468,-0.522 l 2.745,-4.653 c 0,0 7.352,-6.266 14.372,-6.266 7.019,0 14.824,6.266 14.824,6.266 l 2.748,4.654 c 0.165,0.172 0.327,0.344 0.466,0.521 L 0,0 Z"
           style="fill:#c7c8ca;fill-opacity:1;fill-rule:nonzero;stroke:none"
           id="path3688"
            /></g><g
         id="g4398"
         transform="translate(473.5524,219.3008)"><path
           d="m 0,0 -0.714,1.85 -2.428,1.11 -0.899,4.812 1.372,0.371 0.183,5.181 1.697,0.741 2.061,4.812 -1.628,20.727 -0.612,0.74 0.384,11.166 -0.646,1.481 -0.114,2.592 -1.27,3.699 2.471,28.796 -16.827,0 2.471,-28.796 -1.269,-3.699 -0.114,-2.592 -0.645,-1.481 0.382,-11.166 -0.611,-0.74 -1.629,-20.727 2.062,-4.812 1.696,-0.741 0.183,-5.181 1.373,-0.371 -0.898,-4.812 -2.43,-1.11 -0.714,-1.85 -1.316,-1.11 -0.553,-2.962 7.602,0 5.648,0 7.602,0 L 1.318,-1.11 0,0 Z"
           style="fill:#ffffff;fill-opacity:1;fill-rule:nonzero;stroke:none"
           id="path4400"
            /></g><g
         id="isOutlineCL"
         transform="translate(473.5524,219.3008)"><path
           d="m 0,0 -0.714,1.85 -2.428,1.11 -0.899,4.812 1.372,0.371 0.183,5.181 1.697,0.741 2.061,4.812 -1.628,20.727 -0.612,0.74 0.384,11.166 -0.646,1.481 -0.114,2.592 -1.27,3.699 2.471,28.796 -16.827,0 2.471,-28.796 -1.269,-3.699 -0.114,-2.592 -0.645,-1.481 0.382,-11.166 -0.611,-0.74 -1.629,-20.727 2.062,-4.812 1.696,-0.741 0.183,-5.181 1.373,-0.371 -0.898,-4.812 -2.43,-1.11 -0.714,-1.85 -1.316,-1.11 -0.553,-2.962 7.602,0 5.648,0 7.602,0 L 1.318,-1.11 0,0 Z"
           style="fill:none;stroke:#000000;stroke-width:1.449;stroke-linecap:butt;stroke-linejoin:miter;stroke-miterlimit:4;stroke-dasharray:none;stroke-opacity:1"
           id="path4404"
            /></g><g
         id="g4406"
         transform="translate(424.9316,277.8919)"><path
           d="m 0,0 -0.573,-3.372 0.472,-0.909 c 0,0 -1.529,-0.28 -1.733,-0.431 -0.206,-0.151 -0.511,-2.531 -0.308,-2.997 0.204,-0.467 1.227,-1.449 1.227,-1.449 l -0.397,-2.243 -1.217,-1.633 -0.938,-3.668 0.41,-1.284 -2.15,-1.898 -4.648,-15.706 0.306,-4.599 2.566,-4.56 -1.083,-6.371 -0.764,-4.496 -10.602,-4.491 0.92,-2.682 23.455,0 0,1.149 -0.92,1.916 -2.605,1.639 1.686,8.32 0.306,0 0,3.448 3.012,0.767 3.047,6.512 0.684,15.801 -0.919,2.204 -0.12,0.849 0.999,4.111 0.499,2.113 0.516,2.623 c 0,0 0.77,0.264 1.326,0.431 0.556,0.167 0.976,2.513 0.51,2.997 -0.466,0.483 -1.073,1.069 -1.073,1.069 l 0.728,0.589 -0.23,1.224 c 0.549,0.588 1.031,1.315 0.984,1.691 -0.059,0.49 -0.142,1.055 -0.188,1.367 l 0.176,0.275 0.765,0.128 1.232,2.769 3.886,2.018 7.239,6.495 1.279,2.229 0.264,1.688 1.064,0.725 10.357,11.575 -11.879,7.817 -2.482,-2.776 -1.467,-0.244 -1.065,-0.724 -2.217,-2.015 -2.019,-2.254 -1.529,-2.175 -0.664,-1.206 -0.55,-2.01 -0.866,-0.967 -0.688,0.159 -0.865,-0.967 0.4,-0.481 -0.575,-0.643 -0.69,0.159 0.112,-0.803 -0.576,-0.644 -0.401,0.481 -0.864,-0.967 0.112,-0.802 L 9.521,13.582 8.92,14.304 7.767,13.015 7.504,11.327 4.911,8.427 4.734,7.302 c 0,0 -1.453,0.574 -1.718,0.543 C 2.749,7.814 1.003,5.713 0.88,5.156 0.757,4.6 0.996,3.102 0.996,3.102 L -0.741,1.182 0,0 Z"
           style="fill:#ffffff;fill-opacity:1;fill-rule:nonzero;stroke:none"
           id="path4408"
            /></g><g
         id="isOutlineLL"
         transform="translate(424.9316,277.8919)"><path
           d="m 0,0 -0.573,-3.372 0.472,-0.909 c 0,0 -1.529,-0.28 -1.733,-0.431 -0.206,-0.151 -0.511,-2.531 -0.308,-2.997 0.204,-0.467 1.227,-1.449 1.227,-1.449 l -0.397,-2.243 -1.217,-1.633 -0.938,-3.668 0.41,-1.284 -2.15,-1.898 -4.648,-15.706 0.306,-4.599 2.566,-4.56 -1.083,-6.371 -0.764,-4.496 -10.602,-4.491 0.92,-2.682 23.455,0 0,1.149 -0.92,1.916 -2.605,1.639 1.686,8.32 0.306,0 0,3.448 3.012,0.767 3.047,6.512 0.684,15.801 -0.919,2.204 -0.12,0.849 0.999,4.111 0.499,2.113 0.516,2.623 c 0,0 0.77,0.264 1.326,0.431 0.556,0.167 0.976,2.513 0.51,2.997 -0.466,0.483 -1.073,1.069 -1.073,1.069 l 0.728,0.589 -0.23,1.224 c 0.549,0.588 1.031,1.315 0.984,1.691 -0.059,0.49 -0.142,1.055 -0.188,1.367 l 0.176,0.275 0.765,0.128 1.232,2.769 3.886,2.018 7.239,6.495 1.279,2.229 0.264,1.688 1.064,0.725 10.357,11.575 -11.879,7.817 -2.482,-2.776 -1.467,-0.244 -1.065,-0.724 -2.217,-2.015 -2.019,-2.254 -1.529,-2.175 -0.664,-1.206 -0.55,-2.01 -0.866,-0.967 -0.688,0.159 -0.865,-0.967 0.4,-0.481 -0.575,-0.643 -0.69,0.159 0.112,-0.803 -0.576,-0.644 -0.401,0.481 -0.864,-0.967 0.112,-0.802 L 9.521,13.582 8.92,14.304 7.767,13.015 7.504,11.327 4.911,8.427 4.734,7.302 c 0,0 -1.453,0.574 -1.718,0.543 C 2.749,7.814 1.003,5.713 0.88,5.156 0.757,4.6 0.996,3.102 0.996,3.102 L -0.741,1.182 0,0 Z"
           style="fill:none;stroke:#000000;stroke-width:1.449;stroke-linecap:butt;stroke-linejoin:miter;stroke-miterlimit:4;stroke-dasharray:none;stroke-opacity:1"
           id="path4412"
            /></g><g
         id="g4414"
         transform="translate(505.0616,277.8919)"><path
           d="M 0,0 0.573,-3.372 0.1,-4.281 c 0,0 1.53,-0.28 1.734,-0.431 C 2.04,-4.863 2.345,-7.243 2.142,-7.709 1.938,-8.176 0.915,-9.158 0.915,-9.158 l 0.396,-2.243 1.218,-1.633 0.938,-3.668 -0.41,-1.284 2.15,-1.898 4.648,-15.706 -0.306,-4.599 -2.566,-4.56 1.083,-6.371 0.764,-4.496 10.602,-4.491 -0.92,-2.682 -23.455,0 0,1.149 0.92,1.916 2.605,1.639 -1.686,8.32 -0.306,0 0,3.448 -3.012,0.767 -3.047,6.512 -0.684,15.801 0.919,2.204 0.119,0.849 -0.998,4.111 -0.499,2.113 -0.516,2.623 c 0,0 -0.77,0.264 -1.327,0.431 -0.555,0.167 -0.975,2.513 -0.509,2.997 0.467,0.483 1.072,1.069 1.072,1.069 l -0.726,0.589 0.229,1.224 c -0.55,0.588 -1.031,1.315 -0.984,1.691 0.059,0.49 0.142,1.055 0.188,1.367 l -0.176,0.275 -0.765,0.128 -1.232,2.769 -3.886,2.018 -7.239,6.495 -1.279,2.229 -0.264,1.688 -1.064,0.725 -10.357,11.575 11.879,7.817 2.482,-2.776 1.467,-0.244 1.065,-0.724 2.217,-2.015 2.019,-2.254 1.529,-2.175 0.664,-1.206 0.55,-2.01 0.865,-0.967 0.689,0.159 0.865,-0.967 -0.4,-0.481 0.576,-0.643 0.689,0.159 -0.112,-0.803 0.576,-0.644 0.401,0.481 0.864,-0.967 -0.112,-0.802 1.153,-1.289 0.601,0.722 1.153,-1.289 0.262,-1.688 2.594,-2.9 0.177,-1.125 c 0,0 1.452,0.574 1.718,0.543 C -2.749,7.814 -1.003,5.713 -0.88,5.156 -0.757,4.6 -0.996,3.102 -0.996,3.102 L 0.741,1.182 0,0 Z"
           style="fill:#ffffff;fill-opacity:1;fill-rule:nonzero;stroke:none"
           id="path4416"
            /></g><g
         id="isOutlineRL"
         transform="translate(505.0616,277.8919)"><path
           d="M 0,0 0.573,-3.372 0.1,-4.281 c 0,0 1.53,-0.28 1.734,-0.431 C 2.04,-4.863 2.345,-7.243 2.142,-7.709 1.938,-8.176 0.915,-9.158 0.915,-9.158 l 0.396,-2.243 1.218,-1.633 0.938,-3.668 -0.41,-1.284 2.15,-1.898 4.648,-15.706 -0.306,-4.599 -2.566,-4.56 1.083,-6.371 0.764,-4.496 10.602,-4.491 -0.92,-2.682 -23.455,0 0,1.149 0.92,1.916 2.605,1.639 -1.686,8.32 -0.306,0 0,3.448 -3.012,0.767 -3.047,6.512 -0.684,15.801 0.919,2.204 0.119,0.849 -0.998,4.111 -0.499,2.113 -0.516,2.623 c 0,0 -0.77,0.264 -1.327,0.431 -0.555,0.167 -0.975,2.513 -0.509,2.997 0.467,0.483 1.072,1.069 1.072,1.069 l -0.726,0.589 0.229,1.224 c -0.55,0.588 -1.031,1.315 -0.984,1.691 0.059,0.49 0.142,1.055 0.188,1.367 l -0.176,0.275 -0.765,0.128 -1.232,2.769 -3.886,2.018 -7.239,6.495 -1.279,2.229 -0.264,1.688 -1.064,0.725 -10.357,11.575 11.879,7.817 2.482,-2.776 1.467,-0.244 1.065,-0.724 2.217,-2.015 2.019,-2.254 1.529,-2.175 0.664,-1.206 0.55,-2.01 0.865,-0.967 0.689,0.159 0.865,-0.967 -0.4,-0.481 0.576,-0.643 0.689,0.159 -0.112,-0.803 0.576,-0.644 0.401,0.481 0.864,-0.967 -0.112,-0.802 1.153,-1.289 0.601,0.722 1.153,-1.289 0.262,-1.688 2.594,-2.9 0.177,-1.125 c 0,0 1.452,0.574 1.718,0.543 C -2.749,7.814 -1.003,5.713 -0.88,5.156 -0.757,4.6 -0.996,3.102 -0.996,3.102 L 0.741,1.182 0,0 Z"
           style="fill:none;stroke:#000000;stroke-width:1.449;stroke-linecap:butt;stroke-linejoin:miter;stroke-miterlimit:4;stroke-dasharray:none;stroke-opacity:1"
           id="path4420"
            /></g><g
         id="g4422"
         transform="translate(478.1409,332.2879)"><path
           d="m 0,0 -2.564,-16.205 -0.019,-13.349 0,-0.766 -1.69,0 0,-0.766 1.263,0 0,-1.149 -1.263,0 0,-0.766 0.855,0 0,-1.15 -0.855,0 0,-0.765 0.855,0 0,-1.15 -2.991,-4.597 -13.671,0 -2.992,4.597 0,1.15 0.855,0 0,0.765 -0.855,0 0,1.15 0.855,0 0,0.766 -1.281,0 0,1.149 1.281,0 0,0.766 -1.709,0 0,0.766 0,13.349 L -26.49,0 l 0,33.335 2.137,1.852 22.216,0 L 0,33.335 0,0 Z"
           style="fill:#ffffff;fill-opacity:1;fill-rule:nonzero;stroke:none"
           id="path4424"
            /></g><g
         id="isOutlineCT"
         transform="translate(478.1409,332.2879)"><path
           d="m 0,0 -2.564,-16.205 -0.019,-13.349 0,-0.766 -1.69,0 0,-0.766 1.263,0 0,-1.149 -1.263,0 0,-0.766 0.855,0 0,-1.15 -0.855,0 0,-0.765 0.855,0 0,-1.15 -2.991,-4.597 -13.671,0 -2.992,4.597 0,1.15 0.855,0 0,0.765 -0.855,0 0,1.15 0.855,0 0,0.766 -1.281,0 0,1.149 1.281,0 0,0.766 -1.709,0 0,0.766 0,13.349 L -26.49,0 l 0,33.335 2.137,1.852 22.216,0 L 0,33.335 0,0 Z"
           style="fill:none;stroke:#000000;stroke-width:1.449;stroke-linecap:round;stroke-linejoin:round;stroke-miterlimit:4;stroke-dasharray:none;stroke-opacity:1"
           id="path4428"
            /></g><g
         id="g4430"
         transform="translate(499.8335,356.653)"><path
           d="m 0,0 c 0.537,0.045 1.058,-0.007 1.549,-0.133 l -0.056,0.647 0.697,0.83 0.041,3.91 0.698,0.83 8.84,0.773 4.016,-1.956 0.171,-1.968 0.864,-1.078 0.1,-1.145 -0.662,-1.212 0.134,-1.527 1.559,-0.247 -0.477,-7.733 -0.383,-0.033 0.135,-1.526 0.38,0.033 -0.08,-3.468 0.268,-3.053 0.83,-0.696 0.1,-1.146 -0.664,-1.21 0.502,-5.726 -0.698,-0.83 0.067,-0.762 1.146,0.1 0.448,-0.729 0.099,-1.146 -0.314,-0.797 -1.144,-0.1 0.099,-1.145 0.83,-0.697 0.201,-2.289 1.627,-1.011 -1.226,-3.569 -0.697,-0.829 0.101,-1.145 -0.764,-0.066 0.067,-0.763 0.763,0.066 0.802,-9.159 -0.946,-2.39 0.067,-0.763 0.797,-0.315 0.101,-1.146 -0.731,-0.448 0.134,-1.525 -0.018,-8.108 -1.642,-3.219 -7.871,-0.863 -0.796,0.314 2.423,3.294 -2.881,5.478 0.004,2.545 0.979,2.008 -1.346,2.189 -0.969,11.067 0.664,1.212 -0.068,0.764 -1.626,1.01 -0.568,6.489 0.698,0.829 -0.101,1.146 -1.145,-0.101 -0.448,0.729 -0.1,1.145 0.314,0.798 1.145,0.099 -0.067,0.763 -0.83,0.697 -0.968,11.067 0.247,1.559 -0.232,2.672 -0.482,1.111 -0.134,1.526 -1.212,0.664 -0.056,0.648 C 1.841,-8.97 1.338,-9.113 0.802,-9.16 0.04,-9.226 -0.694,-9.101 -1.353,-8.827 l 0,8.496 C -0.932,-0.157 -0.477,-0.043 0,0"
           style="fill:#ffffff;fill-opacity:1;fill-rule:nonzero;stroke:none"
           id="path4432"
            /></g><g
         id="isOutlineRA"
         transform="translate(499.8335,356.653)"><path
           d="m 0,0 c 0.537,0.045 1.058,-0.007 1.549,-0.133 l -0.056,0.647 0.697,0.83 0.041,3.91 0.698,0.83 8.84,0.773 4.016,-1.956 0.171,-1.968 0.864,-1.078 0.1,-1.145 -0.662,-1.212 0.134,-1.527 1.559,-0.247 -0.477,-7.733 -0.383,-0.033 0.135,-1.526 0.38,0.033 -0.08,-3.468 0.268,-3.053 0.83,-0.696 0.1,-1.146 -0.664,-1.21 0.502,-5.726 -0.698,-0.83 0.067,-0.762 1.146,0.1 0.448,-0.729 0.099,-1.146 -0.314,-0.797 -1.144,-0.1 0.099,-1.145 0.83,-0.697 0.201,-2.289 1.627,-1.011 -1.226,-3.569 -0.697,-0.829 0.101,-1.145 -0.764,-0.066 0.067,-0.763 0.763,0.066 0.802,-9.159 -0.946,-2.39 0.067,-0.763 0.797,-0.315 0.101,-1.146 -0.731,-0.448 0.134,-1.525 -0.018,-8.108 -1.642,-3.219 -7.871,-0.863 -0.796,0.314 2.423,3.294 -2.881,5.478 0.004,2.545 0.979,2.008 -1.346,2.189 -0.969,11.067 0.664,1.212 -0.068,0.764 -1.626,1.01 -0.568,6.489 0.698,0.829 -0.101,1.146 -1.145,-0.101 -0.448,0.729 -0.1,1.145 0.314,0.798 1.145,0.099 -0.067,0.763 -0.83,0.697 -0.968,11.067 0.247,1.559 -0.232,2.672 -0.482,1.111 -0.134,1.526 -1.212,0.664 -0.056,0.648 C 1.841,-8.97 1.338,-9.113 0.802,-9.16 0.04,-9.226 -0.694,-9.101 -1.353,-8.827 l 0,8.496 C -0.932,-0.157 -0.477,-0.043 0,0 Z"
           style="fill:none;stroke:#000000;stroke-width:1.449;stroke-linecap:butt;stroke-linejoin:miter;stroke-miterlimit:4;stroke-dasharray:none;stroke-opacity:1"
           id="path4436"
            /></g><g
         id="g4438"
         transform="translate(430.4078,356.653)"><path
           d="m 0,0 c -0.536,0.045 -1.057,-0.007 -1.549,-0.133 l 0.056,0.647 -0.697,0.83 -0.042,3.91 -0.696,0.83 -8.84,0.773 -4.017,-1.956 -0.171,-1.968 -0.864,-1.078 -0.1,-1.145 0.663,-1.212 -0.134,-1.527 -1.56,-0.247 0.478,-7.733 0.382,-0.033 -0.134,-1.526 -0.381,0.033 0.08,-3.468 -0.267,-3.053 -0.83,-0.696 -0.1,-1.146 0.664,-1.21 -0.502,-5.726 0.698,-0.83 -0.068,-0.762 -1.145,0.1 -0.448,-0.729 -0.1,-1.146 0.315,-0.797 1.144,-0.1 -0.099,-1.145 -0.831,-0.697 -0.201,-2.289 -1.626,-1.011 1.225,-3.569 0.698,-0.829 -0.101,-1.145 0.764,-0.066 -0.067,-0.763 -0.763,0.066 -0.802,-9.159 0.946,-2.39 -0.068,-0.763 -0.797,-0.315 -0.1,-1.146 0.73,-0.448 -0.134,-1.525 0.019,-8.108 1.641,-3.219 7.872,-0.863 0.796,0.314 -2.424,3.294 2.882,5.478 -0.004,2.545 -0.979,2.008 1.346,2.189 0.968,11.067 -0.664,1.212 0.068,0.764 1.626,1.01 0.568,6.489 -0.697,0.829 0.101,1.146 1.144,-0.101 0.449,0.729 0.1,1.145 -0.314,0.798 -1.146,0.099 0.067,0.763 0.831,0.697 0.967,11.067 -0.247,1.559 0.233,2.672 0.481,1.111 0.135,1.526 1.211,0.664 0.056,0.648 c 0.465,-0.21 0.967,-0.353 1.504,-0.4 0.762,-0.066 1.496,0.059 2.155,0.333 l 0,8.496 C 0.933,-0.157 0.478,-0.043 0,0"
           style="fill:#ffffff;fill-opacity:1;fill-rule:nonzero;stroke:none"
           id="path4440"
            /></g><g
         id="isOutlineLA"
         transform="translate(430.4078,356.653)"><path
           d="m 0,0 c -0.536,0.045 -1.057,-0.007 -1.549,-0.133 l 0.056,0.647 -0.697,0.83 -0.042,3.91 -0.696,0.83 -8.84,0.773 -4.017,-1.956 -0.171,-1.968 -0.864,-1.078 -0.1,-1.145 0.663,-1.212 -0.134,-1.527 -1.56,-0.247 0.478,-7.733 0.382,-0.033 -0.134,-1.526 -0.381,0.033 0.08,-3.468 -0.267,-3.053 -0.83,-0.696 -0.1,-1.146 0.664,-1.21 -0.502,-5.726 0.698,-0.83 -0.068,-0.762 -1.145,0.1 -0.448,-0.729 -0.1,-1.146 0.315,-0.797 1.144,-0.1 -0.099,-1.145 -0.831,-0.697 -0.201,-2.289 -1.626,-1.011 1.225,-3.569 0.698,-0.829 -0.101,-1.145 0.764,-0.066 -0.067,-0.763 -0.763,0.066 -0.802,-9.159 0.946,-2.39 -0.068,-0.763 -0.797,-0.315 -0.1,-1.146 0.73,-0.448 -0.134,-1.525 0.019,-8.108 1.641,-3.219 7.872,-0.863 0.796,0.314 -2.424,3.294 2.882,5.478 -0.004,2.545 -0.979,2.008 1.346,2.189 0.968,11.067 -0.664,1.212 0.068,0.764 1.626,1.01 0.568,6.489 -0.697,0.829 0.101,1.146 1.144,-0.101 0.449,0.729 0.1,1.145 -0.314,0.798 -1.146,0.099 0.067,0.763 0.831,0.697 0.967,11.067 -0.247,1.559 0.233,2.672 0.481,1.111 0.135,1.526 1.211,0.664 0.056,0.648 c 0.465,-0.21 0.967,-0.353 1.504,-0.4 0.762,-0.066 1.496,0.059 2.155,0.333 l 0,8.496 C 0.933,-0.157 0.478,-0.043 0,0 Z"
           style="fill:none;stroke:#000000;stroke-width:1.449;stroke-linecap:butt;stroke-linejoin:miter;stroke-miterlimit:4;stroke-dasharray:none;stroke-opacity:1"
           id="path4444"
            /></g><g
         id="g4446"
         transform="translate(444.062,325.3353)"><path
           d="m 0,0 1.149,-0.766 0,-2.298 -0.766,-0.383 0,-1.149 0.766,-0.766 0,-2.299 0.766,-0.766 0.766,0 0,-1.533 -0.766,0 -0.766,-0.766 -8.045,-1.916 -0.383,-0.765 0,-6.456 -0.383,-0.383 0,-0.766 -0.765,-0.384 0,-0.383 0.765,-0.383 0.383,-0.765 -0.383,-2.299 18.388,0 0,15.974 -2.299,16.204 0,29.824 -2.298,0 -0.766,1.149 -5.363,0 -0.766,-1.149 -1.149,0 0,-0.767 -1.533,0 -0.383,0.767 -1.915,0 -0.767,-0.384 -0.766,0.384 -1.915,0 -3.065,-1.15 -0.383,-3.83 -1.532,-0.383 0,-9.194 1.915,-0.766 0,-1.916 1.85,-0.709 0,-3.064 1.183,-6.755 0.384,-3.064 1.149,0 0.383,-1.15 2.681,0 0.766,1.15 0.766,0 2.682,-1.916 0.766,0 0.384,-1.148 1.149,0 L 0,0 Z"
           style="fill:#ffffff;fill-opacity:1;fill-rule:nonzero;stroke:none"
           id="path4448"
            /></g><g
         id="isOutlineLT"
         transform="translate(444.062,325.3353)"><path
           d="m 0,0 1.149,-0.766 0,-2.298 -0.766,-0.383 0,-1.149 0.766,-0.766 0,-2.299 0.766,-0.766 0.766,0 0,-1.533 -0.766,0 -0.766,-0.766 -8.045,-1.916 -0.383,-0.765 0,-6.456 -0.383,-0.383 0,-0.766 -0.765,-0.384 0,-0.383 0.765,-0.383 0.383,-0.765 -0.383,-2.299 18.388,0 0,15.974 -2.299,16.204 0,29.824 -2.298,0 -0.766,1.149 -5.363,0 -0.766,-1.149 -1.149,0 0,-0.767 -1.533,0 -0.383,0.767 -1.915,0 -0.767,-0.384 -0.766,0.384 -1.915,0 -3.065,-1.15 -0.383,-3.83 -1.532,-0.383 0,-9.194 1.915,-0.766 0,-1.916 1.85,-0.709 0,-3.064 1.183,-6.755 0.384,-3.064 1.149,0 0.383,-1.15 2.681,0 0.766,1.15 0.766,0 2.682,-1.916 0.766,0 0.384,-1.148 1.149,0 L 0,0 Z"
           style="fill:none;stroke:#000000;stroke-width:1.449;stroke-linecap:round;stroke-linejoin:round;stroke-miterlimit:4;stroke-dasharray:none;stroke-opacity:1"
           id="path4452"
            /></g><g
         id="g4454"
         transform="translate(486.0519,325.4561)"><path
           d="m 0,0 -1.149,-0.766 0,-2.298 0.766,-0.383 0,-1.149 -0.766,-0.766 0,-2.299 -0.766,-0.766 -0.766,0 0,-1.533 0.766,0 0.766,-0.766 8.045,-1.916 0.383,-0.765 0,-6.456 0.383,-0.383 0,-0.766 0.765,-0.384 0,-0.383 -0.765,-0.383 -0.383,-0.765 0.383,-2.299 -18.388,0 0,15.974 2.299,16.204 0,29.824 2.298,0 0.766,1.149 5.363,0 0.766,-1.149 1.149,0 0,-0.767 1.533,0 0.383,0.767 1.915,0 0.767,-0.384 0.766,0.384 1.915,0 3.065,-1.15 0.383,-3.83 1.532,-0.383 0,-9.194 -1.915,-0.766 0,-1.916 -1.85,-0.709 0,-3.064 -1.183,-6.755 -0.384,-3.064 -1.149,0 -0.383,-1.15 -2.681,0 -0.766,1.15 -0.766,0 -2.682,-1.916 -0.766,0 -0.384,-1.148 -1.149,0 L 0,0 Z"
           style="fill:#ffffff;fill-opacity:1;fill-rule:nonzero;stroke:none"
           id="path4456"
            /></g><g
         id="isOutlineRT"
         transform="translate(486.0519,325.4561)"><path
           d="m 0,0 -1.149,-0.766 0,-2.298 0.766,-0.383 0,-1.149 -0.766,-0.766 0,-2.299 -0.766,-0.766 -0.766,0 0,-1.533 0.766,0 0.766,-0.766 8.045,-1.916 0.383,-0.765 0,-6.456 0.383,-0.383 0,-0.766 0.765,-0.384 0,-0.383 -0.765,-0.383 -0.383,-0.765 0.383,-2.299 -18.388,0 0,15.974 2.299,16.204 0,29.824 2.298,0 0.766,1.149 5.363,0 0.766,-1.149 1.149,0 0,-0.767 1.533,0 0.383,0.767 1.915,0 0.767,-0.384 0.766,0.384 1.915,0 3.065,-1.15 0.383,-3.83 1.532,-0.383 0,-9.194 -1.915,-0.766 0,-1.916 -1.85,-0.709 0,-3.064 -1.183,-6.755 -0.384,-3.064 -1.149,0 -0.383,-1.15 -2.681,0 -0.766,1.15 -0.766,0 -2.682,-1.916 -0.766,0 -0.384,-1.148 -1.149,0 L 0,0 Z"
           style="fill:none;stroke:#000000;stroke-width:1.449;stroke-linecap:round;stroke-linejoin:round;stroke-miterlimit:4;stroke-dasharray:none;stroke-opacity:1"
           id="path4460"
            /></g><g
         id="g4462"
         transform="translate(482.6275,362.4727)"><path
           d="m 0,0 0.08,0.136 c -0.139,0.177 -0.302,0.349 -0.466,0.521 l -2.748,4.654 c 0,0 -7.805,6.266 -14.824,6.266 -7.019,0 -14.372,-6.266 -14.372,-6.266 l -2.746,-4.653 c -0.165,-0.172 -0.327,-0.345 -0.467,-0.522 l 0.08,-0.136 -0.08,-0.135 c 0.14,-0.177 0.302,-0.35 0.467,-0.522 l 2.746,-4.653 c 0,0 7.353,-6.266 14.372,-6.266 7.019,0 14.824,6.266 14.824,6.266 l 2.748,4.654 c 0.164,0.172 0.327,0.344 0.466,0.521 L 0,0 Z"
           style="fill:#ffffff;fill-opacity:1;fill-rule:nonzero;stroke:none"
           id="path4464"
            /></g><g
         id="isOutlineHD"
         transform="translate(482.6275,362.4727)"><path
           d="m 0,0 0.08,0.136 c -0.139,0.177 -0.302,0.349 -0.466,0.521 l -2.748,4.654 c 0,0 -7.805,6.266 -14.824,6.266 -7.019,0 -14.372,-6.266 -14.372,-6.266 l -2.746,-4.653 c -0.165,-0.172 -0.327,-0.345 -0.467,-0.522 l 0.08,-0.136 -0.08,-0.135 c 0.14,-0.177 0.302,-0.35 0.467,-0.522 l 2.746,-4.653 c 0,0 7.353,-6.266 14.372,-6.266 7.019,0 14.824,6.266 14.824,6.266 l 2.748,4.654 c 0.164,0.172 0.327,0.344 0.466,0.521 L 0,0 Z"
           style="fill:none;stroke:#000000;stroke-width:1.449;stroke-linecap:butt;stroke-linejoin:miter;stroke-miterlimit:4;stroke-dasharray:none;stroke-opacity:1"
           id="path4468"
            /></g><g><text
       transform="matrix(0.99810214,0,0,-1,442.4658,375.4193)"
       style="font-variant:normal;font-weight:bold;font-stretch:normal;font-size:5.796px;font-family:Eurostile;writing-mode:lr-tb;fill:#000000;fill-opacity:1;fill-rule:nonzero;stroke:none"
       id="text6292"><tspan
         x="0 4.3470001 7.6217399 10.92546"
         y="0"
         id="tspan6294">Head</tspan><tspan
         x="33.529861 37.384201 40.658939 44.020618 46.141956 49.416695"
         y="117.74574"
         id="tspan6296">Center</tspan><tspan
         x="35.204903 38.015965 41.319683 43.881516 46.993969"
         y="126.26006"
         id="tspan6298">Torso</tspan><tspan
         x="-51.485867 -48.251701 -44.976959 -43.226566"
         y="67.859566"
         id="tspan6300">Left</tspan><tspan
         x="-52.227757 -48.257496 -45.695663"
         y="76.373894"
         id="tspan6302">Arm</tspan><tspan
         x="84.876625 88.939621 90.18576 93.506866 96.868546"
         y="68.311653"
         id="tspan6304">Right</tspan><tspan
         x="86.006844 89.977104 92.538933"
         y="76.825981"
         id="tspan6306">Arm</tspan><tspan
         x="-43.927883 -40.693714 -37.418976 -35.668583 -33.547249 -31.547628 -28.736568 -25.432848 -22.871016 -19.758564 49.387714 53.45071 54.696854 58.01796 61.379639 63.500977 65.500595 68.311653 71.615379 74.177208 77.289658"
         y="8.2187281"
         id="tspan6308">Left TorsoRight Torso</tspan><tspan
         x="-40.166279 -36.932114 -33.657372 -31.906981"
         y="125.96447"
         id="tspan6310">Left</tspan><tspan
         x="-39.893867 -36.659698 -33.38496"
         y="134.47879"
         id="tspan6312">Leg</tspan></text>
<text
       transform="matrix(0.99810214,0,0,-1,436.6827,249.459)"
       style="font-variant:normal;font-weight:bold;font-stretch:normal;font-size:5.796px;font-family:Eurostile;writing-mode:lr-tb;fill:#000000;fill-opacity:1;fill-rule:nonzero;stroke:none"
       id="text6330"><tspan
         x="0 3.8543401 7.1290798 10.49076 12.612096 15.886836"
         y="0"
         id="tspan6332">Center</tspan><tspan
         x="4.306428 7.540596 10.815336"
         y="8.5143242"
         id="tspan6334">Leg</tspan></text>
<text
       transform="matrix(0.99810214,0,0,-1,516.8875,249.459)"
       style="font-variant:normal;font-weight:bold;font-stretch:normal;font-size:5.796px;font-family:Eurostile;writing-mode:lr-tb;fill:#000000;fill-opacity:1;fill-rule:nonzero;stroke:none"
       id="text6352"><tspan
         x="0 4.0629959 5.3091359 8.6302443 11.991924"
         y="0"
         id="tspan6354">Right</tspan><tspan
         x="2.14452 5.3786879 8.6534281"
         y="8.5143242"
         id="tspan6356">Leg</tspan></text></g><g transform="matrix(1,0,0,-1,0,767.9713)"><g
     id="structurePips" transform="translate(0,2)"><g
       id="isPipsHD"><g
         id="g5600"
         transform="translate(469.0506,405.3801)"><path
           d="m 0,0 c -0.96,0 -1.76,0.8 -1.76,1.759 0,0.959 0.8,1.76 1.76,1.76 0.959,0 1.758,-0.801 1.758,-1.76 C 1.758,0.8 0.959,0 0,0 Z"
           style="fill:none;stroke:#000000;stroke-width:0.48699999;stroke-linecap:butt;stroke-linejoin:miter;stroke-miterlimit:2.41400003;stroke-dasharray:none;stroke-opacity:1"
           id="path5602"
            /></g><g
         id="g5604"
         transform="translate(464.8961,397.9709)"><path
           d="m 0,0 c -0.961,0 -1.761,0.8 -1.761,1.758 0,0.96 0.8,1.761 1.761,1.761 0.959,0 1.758,-0.801 1.758,-1.761 C 1.758,0.8 0.959,0 0,0 Z"
           style="fill:none;stroke:#000000;stroke-width:0.48699999;stroke-linecap:butt;stroke-linejoin:miter;stroke-miterlimit:2.41400003;stroke-dasharray:none;stroke-opacity:1"
           id="path5606"
            /></g><g
         id="g5608"
         transform="translate(460.934,405.3801)"><path
           d="m 0,0 c -0.96,0 -1.76,0.8 -1.76,1.759 0,0.959 0.8,1.76 1.76,1.76 0.959,0 1.758,-0.801 1.758,-1.76 C 1.758,0.8 0.959,0 0,0 Z"
           style="fill:none;stroke:#000000;stroke-width:0.48699999;stroke-linecap:butt;stroke-linejoin:miter;stroke-miterlimit:2.41400003;stroke-dasharray:none;stroke-opacity:1"
           id="path5610"
            /></g></g><g
       id="isPipsHD_SH"
       visibility="hidden"><g
         transform="translate(469.0506,405.3801)"
         id="g2043"><path
           d="m 0,0 c -0.96,0 -1.76,0.8 -1.76,1.759 0,0.959 0.8,1.76 1.76,1.76 0.959,0 1.758,-0.801 1.758,-1.76 C 1.758,0.8 0.959,0 0,0 Z"
           style="fill:none;stroke:#000000;stroke-width:0.48699999;stroke-linecap:butt;stroke-linejoin:miter;stroke-miterlimit:2.41400003;stroke-dasharray:none;stroke-opacity:1"
           
           id="path2045" /></g><g
         transform="translate(469.0506,397.9709)"
         id="g2047"><path
           d="m 0,0 c -0.961,0 -1.761,0.8 -1.761,1.758 0,0.96 0.8,1.761 1.761,1.761 0.959,0 1.758,-0.801 1.758,-1.761 C 1.758,0.8 0.959,0 0,0 Z"
           style="fill:none;stroke:#000000;stroke-width:0.48699999;stroke-linecap:butt;stroke-linejoin:miter;stroke-miterlimit:2.41400003;stroke-dasharray:none;stroke-opacity:1"
           
           id="path2049" /></g><g
         transform="translate(460.934,397.9709)"
         id="g2051"><path
           d="m 0,0 c -0.961,0 -1.761,0.8 -1.761,1.758 0,0.96 0.8,1.761 1.761,1.761 0.959,0 1.758,-0.801 1.758,-1.761 C 1.758,0.8 0.959,0 0,0 Z"
           style="fill:none;stroke:#000000;stroke-width:0.48699999;stroke-linecap:butt;stroke-linejoin:miter;stroke-miterlimit:2.41400003;stroke-dasharray:none;stroke-opacity:1"
           
           id="path2053" /></g><g
         id="g2055"
         transform="translate(460.934,405.3801)"><path
           d="m 0,0 c -0.96,0 -1.76,0.8 -1.76,1.759 0,0.959 0.8,1.76 1.76,1.76 0.959,0 1.758,-0.801 1.758,-1.76 C 1.758,0.8 0.959,0 0,0 Z"
           style="fill:none;stroke:#000000;stroke-width:0.48699999;stroke-linecap:butt;stroke-linejoin:miter;stroke-miterlimit:2.41400003;stroke-dasharray:none;stroke-opacity:1"
           
           id="path2057" /></g></g><g
       id="isPipsCT"
       fill="none"
       transform="translate(453.795,415.4)"><rect
         x="0"
         y="0"
         width="22.28"
         height="5.4313"
         id="isCTRow00" /><rect
         x="0"
         y="4.7035"
         width="22.28"
         height="5.4313"
         id="isCTRow01" /><rect
         x="0"
         y="9.4070"
         width="22.28"
         height="5.4313"
         id="isCTRow02" /><rect
         x="0"
         y="14.1105"
         width="22.28"
         height="5.4313"
         id="isCTRow03" /><rect
         x="1.01"
         y="18.8140"
         width="19.78"
         height="5.4313"
         id="isCTRow04" /><rect
         x="1.64"
         y="23.5175"
         width="19"
         height="5.4313"
         id="isCTRow05" /><rect
         x="2.02"
         y="28.2210"
         width="18.24"
         height="5.4313"
         id="isCTRow06" /><rect
         x="2.4"
         y="32.9245"
         width="17.48"
         height="5.4313"
         id="isCTRow07" /><rect
         x="2.4"
         y="37.6280"
         width="17.48"
         height="5.4313"
         id="isCTRow08" /><rect
         x="2.4"
         y="42.3316"
         width="17.48"
         height="5.4313"
         id="isCTRow09" /><rect
         x="3.92"
         y="47.0351"
         width="14.44"
         height="5.4313"
         id="isCTRow10" /><rect
         x="3.92"
         y="51.7386"
         width="14.44"
         height="5.4313"
         id="isCTRow11" /></g><g
       id="isPipsRT"
       fill="none"
       transform="translate(476.3,405.44)"><rect
         x="5.9"
         y="0"
         width="15.14"
         height="5.4313"
         id="isRTRow00" /><rect
         x="2.15"
         y="4.7035"
         width="20.64"
         height="5.4313"
         id="isRTRow01" /><rect
         x="2.15"
         y="9.4070"
         width="19.25"
         height="5.4313"
         id="isRTRow02" /><rect
         x="2.15"
         y="14.1105"
         width="16.49"
         height="5.4313"
         id="isRTRow03" /><rect
         x="2.15"
         y="18.8140"
         width="15.95"
         height="5.4313"
         id="isRTRow04" /><rect
         x="2.15"
         y="23.5175"
         width="8.23"
         height="5.4313"
         id="isRTRow05" /><rect
         x="2.15"
         y="28.2210"
         width="4.92"
         height="5.4313"
         id="isRTRow06" /><rect
         x="1.52"
         y="32.9245"
         width="6.45"
         height="5.4313"
         id="isRTRow07" /><rect
         x="1.01"
         y="37.6280"
         width="5.19"
         height="5.4313"
         id="isRTRow08" /><rect
         x="0.25"
         y="42.3316"
         width="5.83"
         height="5.4313"
         id="isRTRow09" /><rect
         x="0"
         y="47.0351"
         width="16.21"
         height="5.4313"
         id="isRTRow10" /><rect
         x="0"
         y="51.7386"
         width="16.21"
         height="5.4313"
         id="isRTRow11" /></g><g
       id="isPipsLT"
       fill="none"
       transform="matrix(-1,0,0,1,453.57,405.44)"><rect
         x="5.9"
         y="0"
         width="15.14"
         height="5.4313"
         id="rect2086" /><rect
         x="2.15"
         y="4.7035"
         width="20.64"
         height="5.4313"
         id="rect2088" /><rect
         x="2.15"
         y="9.4070"
         width="19.25"
         height="5.4313"
         id="rect2090" /><rect
         x="2.15"
         y="14.1105"
         width="16.49"
         height="5.4313"
         id="rect2092" /><rect
         x="2.15"
         y="18.8140"
         width="15.95"
         height="5.4313"
         id="rect2094" /><rect
         x="2.15"
         y="23.5175"
         width="8.23"
         height="5.4313"
         id="rect2096" /><rect
         x="2.15"
         y="28.2210"
         width="4.92"
         height="5.4313"
         id="rect2098" /><rect
         x="1.52"
         y="32.9245"
         width="6.45"
         height="5.4313"
         id="rect2100" /><rect
         x="1.01"
         y="37.6280"
         width="5.19"
         height="5.4313"
         id="rect2102" /><rect
         x="0.25"
         y="42.3316"
         width="5.83"
         height="5.4313"
         id="rect2104" /><rect
         x="0"
         y="47.0351"
         width="16.21"
         height="5.4313"
         id="rect2106" /><rect
         x="0"
         y="51.7386"
         width="16.21"
         height="5.4313"
         id="rect2108" /></g><g
       id="isPipsRA"
       fill="none"
       transform="matrix(0.9962,-0.08715,0.08715,0.99619,504.51,405.015)"><rect
         x="0"
         y="0"
         width="9.85"
         height="5.4313"
         id="rect2111" /><rect
         x="0"
         y="4.7035"
         width="9.85"
         height="5.4313"
         id="isRARow01" /><rect
         x="0"
         y="9.4070"
         width="10.61"
         height="5.4313"
         id="isRARow02" /><rect
         x="0"
         y="14.1105"
         width="9.71"
         height="5.4313"
         id="isRARow03" /><rect
         x="0"
         y="18.8140"
         width="9.71"
         height="5.4313"
         id="isRARow04" /><rect
         x="0"
         y="23.5175"
         width="9.49"
         height="5.4313"
         id="isRARow05" /><rect
         x="0"
         y="28.2210"
         width="10.61"
         height="5.4313"
         id="isRARow06" /><rect
         x="0"
         y="32.9245"
         width="9.22"
         height="5.4313"
         id="isRARow07" /><rect
         x="0"
         y="37.6280"
         width="10.61"
         height="5.4313"
         id="isRARow08" /><rect
         x="0"
         y="42.3316"
         width="8.71"
         height="5.4313"
         id="isRARow09" /><rect
         x="0"
         y="47.0351"
         width="8.71"
         height="5.4313"
         id="isRARow10" /><rect
         x="0"
         y="51.7386"
         width="8.71"
         height="5.4313"
         id="isRARow11" /><rect
         x="0.65"
         y="56.4421"
         width="7.81"
         height="5.4313"
         id="isRARow12" /><rect
         x="0.9"
         y="61.1456"
         width="7.63"
         height="5.4313"
         id="isRARow13" /><rect
         x="2.46"
         y="65.8491"
         width="6.07"
         height="5.4313"
         id="isRARow14" /></g><g
       id="isPipsLA"
       fill="none"
       transform="matrix(-0.9962,-0.08715,-0.08715,0.99619,425.36,405.015)"><rect
         x="0"
         y="0"
         width="9.85"
         height="5.4313"
         id="isLARow00" /><rect
         x="0"
         y="4.7035"
         width="9.85"
         height="5.4313"
         id="isLARow01" /><rect
         x="0"
         y="9.4070"
         width="10.61"
         height="5.4313"
         id="isLARow02" /><rect
         x="0"
         y="14.1105"
         width="9.71"
         height="5.4313"
         id="isLARow03" /><rect
         x="0"
         y="18.8140"
         width="9.71"
         height="5.4313"
         id="isLARow04" /><rect
         x="0"
         y="23.5175"
         width="9.49"
         height="5.4313"
         id="isLARow05" /><rect
         x="0"
         y="28.2210"
         width="10.61"
         height="5.4313"
         id="isLARow06" /><rect
         x="0"
         y="32.9245"
         width="9.22"
         height="5.4313"
         id="isLARow07" /><rect
         x="0"
         y="37.6280"
         width="10.61"
         height="5.4313"
         id="isLARow08" /><rect
         x="0"
         y="42.3316"
         width="8.71"
         height="5.4313"
         id="isLARow09" /><rect
         x="0"
         y="47.0351"
         width="8.71"
         height="5.4313"
         id="isLARow10" /><rect
         x="0"
         y="51.7386"
         width="8.71"
         height="5.4313"
         id="isLARow11" /><rect
         x="0.65"
         y="56.4421"
         width="7.81"
         height="5.4313"
         id="isLARow12" /><rect
         x="0.9"
         y="61.1456"
         width="7.63"
         height="5.4313"
         id="isLARow13" /><rect
         x="2.46"
         y="65.8491"
         width="6.07"
         height="5.4313"
         id="isLARow14" /></g><g
       id="isPipsRL"
       fill="none"
       transform="translate(466.8716,445.7581)"><rect
         x="10.555143"
         y="21.282909"
         width="12.152316"
         height="5.431300"
         id="rect2144" /><rect
         x="13.112778"
         y="25.986414"
         width="14.01"
         height="5.431300"
         id="rect2146" /><rect
         x="18.355069"
         y="30.689920"
         width="13.706105"
         height="5.431300"
         id="rect2148" /><rect
         x="23.662981"
         y="35.393426"
         width="12.814838"
         height="5.431300"
         id="rect2150" /><rect
         x="27.404597"
         y="40.096932"
         width="12.113028"
         height="5.431300"
         id="rect2152" /><rect
         x="27.750276"
         y="44.800438"
         width="11.857555"
         height="5.431300"
         id="rect2154" /><rect
         x="29.640571"
         y="49.503943"
         width="9.65877"
         height="5.431300"
         id="rect2156" /><rect
         x="30.776998"
         y="54.207449"
         width="10.000580"
         height="5.431300"
         id="rect2158" /><rect
         x="30.600317"
         y="58.910955"
         width="10.562454"
         height="5.431300"
         id="rect2160" /><rect
         x="30.059245"
         y="63.614461"
         width="14.213052"
         height="5.431300"
         id="rect2162" /><rect
         x="30.262853"
         y="68.317967"
         width="13.851390"
         height="5.431300"
         id="rect2164" /><rect
         x="30.466460"
         y="73.021472"
         width="17.623855"
         height="5.431300"
         id="rect2166" /><rect
         x="31.774081"
         y="77.724978"
         width="14.972836"
         height="5.431300"
         id="rect2168" /><rect
         x="36.536998"
         y="82.428484"
         width="9.475974"
         height="5.431300"
         id="rect2170" /><rect
         x="37.474637"
         y="87.131990"
         width="8.157774"
         height="5.431300"
         id="rect2172" /><rect
         x="37.837776"
         y="91.835496"
         width="8.670962"
         height="5.431300"
         id="rect2174" /><rect
         x="38.280292"
         y="96.539001"
         width="8.598014"
         height="5.431300"
         id="rect2176" /></g><g
       id="isPipsLL"
       fill="none"
       transform="matrix(-1,0,0,1,462.9984,445.7581)"><rect
         x="10.555143"
         y="21.282909"
         width="12.152316"
         height="5.431300"
         id="rect2179" /><rect
         x="13.112778"
         y="25.986414"
         width="14.01"
         height="5.431300"
         id="rect2181" /><rect
         x="18.355069"
         y="30.689920"
         width="13.706105"
         height="5.431300"
         id="rect2183" /><rect
         x="23.662981"
         y="35.393426"
         width="12.814838"
         height="5.431300"
         id="rect2185" /><rect
         x="27.404597"
         y="40.096932"
         width="12.113028"
         height="5.431300"
         id="rect2187" /><rect
         x="27.750276"
         y="44.800438"
         width="11.857555"
         height="5.431300"
         id="rect2189" /><rect
         x="29.640571"
         y="49.503943"
         width="9.65877"
         height="5.431300"
         id="rect2191" /><rect
         x="30.776998"
         y="54.207449"
         width="10.000580"
         height="5.431300"
         id="rect2193" /><rect
         x="30.600317"
         y="58.910955"
         width="10.562454"
         height="5.431300"
         id="rect2195" /><rect
         x="30.059245"
         y="63.614461"
         width="14.213052"
         height="5.431300"
         id="rect2197" /><rect
         x="30.262853"
         y="68.317967"
         width="13.851390"
         height="5.431300"
         id="rect2199" /><rect
         x="30.466460"
         y="73.021472"
         width="17.623855"
         height="5.431300"
         id="rect2201" /><rect
         x="31.774081"
         y="77.724978"
         width="14.972836"
         height="5.431300"
         id="rect2203" /><rect
         x="36.536998"
         y="82.428484"
         width="9.475974"
         height="5.431300"
         id="rect2205" /><rect
         x="37.474637"
         y="87.131990"
         width="8.157774"
         height="5.431300"
         id="rect2207" /><rect
         x="37.837776"
         y="91.835496"
         width="8.670962"
         height="5.431300"
         id="rect2209" /><rect
         x="38.280292"
         y="96.539001"
         width="8.598014"
         height="5.431300"
         id="rect2211" /></g><g
       id="isPipsCL"
       fill="none"
       transform="translate(454.69055,449.9031)"><rect
         x="4.725991"
         y="26.300920"
         width="10.899019"
         height="5.431300"
         id="rect2214" /><rect
         x="4.663539"
         y="31.004426"
         width="10.891026"
         height="5.431300"
         id="rect2216" /><rect
         x="4.946580"
         y="35.707932"
         width="10.578107"
         height="5.431300"
         id="rect2218" /><rect
         x="3.626691"
         y="40.411438"
         width="13.156328"
         height="5.431300"
         id="rect2220" /><rect
         x="3.230294"
         y="45.114944"
         width="13.890971"
         height="5.431300"
         id="rect2222" /><rect
         x="3.205395"
         y="49.818449"
         width="13.886932"
         height="5.431300"
         id="rect2224" /><rect
         x="2.716832"
         y="54.521955"
         width="15.034932"
         height="5.431300"
         id="rect2226" /><rect
         x="2.347168"
         y="59.225461"
         width="15.484032"
         height="5.431300"
         id="rect2228" /><rect
         x="1.977505"
         y="63.928967"
         width="16.523132"
         height="5.431300"
         id="rect2230" /><rect
         x="1.607842"
         y="68.632473"
         width="17.162231"
         height="5.431300"
         id="rect2232" /><rect
         x="2.654632"
         y="73.335978"
         width="15.042491"
         height="5.431300"
         id="rect2234" /><rect
         x="4.953387"
         y="78.039484"
         width="10.444226"
         height="5.431300"
         id="rect2236" /><rect
         x="6.049526"
         y="82.742990"
         width="8.253352"
         height="5.431300"
         id="rect2238" /><rect
         x="6.185344"
         y="87.446496"
         width="8.181564"
         height="5.431300"
         id="rect2240" /><rect
         x="5.6633601"
         y="92.150002"
         width="8.8443"
         height="5.431300"
         id="rect2242" /></g></g><g
       id="armorValues"
       style="font-size:5.7954998px">
<text
        font-weight="bold"
         text-anchor="middle"
         id="textIS_CT"
         x="485.21"
         y="528.32">( 0 )</text>
<text
        font-weight="bold"
         id="textIS_RT"
         x="524.8"
         y="400.84">( 0 )</text>
<text
        font-weight="bold"
         id="textIS_LT"
         x="427.71"
         y="400.84">( 0 )</text>
<text
        font-weight="bold"
         text-anchor="middle"
         id="textIS_RA"
         x="534.64"
         y="477.51">( 0 )</text>
<text
        font-weight="bold"
         text-anchor="middle"
         id="textIS_LA"
         x="396.8"
         y="477.51">( 0 )</text>
<text
        font-weight="bold"
         text-anchor="middle"
         id="textIS_RL"
         x="524.2"
         y="535.60">( 0 )</text>
<text
        font-weight="bold"
         text-anchor="middle"
         id="textIS_LL"
         x="407.82"
         y="535.60">( 0 )</text>
<text
        font-weight="bold"
         text-anchor="middle"
         id="textIS_CL"
         x="446.22"
         y="535.60">( 0 )</text>
</g></g></g>
</svg>
