<?xml version="1.0" encoding="utf-8"?>
<!DOCTYPE svg PUBLIC "-//W3C//DTD SVG 1.0//EN" "http://www.w3.org/TR/2001/REC-SVG-20010904/DTD/svg10.dtd">
<svg version="1.0" xmlns="http://www.w3.org/2000/svg" xmlns:xlink="http://www.w3.org/1999/xlink" x="0" y="0" width="156" height="164"
     xml:space="preserve">
<g id="internal_diagram_quad" transform="matrix(1,0,0,-1,-395.32308,374.1915)">
<g
           id="g3613"
           transform="translate(465.3542,301.9333)"><path
             d="m 0,0 -5.202,0 0,-2.6 1.301,-2.601 0,-3.902 -1.301,0 0,-2.601 1.301,-1.3 0,-5.203 -1.301,-1.301 -0.001,-9.103 1.3,-2.601 1.302,-1.302 0,-6.501 -1.3,-1.3 0,-2.602 -1.302,-1.3 0,-1.3 1.3,-1.303 0,-2.6 -1.3,-1.301 0,-3.902 1.302,0.002 -1.302,-7.805 1.302,-2.601 0,-6.501 1.3,-1.3 0,-2.602 -1.3,-1.3 0,-1.301 3.901,-1.3 0,-3.902 -20.811,0 0,3.901 3.904,1.301 0,1.301 -1.301,1.3 0,2.602 1.301,1.3 0,6.501 1.3,2.601 -1.3,10.405 1.3,3.901 0,2.603 -1.3,1.301 0,3.901 -1.301,1.3 0,6.501 1.3,1.302 0,1.3 1.301,0 0,3.901 -1.301,1.301 0,1.301 1.301,0 0,3.901 -1.3,1.301 0,3.902 -1.301,1.301 0,2.6 1.301,1.301 0,3.902 1.3,2.601 0,1.3 -1.3,1.3 0,7.805 1.3,1.3 15.605,0 L 0,0 Z"
             style="fill:#c8c7c7;fill-opacity:1;fill-rule:nonzero;stroke:none"
             id="path3615"
              /></g><g
           id="g3617"
           transform="translate(451.0477,300.6345)"><path
             d="m 0,0 -5.609,0 -0.227,-3.198 1.069,-2.704 -0.339,-3.887 -1.297,0.113 -0.225,-2.591 1.182,-1.407 -0.453,-5.184 -1.41,-1.182 -1.021,-11.66 1.068,-2.705 1.183,-1.412 -0.566,-6.474 -1.409,-1.183 -0.567,-6.479 -1.409,-1.182 -0.113,-1.295 1.181,-1.409 -0.227,-2.591 -1.408,-1.183 -0.34,-3.887 1.295,-0.112 -1.975,-7.661 1.068,-2.705 -0.566,-6.477 1.183,-1.409 -0.228,-2.591 -1.408,-1.181 -0.113,-1.297 2.577,-0.904 0,-3.901 -20.783,0 -0.026,3.901 5.276,2.039 0.113,1.295 -1.183,1.408 0.228,2.592 1.409,1.182 0.567,6.476 1.52,2.479 -0.387,10.478 1.635,3.774 0.227,2.591 -1.182,1.41 0.68,7.772 -1.183,1.41 0.566,6.475 1.41,1.184 0.113,1.297 1.296,-0.115 0.566,6.479 -1.181,1.409 0.113,1.294 1.296,-0.113 0.34,3.887 -1.183,1.409 0.34,3.888 -1.183,1.408 0.228,2.591 1.409,1.183 0.339,3.887 1.524,2.477 0.113,1.296 -1.182,1.409 0.679,7.775 1.409,0.916 L 0,9.105 0,0 Z"
             style="fill:#c8c7c7;fill-opacity:1;fill-rule:nonzero;stroke:none"
             id="path3619"
              /></g><g
           id="g3621"
           transform="translate(483.5612,301.9333)"><path
             d="m 0,0 5.201,0 0,-2.6 -1.301,-2.601 0,-3.902 1.301,0 0,-2.601 -1.301,-1.3 0,-5.203 1.301,-1.301 0.002,-9.103 -1.301,-2.601 -1.303,-1.302 0,-6.501 1.302,-1.3 0,-2.602 1.302,-1.3 0,-1.3 -1.301,-1.303 0,-2.6 1.301,-1.301 0,-3.902 -1.302,0.002 1.302,-7.805 -1.302,-2.601 0,-6.501 -1.3,-1.3 0,-2.602 1.3,-1.3 0,-1.301 -3.901,-1.3 0,-3.902 20.809,0 0,3.901 -3.902,1.301 0,1.301 1.3,1.3 0,2.602 -1.3,1.3 0,6.501 -1.3,2.601 1.3,10.405 -1.3,3.901 -10e-4,2.603 1.301,1.301 0,3.901 1.3,1.3 0,6.501 -1.3,1.302 0,1.3 -1.3,0 0,3.901 1.3,1.301 0,1.301 -1.301,0 0,3.901 1.301,1.301 0,3.902 1.3,1.301 0,2.6 -1.3,1.301 0,3.902 -1.301,2.601 0,1.3 1.301,1.3 0,7.805 -1.301,1.3 -15.604,0 L 0,0 Z"
             style="fill:#c8c7c7;fill-opacity:1;fill-rule:nonzero;stroke:none"
             id="path3623"
              /></g><g
           id="g3625"
           transform="translate(457.5496,364.3629)"><path
             d="m 0,0 -5.201,0 0,1.3 -2.602,0 0,-3.901 -2.601,0 -3.901,-3.902 -3.902,0 -9.104,-9.104 0,-3.901 -3.901,-3.902 0,-1.301 2.601,-1.301 0,-2.6 -2.601,0 0,-1.301 15.606,-23.41 1.301,0 1.299,-1.301 11.706,0 1.3,1.301 1.302,-0.002 0,54.625 L 0,0 Z"
             style="fill:#c8c7c7;fill-opacity:1;fill-rule:nonzero;stroke:none"
             id="path3627"
              /></g><g
           id="g3629"
           transform="translate(491.3649,364.3629)"><path
             d="m 0,0 5.202,0 0,1.3 2.602,0 0,-3.901 2.599,0 3.903,-3.902 3.902,0 9.104,-9.104 0,-3.901 3.901,-3.902 0,-1.301 -2.601,-1.301 0,-2.6 2.601,0 0,-1.301 -15.607,-23.41 -1.3,0 -1.301,-1.301 -11.704,0 L 0,-53.323 -1.301,-53.325 -1.301,1.3 0,0 Z"
             style="fill:#c8c7c7;fill-opacity:1;fill-rule:nonzero;stroke:none"
             id="path3631"
              /></g><g
           id="g3633"
           transform="translate(487.4626,365.6627)"><path
             d="m 0,0 -2.6,-2.6 -20.81,0 -2.602,2.6 -2.599,0 0,-54.625 2.599,0 2.602,-23.408 3.902,-1.3 0,3.901 2.601,0 0,-3.901 1.301,0 1.3,3.901 2.601,0 1.3,-3.901 1.301,0 0,3.901 2.601,0 0,-3.901 3.903,1.3 2.6,23.408 2.601,0 L 2.601,0 0,0 Z"
             style="fill:#c8c7c7;fill-opacity:1;fill-rule:nonzero;stroke:none"
             id="path3635"
              /></g><g
           id="g3637"
           transform="translate(497.8669,300.6345)"><path
             d="m 0,0 5.609,0 0.227,-3.198 -1.069,-2.704 0.34,-3.887 1.296,0.113 0.226,-2.591 -1.182,-1.407 0.452,-5.184 1.411,-1.182 1.021,-11.66 -1.069,-2.705 -1.184,-1.412 0.567,-6.474 1.409,-1.183 0.568,-6.479 1.409,-1.182 0.113,-1.295 -1.181,-1.409 0.226,-2.591 1.408,-1.183 0.34,-3.887 -1.295,-0.112 1.975,-7.661 -1.068,-2.705 0.567,-6.477 -1.184,-1.409 0.227,-2.591 1.409,-1.181 0.114,-1.297 -2.577,-0.904 0,-3.901 20.782,0 0.026,3.901 -5.276,2.039 -0.113,1.295 1.183,1.408 -0.227,2.592 -1.41,1.182 -0.566,6.476 -1.521,2.479 0.387,10.478 -1.635,3.774 -0.228,2.591 1.183,1.41 -0.681,7.772 1.184,1.41 -0.566,6.475 -1.409,1.184 -0.114,1.297 -1.295,-0.115 -0.566,6.479 1.18,1.409 -0.113,1.294 -1.296,-0.113 -0.339,3.887 1.18,1.409 -0.339,3.888 1.184,1.408 -0.228,2.591 -1.409,1.183 -0.34,3.887 -1.522,2.477 -0.113,1.296 L 17.27,0.414 16.59,8.189 15.181,9.105 0,9.105 0,0 Z"
             style="fill:#c8c7c7;fill-opacity:1;fill-rule:nonzero;stroke:none"
             id="path3639"
              /></g><g
       id="g4041"
       transform="translate(462.7527,304.5349)"><path
         d="m 0,0 -5.202,0 0,-2.601 1.301,-2.601 0,-3.903 -1.301,0 0,-2.601 1.301,-1.3 0,-5.203 -1.301,-1.299 -0.001,-9.104 1.3,-2.601 1.303,-1.302 0,-6.501 -1.301,-1.3 0,-2.603 -1.302,-1.299 0,-1.3 1.3,-1.303 0,-2.601 -1.3,-1.3 0,-3.901 1.302,0 -1.302,-7.804 1.302,-2.601 0,-6.502 1.3,-1.3 0,-2.602 -1.3,-1.299 0,-1.302 3.901,-1.299 0,-3.902 -20.81,0 0,3.901 3.903,1.302 0,1.3 -1.302,1.299 0,2.602 1.302,1.3 0,6.502 1.3,2.601 -1.3,10.406 1.3,3.901 0,2.602 -1.3,1.301 0,3.901 -1.302,1.3 0,6.501 1.301,1.302 0,1.3 1.301,0 0,3.901 -1.301,1.302 0,1.3 1.301,0 0,3.902 -1.3,1.299 0,3.902 -1.302,1.301 0,2.6 1.302,1.301 0,3.903 1.3,2.601 0,1.3 -1.3,1.301 0,7.803 1.3,1.302 15.605,0 L 0,0 Z"
         style="fill:#ffffff;fill-opacity:1;fill-rule:nonzero;stroke:none"
         id="path4043"
          /></g><g
       id="g4045"
       transform="translate(462.7527,304.5349)"><path
         d="m 0,0 -5.202,0 0,-2.601 1.301,-2.601 0,-3.903 -1.301,0 0,-2.601 1.301,-1.3 0,-5.203 -1.301,-1.299 -0.001,-9.104 1.3,-2.601 1.303,-1.302 0,-6.501 -1.301,-1.3 0,-2.603 -1.302,-1.299 0,-1.3 1.3,-1.303 0,-2.601 -1.3,-1.3 0,-3.901 1.302,0 -1.302,-7.804 1.302,-2.601 0,-6.502 1.3,-1.3 0,-2.602 -1.3,-1.299 0,-1.302 3.901,-1.299 0,-3.902 -20.81,0 0,3.901 3.903,1.302 0,1.3 -1.302,1.299 0,2.602 1.302,1.3 0,6.502 1.3,2.601 -1.3,10.406 1.3,3.901 0,2.602 -1.3,1.301 0,3.901 -1.302,1.3 0,6.501 1.301,1.302 0,1.3 1.301,0 0,3.901 -1.301,1.302 0,1.3 1.301,0 0,3.902 -1.3,1.299 0,3.902 -1.302,1.301 0,2.6 1.302,1.301 0,3.903 1.3,2.601 0,1.3 -1.3,1.301 0,7.803 1.3,1.302 15.605,0 L 0,0 Z"
         style="fill:none;stroke:#231f20;stroke-width:1.449;stroke-linecap:butt;stroke-linejoin:round;stroke-miterlimit:2.41400003;stroke-dasharray:none;stroke-opacity:1"
         id="path4047"
          /></g><g
       id="g4049"
       transform="translate(448.4461,303.2351)"><path
         d="m 0,0 -5.609,0 -0.227,-3.197 1.069,-2.704 -0.339,-3.887 -1.297,0.112 -0.225,-2.59 1.182,-1.409 -0.453,-5.182 -1.41,-1.184 -1.021,-11.659 1.068,-2.705 1.184,-1.411 -0.567,-6.475 -1.408,-1.183 -0.568,-6.478 -1.409,-1.183 -0.113,-1.294 1.181,-1.411 -0.227,-2.59 -1.408,-1.183 -0.34,-3.886 1.296,-0.112 -1.976,-7.663 1.068,-2.704 -0.566,-6.478 1.183,-1.407 -0.227,-2.592 -1.409,-1.181 -0.113,-1.297 2.577,-0.903 0,-3.902 -20.783,0 -0.026,3.902 5.276,2.038 0.113,1.296 -1.183,1.407 0.228,2.593 1.409,1.18 0.567,6.477 1.52,2.479 -0.387,10.478 1.635,3.773 0.228,2.592 -1.183,1.409 0.681,7.774 -1.184,1.409 0.566,6.475 1.41,1.185 0.114,1.295 1.295,-0.114 0.566,6.478 -1.18,1.409 0.112,1.296 1.296,-0.114 0.34,3.887 -1.182,1.409 0.34,3.887 -1.184,1.41 0.228,2.59 1.409,1.183 0.34,3.887 1.523,2.477 0.113,1.297 -1.182,1.408 0.679,7.774 1.409,0.917 L 0,9.105 0,0 Z"
         style="fill:#ffffff;fill-opacity:1;fill-rule:nonzero;stroke:none"
         id="path4051"
          /></g><g
       id="g4053"
       transform="translate(448.4461,303.2351)"><path
         d="m 0,0 -5.609,0 -0.227,-3.197 1.069,-2.704 -0.339,-3.887 -1.297,0.112 -0.225,-2.59 1.182,-1.409 -0.453,-5.182 -1.41,-1.184 -1.021,-11.659 1.068,-2.705 1.184,-1.411 -0.567,-6.475 -1.408,-1.183 -0.568,-6.478 -1.409,-1.183 -0.113,-1.294 1.181,-1.411 -0.227,-2.59 -1.408,-1.183 -0.34,-3.886 1.296,-0.112 -1.976,-7.663 1.068,-2.704 -0.566,-6.478 1.183,-1.407 -0.227,-2.592 -1.409,-1.181 -0.113,-1.297 2.577,-0.903 0,-3.902 -20.783,0 -0.026,3.902 5.276,2.038 0.113,1.296 -1.183,1.407 0.228,2.593 1.409,1.18 0.567,6.477 1.52,2.479 -0.387,10.478 1.635,3.773 0.228,2.592 -1.183,1.409 0.681,7.774 -1.184,1.409 0.566,6.475 1.41,1.185 0.114,1.295 1.295,-0.114 0.566,6.478 -1.18,1.409 0.112,1.296 1.296,-0.114 0.34,3.887 -1.182,1.409 0.34,3.887 -1.184,1.41 0.228,2.59 1.409,1.183 0.34,3.887 1.523,2.477 0.113,1.297 -1.182,1.408 0.679,7.774 1.409,0.917 L 0,9.105 0,0 Z"
         style="fill:none;stroke:#231f20;stroke-width:1.449;stroke-linecap:butt;stroke-linejoin:round;stroke-miterlimit:2.41400003;stroke-dasharray:none;stroke-opacity:1"
         id="path4055"
          /></g><g
       id="g4057"
       transform="translate(480.9597,304.5349)"><path
         d="m 0,0 5.201,0 0,-2.601 -1.301,-2.601 0,-3.903 1.301,0 0,-2.601 -1.301,-1.3 0,-5.203 1.301,-1.299 0.002,-9.104 -1.301,-2.601 -1.303,-1.302 0,-6.501 1.302,-1.3 0,-2.603 1.302,-1.299 0,-1.3 -1.301,-1.303 0,-2.601 1.301,-1.3 0,-3.901 -1.302,0 1.302,-7.804 -1.302,-2.601 0,-6.502 -1.3,-1.3 0,-2.602 1.3,-1.299 0,-1.302 -3.901,-1.299 0,-3.902 20.809,0 0,3.901 -3.902,1.302 0,1.3 1.301,1.299 0,2.602 -1.301,1.3 0,6.502 -1.3,2.601 1.3,10.406 -1.3,3.901 -10e-4,2.602 1.301,1.301 0,3.901 1.301,1.3 0,6.501 -1.301,1.302 0,1.3 -1.3,0 0,3.901 1.3,1.302 0,1.3 -1.301,0 0,3.902 1.301,1.299 0,3.902 1.301,1.301 0,2.6 -1.301,1.301 0,3.903 -1.301,2.601 0,1.3 1.301,1.301 0,7.803 -1.301,1.302 -15.604,0 L 0,0 Z"
         style="fill:#ffffff;fill-opacity:1;fill-rule:nonzero;stroke:none"
         id="path4059"
          /></g><g
       id="g4061"
       transform="translate(480.9597,304.5349)"><path
         d="m 0,0 5.201,0 0,-2.601 -1.301,-2.601 0,-3.903 1.301,0 0,-2.601 -1.301,-1.3 0,-5.203 1.301,-1.299 0.002,-9.104 -1.301,-2.601 -1.303,-1.302 0,-6.501 1.302,-1.3 0,-2.603 1.302,-1.299 0,-1.3 -1.301,-1.303 0,-2.601 1.301,-1.3 0,-3.901 -1.302,0 1.302,-7.804 -1.302,-2.601 0,-6.502 -1.3,-1.3 0,-2.602 1.3,-1.299 0,-1.302 -3.901,-1.299 0,-3.902 20.809,0 0,3.901 -3.902,1.302 0,1.3 1.301,1.299 0,2.602 -1.301,1.3 0,6.502 -1.3,2.601 1.3,10.406 -1.3,3.901 -10e-4,2.602 1.301,1.301 0,3.901 1.301,1.3 0,6.501 -1.301,1.302 0,1.3 -1.3,0 0,3.901 1.3,1.302 0,1.3 -1.301,0 0,3.902 1.301,1.299 0,3.902 1.301,1.301 0,2.6 -1.301,1.301 0,3.903 -1.301,2.601 0,1.3 1.301,1.301 0,7.803 -1.301,1.302 -15.604,0 L 0,0 Z"
         style="fill:none;stroke:#231f20;stroke-width:1.449;stroke-linecap:butt;stroke-linejoin:round;stroke-miterlimit:2.41400003;stroke-dasharray:none;stroke-opacity:1"
         id="path4063"
          /></g><g
       id="g4065"
       transform="translate(454.9481,366.9625)"><path
         d="m 0,0 -5.201,0 0,1.301 -2.602,0 0,-3.902 -2.601,0 -3.902,-3.902 -3.901,0 -9.104,-9.103 0,-3.902 -3.901,-3.902 0,-1.3 2.601,-1.302 0,-2.599 -2.601,0 0,-1.302 15.606,-23.41 1.3,0 1.301,-1.3 11.705,0 1.3,1.3 1.302,0 0,54.624 L 0,0 Z"
         style="fill:#ffffff;fill-opacity:1;fill-rule:nonzero;stroke:none"
         id="path4067"
          /></g><g
       id="g4069"
       transform="translate(454.9481,366.9625)"><path
         d="m 0,0 -5.201,0 0,1.301 -2.602,0 0,-3.902 -2.601,0 -3.902,-3.902 -3.901,0 -9.104,-9.103 0,-3.902 -3.901,-3.902 0,-1.3 2.601,-1.302 0,-2.599 -2.601,0 0,-1.302 15.606,-23.41 1.3,0 1.301,-1.3 11.705,0 1.3,1.3 1.302,0 0,54.624 L 0,0 Z"
         style="fill:none;stroke:#231f20;stroke-width:1.449;stroke-linecap:butt;stroke-linejoin:round;stroke-miterlimit:2.41400003;stroke-dasharray:none;stroke-opacity:1"
         id="path4071"
          /></g><g
       id="g4073"
       transform="translate(488.7643,366.9625)"><path
         d="m 0,0 5.201,0 0,1.301 2.602,0 0,-3.902 2.601,0 3.901,-3.902 3.902,0 9.104,-9.103 0,-3.902 3.902,-3.902 0,-1.3 -2.602,-1.302 0,-2.599 2.602,0 0,-1.302 -15.608,-23.41 -1.3,0 -1.301,-1.3 -11.704,0 -1.3,1.3 -1.302,0 0,54.624 L 0,0 Z"
         style="fill:#ffffff;fill-opacity:1;fill-rule:nonzero;stroke:none"
         id="path4075"
          /></g><g
       id="g4077"
       transform="translate(488.7643,366.9625)"><path
         d="m 0,0 5.201,0 0,1.301 2.602,0 0,-3.902 2.601,0 3.901,-3.902 3.902,0 9.104,-9.103 0,-3.902 3.902,-3.902 0,-1.3 -2.602,-1.302 0,-2.599 2.602,0 0,-1.302 -15.608,-23.41 -1.3,0 -1.301,-1.3 -11.704,0 -1.3,1.3 -1.302,0 0,54.624 L 0,0 Z"
         style="fill:none;stroke:#231f20;stroke-width:1.449;stroke-linecap:butt;stroke-linejoin:round;stroke-miterlimit:2.41400003;stroke-dasharray:none;stroke-opacity:1"
         id="path4079"
          /></g><g
       id="g4081"
       transform="translate(484.8611,368.2632)"><path
         d="m 0,0 -2.6,-2.6 -20.81,0 -2.602,2.6 -2.599,0 0,-54.624 2.599,0 2.602,-23.409 3.902,-1.301 0,3.901 2.601,0 0,-3.901 1.301,0 1.3,3.901 2.601,0 1.3,-3.901 1.301,0 0,3.901 2.602,0 0,-3.901 3.902,1.301 2.6,23.409 2.601,0 L 2.601,0 0,0 Z"
         style="fill:#ffffff;fill-opacity:1;fill-rule:nonzero;stroke:none"
         id="path4083"
          /></g><g
       id="g4085"
       transform="translate(484.8611,368.2632)"><path
         d="m 0,0 -2.6,-2.6 -20.81,0 -2.602,2.6 -2.599,0 0,-54.624 2.599,0 2.602,-23.409 3.902,-1.301 0,3.901 2.601,0 0,-3.901 1.301,0 1.3,3.901 2.601,0 1.3,-3.901 1.301,0 0,3.901 2.602,0 0,-3.901 3.902,1.301 2.6,23.409 2.601,0 L 2.601,0 0,0 Z"
         style="fill:none;stroke:#231f20;stroke-width:1.449;stroke-linecap:butt;stroke-linejoin:miter;stroke-miterlimit:4;stroke-dasharray:none;stroke-opacity:1"
         id="path4087"
          /></g><g
       id="g4089"
       transform="translate(482.8067,355.2584)"><path
         d="m 0,0 -1.109,0 0,-3.902 1.109,0 -1.109,-11.705 -4.639,0 -1.301,1.299 0,1.302 -7.804,0 0,-1.302 -1.3,-1.299 -4.917,0 -1.11,11.705 1.11,0 0,3.902 -1.11,0 -1.109,4.477 1.109,3.326 3.327,0 1.109,-1.683 13.309,0 1.109,1.683 3.325,0 L 1.11,4.477 0,0 Z"
         style="fill:none;stroke:#231f20;stroke-width:1.449;stroke-linecap:butt;stroke-linejoin:miter;stroke-miterlimit:4;stroke-dasharray:none;stroke-opacity:1"
         id="path4091"
          /></g><g
       id="g4093"
       transform="translate(495.2654,303.2351)"><path
         d="m 0,0 5.609,0 0.227,-3.197 -1.068,-2.704 0.339,-3.887 1.296,0.112 0.226,-2.59 -1.182,-1.409 0.452,-5.182 1.411,-1.184 1.021,-11.659 -1.069,-2.705 -1.184,-1.411 0.567,-6.475 1.409,-1.183 0.568,-6.478 1.409,-1.183 0.113,-1.294 -1.181,-1.411 0.226,-2.59 1.408,-1.183 0.341,-3.886 -1.296,-0.112 1.975,-7.663 -1.068,-2.704 0.567,-6.478 -1.184,-1.407 0.227,-2.592 1.41,-1.181 0.113,-1.297 -2.577,-0.903 0,-3.902 20.782,0 0.026,3.902 -5.276,2.038 -0.113,1.296 1.183,1.407 -0.227,2.593 -1.41,1.18 -0.566,6.477 -1.521,2.479 0.387,10.478 -1.635,3.773 -0.227,2.592 1.183,1.409 -0.681,7.774 1.184,1.409 -0.567,6.475 -1.409,1.185 -0.114,1.295 -1.295,-0.114 -0.566,6.478 1.18,1.409 -0.113,1.296 -1.296,-0.114 -0.339,3.887 1.181,1.409 -0.34,3.887 1.184,1.41 -0.228,2.59 -1.409,1.183 -0.341,3.887 -1.52,2.477 -0.114,1.297 1.181,1.408 L 16.59,8.188 15.181,9.105 0,9.105 0,0 Z"
         style="fill:#ffffff;fill-opacity:1;fill-rule:nonzero;stroke:none"
         id="path4095"
          /></g><g
       id="g4097"
       transform="translate(495.2654,303.2351)"><path
         d="m 0,0 5.609,0 0.227,-3.197 -1.068,-2.704 0.339,-3.887 1.296,0.112 0.226,-2.59 -1.182,-1.409 0.452,-5.182 1.411,-1.184 1.021,-11.659 -1.069,-2.705 -1.184,-1.411 0.567,-6.475 1.409,-1.183 0.568,-6.478 1.409,-1.183 0.113,-1.294 -1.181,-1.411 0.226,-2.59 1.408,-1.183 0.341,-3.886 -1.296,-0.112 1.975,-7.663 -1.068,-2.704 0.567,-6.478 -1.184,-1.407 0.227,-2.592 1.41,-1.181 0.113,-1.297 -2.577,-0.903 0,-3.902 20.782,0 0.026,3.902 -5.276,2.038 -0.113,1.296 1.183,1.407 -0.227,2.593 -1.41,1.18 -0.566,6.477 -1.521,2.479 0.387,10.478 -1.635,3.773 -0.227,2.592 1.183,1.409 -0.681,7.774 1.184,1.409 -0.567,6.475 -1.409,1.185 -0.114,1.295 -1.295,-0.114 -0.566,6.478 1.18,1.409 -0.113,1.296 -1.296,-0.114 -0.339,3.887 1.181,1.409 -0.34,3.887 1.184,1.41 -0.228,2.59 -1.409,1.183 -0.341,3.887 -1.52,2.477 -0.114,1.297 1.181,1.408 L 16.59,8.188 15.181,9.105 0,9.105 0,0 Z"
         style="fill:none;stroke:#231f20;stroke-width:1.449;stroke-linecap:butt;stroke-linejoin:round;stroke-miterlimit:2.41400003;stroke-dasharray:none;stroke-opacity:1"
         id="path4099"
          /></g><text
       transform="matrix(0.99809211,0,0,-1,463.5734,369.6319)"
       style="font-variant:normal;font-weight:bold;font-stretch:normal;font-size:6.76140022px;font-family:Eurostile;writing-mode:lr-tb;fill:#231f20;fill-opacity:1;fill-rule:nonzero;stroke:none"
       id="text4891"><tspan
         x="0 5.0710502 8.8912411 12.745239"
         y="0"
         id="tspan4893">Head</tspan><tspan
         x="-2.4273427 2.0689883 5.8891792 9.810791 12.285463 16.105656"
         y="95.829323"
         id="tspan4895">Center</tspan><tspan
         x="-0.47329801 2.8059809 6.6599789 9.6485176 13.279389"
         y="104.34192"
         id="tspan4897">Torso</tspan><tspan
         x="-57.492184 -53.719322 -49.899132 -47.857189"
         y="65.707283"
         id="tspan4899">Left</tspan><tspan
         x="-66.809395 -63.097385 -60.108845 -56.254848 -52.333237 -49.858562 -47.525879 -43.753021 -39.932827"
         y="73.820969"
         id="tspan4901">Front Leg</tspan><tspan
         x="61.035156 65.774902 67.2286 71.102882 75.024498"
         y="65.707283"
         id="tspan4903">Right</tspan><tspan
         x="53.895119 57.607128 60.595665 64.449661 68.371277 70.845947 73.178635 76.951492 80.771683"
         y="73.820969"
         id="tspan4905">Front Leg</tspan><tspan
         x="-60.230553 -56.457691 -52.637501 -50.595554"
         y="113.62533"
         id="tspan4907">Left</tspan><tspan
         x="-68.776962 -64.037216 -60.21703 -56.363029 -53.374493 -51.041809 -47.268948 -43.448757"
         y="121.73901"
         id="tspan4909">Rear Leg</tspan><tspan
         x="65.152847 69.892593 71.346291 75.220573 79.142189"
         y="113.62533"
         id="tspan4911">Right</tspan><tspan
         x="58.783611 63.523354 67.343544 71.19754 74.186081 76.518761 80.291626 84.111816"
         y="121.73901"
         id="tspan4913">Rear Leg</tspan><tspan
         x="-55.15274 -51.379879 -47.559689 -45.517746"
         y="-0.0067614"
         id="tspan4915">Left</tspan><tspan
         x="-57.897869 -54.618587 -50.764591 -47.776051 -44.14518"
         y="8.1069183"
         id="tspan4917">Torso</tspan><tspan
         x="59.574696 64.314438 65.768135 69.642418 73.564034"
         y="-0.0067614"
         id="tspan4919">Right</tspan><tspan
         x="59.006737 62.286018 66.140015 69.128555 72.759422"
         y="8.1069183"
         id="tspan4921">Torso</tspan></text><g transform="matrix(1,0,0,-1,0,765)">
<g
     id="structurePips"><g
       id="isPipsHD"><g
         transform="translate(475.7472,415.7765)"
         id="g1424"><path
           d="m 0,0 c -0.96,0 -1.76,0.8 -1.76,1.759 0,0.959 0.8,1.76 1.76,1.76 0.959,0 1.758,-0.801 1.758,-1.76 C 1.758,0.8 0.959,0 0,0 Z"
           style="fill:none;stroke:#231f20;stroke-width:0.48699999;stroke-linecap:butt;stroke-linejoin:miter;stroke-miterlimit:2.41400003;stroke-dasharray:none;stroke-opacity:1"
           
           id="path1426" /></g><g
         transform="translate(471.593,408.3681)"
         id="g1428"><path
           d="m 0,0 c -0.961,0 -1.761,0.8 -1.761,1.758 0,0.961 0.8,1.761 1.761,1.761 0.959,0 1.758,-0.8 1.758,-1.761 C 1.758,0.8 0.959,0 0,0 Z"
           style="fill:none;stroke:#231f20;stroke-width:0.48699999;stroke-linecap:butt;stroke-linejoin:miter;stroke-miterlimit:2.41400003;stroke-dasharray:none;stroke-opacity:1"
           
           id="path1430" /></g><g
         transform="translate(467.6313,415.7765)"
         id="g1432"><path
           d="m 0,0 c -0.96,0 -1.76,0.8 -1.76,1.759 0,0.959 0.8,1.76 1.76,1.76 0.959,0 1.758,-0.801 1.758,-1.76 C 1.758,0.8 0.959,0 0,0 Z"
           style="fill:none;stroke:#231f20;stroke-width:0.48699999;stroke-linecap:butt;stroke-linejoin:miter;stroke-miterlimit:2.41400003;stroke-dasharray:none;stroke-opacity:1"
           
           id="path1434" /></g></g><g
       id="isPipsHD_SH"
       visibility="hidden"><g
         transform="translate(475.7472,415.7765)"
         id="g1437"><path
           d="m 0,0 c -0.96,0 -1.76,0.8 -1.76,1.759 0,0.959 0.8,1.76 1.76,1.76 0.959,0 1.758,-0.801 1.758,-1.76 C 1.758,0.8 0.959,0 0,0 Z"
           style="fill:none;stroke:#231f20;stroke-width:0.48699999;stroke-linecap:butt;stroke-linejoin:miter;stroke-miterlimit:2.41400003;stroke-dasharray:none;stroke-opacity:1"
           
           id="path1439" /></g><g
         transform="translate(475.7472,408.3681)"
         id="g1441"><path
           d="m 0,0 c -0.961,0 -1.761,0.8 -1.761,1.758 0,0.961 0.8,1.761 1.761,1.761 0.959,0 1.758,-0.8 1.758,-1.761 C 1.758,0.8 0.959,0 0,0 Z"
           style="fill:none;stroke:#231f20;stroke-width:0.48699999;stroke-linecap:butt;stroke-linejoin:miter;stroke-miterlimit:2.41400003;stroke-dasharray:none;stroke-opacity:1"
           
           id="path1443" /></g><g
         transform="translate(467.6313,408.3681)"
         id="g1445"><path
           d="m 0,0 c -0.961,0 -1.761,0.8 -1.761,1.758 0,0.961 0.8,1.761 1.761,1.761 0.959,0 1.758,-0.8 1.758,-1.761 C 1.758,0.8 0.959,0 0,0 Z"
           style="fill:none;stroke:#231f20;stroke-width:0.48699999;stroke-linecap:butt;stroke-linejoin:miter;stroke-miterlimit:2.41400003;stroke-dasharray:none;stroke-opacity:1"
           
           id="path1447" /></g><g
         transform="translate(467.6313,415.7765)"
         id="g1449"><path
           d="m 0,0 c -0.96,0 -1.76,0.8 -1.76,1.759 0,0.959 0.8,1.76 1.76,1.76 0.959,0 1.758,-0.801 1.758,-1.76 C 1.758,0.8 0.959,0 0,0 Z"
           style="fill:none;stroke:#231f20;stroke-width:0.48699999;stroke-linecap:butt;stroke-linejoin:miter;stroke-miterlimit:2.41400003;stroke-dasharray:none;stroke-opacity:1"
           
           id="path1451" /></g></g><g
       id="isPipsCT"
       fill="none"
       transform="translate(457.06,426.902)"><rect
         x="0"
         y="0"
         width="29.43"
         height="5.4313"
         id="isCTRow00" /><rect
         x="0"
         y="4.7035"
         width="29.43"
         height="5.4313"
         id="isCTRow01" /><rect
         x="0"
         y="9.4070"
         width="29.43"
         height="5.4313"
         id="isCTRow02" /><rect
         x="0"
         y="14.1105"
         width="29.43"
         height="5.4313"
         id="isCTRow03" /><rect
         x="0"
         y="18.8140"
         width="29.43"
         height="5.4313"
         id="isCTRow04" /><rect
         x="3.14"
         y="23.5175"
         width="23.15"
         height="5.4313"
         id="isCTRow05" /><rect
         x="3.54"
         y="28.221"
         width="22.35"
         height="5.4313"
         id="isCTRow06" /><rect
         x="4.23"
         y="32.9245"
         width="20.97"
         height="5.4313"
         id="isCTRow07" /><rect
         x="4.62"
         y="37.6280"
         width="20.19"
         height="5.4313"
         id="isCTRow08" /></g><g
       id="isPipsRT"
       fill="none"
       transform="translate(488.41,402.13)"><rect
         x="0"
         y="0"
         width="11.06"
         height="5.4313"
         id="isRTRow00" /><rect
         x="0"
         y="4.7035"
         width="19.83"
         height="5.4313"
         id="isRTRow01" /><rect
         x="0"
         y="9.4070"
         width="24.29"
         height="5.4313"
         id="isRTRow02" /><rect
         x="0"
         y="14.1105"
         width="26.93"
         height="5.4313"
         id="isRTRow03" /><rect
         x="0"
         y="18.8140"
         width="26.93"
         height="5.4313"
         id="isRTRow04" /><rect
         x="0"
         y="23.5175"
         width="26.93"
         height="5.4313"
         id="isRTRow05" /><rect
         x="0"
         y="28.2210"
         width="25.12"
         height="5.4313"
         id="isRTRow06" /><rect
         x="0"
         y="32.9245"
         width="22.06"
         height="5.4313"
         id="isRTRow07" /><rect
         x="0"
         y="37.6280"
         width="18.58"
         height="5.4313"
         id="isRTRow08" /><rect
         x="0"
         y="42.3316"
         width="15.65"
         height="5.4313"
         id="isRTRow09" /></g><g
       id="isPipsLT"
       fill="none"
       transform="matrix(-1,0,0,1,455.08,402.13)"><rect
         x="0"
         y="0"
         width="11.06"
         height="5.4313"
         id="isLTRow00" /><rect
         x="0"
         y="4.7035"
         width="19.83"
         height="5.4313"
         id="isLTRow01" /><rect
         x="0"
         y="9.4070"
         width="24.29"
         height="5.4313"
         id="isLTRow02" /><rect
         x="0"
         y="14.1105"
         width="26.93"
         height="5.4313"
         id="isLTRow03" /><rect
         x="0"
         y="18.8140"
         width="26.93"
         height="5.4313"
         id="isLTRow04" /><rect
         x="0"
         y="23.5175"
         width="26.93"
         height="5.4313"
         id="isLTRow05" /><rect
         x="0"
         y="28.2210"
         width="25.12"
         height="5.4313"
         id="isLTRow06" /><rect
         x="0"
         y="32.9245"
         width="22.06"
         height="5.4313"
         id="isLTRow07" /><rect
         x="0"
         y="37.6280"
         width="18.58"
         height="5.4313"
         id="isLTRow08" /><rect
         x="0"
         y="42.3316"
         width="15.65"
         height="5.4313"
         id="isLTRow09" /></g><g
       id="isPipsFRL"
       fill="none"
       transform="matrix(0.9962,-0.08715,0.08715,0.99619,501.36,454.65)"><rect
         x="-3.16"
         y="0"
         width="11.03"
         height="5.4313"
         id="rect1486" /><rect
         x="0"
         y="4.7035"
         width="7.87"
         height="5.4313"
         id="isFRLRow01" /><rect
         x="0"
         y="9.4070"
         width="7.87"
         height="5.4313"
         id="isFRLRow02" /><rect
         x="0"
         y="14.1105"
         width="7.87"
         height="5.4313"
         id="isFRLRow03" /><rect
         x="0"
         y="18.8140"
         width="7.87"
         height="5.4313"
         id="isFRLRow04" /><rect
         x="0"
         y="23.5175"
         width="7.87"
         height="5.4313"
         id="isFRLRow05" /><rect
         x="0"
         y="28.2210"
         width="7.87"
         height="5.4313"
         id="isFRLRow06" /><rect
         x="0"
         y="32.9245"
         width="7.87"
         height="5.4313"
         id="isFRLRow07" /><rect
         x="0"
         y="37.6280"
         width="7.87"
         height="5.4313"
         id="isFRLRow08" /><rect
         x="-1.77"
         y="42.3316"
         width="11.41"
         height="5.4313"
         id="isFRLRow09" /><rect
         x="0"
         y="47.0351"
         width="7.87"
         height="5.4313"
         id="isFRLRow10" /><rect
         x="0"
         y="51.7386"
         width="7.87"
         height="5.4313"
         id="isFRLRow11" /><rect
         x="0"
         y="56.4421"
         width="7.87"
         height="5.4313"
         id="isFRLRow12" /><rect
         x="0"
         y="61.1456"
         width="7.87"
         height="5.4313"
         id="isFRLRow13" /><rect
         x="0"
         y="65.8491"
         width="7.87"
         height="5.4313"
         id="isFRLRow14" /><rect
         x="0"
         y="70.5527"
         width="7.87"
         height="5.4313"
         id="isFRLRow15" /><rect
         x="0"
         y="75.2562"
         width="7.87"
         height="5.4313"
         id="isFRLRow16" /><rect
         x="0"
         y="79.9597"
         width="7.87"
         height="5.4313"
         id="isFRLRow17" /><rect
         x="0"
         y="84.6632"
         width="7.87"
         height="5.4313"
         id="isFRLRow18" /><rect
         x="0"
         y="89.3667"
         width="7.87"
         height="5.4313"
         id="isFRLRow19" /></g><g
       id="isPipsFLL"
       fill="none"
       transform="matrix(-0.9962,-0.08715,-0.08715,0.99619,442.13,454.65)"><rect
         x="-3.16"
         y="0"
         width="11.03"
         height="5.4313"
         id="rect1508" /><rect
         x="0"
         y="4.7035"
         width="7.87"
         height="5.4313"
         id="isFLLRow01" /><rect
         x="0"
         y="9.4070"
         width="7.87"
         height="5.4313"
         id="isFLLRow02" /><rect
         x="0"
         y="14.1105"
         width="7.87"
         height="5.4313"
         id="isFLLRow03" /><rect
         x="0"
         y="18.8140"
         width="7.87"
         height="5.4313"
         id="isFLLRow04" /><rect
         x="0"
         y="23.5175"
         width="7.87"
         height="5.4313"
         id="isFLLRow05" /><rect
         x="0"
         y="28.2210"
         width="7.87"
         height="5.4313"
         id="isFLLRow06" /><rect
         x="0"
         y="32.9245"
         width="7.87"
         height="5.4313"
         id="isFLLRow07" /><rect
         x="0"
         y="37.6280"
         width="7.87"
         height="5.4313"
         id="isFLLRow08" /><rect
         x="-1.77"
         y="42.3316"
         width="11.41"
         height="5.4313"
         id="isFLLRow09" /><rect
         x="0"
         y="47.0351"
         width="7.87"
         height="5.4313"
         id="isFLLRow10" /><rect
         x="0"
         y="51.7386"
         width="7.87"
         height="5.4313"
         id="isFLLRow11" /><rect
         x="0"
         y="56.4421"
         width="7.87"
         height="5.4313"
         id="isFLLRow12" /><rect
         x="0"
         y="61.1456"
         width="7.87"
         height="5.4313"
         id="isFLLRow13" /><rect
         x="0"
         y="65.8491"
         width="7.87"
         height="5.4313"
         id="isFLLRow14" /><rect
         x="0"
         y="70.5527"
         width="7.87"
         height="5.4313"
         id="isFLLRow15" /><rect
         x="0"
         y="75.2562"
         width="7.87"
         height="5.4313"
         id="isFLLRow16" /><rect
         x="0"
         y="79.9597"
         width="7.87"
         height="5.4313"
         id="isFLLRow17" /><rect
         x="0"
         y="84.6632"
         width="7.87"
         height="5.4313"
         id="isFLLRow18" /><rect
         x="0"
         y="89.3667"
         width="7.87"
         height="5.4313"
         id="isFLLRow19" /></g><g
       id="isPipsRRL"
       fill="none"
       transform="translate(487.36,454.06)"><rect
         x="0"
         y="0"
         width="7.11"
         height="5.4313"
         id="isRRLRow00" /><rect
         x="0"
         y="4.7035"
         width="7.11"
         height="5.4313"
         id="isRRLRow01" /><rect
         x="0"
         y="9.4070"
         width="8.49"
         height="5.4313"
         id="isRRLRow02" /><rect
         x="0"
         y="14.1105"
         width="8.49"
         height="5.4313"
         id="isRRLRow03" /><rect
         x="0"
         y="18.8140"
         width="8.49"
         height="5.4313"
         id="isRRLRow04" /><rect
         x="0"
         y="23.5175"
         width="8.49"
         height="5.4313"
         id="isRRLRow05" /><rect
         x="0"
         y="28.2210"
         width="8.49"
         height="5.4313"
         id="isRRLRow06" /><rect
         x="0"
         y="32.9245"
         width="8.49"
         height="5.4313"
         id="isRRLRow07" /><rect
         x="0"
         y="37.6280"
         width="8.49"
         height="5.4313"
         id="isRRLRow08" /><rect
         x="0"
         y="42.3316"
         width="8.49"
         height="5.4313"
         id="isRRLRow09" /><rect
         x="0"
         y="47.0351"
         width="8.49"
         height="5.4313"
         id="isRRLRow10" /><rect
         x="0"
         y="51.7386"
         width="8.49"
         height="5.4313"
         id="isRRLRow11" /><rect
         x="0"
         y="56.4421"
         width="8.49"
         height="5.4313"
         id="isRRLRow12" /><rect
         x="0"
         y="61.1456"
         width="8.49"
         height="5.4313"
         id="isRRLRow13" /><rect
         x="0"
         y="65.8491"
         width="8.49"
         height="5.4313"
         id="isRRLRow14" /><rect
         x="0"
         y="70.5526"
         width="8.49"
         height="5.4313"
         id="isRRLRow15" /><rect
         x="0"
         y="75.2562"
         width="8.49"
         height="5.4313"
         id="isRRLRow16" /><rect
         x="0"
         y="79.9597"
         width="8.49"
         height="5.4313"
         id="isRRLRow17" /></g><g
       id="isPipsRLL"
       fill="none"
       transform="matrix(-1,0,0,1,456.13,454.06)"><rect
         x="0"
         y="0"
         width="7.11"
         height="5.4313"
         id="isRLLRow00" /><rect
         x="0"
         y="4.7035"
         width="7.11"
         height="5.4313"
         id="isRLLRow01" /><rect
         x="0"
         y="9.4070"
         width="8.49"
         height="5.4313"
         id="isRLLRow02" /><rect
         x="0"
         y="14.1105"
         width="8.49"
         height="5.4313"
         id="isRLLRow03" /><rect
         x="0"
         y="18.8140"
         width="8.49"
         height="5.4313"
         id="isRLLRow04" /><rect
         x="0"
         y="23.5175"
         width="8.49"
         height="5.4313"
         id="isRLLRow05" /><rect
         x="0"
         y="28.2210"
         width="8.49"
         height="5.4313"
         id="isRLLRow06" /><rect
         x="0"
         y="32.9245"
         width="8.49"
         height="5.4313"
         id="isRLLRow07" /><rect
         x="0"
         y="37.6280"
         width="8.49"
         height="5.4313"
         id="isRLLRow08" /><rect
         x="0"
         y="42.3316"
         width="8.49"
         height="5.4313"
         id="isRLLRow09" /><rect
         x="0"
         y="47.0351"
         width="8.49"
         height="5.4313"
         id="isRLLRow10" /><rect
         x="0"
         y="51.7386"
         width="8.49"
         height="5.4313"
         id="isRLLRow11" /><rect
         x="0"
         y="56.4421"
         width="8.49"
         height="5.4313"
         id="isRLLRow12" /><rect
         x="0"
         y="61.1456"
         width="8.49"
         height="5.4313"
         id="isRLLRow13" /><rect
         x="0"
         y="65.8491"
         width="8.49"
         height="5.4313"
         id="isRLLRow14" /><rect
         x="0"
         y="70.5526"
         width="8.49"
         height="5.4313"
         id="isRLLRow15" /><rect
         x="0"
         y="75.2562"
         width="8.49"
         height="5.4313"
         id="isRLLRow16" /><rect
         x="0"
         y="79.9597"
         width="8.49"
         height="5.4313"
         id="isRLLRow17" /></g></g><g
       id="armorValues"
       style="font-family:Eurostile;font-size:6.76140022px">
<text
        font-weight="bold"
         text-anchor="middle"
         id="textIS_CT"
         x="471.63"
         y="508.64">( 0 )</text>
<text
        font-weight="bold"
         text-anchor="middle"
         id="textIS_RT"
         x="530.9"
         y="412.26">( 0 )</text>
<text
        font-weight="bold"
         text-anchor="middle"
         id="textIS_LT"
         x="414.52"
         y="412.26">( 0 )</text>
<text
        font-weight="bold"
         text-anchor="middle"
         id="textIS_FRL"
         x="533.46"
         y="477.51">( 0 )</text>
<text
        font-weight="bold"
         text-anchor="middle"
         id="textIS_FLL"
         x="412.35"
         y="477.51">( 0 )</text>
<text
        font-weight="bold"
         text-anchor="middle"
         id="textIS_RRL"
         x="537.00"
         y="526.15">( 0 )</text>
<text
        font-weight="bold"
         text-anchor="middle"
         id="textIS_RLL"
         x="408.81"
         y="526.15">( 0 )</text><text
   font-weight="bold"
   style="font-weight:bold;text-anchor:middle;font-size:6.76"
   id="structureType"
   x="471.60025"
   y="552.09985">Standard</text>
</g>         </g></g>
</svg>
