<?xml version="1.0" encoding="utf-8"?>
<!DOCTYPE svg PUBLIC "-//W3C//DTD SVG 1.0//EN" "http://www.w3.org/TR/2001/REC-SVG-20010904/DTD/svg10.dtd">
<svg version="1.0" xmlns="http://www.w3.org/2000/svg" xmlns:xlink="http://www.w3.org/1999/xlink" x="0" y="0" width="150.982" height="171.385"
     xml:space="preserve">
<g id="internal_diagram_biped" transform="matrix(1,0,0,-1,-397.41833,378.338)">
<g
           id="g56105"
           transform="translate(510.119,340.634)"><path
             d="m 0,0 0,9.193 -1.532,0.383 -0.382,3.83 -3.065,1.149 -1.916,0 -0.766,-0.383 -0.766,0.383 -1.915,0 -0.383,-0.767 -1.532,0 0,0.767 -1.15,0 -0.766,1.15 -5.363,0 -0.765,-1.15 -2.297,0 0,-29.82 -2.299,-16.203 -0.018,-13.347 18.404,0 -0.384,2.298 0.384,0.765 0.766,0.383 0,0.383 -0.766,0.384 0,0.766 -0.384,0.382 0,3.831 -0.382,0.765 -8.044,1.917 -0.766,0.765 -0.766,0 0,1.533 0.766,0 0.766,0.765 0,2.299 0.766,0.766 0,1.15 -0.766,0.382 0,2.298 1.148,0.766 1.15,3.447 1.148,0 -0.766,0.766 -0.382,0 0,0.766 0.382,0 0,0.766 -0.382,0 0,0.767 0.382,0 0.766,0.766 -1.148,0 0,2.299 1.148,0 0.384,1.149 0.766,0 2.682,1.916 0.766,0 0.766,-1.15 2.68,0 0.384,1.15 1.149,0 0.384,3.064 0.382,0.382 0,3.064 -0.382,0.384 0,1.915 L 0,0 Z"
             style="fill:#c8c7c7;fill-opacity:1;fill-rule:nonzero;stroke:none"
             id="path56107"
              /></g><g
           id="g56109"
           transform="translate(511.1029,349.7318)"><path
             d="m 0,0 c 0.537,0.045 1.058,-0.007 1.549,-0.133 l -0.056,0.647 0.698,0.83 0.04,3.91 0.698,0.829 8.839,0.773 4.016,-1.956 0.172,-1.968 0.862,-1.077 0.101,-1.145 -0.663,-1.212 0.134,-1.526 1.559,-0.248 -0.477,-7.732 -0.382,-0.034 0.134,-1.526 0.382,0.034 -0.081,-3.468 0.267,-3.052 0.83,-0.696 0.1,-1.146 -0.663,-1.211 0.501,-5.724 -0.697,-0.831 0.066,-0.762 1.146,0.101 0.448,-0.73 0.099,-1.145 -0.313,-0.797 -1.145,-0.1 0.099,-1.145 0.831,-0.697 0.201,-2.289 1.626,-1.011 -1.226,-3.568 -0.697,-0.829 0.101,-1.145 -0.764,-0.066 0.067,-0.763 0.764,0.066 0.801,-9.158 -0.945,-2.39 0.066,-0.763 0.797,-0.315 0.101,-1.146 -0.731,-0.448 0.135,-1.525 -0.019,-8.107 -1.642,-3.218 -7.87,-0.864 -0.796,0.314 2.423,3.293 -2.881,5.479 0.004,2.545 0.979,2.007 -1.346,2.189 -0.969,11.066 0.664,1.212 -0.068,0.763 -1.625,1.011 -0.568,6.487 0.697,0.831 -0.1,1.144 -1.145,-0.1 -0.448,0.729 -0.101,1.145 0.314,0.797 1.146,0.1 -0.068,0.763 -0.829,0.696 -0.968,11.067 0.247,1.559 -0.233,2.671 -0.481,1.111 -0.134,1.526 -1.212,0.664 -0.056,0.648 C 1.841,-8.969 1.338,-9.112 0.802,-9.159 0.04,-9.225 -0.694,-9.1 -1.353,-8.826 l 0,8.495 C -0.932,-0.156 -0.477,-0.043 0,0"
             style="fill:#c8c7c7;fill-opacity:1;fill-rule:nonzero;stroke:none"
             id="path56111"
              /></g><g
           id="g56113"
           transform="translate(439.5058,349.7318)"><path
             d="m 0,0 c -0.536,0.045 -1.057,-0.007 -1.549,-0.133 l 0.056,0.647 -0.697,0.83 -0.042,3.91 -0.696,0.829 -8.839,0.773 -4.017,-1.956 -0.172,-1.968 -0.862,-1.077 -0.101,-1.145 0.664,-1.212 -0.135,-1.526 -1.559,-0.248 0.478,-7.732 0.381,-0.034 -0.133,-1.526 -0.383,0.034 0.081,-3.468 -0.266,-3.052 -0.83,-0.696 -0.1,-1.146 0.663,-1.211 -0.501,-5.724 0.697,-0.831 -0.067,-0.762 -1.145,0.101 -0.448,-0.73 -0.101,-1.145 0.315,-0.797 1.145,-0.1 -0.099,-1.145 -0.831,-0.697 -0.201,-2.289 -1.626,-1.011 1.225,-3.568 0.698,-0.829 -0.102,-1.145 0.764,-0.066 -0.067,-0.763 -0.763,0.066 -0.801,-9.158 0.945,-2.39 -0.067,-0.763 -0.797,-0.315 -0.101,-1.146 0.731,-0.448 -0.134,-1.525 0.019,-8.107 1.64,-3.218 7.872,-0.864 0.796,0.314 -2.424,3.293 2.882,5.479 -0.004,2.545 -0.979,2.007 1.346,2.189 0.968,11.066 -0.664,1.212 0.067,0.763 1.626,1.011 0.568,6.487 -0.696,0.831 0.1,1.144 1.145,-0.1 0.448,0.729 0.101,1.145 -0.315,0.797 -1.146,0.1 0.068,0.763 0.83,0.696 0.967,11.067 -0.247,1.559 0.234,2.671 0.481,1.111 0.134,1.526 1.211,0.664 0.056,0.648 c 0.465,-0.21 0.967,-0.353 1.504,-0.4 0.762,-0.066 1.495,0.059 2.155,0.333 l 0,8.495 C 0.933,-0.156 0.478,-0.043 0,0"
             style="fill:#c8c7c7;fill-opacity:1;fill-rule:nonzero;stroke:none"
             id="path56115"
              /></g><g
           id="g56117"
           transform="translate(500.8259,292.5913)"><path
             d="m 0,0 1.091,-0.886 0.491,-1.044 0.746,-2.543 0.445,-2.623 0.083,-2.328 -0.108,-1.203 -0.645,-1.738 0.191,-1.124 0.664,-0.215 0.19,-1.125 -0.599,-0.159 0.128,-0.749 0.663,-0.215 -0.536,-0.534 0.128,-0.75 0.598,0.16 0.193,-1.125 -0.536,-0.534 0.255,-1.498 0.898,0.239 0.255,-1.499 -0.707,-1.362 0.572,-3.372 -0.472,-0.909 c 0,0 1.529,-0.28 1.734,-0.431 0.206,-0.151 0.51,-2.531 0.306,-2.997 -0.204,-0.467 -1.226,-1.449 -1.226,-1.449 l 0.396,-2.242 1.218,-1.633 0.937,-3.668 -0.408,-1.284 2.148,-1.898 4.649,-15.704 -0.306,-4.598 -2.567,-4.56 1.083,-6.37 0.764,-4.496 10.602,-4.491 -0.92,-2.681 -23.453,0 0,1.148 0.919,1.916 2.607,1.639 -1.687,8.319 -0.307,0 0,3.448 -3.012,0.766 -3.045,6.512 -0.684,15.8 0.919,2.203 0.118,0.85 -0.997,4.11 -0.499,2.113 -0.517,2.623 c 0,0 -0.77,0.263 -1.326,0.431 -0.555,0.167 -0.975,2.513 -0.51,2.997 0.467,0.483 1.072,1.068 1.072,1.068 l -0.726,0.589 0.492,2.623 -2.136,3.348 -2.477,8.244 0.157,2.247 0.708,1.363 -0.492,1.044 -2.289,13.464 14.219,0 L 0,0 Z"
             style="fill:#c8c7c7;fill-opacity:1;fill-rule:nonzero;stroke:none"
             id="path56119"
              /></g><g
           id="g56121"
           transform="translate(449.6224,292.5913)"><path
             d="m 0,0 -1.091,-0.886 -0.491,-1.044 -0.745,-2.543 -0.446,-2.623 -0.083,-2.328 0.108,-1.203 0.645,-1.738 -0.191,-1.124 -0.663,-0.215 -0.191,-1.125 0.599,-0.159 -0.127,-0.749 -0.663,-0.215 0.535,-0.534 -0.128,-0.75 -0.598,0.16 -0.192,-1.125 0.535,-0.534 -0.255,-1.498 -0.898,0.239 -0.255,-1.499 0.708,-1.362 -0.573,-3.372 0.472,-0.909 c 0,0 -1.529,-0.28 -1.734,-0.431 -0.206,-0.151 -0.51,-2.531 -0.306,-2.997 0.204,-0.467 1.225,-1.449 1.225,-1.449 l -0.396,-2.242 -1.218,-1.633 -0.936,-3.668 0.409,-1.284 -2.149,-1.898 -4.649,-15.704 0.307,-4.598 2.566,-4.56 -1.083,-6.37 -0.764,-4.496 -10.602,-4.491 0.92,-2.681 23.454,0 0,1.148 -0.92,1.916 -2.606,1.639 1.687,8.319 0.306,0 0,3.448 3.012,0.766 3.045,6.512 0.684,15.8 -0.919,2.203 -0.118,0.85 0.997,4.11 0.5,2.113 0.515,2.623 c 0,0 0.771,0.263 1.327,0.431 0.555,0.167 0.976,2.513 0.51,2.997 -0.467,0.483 -1.072,1.068 -1.072,1.068 l 0.726,0.589 -0.492,2.623 2.136,3.348 2.478,8.244 -0.157,2.247 -0.709,1.363 0.492,1.044 2.289,13.464 -14.219,0 L 0,0 Z"
             style="fill:#c8c7c7;fill-opacity:1;fill-rule:nonzero;stroke:none"
             id="path56123"
              /></g><g
           id="g56125"
           transform="translate(464.012,325.2567)"><path
             d="m 0,0 0,29.82 -2.298,0 -0.766,1.15 -5.363,0 -0.766,-1.15 -1.148,0 0,-0.767 -1.533,0 -0.383,0.767 -1.915,0 -0.767,-0.384 -0.766,0.384 -1.914,0 -3.065,-1.15 -0.383,-3.83 -1.532,-0.383 0,-9.193 1.915,-0.766 0,-1.915 -0.383,-0.383 0,-3.063 0.383,-0.383 0.383,-3.064 1.15,0 0.382,-1.151 2.682,0 0.766,1.151 0.766,0 2.681,-1.917 0.766,0 0.383,-1.149 1.15,0 0,-2.298 -1.15,0 0.766,-0.766 0.384,0 0,-0.767 -0.384,0 0,-0.766 0.384,0 0,-0.766 -0.384,0 -0.766,-0.766 1.15,0 1.148,-3.447 1.15,-0.766 0,-2.298 -0.766,-0.383 0,-1.148 0.766,-0.766 0,-2.3 0.766,-0.766 0.766,0 0,-1.532 -0.766,0 -0.766,-0.766 -8.044,-1.916 -0.384,-0.765 0,-3.831 -0.382,-0.383 0,-0.766 -0.765,-0.383 0,-0.383 0.765,-0.383 0.382,-0.766 -0.382,-2.298 18.386,0 0,13.348 L 0,0 Z"
             style="fill:#c8c7c7;fill-opacity:1;fill-rule:nonzero;stroke:none"
             id="path56127"
              /></g><g
           id="g56129"
           transform="translate(484.7488,365.3532)"><path
             d="M 0,0 0.472,0.715 -0.101,1.711 -0.957,1.659 -1.746,1.203 c -1.33,2.364 -2.191,4.121 -4.293,4.811 l -1.148,3.741 -3.959,0 -1.023,-3.831 c -2.023,-0.753 -3.073,-2.51 -4.353,-4.831 l -0.981,0.566 -0.855,0.052 -0.575,-0.996 0.473,-0.715 1.117,-0.644 c -0.848,-2.116 -1.337,-4.584 -1.337,-7.221 0,-7.828 4.288,-11.107 9.576,-11.107 5.29,0 9.576,3.279 9.576,11.107 0,2.688 -0.505,5.199 -1.382,7.34 L 0,0 Z"
             style="fill:#c8c7c7;fill-opacity:1;fill-rule:nonzero;stroke:none"
             id="path56131"
              /></g><g
           id="g56133"
           transform="translate(488.2144,325.3689)"><path
             d="m 0,0 -2.299,-16.203 -0.016,-13.348 0,-0.766 -1.516,0 0,-0.766 1.132,0 0,-1.149 -1.132,0 0,-0.766 0.766,0 0,-1.149 -0.766,0 0,-0.766 0.766,0 0,-1.149 -2.681,-4.597 -12.258,0 -2.681,4.597 0,1.149 0.766,0 0,0.766 -0.766,0 0,1.149 0.766,0 0,0.766 -1.148,0 0,1.149 1.148,0 0,0.766 -1.532,0 0,0.766 0,13.348 L -23.75,0 l 0,33.332 1.917,1.851 19.918,0 L 0,33.332 0,0 Z"
             style="fill:#c8c7c7;fill-opacity:1;fill-rule:nonzero;stroke:none"
             id="path56135"
              /></g><g
       id="g56531"
       transform="translate(484.5847,327.8743)"><path
         d="m 0,0 -2.299,-16.203 -0.017,-13.348 0,-0.766 -1.515,0 0,-0.766 1.132,0 0,-1.149 -1.132,0 0,-0.766 0.766,0 0,-1.15 -0.766,0 0,-0.766 0.766,0 0,-1.148 -2.681,-4.597 -12.258,0 -2.681,4.597 0,1.148 0.766,0 0,0.766 -0.766,0 0,1.15 0.766,0 0,0.766 -1.148,0 0,1.149 1.148,0 0,0.766 -1.532,0 0,0.766 0,13.348 L -23.75,0 l 0,33.332 1.917,1.851 19.918,0 L 0,33.332 0,0 Z"
         style="fill:#ffffff;fill-opacity:1;fill-rule:nonzero;stroke:none"
         id="path56533"
          /></g><g
       id="g56535"
       transform="translate(484.5847,327.8743)"><path
         d="m 0,0 -2.299,-16.203 -0.017,-13.348 0,-0.766 -1.515,0 0,-0.766 1.132,0 0,-1.149 -1.132,0 0,-0.766 0.766,0 0,-1.15 -0.766,0 0,-0.766 0.766,0 0,-1.148 -2.681,-4.597 -12.258,0 -2.681,4.597 0,1.148 0.766,0 0,0.766 -0.766,0 0,1.15 0.766,0 0,0.766 -1.148,0 0,1.149 1.148,0 0,0.766 -1.532,0 0,0.766 0,13.348 L -23.75,0 l 0,33.332 1.917,1.851 19.918,0 L 0,33.332 0,0 Z"
         style="fill:none;stroke:#231f20;stroke-width:1.449;stroke-linecap:butt;stroke-linejoin:miter;stroke-miterlimit:4;stroke-dasharray:none;stroke-opacity:1"
         id="path56537"
          /></g><g
       id="g56539"
       transform="translate(507.3807,343.1392)"><path
         d="m 0,0 0,9.194 -1.532,0.382 -0.382,3.83 -3.065,1.149 -1.916,0 -0.766,-0.383 -0.766,0.383 -1.915,0 -0.383,-0.767 -1.532,0 0,0.767 -1.15,0 -0.766,1.15 -5.362,0 -0.766,-1.15 -2.297,0 0,-29.82 -2.299,-16.203 -0.018,-13.348 18.404,0 -0.384,2.299 0.384,0.765 0.766,0.383 0,0.383 -0.766,0.384 0,0.766 -0.384,0.382 0,3.831 -0.382,0.765 -8.044,1.916 -0.766,0.767 -0.766,0 0,1.532 0.766,0 0.766,0.765 0,2.299 0.766,0.766 0,1.15 -0.766,0.382 0,2.298 1.148,0.766 1.15,3.447 1.148,0 -0.766,0.766 -0.382,0 0,0.766 0.382,0 0,0.766 -0.382,0 0,0.767 0.382,0 0.766,0.766 -1.148,0 0,2.299 1.148,0 0.385,1.149 0.765,0 2.682,1.916 0.766,0 0.766,-1.15 2.68,0 0.384,1.15 1.149,0 0.384,3.064 0.382,0.382 0,3.064 -0.382,0.384 0,1.915 L 0,0 Z"
         style="fill:#ffffff;fill-opacity:1;fill-rule:nonzero;stroke:none"
         id="path56541"
          /></g><g
       id="g56543"
       transform="translate(507.3807,343.1392)"><path
         d="m 0,0 0,9.194 -1.532,0.382 -0.382,3.83 -3.065,1.149 -1.916,0 -0.766,-0.383 -0.766,0.383 -1.915,0 -0.383,-0.767 -1.532,0 0,0.767 -1.15,0 -0.766,1.15 -5.362,0 -0.766,-1.15 -2.297,0 0,-29.82 -2.299,-16.203 -0.018,-13.348 18.404,0 -0.384,2.299 0.384,0.765 0.766,0.383 0,0.383 -0.766,0.384 0,0.766 -0.384,0.382 0,3.831 -0.382,0.765 -8.044,1.916 -0.766,0.767 -0.766,0 0,1.532 0.766,0 0.766,0.765 0,2.299 0.766,0.766 0,1.15 -0.766,0.382 0,2.298 1.148,0.766 1.15,3.447 1.148,0 -0.766,0.766 -0.382,0 0,0.766 0.382,0 0,0.766 -0.382,0 0,0.767 0.382,0 0.766,0.766 -1.148,0 0,2.299 1.148,0 0.385,1.149 0.765,0 2.682,1.916 0.766,0 0.766,-1.15 2.68,0 0.384,1.15 1.149,0 0.384,3.064 0.382,0.382 0,3.064 -0.382,0.384 0,1.915 L 0,0 Z"
         style="fill:none;stroke:#231f20;stroke-width:1.449;stroke-linecap:butt;stroke-linejoin:miter;stroke-miterlimit:4;stroke-dasharray:none;stroke-opacity:1"
         id="path56545"
          /></g><g
           id="g56555"
           transform="translate(508.1749,352.237)"><path
             d="m 0,0 c 0.537,0.045 1.058,-0.007 1.549,-0.133 l -0.056,0.647 0.698,0.83 0.041,3.91 0.697,0.829 8.839,0.773 4.016,-1.956 0.172,-1.968 0.862,-1.077 0.101,-1.145 -0.663,-1.212 0.134,-1.526 1.559,-0.248 -0.477,-7.732 -0.382,-0.034 0.134,-1.525 0.382,0.033 -0.081,-3.468 0.267,-3.052 0.83,-0.696 0.1,-1.146 -0.663,-1.211 0.501,-5.724 -0.697,-0.831 0.066,-0.762 1.146,0.101 0.448,-0.73 0.099,-1.145 -0.313,-0.797 -1.145,-0.1 0.099,-1.145 0.831,-0.697 0.201,-2.289 1.626,-1.011 -1.226,-3.568 -0.697,-0.829 0.101,-1.145 -0.763,-0.066 0.066,-0.763 0.764,0.066 0.801,-9.158 -0.945,-2.39 0.066,-0.763 0.797,-0.315 0.102,-1.145 -0.731,-0.449 0.134,-1.525 -0.019,-8.107 -1.641,-3.218 -7.871,-0.864 -0.796,0.314 2.423,3.294 -2.881,5.478 0.004,2.545 0.979,2.007 -1.346,2.189 -0.969,11.066 0.664,1.212 -0.067,0.763 -1.626,1.011 -0.568,6.488 0.697,0.83 -0.1,1.145 -1.145,-0.101 -0.448,0.729 -0.101,1.145 0.315,0.797 1.145,0.1 -0.068,0.763 -0.829,0.696 -0.968,11.067 0.247,1.559 -0.233,2.672 -0.481,1.11 -0.134,1.526 -1.212,0.664 -0.056,0.648 C 1.841,-8.969 1.338,-9.112 0.802,-9.159 0.04,-9.225 -0.694,-9.1 -1.353,-8.826 l 0,8.495 C -0.932,-0.156 -0.477,-0.043 0,0"
             style="fill:#ffffff;fill-opacity:1;fill-rule:nonzero;stroke:none"
             id="path56557"
              /></g><g
           id="g56559"
           transform="translate(508.1749,352.237)"><path
             d="m 0,0 c 0.537,0.045 1.058,-0.007 1.549,-0.133 l -0.056,0.647 0.698,0.83 0.041,3.91 0.697,0.829 8.839,0.773 4.016,-1.956 0.172,-1.968 0.862,-1.077 0.101,-1.145 -0.663,-1.212 0.134,-1.526 1.559,-0.248 -0.477,-7.732 -0.382,-0.034 0.134,-1.525 0.382,0.033 -0.081,-3.468 0.267,-3.052 0.83,-0.696 0.1,-1.146 -0.663,-1.211 0.501,-5.724 -0.697,-0.831 0.066,-0.762 1.146,0.101 0.448,-0.73 0.099,-1.145 -0.313,-0.797 -1.145,-0.1 0.099,-1.145 0.831,-0.697 0.201,-2.289 1.626,-1.011 -1.226,-3.568 -0.697,-0.829 0.101,-1.145 -0.763,-0.066 0.066,-0.763 0.764,0.066 0.801,-9.158 -0.945,-2.39 0.066,-0.763 0.797,-0.315 0.102,-1.145 -0.731,-0.449 0.134,-1.525 -0.019,-8.107 -1.641,-3.218 -7.871,-0.864 -0.796,0.314 2.423,3.294 -2.881,5.478 0.004,2.545 0.979,2.007 -1.346,2.189 -0.969,11.066 0.664,1.212 -0.067,0.763 -1.626,1.011 -0.568,6.488 0.697,0.83 -0.1,1.145 -1.145,-0.101 -0.448,0.729 -0.101,1.145 0.315,0.797 1.145,0.1 -0.068,0.763 -0.829,0.696 -0.968,11.067 0.247,1.559 -0.233,2.672 -0.481,1.11 -0.134,1.526 -1.212,0.664 -0.056,0.648 C 1.841,-8.969 1.338,-9.112 0.802,-9.159 0.04,-9.225 -0.694,-9.1 -1.353,-8.826 l 0,8.495 C -0.932,-0.156 -0.477,-0.043 0,0 Z"
             style="fill:none;stroke:#231f20;stroke-width:1.449;stroke-linecap:butt;stroke-linejoin:miter;stroke-miterlimit:4;stroke-dasharray:none;stroke-opacity:1"
             id="path56561"
              /></g><g
           id="g56563"
           transform="translate(436.5779,352.237)"><path
             d="m 0,0 c -0.536,0.045 -1.057,-0.007 -1.548,-0.133 l 0.055,0.647 -0.697,0.83 -0.041,3.91 -0.697,0.829 -8.839,0.773 -4.017,-1.956 -0.171,-1.968 -0.863,-1.077 -0.101,-1.145 0.664,-1.212 -0.135,-1.526 -1.559,-0.248 0.478,-7.732 0.381,-0.034 -0.133,-1.525 -0.383,0.033 0.082,-3.468 -0.267,-3.052 -0.83,-0.696 -0.1,-1.146 0.663,-1.211 -0.501,-5.724 0.697,-0.831 -0.067,-0.762 -1.145,0.101 -0.448,-0.73 -0.1,-1.145 0.314,-0.797 1.145,-0.1 -0.099,-1.145 -0.831,-0.697 -0.201,-2.289 -1.626,-1.011 1.225,-3.568 0.698,-0.829 -0.101,-1.145 0.764,-0.066 -0.068,-0.763 -0.763,0.066 -0.801,-9.158 0.945,-2.39 -0.067,-0.763 -0.797,-0.315 -0.1,-1.145 0.731,-0.449 -0.135,-1.525 0.019,-8.107 1.641,-3.218 7.871,-0.864 0.796,0.314 -2.424,3.294 2.882,5.478 -0.004,2.545 -0.979,2.007 1.346,2.189 0.968,11.066 -0.664,1.212 0.068,0.763 1.625,1.011 0.568,6.488 -0.696,0.83 0.1,1.145 1.145,-0.101 0.448,0.729 0.101,1.145 -0.314,0.797 -1.147,0.1 0.068,0.763 0.83,0.696 0.967,11.067 -0.247,1.559 0.234,2.672 0.481,1.11 0.134,1.526 1.211,0.664 0.056,0.648 c 0.465,-0.21 0.967,-0.353 1.504,-0.4 0.762,-0.066 1.495,0.059 2.155,0.333 l 0,8.495 C 0.933,-0.156 0.478,-0.043 0,0"
             style="fill:#ffffff;fill-opacity:1;fill-rule:nonzero;stroke:none"
             id="path56565"
              /></g><g
           id="g56567"
           transform="translate(436.5779,352.237)"><path
             d="m 0,0 c -0.536,0.045 -1.057,-0.007 -1.548,-0.133 l 0.055,0.647 -0.697,0.83 -0.041,3.91 -0.697,0.829 -8.839,0.773 -4.017,-1.956 -0.171,-1.968 -0.863,-1.077 -0.101,-1.145 0.664,-1.212 -0.135,-1.526 -1.559,-0.248 0.478,-7.732 0.381,-0.034 -0.133,-1.525 -0.383,0.033 0.082,-3.468 -0.267,-3.052 -0.83,-0.696 -0.1,-1.146 0.663,-1.211 -0.501,-5.724 0.697,-0.831 -0.067,-0.762 -1.145,0.101 -0.448,-0.73 -0.1,-1.145 0.314,-0.797 1.145,-0.1 -0.099,-1.145 -0.831,-0.697 -0.201,-2.289 -1.626,-1.011 1.225,-3.568 0.698,-0.829 -0.101,-1.145 0.764,-0.066 -0.068,-0.763 -0.763,0.066 -0.801,-9.158 0.945,-2.39 -0.067,-0.763 -0.797,-0.315 -0.1,-1.145 0.731,-0.449 -0.135,-1.525 0.019,-8.107 1.641,-3.218 7.871,-0.864 0.796,0.314 -2.424,3.294 2.882,5.478 -0.004,2.545 -0.979,2.007 1.346,2.189 0.968,11.066 -0.664,1.212 0.068,0.763 1.625,1.011 0.568,6.488 -0.696,0.83 0.1,1.145 1.145,-0.101 0.448,0.729 0.101,1.145 -0.314,0.797 -1.147,0.1 0.068,0.763 0.83,0.696 0.967,11.067 -0.247,1.559 0.234,2.672 0.481,1.11 0.134,1.526 1.211,0.664 0.056,0.648 c 0.465,-0.21 0.967,-0.353 1.504,-0.4 0.762,-0.066 1.495,0.059 2.155,0.333 l 0,8.495 C 0.933,-0.156 0.478,-0.043 0,0 Z"
             style="fill:none;stroke:#231f20;stroke-width:1.449;stroke-linecap:butt;stroke-linejoin:miter;stroke-miterlimit:4;stroke-dasharray:none;stroke-opacity:1"
             id="path56569"
              /></g><g
           id="g56571"
           transform="translate(481.5096,367.8586)"><path
             d="M 0,0 0.472,0.715 -0.101,1.711 -0.957,1.659 -1.746,1.203 c -1.331,2.364 -2.191,4.121 -4.293,4.811 l -1.148,3.741 -3.959,0 -1.023,-3.831 c -2.023,-0.753 -3.073,-2.51 -4.353,-4.831 l -0.981,0.566 -0.855,0.052 -0.575,-0.996 0.473,-0.715 1.117,-0.644 c -0.848,-2.116 -1.337,-4.584 -1.337,-7.222 0,-7.827 4.288,-11.107 9.576,-11.107 5.29,0 9.576,3.28 9.576,11.107 0,2.689 -0.505,5.2 -1.382,7.341 L 0,0 Z"
             style="fill:#ffffff;fill-opacity:1;fill-rule:nonzero;stroke:none"
             id="path56573"
              /></g><g
           id="g56575"
           transform="translate(481.5096,367.8586)"><path
             d="M 0,0 0.472,0.715 -0.101,1.711 -0.957,1.659 -1.746,1.203 c -1.331,2.364 -2.191,4.121 -4.293,4.811 l -1.148,3.741 -3.959,0 -1.023,-3.831 c -2.023,-0.753 -3.073,-2.51 -4.353,-4.831 l -0.981,0.566 -0.855,0.052 -0.575,-0.996 0.473,-0.715 1.117,-0.644 c -0.848,-2.116 -1.337,-4.584 -1.337,-7.222 0,-7.827 4.288,-11.107 9.576,-11.107 5.29,0 9.576,3.28 9.576,11.107 0,2.689 -0.505,5.2 -1.382,7.341 L 0,0 Z"
             style="fill:none;stroke:#231f20;stroke-width:1.449;stroke-linecap:butt;stroke-linejoin:miter;stroke-miterlimit:4;stroke-dasharray:none;stroke-opacity:1"
             id="path56577"
              /></g><g
           id="g56579"
           transform="translate(497.898,295.0965)"><path
             d="m 0,0 1.091,-0.886 0.491,-1.044 0.746,-2.543 0.445,-2.623 0.083,-2.328 -0.108,-1.203 -0.645,-1.738 0.191,-1.124 0.663,-0.215 0.191,-1.125 -0.599,-0.159 0.127,-0.749 0.664,-0.215 -0.536,-0.534 0.128,-0.75 0.598,0.16 0.192,-1.125 -0.535,-0.534 0.255,-1.498 0.898,0.239 0.255,-1.499 -0.708,-1.362 0.573,-3.372 -0.472,-0.909 c 0,0 1.529,-0.28 1.734,-0.431 0.206,-0.151 0.51,-2.531 0.306,-2.997 -0.204,-0.467 -1.226,-1.449 -1.226,-1.449 l 0.397,-2.242 1.218,-1.633 0.936,-3.668 -0.408,-1.284 2.148,-1.898 4.649,-15.704 -0.306,-4.598 -2.567,-4.56 1.083,-6.37 0.764,-4.496 10.602,-4.491 -0.92,-2.681 -23.453,0 0,1.148 0.919,1.916 2.607,1.64 -1.688,8.318 -0.306,0 0,3.448 -3.012,0.767 -3.045,6.511 -0.684,15.8 0.919,2.204 0.118,0.849 -0.997,4.11 -0.499,2.113 -0.517,2.623 c 0,0 -0.77,0.263 -1.326,0.431 -0.555,0.167 -0.975,2.513 -0.51,2.997 0.467,0.483 1.072,1.068 1.072,1.068 l -0.726,0.589 0.492,2.623 -2.136,3.349 -2.477,8.243 0.156,2.247 0.709,1.363 -0.492,1.044 -2.289,13.464 14.219,0 L 0,0 Z"
             style="fill:#ffffff;fill-opacity:1;fill-rule:nonzero;stroke:none"
             id="path56581"
              /></g><g
           id="g56583"
           transform="translate(497.898,295.0965)"><path
             d="m 0,0 1.091,-0.886 0.491,-1.044 0.746,-2.543 0.445,-2.623 0.083,-2.328 -0.108,-1.203 -0.645,-1.738 0.191,-1.124 0.663,-0.215 0.191,-1.125 -0.599,-0.159 0.127,-0.749 0.664,-0.215 -0.536,-0.534 0.128,-0.75 0.598,0.16 0.192,-1.125 -0.535,-0.534 0.255,-1.498 0.898,0.239 0.255,-1.499 -0.708,-1.362 0.573,-3.372 -0.472,-0.909 c 0,0 1.529,-0.28 1.734,-0.431 0.206,-0.151 0.51,-2.531 0.306,-2.997 -0.204,-0.467 -1.226,-1.449 -1.226,-1.449 l 0.397,-2.242 1.218,-1.633 0.936,-3.668 -0.408,-1.284 2.148,-1.898 4.649,-15.704 -0.306,-4.598 -2.567,-4.56 1.083,-6.37 0.764,-4.496 10.602,-4.491 -0.92,-2.681 -23.453,0 0,1.148 0.919,1.916 2.607,1.64 -1.688,8.318 -0.306,0 0,3.448 -3.012,0.767 -3.045,6.511 -0.684,15.8 0.919,2.204 0.118,0.849 -0.997,4.11 -0.499,2.113 -0.517,2.623 c 0,0 -0.77,0.263 -1.326,0.431 -0.555,0.167 -0.975,2.513 -0.51,2.997 0.467,0.483 1.072,1.068 1.072,1.068 l -0.726,0.589 0.492,2.623 -2.136,3.349 -2.477,8.243 0.156,2.247 0.709,1.363 -0.492,1.044 -2.289,13.464 14.219,0 L 0,0 Z"
             style="fill:none;stroke:#231f20;stroke-width:1.449;stroke-linecap:butt;stroke-linejoin:miter;stroke-miterlimit:4;stroke-dasharray:none;stroke-opacity:1"
             id="path56585"
              /></g><g
           id="g56587"
           transform="translate(446.6945,295.0965)"><path
             d="m 0,0 -1.091,-0.886 -0.491,-1.044 -0.745,-2.543 -0.446,-2.623 -0.083,-2.328 0.108,-1.203 0.645,-1.738 -0.191,-1.124 -0.664,-0.215 -0.19,-1.125 0.599,-0.159 -0.128,-0.749 -0.662,-0.215 0.535,-0.534 -0.128,-0.75 -0.598,0.16 -0.193,-1.125 0.536,-0.534 -0.255,-1.498 -0.898,0.239 -0.255,-1.499 0.707,-1.362 -0.572,-3.372 0.472,-0.909 c 0,0 -1.529,-0.28 -1.734,-0.431 -0.206,-0.151 -0.51,-2.531 -0.306,-2.997 0.204,-0.467 1.225,-1.449 1.225,-1.449 l -0.396,-2.242 -1.218,-1.633 -0.936,-3.668 0.409,-1.284 -2.149,-1.898 -4.649,-15.704 0.307,-4.598 2.566,-4.56 -1.083,-6.37 -0.764,-4.496 -10.602,-4.491 0.92,-2.681 23.454,0 0,1.148 -0.92,1.916 -2.606,1.64 1.686,8.318 0.307,0 0,3.448 3.012,0.767 3.045,6.511 0.684,15.8 -0.919,2.204 -0.118,0.849 0.997,4.11 0.5,2.113 0.516,2.623 c 0,0 0.77,0.263 1.326,0.431 0.555,0.167 0.976,2.513 0.51,2.997 -0.467,0.483 -1.072,1.068 -1.072,1.068 l 0.726,0.589 -0.492,2.623 2.136,3.349 2.478,8.243 -0.158,2.247 -0.708,1.363 0.492,1.044 2.289,13.464 -14.219,0 L 0,0 Z"
             style="fill:#ffffff;fill-opacity:1;fill-rule:nonzero;stroke:none"
             id="path56589"
              /></g><g
           id="g56591"
           transform="translate(446.6945,295.0965)"><path
             d="m 0,0 -1.091,-0.886 -0.491,-1.044 -0.745,-2.543 -0.446,-2.623 -0.083,-2.328 0.108,-1.203 0.645,-1.738 -0.191,-1.124 -0.664,-0.215 -0.19,-1.125 0.599,-0.159 -0.128,-0.749 -0.662,-0.215 0.535,-0.534 -0.128,-0.75 -0.598,0.16 -0.193,-1.125 0.536,-0.534 -0.255,-1.498 -0.898,0.239 -0.255,-1.499 0.707,-1.362 -0.572,-3.372 0.472,-0.909 c 0,0 -1.529,-0.28 -1.734,-0.431 -0.206,-0.151 -0.51,-2.531 -0.306,-2.997 0.204,-0.467 1.225,-1.449 1.225,-1.449 l -0.396,-2.242 -1.218,-1.633 -0.936,-3.668 0.409,-1.284 -2.149,-1.898 -4.649,-15.704 0.307,-4.598 2.566,-4.56 -1.083,-6.37 -0.764,-4.496 -10.602,-4.491 0.92,-2.681 23.454,0 0,1.148 -0.92,1.916 -2.606,1.64 1.686,8.318 0.307,0 0,3.448 3.012,0.767 3.045,6.511 0.684,15.8 -0.919,2.204 -0.118,0.849 0.997,4.11 0.5,2.113 0.516,2.623 c 0,0 0.77,0.263 1.326,0.431 0.555,0.167 0.976,2.513 0.51,2.997 -0.467,0.483 -1.072,1.068 -1.072,1.068 l 0.726,0.589 -0.492,2.623 2.136,3.349 2.478,8.243 -0.158,2.247 -0.708,1.363 0.492,1.044 2.289,13.464 -14.219,0 L 0,0 Z"
             style="fill:none;stroke:#231f20;stroke-width:1.449;stroke-linecap:butt;stroke-linejoin:miter;stroke-miterlimit:4;stroke-dasharray:none;stroke-opacity:1"
             id="path56593"
              /></g><g
           id="g56595"
           transform="translate(460.5314,327.8743)"><path
             d="m 0,0 0,29.82 -2.298,0 -0.766,1.15 -5.363,0 -0.766,-1.15 -1.148,0 0,-0.766 -1.533,0 -0.382,0.766 -1.916,0 -0.767,-0.383 -0.766,0.383 -1.914,0 -3.065,-1.149 -0.383,-3.83 -1.531,-0.383 0,-9.193 1.914,-0.766 0,-1.916 -0.383,-0.383 0,-3.063 0.383,-0.383 0.383,-3.064 1.15,0 0.382,-1.15 2.682,0 0.766,1.15 0.766,0 2.681,-1.916 0.766,0 0.383,-1.149 1.15,0 0,-2.299 -1.15,0 0.766,-0.765 0.384,0 0,-0.767 -0.384,0 0,-0.766 0.384,0 0,-0.766 -0.384,0 -0.766,-0.766 1.15,0 1.148,-3.448 1.15,-0.766 0,-2.298 -0.766,-0.383 0,-1.148 0.766,-0.766 0,-2.299 0.766,-0.766 0.766,0 0,-1.533 -0.766,0 -0.766,-0.766 -8.044,-1.916 -0.384,-0.765 0,-3.83 -0.382,-0.384 0,-0.766 -0.765,-0.383 0,-0.383 0.765,-0.383 0.382,-0.765 -0.382,-2.299 18.386,0 0,13.348 L 0,0 Z"
             style="fill:#ffffff;fill-opacity:1;fill-rule:nonzero;stroke:none"
             id="path56597"
              /></g><g
           id="g56599"
           transform="translate(460.5314,327.8743)"><path
             d="m 0,0 0,29.82 -2.298,0 -0.766,1.15 -5.363,0 -0.766,-1.15 -1.148,0 0,-0.766 -1.533,0 -0.382,0.766 -1.916,0 -0.767,-0.383 -0.766,0.383 -1.914,0 -3.065,-1.149 -0.383,-3.83 -1.531,-0.383 0,-9.193 1.914,-0.766 0,-1.916 -0.383,-0.383 0,-3.063 0.383,-0.383 0.383,-3.064 1.15,0 0.382,-1.15 2.682,0 0.766,1.15 0.766,0 2.681,-1.916 0.766,0 0.383,-1.149 1.15,0 0,-2.299 -1.15,0 0.766,-0.765 0.384,0 0,-0.767 -0.384,0 0,-0.766 0.384,0 0,-0.766 -0.384,0 -0.766,-0.766 1.15,0 1.148,-3.448 1.15,-0.766 0,-2.298 -0.766,-0.383 0,-1.148 0.766,-0.766 0,-2.299 0.766,-0.766 0.766,0 0,-1.533 -0.766,0 -0.766,-0.766 -8.044,-1.916 -0.384,-0.765 0,-3.83 -0.382,-0.384 0,-0.766 -0.765,-0.383 0,-0.383 0.765,-0.383 0.382,-0.765 -0.382,-2.299 18.386,0 0,13.348 L 0,0 Z"
             style="fill:none;stroke:#231f20;stroke-width:1.449;stroke-linecap:butt;stroke-linejoin:miter;stroke-miterlimit:4;stroke-dasharray:none;stroke-opacity:1"/></g><text
       transform="matrix(0.99808472,0,0,-1,449.8827,372.3702)"
       style="font-variant:normal;font-weight:bold;font-stretch:normal;font-size:5.7954998px;font-family:Eurostile;writing-mode:lr-tb;fill:#231f20;fill-opacity:1;fill-rule:nonzero;stroke:none"
       id="text58459"><tspan
         x="0 4.3466249 7.6210823 10.924518"
         y="0"
         id="tspan58461">Head</tspan><tspan
         x="14.094656 17.948664 21.223122 24.584511 26.705664 29.980122"
         y="97.202126"
         id="tspan58463">Center</tspan><tspan
         x="15.769555 18.580374 21.883808 24.445419 27.557602"
         y="105.71572"
         id="tspan58465">Torso</tspan><tspan
         x="73.185577 77.248222 78.494255 81.815071 85.17646"
         y="125.9536"
         id="tspan58469">Right</tspan><tspan
         x="75.32991 78.563797 81.838257"
         y="134.4614"
         id="tspan58471">Leg</tspan><tspan
         x="-51.817566 -48.583675 -45.309219 -43.558979"
         y="67.859512"
         id="tspan58475">Left</tspan><tspan
         x="-52.559391 -48.589474 -46.027863"
         y="76.3731"
         id="tspan58477">Arm</tspan></text>
<text
       transform="matrix(0.99808472,0,0,-1,534.2601,304.0652)"
       style="font-variant:normal;font-weight:bold;font-stretch:normal;font-size:5.7954998px;font-family:Eurostile;writing-mode:lr-tb;fill:#231f20;fill-opacity:1;fill-rule:nonzero;stroke:none"
       id="text58509"><tspan
         x="0 4.0626454 5.3086782 8.6294994 11.99089"
         y="0"
         id="tspan58511">Right</tspan><tspan
         x="1.1301225 5.10004 7.6616511"
         y="8.5135899"
         id="tspan58513">Arm</tspan><tspan
         x="-131.73172 -128.49783 -125.22337 -123.47313 -121.35197 -119.35252 -116.54171 -113.23827 -110.67667 -107.56448 -104.26105 -35.155502 -31.092857 -29.846825 -26.526003 -23.164614 -21.043461 -19.044012 -16.233196 -12.929761 -10.36815 -7.2559662"
         y="-60.087746"
         id="tspan58517">Left Torso Right Torso</tspan><tspan
         x="-124.01211 -120.77822 -117.50376 -115.75352"
         y="57.647839"
         id="tspan58519">Left</tspan><tspan
         x="-123.73972 -120.50583 -117.23138"
         y="66.16143"
         id="tspan58521">Leg</tspan></text></g>
<g transform="translate(-397.43863,-386.6357)" style="font-variant:normal;font-weight:bold;font-stretch:normal;font-size:5.7954998px;font-family:Eurostile;writing-mode:lr-tb;fill:#231f20;fill-opacity:1;fill-rule:nonzero;stroke:none">
             <text font-weight="bold"
         id="textIS_CT" text-anchor="middle"
         x="473.3"
         y="506.86">( 0 )</text>
    <text font-weight="bold"
         id="textIS_RT"
         x="532.30"
         y="400.84">( 0 )</text>
    <text font-weight="bold"
         id="textIS_LT"
         x="432.02"
         y="400.84">( 0 )</text>
    <text font-weight="bold"
         id="textIS_RA"
         x="537.33"
         y="477.51">( 0 )</text>
    <text font-weight="bold"
         id="textIS_LA"
         x="398.3"
         y="477.51">( 0 )</text>
    <text font-weight="bold"
         id="textIS_RL"
         x="525.53"
         y="535.60">( 0 )</text>
    <text font-weight="bold"
         id="textIS_LL"
         x="412.84"
         y="535.60">( 0 )</text>
    <text font-weight="bold" text-anchor="middle"
        font-size="6.76"
        style="mml-field-width=45" id="structureType"
        x="473.3"
        y="549.3">Standard</text></g><g
     id="structurePips" transform="translate(-397.7,-386.6)"><g
       id="isPipsHD"><g
         transform="translate(476.465,408.5257)"
         id="g1680"><path
           d="m 0,0 c -0.96,0 -1.76,0.8 -1.76,1.759 0,0.959 0.8,1.759 1.76,1.759 0.959,0 1.758,-0.8 1.758,-1.759 C 1.758,0.8 0.959,0 0,0 Z"
           style="fill:none;stroke:#231f20;stroke-width:0.48699999;stroke-linecap:butt;stroke-linejoin:miter;stroke-miterlimit:2.41400003;stroke-dasharray:none;stroke-opacity:1"
           
           id="path1682" /></g><g
         transform="translate(472.3109,401.1173)"
         id="g1684"><path
           d="m 0,0 c -0.961,0 -1.761,0.8 -1.761,1.758 0,0.96 0.8,1.761 1.761,1.761 0.959,0 1.758,-0.801 1.758,-1.761 C 1.758,0.8 0.959,0 0,0 Z"
           style="fill:none;stroke:#231f20;stroke-width:0.48699999;stroke-linecap:butt;stroke-linejoin:miter;stroke-miterlimit:2.41400003;stroke-dasharray:none;stroke-opacity:1"
           
           id="path1686" /></g><g
         transform="translate(468.3491,408.5257)"
         id="g1688"><path
           d="m 0,0 c -0.96,0 -1.76,0.8 -1.76,1.759 0,0.959 0.8,1.759 1.76,1.759 0.959,0 1.758,-0.8 1.758,-1.759 C 1.758,0.8 0.959,0 0,0 Z"
           style="fill:none;stroke:#231f20;stroke-width:0.48699999;stroke-linecap:butt;stroke-linejoin:miter;stroke-miterlimit:2.41400003;stroke-dasharray:none;stroke-opacity:1"
           
           id="path1690" /></g></g><g
       id="isPipsHD_SH"
       visibility="hidden"><g
         transform="translate(476.465,404.8215)"
         id="g1693"><path
           d="m 0,0 c -0.96,0 -1.76,0.8 -1.76,1.759 0,0.959 0.8,1.759 1.76,1.759 0.959,0 1.758,-0.8 1.758,-1.759 C 1.758,0.8 0.959,0 0,0 Z"
           style="fill:none;stroke:#231f20;stroke-width:0.48699999;stroke-linecap:butt;stroke-linejoin:miter;stroke-miterlimit:2.41400003;stroke-dasharray:none;stroke-opacity:1"
           
           id="path1695" /></g><g
         transform="translate(472.3109,401.1173)"
         id="g1697"><path
           d="m 0,0 c -0.961,0 -1.761,0.8 -1.761,1.758 0,0.96 0.8,1.761 1.761,1.761 0.959,0 1.758,-0.801 1.758,-1.761 C 1.758,0.8 0.959,0 0,0 Z"
           style="fill:none;stroke:#231f20;stroke-width:0.48699999;stroke-linecap:butt;stroke-linejoin:miter;stroke-miterlimit:2.41400003;stroke-dasharray:none;stroke-opacity:1"
           
           id="path1699" /></g><g
         transform="translate(468.3491,404.8215)"
         id="g1701"><path
           d="m 0,0 c -0.96,0 -1.76,0.8 -1.76,1.759 0,0.959 0.8,1.759 1.76,1.759 0.959,0 1.758,-0.8 1.758,-1.759 C 1.758,0.8 0.959,0 0,0 Z"
           style="fill:none;stroke:#231f20;stroke-width:0.48699999;stroke-linecap:butt;stroke-linejoin:miter;stroke-miterlimit:2.41400003;stroke-dasharray:none;stroke-opacity:1"
           
           id="path1703" /></g><g
         transform="translate(472.3109,408.5257)"
         id="g1705"><path
           d="m 0,0 c -0.961,0 -1.761,0.8 -1.761,1.758 0,0.96 0.8,1.761 1.761,1.761 0.959,0 1.758,-0.801 1.758,-1.761 C 1.758,0.8 0.959,0 0,0 Z"
           style="fill:none;stroke:#231f20;stroke-width:0.48699999;stroke-linecap:butt;stroke-linejoin:miter;stroke-miterlimit:2.41400003;stroke-dasharray:none;stroke-opacity:1"
           
           id="path1707" /></g></g><g
       id="isPipsCT"
       fill="none"
       transform="translate(461.54,418.4)"><rect
         x="0"
         y="0"
         width="22.28"
         height="5.4313"
         id="isCTRow00" /><rect
         x="0"
         y="4.7035"
         width="22.28"
         height="5.4313"
         id="isCTRow01" /><rect
         x="0"
         y="9.4070"
         width="22.28"
         height="5.4313"
         id="isCTRow02" /><rect
         x="0"
         y="14.1105"
         width="22.28"
         height="5.4313"
         id="isCTRow03" /><rect
         x="1.01"
         y="18.8140"
         width="19.78"
         height="5.4313"
         id="isCTRow04" /><rect
         x="1.64"
         y="23.5175"
         width="19"
         height="5.4313"
         id="isCTRow05" /><rect
         x="2.02"
         y="28.2210"
         width="18.24"
         height="5.4313"
         id="isCTRow06" /><rect
         x="2.4"
         y="32.9245"
         width="17.48"
         height="5.4313"
         id="isCTRow07" /><rect
         x="2.4"
         y="37.6280"
         width="17.48"
         height="5.4313"
         id="isCTRow08" /><rect
         x="2.4"
         y="42.3316"
         width="17.48"
         height="5.4313"
         id="isCTRow09" /><rect
         x="3.92"
         y="47.0351"
         width="14.44"
         height="5.4313"
         id="isCTRow10" /><rect
         x="3.92"
         y="51.7386"
         width="14.44"
         height="5.4313"
         id="isCTRow11" /></g><g
       id="isPipsRT"
       fill="none"
       transform="translate(482.32,408.64)"><rect
         x="2.15"
         y="0"
         width="19.37"
         height="5.4313"
         id="isRTRow00" /><rect
         x="2.15"
         y="4.7035"
         width="20.64"
         height="5.4313"
         id="isRTRow01" /><rect
         x="2.15"
         y="9.4070"
         width="19.25"
         height="5.4313"
         id="isRTRow02" /><rect
         x="2.15"
         y="14.1105"
         width="19.25"
         height="5.4313"
         id="isRTRow03" /><rect
         x="2.15"
         y="18.8140"
         width="9.88"
         height="5.4313"
         id="isRTRow04" /><rect
         x="2.15"
         y="23.5175"
         width="8.23"
         height="5.4313"
         id="isRTRow05" /><rect
         x="2.15"
         y="28.2210"
         width="7.49"
         height="5.4313"
         id="isRTRow06" /><rect
         x="1.52"
         y="32.9245"
         width="6.45"
         height="5.4313"
         id="isRTRow07" /><rect
         x="1.01"
         y="37.6280"
         width="5.19"
         height="5.4313"
         id="isRTRow08" /><rect
         x="0.25"
         y="42.3316"
         width="5.83"
         height="5.4313"
         id="isRTRow09" /><rect
         x="0"
         y="47.0351"
         width="10.13"
         height="5.4313"
         id="isRTRow10" /><rect
         x="0"
         y="51.7386"
         width="16.21"
         height="5.4313"
         id="isRTRow11" /></g><g
       id="isPipsLT"
       fill="none"
       transform="matrix(-1,0,0,1,462.84,408.64)"><rect
         x="2.15"
         y="0"
         width="19.37"
         height="5.4313"
         id="rect1736" /><rect
         x="2.15"
         y="4.7035"
         width="20.64"
         height="5.4313"
         id="rect1738" /><rect
         x="2.15"
         y="9.4070"
         width="19.25"
         height="5.4313"
         id="rect1740" /><rect
         x="2.15"
         y="14.1105"
         width="19.25"
         height="5.4313"
         id="rect1742" /><rect
         x="2.15"
         y="18.8140"
         width="9.88"
         height="5.4313"
         id="rect1744" /><rect
         x="2.15"
         y="23.5175"
         width="8.23"
         height="5.4313"
         id="rect1746" /><rect
         x="2.15"
         y="28.2210"
         width="7.49"
         height="5.4313"
         id="rect1748" /><rect
         x="1.52"
         y="32.9245"
         width="6.45"
         height="5.4313"
         id="rect1750" /><rect
         x="1.01"
         y="37.6280"
         width="5.19"
         height="5.4313"
         id="rect1752" /><rect
         x="0.25"
         y="42.3316"
         width="5.83"
         height="5.4313"
         id="rect1754" /><rect
         x="0"
         y="47.0351"
         width="10.13"
         height="5.4313"
         id="rect1756" /><rect
         x="0"
         y="51.7386"
         width="16.21"
         height="5.4313"
         id="rect1758" /></g><g
       id="isPipsRA"
       fill="none"
       transform="matrix(0.9962,-0.08715,0.08715,0.99619,512.86,408.64)"><rect
         x="0"
         y="0"
         width="9.85"
         height="5.4313"
         id="rect1761" /><rect
         x="0"
         y="4.7035"
         width="9.85"
         height="5.4313"
         id="isRARow01" /><rect
         x="0"
         y="9.4070"
         width="10.61"
         height="5.4313"
         id="isRARow02" /><rect
         x="0"
         y="14.1105"
         width="9.71"
         height="5.4313"
         id="isRARow03" /><rect
         x="0"
         y="18.8140"
         width="9.71"
         height="5.4313"
         id="isRARow04" /><rect
         x="0"
         y="23.5175"
         width="9.49"
         height="5.4313"
         id="isRARow05" /><rect
         x="0"
         y="28.2210"
         width="10.61"
         height="5.4313"
         id="isRARow06" /><rect
         x="0"
         y="32.9245"
         width="9.22"
         height="5.4313"
         id="isRARow07" /><rect
         x="0"
         y="37.6280"
         width="10.61"
         height="5.4313"
         id="isRARow08" /><rect
         x="0"
         y="42.3316"
         width="8.71"
         height="5.4313"
         id="isRARow09" /><rect
         x="0"
         y="47.0351"
         width="8.71"
         height="5.4313"
         id="isRARow10" /><rect
         x="0"
         y="51.7386"
         width="8.71"
         height="5.4313"
         id="isRARow11" /><rect
         x="0.65"
         y="56.4421"
         width="7.81"
         height="5.4313"
         id="isRARow12" /><rect
         x="0.9"
         y="61.1456"
         width="7.63"
         height="5.4313"
         id="isRARow13" /><rect
         x="2.46"
         y="65.8491"
         width="6.07"
         height="5.4313"
         id="isRARow14" /></g><g
       id="isPipsLA"
       fill="none"
       transform="matrix(-0.9962,-0.08715,-0.08715,0.99619,432,408.64626)"><rect
         x="0"
         y="0"
         width="9.85"
         height="5.4313"
         id="isLARow00" /><rect
         x="0"
         y="4.7035"
         width="9.85"
         height="5.4313"
         id="isLARow01" /><rect
         x="0"
         y="9.4070"
         width="10.61"
         height="5.4313"
         id="isLARow02" /><rect
         x="0"
         y="14.1105"
         width="9.71"
         height="5.4313"
         id="isLARow03" /><rect
         x="0"
         y="18.8140"
         width="9.71"
         height="5.4313"
         id="isLARow04" /><rect
         x="0"
         y="23.5175"
         width="9.49"
         height="5.4313"
         id="isLARow05" /><rect
         x="0"
         y="28.2210"
         width="10.61"
         height="5.4313"
         id="isLARow06" /><rect
         x="0"
         y="32.9245"
         width="9.22"
         height="5.4313"
         id="isLARow07" /><rect
         x="0"
         y="37.6280"
         width="10.61"
         height="5.4313"
         id="isLARow08" /><rect
         x="0"
         y="42.3316"
         width="8.71"
         height="5.4313"
         id="isLARow09" /><rect
         x="0"
         y="47.0351"
         width="8.71"
         height="5.4313"
         id="isLARow10" /><rect
         x="0"
         y="51.7386"
         width="8.71"
         height="5.4313"
         id="isLARow11" /><rect
         x="0.65"
         y="56.4421"
         width="7.81"
         height="5.4313"
         id="isLARow12" /><rect
         x="0.9"
         y="61.1456"
         width="7.63"
         height="5.4313"
         id="isLARow13" /><rect
         x="2.46"
         y="65.8491"
         width="6.07"
         height="5.4313"
         id="isLARow14" /></g><g
       id="isPipsRL"
       fill="none"
       transform="matrix(0.9832,-0.1822,0.1822,0.9832,485.35,472.27)"><rect
         x="0"
         y="0"
         width="11.95"
         height="5.4313"
         id="isRLRow00" /><rect
         x="0"
         y="4.7035"
         width="12.74"
         height="5.4313"
         id="isRLRow01" /><rect
         x="0.63"
         y="9.4070"
         width="11.46"
         height="5.4313"
         id="isRLRow02" /><rect
         x="0"
         y="14.1105"
         width="10.98"
         height="5.4313"
         id="isRLRow03" /><rect
         x="1"
         y="18.8140"
         width="10.5"
         height="5.4313"
         id="isRLRow04" /><rect
         x="1"
         y="23.5175"
         width="10.17"
         height="5.4313"
         id="isRLRow05" /><rect
         x="1"
         y="28.2210"
         width="10.31"
         height="5.4313"
         id="isRLRow06" /><rect
         x="1"
         y="32.9245"
         width="10.47"
         height="5.4313"
         id="isRLRow07" /><rect
         x="1"
         y="37.6280"
         width="10.56"
         height="5.4313"
         id="isRLRow08" /><rect
         x="1"
         y="42.3316"
         width="10.56"
         height="5.4313"
         id="isRLRow09" /><rect
         x="0"
         y="47.0351"
         width="13.57"
         height="5.4313"
         id="isRLRow10" /><rect
         x="0"
         y="51.7386"
         width="13.21"
         height="5.4313"
         id="isRLRow11" /><rect
         x="0"
         y="56.4421"
         width="13.04"
         height="5.4313"
         id="isRLRow12" /><rect
         x="0"
         y="61.1456"
         width="11.4"
         height="5.4313"
         id="isRLRow13" /><rect
         x="0.9"
         y="65.8491"
         width="8.21"
         height="5.4313"
         id="isRLRow14" /><rect
         x="0.9"
         y="70.5526"
         width="8.21"
         height="5.4313"
         id="isRLRow15" /></g><g
       id="isPipsLL"
       fill="none"
       transform="matrix(-0.9832,-0.1822,-0.1822,0.9832,459.07,472.27)"><rect
         x="0"
         y="0"
         width="11.95"
         height="5.4313"
         id="isLLRow00" /><rect
         x="0"
         y="4.7035"
         width="12.74"
         height="5.4313"
         id="isLLRow01" /><rect
         x="0.63"
         y="9.4070"
         width="11.46"
         height="5.4313"
         id="isLLRow02" /><rect
         x="0"
         y="14.1105"
         width="10.98"
         height="5.4313"
         id="isLLRow03" /><rect
         x="1"
         y="18.8140"
         width="10.5"
         height="5.4313"
         id="isLLRow04" /><rect
         x="1"
         y="23.5175"
         width="10.17"
         height="5.4313"
         id="isLLRow05" /><rect
         x="1"
         y="28.2210"
         width="10.31"
         height="5.4313"
         id="isLLRow06" /><rect
         x="1"
         y="32.9245"
         width="10.47"
         height="5.4313"
         id="isLLRow07" /><rect
         x="1"
         y="37.6280"
         width="10.56"
         height="5.4313"
         id="isLLRow08" /><rect
         x="1"
         y="42.3316"
         width="10.56"
         height="5.4313"
         id="isLLRow09" /><rect
         x="0"
         y="47.0351"
         width="13.57"
         height="5.4313"
         id="isLLRow10" /><rect
         x="0"
         y="51.7386"
         width="13.21"
         height="5.4313"
         id="isLLRow11" /><rect
         x="0"
         y="56.4421"
         width="13.04"
         height="5.4313"
         id="isLLRow12" /><rect
         x="0"
         y="61.1456"
         width="11.4"
         height="5.4313"
         id="isLLRow13" /><rect
         x="0.9"
         y="65.8491"
         width="8.21"
         height="5.4313"
         id="isLLRow14" /><rect
         x="0.9"
         y="70.5526"
         width="8.21"
         height="5.4313"
         id="isLLRow15" /></g></g>
</svg>
