<?xml version="1.0" encoding="utf-8"?>
<!DOCTYPE svg PUBLIC "-//W3C//DTD SVG 1.0//EN" "http://www.w3.org/TR/2001/REC-SVG-20010904/DTD/svg10.dtd">
<svg version="1.0" xmlns="http://www.w3.org/2000/svg" xmlns:xlink="http://www.w3.org/1999/xlink" x="0" y="0" width="156" height="161"
     xml:space="preserve">
<g id="internal_diagram_quad" transform="matrix(1,0,0,-1,-395.32308,374.1915)">
<g
   id="structureDiagram"
   transform="translate(1.675,0)"><g
     id="g29682"
     transform="translate(463.3543,304.5805)"><path
       d="m 0,0 -0.724,9.077 -15.135,-1.208 -1.331,-1.026 -0.058,-7.804 1.289,-1.31 -0.778,-25.301 -1.656,0.099 -0.147,-5.083 0.723,0.003 0.011,-2.108 -0.879,-0.005 0.016,-2.83 0.88,0.005 0.011,-2.108 -0.88,-0.006 0.016,-2.828 0.878,0.002 0.014,-2.127 -0.879,-0.005 0.013,-2.811 0.881,0.006 0.011,-2.128 -0.878,-0.005 0.015,-2.833 0.879,0.006 0.013,-2.108 -0.88,-0.005 0.016,-2.83 0.878,0.004 0.012,-2.107 -0.878,-0.006 0.013,-2.829 0.881,0.004 0.012,-2.108 -0.879,-0.004 0.016,-2.833 0.836,0.005 -0.05,-2.107 -0.775,-0.005 0.015,-2.83 0.694,0.004 -0.035,-1.484 -0.65,-0.003 0.011,-1.876 0.595,0.004 -0.025,-1.029 -10e-4,-0.084 -0.565,-0.003 0.005,-0.741 0.556,0.004 -0.004,-0.478 -3.248,-1.468 0,-3.902 20.812,0 0,3.903 -4.557,1.367 0.01,1.301 0.568,66.408 0.029,3.901 -1.281,2.611 -0.027,3.206 L 0,0 Z"
       style="fill:#c7c8ca;fill-opacity:1;fill-rule:nonzero;stroke:none"
       id="path29684"
        /></g><g
     id="g29686"
     transform="translate(448.7133,303.3796)"><path
       d="m 0,0 0,9.105 -15.183,0 -1.408,-0.916 -0.679,-7.775 1.181,-1.408 -3.402,-32.862 -1.643,0.23 -0.551,-5.056 0.721,-0.055 -0.156,-2.101 -0.878,0.065 -0.207,-2.824 0.877,-0.063 -0.158,-2.103 -0.877,0.063 -0.209,-2.82 0.877,-0.067 -0.157,-2.121 -0.876,0.064 -0.21,-2.802 0.877,-0.066 -0.157,-2.121 -0.876,0.066 -0.21,-2.826 0.876,-0.064 -0.155,-2.102 -0.877,0.065 -0.209,-2.823 0.876,-0.066 -0.156,-2.101 -0.876,0.064 -0.211,-2.823 0.877,-0.064 -0.154,-2.104 -0.878,0.067 -0.209,-2.824 0.833,-0.063 -0.216,-2.097 -0.773,0.057 -0.21,-2.821 0.691,-0.053 -0.152,-1.476 -0.648,0.05 -0.14,-1.871 0.594,-0.044 -0.106,-1.024 -0.007,-0.083 -0.563,0.042 -0.054,-0.739 0.553,-0.041 -0.042,-0.475 -5.276,-2.038 0.026,-3.902 20.785,0 0,3.902 -2.577,0.903 0.113,1.297 6.463,73.855 0.339,3.888 -1.07,2.704 L -5.61,0 0,0 Z"
       style="fill:#c7c8ca;fill-opacity:1;fill-rule:nonzero;stroke:none"
       id="path29688"
        /></g><g
     id="g29690"
     transform="translate(481.4337,304.5805)"><path
       d="m 0,0 0.724,9.077 15.135,-1.208 1.331,-1.026 0.059,-7.804 -1.29,-1.31 0.778,-25.301 1.656,0.099 0.147,-5.083 -0.723,0.003 -0.011,-2.108 0.879,-0.005 -0.016,-2.83 -0.88,0.005 -0.011,-2.108 0.88,-0.006 -0.016,-2.828 -0.878,0.002 -0.014,-2.127 0.879,-0.005 -0.013,-2.811 -0.881,0.006 -0.011,-2.128 0.878,-0.005 -0.015,-2.833 -0.879,0.006 -0.013,-2.108 0.881,-0.005 -0.017,-2.83 -0.878,0.004 -0.012,-2.107 0.878,-0.006 -0.013,-2.829 -0.881,0.004 -0.012,-2.108 0.879,-0.004 -0.016,-2.833 -0.836,0.005 0.05,-2.107 0.775,-0.005 -0.015,-2.83 -0.694,0.004 0.035,-1.484 0.65,-0.003 -0.011,-1.876 -0.595,0.004 0.025,-1.029 10e-4,-0.084 0.564,-0.003 -0.004,-0.741 -0.556,0.004 0.004,-0.478 3.248,-1.468 0,-3.902 -20.812,0 0,3.903 4.557,1.367 -0.01,1.301 -0.568,66.408 -0.029,3.901 1.281,2.611 0.027,3.206 L 0,0 Z"
       style="fill:#c7c8ca;fill-opacity:1;fill-rule:nonzero;stroke:none"
       id="path29692"
        /></g><g
     id="g29694"
     transform="translate(496.0747,303.3796)"><path
       d="m 0,0 0,9.105 15.183,0 1.408,-0.916 0.679,-7.775 -1.181,-1.408 3.402,-32.862 1.643,0.23 0.551,-5.056 -0.721,-0.055 0.156,-2.101 0.877,0.065 0.208,-2.824 -0.877,-0.063 0.158,-2.103 0.877,0.063 0.209,-2.82 -0.877,-0.067 0.157,-2.121 0.876,0.064 0.21,-2.802 -0.877,-0.066 0.157,-2.121 0.876,0.066 0.21,-2.826 -0.876,-0.064 0.155,-2.102 0.877,0.065 0.209,-2.823 -0.876,-0.066 0.156,-2.101 0.876,0.064 0.211,-2.823 -0.877,-0.064 0.154,-2.104 0.878,0.067 0.209,-2.824 -0.834,-0.063 0.217,-2.097 0.773,0.057 0.21,-2.821 -0.691,-0.053 0.152,-1.476 0.648,0.05 0.139,-1.871 -0.593,-0.044 0.106,-1.024 0.007,-0.083 0.563,0.042 0.054,-0.739 -0.553,-0.041 0.042,-0.475 5.276,-2.038 -0.026,-3.902 -20.785,0 0,3.902 2.577,0.903 -0.114,1.297 -6.462,73.855 -0.34,3.888 1.071,2.704 L 5.61,0 0,0 Z"
       style="fill:#c7c8ca;fill-opacity:1;fill-rule:nonzero;stroke:none"
       id="path29696"
        /></g><g
     id="g29698"
     transform="translate(455.414,348.3119)"><path
       d="m 0,0 -3.742,9.373 -10.152,0.098 -5.611,4.114 -12.759,0 -5.613,-4.114 0,-23.791 5.613,-4.113 12.759,0 3.713,2.72 7.379,-18.977 -4.179,-0.663 -0.343,-0.425 -0.754,-9.01 0.754,-0.621 9.851,0 2.225,0 10.839,0 L 0,0 Z"
       style="fill:#c7c8ca;fill-opacity:1;fill-rule:nonzero;stroke:none"
       id="path29700"
        /></g><g
     id="g29702"
     transform="translate(489.607,348.3119)"><path
       d="m 0,0 3.743,9.373 10.152,0.098 5.61,4.114 12.759,0 5.614,-4.114 0,-23.791 -5.614,-4.113 -12.759,0 -3.712,2.72 -7.379,-18.977 4.179,-0.663 0.343,-0.425 0.754,-9.01 -0.754,-0.621 -9.851,0 -2.225,0 -10.838,0 L 0,0 Z"
       style="fill:#c7c8ca;fill-opacity:1;fill-rule:nonzero;stroke:none"
       id="path29704"
        /></g><g
     id="g29706"
     transform="translate(487.5166,302.9032)"><path
       d="m 0,0 -30.11,0 1.82,20.515 -7.554,34.188 11.651,-0.731 18.211,0 L 5.669,54.703 -1.821,20.515 0,0 Z"
       style="fill:#c7c8ca;fill-opacity:1;fill-rule:nonzero;stroke:none"
       id="path29708"
        /></g><g
     id="g29710"
     transform="translate(458.7545,350.1702)"><path
       d="m 0,0 5.558,-3.967 16.581,0 5.627,3.967 -8.067,12.963 -11.7,0 L 0,0 Z"
       style="fill:#c7c8ca;fill-opacity:1;fill-rule:nonzero;stroke:none"
       id="path29712"
        /></g><g
     id="g29714"
     transform="translate(460.4563,307.4785)"><path
       d="m 0,0 -0.724,9.077 -15.135,-1.208 -1.331,-1.026 -0.058,-7.804 1.289,-1.31 -0.778,-25.301 -1.656,0.099 -0.147,-5.083 0.723,0.003 0.011,-2.108 -0.879,-0.005 0.016,-2.83 0.88,0.005 0.011,-2.108 -0.88,-0.006 0.016,-2.829 0.878,0.003 0.014,-2.127 -0.879,-0.005 0.013,-2.811 0.881,0.006 0.011,-2.128 -0.878,-0.005 0.015,-2.833 0.879,0.006 0.013,-2.108 -0.88,-0.005 0.016,-2.83 0.878,0.004 0.012,-2.107 -0.878,-0.006 0.013,-2.829 0.881,0.004 0.012,-2.108 -0.879,-0.004 0.016,-2.833 0.836,0.005 -0.05,-2.107 -0.775,-0.005 0.015,-2.83 0.694,0.004 -0.035,-1.484 -0.65,-0.003 0.011,-1.876 0.595,0.004 -0.025,-1.029 -10e-4,-0.084 -0.565,-0.003 0.005,-0.741 0.556,0.004 -0.004,-0.478 -3.248,-1.468 0,-3.902 20.812,0 0,3.903 -4.557,1.367 0.01,1.301 0.568,66.408 0.029,3.901 -1.281,2.611 -0.027,3.206 L 0,0 Z"
       style="fill:#ffffff;fill-opacity:1;fill-rule:nonzero;stroke:none"
       id="path29716"
        /></g><g
     id="g29718"
     transform="translate(460.4563,307.4785)"><path
       d="m 0,0 -0.724,9.077 -15.135,-1.208 -1.331,-1.026 -0.058,-7.804 1.289,-1.31 -0.778,-25.301 -1.656,0.099 -0.147,-5.083 0.723,0.003 0.011,-2.108 -0.879,-0.005 0.016,-2.83 0.88,0.005 0.011,-2.108 -0.88,-0.006 0.016,-2.829 0.878,0.003 0.014,-2.127 -0.879,-0.005 0.013,-2.811 0.881,0.006 0.011,-2.128 -0.878,-0.005 0.015,-2.833 0.879,0.006 0.013,-2.108 -0.88,-0.005 0.016,-2.83 0.878,0.004 0.012,-2.107 -0.878,-0.006 0.013,-2.829 0.881,0.004 0.012,-2.108 -0.879,-0.004 0.016,-2.833 0.836,0.005 -0.05,-2.107 -0.775,-0.005 0.015,-2.83 0.694,0.004 -0.035,-1.484 -0.65,-0.003 0.011,-1.876 0.595,0.004 -0.025,-1.029 -10e-4,-0.084 -0.565,-0.003 0.005,-0.741 0.556,0.004 -0.004,-0.478 -3.248,-1.468 0,-3.902 20.812,0 0,3.903 -4.557,1.367 0.01,1.301 0.568,66.408 0.029,3.901 -1.281,2.611 -0.027,3.206 L 0,0 Z"
       style="fill:none;stroke:#000000;stroke-width:1.449;stroke-linecap:butt;stroke-linejoin:round;stroke-miterlimit:2.41400003;stroke-dasharray:none;stroke-opacity:1"
       id="path29720"
        /></g><g
     id="g29722"
     transform="translate(445.8153,306.2776)"><path
       d="m 0,0 0,9.105 -15.183,0 -1.408,-0.916 -0.679,-7.775 1.181,-1.408 -3.402,-32.862 -1.643,0.23 -0.551,-5.056 0.721,-0.055 -0.156,-2.101 -0.878,0.065 -0.207,-2.824 0.877,-0.063 -0.158,-2.103 -0.877,0.063 -0.209,-2.82 0.877,-0.067 -0.157,-2.121 -0.876,0.064 -0.21,-2.802 0.877,-0.066 -0.157,-2.121 -0.876,0.066 -0.21,-2.826 0.876,-0.065 -0.155,-2.101 -0.877,0.065 -0.209,-2.823 0.876,-0.066 -0.156,-2.101 -0.876,0.064 -0.211,-2.823 0.877,-0.064 -0.154,-2.104 -0.878,0.067 -0.209,-2.824 0.833,-0.063 -0.216,-2.097 -0.773,0.057 -0.21,-2.821 0.691,-0.053 -0.152,-1.476 -0.648,0.05 -0.14,-1.871 0.594,-0.044 -0.106,-1.024 -0.007,-0.083 -0.563,0.042 -0.054,-0.739 0.553,-0.041 -0.042,-0.475 -5.276,-2.038 0.026,-3.902 20.785,0 0,3.902 -2.577,0.903 0.113,1.297 6.463,73.855 0.339,3.888 -1.07,2.703 L -5.61,0 0,0 Z"
       style="fill:#ffffff;fill-opacity:1;fill-rule:nonzero;stroke:none"
       id="path29724"
        /></g><g
     id="g29726"
     transform="translate(445.8153,306.2776)"><path
       d="m 0,0 0,9.105 -15.183,0 -1.408,-0.916 -0.679,-7.775 1.181,-1.408 -3.402,-32.862 -1.643,0.23 -0.551,-5.056 0.721,-0.055 -0.156,-2.101 -0.878,0.065 -0.207,-2.824 0.877,-0.063 -0.158,-2.103 -0.877,0.063 -0.209,-2.82 0.877,-0.067 -0.157,-2.121 -0.876,0.064 -0.21,-2.802 0.877,-0.066 -0.157,-2.121 -0.876,0.066 -0.21,-2.826 0.876,-0.065 -0.155,-2.101 -0.877,0.065 -0.209,-2.823 0.876,-0.066 -0.156,-2.101 -0.876,0.064 -0.211,-2.823 0.877,-0.064 -0.154,-2.104 -0.878,0.067 -0.209,-2.824 0.833,-0.063 -0.216,-2.097 -0.773,0.057 -0.21,-2.821 0.691,-0.053 -0.152,-1.476 -0.648,0.05 -0.14,-1.871 0.594,-0.044 -0.106,-1.024 -0.007,-0.083 -0.563,0.042 -0.054,-0.739 0.553,-0.041 -0.042,-0.475 -5.276,-2.038 0.026,-3.902 20.785,0 0,3.902 -2.577,0.903 0.113,1.297 6.463,73.855 0.339,3.888 -1.07,2.703 L -5.61,0 0,0 Z"
       style="fill:none;stroke:#000000;stroke-width:1.449;stroke-linecap:butt;stroke-linejoin:round;stroke-miterlimit:2.41400003;stroke-dasharray:none;stroke-opacity:1"
       id="path29728"
        /></g><g
     id="g29730"
     transform="translate(478.5358,307.4785)"><path
       d="m 0,0 0.724,9.077 15.135,-1.208 1.331,-1.026 0.059,-7.804 -1.29,-1.31 0.778,-25.301 1.656,0.099 0.147,-5.083 -0.723,0.003 -0.011,-2.108 0.879,-0.005 -0.016,-2.83 -0.88,0.005 -0.011,-2.108 0.88,-0.006 -0.016,-2.829 -0.878,0.003 -0.014,-2.127 0.879,-0.005 -0.013,-2.811 -0.881,0.006 -0.011,-2.128 0.878,-0.005 -0.015,-2.833 -0.879,0.006 -0.013,-2.108 0.881,-0.005 -0.017,-2.83 -0.878,0.004 -0.012,-2.107 0.878,-0.006 -0.013,-2.829 -0.881,0.004 -0.012,-2.108 0.879,-0.004 -0.016,-2.833 -0.836,0.005 0.05,-2.107 0.775,-0.005 -0.015,-2.83 -0.694,0.004 0.035,-1.484 0.65,-0.003 -0.011,-1.876 -0.595,0.004 0.025,-1.029 10e-4,-0.084 0.564,-0.003 -0.004,-0.741 -0.556,0.004 0.004,-0.478 3.248,-1.468 0,-3.902 -20.812,0 0,3.903 4.557,1.367 -0.01,1.301 -0.568,66.408 -0.029,3.901 1.281,2.611 0.027,3.206 L 0,0 Z"
       style="fill:#ffffff;fill-opacity:1;fill-rule:nonzero;stroke:none"
       id="path29732"
        /></g><g
     id="g29734"
     transform="translate(478.5358,307.4785)"><path
       d="m 0,0 0.724,9.077 15.135,-1.208 1.331,-1.026 0.059,-7.804 -1.29,-1.31 0.778,-25.301 1.656,0.099 0.147,-5.083 -0.723,0.003 -0.011,-2.108 0.879,-0.005 -0.016,-2.83 -0.88,0.005 -0.011,-2.108 0.88,-0.006 -0.016,-2.829 -0.878,0.003 -0.014,-2.127 0.879,-0.005 -0.013,-2.811 -0.881,0.006 -0.011,-2.128 0.878,-0.005 -0.015,-2.833 -0.879,0.006 -0.013,-2.108 0.881,-0.005 -0.017,-2.83 -0.878,0.004 -0.012,-2.107 0.878,-0.006 -0.013,-2.829 -0.881,0.004 -0.012,-2.108 0.879,-0.004 -0.016,-2.833 -0.836,0.005 0.05,-2.107 0.775,-0.005 -0.015,-2.83 -0.694,0.004 0.035,-1.484 0.65,-0.003 -0.011,-1.876 -0.595,0.004 0.025,-1.029 10e-4,-0.084 0.564,-0.003 -0.004,-0.741 -0.556,0.004 0.004,-0.478 3.248,-1.468 0,-3.902 -20.812,0 0,3.903 4.557,1.367 -0.01,1.301 -0.568,66.408 -0.029,3.901 1.281,2.611 0.027,3.206 L 0,0 Z"
       style="fill:none;stroke:#000000;stroke-width:1.449;stroke-linecap:butt;stroke-linejoin:round;stroke-miterlimit:2.41400003;stroke-dasharray:none;stroke-opacity:1"
       id="path29736"
        /></g><g
     id="g29738"
     transform="translate(493.1768,306.2776)"><path
       d="m 0,0 0,9.105 15.183,0 1.408,-0.916 0.679,-7.775 -1.181,-1.408 3.402,-32.862 1.643,0.23 0.551,-5.056 -0.721,-0.055 0.156,-2.101 0.877,0.065 0.208,-2.824 -0.877,-0.063 0.158,-2.103 0.877,0.063 0.209,-2.82 -0.877,-0.067 0.157,-2.121 0.876,0.064 0.21,-2.802 -0.877,-0.066 0.157,-2.121 0.876,0.066 0.21,-2.826 -0.876,-0.065 0.155,-2.101 0.877,0.065 0.209,-2.823 -0.876,-0.066 0.156,-2.101 0.876,0.064 0.211,-2.823 -0.877,-0.064 0.154,-2.104 0.878,0.067 0.209,-2.824 -0.834,-0.063 0.217,-2.097 0.773,0.057 0.21,-2.821 -0.691,-0.053 0.152,-1.476 0.648,0.05 0.139,-1.871 -0.594,-0.044 0.107,-1.024 0.006,-0.083 0.564,0.042 0.054,-0.739 -0.553,-0.041 0.042,-0.475 5.276,-2.038 -0.026,-3.902 -20.785,0 0,3.902 2.577,0.903 -0.114,1.297 -6.462,73.855 -0.34,3.888 1.071,2.703 L 5.61,0 0,0 Z"
       style="fill:#ffffff;fill-opacity:1;fill-rule:nonzero;stroke:none"
       id="path29740"
        /></g><g
     id="g29742"
     transform="translate(493.1768,306.2776)"><path
       d="m 0,0 0,9.105 15.183,0 1.408,-0.916 0.679,-7.775 -1.181,-1.408 3.402,-32.862 1.643,0.23 0.551,-5.056 -0.721,-0.055 0.156,-2.101 0.877,0.065 0.208,-2.824 -0.877,-0.063 0.158,-2.103 0.877,0.063 0.209,-2.82 -0.877,-0.067 0.157,-2.121 0.876,0.064 0.21,-2.802 -0.877,-0.066 0.157,-2.121 0.876,0.066 0.21,-2.826 -0.876,-0.065 0.155,-2.101 0.877,0.065 0.209,-2.823 -0.876,-0.066 0.156,-2.101 0.876,0.064 0.211,-2.823 -0.877,-0.064 0.154,-2.104 0.878,0.067 0.209,-2.824 -0.834,-0.063 0.217,-2.097 0.773,0.057 0.21,-2.821 -0.691,-0.053 0.152,-1.476 0.648,0.05 0.139,-1.871 -0.594,-0.044 0.107,-1.024 0.006,-0.083 0.564,0.042 0.054,-0.739 -0.553,-0.041 0.042,-0.475 5.276,-2.038 -0.026,-3.902 -20.785,0 0,3.902 2.577,0.903 -0.114,1.297 -6.462,73.855 -0.34,3.888 1.071,2.703 L 5.61,0 0,0 Z"
       style="fill:none;stroke:#000000;stroke-width:1.449;stroke-linecap:butt;stroke-linejoin:round;stroke-miterlimit:2.41400003;stroke-dasharray:none;stroke-opacity:1"
       id="path29744"
        /></g><g
     id="g29746"
     transform="translate(452.5161,351.2098)"><path
       d="m 0,0 -3.742,9.373 -10.152,0.098 -5.611,4.114 -12.759,0 -5.613,-4.114 0,-23.791 5.613,-4.113 12.759,0 3.713,2.72 7.379,-18.977 -4.179,-0.663 -0.343,-0.425 -0.754,-9.01 0.754,-0.621 9.851,0 2.225,0 10.839,0 L 0,0 Z"
       style="fill:#ffffff;fill-opacity:1;fill-rule:nonzero;stroke:none"
       id="path29748"
        /></g><g
     id="g29750"
     transform="translate(452.5161,351.2098)"><path
       d="m 0,0 -3.742,9.373 -10.152,0.098 -5.611,4.114 -12.759,0 -5.613,-4.114 0,-23.791 5.613,-4.113 12.759,0 3.713,2.72 7.379,-18.977 -4.179,-0.663 -0.343,-0.425 -0.754,-9.01 0.754,-0.621 9.851,0 2.225,0 10.839,0 L 0,0 Z"
       style="fill:none;stroke:#000000;stroke-width:1.449;stroke-linecap:butt;stroke-linejoin:miter;stroke-miterlimit:4;stroke-dasharray:none;stroke-opacity:1"
       id="path29752"
        /></g><g
     id="g29754"
     transform="translate(486.709,351.2098)"><path
       d="m 0,0 3.743,9.373 10.152,0.098 5.61,4.114 12.759,0 5.614,-4.114 0,-23.791 -5.614,-4.113 -12.759,0 -3.712,2.72 -7.379,-18.977 4.179,-0.663 0.343,-0.425 0.754,-9.01 -0.754,-0.621 -9.851,0 -2.225,0 -10.838,0 L 0,0 Z"
       style="fill:#ffffff;fill-opacity:1;fill-rule:nonzero;stroke:none"
       id="path29756"
        /></g><g
     id="g29758"
     transform="translate(486.709,351.2098)"><path
       d="m 0,0 3.743,9.373 10.152,0.098 5.61,4.114 12.759,0 5.614,-4.114 0,-23.791 -5.614,-4.113 -12.759,0 -3.712,2.72 -7.379,-18.977 4.179,-0.663 0.343,-0.425 0.754,-9.01 -0.754,-0.621 -9.851,0 -2.225,0 -10.838,0 L 0,0 Z"
       style="fill:none;stroke:#000000;stroke-width:1.449;stroke-linecap:butt;stroke-linejoin:miter;stroke-miterlimit:4;stroke-dasharray:none;stroke-opacity:1"
       id="path29760"
        /></g><g
     id="g29762"
     transform="translate(484.6186,305.8012)"><path
       d="m 0,0 -30.11,0 1.82,20.515 -7.554,34.188 11.651,-0.731 18.211,0 L 5.669,54.703 -1.821,20.515 0,0 Z"
       style="fill:#ffffff;fill-opacity:1;fill-rule:nonzero;stroke:none"
       id="path29764"
        /></g><g
     id="g29766"
     transform="translate(484.6186,305.8012)"><path
       d="m 0,0 -30.11,0 1.82,20.515 -7.554,34.188 11.651,-0.731 18.211,0 L 5.669,54.703 -1.821,20.515 0,0 Z"
       style="fill:none;stroke:#000000;stroke-width:1.449;stroke-linecap:butt;stroke-linejoin:miter;stroke-miterlimit:4;stroke-dasharray:none;stroke-opacity:1"
       id="path29768"
        /></g><g
     id="g29770"
     transform="translate(455.8565,353.0682)"><path
       d="m 0,0 5.558,-3.967 16.581,0 5.627,3.967 -8.067,12.963 -11.7,0 L 0,0 Z"
       style="fill:#ffffff;fill-opacity:1;fill-rule:nonzero;stroke:none"
       id="path29772"
        /></g><g
     id="g29774"
     transform="translate(455.8565,353.0682)"><path
       d="m 0,0 5.558,-3.967 16.581,0 5.627,3.967 -8.067,12.963 -11.7,0 L 0,0 Z"
       style="fill:none;stroke:#000000;stroke-width:1.449;stroke-linecap:butt;stroke-linejoin:miter;stroke-miterlimit:4;stroke-dasharray:none;stroke-opacity:1"
       id="path29776"
        /></g></g><text
   transform="matrix(1,0,0,-1,463.5734,369.6319)"
   style="font-variant:normal;font-weight:bold;font-stretch:normal;font-size:6.76140022px;font-family:Eurostile;writing-mode:lr-tb;fill:#231f20;fill-opacity:1;fill-rule:nonzero;stroke:none"
   id="text4891"><tspan
     x="0 5.0710502 8.8912411 12.745239"
     y="0"
     id="tspan4893">Head</tspan><tspan
     x="-2.4273427 2.0689883 5.8891792 9.810791 12.285463 16.105656"
     y="95.829323"
     id="tspan4895">Center</tspan><tspan
     x="-0.47329801 2.8059809 6.6599789 9.6485176 13.279389"
     y="104.34192"
     id="tspan4897">Torso</tspan><tspan
     x="-57.492184 -53.719322 -49.899132 -47.857189"
     y="65.707283"
     id="tspan4899">Left</tspan><tspan
     x="-66.809395 -63.097385 -60.108845 -56.254848 -52.333237 -49.858562 -47.525879 -43.753021 -39.932827"
     y="73.820969"
     id="tspan4901">Front Leg</tspan><tspan
     x="61.035156 65.774902 67.2286 71.102882 75.024498"
     y="65.707283"
     id="tspan4903">Right</tspan><tspan
     x="53.895119 57.607128 60.595665 64.449661 68.371277 70.845947 73.178635 76.951492 80.771683"
     y="73.820969"
     id="tspan4905">Front Leg</tspan><tspan
     x="-60.230553 -56.457691 -52.637501 -50.595554"
     y="113.62533"
     id="tspan4907">Left</tspan><tspan
     x="-68.776962 -64.037216 -60.21703 -56.363029 -53.374493 -51.041809 -47.268948 -43.448757"
     y="121.73901"
     id="tspan4909">Rear Leg</tspan><tspan
     x="65.152847 69.892593 71.346291 75.220573 79.142189"
     y="113.62533"
     id="tspan4911">Right</tspan><tspan
     x="58.783611 63.523354 67.343544 71.19754 74.186081 76.518761 80.291626 84.111816"
     y="121.73901"
     id="tspan4913">Rear Leg</tspan></text>
<text
   transform="matrix(1,0,0,-1,455.00254,369.6319)"
   style="font-variant:normal;font-weight:bold;font-stretch:normal;font-size:6.76140022px;font-family:Eurostile;writing-mode:lr-tb;fill:#231f20;fill-opacity:1;fill-rule:nonzero;stroke:none"
   id="text1241"><tspan
     x="-55.15274 -51.379879 -47.559689 -45.517746"
     y="-0.0067614"
     id="tspan4915">Left</tspan><tspan
     x="-57.897869 -54.618587 -50.764591 -47.776051 -44.14518"
     y="8.1069183"
     id="tspan4917">Torso</tspan></text>
<text
   transform="matrix(1,0,0,-1,470.492504,369.6319)"
   style="font-variant:normal;font-weight:bold;font-stretch:normal;font-size:6.76140022px;font-family:Eurostile;writing-mode:lr-tb;fill:#231f20;fill-opacity:1;fill-rule:nonzero;stroke:none"
   id="text1245"><tspan
     x="59.574696 64.314438 65.768135 69.642418 73.564034"
     y="-0.0067614"
     id="tspan4919">Right</tspan><tspan
     x="59.006737 62.286018 66.140015 69.128555 72.759422"
     y="8.1069183"
     id="tspan4921">Torso</tspan></text><g transform="matrix(1,0,0,-1,0,765)"><g
     id="structurePips"><g
       id="isPipsHD"><g
         transform="translate(475.7472,409.4425)"
         id="g1462"><path
           d="m 0,0 c -0.96,0 -1.76,0.8 -1.76,1.759 0,0.959 0.8,1.76 1.76,1.76 0.959,0 1.758,-0.801 1.758,-1.76 C 1.758,0.8 0.959,0 0,0 Z"
           style="fill:none;stroke:#231f20;stroke-width:0.48699999;stroke-linecap:butt;stroke-linejoin:miter;stroke-miterlimit:2.41400003;stroke-dasharray:none;stroke-opacity:1"
           id="path1464" /></g><g
         transform="translate(471.593,402.0341)"
         id="g1466"><path
           d="m 0,0 c -0.961,0 -1.761,0.8 -1.761,1.758 0,0.961 0.8,1.761 1.761,1.761 0.959,0 1.758,-0.8 1.758,-1.761 C 1.758,0.8 0.959,0 0,0 Z"
           style="fill:none;stroke:#231f20;stroke-width:0.48699999;stroke-linecap:butt;stroke-linejoin:miter;stroke-miterlimit:2.41400003;stroke-dasharray:none;stroke-opacity:1"
           id="path1468" /></g><g
         transform="translate(467.6313,409.4425)"
         id="g1470"><path
           d="m 0,0 c -0.96,0 -1.76,0.8 -1.76,1.759 0,0.959 0.8,1.76 1.76,1.76 0.959,0 1.758,-0.801 1.758,-1.76 C 1.758,0.8 0.959,0 0,0 Z"
           style="fill:none;stroke:#231f20;stroke-width:0.48699999;stroke-linecap:butt;stroke-linejoin:miter;stroke-miterlimit:2.41400003;stroke-dasharray:none;stroke-opacity:1"
           id="path1472" /></g></g><g
       id="isPipsCT"
       fill="none"
       transform="translate(455.61,418.302)"><rect
         x="0"
         y="0"
         width="31.22"
         height="5.4313"
         id="isCTRow00" /><rect
         x="0.83"
         y="4.7035"
         width="29.56"
         height="5.4313"
         id="isCTRow01" /><rect
         x="1.66"
         y="9.4070"
         width="27.9"
         height="5.4313"
         id="isCTRow02" /><rect
         x="2.49"
         y="14.1105"
         width="26.24"
         height="5.4313"
         id="isCTRow03" /><rect
         x="3.32"
         y="18.8140"
         width="24.58"
         height="5.4313"
         id="isCTRow04" /><rect
         x="2.78"
         y="23.5175"
         width="25.66"
         height="5.4313"
         id="isCTRow05" /><rect
         x="2.5"
         y="28.221"
         width="26.22"
         height="5.4313"
         id="isCTRow06" /><rect
         x="2.09"
         y="32.9245"
         width="27.04"
         height="5.4313"
         id="isCTRow07" /></g><g
       id="isPipsRT"
       fill="none"
       transform="translate(486.24,402.5437)"><rect
         x="20.33"
         y="0"
         width="15.52"
         height="5.4313"
         id="isRTRow00" /><rect
         x="6.2"
         y="4.7035"
         width="32.5"
         height="5.4313"
         id="isRTRow01" /><rect
         x="5.21"
         y="9.4070"
         width="33.4"
         height="5.4313"
         id="isRTRow02" /><rect
         x="4.21"
         y="14.1105"
         width="34.3"
         height="5.4313"
         id="isRTRow03" /><rect
         x="3.22"
         y="18.8140"
         width="36"
         height="5.4313"
         id="isRTRow04" /><rect
         x="2.23"
         y="23.5175"
         width="14.31"
         height="5.4313"
         id="isRTRow05" /><rect
         x="1.23"
         y="28.2210"
         width="13.1"
         height="5.4313"
         id="isRTRow06" /><rect
         x="0.24"
         y="32.9245"
         width="12.52"
         height="5.4313"
         id="isRTRow07" /><rect
         x="0"
         y="37.6280"
         width="10.4"
         height="5.4313"
         id="isRTRow08" /><rect
         x="0"
         y="42.3316"
         width="9.61"
         height="5.4313"
         id="isRTRow09" /><rect
         x="0.93"
         y="48.8817"
         width="13.6"
         height="5.4313"
         id="isRTRow10" /></g><g
       id="isPipsLT"
       fill="none"
       transform="matrix(-1,0,0,1,456.2,402.13)"><rect
         x="20.33"
         y="0"
         width="15.52"
         height="5.4313"
         id="isLTRow00" /><rect
         x="6.2"
         y="4.7035"
         width="32.5"
         height="5.4313"
         id="isLTRow01" /><rect
         x="5.21"
         y="9.4070"
         width="33.4"
         height="5.4313"
         id="isLTRow02" /><rect
         x="4.21"
         y="14.1105"
         width="34.3"
         height="5.4313"
         id="isLTRow03" /><rect
         x="3.22"
         y="18.8140"
         width="36"
         height="5.4313"
         id="isLTRow04" /><rect
         x="2.23"
         y="23.5175"
         width="14.31"
         height="5.4313"
         id="isLTRow05" /><rect
         x="1.23"
         y="28.2210"
         width="13.1"
         height="5.4313"
         id="isLTRow06" /><rect
         x="0.24"
         y="32.9245"
         width="12.52"
         height="5.4313"
         id="isLTRow07" /><rect
         x="0"
         y="37.6280"
         width="10.4"
         height="5.4313"
         id="isLTRow08" /><rect
         x="0"
         y="42.3316"
         width="9.61"
         height="5.4313"
         id="isLTRow09" /><rect
         x="0.93"
         y="48.8817"
         width="13.6"
         height="5.4313"
         id="isLTRow10" /></g><g
       id="isPipsFRL"
       fill="none"
       transform="matrix(0.9962,-0.08715,0.08715,0.99619,500.375,452.3)"><rect
         x="2.35"
         y="0"
         width="7.48"
         height="5.4313"
         id="isFRLRow00" /><rect
         x="1.96"
         y="4.7035"
         width="7.08"
         height="5.4313"
         id="isFRLRow01" /><rect
         x="0"
         y="9.4070"
         width="8.47"
         height="5.4313"
         id="isFRLRow02" /><rect
         x="0"
         y="14.1105"
         width="8.47"
         height="5.4313"
         id="isFRLRow03" /><rect
         x="0"
         y="18.8140"
         width="8.47"
         height="5.4313"
         id="isFRLRow04" /><rect
         x="0"
         y="23.5175"
         width="8.47"
         height="5.4313"
         id="isFRLRow05" /><rect
         x="0"
         y="28.2210"
         width="8.47"
         height="5.4313"
         id="isFRLRow06" /><rect
         x="0"
         y="32.9245"
         width="8.47"
         height="5.4313"
         id="isFRLRow07" /><rect
         x="0"
         y="37.6280"
         width="8.47"
         height="5.4313"
         id="isFRLRow08" /><rect
         x="0"
         y="42.3316"
         width="9.65"
         height="5.4313"
         id="isFRLRow09" /><rect
         x="0"
         y="47.0351"
         width="9.65"
         height="5.4313"
         id="isFRLRow10" /><rect
         x="0"
         y="51.7386"
         width="9.65"
         height="5.4313"
         id="isFRLRow11" /><rect
         x="0"
         y="56.4421"
         width="9.65"
         height="5.4313"
         id="isFRLRow12" /><rect
         x="0"
         y="61.1456"
         width="9.65"
         height="5.4313"
         id="isFRLRow13" /><rect
         x="0"
         y="65.8491"
         width="9.65"
         height="5.4313"
         id="isFRLRow14" /><rect
         x="0"
         y="70.5527"
         width="9.65"
         height="5.4313"
         id="isFRLRow15" /><rect
         x="0"
         y="75.2562"
         width="9.65"
         height="5.4313"
         id="isFRLRow16" /><rect
         x="0"
         y="79.9597"
         width="9.65"
         height="5.4313"
         id="isFRLRow17" /><rect
         x="0"
         y="84.6632"
         width="9.65"
         height="5.4313"
         id="isFRLRow18" /><rect
         x="0"
         y="89.3667"
         width="9.65"
         height="5.4313"
         id="isFRLRow19" /></g><g
       id="isPipsFLL"
       fill="none"
       transform="matrix(-0.9962,-0.08715,-0.08715,0.99619,442.065,452.3)"><rect
         x="2.35"
         y="0"
         width="7.48"
         height="5.4313"
         id="isFLLRow00" /><rect
         x="1.96"
         y="4.7035"
         width="7.08"
         height="5.4313"
         id="isFLLRow01" /><rect
         x="0"
         y="9.4070"
         width="8.47"
         height="5.4313"
         id="isFLLRow02" /><rect
         x="0"
         y="14.1105"
         width="8.47"
         height="5.4313"
         id="isFLLRow03" /><rect
         x="0"
         y="18.8140"
         width="8.47"
         height="5.4313"
         id="isFLLRow04" /><rect
         x="0"
         y="23.5175"
         width="8.47"
         height="5.4313"
         id="isFLLRow05" /><rect
         x="0"
         y="28.2210"
         width="8.47"
         height="5.4313"
         id="isFLLRow06" /><rect
         x="0"
         y="32.9245"
         width="8.47"
         height="5.4313"
         id="isFLLRow07" /><rect
         x="0"
         y="37.6280"
         width="8.47"
         height="5.4313"
         id="isFLLRow08" /><rect
         x="0"
         y="42.3316"
         width="9.65"
         height="5.4313"
         id="isFLLRow09" /><rect
         x="0"
         y="47.0351"
         width="9.65"
         height="5.4313"
         id="isFLLRow10" /><rect
         x="0"
         y="51.7386"
         width="9.65"
         height="5.4313"
         id="isFLLRow11" /><rect
         x="0"
         y="56.4421"
         width="9.65"
         height="5.4313"
         id="isFLLRow12" /><rect
         x="0"
         y="61.1456"
         width="9.65"
         height="5.4313"
         id="isFLLRow13" /><rect
         x="0"
         y="65.8491"
         width="9.65"
         height="5.4313"
         id="isFLLRow14" /><rect
         x="0"
         y="70.5527"
         width="9.65"
         height="5.4313"
         id="isFLLRow15" /><rect
         x="0"
         y="75.2562"
         width="9.65"
         height="5.4313"
         id="isFLLRow16" /><rect
         x="0"
         y="79.9597"
         width="9.65"
         height="5.4313"
         id="isFLLRow17" /><rect
         x="0"
         y="84.6632"
         width="9.65"
         height="5.4313"
         id="isFLLRow18" /><rect
         x="0"
         y="89.3667"
         width="9.65"
         height="5.4313"
         id="isFLLRow19" /></g><g
       id="isPipsRRL"
       fill="none"
       transform="translate(485.39,461.0213)"><rect
         x="0"
         y="0"
         width="8.24"
         height="5.4313"
         id="isRLLRow00" /><rect
         x="0"
         y="4.7035"
         width="10.46"
         height="5.4313"
         id="isRLLRow01" /><rect
         x="0"
         y="9.4070"
         width="10.46"
         height="5.4313"
         id="isRLLRow02" /><rect
         x="0"
         y="14.1105"
         width="10.46"
         height="5.4313"
         id="isRLLRow03" /><rect
         x="0"
         y="18.8140"
         width="10.46"
         height="5.4313"
         id="isRLLRow04" /><rect
         x="0"
         y="23.5175"
         width="10.46"
         height="5.4313"
         id="isRLLRow05" /><rect
         x="0"
         y="28.2210"
         width="11.64"
         height="5.4313"
         id="isRLLRow06" /><rect
         x="0"
         y="32.9245"
         width="11.64"
         height="5.4313"
         id="isRLLRow07" /><rect
         x="0"
         y="37.6280"
         width="11.64"
         height="5.4313"
         id="isRLLRow08" /><rect
         x="0"
         y="42.3316"
         width="11.64"
         height="5.4313"
         id="isRLLRow09" /><rect
         x="0"
         y="47.0351"
         width="11.64"
         height="5.4313"
         id="isRLLRow10" /><rect
         x="0"
         y="51.7386"
         width="11.64"
         height="5.4313"
         id="isRLLRow11" /><rect
         x="0"
         y="56.4421"
         width="11.64"
         height="5.4313"
         id="isRLLRow12" /><rect
         x="0"
         y="61.1456"
         width="11.64"
         height="5.4313"
         id="isRLLRow13" /><rect
         x="0"
         y="65.8491"
         width="11.64"
         height="5.4313"
         id="isRLLRow14" /><rect
         x="0"
         y="70.5526"
         width="11.64"
         height="5.4313"
         id="isRLLRow15" /></g><g
       id="isPipsRLL"
       fill="none"
       transform="matrix(-1,0,0,1,457.05,461.0213)"><rect
         x="0"
         y="0"
         width="8.24"
         height="5.4313"
         id="rect1567" /><rect
         x="0"
         y="4.7035"
         width="10.46"
         height="5.4313"
         id="rect1569" /><rect
         x="0"
         y="9.4070"
         width="10.46"
         height="5.4313"
         id="rect1571" /><rect
         x="0"
         y="14.1105"
         width="10.46"
         height="5.4313"
         id="rect1573" /><rect
         x="0"
         y="18.8140"
         width="10.46"
         height="5.4313"
         id="rect1575" /><rect
         x="0"
         y="23.5175"
         width="10.46"
         height="5.4313"
         id="rect1577" /><rect
         x="0"
         y="28.2210"
         width="11.64"
         height="5.4313"
         id="rect1579" /><rect
         x="0"
         y="32.9245"
         width="11.64"
         height="5.4313"
         id="rect1581" /><rect
         x="0"
         y="37.6280"
         width="11.64"
         height="5.4313"
         id="rect1583" /><rect
         x="0"
         y="42.3316"
         width="11.64"
         height="5.4313"
         id="rect1585" /><rect
         x="0"
         y="47.0351"
         width="11.64"
         height="5.4313"
         id="rect1587" /><rect
         x="0"
         y="51.7386"
         width="11.64"
         height="5.4313"
         id="rect1589" /><rect
         x="0"
         y="56.4421"
         width="11.64"
         height="5.4313"
         id="rect1591" /><rect
         x="0"
         y="61.1456"
         width="11.64"
         height="5.4313"
         id="rect1593" /><rect
         x="0"
         y="65.8491"
         width="11.64"
         height="5.4313"
         id="rect1595" /><rect
         x="0"
         y="70.5526"
         width="11.64"
         height="5.4313"
         id="rect1597" /></g></g><g
       id="armorValues"
       style="font-size:6.76140022px"><text
        font-weight="bold"
         text-anchor="middle"
         id="textIS_CT"
         x="471.63"
         y="508.64">( 0 )</text>
<text
        font-weight="bold"
         text-anchor="middle"
         id="textIS_RT"
         x="537.82"
         y="412.26">( 0 )</text>
<text
        font-weight="bold"
         text-anchor="middle"
         id="textIS_LT"
         x="405.94"
         y="412.26">( 0 )</text>
<text
        font-weight="bold"
         text-anchor="middle"
         id="textIS_FRL"
         x="533.46"
         y="477.51">( 0 )</text>
<text
        font-weight="bold"
         text-anchor="middle"
         id="textIS_FLL"
         x="412.35"
         y="477.51">( 0 )</text>
<text
        font-weight="bold"
         text-anchor="middle"
         id="textIS_RRL"
         x="537.00"
         y="526.15">( 0 )</text>
<text
        font-weight="bold"
         text-anchor="middle"
         id="textIS_RLL"
         x="408.81"
         y="526.15">( 0 )</text>
</g></g></g>
</svg>
